<?xml version="1.0" encoding="utf-8"?>
<!-- Generator: Adobe Illustrator 25.0.0, SVG Export Plug-In . SVG Version: 6.00 Build 0)  -->
<svg version="1.1" id="Layer_2_1_" xmlns="http://www.w3.org/2000/svg" xmlns:xlink="http://www.w3.org/1999/xlink" x="0px" y="0px"
	 width="256px" height="256px" viewBox="0 0 256 256" style="enable-background:new 0 0 256 256;" xml:space="preserve">
<style type="text/css">
	.st0{fill:#231F20;}
</style>
<path class="st0" d="M128.2,82.5c-25.1,0-45.5,20.4-45.5,45.5c0,25.1,20.4,45.5,45.5,45.5s45.5-20.4,45.5-45.5
	C173.7,102.9,153.3,82.5,128.2,82.5z M161.7,128c0,18.5-15,33.5-33.5,33.5c-18.5,0-33.5-15-33.5-33.5s15-33.5,33.5-33.5
	C146.7,94.5,161.7,109.5,161.7,128z"/>
<path class="st0" d="M128.4,68L128.4,68c-3.2,0-5.8-2.6-5.8-5.7V26.7c0-3.2,2.6-5.7,5.7-5.7l0,0c3.2,0,5.7,2.6,5.7,5.7v35.6
	C134.2,65.4,131.6,68,128.4,68z"/>
<path class="st0" d="M128.4,235.1L128.4,235.1c-3.2,0-5.8-2.6-5.8-5.8v-35.6c0-3.2,2.6-5.8,5.7-5.8l0,0c3.2,0,5.7,2.6,5.7,5.8v35.6
	C134.2,232.5,131.6,235.1,128.4,235.1z"/>
<path class="st0" d="M68.5,128.1L68.5,128.1c0,3.2-2.6,5.7-5.8,5.7l-35.6-0.1c-3.2,0-5.7-2.6-5.7-5.8l0,0c0-3.2,2.6-5.7,5.8-5.7
	l35.6,0.1C65.9,122.3,68.5,124.9,68.5,128.1z"/>
<path class="st0" d="M204.2,51.4L204.2,51.4c2.2,2.3,2.2,5.9,0,8.1L179,84.6c-2.3,2.2-5.9,2.2-8.1,0l0,0c-2.2-2.3-2.2-5.9,0-8.1
	L196,51.4C198.3,49.2,201.9,49.2,204.2,51.4z"/>
<path class="st0" d="M85.3,169.5L85.3,169.5c2.2,2.3,2.2,5.9,0,8.1l-25.2,25.1c-2.3,2.2-5.9,2.2-8.1,0l0,0c-2.2-2.3-2.2-5.9,0-8.1
	l25.2-25.1C79.4,167.3,83.1,167.3,85.3,169.5z"/>
<path class="st0" d="M52,51.3L52,51.3c2.3-2.2,5.9-2.2,8.1,0l25.1,25.2c2.2,2.3,2.2,5.9,0,8.1l0,0c-2.3,2.2-5.9,2.2-8.1,0L52,59.5
	C49.8,57.2,49.8,53.6,52,51.3z"/>
<path class="st0" d="M170.9,169.5L170.9,169.5c2.3-2.2,5.9-2.2,8.1,0l25.1,25.2c2.2,2.3,2.2,5.9,0,8.1l0,0c-2.3,2.2-5.9,2.2-8.1,0
	l-25.1-25.2C168.6,175.3,168.6,171.7,170.9,169.5z"/>
<path class="st0" d="M234.6,128.1L234.6,128.1c0,3.2-2.6,5.7-5.8,5.7l-35.6-0.1c-3.2,0-5.7-2.6-5.7-5.8l0,0c0-3.2,2.6-5.7,5.8-5.7
	l35.6,0.1C232.1,122.3,234.6,124.9,234.6,128.1z"/>
</svg>
