<?xml version="1.0" encoding="utf-8"?>
<!-- Generator: Adobe Illustrator 21.1.0, SVG Export Plug-In . SVG Version: 6.00 Build 0)  -->
<svg version="1.1" id="Layer_2" xmlns="http://www.w3.org/2000/svg" xmlns:xlink="http://www.w3.org/1999/xlink" x="0px" y="0px"
	 viewBox="0 0 256 256" style="enable-background:new 0 0 256 256;" xml:space="preserve">
<g>
	<path d="M109.6,199.6L109.6,199.6L128,218l18.4-18.4C136.2,189.4,119.8,189.1,109.6,199.6z"/>
	<path d="M73.4,163.4l18.1,18.1c20.1-20.1,52.6-20.1,72.7,0l18.1-18.1C152.3,133.4,103.7,133.4,73.4,163.4z"/>
	<path d="M37.2,127.2l18.1,18.1c40.2-40.2,105.2-40.2,145.4,0l18.1-18.1C168.7,76.8,87.3,76.8,37.2,127.2z"/>
	<path d="M0.7,90.7l18.1,18.1c60.3-60,158.2-60,218.4,0l18.1-18.1C184.9,20.5,71.1,20.5,0.7,90.7z"/>
</g>
</svg>
