<?xml version="1.0" encoding="utf-8"?>
<!-- Generator: Adobe Illustrator 25.0.0, SVG Export Plug-In . SVG Version: 6.00 Build 0)  -->
<svg version="1.1" id="Layer_1" xmlns="http://www.w3.org/2000/svg" xmlns:xlink="http://www.w3.org/1999/xlink" x="0px" y="0px"
	 width="181.6px" height="181.6px" viewBox="0 0 181.6 181.6" style="enable-background:new 0 0 181.6 181.6;" xml:space="preserve"
	>
<style type="text/css">
	.st0{fill:#231F20;}
</style>
<path class="st0" d="M90.8,0L90.8,0c2.7,0,4.8,2.2,4.8,4.8v10.3c0,2.7-2.2,4.8-4.8,4.8h0c-2.7,0-4.8-2.2-4.8-4.8V4.8
	C86,2.2,88.2,0,90.8,0z"/>
<path class="st0" d="M26.1,25.8L26.1,25.8c1.9-1.9,5-1.9,6.8,0l7.3,7.3c1.9,1.9,1.9,5,0,6.8l0,0c-1.9,1.9-5,1.9-6.8,0l-7.3-7.3
	C24.3,30.8,24.3,27.7,26.1,25.8z"/>
<path class="st0" d="M0.2,90.8L0.2,90.8c0-2.7,2.2-4.8,4.8-4.8h10.3c2.7,0,4.8,2.2,4.8,4.8v0c0,2.7-2.2,4.8-4.8,4.8H5
	C2.3,95.6,0.2,93.4,0.2,90.8z"/>
<path class="st0" d="M26.1,153.9L26.1,153.9c-1.9-1.9-1.9-5,0-6.8l7.3-7.3c1.9-1.9,5-1.9,6.8,0h0c1.9,1.9,1.9,5,0,6.8l-7.3,7.3
	C31.1,155.8,28,155.8,26.1,153.9z"/>
<path class="st0" d="M90.8,181.5L90.8,181.5c-2.7,0-4.8-2.2-4.8-4.8v-10.3c0-2.7,2.2-4.8,4.8-4.8h0c2.7,0,4.8,2.2,4.8,4.8v10.3
	C95.6,179.3,93.4,181.5,90.8,181.5z"/>
<path class="st0" d="M155.3,153.9L155.3,153.9c-1.9,1.9-5,1.9-6.8,0l-7.3-7.3c-1.9-1.9-1.9-5,0-6.8h0c1.9-1.9,5-1.9,6.8,0l7.3,7.3
	C157.1,149,157.1,152,155.3,153.9z"/>
<path class="st0" d="M181,90.8L181,90.8c0,2.7-2.2,4.8-4.8,4.8h-10.3c-2.7,0-4.8-2.2-4.8-4.8v0c0-2.7,2.2-4.8,4.8-4.8h10.3
	C178.8,85.9,181,88.1,181,90.8z"/>
<path class="st0" d="M155.3,25.8L155.3,25.8c1.9,1.9,1.9,5,0,6.8l-7.3,7.3c-1.9,1.9-5,1.9-6.8,0l0,0c-1.9-1.9-1.9-5,0-6.8l7.3-7.3
	C150.3,23.9,153.4,23.9,155.3,25.8z"/>
<path class="st0" d="M90.8,30.4c-33.3,0-60.3,27.1-60.3,60.3c0,33.3,27.1,60.3,60.3,60.3s60.3-27.1,60.3-60.3
	C151.1,57.5,124,30.4,90.8,30.4z M91.5,142.9c-28.7,0-52.1-23.4-52.1-52.1c0-23.5,15.6-43.4,37-49.9c-4.3,7.6-6.8,16.4-6.8,25.7
	c0,28.7,23.4,52.1,52.1,52.1c5.3,0,10.3-0.8,15.1-2.2C127.9,132.3,110.9,142.9,91.5,142.9z"/>
</svg>
