<?xml version="1.0" encoding="utf-8"?>
<!-- Generator: Adobe Illustrator 21.1.0, SVG Export Plug-In . SVG Version: 6.00 Build 0)  -->
<svg version="1.1" id="Layer_2_copy" xmlns="http://www.w3.org/2000/svg" xmlns:xlink="http://www.w3.org/1999/xlink" x="0px"
	 y="0px" viewBox="0 0 1024 1024" style="enable-background:new 0 0 1024 1024;" xml:space="preserve">
<style type="text/css">
	.st0{fill:url(#SVGID_1_);}
	.st1{fill:url(#SVGID_2_);}
	.st2{fill:url(#SVGID_3_);}
	.st3{opacity:0.65;fill:#009DF1;}
</style>
<g>
	<g>
		
			<linearGradient id="SVGID_1_" gradientUnits="userSpaceOnUse" x1="512.3" y1="1107.96" x2="512.3" y2="1217.9189" gradientTransform="matrix(1 0 0 1 0 -976)">
			<stop  offset="0" style="stop-color:#99DBF9"/>
			<stop  offset="0.4933" style="stop-color:#8AD5F7"/>
			<stop  offset="1" style="stop-color:#85D2F5"/>
		</linearGradient>
		<path class="st0" d="M949,257c0-28.5-23.3-51.8-51.8-51.8H399.3c-15.5,0-28.1-12.6-28.1-28.1l0,0c0-28.5-23.3-51.8-51.8-51.8h-192
			c-28.5,0-51.8,23.3-51.8,51.8V257v42c0-24,19.6-43.6,43.6-43.6H905c24,0,43.6,19.6,43.6,43.6v117.8c0.3-2.1,0.4-4.3,0.4-6.5V257z"
			/>
	</g>
	
		<linearGradient id="SVGID_2_" gradientUnits="userSpaceOnUse" x1="512.1" y1="1240" x2="512.1" y2="1906.0261" gradientTransform="matrix(1 0 0 1 0 -976)">
		<stop  offset="0" style="stop-color:#A0DDF9"/>
		<stop  offset="1" style="stop-color:#6BC9F2"/>
	</linearGradient>
	<path class="st1" d="M910.3,945.6H113.9c-21.1,0-38.3-17.2-38.3-38.3V298.9c0-24,19.6-43.6,43.6-43.6H905c24,0,43.6,19.6,43.6,43.6
		v608.3C948.6,928.3,931.3,945.6,910.3,945.6z"/>
	
		<linearGradient id="SVGID_3_" gradientUnits="userSpaceOnUse" x1="75.6" y1="1249.5" x2="948.6" y2="1249.5" gradientTransform="matrix(1 0 0 1 0 -976)">
		<stop  offset="0" style="stop-color:#8AD5F7"/>
		<stop  offset="4.869445e-03" style="stop-color:#8DD6F7"/>
		<stop  offset="6.110681e-02" style="stop-color:#A0DCF8"/>
		<stop  offset="0.1308" style="stop-color:#ADE1FA"/>
		<stop  offset="0.229" style="stop-color:#B5E4FA"/>
		<stop  offset="0.5015" style="stop-color:#B7E5FA"/>
		<stop  offset="0.7724" style="stop-color:#B5E4FA"/>
		<stop  offset="0.8699" style="stop-color:#ADE1FA"/>
		<stop  offset="0.9392" style="stop-color:#A0DCF8"/>
		<stop  offset="0.9952" style="stop-color:#8DD6F7"/>
		<stop  offset="1" style="stop-color:#8AD5F7"/>
	</linearGradient>
	<path class="st2" d="M905,248H119.2c-24,0-43.6,19.6-43.6,43.6v7.4c0-24,19.6-43.6,43.6-43.6H905c24,0,43.6,19.6,43.6,43.6v-7.4
		C948.6,267.6,929,248,905,248z"/>
</g>
<path class="st3" d="M608.3,664.2c-7.8,0-15.3,1.6-22.1,4.5l-128.9-71l123.6-68.1c8.1,4.5,17.4,7.1,27.4,7.1
	c31.2,0,56.5-25.3,56.5-56.5s-25.3-56.5-56.5-56.5c-30.5,0-55.4,24.2-56.5,54.5l-136.6,75.2c-9.7-7.7-21.9-12.3-35.2-12.3
	c-31.2,0-56.5,25.3-56.5,56.5s25.3,56.5,56.5,56.5c13.3,0,25.4-4.6,35.1-12.2l136.7,75.3c-0.1,1.1-0.1,2.3-0.1,3.5
	c0,31.2,25.3,56.5,56.5,56.5s56.5-25.3,56.5-56.5C664.8,689.5,639.5,664.2,608.3,664.2z"/>
</svg>
