<?xml version="1.0" encoding="utf-8"?>
<!-- Generator: Adobe Illustrator 21.1.0, SVG Export Plug-In . SVG Version: 6.00 Build 0)  -->
<svg version="1.1" xmlns="http://www.w3.org/2000/svg" xmlns:xlink="http://www.w3.org/1999/xlink" x="0px" y="0px"
	 viewBox="0 0 180 85.4" style="enable-background:new 0 0 180 85.4;" xml:space="preserve">
<g id="Layer_2">
	<path d="M155.1,7c2.1,0,3.8,1.7,3.8,3.8v63.9c0,2.1-1.7,3.8-3.8,3.8H10.8c-2.1,0-3.8-1.7-3.8-3.8V10.8C7,8.7,8.7,7,10.8,7H155.1
		 M155.1,0H10.8C4.8,0,0,4.8,0,10.8v63.9c0,5.9,4.8,10.8,10.8,10.8h144.4c5.9,0,10.8-4.8,10.8-10.8V10.8C165.9,4.8,161.1,0,155.1,0
		L155.1,0z"/>
</g>
<g id="Layer_2_copy">
	<g>
		<path d="M149.5,73.1H16.4c-2.4,0-4.3-1.9-4.3-4.3V16.6c0-2.4,1.9-4.3,4.3-4.3h133.1c2.4,0,4.3,1.9,4.3,4.3v52.3
			C153.8,71.2,151.9,73.1,149.5,73.1z"/>
	</g>
	<path d="M177.2,54.3h-5.9c-1.5,0-2.8-1.2-2.8-2.8V34c0-1.5,1.2-2.8,2.8-2.8h5.9c1.5,0,2.8,1.2,2.8,2.8v17.5
		C180,53,178.7,54.3,177.2,54.3z"/>
</g>
</svg>
