<?xml version="1.0" encoding="utf-8"?>
<!-- Generator: Adobe Illustrator 24.1.2, SVG Export Plug-In . SVG Version: 6.00 Build 0)  -->
<svg version="1.1"
	 id="Layer_1" xmlns:cc="http://creativecommons.org/ns#" xmlns:dc="http://purl.org/dc/elements/1.1/" xmlns:inkscape="http://www.inkscape.org/namespaces/inkscape" xmlns:rdf="http://www.w3.org/1999/02/22-rdf-syntax-ns#" xmlns:sodipodi="http://sodipodi.sourceforge.net/DTD/sodipodi-0.dtd" xmlns:svg="http://www.w3.org/2000/svg"
	 xmlns="http://www.w3.org/2000/svg" xmlns:xlink="http://www.w3.org/1999/xlink" x="0px" y="0px" width="1024px" height="1024px"
	 viewBox="0 0 1024 1024" style="enable-background:new 0 0 1024 1024;" xml:space="preserve">
<style type="text/css">
	.st0{fill:#FFC108;}
</style>
<sodipodi:namedview  bordercolor="#666666" borderopacity="1" gridtolerance="10" guidetolerance="10" id="namedview2240" inkscape:current-layer="Layer_1" inkscape:cx="-617.21687" inkscape:cy="34.528894" inkscape:pageopacity="0" inkscape:pageshadow="2" inkscape:window-height="956" inkscape:window-maximized="1" inkscape:window-width="1680" inkscape:window-x="0" inkscape:window-y="1" inkscape:zoom="0.32593203" objecttolerance="10" pagecolor="#ffffff" showgrid="false">
	</sodipodi:namedview>
<g id="_x23_ffc108ff">
	<path class="st0" d="M371.8,105c37.4-17.7,86.7-13.7,115.9,17.5c132.3,131.4,263.5,263.8,395.7,395.2
		c46.1,33.5,66.7,104.3,26.8,150.3c-69,72.5-141.3,141.9-211.6,213.2c-19.4,22.1-47.6,35-77.1,33.9c-134.2,2.4-268.2,3.6-402.3,5.7
		c-62,4.7-120.4-55.4-114.1-117.2c2.2-133.5,3.3-267.1,5.8-400.6c-1.5-32.5,15.1-61.8,39.5-82.3C225.1,249.8,293.1,171,371.8,105z"
		/>
</g>
</svg>
