<?xml version="1.0" encoding="UTF-8" standalone="no"?>
<!-- Artist: @KevDoy for Trenta.io -->
<!-- Vector Conversion by @Genghis-Khanr -->
<svg
   xmlns:dc="http://purl.org/dc/elements/1.1/"
   xmlns:cc="http://creativecommons.org/ns#"
   xmlns:rdf="http://www.w3.org/1999/02/22-rdf-syntax-ns#"
   xmlns:svg="http://www.w3.org/2000/svg"
   xmlns="http://www.w3.org/2000/svg"
   xmlns:sodipodi="http://sodipodi.sourceforge.net/DTD/sodipodi-0.dtd"
   xmlns:inkscape="http://www.inkscape.org/namespaces/inkscape"
   version="1.1"
   x="0px"
   y="0px"
   viewBox="0 0 1024 1024"
   style="enable-background:new 0 0 1024 1024;"
   xml:space="preserve"
   id="svg422"
   sodipodi:docname="gdebi.svg"
   inkscape:version="0.92.2 5c3e80d, 2017-08-06"><metadata
     id="metadata428"><rdf:RDF><cc:Work
         rdf:about=""><dc:format>image/svg+xml</dc:format><dc:type
           rdf:resource="http://purl.org/dc/dcmitype/StillImage" /></cc:Work></rdf:RDF></metadata><defs
     id="defs426"><filter
       inkscape:collect="always"
       style="color-interpolation-filters:sRGB"
       id="filter1235"
       x="-0.0059371516"
       width="1.0118743"
       y="-0.0091452115"
       height="1.0182904"><feGaussianBlur
         inkscape:collect="always"
         stdDeviation="2.4231"
         id="feGaussianBlur1237" /></filter></defs><sodipodi:namedview
     pagecolor="#ffffff"
     bordercolor="#666666"
     borderopacity="1"
     objecttolerance="10"
     gridtolerance="10"
     guidetolerance="10"
     inkscape:pageopacity="0"
     inkscape:pageshadow="2"
     inkscape:window-width="1680"
     inkscape:window-height="956"
     id="namedview424"
     showgrid="false"
     inkscape:zoom="0.65186406"
     inkscape:cx="633.2515"
     inkscape:cy="514.37275"
     inkscape:window-x="0"
     inkscape:window-y="1"
     inkscape:window-maximized="1"
     inkscape:current-layer="svg422" /><style
     type="text/css"
     id="style2">
	.st0{fill:url(#SVGID_1_);}
	.st1{fill:url(#SVGID_2_);}
	.st2{fill:#9D5518;}
	.st3{fill:#A25539;}
	.st4{fill:url(#SVGID_3_);}
	.st5{fill:url(#SVGID_4_);}
	.st6{fill:url(#SVGID_5_);}
	.st7{fill:url(#SVGID_6_);}
	.st8{fill:none;stroke:#000000;stroke-miterlimit:10;}
	.st9{fill:#AD631C;}
	.st10{fill:url(#SVGID_7_);}
	.st11{fill:#E2A777;}
</style><g
     id="Inner_Box_Gradient_1"><linearGradient
       id="SVGID_1_"
       gradientUnits="userSpaceOnUse"
       x1="754.5863"
       y1="266.9442"
       x2="587.7864"
       y2="526.1968"><stop
         offset="0.1889"
         style="stop-color:#A35D22"
         id="stop4" /><stop
         offset="0.2099"
         style="stop-color:#A05B21"
         id="stop6" /><stop
         offset="0.4969"
         style="stop-color:#7D4113"
         id="stop8" /><stop
         offset="0.7324"
         style="stop-color:#68320B"
         id="stop10" /><stop
         offset="0.8857"
         style="stop-color:#602C08"
         id="stop12" /></linearGradient><polygon
       class="st0"
       points="575.9,513.6 575.9,207 890.3,393.7  "
       id="polygon15" /></g><g
     id="Inner_Box_Gradient_2"><linearGradient
       id="SVGID_2_"
       gradientUnits="userSpaceOnUse"
       x1="367.6373"
       y1="268.2147"
       x2="475.3483"
       y2="607.0378"><stop
         offset="2.461117e-03"
         style="stop-color:#A35D22"
         id="stop18" /><stop
         offset="0.4421"
         style="stop-color:#743B10"
         id="stop20" /><stop
         offset="0.6785"
         style="stop-color:#602C08"
         id="stop22" /></linearGradient><polygon
       class="st1"
       points="575.9,513.6 575.9,207 161.2,335.2 449,562  "
       id="polygon25" /></g><g
     id="Layer_3"><polygon
       class="st2"
       points="449,562 890.3,393.7 876.5,770 449,946 174.3,724 161.2,335.2  "
       id="polygon28" /></g><g
     id="bottom_left_flap"><g
       id="g46"><polygon
         class="st3"
         points="446.3,559.9 446.3,566.7 271.7,649.7 13.5,431 13.5,425.2 161.2,335.2   "
         id="polygon31" /><linearGradient
         id="SVGID_3_"
         gradientUnits="userSpaceOnUse"
         x1="179.4064"
         y1="563.7402"
         x2="277.0089"
         y2="426.8863"><stop
           offset="0"
           style="stop-color:#D98E56"
           id="stop33" /><stop
           offset="0.3338"
           style="stop-color:#DA915A"
           id="stop35" /><stop
           offset="0.6546"
           style="stop-color:#DC9965"
           id="stop37" /><stop
           offset="0.9691"
           style="stop-color:#E0A779"
           id="stop39" /><stop
           offset="1"
           style="stop-color:#E1A97B"
           id="stop41" /></linearGradient><polygon
         class="st4"
         points="446.3,559.9 271.6,642 14.4,424.6 161.2,335.2   "
         id="polygon44" /></g></g><g
     id="bottom_right_flap"><g
       id="g60"><polygon
         class="st3"
         points="451.7,561 451.7,565.9 578.9,734.5 987.1,550.9 890.3,393.7   "
         id="polygon49" /><linearGradient
         id="SVGID_4_"
         gradientUnits="userSpaceOnUse"
         x1="757.3307"
         y1="653.3385"
         x2="673.9973"
         y2="439.3385"><stop
           offset="0"
           style="stop-color:#D98E56"
           id="stop51" /><stop
           offset="0.4284"
           style="stop-color:#DC9763"
           id="stop53" /><stop
           offset="1"
           style="stop-color:#E1A97B"
           id="stop55" /></linearGradient><polygon
         class="st5"
         points="451.7,561 583.1,732.5 987.1,550.9 890.3,393.7   "
         id="polygon58" /></g></g><g
     id="top_right_flap"><g
       id="g74"><polygon
         class="st3"
         points="892.2,396.6 1011.4,324.8 1011.4,321.4 708.8,148 577.4,207.9 890.3,393.7   "
         id="polygon63" /><linearGradient
         id="SVGID_5_"
         gradientUnits="userSpaceOnUse"
         x1="822.8149"
         y1="212.3482"
         x2="747.4816"
         y2="351.0148"><stop
           offset="0"
           style="stop-color:#D98E56"
           id="stop65" /><stop
           offset="0.4284"
           style="stop-color:#DC9763"
           id="stop67" /><stop
           offset="1"
           style="stop-color:#E1A97B"
           id="stop69" /></linearGradient><polygon
         class="st6"
         points="890.3,393.7 1011.4,321.4 708.8,148 577.4,207.9   "
         id="polygon72" /></g></g><g
     id="top_left_flap"><path
       class="st3"
       d="M156.7,338L96.6,218.8l2.9-5.1L484.3,92.2c0,0,63.7,102.5,88.6,115.7L161.2,335.2L156.7,338z"
       id="path77" /><linearGradient
       id="SVGID_6_"
       gradientUnits="userSpaceOnUse"
       x1="304.7987"
       y1="155.5988"
       x2="377.2987"
       y2="290.5988"><stop
         offset="0"
         style="stop-color:#D98E56"
         id="stop79" /><stop
         offset="0.4284"
         style="stop-color:#DC9763"
         id="stop81" /><stop
         offset="1"
         style="stop-color:#E1A97B"
         id="stop83" /></linearGradient><path
       class="st7"
       d="M99.6,213.8L484.3,92.2c0,0,63.7,102.5,88.6,115.7L161.2,335.2L99.6,213.8z"
       id="path86" /></g><g
     id="Bottom_Stroke" /><g
     id="Layer_12"><path
       class="st8"
       d="M174.3,724"
       id="path90" /><polygon
       class="st9"
       points="449,562 448,561.2 448,945.2 449,946 450,945.6 450,561.6  "
       id="polygon92" /></g><g
     id="Top_Stroke_1_"><linearGradient
       id="SVGID_7_"
       gradientUnits="userSpaceOnUse"
       x1="575.875"
       y1="207"
       x2="575.875"
       y2="513.9888"><stop
         offset="0.1889"
         style="stop-color:#A35D22"
         id="stop95" /><stop
         offset="0.527"
         style="stop-color:#9C5316"
         id="stop97" /><stop
         offset="0.8857"
         style="stop-color:#974D0E"
         id="stop99" /></linearGradient><polygon
       class="st10"
       points="574.9,207.3 574.9,514 576.9,513.2 576.9,207.6 575.9,207  "
       id="polygon102" /></g><g
     id="Top_Lines"
     style="display:inline;filter:url(#filter1235)"><polygon
       class="st11"
       points="341.8,478.1 191,573.2 192.6,574.5 343.4,479.5 "
       id="polygon105"
       style="fill:#e2a777" /><polygon
       class="st11"
       points="333.4,471.5 182.9,566.4 184.5,567.7 335.1,472.9 "
       id="polygon107"
       style="fill:#e2a777" /><polygon
       class="st11"
       points="359.8,492.4 208.3,587.9 209.9,589.2 361.5,493.7 "
       id="polygon109"
       style="fill:#e2a777" /><polygon
       class="st11"
       points="351.5,485.8 200.3,581.1 201.9,582.4 353.1,487.1 "
       id="polygon111"
       style="fill:#e2a777" /><polygon
       class="st11"
       points="377.9,506.6 225.7,602.5 227.3,603.9 379.6,507.9 "
       id="polygon113"
       style="fill:#e2a777" /><polygon
       class="st11"
       points="369.5,500 217.6,595.7 219.3,597.1 371.2,501.3 "
       id="polygon115"
       style="fill:#e2a777" /><polygon
       class="st11"
       points="396,520.8 243.1,617.2 244.7,618.6 397.6,522.1 "
       id="polygon117"
       style="fill:#e2a777" /><polygon
       class="st11"
       points="387.6,514.2 235,610.4 236.6,611.8 389.2,515.6 "
       id="polygon119"
       style="fill:#e2a777" /><polygon
       class="st11"
       points="414,535.1 260.4,631.9 262,633.2 415.7,536.4 "
       id="polygon121"
       style="fill:#e2a777" /><polygon
       class="st11"
       points="405.6,528.5 252.4,625.1 254,626.4 407.3,529.8 "
       id="polygon123"
       style="fill:#e2a777" /><polygon
       class="st11"
       points="432.1,549.3 327.6,615.2 342.3,608.2 433.7,550.6 "
       id="polygon125"
       style="fill:#e2a777" /><polygon
       class="st11"
       points="423.7,542.7 269.7,639.7 271.3,641.1 425.4,544 "
       id="polygon127"
       style="fill:#e2a777" /><polygon
       class="st11"
       points="323.3,463.6 173.2,558.1 174.8,559.5 324.9,464.9 "
       id="polygon129"
       style="fill:#e2a777" /><polygon
       class="st11"
       points="314.9,457 165.1,551.3 166.7,552.7 316.6,458.3 "
       id="polygon131"
       style="fill:#e2a777" /><polygon
       class="st11"
       points="304.7,449 155.4,543.1 157,544.5 306.4,450.3 "
       id="polygon133"
       style="fill:#e2a777" /><polygon
       class="st11"
       points="296.4,442.4 147.3,536.3 148.9,537.7 298,443.7 "
       id="polygon135"
       style="fill:#e2a777" /><polygon
       class="st11"
       points="286.2,434.4 137.6,528.1 139.2,529.4 287.9,435.7 "
       id="polygon137"
       style="fill:#e2a777" /><polygon
       class="st11"
       points="277.9,427.8 129.5,521.3 131.1,522.6 279.5,429.1 "
       id="polygon139"
       style="fill:#e2a777" /><polygon
       class="st11"
       points="267.7,419.8 119.8,513 121.4,514.4 269.4,421.1 "
       id="polygon141"
       style="fill:#e2a777" /><polygon
       class="st11"
       points="259.3,413.2 111.7,506.2 113.3,507.6 261,414.5 "
       id="polygon143"
       style="fill:#e2a777" /><polygon
       class="st11"
       points="249.2,405.2 102,498 103.6,499.3 250.9,406.5 "
       id="polygon145"
       style="fill:#e2a777" /><polygon
       class="st11"
       points="240.8,398.6 93.9,491.2 95.5,492.5 242.5,399.9 "
       id="polygon147"
       style="fill:#e2a777" /><polygon
       class="st11"
       points="230.7,390.6 84.2,482.9 85.8,484.3 232.3,391.9 "
       id="polygon149"
       style="fill:#e2a777" /><polygon
       class="st11"
       points="222.3,384 76.1,476.1 77.7,477.5 224,385.3 "
       id="polygon151"
       style="fill:#e2a777" /><polygon
       class="st11"
       points="212.2,376 66.4,467.9 68,469.2 213.8,377.3 "
       id="polygon153"
       style="fill:#e2a777" /><polygon
       class="st11"
       points="203.8,369.4 58.3,461.1 59.9,462.4 205.5,370.7 "
       id="polygon155"
       style="fill:#e2a777" /><polygon
       class="st11"
       points="193.6,361.4 48.6,452.8 50.2,454.2 195.3,362.7 "
       id="polygon157"
       style="fill:#e2a777" /><polygon
       class="st11"
       points="185.3,354.8 40.5,446 42.1,447.4 186.9,356.1 "
       id="polygon159"
       style="fill:#e2a777" /><polygon
       class="st11"
       points="175.1,346.8 30.8,437.8 32.4,439.1 176.8,348.1 "
       id="polygon161"
       style="fill:#e2a777" /><polygon
       class="st11"
       points="166.8,340.2 22.7,431 24.3,432.3 168.4,341.5 "
       id="polygon163"
       style="fill:#e2a777" /><polygon
       class="st11"
       points="102.6,213.3 176.1,330.1 178.1,329.5 104.6,212.7 "
       id="polygon165"
       style="fill:#e2a777" /><polygon
       class="st11"
       points="111.2,210.6 184.7,327.5 186.7,326.8 113.2,210 "
       id="polygon167"
       style="fill:#e2a777" /><polygon
       class="st11"
       points="119.9,207.9 193.4,324.8 195.4,324.2 121.9,207.2 "
       id="polygon169"
       style="fill:#e2a777" /><polygon
       class="st11"
       points="128.5,205.1 202.1,322.1 204.1,321.5 130.5,204.5 "
       id="polygon171"
       style="fill:#e2a777" /><polygon
       class="st11"
       points="137.2,202.4 210.8,319.4 212.7,318.8 139.1,201.8 "
       id="polygon173"
       style="fill:#e2a777" /><polygon
       class="st11"
       points="145.8,199.7 219.4,316.7 221.4,316.1 147.8,199 "
       id="polygon175"
       style="fill:#e2a777" /><polygon
       class="st11"
       points="154.5,196.9 228.1,314 230.1,313.4 156.4,196.3 "
       id="polygon177"
       style="fill:#e2a777" /><polygon
       class="st11"
       points="163.1,194.2 236.8,311.4 238.8,310.8 165.1,193.6 "
       id="polygon179"
       style="fill:#e2a777" /><polygon
       class="st11"
       points="171.7,191.5 245.5,308.7 247.4,308.1 173.7,190.8 "
       id="polygon181"
       style="fill:#e2a777" /><polygon
       class="st11"
       points="180.4,188.7 254.1,306 256.1,305.4 182.4,188.1 "
       id="polygon183"
       style="fill:#e2a777" /><polygon
       class="st11"
       points="189,186 262.8,303.3 264.8,302.7 191,185.4 "
       id="polygon185"
       style="fill:#e2a777" /><polygon
       class="st11"
       points="197.7,183.3 271.5,300.6 273.4,300 199.6,182.7 "
       id="polygon187"
       style="fill:#e2a777" /><polygon
       class="st11"
       points="206.3,180.5 280.1,298 282.1,297.3 208.3,179.9 "
       id="polygon189"
       style="fill:#e2a777" /><polygon
       class="st11"
       points="214.9,177.8 288.8,295.3 290.8,294.7 216.9,177.2 "
       id="polygon191"
       style="fill:#e2a777" /><polygon
       class="st11"
       points="223.6,175.1 297.5,292.6 299.5,292 225.6,174.5 "
       id="polygon193"
       style="fill:#e2a777" /><polygon
       class="st11"
       points="232.2,172.4 306.2,289.9 308.1,289.3 234.2,171.7 "
       id="polygon195"
       style="fill:#e2a777" /><polygon
       class="st11"
       points="240.9,169.6 314.8,287.2 316.8,286.6 242.8,169 "
       id="polygon197"
       style="fill:#e2a777" /><polygon
       class="st11"
       points="249.5,166.9 323.5,284.5 325.5,283.9 251.5,166.3 "
       id="polygon199"
       style="fill:#e2a777" /><polygon
       class="st11"
       points="258.2,164.2 332.2,281.9 334.2,281.2 260.1,163.5 "
       id="polygon201"
       style="fill:#e2a777" /><polygon
       class="st11"
       points="266.8,161.4 340.8,279.2 342.8,278.6 268.8,160.8 "
       id="polygon203"
       style="fill:#e2a777" /><polygon
       class="st11"
       points="275.4,158.7 349.5,276.5 351.5,275.9 277.4,158.1 "
       id="polygon205"
       style="fill:#e2a777" /><polygon
       class="st11"
       points="284.1,156 358.2,273.8 360.2,273.2 286.1,155.4 "
       id="polygon207"
       style="fill:#e2a777" /><polygon
       class="st11"
       points="292.7,153.2 366.9,271.1 368.8,270.5 294.7,152.6 "
       id="polygon209"
       style="fill:#e2a777" /><polygon
       class="st11"
       points="301.4,150.5 375.5,268.4 377.5,267.8 303.3,149.9 "
       id="polygon211"
       style="fill:#e2a777" /><polygon
       class="st11"
       points="310,147.8 384.2,265.8 386.2,265.2 312,147.2 "
       id="polygon213"
       style="fill:#e2a777" /><polygon
       class="st11"
       points="318.6,145.1 392.9,263.1 394.9,262.5 320.6,144.4 "
       id="polygon215"
       style="fill:#e2a777" /><polygon
       class="st11"
       points="327.3,142.3 401.5,260.4 403.5,259.8 329.3,141.7 "
       id="polygon217"
       style="fill:#e2a777" /><polygon
       class="st11"
       points="335.9,139.6 410.2,257.7 412.2,257.1 337.9,139 "
       id="polygon219"
       style="fill:#e2a777" /><polygon
       class="st11"
       points="344.6,136.9 418.9,255 420.9,254.4 346.5,136.2 "
       id="polygon221"
       style="fill:#e2a777" /><polygon
       class="st11"
       points="353.2,134.1 427.6,252.4 429.5,251.7 355.2,133.5 "
       id="polygon223"
       style="fill:#e2a777" /><polygon
       class="st11"
       points="361.9,131.4 436.2,249.7 438.2,249.1 363.8,130.8 "
       id="polygon225"
       style="fill:#e2a777" /><polygon
       class="st11"
       points="370.5,128.7 444.9,247 446.9,246.4 372.5,128 "
       id="polygon227"
       style="fill:#e2a777" /><polygon
       class="st11"
       points="379.1,125.9 453.6,244.3 455.6,243.7 381.1,125.3 "
       id="polygon229"
       style="fill:#e2a777" /><polygon
       class="st11"
       points="387.8,123.2 462.3,241.6 464.2,241 389.8,122.6 "
       id="polygon231"
       style="fill:#e2a777" /><polygon
       class="st11"
       points="396.4,120.5 470.9,238.9 472.9,238.3 398.4,119.9 "
       id="polygon233"
       style="fill:#e2a777" /><polygon
       class="st11"
       points="405.1,117.7 479.6,236.3 481.6,235.6 407,117.1 "
       id="polygon235"
       style="fill:#e2a777" /><polygon
       class="st11"
       points="413.7,115 488.3,233.6 490.2,233 415.7,114.4 "
       id="polygon237"
       style="fill:#e2a777" /><polygon
       class="st11"
       points="422.3,112.3 496.9,230.9 498.9,230.3 424.3,111.7 "
       id="polygon239"
       style="fill:#e2a777" /><polygon
       class="st11"
       points="431,109.6 505.6,228.2 507.6,227.6 433,108.9 "
       id="polygon241"
       style="fill:#e2a777" /><polygon
       class="st11"
       points="439.6,106.8 514.3,225.5 516.3,224.9 441.6,106.2 "
       id="polygon243"
       style="fill:#e2a777" /><polygon
       class="st11"
       points="448.3,104.1 523,222.8 524.9,222.2 450.2,103.5 "
       id="polygon245"
       style="fill:#e2a777" /><polygon
       class="st11"
       points="456.9,101.4 531.6,220.2 533.6,219.6 458.9,100.7 "
       id="polygon247"
       style="fill:#e2a777" /><polygon
       class="st11"
       points="465.6,98.6 540.3,217.5 542.3,216.9 467.5,98 "
       id="polygon249"
       style="fill:#e2a777" /><polygon
       class="st11"
       points="474.2,95.9 549,214.8 551,214.2 476.2,95.3 "
       id="polygon251"
       style="fill:#e2a777" /><path
       class="st11"
       d="M 559.6,211.5 509.4,131.7 C 496.2,112.1 485.9,95.8 484.1,92.8 l -1.3,0.4 74.8,118.9 z"
       id="path253"
       inkscape:connector-curvature="0"
       style="fill:#e2a777" /><polygon
       class="st11"
       points="592.3,727.9 461.8,557.6 459.9,558.4 590.4,728.7 "
       id="polygon255"
       style="fill:#e2a777" /><polygon
       class="st11"
       points="602.5,723.3 472.5,553.6 470.5,554.3 600.6,724.1 "
       id="polygon257"
       style="fill:#e2a777" /><polygon
       class="st11"
       points="612.8,718.7 483.2,549.5 481.2,550.3 610.9,719.5 "
       id="polygon259"
       style="fill:#e2a777" /><polygon
       class="st11"
       points="623,714.1 493.8,545.4 491.9,546.2 621.1,714.9 "
       id="polygon261"
       style="fill:#e2a777" /><polygon
       class="st11"
       points="633.3,709.5 504.5,541.4 502.5,542.1 631.4,710.3 "
       id="polygon263"
       style="fill:#e2a777" /><polygon
       class="st11"
       points="643.5,704.8 515.1,537.3 513.2,538.1 641.6,705.7 "
       id="polygon265"
       style="fill:#e2a777" /><polygon
       class="st11"
       points="653.8,700.2 525.8,533.2 523.9,534 651.9,701.1 "
       id="polygon267"
       style="fill:#e2a777" /><polygon
       class="st11"
       points="664,695.6 536.5,529.2 534.5,529.9 662.1,696.5 "
       id="polygon269"
       style="fill:#e2a777" /><polygon
       class="st11"
       points="674.3,691 547.1,525.1 545.2,525.9 672.4,691.9 "
       id="polygon271"
       style="fill:#e2a777" /><polygon
       class="st11"
       points="684.5,686.4 557.8,521 555.8,521.8 682.6,687.3 "
       id="polygon273"
       style="fill:#e2a777" /><polygon
       class="st11"
       points="694.7,681.8 568.5,517 566.5,517.7 692.9,682.6 "
       id="polygon275"
       style="fill:#e2a777" /><polygon
       class="st11"
       points="705,677.2 579.1,512.9 577.2,513.7 703.1,678 "
       id="polygon277"
       style="fill:#e2a777" /><polygon
       class="st11"
       points="715.2,672.6 589.8,508.8 587.8,509.6 713.4,673.4 "
       id="polygon279"
       style="fill:#e2a777" /><polygon
       class="st11"
       points="725.5,668 600.4,504.8 598.5,505.5 723.6,668.8 "
       id="polygon281"
       style="fill:#e2a777" /><polygon
       class="st11"
       points="735.7,663.4 611.1,500.7 609.1,501.5 733.9,664.2 "
       id="polygon283"
       style="fill:#e2a777" /><polygon
       class="st11"
       points="746,658.8 621.8,496.6 619.8,497.4 744.1,659.6 "
       id="polygon285"
       style="fill:#e2a777" /><polygon
       class="st11"
       points="756.2,654.2 632.4,492.6 630.5,493.3 754.4,655 "
       id="polygon287"
       style="fill:#e2a777" /><polygon
       class="st11"
       points="766.5,649.5 643.1,488.5 641.1,489.3 764.6,650.4 "
       id="polygon289"
       style="fill:#e2a777" /><polygon
       class="st11"
       points="776.7,644.9 653.7,484.4 651.8,485.2 774.8,645.8 "
       id="polygon291"
       style="fill:#e2a777" /><polygon
       class="st11"
       points="787,640.3 664.4,480.4 662.5,481.1 785.1,641.2 "
       id="polygon293"
       style="fill:#e2a777" /><polygon
       class="st11"
       points="797.2,635.7 675.1,476.3 673.1,477.1 795.3,636.6 "
       id="polygon295"
       style="fill:#e2a777" /><polygon
       class="st11"
       points="807.5,631.1 685.7,472.2 683.8,473 805.6,632 "
       id="polygon297"
       style="fill:#e2a777" /><polygon
       class="st11"
       points="817.7,626.5 696.4,468.2 694.4,468.9 815.8,627.4 "
       id="polygon299"
       style="fill:#e2a777" /><polygon
       class="st11"
       points="828,621.9 707.1,464.1 705.1,464.9 826.1,622.7 "
       id="polygon301"
       style="fill:#e2a777" /><polygon
       class="st11"
       points="838.2,617.3 717.7,460 715.8,460.8 836.3,618.1 "
       id="polygon303"
       style="fill:#e2a777" /><polygon
       class="st11"
       points="848.5,612.7 728.4,456 726.4,456.7 846.6,613.5 "
       id="polygon305"
       style="fill:#e2a777" /><polygon
       class="st11"
       points="858.7,608.1 739,451.9 737.1,452.7 856.8,608.9 "
       id="polygon307"
       style="fill:#e2a777" /><polygon
       class="st11"
       points="868.9,603.5 749.7,447.8 747.8,448.6 867.1,604.3 "
       id="polygon309"
       style="fill:#e2a777" /><polygon
       class="st11"
       points="879.2,598.9 760.4,443.8 758.4,444.5 877.3,599.7 "
       id="polygon311"
       style="fill:#e2a777" /><polygon
       class="st11"
       points="889.4,594.3 771,439.7 769.1,440.5 887.6,595.1 "
       id="polygon313"
       style="fill:#e2a777" /><polygon
       class="st11"
       points="899.7,589.6 781.7,435.6 779.7,436.4 897.8,590.5 "
       id="polygon315"
       style="fill:#e2a777" /><polygon
       class="st11"
       points="909.9,585 792.4,431.6 790.4,432.3 908.1,585.9 "
       id="polygon317"
       style="fill:#e2a777" /><polygon
       class="st11"
       points="920.2,580.4 803,427.5 801.1,428.3 918.3,581.3 "
       id="polygon319"
       style="fill:#e2a777" /><polygon
       class="st11"
       points="930.4,575.8 813.7,423.4 811.7,424.2 928.6,576.7 "
       id="polygon321"
       style="fill:#e2a777" /><polygon
       class="st11"
       points="940.7,571.2 824.3,419.4 822.4,420.1 938.8,572.1 "
       id="polygon323"
       style="fill:#e2a777" /><polygon
       class="st11"
       points="950.9,566.6 835,415.3 833.1,416 949.1,567.4 "
       id="polygon325"
       style="fill:#e2a777" /><polygon
       class="st11"
       points="961.2,562 845.7,411.2 843.7,412 959.3,562.8 "
       id="polygon327"
       style="fill:#e2a777" /><polygon
       class="st11"
       points="971.4,557.4 856.3,407.2 854.4,407.9 969.5,558.2 "
       id="polygon329"
       style="fill:#e2a777" /><polygon
       class="st11"
       points="981.7,552.8 867,403.1 865,403.8 979.8,553.6 "
       id="polygon331"
       style="fill:#e2a777" /><polygon
       class="st11"
       points="875.7,399.8 966.4,518.1 956.1,501.4 877.7,399 "
       id="polygon333"
       style="fill:#e2a777" /><polygon
       class="st11"
       points="899.7,409.8 888.3,395 886.4,395.7 910,426.6 "
       id="polygon335"
       style="fill:#e2a777" /><polygon
       class="st11"
       points="451.5,560.5 451.2,560.6 "
       id="polygon337"
       style="fill:#e2a777" /><polygon
       class="st11"
       points="592.3,727.9 461.8,557.6 459.9,558.4 590.4,728.7 "
       id="polygon339"
       style="fill:#e2a777" /><polygon
       class="st11"
       points="602.5,723.3 472.5,553.6 470.5,554.3 600.6,724.1 "
       id="polygon341"
       style="fill:#e2a777" /><polygon
       class="st11"
       points="612.8,718.7 483.2,549.5 481.2,550.3 610.9,719.5 "
       id="polygon343"
       style="fill:#e2a777" /><polygon
       class="st11"
       points="623,714.1 493.8,545.4 491.9,546.2 621.1,714.9 "
       id="polygon345"
       style="fill:#e2a777" /><polygon
       class="st11"
       points="633.3,709.5 504.5,541.4 502.5,542.1 631.4,710.3 "
       id="polygon347"
       style="fill:#e2a777" /><polygon
       class="st11"
       points="643.5,704.8 515.1,537.3 513.2,538.1 641.6,705.7 "
       id="polygon349"
       style="fill:#e2a777" /><polygon
       class="st11"
       points="653.8,700.2 525.8,533.2 523.9,534 651.9,701.1 "
       id="polygon351"
       style="fill:#e2a777" /><polygon
       class="st11"
       points="664,695.6 536.5,529.2 534.5,529.9 662.1,696.5 "
       id="polygon353"
       style="fill:#e2a777" /><polygon
       class="st11"
       points="801.1,202.1 689.4,273.2 691.4,274.4 803.1,203.2 "
       id="polygon355"
       style="fill:#e2a777" /><polygon
       class="st11"
       points="790.3,195.9 678.8,266.9 680.7,268 792.2,197 "
       id="polygon357"
       style="fill:#e2a777" /><polygon
       class="st11"
       points="779.4,189.6 668.1,260.6 670,261.7 781.4,190.8 "
       id="polygon359"
       style="fill:#e2a777" /><polygon
       class="st11"
       points="768.6,183.4 657.4,254.2 659.3,255.4 770.5,184.5 "
       id="polygon361"
       style="fill:#e2a777" /><polygon
       class="st11"
       points="757.7,177.2 646.7,247.9 648.7,249 759.7,178.3 "
       id="polygon363"
       style="fill:#e2a777" /><polygon
       class="st11"
       points="746.9,171 636.1,241.6 638,242.7 748.8,172.1 "
       id="polygon365"
       style="fill:#e2a777" /><polygon
       class="st11"
       points="736,164.8 625.4,235.2 627.3,236.4 738,165.9 "
       id="polygon367"
       style="fill:#e2a777" /><polygon
       class="st11"
       points="725.1,158.5 614.7,228.9 616.6,230 727.1,159.7 "
       id="polygon369"
       style="fill:#e2a777" /><polygon
       class="st11"
       points="714.3,152.3 604,222.6 606,223.7 716.2,153.4 "
       id="polygon371"
       style="fill:#e2a777" /><polygon
       class="st11"
       points="673.5,165.1 593.4,216.2 595.3,217.4 686.6,159.2 "
       id="polygon373"
       style="fill:#e2a777" /><polygon
       class="st11"
       points="601.1,198.2 582.7,209.9 584.6,211 614.1,192.2 "
       id="polygon375"
       style="fill:#e2a777" /><polygon
       class="st11"
       points="810.2,207.3 698.3,278.5 700.2,279.7 812.1,208.4 "
       id="polygon377"
       style="fill:#e2a777" /><polygon
       class="st11"
       points="819.2,212.4 707.2,283.8 709.1,284.9 821.2,213.6 "
       id="polygon379"
       style="fill:#e2a777" /><polygon
       class="st11"
       points="828.3,217.6 716.1,289.1 718,290.2 830.2,218.8 "
       id="polygon381"
       style="fill:#e2a777" /><polygon
       class="st11"
       points="837.3,222.8 725,294.4 726.9,295.5 839.3,223.9 "
       id="polygon383"
       style="fill:#e2a777" /><polygon
       class="st11"
       points="846.4,228 733.9,299.6 735.8,300.8 848.3,229.1 "
       id="polygon385"
       style="fill:#e2a777" /><polygon
       class="st11"
       points="855.4,233.2 742.8,304.9 744.7,306.1 857.4,234.3 "
       id="polygon387"
       style="fill:#e2a777" /><polygon
       class="st11"
       points="864.5,238.4 751.7,310.2 753.6,311.4 866.4,239.5 "
       id="polygon389"
       style="fill:#e2a777" /><polygon
       class="st11"
       points="873.5,243.6 760.6,315.5 762.5,316.6 875.5,244.7 "
       id="polygon391"
       style="fill:#e2a777" /><polygon
       class="st11"
       points="882.6,248.7 769.5,320.8 771.4,321.9 884.5,249.9 "
       id="polygon393"
       style="fill:#e2a777" /><polygon
       class="st11"
       points="891.6,253.9 778.4,326.1 780.3,327.2 893.6,255 "
       id="polygon395"
       style="fill:#e2a777" /><polygon
       class="st11"
       points="900.7,259.1 787.3,331.3 789.2,332.5 902.6,260.2 "
       id="polygon397"
       style="fill:#e2a777" /><polygon
       class="st11"
       points="909.7,264.3 796.2,336.6 798.1,337.8 911.7,265.4 "
       id="polygon399"
       style="fill:#e2a777" /><polygon
       class="st11"
       points="918.8,269.5 805.1,341.9 807,343 920.7,270.6 "
       id="polygon401"
       style="fill:#e2a777" /><polygon
       class="st11"
       points="927.8,274.7 814,347.2 815.9,348.3 929.8,275.8 "
       id="polygon403"
       style="fill:#e2a777" /><polygon
       class="st11"
       points="936.9,279.9 822.9,352.5 824.8,353.6 938.8,281 "
       id="polygon405"
       style="fill:#e2a777" /><polygon
       class="st11"
       points="945.9,285 831.8,357.7 833.7,358.9 947.9,286.2 "
       id="polygon407"
       style="fill:#e2a777" /><polygon
       class="st11"
       points="955,290.2 840.7,363 842.6,364.2 956.9,291.3 "
       id="polygon409"
       style="fill:#e2a777" /><polygon
       class="st11"
       points="964,295.4 849.6,368.3 851.5,369.5 966,296.5 "
       id="polygon411"
       style="fill:#e2a777" /><polygon
       class="st11"
       points="973.1,300.6 858.5,373.6 860.4,374.7 975,301.7 "
       id="polygon413"
       style="fill:#e2a777" /><polygon
       class="st11"
       points="982.1,305.8 867.4,378.9 869.3,380 984.1,306.9 "
       id="polygon415"
       style="fill:#e2a777" /><polygon
       class="st11"
       points="991.2,311 876.3,384.2 878.2,385.3 993.1,312.1 "
       id="polygon417"
       style="fill:#e2a777" /><polygon
       class="st11"
       points="885.2,389.4 887.1,390.6 1002.2,317.3 1000.2,316.1 "
       id="polygon419"
       style="fill:#e2a777" /></g></svg>