<?xml version="1.0" encoding="utf-8"?>
<!-- Generator: Adobe Illustrator 21.1.0, SVG Export Plug-In . SVG Version: 6.00 Build 0)  -->
<!-- Artist: @KevDoy for Trenta.io -->
<svg version="1.1" id="Layer_8" xmlns="http://www.w3.org/2000/svg" xmlns:xlink="http://www.w3.org/1999/xlink" x="0px" y="0px"
	 viewBox="0 0 1024 1024" style="enable-background:new 0 0 1024 1024;" xml:space="preserve">
<style type="text/css">
	.st0{fill:url(#SVGID_1_);}
	.st1{fill:url(#SVGID_2_);}
	.st2{fill:url(#SVGID_3_);}
	.st3{fill:url(#SVGID_4_);}
	.st4{display:none;}
	.st5{fill:#FFFFFF;stroke:#000000;stroke-miterlimit:10;}
	.st6{fill:url(#SVGID_5_);}
	.st7{fill:url(#SVGID_6_);}
	.st8{fill:url(#SVGID_7_);}
	.st9{fill:url(#SVGID_8_);}
	.st10{fill:url(#SVGID_9_);}
	.st11{fill:url(#SVGID_10_);}
	.st12{fill:url(#SVGID_11_);}
	.st13{fill:url(#SVGID_12_);}
	.st14{fill:url(#SVGID_13_);}
	.st15{fill:url(#SVGID_14_);}
	.st16{fill:url(#SVGID_15_);}
	.st17{opacity:0.5;fill:url(#SVGID_16_);}
	.st18{opacity:0.5;fill:url(#SVGID_17_);}
	.st19{opacity:0.5;fill:url(#SVGID_18_);}
	.st20{fill:url(#SVGID_19_);}
	.st21{fill:url(#SVGID_20_);}
	.st22{fill:url(#SVGID_21_);}
	.st23{fill:url(#SVGID_22_);}
	.st24{fill:url(#SVGID_23_);}
	.st25{fill:url(#SVGID_24_);}
	.st26{fill:url(#SVGID_25_);}
	.st27{fill:url(#SVGID_26_);}
	.st28{fill:url(#SVGID_27_);}
</style>
<g id="Layer_12">
	
		<radialGradient id="SVGID_1_" cx="488.2344" cy="963.8718" r="81.4953" gradientTransform="matrix(0.9979 -6.551694e-02 3.252485e-02 0.4954 -30.3008 518.3886)" gradientUnits="userSpaceOnUse">
		<stop  offset="0.3169" style="stop-color:#727375"/>
		<stop  offset="0.5207" style="stop-color:#727375"/>
		<stop  offset="0.724" style="stop-color:#747576"/>
		<stop  offset="0.7973" style="stop-color:#7B7C7B"/>
		<stop  offset="0.8495" style="stop-color:#868784"/>
		<stop  offset="0.8917" style="stop-color:#979890"/>
		<stop  offset="0.9274" style="stop-color:#ADAEA0"/>
		<stop  offset="0.934" style="stop-color:#B2B3A4"/>
		<stop  offset="0.9736" style="stop-color:#B0B1A3"/>
		<stop  offset="1" style="stop-color:#9DA5B0"/>
	</radialGradient>
	<path class="st0" d="M450,956.4c0,0,3.3,42.5,52.4,40.8s60.2-17.7,60.2-17.7s8.8-10.5,6.6-23.2S450,956.4,450,956.4z"/>
	
		<radialGradient id="SVGID_2_" cx="530.282" cy="942.5125" r="82.471" gradientTransform="matrix(-0.9826 0.186 -0.1329 -0.702 1176.5349 1505.5437)" gradientUnits="userSpaceOnUse">
		<stop  offset="0.5207" style="stop-color:#727375;stop-opacity:0"/>
		<stop  offset="0.724" style="stop-color:#747576;stop-opacity:0.1968"/>
		<stop  offset="0.7973" style="stop-color:#7B7C7B;stop-opacity:0.2676"/>
		<stop  offset="0.8495" style="stop-color:#868784;stop-opacity:0.3182"/>
		<stop  offset="0.8917" style="stop-color:#979890;stop-opacity:0.359"/>
		<stop  offset="0.9274" style="stop-color:#ADAEA0;stop-opacity:0.3936"/>
		<stop  offset="0.934" style="stop-color:#B2B3A4;stop-opacity:0.4"/>
		<stop  offset="0.9736" style="stop-color:#B0B1A3;stop-opacity:0.6"/>
		<stop  offset="1" style="stop-color:#B2B3A4"/>
	</radialGradient>
	<path class="st1" d="M450,956.4c0,0,3.3,42.5,52.4,40.8s60.2-17.7,60.2-17.7s8.8-10.5,6.6-23.2S450,956.4,450,956.4z"/>
	
		<radialGradient id="SVGID_3_" cx="552.1711" cy="970.2768" r="30.1477" gradientTransform="matrix(-0.8848 0.466 -0.2036 -0.3865 1238.2632 1088.004)" gradientUnits="userSpaceOnUse">
		<stop  offset="0" style="stop-color:#8B8986"/>
		<stop  offset="0.7171" style="stop-color:#8B8986;stop-opacity:0"/>
	</radialGradient>
	<path class="st2" d="M450,956.4c0,0,3.3,42.5,52.4,40.8s60.2-17.7,60.2-17.7s8.8-10.5,6.6-23.2S450,956.4,450,956.4z"/>
	
		<radialGradient id="SVGID_4_" cx="512.8699" cy="954.2387" r="28.9226" gradientTransform="matrix(1.973300e-02 0.9998 -2.2362 4.413522e-02 2636.6033 399.3531)" gradientUnits="userSpaceOnUse">
		<stop  offset="0" style="stop-color:#000000;stop-opacity:0.4"/>
		<stop  offset="0.209" style="stop-color:#131313;stop-opacity:0.3164"/>
		<stop  offset="0.6314" style="stop-color:#434445;stop-opacity:0.1474"/>
		<stop  offset="1" style="stop-color:#727375;stop-opacity:0"/>
	</radialGradient>
	<path class="st3" d="M450,956.4c0,0,3.3,42.5,52.4,40.8s60.2-17.7,60.2-17.7s8.8-10.5,6.6-23.2S450,956.4,450,956.4z"/>
</g>
<g id="Layer_3" class="st4">
	<path class="st5" d="M405.5,836.5c0,0,129,28,219-3c1,8-5,15-5,15s14,21-1,34c18,24-9,38-9,38s-2,30-38,37c2,36-56,40-56,40
		s-59,3-64-40c-24-6-33-21-33-21s-38-17-10-38c-22-21,0-33,0-33S386.5,847.5,405.5,836.5z"/>
</g>
<g id="Layer_5">
	<linearGradient id="SVGID_5_" gradientUnits="userSpaceOnUse" x1="511.4991" y1="47.6589" x2="511.4991" y2="493.138">
		<stop  offset="0" style="stop-color:#FFFB6C"/>
		<stop  offset="0.2225" style="stop-color:#FEF669"/>
		<stop  offset="0.4924" style="stop-color:#FAE761"/>
		<stop  offset="0.7858" style="stop-color:#F3CF53"/>
		<stop  offset="1" style="stop-color:#EDB847"/>
	</linearGradient>
	<path class="st6" d="M511.5,509.5L511.5,509.5L511.5,509.5c219,2,207.9-28.6,209.1-27.8c39.5-47.3,63.3-108.1,63.3-174.5
		c0-150.4-121.9-272.4-272.4-272.4S239.1,156.8,239.1,307.2c0,66.4,23.8,127.3,63.3,174.5C303.6,480.9,292.5,511.5,511.5,509.5z"/>
	<radialGradient id="SVGID_6_" cx="511.4991" cy="297.1823" r="244.5638" gradientUnits="userSpaceOnUse">
		<stop  offset="0" style="stop-color:#FFFEF8"/>
		<stop  offset="0.1681" style="stop-color:#FFFDE5"/>
		<stop  offset="0.5059" style="stop-color:#FEF9B5"/>
		<stop  offset="0.5418" style="stop-color:#FEF9B0"/>
		<stop  offset="0.7222" style="stop-color:#FEF8AE"/>
		<stop  offset="0.8138" style="stop-color:#FEF6A6"/>
		<stop  offset="0.8853" style="stop-color:#FDF299"/>
		<stop  offset="0.9461" style="stop-color:#FCEC86"/>
		<stop  offset="1" style="stop-color:#FBE56E"/>
	</radialGradient>
	<path class="st7" d="M511.5,499.4L511.5,499.4L511.5,499.4c209.7,1.9,199-27.4,200.1-26.6c37.8-45.2,60.6-103.5,60.6-167.1
		c0-144-116.7-260.7-260.7-260.7S250.8,161.7,250.8,305.7c0,63.6,22.8,121.8,60.6,167.1C312.5,472,301.8,501.3,511.5,499.4z"/>
	<linearGradient id="SVGID_7_" gradientUnits="userSpaceOnUse" x1="511.4991" y1="489.5403" x2="511.4991" y2="452.5256">
		<stop  offset="0" style="stop-color:#FCE46E;stop-opacity:0.6"/>
		<stop  offset="1" style="stop-color:#FBE56E;stop-opacity:0"/>
	</linearGradient>
	<path class="st8" d="M511.5,499.4L511.5,499.4L511.5,499.4c209.7,1.9,199-27.4,200.1-26.6c37.8-45.2,60.6-103.5,60.6-167.1
		c0-144-116.7-260.7-260.7-260.7S250.8,161.7,250.8,305.7c0,63.6,22.8,121.8,60.6,167.1C312.5,472,301.8,501.3,511.5,499.4z"/>
</g>
<g id="Layer_6">
	<linearGradient id="SVGID_8_" gradientUnits="userSpaceOnUse" x1="398.7361" y1="897.4971" x2="617.0533" y2="897.4971">
		<stop  offset="0" style="stop-color:#999795"/>
		<stop  offset="0.149" style="stop-color:#9B9A98"/>
		<stop  offset="0.2567" style="stop-color:#A3A2A1"/>
		<stop  offset="0.351" style="stop-color:#B1B1B1"/>
		<stop  offset="0.4239" style="stop-color:#C0C2C3"/>
		<stop  offset="0.5097" style="stop-color:#C0C2C3"/>
		<stop  offset="0.5936" style="stop-color:#C0C2C3"/>
		<stop  offset="0.7272" style="stop-color:#AEAFAE"/>
		<stop  offset="0.8871" style="stop-color:#9F9D9C"/>
		<stop  offset="1" style="stop-color:#999795"/>
	</linearGradient>
	<path class="st9" d="M405.6,835.4c0,0-19.4,13.4,2.3,30.3c-22,15.2,0,31.8,0,31.8s-25.8,20.5,7.1,35.6c22,25.3,35.6,23,35.6,23
		s50,20.3,123,0.1c38.4-11.2,36.4-35.4,36.4-35.4s26.8-12.9,8.8-38.4c15.4-18.9,0-32.8,0-32.8s8.9-8.9,6.8-16.7
		C623.5,825,405.6,835.4,405.6,835.4z"/>
</g>
<g id="Layer_22">
	<linearGradient id="SVGID_9_" gradientUnits="userSpaceOnUse" x1="589.6619" y1="930.648" x2="550.7447" y2="940.9496">
		<stop  offset="0.2835" style="stop-color:#A4A197"/>
		<stop  offset="0.8697" style="stop-color:#A9A7A3;stop-opacity:0.4259"/>
		<stop  offset="0.984" style="stop-color:#AAA8A6;stop-opacity:0.3141"/>
		<stop  offset="1" style="stop-color:#AAA8A6;stop-opacity:0.3"/>
	</linearGradient>
	<path class="st10" d="M600.2,923.8c0,0-27.4,13.1-47.4,13.9c-20.1,0.7,8.4,2.6,8.4,2.6s39-5.5,39-10.9
		C600.2,923.8,600.2,923.8,600.2,923.8z"/>
	<linearGradient id="SVGID_10_" gradientUnits="userSpaceOnUse" x1="429.2386" y1="934.4613" x2="481.422" y2="937.3807">
		<stop  offset="5.587829e-02" style="stop-color:#A4A197"/>
		<stop  offset="1" style="stop-color:#AAA8A6;stop-opacity:0.3"/>
	</linearGradient>
	<path class="st11" d="M416.1,928.6c0,0,24.1,10.4,59.5,10c35.4-0.4-15,7.3-54.7-1.8C406.2,926.3,416.1,928.6,416.1,928.6z"/>
</g>
<g id="Layer_21">
	<linearGradient id="SVGID_11_" gradientUnits="userSpaceOnUse" x1="562.2371" y1="964.2412" x2="599.6838" y2="927.0287">
		<stop  offset="5.587829e-02" style="stop-color:#FEFEFE;stop-opacity:0"/>
		<stop  offset="0.4324" style="stop-color:#CCD5E0;stop-opacity:0.3988"/>
		<stop  offset="0.8089" style="stop-color:#A1B1C5;stop-opacity:0.7976"/>
		<stop  offset="1" style="stop-color:#90A3BB"/>
	</linearGradient>
	<path class="st12" d="M595.6,915.8c0,0-2.1,27.6-26.2,37.1c-24.1,9.5,10.8,4.1,22.1-4.4c8.7-5.6,17.9-13.7,18.4-26.7
		C610.4,908.8,595.6,915.8,595.6,915.8z"/>
</g>
<g id="Layer_17">
	<linearGradient id="SVGID_12_" gradientUnits="userSpaceOnUse" x1="622.9586" y1="839.9081" x2="544.3996" y2="869.0265">
		<stop  offset="0" style="stop-color:#95AAC3"/>
		<stop  offset="0.369" style="stop-color:#BFDAE6"/>
		<stop  offset="0.4537" style="stop-color:#D0DEE4;stop-opacity:0.9118"/>
		<stop  offset="0.55" style="stop-color:#DAE0E3;stop-opacity:0.8115"/>
		<stop  offset="0.657" style="stop-color:#DEE1E3;stop-opacity:0.7"/>
		<stop  offset="1" style="stop-color:#E0E2E3;stop-opacity:0"/>
	</linearGradient>
	<path class="st13" d="M544.9,865.7c28,1.3,47.8-8.6,49.4-9.6c-10.2,10.3-39.7,17.9-39.7,17.9s46.1-3.6,63.4-22.5
		c8.2-9.5,9.4-17.8,6.4-20.2C612.4,821.7,531.3,861.9,544.9,865.7z"/>
</g>
<g id="Layer_18">
	<linearGradient id="SVGID_13_" gradientUnits="userSpaceOnUse" x1="398.3152" y1="914.3624" x2="592.7214" y2="914.3624">
		<stop  offset="0" style="stop-color:#90A3BB"/>
		<stop  offset="6.945469e-02" style="stop-color:#92A6BD"/>
		<stop  offset="0.1196" style="stop-color:#9AAFC4"/>
		<stop  offset="0.1638" style="stop-color:#A7BFCF"/>
		<stop  offset="0.2042" style="stop-color:#B9D5DF"/>
		<stop  offset="0.2421" style="stop-color:#D1F2F4"/>
		<stop  offset="0.2436" style="stop-color:#D2F3F5"/>
		<stop  offset="0.3049" style="stop-color:#D8F4F6"/>
		<stop  offset="0.3848" style="stop-color:#E8F9FA"/>
		<stop  offset="0.46" style="stop-color:#FEFEFE"/>
		<stop  offset="0.9441" style="stop-color:#FEFEFE;stop-opacity:0"/>
	</linearGradient>
	<path class="st14" d="M425.1,890.2c0,0,8.8,0.5,8.3,5.4s-15.6,2.5-15.6,2.5s11.3,12.1,13.8,16.4c2.5,4.3,60,15,84.3,11.6
		c24.2-3.3,62.3-6.5,67-11.5c4.6-5,20.1,5-0.6,6.1c-20.7,1.2-90.6,18.9-131.4,10.6s-29.7,8.8-29.7,8.8s-2.9-4-6.2-7.2
		c-22.9-10.2-19-25.2-7.1-35.6C417.2,883.2,425.1,890.2,425.1,890.2z"/>
</g>
<g id="Layer_20">
	<linearGradient id="SVGID_14_" gradientUnits="userSpaceOnUse" x1="433.2488" y1="951.504" x2="592.4173" y2="951.504">
		<stop  offset="3.638043e-02" style="stop-color:#FEFEFE;stop-opacity:0"/>
		<stop  offset="0.46" style="stop-color:#FEFEFE"/>
		<stop  offset="0.9441" style="stop-color:#FEFEFE;stop-opacity:0"/>
	</linearGradient>
	<path class="st15" d="M435.1,945.5c0,0,22.6,17.7,75.6,15.2c53-2.6,66.3-9.6,76.6-19.6s4.4,7.7-13.1,13.5
		c-17.5,5.8-39,11-65.1,10.3c-26.1-0.7-73.8-10-75.4-15.4C432.1,944.1,435.1,945.5,435.1,945.5z"/>
</g>
<g id="Layer_14">
	<linearGradient id="SVGID_15_" gradientUnits="userSpaceOnUse" x1="400.2803" y1="850.4485" x2="456.817" y2="863.8026">
		<stop  offset="0" style="stop-color:#93A6BB"/>
		<stop  offset="0.3687" style="stop-color:#A2B7C8"/>
		<stop  offset="0.6895" style="stop-color:#ABC0CF"/>
		<stop  offset="0.7051" style="stop-color:#AEC2CF;stop-opacity:0.9771"/>
		<stop  offset="0.8153" style="stop-color:#C0CBCE;stop-opacity:0.8153"/>
		<stop  offset="0.8937" style="stop-color:#C7CFCE;stop-opacity:0.7"/>
		<stop  offset="0.902" style="stop-color:#C8CFCE;stop-opacity:0.6607"/>
		<stop  offset="0.9992" style="stop-color:#CDD2CE;stop-opacity:0.2"/>
	</linearGradient>
	<path class="st16" d="M415.3,838.4c0,0-11.1,8.1,4.6,12.4s38.7,5.5,38.7,5.5s4.4,5-2.7,4.2c-7.1-0.9-36.2-3.5-36.2-3.5
		s-10.3,0-1.5,5.6c8.8,5.6,14.2,9.3,14.2,9.3s4.9,6-2.5,3s-14.1-4.8-26.1-12.8c-6.4-8-11-14.6,1.7-26.8
		C414.8,834.2,415.3,838.4,415.3,838.4z"/>
</g>
<g id="Layer_16">
	<linearGradient id="SVGID_16_" gradientUnits="userSpaceOnUse" x1="436.233" y1="879.8241" x2="547.2153" y2="879.8241">
		<stop  offset="0" style="stop-color:#484A4C"/>
		<stop  offset="1" style="stop-color:#484A4C;stop-opacity:0"/>
	</linearGradient>
	<path class="st17" d="M436.2,876.9c0,0,26.2,11.4,111,2.6C494.4,882.8,436.2,876.9,436.2,876.9z"/>
	<linearGradient id="SVGID_17_" gradientUnits="userSpaceOnUse" x1="585.2204" y1="863.5279" x2="434.6821" y2="876.2985">
		<stop  offset="0" style="stop-color:#484A4C"/>
		<stop  offset="1" style="stop-color:#484A4C;stop-opacity:0"/>
	</linearGradient>
	<path class="st18" d="M473.9,870c0,0,92.2,2.3,120.4-14C559.8,886.8,473.9,870,473.9,870z"/>
	<linearGradient id="SVGID_18_" gradientUnits="userSpaceOnUse" x1="453.7584" y1="901.1215" x2="583.7156" y2="901.1215">
		<stop  offset="0" style="stop-color:#484A4C;stop-opacity:0"/>
		<stop  offset="1" style="stop-color:#484A4C"/>
	</linearGradient>
	<path class="st19" d="M583.7,893.6c0,0-70.6,14.7-130,6.8C453.8,900.5,508.8,922.8,583.7,893.6z"/>
</g>
<g id="Layer_19">
	<linearGradient id="SVGID_19_" gradientUnits="userSpaceOnUse" x1="618.6191" y1="900.35" x2="540.5618" y2="921.8502">
		<stop  offset="0" style="stop-color:#90A3BB"/>
		<stop  offset="7.847521e-02" style="stop-color:#99AEC3"/>
		<stop  offset="0.2149" style="stop-color:#B0CAD7"/>
		<stop  offset="0.3737" style="stop-color:#D2F3F5"/>
		<stop  offset="1" style="stop-color:#D2F3F5;stop-opacity:0"/>
	</linearGradient>
	<path class="st20" d="M596.3,891.2c0,0,2.9,7.5-9.1,10.4c-12,2.9-18.7,9.1-22.8,9.1c-4.2,0-28.7,6.2-28.7,6.2s-9.1,5.4,6.2,6.2
		c15.4,0.8,54.7-6.2,54.7-6.2s7.6,1.8,2.2,6.3c-5.4,4.5,17.3-2.4,22-12.5c7.4-7.9,3.8-20.2-2.1-28.4
		C612.9,880.2,596.3,891.2,596.3,891.2z"/>
</g>
<g id="Layer_15">
	<linearGradient id="SVGID_20_" gradientUnits="userSpaceOnUse" x1="398.0619" y1="879.0659" x2="625.5281" y2="879.0659">
		<stop  offset="0" style="stop-color:#9CB1C7"/>
		<stop  offset="2.239721e-02" style="stop-color:#A0B6CB"/>
		<stop  offset="4.930067e-02" style="stop-color:#ADC5D7"/>
		<stop  offset="7.841119e-02" style="stop-color:#C2DDEA"/>
		<stop  offset="8.658297e-02" style="stop-color:#C9E5F1"/>
		<stop  offset="0.235" style="stop-color:#C9E5F1"/>
		<stop  offset="0.2857" style="stop-color:#D9EBF3"/>
		<stop  offset="0.357" style="stop-color:#E9F1F5"/>
		<stop  offset="0.4388" style="stop-color:#F2F5F6"/>
		<stop  offset="0.554" style="stop-color:#F5F6F6"/>
		<stop  offset="0.6039" style="stop-color:#E9F1F5"/>
		<stop  offset="0.7198" style="stop-color:#D2E8F2"/>
		<stop  offset="0.7924" style="stop-color:#C9E5F1"/>
		<stop  offset="1" style="stop-color:#9CB1C7"/>
	</linearGradient>
	<path class="st21" d="M407.8,865.8c0,0,16,8.8,18.1,11.3s4.1,5.7,3.3,8s44.8,9.2,65.8,8.5c21-0.7,83.6-12.9,84.6-14.6
		c1-1.7-6.3-3.5-1.4-5.9c4.9-2.4,36.3-13.2,40.6-23.6c5.5,5.2,12,18.7,0,32.8c-1.4,0.9-22.9,14.9-45.4,17.9l27.4-13.3
		c0,0-85.3,9.8-130.7,8.1s-56.8-11.3-55.4,0.5c11.7,6.2,19.1,13.1,19.1,13.1s-18.7-3-24.8-9.8C401.2,891.3,389.5,878.4,407.8,865.8z
		"/>
</g>
<g id="Layer_13">
	<linearGradient id="SVGID_21_" gradientUnits="userSpaceOnUse" x1="405.2286" y1="846.5131" x2="621.7716" y2="846.5131">
		<stop  offset="0" style="stop-color:#FFFFFF;stop-opacity:0"/>
		<stop  offset="5.067276e-03" style="stop-color:#E3E4E4;stop-opacity:3.244674e-02"/>
		<stop  offset="1.294558e-02" style="stop-color:#BFC0C0;stop-opacity:8.289307e-02"/>
		<stop  offset="2.180267e-02" style="stop-color:#9FA0A1;stop-opacity:0.1396"/>
		<stop  offset="3.159662e-02" style="stop-color:#838586;stop-opacity:0.2023"/>
		<stop  offset="4.266061e-02" style="stop-color:#6D6F71;stop-opacity:0.2732"/>
		<stop  offset="5.558196e-02" style="stop-color:#5C5E60;stop-opacity:0.3559"/>
		<stop  offset="7.155876e-02" style="stop-color:#515354;stop-opacity:0.4582"/>
		<stop  offset="9.396563e-02" style="stop-color:#4A4C4E;stop-opacity:0.6017"/>
		<stop  offset="0.1562" style="stop-color:#484A4C"/>
		<stop  offset="0.205" style="stop-color:#484A4C"/>
		<stop  offset="0.5013" style="stop-color:#484A4C"/>
		<stop  offset="0.8051" style="stop-color:#484A4C"/>
		<stop  offset="0.8827" style="stop-color:#4A4C4E;stop-opacity:0.6017"/>
		<stop  offset="0.9107" style="stop-color:#515354;stop-opacity:0.4582"/>
		<stop  offset="0.9306" style="stop-color:#5C5E60;stop-opacity:0.3559"/>
		<stop  offset="0.9468" style="stop-color:#6D6F71;stop-opacity:0.2732"/>
		<stop  offset="0.9606" style="stop-color:#838586;stop-opacity:0.2023"/>
		<stop  offset="0.9728" style="stop-color:#9FA0A1;stop-opacity:0.1396"/>
		<stop  offset="0.9838" style="stop-color:#BFC0C0;stop-opacity:8.289307e-02"/>
		<stop  offset="0.9937" style="stop-color:#E3E4E4;stop-opacity:3.244674e-02"/>
		<stop  offset="1" style="stop-color:#FFFFFF;stop-opacity:0"/>
	</linearGradient>
	<path class="st22" d="M621.8,833.2c0,0-15.6,26.9-121.7,26.5s-94.5-22.6-94.5-22.6L621.8,833.2z"/>
</g>
<g id="Layer_4">
	<linearGradient id="SVGID_22_" gradientUnits="userSpaceOnUse" x1="511.4991" y1="513.8423" x2="511.4991" y2="840.4792">
		<stop  offset="0" style="stop-color:#DFE0E4"/>
		<stop  offset="0.111" style="stop-color:#DFE0E4"/>
		<stop  offset="0.2268" style="stop-color:#E7E8EC"/>
		<stop  offset="0.4419" style="stop-color:#F0F0F4"/>
		<stop  offset="0.8147" style="stop-color:#F2F2F6"/>
	</linearGradient>
	<path class="st23" d="M718.5,480.5c0,0,12,31-207,29l0,0h0h0l0,0c-219,2-207-29-207-29s-15,7,0,18s71,243,54,291c15,8,30,32,30,32
		s3,2-3,4c-6,2,36,22,126,22h0h0h0h0c90,0,132-20,126-22c-6-2-3-4-3-4s15-24,30-32c-17-48,39-280,54-291S718.5,480.5,718.5,480.5z"
		/>
</g>
<g id="Layer_4_copy">
	
		<radialGradient id="SVGID_23_" cx="507.9503" cy="842.8905" r="421.8699" gradientTransform="matrix(-1.650668e-03 -1 0.5695 -9.400374e-04 28.7725 1351.6324)" gradientUnits="userSpaceOnUse">
		<stop  offset="0" style="stop-color:#F3F3F7;stop-opacity:3.000000e-02"/>
		<stop  offset="1" style="stop-color:#D7D8DC"/>
	</radialGradient>
	<path class="st24" d="M718.5,480.5c0,0,12,31-207,29l0,0h0h0l0,0c-219,2-207-29-207-29s-15,7,0,18s71,243,54,291c15,8,30,32,30,32
		s3,2-3,4c-6,2,36,22,126,22h0h0h0h0c90,0,132-20,126-22c-6-2-3-4-3-4s15-24,30-32c-17-48,39-280,54-291S718.5,480.5,718.5,480.5z"
		/>
</g>
<g id="Layer_7">
	<linearGradient id="SVGID_24_" gradientUnits="userSpaceOnUse" x1="720.0162" y1="651.2149" x2="641.8636" y2="644.0167">
		<stop  offset="0.1621" style="stop-color:#D0D4DB"/>
		<stop  offset="0.9781" style="stop-color:#D0D4DB;stop-opacity:2.611685e-02"/>
		<stop  offset="1" style="stop-color:#D0D4DB;stop-opacity:0"/>
	</linearGradient>
	<path class="st25" d="M684.3,499c0,0-71.9,267.1-44.9,315.3c7.3-7.2,15-20.7,25.1-24.9c-11.5-61.6,29-245.5,54-291
		c0.8-3.2,6.7-3.5,6.7-9.6c1-4.1-6.7-8.4-6.7-8.4s2.1,6.4-12,11.8C694.9,497.6,684.3,499,684.3,499z"/>
</g>
<g id="Layer_9">
	<linearGradient id="SVGID_25_" gradientUnits="userSpaceOnUse" x1="667.845" y1="532.0494" x2="629.7897" y2="811.8684">
		<stop  offset="0" style="stop-color:#DFE1E6;stop-opacity:0.7"/>
		<stop  offset="1" style="stop-color:#DFE1E6;stop-opacity:0"/>
	</linearGradient>
	<path class="st26" d="M676.1,501.6c0,0-79.3,244.1-38.5,319.8l5.2-6.6c-27-66.4,44.6-315.7,44.6-315.7L676.1,501.6z"/>
</g>
<g id="Layer_4_copy_2">
	
		<radialGradient id="SVGID_26_" cx="492.5206" cy="497.5944" r="115.9551" gradientTransform="matrix(4.714199e-03 1 -8.741 4.120727e-02 4839.6704 -15.4253)" gradientUnits="userSpaceOnUse">
		<stop  offset="0" style="stop-color:#FDFEFF"/>
		<stop  offset="5.886023e-02" style="stop-color:#FDFEFF;stop-opacity:1"/>
		<stop  offset="6.854894e-02" style="stop-color:#FDFEFF;stop-opacity:1"/>
		<stop  offset="0.1357" style="stop-color:#FBFCFD;stop-opacity:0.8912"/>
		<stop  offset="0.1616" style="stop-color:#F4F5F7;stop-opacity:0.8491"/>
		<stop  offset="0.1804" style="stop-color:#E8E9EB;stop-opacity:0.8187"/>
		<stop  offset="0.192" style="stop-color:#DCDDE0;stop-opacity:0.8"/>
		<stop  offset="0.2951" style="stop-color:#DDDEE1;stop-opacity:0"/>
		<stop  offset="1" style="stop-color:#DFE0E4;stop-opacity:0"/>
	</radialGradient>
	<path class="st27" d="M718.5,480.5c0,0,12,31-207,29h0h0c-219,2-207-29-207-29s-15,7,0,18c2.4,1.8,14.4,39.3,18.6,51.1
		c49.1,20.8,150.8,11.3,350.5-29c17.9-3.6,25.5-17.7,45-22.1C733.5,487.5,718.5,480.5,718.5,480.5z"/>
</g>
<g id="Layer_11">
	<linearGradient id="SVGID_27_" gradientUnits="userSpaceOnUse" x1="348.4037" y1="636.2493" x2="357.6807" y2="635.0897">
		<stop  offset="0" style="stop-color:#DDE9F3;stop-opacity:0.6"/>
		<stop  offset="1.928165e-02" style="stop-color:#DDE9F3;stop-opacity:0.5857"/>
		<stop  offset="0.1348" style="stop-color:#DDE9F3;stop-opacity:0.5"/>
	</linearGradient>
	<path class="st28" d="M304.5,480.5c0,0-15,7,0,18s71,243,54,291c2.7,1.5,5.5,3.4,8.1,5.7c0,0,0-0.1,0.1-0.1
		c20.6-55.8-42.3-289.5-49.9-294.2c-5.4-3.3-7.2-9.5-7.9-12.9C303.3,483.7,304.5,480.5,304.5,480.5z"/>
</g>
</svg>
