<?xml version="1.0" encoding="utf-8"?>
<!-- Generator: Adobe Illustrator 22.1.0, SVG Export Plug-In . SVG Version: 6.00 Build 0)  -->
<!-- Artist: @KevDoy for Trenta.io -->
<!-- Vector Conversion by @Genghis-Khanr -->
<svg version="1.1" id="kodi" xmlns="http://www.w3.org/2000/svg" xmlns:xlink="http://www.w3.org/1999/xlink" x="0px" y="0px"
	 viewBox="0 0 1024 1024" style="enable-background:new 0 0 1024 1024;" xml:space="preserve">
<style type="text/css">
	.st0{fill:url(#SVGID_1_);}
	.st1{fill:url(#SVGID_2_);}
</style>
<g>
	<linearGradient id="SVGID_1_" gradientUnits="userSpaceOnUse" x1="512" y1="66.2252" x2="512" y2="957.7748">
		<stop  offset="0.1651" style="stop-color:#1EAAD0"/>
		<stop  offset="0.4062" style="stop-color:#1CA3CD"/>
		<stop  offset="1" style="stop-color:#1997C6"/>
	</linearGradient>
	<path class="st0" d="M949.1,531.3L535.1,948.9c-11.7,11.8-30.7,11.9-42.4,0.2L75.1,535.1c-11.8-11.7-11.9-30.7-0.2-42.4L488.9,75.1
		c11.7-11.8,30.7-11.9,42.4-0.2l417.6,413.9C960.7,500.5,960.7,519.5,949.1,531.3z"/>
	
		<linearGradient id="SVGID_2_" gradientUnits="userSpaceOnUse" x1="844.8785" y1="182.0377" x2="179.1215" y2="841.9623" gradientTransform="matrix(0.704 -0.7102 0.7102 0.704 -212.0703 515.1856)">
		<stop  offset="0.3" style="stop-color:#FCFCFC"/>
		<stop  offset="1" style="stop-color:#EDEDED"/>
	</linearGradient>
	<path class="st1" d="M467.6,61.1L60.7,471.6c-23.3,23.5-23.2,61.5,0.4,84.9l410.5,406.9c23.5,23.3,61.5,23.2,84.9-0.4l406.9-410.5
		c23.3-23.5,23.2-61.5-0.4-84.9L552.4,60.7C528.9,37.4,490.9,37.5,467.6,61.1z M96.4,535c-11.8-11.7-11.9-30.7-0.2-42.4L228.6,359
		c6.3-6.3,17.1-1.9,17.1,7l0.5,147.4l0.5,146.5c0,8.9-10.7,13.4-17,7.1L96.4,535z M672.5,746.4c11.8,11.7,11.9,30.7,0.2,42.4
		L535.1,927.6c-11.7,11.8-30.7,11.9-42.4,0.2L352.8,789.1c-11.8-11.7-11.9-30.7-0.2-42.4l137.6-138.8c11.7-11.8,30.7-11.9,42.4-0.2
		L672.5,746.4z M927.8,489.1c11.8,11.7,11.9,30.7,0.2,42.4L790.4,670.3c-11.7,11.8-30.7,11.9-42.4,0.2L608.1,531.8
		c-11.8-11.7-11.9-30.7-0.2-42.4l137.6-138.8c11.7-11.8,30.7-11.9,42.4-0.2L927.8,489.1z M671.3,234.8c11.8,11.7,11.9,30.7,0.2,42.4
		L368.9,582.5c-6.3,6.3-17,1.9-17.1-6.9L350,407l-1-150.1c-0.1-12.3,4.7-24.1,13.4-32.9L489,96.3c11.7-11.8,30.7-11.9,42.4-0.2
		L671.3,234.8z"/>
</g>
</svg>
