<?xml version="1.0" encoding="utf-8"?>
<!-- Generator: Adobe Illustrator 27.0.0, SVG Export Plug-In . SVG Version: 6.00 Build 0)  -->
<svg version="1.1" id="Layer_3" xmlns="http://www.w3.org/2000/svg" xmlns:xlink="http://www.w3.org/1999/xlink" x="0px" y="0px"
	 viewBox="0 0 1024 1024" style="enable-background:new 0 0 1024 1024;" xml:space="preserve">
<style type="text/css">
	.st0{fill:url(#SVGID_1_);}
	.st1{fill:#FFFFFF;}
	.st2{fill:#F2F2F2;}
	.st3{opacity:0.11;enable-background:new    ;}
	.st4{opacity:0.53;}
	.st5{fill:#FFBD00;}
	.st6{fill:#EDEDED;}
	.st7{fill:#F43740;}
	.st8{fill:#56C430;}
	.st9{fill:#00A5D4;}
</style>
<linearGradient id="SVGID_1_" gradientUnits="userSpaceOnUse" x1="496.9557" y1="176.8569" x2="496.9557" y2="160.5129" gradientTransform="matrix(0.9877 -0.1564 -0.1564 -0.9877 101.34 1105.519)">
	<stop  offset="0" style="stop-color:#A9ADAB"/>
	<stop  offset="0.3581" style="stop-color:#A6AAA8"/>
	<stop  offset="0.6161" style="stop-color:#9DA19F"/>
	<stop  offset="0.8419" style="stop-color:#8E918F"/>
</linearGradient>
<path class="st0" d="M918.7,811L214.6,922.5c-19.5,3.1-37.8-10.2-40.9-29.7L77.9,287.9c-3.1-19.5,10.2-37.8,29.7-40.9l704.2-111.5
	c19.5-3.1,37.8,10.2,40.9,29.7l95.8,604.9C951.5,789.6,938.2,807.9,918.7,811z"/>
<path class="st1" d="M916.1,794.3L211.9,905.8c-19.5,3.1-37.8-10.2-40.9-29.7L75.2,271.2c-3.1-19.5,10.2-37.8,29.7-40.9l704.2-111.5
	c19.5-3.1,37.8,10.2,40.9,29.7l95.8,604.9C948.8,772.9,935.5,791.2,916.1,794.3z"/>
<rect x="173.3" y="292.6" transform="matrix(0.9877 -0.1564 0.1564 0.9877 -74.8702 86.0212)" class="st2" width="671.8" height="452.3"/>
<rect x="209" y="742" transform="matrix(0.9877 -0.1564 0.1564 0.9877 -109.6282 94.3717)" class="st3" width="671.8" height="3.6"/>
<g>
	<path d="M199.8,411.6l2.4,14.8l-7,1.1l-6.3-40l15.3-2.4c4.5-0.7,8.2-0.1,11.2,1.8s4.8,4.8,5.4,8.6c0.6,3.9-0.2,7.2-2.4,9.8
		c-2.2,2.6-5.7,4.3-10.3,5L199.8,411.6z M198.9,406l8.4-1.3c2.5-0.4,4.3-1.3,5.4-2.6c1.1-1.4,1.5-3.2,1.2-5.4
		c-0.3-2.2-1.3-3.8-2.8-4.9s-3.4-1.5-5.8-1.1l-8.5,1.4L198.9,406z"/>
	<path d="M242.4,395.9c-0.9,0-1.8,0.1-2.8,0.2c-3.1,0.5-4.9,2-5.6,4.5l3.2,20.3l-6.7,1.1l-4.7-29.7l6.4-1l0.7,3.3
		c1.2-2.8,3.2-4.5,6.1-4.9c1-0.2,1.8-0.1,2.4,0L242.4,395.9z"/>
	<path d="M263,417.4c-4.2,0.7-7.9-0.1-10.9-2.4c-3.1-2.2-4.9-5.6-5.6-10l-0.1-0.8c-0.5-3-0.3-5.7,0.5-8.2s2.1-4.6,4-6.2
		s4.1-2.6,6.6-3c4.1-0.6,7.4,0.2,10,2.4c2.6,2.2,4.3,5.7,5,10.4l0.4,2.7l-19.4,3.1c0.6,2.4,1.7,4.2,3.4,5.4c1.7,1.2,3.6,1.6,5.8,1.3
		c3.1-0.5,5.4-2.1,6.9-4.9l4.1,2.9c-0.9,2-2.3,3.6-4.1,4.9C267.6,416.2,265.5,417,263,417.4z M258.1,392.1c-1.8,0.3-3.2,1.2-4.1,2.6
		c-0.9,1.5-1.4,3.4-1.3,5.7l12.7-2l-0.1-0.5c-0.5-2.2-1.4-3.8-2.6-4.8C261.5,392.1,260,391.8,258.1,392.1z"/>
	<path d="M295.4,403.4c-0.2-1.2-0.8-2-1.9-2.5s-2.8-0.8-5.1-0.9c-2.3-0.1-4.3-0.4-6-0.9c-3.6-1.1-5.6-3.2-6.1-6.2
		c-0.4-2.6,0.3-4.9,2.2-6.9c1.9-2.1,4.5-3.4,7.8-3.9c3.6-0.6,6.6-0.1,9,1.3c2.5,1.4,3.9,3.5,4.4,6.3l-6.7,1.1
		c-0.2-1.3-0.8-2.3-1.9-3s-2.4-0.9-4-0.7c-1.5,0.2-2.6,0.8-3.4,1.6c-0.8,0.8-1.1,1.8-1,2.9c0.2,1,0.7,1.8,1.7,2.2
		c1,0.4,2.8,0.7,5.5,0.9c2.7,0.2,4.9,0.5,6.5,1.1s2.9,1.3,3.8,2.3s1.5,2.3,1.7,3.9c0.4,2.7-0.3,5-2.3,7s-4.7,3.3-8.3,3.9
		c-2.4,0.4-4.7,0.3-6.7-0.3c-2-0.6-3.7-1.6-5-2.9c-1.3-1.4-2.1-2.9-2.4-4.7l6.5-1c0.3,1.6,1.1,2.7,2.4,3.4c1.2,0.7,2.8,0.9,4.6,0.6
		c1.8-0.3,3-0.8,3.9-1.6C295.3,405.5,295.6,404.5,295.4,403.4z"/>
	<path d="M322.2,408c-4.2,0.7-7.9-0.1-10.9-2.4c-3.1-2.2-4.9-5.6-5.6-10l-0.1-0.8c-0.5-3-0.3-5.7,0.5-8.2s2.1-4.6,4-6.2
		s4.1-2.6,6.6-3c4.1-0.6,7.4,0.2,10,2.4c2.6,2.2,4.3,5.7,5,10.4l0.4,2.7l-19.4,3.1c0.6,2.4,1.7,4.2,3.4,5.4c1.7,1.2,3.6,1.6,5.8,1.3
		c3.1-0.5,5.4-2.1,6.9-4.9l4.1,2.9c-0.9,2-2.3,3.6-4.1,4.9C326.9,406.8,324.7,407.6,322.2,408z M317.4,382.7
		c-1.8,0.3-3.2,1.2-4.1,2.6c-0.9,1.5-1.4,3.4-1.3,5.7l12.7-2l-0.1-0.5c-0.5-2.2-1.4-3.8-2.6-4.8
		C320.8,382.7,319.3,382.4,317.4,382.7z"/>
	<path d="M340.8,374l0.7,3.4c1.8-3,4.5-4.8,8-5.4c6.2-1,9.9,2.1,11.1,9.1l3.1,19.7l-6.7,1.1l-3.1-19.3c-0.3-1.9-0.9-3.2-1.9-4
		s-2.4-1-4.2-0.7c-2.7,0.4-4.5,2-5.4,4.6l3.4,21.2l-6.7,1.1l-4.7-29.7L340.8,374z"/>
	<path d="M373.1,361.5l1.1,7.2l5.3-0.8l0.8,4.9l-5.3,0.8l2.6,16.6c0.2,1.1,0.5,1.9,1.1,2.4c0.5,0.4,1.4,0.6,2.5,0.4
		c0.8-0.1,1.5-0.3,2.3-0.6l0.8,5.2c-1.5,0.7-2.9,1.1-4.3,1.3c-5.1,0.8-8.1-1.6-9-7.3l-2.7-16.9l-4.9,0.8l-0.8-4.9l4.9-0.8l-1.1-7.2
		L373.1,361.5z"/>
	<path d="M407.1,394c-0.4-0.5-0.8-1.4-1.2-2.7c-1.8,2.6-4.2,4.1-7.3,4.6c-3,0.5-5.6,0-7.7-1.4c-2.2-1.4-3.4-3.4-3.8-5.9
		c-0.5-3.2,0.3-5.8,2.4-7.9s5.3-3.4,9.7-4.1l4.1-0.6l-0.3-2c-0.2-1.5-0.9-2.7-1.9-3.5s-2.4-1-4.2-0.8c-1.5,0.2-2.7,0.8-3.6,1.7
		c-0.9,0.9-1.2,2-1,3.1l-6.7,1.1c-0.3-1.6,0-3.2,0.9-4.8c0.9-1.6,2.2-2.9,3.9-4c1.7-1.1,3.7-1.8,6-2.2c3.5-0.6,6.4-0.1,8.7,1.3
		c2.3,1.4,3.8,3.7,4.4,6.9l2.1,13.4c0.4,2.7,1.1,4.8,2.1,6.2l0.1,0.5L407.1,394z M399,390.4c1.3-0.2,2.5-0.7,3.6-1.6
		c1.1-0.8,1.8-1.8,2.2-3l-0.9-5.6l-3.6,0.6c-2.5,0.4-4.3,1.1-5.4,2.2s-1.5,2.4-1.3,4c0.2,1.3,0.8,2.2,1.8,2.9
		C396.3,390.4,397.5,390.6,399,390.4z"/>
	<path d="M422.3,353.7l1.1,7.2l5.3-0.8l0.8,4.9l-5.3,0.8l2.6,16.6c0.2,1.1,0.5,1.9,1.1,2.4c0.5,0.4,1.4,0.6,2.5,0.4
		c0.8-0.1,1.5-0.3,2.3-0.6l0.8,5.2c-1.5,0.7-2.9,1.1-4.3,1.3c-5.1,0.8-8.1-1.6-9-7.3l-2.7-16.9l-4.9,0.8l-0.8-4.9l4.9-0.8l-1.1-7.2
		L422.3,353.7z"/>
	<path d="M432.6,351.6c-0.2-1,0-1.9,0.6-2.7c0.5-0.8,1.4-1.3,2.6-1.5s2.2,0,3,0.6s1.2,1.4,1.4,2.4c0.2,1,0,1.9-0.6,2.7
		c-0.6,0.8-1.4,1.3-2.6,1.4s-2.2,0-2.9-0.6C433.2,353.4,432.7,352.6,432.6,351.6z M445.6,387.9l-6.7,1.1l-4.7-29.7l6.7-1.1
		L445.6,387.9z"/>
	<path d="M449.2,371.8c-0.5-2.9-0.3-5.6,0.5-8.1s2.1-4.6,4-6.2s4.2-2.6,6.9-3c4-0.6,7.5,0.1,10.4,2.3c2.9,2.2,4.8,5.4,5.7,9.6
		l0.3,1.6c0.5,2.9,0.3,5.6-0.4,8.1c-0.8,2.5-2.1,4.5-4,6.1s-4.2,2.6-7,3c-4.2,0.7-7.8-0.2-10.7-2.6c-3-2.4-4.8-5.9-5.5-10.6
		L449.2,371.8z M456,371.4c0.5,3.1,1.5,5.4,3,6.9s3.4,2.1,5.7,1.8c2.3-0.4,3.9-1.5,4.8-3.5c1-2,1.2-4.6,0.7-8
		c-0.5-3-1.5-5.3-3.1-6.8c-1.6-1.6-3.5-2.2-5.7-1.8c-2.2,0.3-3.8,1.5-4.8,3.4C455.7,365.2,455.4,367.9,456,371.4z"/>
	<path d="M486.4,351l0.7,3.4c1.8-3,4.5-4.8,8-5.4c6.2-1,9.9,2.1,11.1,9.1l3.1,19.7l-6.7,1.1l-3.1-19.3c-0.3-1.9-0.9-3.2-1.9-4
		s-2.4-1-4.2-0.7c-2.7,0.4-4.5,2-5.4,4.6l3.4,21.2l-6.7,1.1l-4.7-29.7L486.4,351z"/>
</g>
<g class="st4">
	<path d="M194.9,453.1c-0.3-2.2,0.9-4,3-4.3s3.7,1,4.1,3.2c0.3,2.1-0.8,4-3,4.3C196.9,456.7,195.2,455.3,194.9,453.1z"/>
	<path d="M207.2,451.2c-0.3-2.2,0.9-4,3-4.3s3.7,1,4.1,3.2c0.3,2.1-0.8,4-3,4.3C209.2,454.7,207.5,453.3,207.2,451.2z"/>
	<path d="M219.4,449.3c-0.3-2.2,0.9-4,3-4.3s3.7,1,4.1,3.2c0.3,2.1-0.8,4-3,4.3C221.5,452.8,219.8,451.4,219.4,449.3z"/>
	<path d="M231.7,447.3c-0.3-2.2,0.9-4,3-4.3s3.7,1,4.1,3.2c0.3,2.1-0.8,4-3,4.3C233.7,450.8,232.1,449.4,231.7,447.3z"/>
	<path d="M244,445.4c-0.3-2.2,0.9-4,3-4.3s3.7,1,4.1,3.2c0.3,2.1-0.8,4-3,4.3C246,448.9,244.4,447.5,244,445.4z"/>
	<path d="M256.3,443.4c-0.3-2.2,0.9-4,3-4.3s3.7,1,4.1,3.2c0.3,2.1-0.8,4-3,4.3C258.3,446.9,256.6,445.6,256.3,443.4z"/>
	<path d="M268.6,441.5c-0.3-2.2,0.9-4,3-4.3s3.7,1,4.1,3.2c0.3,2.1-0.8,4-3,4.3C270.6,445,268.9,443.6,268.6,441.5z"/>
	<path d="M280.9,439.5c-0.3-2.2,0.9-4,3-4.3s3.7,1,4.1,3.2c0.3,2.1-0.8,4-3,4.3C282.9,443,281.2,441.7,280.9,439.5z"/>
	<path d="M293.2,437.6c-0.3-2.2,0.9-4,3-4.3s3.7,1,4.1,3.2c0.3,2.1-0.8,4-3,4.3C295.2,441.1,293.5,439.7,293.2,437.6z"/>
	<path d="M305.5,435.6c-0.3-2.2,0.9-4,3-4.3s3.7,1,4.1,3.2c0.3,2.1-0.8,4-3,4.3C307.5,439.1,305.8,437.8,305.5,435.6z"/>
	<path d="M317.7,433.7c-0.3-2.2,0.9-4,3-4.3s3.7,1,4.1,3.2c0.3,2.1-0.8,4-3,4.3C319.8,437.2,318.1,435.8,317.7,433.7z"/>
	<path d="M330,431.7c-0.3-2.2,0.9-4,3-4.3s3.7,1,4.1,3.2c0.3,2.1-0.8,4-3,4.3C332,435.3,330.4,433.9,330,431.7z"/>
	<path d="M342.3,429.8c-0.3-2.2,0.9-4,3-4.3s3.7,1,4.1,3.2c0.3,2.1-0.8,4-3,4.3C344.3,433.3,342.7,431.9,342.3,429.8z"/>
	<path d="M354.6,427.8c-0.3-2.2,0.9-4,3-4.3s3.7,1,4.1,3.2c0.3,2.1-0.8,4-3,4.3C356.6,431.4,354.9,430,354.6,427.8z"/>
	<path d="M366.9,425.9c-0.3-2.2,0.9-4,3-4.3s3.7,1,4.1,3.2c0.3,2.1-0.8,4-3,4.3C368.9,429.4,367.2,428,366.9,425.9z"/>
	<path d="M379.2,424c-0.3-2.2,0.9-4,3-4.3s3.7,1,4.1,3.2c0.3,2.1-0.8,4-3,4.3C381.2,427.5,379.5,426.1,379.2,424z"/>
	<path d="M391.5,422c-0.3-2.2,0.9-4,3-4.3s3.7,1,4.1,3.2c0.3,2.1-0.8,4-3,4.3C393.5,425.5,391.8,424.1,391.5,422z"/>
	<path d="M403.7,420.1c-0.3-2.2,0.9-4,3-4.3s3.7,1,4.1,3.2c0.3,2.1-0.8,4-3,4.3C405.8,423.6,404.1,422.2,403.7,420.1z"/>
	<path d="M416,418.1c-0.3-2.2,0.9-4,3-4.3s3.7,1,4.1,3.2c0.3,2.1-0.8,4-3,4.3C418.1,421.6,416.4,420.3,416,418.1z"/>
	<path d="M428.3,416.2c-0.3-2.2,0.9-4,3-4.3s3.7,1,4.1,3.2c0.3,2.1-0.8,4-3,4.3C430.3,419.7,428.7,418.3,428.3,416.2z"/>
	<path d="M440.6,414.2c-0.3-2.2,0.9-4,3-4.3s3.7,1,4.1,3.2c0.3,2.1-0.8,4-3,4.3C442.6,417.7,440.9,416.4,440.6,414.2z"/>
	<path d="M452.9,412.3c-0.3-2.2,0.9-4,3-4.3s3.7,1,4.1,3.2c0.3,2.1-0.8,4-3,4.3C454.9,415.8,453.2,414.4,452.9,412.3z"/>
	<path d="M465.2,410.3c-0.3-2.2,0.9-4,3-4.3s3.7,1,4.1,3.2c0.3,2.1-0.8,4-3,4.3C467.2,413.8,465.5,412.5,465.2,410.3z"/>
	<path d="M477.5,408.4c-0.3-2.2,0.9-4,3-4.3s3.7,1,4.1,3.2c0.3,2.1-0.8,4-3,4.3C479.5,411.9,477.8,410.5,477.5,408.4z"/>
	<path d="M489.8,406.4c-0.3-2.2,0.9-4,3-4.3s3.7,1,4.1,3.2c0.3,2.1-0.8,4-3,4.3C491.8,410,490.1,408.6,489.8,406.4z"/>
	<path d="M502,404.5c-0.3-2.2,0.9-4,3-4.3s3.7,1,4.1,3.2c0.3,2.1-0.8,4-3,4.3C504.1,408,502.4,406.6,502,404.5z"/>
	<path d="M514.3,402.5c-0.3-2.2,0.9-4,3-4.3s3.7,1,4.1,3.2c0.3,2.1-0.8,4-3,4.3C516.3,406.1,514.7,404.7,514.3,402.5z"/>
	<path d="M526.6,400.6c-0.3-2.2,0.9-4,3-4.3s3.7,1,4.1,3.2c0.3,2.1-0.8,4-3,4.3C528.6,404.1,527,402.7,526.6,400.6z"/>
	<path d="M538.9,398.7c-0.3-2.2,0.9-4,3-4.3s3.7,1,4.1,3.2c0.3,2.1-0.8,4-3,4.3C540.9,402.2,539.2,400.8,538.9,398.7z"/>
	<path d="M551.2,396.7c-0.3-2.2,0.9-4,3-4.3s3.7,1,4.1,3.2c0.3,2.1-0.8,4-3,4.3C553.2,400.2,551.5,398.8,551.2,396.7z"/>
	<path d="M563.5,394.8c-0.3-2.2,0.9-4,3-4.3s3.7,1,4.1,3.2c0.3,2.1-0.8,4-3,4.3C565.5,398.3,563.8,396.9,563.5,394.8z"/>
	<path d="M575.8,392.8c-0.3-2.2,0.9-4,3-4.3s3.7,1,4.1,3.2c0.3,2.1-0.8,4-3,4.3C577.8,396.3,576.1,395,575.8,392.8z"/>
	<path d="M588.1,390.9c-0.3-2.2,0.9-4,3-4.3s3.7,1,4.1,3.2c0.3,2.1-0.8,4-3,4.3C590.1,394.4,588.4,393,588.1,390.9z"/>
	<path d="M600.3,388.9c-0.3-2.2,0.9-4,3-4.3s3.7,1,4.1,3.2c0.3,2.1-0.8,4-3,4.3C602.4,392.4,600.7,391.1,600.3,388.9z"/>
	<path d="M612.6,387c-0.3-2.2,0.9-4,3-4.3s3.7,1,4.1,3.2c0.3,2.1-0.8,4-3,4.3C614.6,390.5,613,389.1,612.6,387z"/>
	<path d="M624.9,385c-0.3-2.2,0.9-4,3-4.3s3.7,1,4.1,3.2c0.3,2.1-0.8,4-3,4.3C626.9,388.5,625.3,387.2,624.9,385z"/>
	<path d="M637.2,383.1c-0.3-2.2,0.9-4,3-4.3s3.7,1,4.1,3.2c0.3,2.1-0.8,4-3,4.3C639.2,386.6,637.5,385.2,637.2,383.1z"/>
	<path d="M649.5,381.1c-0.3-2.2,0.9-4,3-4.3s3.7,1,4.1,3.2c0.3,2.1-0.8,4-3,4.3C651.5,384.7,649.8,383.3,649.5,381.1z"/>
	<path d="M661.8,379.2c-0.3-2.2,0.9-4,3-4.3s3.7,1,4.1,3.2c0.3,2.1-0.8,4-3,4.3C663.8,382.7,662.1,381.3,661.8,379.2z"/>
	<path d="M674.1,377.2c-0.3-2.2,0.9-4,3-4.3s3.7,1,4.1,3.2c0.3,2.1-0.8,4-3,4.3C676.1,380.8,674.4,379.4,674.1,377.2z"/>
	<path d="M686.3,375.3c-0.3-2.2,0.9-4,3-4.3s3.7,1,4.1,3.2c0.3,2.1-0.8,4-3,4.3C688.4,378.8,686.7,377.4,686.3,375.3z"/>
	<path d="M698.6,373.4c-0.3-2.2,0.9-4,3-4.3s3.7,1,4.1,3.2c0.3,2.1-0.8,4-3,4.3C700.7,376.9,699,375.5,698.6,373.4z"/>
	<path d="M710.9,371.4c-0.3-2.2,0.9-4,3-4.3s3.7,1,4.1,3.2c0.3,2.1-0.8,4-3,4.3C712.9,374.9,711.3,373.5,710.9,371.4z"/>
	<path d="M723.2,369.5c-0.3-2.2,0.9-4,3-4.3s3.7,1,4.1,3.2c0.3,2.1-0.8,4-3,4.3C725.2,373,723.5,371.6,723.2,369.5z"/>
	<path d="M735.5,367.5c-0.3-2.2,0.9-4,3-4.3s3.7,1,4.1,3.2c0.3,2.1-0.8,4-3,4.3C737.5,371,735.8,369.7,735.5,367.5z"/>
	<path d="M747.8,365.6c-0.3-2.2,0.9-4,3-4.3s3.7,1,4.1,3.2c0.3,2.1-0.8,4-3,4.3C749.8,369.1,748.1,367.7,747.8,365.6z"/>
	<path d="M760.1,363.6c-0.3-2.2,0.9-4,3-4.3s3.7,1,4.1,3.2c0.3,2.1-0.8,4-3,4.3C762.1,367.1,760.4,365.8,760.1,363.6z"/>
	<path d="M772.4,361.7c-0.3-2.2,0.9-4,3-4.3s3.7,1,4.1,3.2c0.3,2.1-0.8,4-3,4.3C774.4,365.2,772.7,363.8,772.4,361.7z"/>
	<path d="M784.6,359.7c-0.3-2.2,0.9-4,3-4.3s3.7,1,4.1,3.2c0.3,2.1-0.8,4-3,4.3C786.7,363.2,785,361.9,784.6,359.7z"/>
</g>
<g>
	<g>
		<circle class="st5" cx="338.7" cy="599.6" r="120.5"/>
		<path class="st6" d="M319.8,480.5c65.7-10.4,127.5,34.4,137.9,100.2s-34.4,127.5-100.2,137.9S230,684.2,219.6,618.4
			C209.2,552.7,254.1,491,319.8,480.5 M319,475.6c-33.1,5.2-62.2,23.1-81.9,50.2s-27.7,60.3-22.4,93.4c5.2,33.1,23.1,62.2,50.2,81.9
			s60.3,27.7,93.4,22.4s62.2-23.1,81.9-50.2c19.7-27.1,27.7-60.3,22.4-93.4c-5.2-33.1-23.1-62.2-50.2-81.9
			C385.3,478.3,352.1,470.4,319,475.6L319,475.6z"/>
	</g>
	<g>
		<path class="st7" d="M338.4,599.6l-18.9-119c-65.6,10.6-110.3,72.2-99.9,137.8c5.2,32.8,23.2,60.4,48,78.5L338.4,599.6z"/>
	</g>
	<g>
		<path class="st8" d="M357.5,718.6c10.6-1.7,20.7-4.7,30.2-8.9l-49-110.1L268,697.2C292.9,715.2,324.7,723.8,357.5,718.6z"/>
	</g>
	<g>
		<path class="st9" d="M319.8,480.5h-0.1l19,119l120.5,1.4c0.1-6.7-0.4-13.5-1.5-20.3C447.3,515,385.5,470.1,319.8,480.5z"/>
	</g>
</g>
<g class="st4">
	<polygon points="564.4,503.2 584.1,500.1 584.8,500 605.1,496.8 602.9,482.8 582.6,486 581.9,486.1 562.2,489.2 561.6,489.3 
		541.2,492.5 543.4,506.5 563.8,503.3 	"/>
	<polygon points="686.8,483.8 706.5,480.7 707.1,480.6 726.9,477.5 727.5,477.4 747.2,474.3 747.9,474.2 768.2,470.9 766,456.9 
		745.7,460.1 745,460.2 725.3,463.4 724.6,463.5 704.9,466.6 704.3,466.7 684.5,469.8 683.9,469.9 664.2,473.1 663.5,473.2 
		643.2,476.4 645.4,490.4 665.8,487.2 666.4,487.1 686.1,483.9 	"/>
	<polygon points="570.6,542.3 590.3,539.2 591,539.1 610.7,536 611.3,535.9 631.1,532.7 631.7,532.6 652.1,529.4 649.9,515.4 
		629.5,518.6 628.9,518.7 609.1,521.9 608.5,522 588.8,525.1 588.1,525.2 568.4,528.3 567.7,528.4 547.4,531.6 549.6,545.7 
		570,542.4 	"/>
	<polygon points="771.6,496.1 751.8,499.3 751.2,499.4 731.5,502.5 730.8,502.6 711.1,505.7 710.5,505.8 690.1,509 692.3,523 
		712.7,519.8 713.3,519.7 733.1,516.6 733.7,516.5 753.4,513.4 754.1,513.3 773.8,510.1 774.4,510 794.8,506.8 792.6,492.8 
		772.2,496 	"/>
	<polygon points="576.8,581.4 596.5,578.3 597.2,578.2 616.9,575.1 617.5,575 637.3,571.9 637.9,571.8 658.3,568.5 656.1,554.5 
		635.7,557.8 635.1,557.9 615.3,561 614.7,561.1 594.9,564.2 594.3,564.3 574.6,567.4 573.9,567.5 553.6,570.8 555.8,584.8 
		576.2,581.5 	"/>
	<polygon points="719.5,558.8 739.9,555.6 737.7,541.6 717.3,544.8 716.7,544.9 696.3,548.2 698.5,562.2 718.9,558.9 	"/>
	<polygon points="661.6,593.7 641.9,596.9 641.2,597 621.5,600.1 620.9,600.2 601.1,603.3 600.5,603.4 580.8,606.5 580.1,606.6 
		559.8,609.9 562,623.9 582.4,620.7 583,620.5 602.7,617.4 603.4,617.3 623.1,614.2 623.7,614.1 643.5,611 644.1,610.9 663.8,607.7 
		664.5,607.6 684.8,604.4 682.6,590.4 662.3,593.6 	"/>
	<polygon points="805,571 804.3,571.1 784.6,574.3 784,574.4 764.2,577.5 763.6,577.6 743.9,580.7 743.2,580.8 722.9,584 725.1,598 
		745.4,594.8 746.1,594.7 765.8,591.6 766.5,591.5 786.2,588.4 786.8,588.3 806.6,585.1 807.2,585 827.6,581.8 825.4,567.8 	"/>
</g>
<g>
	<circle class="st5" cx="527.4" cy="581.4" r="9.8"/>
	<path class="st6" d="M525.9,571.8c5.3-0.8,10.4,2.8,11.2,8.1s-2.8,10.4-8.1,11.2s-10.4-2.8-11.2-8.1S520.5,572.6,525.9,571.8
		 M525.1,566.8c-8.1,1.3-13.6,8.9-12.3,16.9c1.3,8.1,8.9,13.6,16.9,12.3c8.1-1.3,13.6-8.9,12.3-16.9S533.1,565.5,525.1,566.8
		L525.1,566.8z"/>
</g>
<g>
	<circle class="st9" cx="521.3" cy="542.8" r="9.8"/>
	<path class="st6" d="M519.7,533.1c5.3-0.8,10.4,2.8,11.2,8.1s-2.8,10.4-8.1,11.2s-10.4-2.8-11.2-8.1
		C510.7,539,514.4,534,519.7,533.1 M519,528.2c-8.1,1.3-13.6,8.9-12.3,16.9c1.3,8.1,8.9,13.6,16.9,12.3c8.1-1.3,13.6-8.9,12.3-16.9
		C534.6,532.4,527,526.9,519,528.2L519,528.2z"/>
</g>
<g>
	<circle class="st7" cx="515.1" cy="504.1" r="9.8"/>
	<path class="st6" d="M513.6,494.5c5.3-0.8,10.4,2.8,11.2,8.1c0.8,5.3-2.8,10.4-8.1,11.2s-10.4-2.8-11.2-8.1
		C504.6,500.3,508.3,495.3,513.6,494.5 M512.8,489.5c-8.1,1.3-13.6,8.9-12.3,16.9c1.3,8.1,8.9,13.6,16.9,12.3
		c8.1-1.3,13.6-8.9,12.3-16.9S520.9,488.3,512.8,489.5L512.8,489.5z"/>
</g>
<g>
	<circle class="st8" cx="533.5" cy="620.1" r="9.8"/>
	<path class="st6" d="M532,610.4c5.3-0.8,10.4,2.8,11.2,8.1s-2.8,10.4-8.1,11.2s-10.4-2.8-11.2-8.1C523,616.3,526.6,611.2,532,610.4
		 M531.2,605.5c-8.1,1.3-13.6,8.9-12.3,16.9s8.9,13.6,16.9,12.3c8.1-1.3,13.6-8.9,12.3-16.9C546.9,609.7,539.3,604.2,531.2,605.5
		L531.2,605.5z"/>
</g>
</svg>
