<?xml version="1.0" encoding="utf-8"?>
<!-- Generator: Adobe Illustrator 25.0.1, SVG Export Plug-In . SVG Version: 6.00 Build 0)  -->
<svg version="1.1" id="libre-impress" xmlns="http://www.w3.org/2000/svg" xmlns:xlink="http://www.w3.org/1999/xlink" x="0px"
	 y="0px" viewBox="0 0 1024 1024" style="enable-background:new 0 0 1024 1024;" xml:space="preserve">
<style type="text/css">
	.st0{fill:#FFFFFF;}
	.st1{opacity:0.5;fill:none;stroke:#E6650C;stroke-width:4;stroke-miterlimit:10;}
	.st2{fill:url(#SVGID_1_);}
	.st3{fill:url(#SVGID_2_);}
	.st4{fill:#FFFFFF;stroke:#000000;stroke-width:2;stroke-miterlimit:10;}
	.st5{fill:#E6650C;}
	.st6{fill:#71CC55;}
	.st7{fill:#36C6F4;}
	.st8{fill:#BA418B;}
	.st9{fill:#E6484C;}
	.st10{fill:#F79D26;}
	.st11{fill:#FDC82F;}
</style>
<g>
	
		<rect x="119.8" y="119.8" transform="matrix(0.9877 -0.1564 0.1564 0.9877 -73.7793 86.3757)" class="st0" width="784.4" height="784.4"/>
	
		<rect x="149.6" y="150" transform="matrix(0.9877 -0.1564 0.1564 0.9877 -73.8558 86.3973)" class="st0" width="725" height="725"/>
</g>
<path class="st1" d="M328.3,356.5l-141.2,22.4c-13.7,2.2-26.5-7.2-28.7-20.8l-12.8-81.1c-2.2-13.7,7.2-26.5,20.8-28.7l141.2-22.4
	c13.7-2.2,26.5,7.2,28.7,20.8l12.8,81.1C351.3,341.5,341.9,354.3,328.3,356.5z"/>
<path class="st1" d="M554.5,320.7L413.3,343c-13.7,2.2-26.5-7.2-28.7-20.8l-12.8-81.1c-2.2-13.7,7.2-26.5,20.8-28.7l141.2-22.4
	c13.7-2.2,26.5,7.2,28.7,20.8l12.8,81.1C577.4,305.7,568.1,318.5,554.5,320.7z"/>
<path class="st1" d="M780.3,284.9l-141.2,22.4c-13.7,2.2-26.5-7.2-28.7-20.8l-12.8-81.1c-2.2-13.7,7.2-26.5,20.8-28.7l141.2-22.4
	c13.7-2.2,26.5,7.2,28.7,20.8l12.8,81.1C803.3,269.9,793.9,282.8,780.3,284.9z"/>
<path class="st1" d="M354,519l-141.2,22.4c-13.7,2.2-26.5-7.2-28.7-20.8l-12.8-81.1c-2.2-13.7,7.2-26.5,20.8-28.7l141.2-22.4
	c13.7-2.2,26.5,7.2,28.7,20.8l12.8,81.1C377,504,367.7,516.9,354,519z"/>
<path class="st1" d="M580.2,483.2L439,505.6c-13.7,2.2-26.5-7.2-28.7-20.8l-12.8-81.1c-2.2-13.7,7.2-26.5,20.8-28.7l141.2-22.4
	c13.7-2.2,26.5,7.2,28.7,20.8l12.8,81.1C603.2,468.2,593.9,481,580.2,483.2z"/>
<path class="st1" d="M806,447.4l-141.2,22.4c-13.7,2.2-26.5-7.2-28.7-20.8l-12.8-81.1c-2.2-13.7,7.2-26.5,20.8-28.7l141.2-22.4
	c13.7-2.2,26.5,7.2,28.7,20.8l12.8,81.1C829,432.4,819.7,445.3,806,447.4z"/>
<path class="st1" d="M379.8,681.5l-141.2,22.4c-13.7,2.2-26.5-7.2-28.7-20.8L197.1,602c-2.2-13.7,7.2-26.5,20.8-28.7l141.2-22.4
	c13.7-2.2,26.5,7.2,28.7,20.8l12.8,81.1C402.8,666.5,393.4,679.4,379.8,681.5z"/>
<path class="st1" d="M605.9,645.7l-141.2,22.4c-13.7,2.2-26.5-7.2-28.7-20.8l-12.8-81.1c-2.2-13.7,7.2-26.5,20.8-28.7l141.2-22.4
	c13.7-2.2,26.5,7.2,28.7,20.8l12.8,81.1C628.9,630.7,619.6,643.5,605.9,645.7z"/>
<path class="st1" d="M831.8,609.9l-141.2,22.4c-13.7,2.2-26.5-7.2-28.7-20.8l-12.8-81.1c-2.2-13.7,7.2-26.5,20.8-28.7l141.2-22.4
	c13.7-2.2,26.5,7.2,28.7,20.8l12.8,81.1C854.8,594.9,845.4,607.8,831.8,609.9z"/>
<path class="st1" d="M405.5,844l-141.2,22.4c-13.7,2.2-26.5-7.2-28.7-20.8l-12.8-81.1c-2.2-13.7,7.2-26.5,20.8-28.7l141.2-22.4
	c13.7-2.2,26.5,7.2,28.7,20.8l12.8,81.1C428.5,829.1,419.2,841.9,405.5,844z"/>
<path class="st1" d="M631.7,808.2l-141.2,22.4c-13.7,2.2-26.5-7.2-28.7-20.8L449,728.7c-2.2-13.7,7.2-26.5,20.8-28.7L611,677.6
	c13.7-2.2,26.5,7.2,28.7,20.8l12.8,81.1C654.7,793.2,645.3,806.1,631.7,808.2z"/>
<path class="st1" d="M857.5,772.5l-141.2,22.4c-13.7,2.2-26.5-7.2-28.7-20.8l-12.8-81.1c-2.2-13.7,7.2-26.5,20.8-28.7l141.2-22.4
	c13.7-2.2,26.5,7.2,28.7,20.8l12.8,81.1C880.5,757.5,871.2,770.3,857.5,772.5z"/>
<radialGradient id="SVGID_1_" cx="465.3375" cy="631.8232" r="75.9825" gradientTransform="matrix(0.2453 -0.9694 6.540275e-02 1.654992e-02 314.1275 1058.2809)" gradientUnits="userSpaceOnUse">
	<stop  offset="0" style="stop-color:#8A8A8A"/>
	<stop  offset="1" style="stop-color:#242424"/>
</radialGradient>
<path class="st2" d="M442.6,721.4L442.6,721.4c-3.4-0.9-5.5-4.4-4.6-7.8l50.8-195.2c0.9-3.4,4.4-5.5,7.8-4.6l0,0
	c3.4,0.9,5.5,4.4,4.6,7.8l-50.8,195.2C449.5,720.3,446,722.3,442.6,721.4z"/>
<radialGradient id="SVGID_2_" cx="532.709" cy="602.4202" r="75.9825" gradientTransform="matrix(-0.5329 -0.8462 -5.708751e-02 3.595047e-02 900.2376 1028.9365)" gradientUnits="userSpaceOnUse">
	<stop  offset="0" style="stop-color:#8A8A8A"/>
	<stop  offset="1" style="stop-color:#242424"/>
</radialGradient>
<path class="st3" d="M639.7,690.2L639.7,690.2c3-1.9,3.9-5.9,1.9-8.8l-108.6-170c-1.9-3-5.9-3.9-8.8-1.9l0,0c-3,1.9-3.9,5.9-1.9,8.8
	l108.6,170C632.8,691.2,636.8,692.1,639.7,690.2z"/>
<path class="st4" d="M742.3,551.1L305,620.4c-5.3,0.8-10.4-2.8-11.2-8.1l-37.6-237.5c-0.8-5.3,2.8-10.4,8.1-11.2l437.3-69.3
	c5.3-0.8,10.4,2.8,11.2,8.1l37.6,237.5C751.3,545.2,747.7,550.3,742.3,551.1z"/>
<g>
	<path class="st0" d="M303.4,613c-1.1,0-2.1-0.8-2.3-1.9l-37.6-237.5c-0.1-0.8,0.2-1.4,0.4-1.7s0.7-0.8,1.5-0.9l437.3-69.3
		c0.1,0,0.2,0,0.4,0c1.1,0,2.1,0.8,2.3,1.9l37.6,237.5c0.2,1.3-0.7,2.4-1.9,2.6L303.8,613C303.7,613,303.6,613,303.4,613z"/>
	<path class="st5" d="M698.9,309.8l36,227.3l-427.1,67.6l-36-227.3L698.9,309.8 M703.2,294.1c-0.5,0-1,0-1.5,0.1l-437.3,69.3
		c-5.3,0.8-9,5.9-8.1,11.2l37.6,237.5c0.8,4.8,4.9,8.3,9.7,8.3c0.5,0,1,0,1.5-0.1l437.3-69.3c5.3-0.8,9-5.9,8.1-11.2l-37.6-237.5
		C712.1,297.5,707.9,294.1,703.2,294.1L703.2,294.1z"/>
</g>
<circle class="st6" cx="503.9" cy="460.7" r="82.3"/>
<path class="st7" d="M465.8,387.7c-30.5,15.9-48.9,50-43.2,85.9l81.7-12.9L465.8,387.7z"/>
<path class="st8" d="M504.2,460.7l6.9-82c-6.6-0.6-13.3-0.4-20.1,0.7c-11.5,1.8-22,5.9-31.2,11.8L504.2,460.7z"/>
<path class="st9" d="M509.5,378.6l-5.3,81.8l38.3-72.3C532.4,382.7,521.2,379.4,509.5,378.6z"/>
<path class="st10" d="M585.2,447.9c-4.2-26.7-20.8-48.4-43.1-60l-38,72.9l74.9,33.6C585.4,480.2,587.8,464.2,585.2,447.9z"/>
<path class="st11" d="M516.7,542.1C516.8,542.1,516.8,542.1,516.7,542.1c28.5-4.5,51.3-23.2,62.3-47.7l-75.2-33.6L516.7,542.1z"/>
</svg>
