<?xml version="1.0" encoding="utf-8"?>
<!-- Generator: Adobe Illustrator 25.0.1, SVG Export Plug-In . SVG Version: 6.00 Build 0)  -->
<svg version="1.1" id="libre-base" xmlns="http://www.w3.org/2000/svg" xmlns:xlink="http://www.w3.org/1999/xlink" x="0px" y="0px"
	 viewBox="0 0 1024 1024" style="enable-background:new 0 0 1024 1024;" xml:space="preserve">
<style type="text/css">
	.st0{fill:#FFFFFF;}
	.st1{opacity:0.5;}
	.st2{fill:#C254D2;}
	.st3{fill:#EDBBF5;}
	.st4{fill:#A323B6;}
	.st5{fill:url(#SVGID_1_);}
	.st6{clip-path:url(#SVGID_3_);}
	.st7{fill:url(#SVGID_4_);}
	.st8{fill:url(#SVGID_5_);}
</style>
<g>
	
		<rect x="119.7" y="119.9" transform="matrix(0.9877 -0.1564 0.1564 0.9877 -73.7936 86.3661)" class="st0" width="784.4" height="784.4"/>
	
		<rect x="149.5" y="150.1" transform="matrix(0.9877 -0.1564 0.1564 0.9877 -73.8701 86.3877)" class="st0" width="725" height="725"/>
</g>
<g class="st1">
	<path class="st2" d="M793,240.2L160.5,340.4c-3.7,0.6-7.1-1.9-7.7-5.6l0,0c-0.6-3.7,1.9-7.1,5.6-7.7L790.9,227
		c3.7-0.6,7.1,1.9,7.7,5.6l0,0C799.2,236.2,796.7,239.7,793,240.2z"/>
	<path class="st2" d="M781.1,164.6L148.5,264.8c-3.7,0.6-7.1-1.9-7.7-5.6l0,0c-0.6-3.7,1.9-7.1,5.6-7.7L779,151.3
		c3.7-0.6,7.1,1.9,7.7,5.6l0,0C787.2,160.6,784.7,164.1,781.1,164.6z"/>
	<path class="st2" d="M805,315.8L172.5,416c-3.7,0.6-7.1-1.9-7.7-5.6l0,0c-0.6-3.7,1.9-7.1,5.6-7.7l632.5-100.1
		c3.7-0.6,7.1,1.9,7.7,5.6l0,0C811.2,311.8,808.7,315.3,805,315.8z"/>
	<path class="st2" d="M817,391.5L184.4,491.6c-3.7,0.6-7.1-1.9-7.7-5.6l0,0c-0.6-3.7,1.9-7.1,5.6-7.7l632.6-100.1
		c3.7-0.6,7.1,1.9,7.7,5.6l0,0C823.2,387.4,820.7,390.9,817,391.5z"/>
	<path class="st2" d="M829,467.1L196.4,567.2c-3.7,0.6-7.1-1.9-7.7-5.6l0,0c-0.6-3.7,1.9-7.1,5.6-7.7l632.6-100.1
		c3.7-0.6,7.1,1.9,7.7,5.6l0,0C835.1,463,832.6,466.5,829,467.1z"/>
	<path class="st2" d="M840.9,542.7L208.4,642.8c-3.7,0.6-7.1-1.9-7.7-5.6l0,0c-0.6-3.7,1.9-7.1,5.6-7.7l632.6-100.2
		c3.7-0.6,7.1,1.9,7.7,5.6l0,0C847.1,538.6,844.6,542.1,840.9,542.7z"/>
	<path class="st2" d="M852.9,618.3L220.3,718.5c-3.7,0.6-7.1-1.9-7.7-5.6l0,0c-0.6-3.7,1.9-7.1,5.6-7.7L850.8,605
		c3.7-0.6,7.1,1.9,7.7,5.6l0,0C859.1,614.2,856.6,617.7,852.9,618.3z"/>
	<path class="st2" d="M864.9,693.9L232.3,794.1c-3.7,0.6-7.1-1.9-7.7-5.6l0,0c-0.6-3.7,1.9-7.1,5.6-7.7l632.6-100.2
		c3.7-0.6,7.1,1.9,7.7,5.6l0,0C871.1,689.8,868.6,693.3,864.9,693.9z"/>
	<path class="st2" d="M876.9,769.5L244.3,869.7c-3.7,0.6-7.1-1.9-7.7-5.6l0,0c-0.6-3.7,1.9-7.1,5.6-7.7l632.6-100.2
		c3.7-0.6,7.1,1.9,7.7,5.6l0,0C883,765.4,880.5,768.9,876.9,769.5z"/>
	<path class="st2" d="M782.3,794L682.1,161.5c-0.6-3.7,1.9-7.1,5.6-7.7l0,0c3.7-0.6,7.1,1.9,7.7,5.6L795.6,792
		c0.6,3.7-1.9,7.1-5.6,7.7l0,0C786.3,800.2,782.8,797.7,782.3,794z"/>
	<path class="st2" d="M857.9,782.1L757.7,149.5c-0.6-3.7,1.9-7.1,5.6-7.7l0,0c3.7-0.6,7.1,1.9,7.7,5.6L871.2,780
		c0.6,3.7-1.9,7.1-5.6,7.7l0,0C861.9,788.2,858.4,785.7,857.9,782.1z"/>
	<path class="st2" d="M706.6,806L606.5,173.4c-0.6-3.7,1.9-7.1,5.6-7.7l0,0c3.7-0.6,7.1,1.9,7.7,5.6l100.1,632.6
		c0.6,3.7-1.9,7.1-5.6,7.7l0,0C710.7,812.2,707.2,809.7,706.6,806z"/>
	<path class="st2" d="M631,818L530.9,185.4c-0.6-3.7,1.9-7.1,5.6-7.7l0,0c3.7-0.6,7.1,1.9,7.7,5.6l100.2,632.6
		c0.6,3.7-1.9,7.1-5.6,7.7l0,0C635.1,824.2,631.6,821.7,631,818z"/>
	<path class="st2" d="M555.4,830L455.2,197.4c-0.6-3.7,1.9-7.1,5.6-7.7l0,0c3.7-0.6,7.1,1.9,7.7,5.6l100.2,632.6
		c0.6,3.7-1.9,7.1-5.6,7.7l0,0C559.5,836.1,556,833.6,555.4,830z"/>
	<path class="st2" d="M479.8,841.9L379.6,209.4c-0.6-3.7,1.9-7.1,5.6-7.7l0,0c3.7-0.6,7.1,1.9,7.7,5.6l100.2,632.6
		c0.6,3.7-1.9,7.1-5.6,7.7l0,0C483.9,848.1,480.4,845.6,479.8,841.9z"/>
	<path class="st2" d="M404.2,853.9L304,221.3c-0.6-3.7,1.9-7.1,5.6-7.7l0,0c3.7-0.6,7.1,1.9,7.7,5.6l100.2,632.6
		c0.6,3.7-1.9,7.1-5.6,7.7l0,0C408.3,860.1,404.8,857.6,404.2,853.9z"/>
	<path class="st2" d="M328.6,865.9L228.4,233.3c-0.6-3.7,1.9-7.1,5.6-7.7l0,0c3.7-0.6,7.1,1.9,7.7,5.6l100.2,632.6
		c0.6,3.7-1.9,7.1-5.6,7.7l0,0C332.7,872.1,329.2,869.6,328.6,865.9z"/>
	<path class="st2" d="M253,877.9L152.8,245.3c-0.6-3.7,1.9-7.1,5.6-7.7l0,0c3.7-0.6,7.1,1.9,7.7,5.6l100.2,632.6
		c0.6,3.7-1.9,7.1-5.6,7.7l0,0C257,884,253.6,881.5,253,877.9z"/>
</g>
<g>
	<g>
		<path class="st3" d="M468.3,642.3c-53.8,0-79.8-12.2-81.8-24.3l-8.2-51.6l278.3-44.1l8.2,51.6c3.1,19.4-50.6,50.1-132.7,63.1
			C510,640.5,488.5,642.3,468.3,642.3C468.3,642.3,468.3,642.3,468.3,642.3z"/>
		<path class="st4" d="M652.5,527.9l7.4,46.7c0.9,5.9-8.5,17.1-31.7,28.7c-24.9,12.6-59.3,22.7-96.8,28.7
			c-21.9,3.5-43.2,5.2-63.1,5.2c-23.3,0-43.1-2.4-57.5-7c-13.4-4.3-18.8-9.6-19.3-13.1l-7.4-46.7L652.5,527.9 M660.8,516.5
			l-288.2,45.6l9,56.6c2.9,18.1,38,28.6,86.7,28.6c19.8,0,41.7-1.7,64.7-5.4c79.6-12.6,140.8-43.4,136.8-68.8L660.8,516.5
			L660.8,516.5z"/>
	</g>
	<g>
		<path class="st3" d="M459.3,585.7c-53.8,0-79.8-12.2-81.8-24.3c-1.5-9.7,11.3-22.4,34.4-34c25.4-12.8,60.3-23.1,98.3-29.1
			c22.2-3.5,43.7-5.3,63.9-5.3c53.8,0,79.8,12.2,81.8,24.3c1.5,9.7-11.3,22.4-34.4,34c-25.4,12.8-60.3,23.1-98.3,29.1
			C501.1,583.9,479.6,585.7,459.3,585.7z"/>
		<path class="st4" d="M574.2,497.9c23.3,0,43.1,2.4,57.5,7c13.4,4.3,18.8,9.6,19.3,13.1c0.9,5.9-8.5,17.1-31.7,28.7
			c-24.9,12.6-59.3,22.7-96.8,28.7c-21.9,3.5-43.2,5.2-63.1,5.2c-23.3,0-43.1-2.4-57.5-7c-13.4-4.3-18.8-9.6-19.3-13.1
			c-0.9-5.9,8.5-17.1,31.7-28.7c24.9-12.6,59.3-22.7,96.8-28.7C533,499.7,554.2,497.9,574.2,497.9L574.2,497.9 M574.1,487.9
			c-19.7,0-41.7,1.7-64.7,5.4c-79.6,12.6-140.8,43.4-136.8,68.8c2.9,18.1,38,28.6,86.7,28.6c19.7,0,41.7-1.7,64.7-5.4
			c79.6-12.6,140.8-43.4,136.8-68.8C658,498.4,622.8,487.9,574.1,487.9L574.1,487.9z"/>
	</g>
	<g>
		<path class="st3" d="M459.6,587.6c-53.8,0-79.8-12.2-81.8-24.3l-8.2-51.6L648,467.6l8.2,51.6c3.1,19.4-50.6,50.1-132.7,63.1
			C501.4,585.8,479.9,587.6,459.6,587.6C459.7,587.6,459.7,587.6,459.6,587.6z"/>
		<path class="st4" d="M643.9,473.3l7.4,46.7c0.9,5.9-8.5,17.1-31.7,28.7c-24.9,12.6-59.3,22.7-96.8,28.7
			c-21.9,3.5-43.2,5.2-63.1,5.2c-23.3,0-43.1-2.4-57.5-7c-13.4-4.3-18.8-9.6-19.3-13.1l-7.4-46.7L643.9,473.3 M652.2,461.8
			L364,507.5l9,56.6c2.9,18.1,38,28.6,86.7,28.6c19.8,0,41.7-1.7,64.7-5.4c79.6-12.6,140.8-43.4,136.8-68.8L652.2,461.8L652.2,461.8
			z"/>
	</g>
	<g>
		<path class="st3" d="M450.7,531c-53.8,0-79.8-12.2-81.8-24.3c-1.5-9.7,11.3-22.4,34.4-34c25.4-12.8,60.3-23.1,98.3-29.1
			c22.2-3.5,43.7-5.3,63.9-5.3c53.8,0,79.8,12.2,81.8,24.3c3.1,19.4-50.6,50.1-132.7,63.1C492.4,529.3,470.9,531,450.7,531z"/>
		<path class="st4" d="M565.5,443.3c23.3,0,43.1,2.4,57.5,7c13.4,4.3,18.8,9.6,19.3,13.1c0.9,5.9-8.5,17.1-31.7,28.7
			c-24.9,12.6-59.3,22.7-96.8,28.7c-21.9,3.5-43.2,5.2-63.1,5.2c-23.3,0-43.1-2.4-57.5-7c-13.4-4.3-18.8-9.6-19.3-13.1
			c-0.9-5.9,8.5-17.1,31.7-28.7c24.9-12.6,59.3-22.7,96.8-28.7C524.3,445,545.5,443.3,565.5,443.3L565.5,443.3 M565.5,433.3
			c-19.7,0-41.7,1.7-64.7,5.4C421.2,451.2,360,482.1,364,507.5c2.9,18.1,38,28.6,86.7,28.6c19.7,0,41.7-1.7,64.7-5.4
			c79.6-12.6,140.8-43.4,136.8-68.8C649.3,443.7,614.2,433.3,565.5,433.3L565.5,433.3z"/>
	</g>
	<g>
		<path class="st3" d="M450.7,531.1c-53.8,0-79.8-12.2-81.8-24.3l-8.2-51.6L639.1,411l8.2,51.6c1.5,9.7-11.3,22.4-34.4,34
			c-25.4,12.8-60.3,23.1-98.3,29.1C492.4,529.3,470.9,531.1,450.7,531.1C450.7,531.1,450.7,531.1,450.7,531.1z"/>
		<path class="st4" d="M634.9,416.7l7.4,46.7c0.9,5.9-8.5,17.1-31.7,28.7c-24.9,12.6-59.3,22.7-96.8,28.7
			c-21.9,3.5-43.2,5.2-63.1,5.2c-23.3,0-43.1-2.4-57.5-7c-13.4-4.3-18.8-9.6-19.3-13.1l-7.4-46.7L634.9,416.7 M643.2,405.3L355,451
			l9,56.6c2.9,18.1,38,28.6,86.7,28.6c19.8,0,41.7-1.7,64.7-5.4c79.6-12.6,140.8-43.4,136.8-68.8L643.2,405.3L643.2,405.3z"/>
	</g>
	<g>
		
			<radialGradient id="SVGID_1_" cx="512.4998" cy="400.3154" r="232.1785" gradientTransform="matrix(-0.6407 0.3442 -0.1777 -0.3557 898.6297 394.1171)" gradientUnits="userSpaceOnUse">
			<stop  offset="0.4729" style="stop-color:#EDBBF5"/>
			<stop  offset="0.5824" style="stop-color:#EDC8F5"/>
			<stop  offset="0.7087" style="stop-color:#EDD3F5"/>
		</radialGradient>
		<path class="st5" d="M441.7,474.5c-53.8,0-79.8-12.2-81.8-24.3c-3.1-19.4,50.6-50.1,132.7-63.1c22.2-3.5,43.7-5.3,63.9-5.3
			c53.8,0,79.8,12.2,81.8,24.3c3.1,19.4-50.6,50.1-132.7,63.1C483.4,472.7,461.9,474.5,441.7,474.5z"/>
		<path class="st4" d="M556.5,386.7c23.3,0,43.1,2.4,57.5,7c13.4,4.3,18.8,9.6,19.3,13.1c0.9,5.9-8.5,17.1-31.7,28.7
			c-24.9,12.6-59.3,22.7-96.8,28.7c-21.9,3.5-43.2,5.2-63.1,5.2c-23.3,0-43.1-2.4-57.5-7c-13.4-4.3-18.8-9.6-19.3-13.1
			c-0.9-5.9,8.5-17.1,31.7-28.7c24.9-12.6,59.3-22.7,96.8-28.7C515.3,388.5,536.6,386.7,556.5,386.7L556.5,386.7 M556.5,376.7
			c-19.7,0-41.7,1.7-64.7,5.4C412.3,394.7,351,425.5,355,451c2.9,18.1,38,28.6,86.7,28.6c19.7,0,41.7-1.7,64.7-5.4
			c79.6-12.6,140.8-43.4,136.8-68.8C640.4,387.2,605.2,376.7,556.5,376.7L556.5,376.7z"/>
	</g>
</g>
<g>
	<defs>
		<path id="SVGID_2_" d="M506.4,474.2c-79.6,12.6-147.4,2.2-151.4-23.2h0l9,56.5l0,0l8.7,54.6l0.3,1.9l8.7,54.7
			c4,25.4,71.8,35.8,151.4,23.2s140.8-43.4,136.8-68.8l-8.7-54.7l-0.3-1.9l-8.7-54.6l0,0l-9-56.5C647.3,430.7,586,461.5,506.4,474.2
			z"/>
	</defs>
	<clipPath id="SVGID_3_">
		<use xlink:href="#SVGID_2_"  style="overflow:visible;"/>
	</clipPath>
	<g class="st6">
		
			<linearGradient id="SVGID_4_" gradientUnits="userSpaceOnUse" x1="474.3773" y1="548.3746" x2="642.6171" y2="548.3746" gradientTransform="matrix(0.7147 -0.1132 0.119 0.751 85.2564 185.4937)">
			<stop  offset="0" style="stop-color:#FFFFFF;stop-opacity:0"/>
			<stop  offset="0.4463" style="stop-color:#FFFFFF;stop-opacity:0.5662"/>
			<stop  offset="0.4729" style="stop-color:#FFFFFF;stop-opacity:0.6"/>
			<stop  offset="1" style="stop-color:#FFFFFF;stop-opacity:0"/>
		</linearGradient>
		<polygon class="st7" points="628.9,645.5 508.7,664.5 470.4,422.7 590.6,403.7 		"/>
	</g>
	<g class="st6">
		
			<linearGradient id="SVGID_5_" gradientUnits="userSpaceOnUse" x1="317.7402" y1="543.8766" x2="485.98" y2="543.8766" gradientTransform="matrix(0.7147 -0.1132 0.119 0.751 85.2564 185.4937)">
			<stop  offset="0" style="stop-color:#FFFFFF;stop-opacity:0"/>
			<stop  offset="0.4729" style="stop-color:#000000;stop-opacity:0.2"/>
			<stop  offset="0.5207" style="stop-color:#0D0D0D;stop-opacity:0.1819"/>
			<stop  offset="0.6101" style="stop-color:#313131;stop-opacity:0.1479"/>
			<stop  offset="0.7316" style="stop-color:#6B6B6B;stop-opacity:0.1018"/>
			<stop  offset="0.8786" style="stop-color:#B9B9B9;stop-opacity:4.604921e-02"/>
			<stop  offset="1" style="stop-color:#FFFFFF;stop-opacity:0"/>
		</linearGradient>
		<polygon class="st8" points="516.4,659.9 396.2,678.9 357.9,437.1 478.1,418 		"/>
	</g>
</g>
</svg>
