<?xml version="1.0" encoding="utf-8"?>
<!-- Generator: Adobe Illustrator 25.0.1, SVG Export Plug-In . SVG Version: 6.00 Build 0)  -->
<svg version="1.1" id="libre-writer" xmlns="http://www.w3.org/2000/svg" xmlns:xlink="http://www.w3.org/1999/xlink" x="0px"
	 y="0px" viewBox="0 0 1024 1024" style="enable-background:new 0 0 1024 1024;" xml:space="preserve">
<style type="text/css">
	.st0{fill:#FFFFFF;}
	.st1{opacity:0.5;fill:#1287C9;enable-background:new    ;}
	.st2{fill:#1287C9;}
</style>
<g>
	
		<rect x="119.8" y="119.8" transform="matrix(0.9877 -0.1564 0.1564 0.9877 -73.776 86.3776)" class="st0" width="784.4" height="784.4"/>
	<rect x="149.6" y="150" transform="matrix(0.9877 -0.1564 0.1564 0.9877 -73.853 86.3994)" class="st0" width="725" height="725"/>
</g>
<rect x="426" y="255.1" transform="matrix(0.9877 -0.1564 0.1564 0.9877 -33.4031 99.1812)" class="st1" width="375.1" height="13.5"/>
<rect x="414" y="179.4" transform="matrix(0.9877 -0.1564 0.1564 0.9877 -21.711 96.3727)" class="st1" width="375.1" height="13.5"/>
<rect x="438" y="330.7" transform="matrix(0.9877 -0.1564 0.1564 0.9877 -45.0792 101.9884)" class="st1" width="375.1" height="13.5"/>
<rect x="172.8" y="428.1" transform="matrix(0.9877 -0.1564 0.1564 0.9877 -61.8605 83.5117)" class="st1" width="653.9" height="13.5"/>
<rect x="184.8" y="503.7" transform="matrix(0.9877 -0.1564 0.1564 0.9877 -73.5366 86.3189)" class="st1" width="653.9" height="13.5"/>
<rect x="196.8" y="579.3" transform="matrix(0.9877 -0.1564 0.1564 0.9877 -85.2127 89.1261)" class="st1" width="653.9" height="13.5"/>
<rect x="208.7" y="654.9" transform="matrix(0.9877 -0.1564 0.1564 0.9877 -96.8901 91.9173)" class="st1" width="653.9" height="13.5"/>
<rect x="220.7" y="730.5" transform="matrix(0.9877 -0.1564 0.1564 0.9877 -108.5661 94.7245)" class="st1" width="653.9" height="13.5"/>
<rect x="232.7" y="806.1" transform="matrix(0.9877 -0.1564 0.1564 0.9877 -120.2422 97.5317)" class="st1" width="653.9" height="13.5"/>
<g>
	<path class="st2" d="M355.9,222.3l24.8,156.6l-211.4,33.5l-24.8-156.6L355.9,222.3 M359.2,217.8l-219.3,34.7l26,164.5l219.3-34.7
		L359.2,217.8L359.2,217.8z"/>
</g>
<g>
	<path class="st2" d="M192.1,334c-3.1-19.4-0.6-35.6,7.5-48.6c8.1-12.9,21.7-20.9,40.8-24l4.3,27.1c-14.4,2.3-20.2,12.6-17.3,30.9
		l1.1,6.7l26.3-4.2l8.1,51.3l-54.6,8.6C200.1,366.1,194.7,350.1,192.1,334z M271.3,321.5c-3.1-19.4-0.6-35.6,7.5-48.6
		c8.1-12.9,21.7-20.9,40.8-24l4.3,27.1c-14.4,2.3-20.2,12.6-17.3,30.9l1.1,6.7l26.3-4.2l8.1,51.3l-54.6,8.6
		C279.2,353.6,273.9,337.6,271.3,321.5z"/>
</g>
</svg>
