<?xml version="1.0" encoding="utf-8"?>
<!-- Generator: Adobe Illustrator 27.0.0, SVG Export Plug-In . SVG Version: 6.00 Build 0)  -->
<svg version="1.1" id="libre-base" xmlns="http://www.w3.org/2000/svg" xmlns:xlink="http://www.w3.org/1999/xlink" x="0px" y="0px"
	 viewBox="0 0 1024 1024" style="enable-background:new 0 0 1024 1024;" xml:space="preserve">
<style type="text/css">
	.st0{fill:url(#SVGID_1_);}
	.st1{fill:#FFFFFF;}
	.st2{fill:#EFEFEF;}
	.st3{fill:#C254D2;}
	.st4{opacity:0.31;}
	.st5{opacity:0.53;}
	.st6{fill:#898989;}
</style>
<g id="Layer_4_00000127757679839559190090000007519639139524357531_">
	
		<linearGradient id="SVGID_1_" gradientUnits="userSpaceOnUse" x1="496.9557" y1="176.8569" x2="496.9557" y2="160.5129" gradientTransform="matrix(0.9877 -0.1564 -0.1564 -0.9877 101.34 1105.519)">
		<stop  offset="0" style="stop-color:#A9ADAB"/>
		<stop  offset="0.3581" style="stop-color:#A6AAA8"/>
		<stop  offset="0.6161" style="stop-color:#9DA19F"/>
		<stop  offset="0.8419" style="stop-color:#8E918F"/>
	</linearGradient>
	<path class="st0" d="M918.7,811L214.6,922.5c-19.5,3.1-37.8-10.2-40.9-29.7L77.9,287.9c-3.1-19.5,10.2-37.8,29.7-40.9l704.2-111.5
		c19.5-3.1,37.8,10.2,40.9,29.7l95.8,604.9C951.5,789.6,938.2,807.9,918.7,811z"/>
	<path class="st1" d="M916.1,794.3L211.9,905.8c-19.5,3.1-37.8-10.2-40.9-29.7L75.2,271.2c-3.1-19.5,10.2-37.8,29.7-40.9
		l704.2-111.5c19.5-3.1,37.8,10.2,40.9,29.7l95.8,604.9C948.8,772.9,935.5,791.2,916.1,794.3z"/>
</g>
<g>
	<g>
		<path class="st2" d="M207,468.2l-40.8,6.5c-4.5,0.7-8.6-2.3-9.3-6.8l-6.5-40.8c-0.7-4.5,2.3-8.6,6.8-9.3l40.8-6.5
			c4.5-0.7,8.6,2.3,9.3,6.8l6.5,40.8C214.5,463.3,211.4,467.5,207,468.2z"/>
		<path class="st3" d="M199.2,411.2c3.9,0,7.4,2.9,8,6.9l6.5,40.8c0.7,4.5-2.3,8.6-6.8,9.3l-40.8,6.5c-0.4,0.1-0.9,0.1-1.3,0.1
			c-3.9,0-7.4-2.9-8-6.9l-6.5-40.8c-0.7-4.5,2.3-8.6,6.8-9.3l40.8-6.5C198.4,411.2,198.8,411.2,199.2,411.2 M199.2,407.2
			L199.2,407.2c-0.6,0-1.3,0.1-1.9,0.2l-40.8,6.5c-6.6,1-11.2,7.3-10.1,13.9l6.5,40.8c0.9,5.9,6,10.3,12,10.3c0.6,0,1.3-0.1,1.9-0.2
			l40.8-6.5c6.6-1,11.2-7.3,10.1-13.9l-6.5-40.8C210.3,411.5,205.2,407.2,199.2,407.2L199.2,407.2z"/>
	</g>
	<g>
		<path class="st2" d="M411.2,435.9l-160,25.3c-4.5,0.7-8.6-2.3-9.3-6.8l-6.5-40.8c-0.7-4.5,2.3-8.6,6.8-9.3l160-25.3
			c4.5-0.7,8.6,2.3,9.3,6.8l6.5,40.8C418.7,431,415.7,435.2,411.2,435.9z"/>
		<path class="st3" d="M403.5,378.8c3.9,0,7.4,2.9,8,6.9l6.5,40.8c0.7,4.5-2.3,8.6-6.8,9.3l-160,25.3c-0.4,0.1-0.9,0.1-1.3,0.1
			c-3.9,0-7.4-2.9-8-6.9l-6.5-40.8c-0.7-4.5,2.3-8.6,6.8-9.3l160-25.3C402.6,378.9,403,378.8,403.5,378.8 M403.5,374.8L403.5,374.8
			c-0.6,0-1.3,0.1-1.9,0.2l-160,25.3c-3.2,0.5-6,2.2-7.9,4.9c-1.9,2.6-2.7,5.8-2.2,9l6.5,40.8c0.9,5.9,6,10.3,12,10.3
			c0.6,0,1.3-0.1,1.9-0.2l160-25.3c6.6-1,11.2-7.3,10.1-13.9l-6.5-40.8C414.5,379.1,409.5,374.8,403.5,374.8L403.5,374.8z"/>
	</g>
	<g>
		<path class="st2" d="M352,612.8l-160,25.3c-4.5,0.7-8.6-2.3-9.3-6.8l-6.5-40.8c-0.7-4.5,2.3-8.6,6.8-9.3l160-25.3
			c4.5-0.7,8.6,2.3,9.3,6.8l6.5,40.8C359.5,607.9,356.5,612.1,352,612.8z"/>
		<path class="st3" d="M344.3,555.7c3.9,0,7.4,2.9,8,6.9l6.5,40.8c0.7,4.5-2.3,8.6-6.8,9.3l-160,25.3c-0.4,0.1-0.9,0.1-1.3,0.1
			c-3.9,0-7.4-2.9-8-6.9l-6.5-40.8c-0.7-4.5,2.3-8.6,6.8-9.3l160-25.3C343.4,555.8,343.9,555.7,344.3,555.7 M344.3,551.7
			L344.3,551.7c-0.6,0-1.3,0.1-1.9,0.2l-160,25.3c-6.6,1-11.2,7.3-10.1,13.9l6.5,40.8c0.9,5.9,6,10.3,12,10.3c0.6,0,1.3-0.1,1.9-0.2
			l160-25.3c3.2-0.5,6-2.2,7.9-4.9c1.9-2.6,2.7-5.8,2.2-9l-6.5-40.8C355.3,556.1,350.3,551.7,344.3,551.7L344.3,551.7z"/>
	</g>
	<g>
		<path class="st2" d="M554.5,580.7l-160,25.3c-4.5,0.7-8.6-2.3-9.3-6.8l-6.5-40.8c-0.7-4.5,2.3-8.6,6.8-9.3l160-25.3
			c4.5-0.7,8.6,2.3,9.3,6.8l6.5,40.8C561.9,575.9,558.9,580,554.5,580.7z"/>
		<path class="st3" d="M546.7,523.7c3.9,0,7.4,2.9,8,6.9l6.5,40.8c0.7,4.5-2.3,8.6-6.8,9.3l-160,25.3c-0.4,0.1-0.9,0.1-1.3,0.1
			c-3.9,0-7.4-2.9-8-6.9l-6.5-40.8c-0.7-4.5,2.3-8.6,6.8-9.3l160-25.3C545.9,523.7,546.3,523.7,546.7,523.7 M546.7,519.7
			L546.7,519.7c-0.6,0-1.3,0.1-1.9,0.2l-160,25.3c-6.6,1-11.2,7.3-10.1,13.9l6.5,40.8c0.9,5.9,6,10.3,12,10.3c0.6,0,1.3-0.1,1.9-0.2
			l160-25.3c6.6-1,11.2-7.3,10.1-13.9l-6.5-40.8C557.8,524,552.7,519.7,546.7,519.7L546.7,519.7z"/>
	</g>
	<g>
		<path class="st2" d="M424.1,517.6l-245.1,38.8c-4.5,0.7-8.6-2.3-9.3-6.8l-6.5-40.8c-0.7-4.5,2.3-8.6,6.8-9.3l245.1-38.8
			c4.5-0.7,8.6,2.3,9.3,6.8l6.5,40.8C431.6,512.7,428.6,516.9,424.1,517.6z"/>
		<path class="st3" d="M416.4,460.5c3.9,0,7.4,2.9,8,6.9l6.5,40.8c0.7,4.5-2.3,8.6-6.8,9.3l-245.1,38.8c-0.4,0.1-0.9,0.1-1.3,0.1
			c-3.9,0-7.4-2.9-8-6.9l-6.5-40.8c-0.7-4.5,2.3-8.6,6.8-9.3l245.1-38.8C415.6,460.6,416,460.5,416.4,460.5 M416.4,456.5
			c-0.6,0-1.3,0.1-1.9,0.2l-245.1,38.8c-3.2,0.5-6,2.2-7.9,4.9c-1.9,2.6-2.7,5.8-2.2,9l6.5,40.8c0.9,5.9,6,10.3,12,10.3
			c0.6,0,1.3-0.1,1.9-0.2l245.1-38.8c6.6-1,11.2-7.3,10.1-13.9l-6.5-40.8C427.5,460.9,422.4,456.5,416.4,456.5L416.4,456.5z"/>
	</g>
	<g>
		<path class="st2" d="M833.8,452.7l-364.2,57.7c-4.5,0.7-8.6-2.3-9.3-6.8l-6.5-40.8c-0.7-4.5,2.3-8.6,6.8-9.3l364.2-57.7
			c4.5-0.7,8.6,2.3,9.3,6.8l6.5,40.8C841.3,447.8,838.2,452,833.8,452.7z"/>
		<path class="st3" d="M826,395.7c3.9,0,7.4,2.9,8,6.9l6.5,40.8c0.7,4.5-2.3,8.6-6.8,9.3l-364.2,57.7c-0.4,0.1-0.9,0.1-1.3,0.1
			c-3.9,0-7.4-2.9-8-6.9l-6.5-40.8c-0.7-4.5,2.3-8.6,6.8-9.3l364.2-57.7C825.2,395.7,825.6,395.7,826,395.7 M826,391.7
			c-0.6,0-1.3,0.1-1.9,0.2l-364.2,57.7c-6.6,1-11.2,7.3-10.1,13.9l6.5,40.8c0.9,5.9,6,10.3,12,10.3c0.6,0,1.3-0.1,1.9-0.2
			l364.2-57.7c3.2-0.5,6-2.2,7.9-4.9s2.7-5.8,2.2-9l-6.5-40.8C837.1,396,832.1,391.7,826,391.7L826,391.7z"/>
	</g>
	<g>
		<path class="st2" d="M615.1,403.6l-160,25.3c-4.5,0.7-8.6-2.3-9.3-6.8l-6.5-40.8c-0.7-4.5,2.3-8.6,6.8-9.3l160-25.3
			c4.5-0.7,8.6,2.3,9.3,6.8l6.5,40.8C622.6,398.7,619.5,402.9,615.1,403.6z"/>
		<path class="st3" d="M607.4,346.5c3.9,0,7.4,2.9,8,6.9l6.5,40.8c0.7,4.5-2.3,8.6-6.8,9.3l-160,25.3c-0.4,0.1-0.9,0.1-1.3,0.1
			c-3.9,0-7.4-2.9-8-6.9l-6.5-40.8c-0.7-4.5,2.3-8.6,6.8-9.3l160-25.3C606.5,346.6,606.9,346.5,607.4,346.5 M607.4,342.5
			L607.4,342.5c-0.6,0-1.3,0.1-1.9,0.2l-160,25.3c-6.6,1-11.2,7.3-10.1,13.9l6.5,40.8c0.9,5.9,6,10.3,12,10.3c0.6,0,1.3-0.1,1.9-0.2
			l160-25.3c6.6-1,11.2-7.3,10.1-13.9l-6.5-40.8C618.4,346.8,613.4,342.5,607.4,342.5L607.4,342.5z"/>
	</g>
	<g>
		<path class="st2" d="M820.8,371l-160,25.3c-4.5,0.7-8.6-2.3-9.3-6.8l-6.5-40.8c-0.7-4.5,2.3-8.6,6.8-9.3l160-25.3
			c4.5-0.7,8.6,2.3,9.3,6.8l6.5,40.8C828.3,366.1,825.3,370.3,820.8,371z"/>
		<path class="st3" d="M813.1,313.9c3.9,0,7.4,2.9,8,6.9l6.5,40.8c0.7,4.5-2.3,8.6-6.8,9.3l-160,25.3c-0.4,0.1-0.9,0.1-1.3,0.1
			c-3.9,0-7.4-2.9-8-6.9l-6.5-40.8c-0.7-4.5,2.3-8.6,6.8-9.3l160-25.3C812.2,314,812.7,313.9,813.1,313.9 M813.1,309.9L813.1,309.9
			c-0.6,0-1.3,0.1-1.9,0.2l-160,25.3c-6.6,1-11.2,7.3-10.1,13.9l6.5,40.8c0.9,5.9,6,10.3,12,10.3c0.6,0,1.3-0.1,1.9-0.2l160-25.3
			c6.6-1,11.2-7.3,10.1-13.9l-6.5-40.8C824.2,314.3,819.1,309.9,813.1,309.9L813.1,309.9z"/>
	</g>
</g>
<g>
	<path d="M130.1,344.2l-6.3-39.7l11.7-1.9c3.5-0.6,6.7-0.3,9.7,0.9c3,1.1,5.4,3,7.4,5.6c1.9,2.6,3.2,5.8,3.8,9.5l0.3,2
		c0.6,3.8,0.4,7.2-0.7,10.3c-1,3.1-2.8,5.6-5.4,7.6c-2.5,2-5.6,3.3-9.2,3.8L130.1,344.2z M131.6,309l4.5,28.6l4.5-0.7
		c3.6-0.6,6.2-2.1,7.8-4.7c1.6-2.6,2-6,1.4-10.2l-0.3-2.2c-0.7-4.3-2.1-7.4-4.4-9.4c-2.2-2-5.1-2.7-8.7-2.1L131.6,309z"/>
	<path d="M183.6,335.7c-0.4-0.5-0.8-1.4-1.2-2.6c-1.8,2.5-4.2,4-7.2,4.5c-3,0.5-5.5,0-7.6-1.4c-2.1-1.4-3.4-3.3-3.8-5.8
		c-0.5-3.1,0.3-5.7,2.4-7.8c2.1-2,5.3-3.4,9.6-4.1l4.1-0.6l-0.3-1.9c-0.2-1.5-0.9-2.7-1.9-3.5c-1-0.8-2.4-1-4.1-0.8
		c-1.5,0.2-2.7,0.8-3.5,1.7c-0.8,0.9-1.2,1.9-1,3.1l-6.6,1c-0.3-1.6,0-3.2,0.9-4.8c0.8-1.6,2.1-2.9,3.8-4c1.7-1.1,3.7-1.8,6-2.2
		c3.5-0.5,6.3-0.1,8.7,1.3c2.3,1.4,3.8,3.7,4.3,6.8l2.1,13.3c0.4,2.7,1.1,4.7,2.1,6.2l0.1,0.5L183.6,335.7z M175.5,332.1
		c1.3-0.2,2.5-0.7,3.5-1.5c1.1-0.8,1.8-1.8,2.2-3l-0.9-5.6l-3.6,0.6c-2.5,0.4-4.2,1.1-5.3,2.2c-1.1,1.1-1.5,2.4-1.3,3.9
		c0.2,1.3,0.8,2.2,1.7,2.8C172.9,332.1,174.1,332.3,175.5,332.1z"/>
	<path d="M198.6,295.8l1.1,7.2l5.2-0.8l0.8,4.9l-5.2,0.8l2.6,16.5c0.2,1.1,0.5,1.9,1.1,2.3c0.5,0.4,1.4,0.6,2.5,0.4
		c0.8-0.1,1.5-0.3,2.3-0.6l0.8,5.1c-1.4,0.7-2.9,1.1-4.3,1.3c-5.1,0.8-8.1-1.6-9-7.2l-2.6-16.7l-4.8,0.8l-0.8-4.9l4.9-0.8l-1.1-7.2
		L198.6,295.8z"/>
	<path d="M232.3,328c-0.4-0.5-0.8-1.4-1.2-2.6c-1.8,2.5-4.2,4-7.2,4.5c-3,0.5-5.5,0-7.6-1.4c-2.1-1.4-3.4-3.3-3.8-5.8
		c-0.5-3.1,0.3-5.7,2.4-7.8c2.1-2,5.3-3.4,9.6-4.1l4.1-0.6l-0.3-1.9c-0.2-1.5-0.9-2.7-1.9-3.5c-1-0.8-2.4-1-4.1-0.8
		c-1.5,0.2-2.7,0.8-3.5,1.7c-0.8,0.9-1.2,1.9-1,3.1l-6.6,1c-0.3-1.6,0-3.2,0.9-4.8s2.1-2.9,3.8-4c1.7-1.1,3.7-1.8,6-2.2
		c3.5-0.5,6.3-0.1,8.7,1.3c2.3,1.4,3.8,3.7,4.3,6.8l2.1,13.3c0.4,2.7,1.1,4.7,2.1,6.2l0.1,0.5L232.3,328z M224.3,324.4
		c1.3-0.2,2.5-0.7,3.5-1.5c1.1-0.8,1.8-1.8,2.2-3l-0.9-5.6l-3.6,0.6c-2.5,0.4-4.2,1.1-5.3,2.2c-1.1,1.1-1.5,2.4-1.3,3.9
		c0.2,1.3,0.8,2.2,1.7,2.8C221.7,324.4,222.9,324.6,224.3,324.4z"/>
	<path d="M268.5,307.5c0.7,4.6,0.3,8.4-1.3,11.4c-1.6,3-4.2,4.8-7.8,5.4c-3.5,0.5-6.3-0.3-8.7-2.5l0.2,3.2l-6,0.9l-6.6-41.9l6.6-1
		l2.4,15.2c1.5-2.6,3.9-4.1,7.2-4.6c3.6-0.6,6.6,0.3,9.1,2.7c2.5,2.3,4.1,5.9,4.9,10.7L268.5,307.5z M261.8,307.9
		c-0.5-3.2-1.4-5.5-2.8-6.9c-1.4-1.4-3.1-2-5.3-1.6c-2.9,0.5-4.7,2-5.5,4.7l1.9,12.2c1.6,2.4,3.8,3.3,6.7,2.9
		c2.1-0.3,3.5-1.4,4.4-3.1c0.9-1.7,1.1-4.1,0.6-7.3L261.8,307.9z"/>
	<path d="M293.9,318.2c-0.4-0.5-0.8-1.4-1.2-2.6c-1.8,2.5-4.2,4-7.2,4.5c-3,0.5-5.5,0-7.6-1.4c-2.1-1.4-3.4-3.3-3.8-5.8
		c-0.5-3.1,0.3-5.7,2.4-7.8c2.1-2,5.3-3.4,9.6-4.1l4.1-0.6l-0.3-1.9c-0.2-1.5-0.9-2.7-1.9-3.5c-1-0.8-2.4-1-4.1-0.8
		c-1.5,0.2-2.7,0.8-3.5,1.7c-0.8,0.9-1.2,1.9-1,3.1l-6.6,1c-0.3-1.6,0-3.2,0.9-4.8c0.8-1.6,2.1-2.9,3.8-4c1.7-1.1,3.7-1.8,6-2.2
		c3.5-0.5,6.3-0.1,8.7,1.3c2.3,1.4,3.8,3.7,4.3,6.8l2.1,13.3c0.4,2.7,1.1,4.7,2.1,6.2l0.1,0.5L293.9,318.2z M285.9,314.6
		c1.3-0.2,2.5-0.7,3.5-1.5c1.1-0.8,1.8-1.8,2.2-3l-0.9-5.6l-3.6,0.6c-2.5,0.4-4.2,1.1-5.3,2.2c-1.1,1-1.5,2.4-1.3,3.9
		c0.2,1.3,0.8,2.2,1.7,2.8C283.3,314.6,284.5,314.8,285.9,314.6z"/>
	<path d="M321.8,305.6c-0.2-1.2-0.8-2-1.9-2.5c-1.1-0.5-2.8-0.8-5.1-0.9c-2.3-0.1-4.3-0.4-5.9-0.9c-3.6-1.1-5.6-3.1-6.1-6.2
		c-0.4-2.5,0.3-4.8,2.2-6.9c1.9-2,4.5-3.3,7.8-3.9c3.5-0.6,6.5-0.1,9,1.3c2.4,1.4,3.9,3.5,4.3,6.3l-6.6,1c-0.2-1.3-0.8-2.3-1.9-3
		c-1.1-0.7-2.4-0.9-4-0.7c-1.5,0.2-2.6,0.8-3.4,1.6c-0.8,0.8-1.1,1.8-0.9,2.9c0.2,1,0.7,1.7,1.7,2.2c0.9,0.4,2.8,0.7,5.4,0.9
		c2.7,0.2,4.8,0.5,6.4,1.1c1.6,0.6,2.9,1.3,3.7,2.3c0.9,1,1.5,2.3,1.7,3.9c0.4,2.7-0.3,5-2.3,7c-1.9,2-4.7,3.3-8.2,3.8
		c-2.4,0.4-4.6,0.3-6.7-0.3s-3.7-1.5-5-2.9c-1.3-1.4-2.1-2.9-2.4-4.7l6.4-1c0.3,1.5,1.1,2.7,2.3,3.3c1.2,0.7,2.7,0.9,4.5,0.6
		c1.7-0.3,3-0.8,3.8-1.6C321.6,307.6,321.9,306.7,321.8,305.6z"/>
	<path d="M348.4,310.2c-4.2,0.7-7.8-0.1-10.8-2.3c-3-2.2-4.9-5.5-5.6-9.9l-0.1-0.8c-0.5-2.9-0.3-5.7,0.5-8.2
		c0.8-2.5,2.1-4.6,3.9-6.2c1.8-1.6,4-2.6,6.6-3c4-0.6,7.3,0.2,9.9,2.4c2.6,2.2,4.3,5.7,5,10.4l0.4,2.7l-19.3,3.1
		c0.6,2.4,1.7,4.2,3.4,5.4c1.6,1.2,3.6,1.6,5.7,1.3c3-0.5,5.3-2.1,6.8-4.9l4.1,2.8c-0.9,1.9-2.3,3.6-4.1,4.8
		C353,308.9,350.8,309.8,348.4,310.2z M343.6,285c-1.8,0.3-3.2,1.2-4.1,2.6c-0.9,1.4-1.3,3.3-1.3,5.7l12.6-2l-0.1-0.5
		c-0.5-2.2-1.4-3.8-2.6-4.7C346.9,285.1,345.4,284.7,343.6,285z"/>
	<path d="M400.2,283.3l-16.3,2.6l1.9,12.2l19-3l0.9,5.5l-25.9,4.1l-6.3-39.7l25.8-4.1l0.9,5.6l-18.9,3l1.7,11l16.3-2.6L400.2,283.3z
		"/>
	<path d="M406.6,285.1c-0.7-4.5-0.2-8.4,1.4-11.4c1.7-3.1,4.3-4.9,7.8-5.5c3.1-0.5,5.8,0.2,8.1,2.1l-2.4-15.1l6.6-1l6.6,41.9l-6,0.9
		l-0.8-3c-1.6,2.7-4.1,4.3-7.4,4.9c-3.5,0.5-6.5-0.4-9-2.8C409,293.4,407.3,289.8,406.6,285.1z M413.3,284.6c0.5,3,1.4,5.2,2.8,6.7
		c1.4,1.5,3.2,2.1,5.3,1.7c2.7-0.4,4.5-2,5.4-4.6l-2-12.6c-1.6-2.2-3.7-3-6.4-2.6c-2.1,0.3-3.7,1.5-4.6,3.3S412.7,281.2,413.3,284.6
		z"/>
	<path d="M435.8,257.7c-0.2-1,0-1.9,0.6-2.7c0.5-0.8,1.4-1.3,2.6-1.4c1.2-0.2,2.2,0,2.9,0.6s1.2,1.4,1.4,2.4c0.2,1,0,1.9-0.6,2.6
		s-1.4,1.2-2.6,1.4c-1.2,0.2-2.2,0-2.9-0.6S436,258.7,435.8,257.7z M448.7,293.7l-6.6,1l-4.7-29.5l6.6-1L448.7,293.7z"/>
	<path d="M458.4,254.6l1.1,7.2l5.2-0.8l0.8,4.9l-5.2,0.8l2.6,16.5c0.2,1.1,0.5,1.9,1.1,2.3c0.5,0.4,1.4,0.6,2.5,0.4
		c0.8-0.1,1.5-0.3,2.3-0.6l0.8,5.1c-1.4,0.7-2.9,1.1-4.3,1.3c-5.1,0.8-8.1-1.6-9-7.2l-2.6-16.7l-4.9,0.8l-0.8-4.9l4.8-0.8l-1.1-7.2
		L458.4,254.6z"/>
	<path d="M509.2,266.9l-16,2.5l2.7,16.8l-6.9,1.1l-6.3-39.7l25.2-4l0.9,5.6l-18.3,2.9l1.9,11.8l16-2.5L509.2,266.9z"/>
	<path d="M514.9,267.9c-0.5-2.9-0.3-5.6,0.5-8.1c0.8-2.5,2.1-4.5,4-6.1s4.2-2.6,6.8-3c4-0.6,7.4,0.1,10.3,2.3
		c2.9,2.2,4.8,5.4,5.6,9.6l0.3,1.5c0.5,2.9,0.3,5.6-0.4,8.1s-2.1,4.5-4,6.1c-1.9,1.6-4.2,2.6-6.9,3c-4.2,0.7-7.7-0.2-10.6-2.6
		s-4.8-5.9-5.5-10.5L514.9,267.9z M521.6,267.4c0.5,3,1.5,5.3,3,6.8s3.4,2.1,5.6,1.7s3.8-1.5,4.8-3.4c1-1.9,1.2-4.6,0.7-8
		c-0.5-3-1.5-5.2-3-6.8c-1.6-1.5-3.4-2.1-5.6-1.8c-2.2,0.3-3.7,1.5-4.7,3.4S521,264,521.6,267.4z"/>
	<path d="M562,251.8c-0.9,0-1.8,0.1-2.7,0.2c-3,0.5-4.9,2-5.6,4.5l3.2,20.2l-6.6,1l-4.7-29.5l6.3-1l0.7,3.3c1.2-2.8,3.2-4.4,6-4.9
		c0.9-0.1,1.7-0.1,2.4,0L562,251.8z"/>
	<path d="M571.4,244.1l0.7,3c1.7-2.7,4.3-4.4,7.9-5c3.9-0.6,6.9,0.5,8.8,3.2c1.7-3.4,4.4-5.3,8.3-6c3.3-0.5,5.8,0,7.7,1.5
		c1.9,1.5,3.1,4.1,3.7,7.6l3.1,19.4l-6.6,1l-3-19.2c-0.3-1.9-0.9-3.2-1.9-3.9c-1-0.7-2.4-1-4.3-0.7c-1.5,0.2-2.7,0.8-3.5,1.8
		c-0.8,1-1.3,2.1-1.5,3.5l3.2,20.2l-6.6,1l-3.1-19.4c-0.6-3.5-2.7-4.9-6.1-4.4c-2.7,0.4-4.4,1.8-5.1,4.1l3.4,21.4l-6.6,1l-4.7-29.5
		L571.4,244.1z"/>
</g>
<g class="st4">
	<rect x="173" y="439.8" transform="matrix(0.9877 -0.1564 0.1564 0.9877 -67.3832 33.75)" width="15.5" height="10.3"/>
	<polygon points="266.8,438.6 274.9,437.4 278.5,436.8 286.5,435.5 290.1,435 298.2,433.7 301.8,433.1 313.5,431.3 311.9,421.1 
		300.2,422.9 296.6,423.5 288.5,424.8 284.9,425.3 276.9,426.6 273.3,427.2 265.2,428.5 261.6,429 249.9,430.9 251.5,441.1 
		263.2,439.2 	"/>
	<polygon points="375,421.5 386.7,419.7 385.1,409.5 373.4,411.3 369.8,411.9 361.8,413.2 358.1,413.7 350.1,415 346.5,415.6 
		334.8,417.4 336.4,427.6 348.1,425.8 351.7,425.2 359.8,423.9 363.4,423.4 371.4,422.1 	"/>
	<polygon points="469.8,406.7 477.8,405.5 481.4,404.9 489.5,403.6 493.1,403 504.8,401.2 503.2,391 491.5,392.9 487.9,393.4 
		479.8,394.7 476.2,395.3 468.2,396.6 464.6,397.1 452.9,399 454.5,409.2 466.2,407.3 	"/>
	<polygon points="578,389.6 576.4,379.4 564.7,381.3 561.1,381.8 553.1,383.1 549.4,383.7 541.4,385 537.8,385.5 526.1,387.4 
		527.7,397.6 539.4,395.7 543,395.1 551.1,393.9 554.7,393.3 562.7,392 566.3,391.4 	"/>
	<polygon points="195.2,532.3 203.2,531.1 206.9,530.5 214.9,529.2 218.5,528.6 226.6,527.4 230.2,526.8 238.2,525.5 241.8,524.9 
		249.9,523.7 253.5,523.1 265.2,521.2 263.6,511.1 251.9,512.9 248.3,513.5 240.2,514.8 236.6,515.3 228.6,516.6 224.9,517.2 
		216.9,518.4 213.3,519 205.2,520.3 201.6,520.9 193.6,522.1 190,522.7 178.3,524.6 179.9,534.7 191.6,532.9 	"/>
	<polygon points="356.5,496.3 348.4,497.6 344.8,498.2 336.8,499.5 333.2,500 325.1,501.3 321.5,501.9 313.4,503.2 309.8,503.7 
		301.8,505 298.2,505.6 286.5,507.4 288.1,517.6 299.8,515.8 303.4,515.2 311.4,513.9 315.1,513.3 323.1,512.1 326.7,511.5 
		334.8,510.2 338.4,509.6 346.4,508.4 350,507.8 358.1,506.5 361.7,506 373.4,504.1 371.8,493.9 360.1,495.8 	"/>
	<polygon points="537.3,467.7 529.2,469 525.6,469.6 517.6,470.8 513.9,471.4 505.9,472.7 502.3,473.2 494.2,474.5 490.6,475.1 
		482.6,476.4 479,476.9 467.3,478.8 468.9,489 480.6,487.1 484.2,486.6 492.2,485.3 495.8,484.7 503.9,483.4 507.5,482.9 
		515.6,481.6 519.2,481 527.2,479.7 530.8,479.2 538.9,477.9 542.5,477.3 554.2,475.5 552.5,465.3 540.9,467.1 	"/>
	<polygon points="587.2,459.8 575.5,461.6 577.1,471.8 588.8,470 592.4,469.4 604.1,467.6 602.4,457.4 590.8,459.2 	"/>
	<polygon points="695.4,442.7 687.3,443.9 683.7,444.5 675.7,445.8 672,446.4 664,447.6 660.4,448.2 652.3,449.5 648.7,450.1 
		640.7,451.3 637.1,451.9 625.4,453.7 627,463.9 638.7,462.1 642.3,461.5 650.3,460.2 654,459.7 662,458.4 665.6,457.8 673.7,456.5 
		677.3,456 685.3,454.7 688.9,454.1 697,452.8 700.6,452.3 712.3,450.4 710.7,440.2 699,442.1 	"/>
	<polygon points="321.5,587.5 313.5,588.8 309.9,589.4 301.8,590.6 298.2,591.2 290.2,592.5 286.5,593.1 278.5,594.3 274.9,594.9 
		266.8,596.2 263.2,596.8 255.2,598 251.6,598.6 243.5,599.9 239.9,600.5 231.8,601.7 228.2,602.3 220.2,603.6 216.6,604.1 
		208.5,605.4 204.9,606 193.2,607.8 194.9,618 206.5,616.2 210.1,615.6 218.2,614.3 221.8,613.8 229.8,612.5 233.5,611.9 
		241.5,610.6 245.1,610.1 253.2,608.8 256.8,608.2 264.8,606.9 268.4,606.4 276.5,605.1 280.1,604.5 288.2,603.2 291.8,602.7 
		299.8,601.4 303.4,600.8 311.5,599.6 315.1,599 323.1,597.7 326.8,597.1 338.4,595.3 336.8,585.1 325.1,586.9 	"/>
	<polygon points="496.5,559.8 488.5,561.1 484.9,561.7 476.8,562.9 473.2,563.5 465.2,564.8 461.6,565.3 453.5,566.6 449.9,567.2 
		441.8,568.5 438.2,569 430.2,570.3 426.6,570.9 418.5,572.2 414.9,572.7 406.9,574 403.2,574.6 391.6,576.4 393.2,586.6 
		404.9,584.8 408.5,584.2 416.5,582.9 420.1,582.3 428.2,581.1 431.8,580.5 439.8,579.2 443.5,578.7 451.5,577.4 455.1,576.8 
		463.2,575.5 466.8,575 474.8,573.7 478.4,573.1 486.5,571.8 490.1,571.3 498.2,570 501.8,569.4 513.4,567.6 511.8,557.4 
		500.2,559.2 	"/>
	<polygon points="696.5,360.6 688.4,361.9 684.8,362.5 676.7,363.8 673.1,364.3 661.5,366.2 663.1,376.4 674.7,374.5 678.4,374 
		686.4,372.7 690,372.1 698.1,370.8 701.7,370.3 713.3,368.4 711.7,358.2 700.1,360.1 	"/>
	<polygon points="750,352.2 746.3,352.7 734.7,354.6 736.3,364.8 748,362.9 751.6,362.4 763.2,360.5 761.6,350.3 	"/>
</g>
<g>
	<g>
		<path class="st2" d="M249,714.7l-40.8,6.5c-4.5,0.7-8.6-2.3-9.3-6.8l-6.5-40.8c-0.7-4.5,2.3-8.6,6.8-9.3l40.8-6.5
			c4.5-0.7,8.6,2.3,9.3,6.8l6.5,40.8C256.5,709.8,253.4,714,249,714.7z"/>
		<path class="st3" d="M241.2,657.6c3.9,0,7.4,2.9,8,6.9l6.5,40.8c0.7,4.5-2.3,8.6-6.8,9.3l-40.8,6.5c-0.4,0.1-0.9,0.1-1.3,0.1
			c-3.9,0-7.4-2.9-8-6.9l-6.5-40.8c-0.7-4.5,2.3-8.6,6.8-9.3l40.8-6.5C240.4,657.6,240.8,657.6,241.2,657.6 M241.2,653.6
			L241.2,653.6c-0.6,0-1.3,0.1-1.9,0.2l-40.8,6.5c-6.6,1-11.2,7.3-10.1,13.9l6.5,40.8c0.9,5.9,6,10.3,12,10.3c0.6,0,1.3-0.1,1.9-0.2
			l40.8-6.5c6.6-1,11.2-7.3,10.1-13.9l-6.5-40.8C252.3,657.9,247.3,653.6,241.2,653.6L241.2,653.6z"/>
	</g>
	<g>
		<path class="st2" d="M453.2,682.3l-160,25.3c-4.5,0.7-8.6-2.3-9.3-6.8l-6.5-40.8c-0.7-4.5,2.3-8.6,6.8-9.3l160-25.3
			c4.5-0.7,8.6,2.3,9.3,6.8L460,673C460.7,677.4,457.7,681.6,453.2,682.3z"/>
		<path class="st3" d="M445.5,625.3c3.9,0,7.4,2.9,8,6.9L460,673c0.7,4.5-2.3,8.6-6.8,9.3l-160,25.3c-0.4,0.1-0.9,0.1-1.3,0.1
			c-3.9,0-7.4-2.9-8-6.9l-6.5-40.8c-0.7-4.5,2.3-8.6,6.8-9.3l160-25.3C444.6,625.3,445.1,625.3,445.5,625.3 M445.5,621.3
			L445.5,621.3c-0.6,0-1.3,0.1-1.9,0.2l-160,25.3c-6.6,1-11.2,7.3-10.1,13.9l6.5,40.8c0.9,5.9,6,10.3,12,10.3c0.6,0,1.3-0.1,1.9-0.2
			l160-25.3c6.6-1,11.2-7.3,10.1-13.9l-6.5-40.8C456.5,625.6,451.5,621.3,445.5,621.3L445.5,621.3z"/>
	</g>
	<g>
		<path class="st2" d="M466.2,764l-245.1,38.8c-4.5,0.7-8.6-2.3-9.3-6.8l-6.5-40.8c-0.7-4.5,2.3-8.6,6.8-9.3l245.1-38.8
			c4.5-0.7,8.6,2.3,9.3,6.8l6.5,40.8C473.7,759.2,470.6,763.3,466.2,764z"/>
		<path class="st3" d="M458.4,707c3.9,0,7.4,2.9,8,6.9l6.5,40.8c0.7,4.5-2.3,8.6-6.8,9.3l-245.1,38.8c-0.4,0.1-0.9,0.1-1.3,0.1
			c-3.9,0-7.4-2.9-8-6.9l-6.5-40.8c-0.7-4.5,2.3-8.6,6.8-9.3l245.1-38.8C457.6,707,458,707,458.4,707 M458.4,703
			c-0.6,0-1.3,0.1-1.9,0.2L211.4,742c-6.6,1-11.2,7.3-10.1,13.9l6.5,40.8c0.9,5.9,6,10.3,12,10.3c0.6,0,1.3-0.1,1.9-0.2L466.8,768
			c6.6-1,11.2-7.3,10.1-13.9l-6.5-40.8C469.5,707.3,464.4,703,458.4,703L458.4,703z"/>
	</g>
	<g>
		<path class="st2" d="M875.8,699.2l-364.2,57.7c-4.5,0.7-8.6-2.3-9.3-6.8l-6.5-40.8c-0.7-4.5,2.3-8.6,6.8-9.3l364.2-57.7
			c4.5-0.7,8.6,2.3,9.3,6.8l6.5,40.8C883.3,694.3,880.2,698.5,875.8,699.2z"/>
		<path class="st3" d="M868.1,642.1c3.9,0,7.4,2.9,8,6.9l6.5,40.8c0.7,4.5-2.3,8.6-6.8,9.3l-364.2,57.7c-0.4,0.1-0.9,0.1-1.3,0.1
			c-3.9,0-7.4-2.9-8-6.9l-6.5-40.8c-0.7-4.5,2.3-8.6,6.8-9.3l364.2-57.7C867.2,642.1,867.6,642.1,868.1,642.1 M868.1,638.1
			c-0.6,0-1.3,0.1-1.9,0.2l-364.2,57.7c-6.6,1-11.2,7.3-10.1,13.9l6.5,40.8c0.9,5.9,6,10.3,12,10.3c0.6,0,1.3-0.1,1.9-0.2
			l364.2-57.7c3.2-0.5,6-2.2,7.9-4.9c1.9-2.6,2.7-5.8,2.2-9l-6.5-40.8C879.1,642.4,874.1,638.1,868.1,638.1L868.1,638.1z"/>
	</g>
	<g>
		<path class="st2" d="M657.1,650l-160,25.3c-4.5,0.7-8.6-2.3-9.3-6.8l-6.5-40.8c-0.7-4.5,2.3-8.6,6.8-9.3l160-25.3
			c4.5-0.7,8.6,2.3,9.3,6.8l6.5,40.8C664.6,645.1,661.6,649.3,657.1,650z"/>
		<path class="st3" d="M649.4,593c3.9,0,7.4,2.9,8,6.9l6.5,40.8c0.7,4.5-2.3,8.6-6.8,9.3l-160,25.3c-0.4,0.1-0.9,0.1-1.3,0.1
			c-3.9,0-7.4-2.9-8-6.9l-6.5-40.8c-0.7-4.5,2.3-8.6,6.8-9.3l160-25.3C648.5,593,649,593,649.4,593 M649.4,589
			c-0.6,0-1.3,0.1-1.9,0.2l-160,25.3c-6.6,1-11.2,7.3-10.1,13.9l6.5,40.8c0.9,5.9,6,10.3,12,10.3c0.6,0,1.3-0.1,1.9-0.2l160-25.3
			c6.6-1,11.2-7.3,10.1-13.9l-6.5-40.8C660.4,593.3,655.4,589,649.4,589L649.4,589z"/>
	</g>
	<g>
		<path class="st2" d="M862.9,617.4l-160,25.3c-4.5,0.7-8.6-2.3-9.3-6.8l-6.5-40.8c-0.7-4.5,2.3-8.6,6.8-9.3l160-25.3
			c4.5-0.7,8.6,2.3,9.3,6.8l6.5,40.8C870.3,612.6,867.3,616.7,862.9,617.4z"/>
		<path class="st3" d="M855.1,560.4c3.9,0,7.4,2.9,8,6.9l6.5,40.8c0.7,4.5-2.3,8.6-6.8,9.3l-160,25.3c-0.4,0.1-0.9,0.1-1.3,0.1
			c-3.9,0-7.4-2.9-8-6.9l-6.5-40.8c-0.7-4.5,2.3-8.6,6.8-9.3l160-25.3C854.3,560.4,854.7,560.4,855.1,560.4 M855.1,556.4
			L855.1,556.4c-0.6,0-1.3,0.1-1.9,0.2l-160,25.3c-6.6,1-11.2,7.3-10.1,13.9l6.5,40.8c0.9,5.9,6,10.3,12,10.3c0.6,0,1.3-0.1,1.9-0.2
			l160-25.3c6.6-1,11.2-7.3,10.1-13.9l-6.5-40.8C866.2,560.7,861.1,556.4,855.1,556.4L855.1,556.4z"/>
	</g>
</g>
<g class="st4">
	<rect x="215" y="686.2" transform="matrix(0.9877 -0.1564 0.1564 0.9877 -105.4169 43.3571)" width="15.5" height="10.3"/>
	<polygon points="308.8,685.1 316.9,683.8 320.5,683.2 328.5,682 332.2,681.4 340.2,680.1 343.8,679.5 355.5,677.7 353.9,667.5 
		342.2,669.4 338.6,669.9 330.5,671.2 326.9,671.8 318.9,673 315.3,673.6 307.2,674.9 303.6,675.5 291.9,677.3 293.6,687.5 
		305.2,685.7 	"/>
	<polygon points="417,667.9 428.7,666.1 427.1,655.9 415.4,657.8 411.8,658.3 403.8,659.6 400.2,660.2 392.1,661.5 388.5,662 
		376.8,663.9 378.4,674.1 390.1,672.2 393.7,671.6 401.8,670.4 405.4,669.8 413.4,668.5 	"/>
	<polygon points="511.8,653.2 519.9,651.9 523.5,651.3 531.5,650.1 535.1,649.5 546.8,647.6 545.2,637.5 533.5,639.3 529.9,639.9 
		521.9,641.1 518.2,641.7 510.2,643 506.6,643.6 494.9,645.4 496.5,655.6 508.2,653.7 	"/>
	<polygon points="620,636 618.4,625.9 606.7,627.7 603.1,628.3 595.1,629.5 591.5,630.1 583.4,631.4 579.8,632 568.1,633.8 
		569.7,644 581.4,642.2 585,641.6 593.1,640.3 596.7,639.7 604.7,638.5 608.4,637.9 	"/>
	<polygon points="237.2,778.8 245.3,777.5 248.9,776.9 256.9,775.6 260.5,775.1 268.6,773.8 272.2,773.2 280.2,771.9 283.9,771.4 
		291.9,770.1 295.5,769.5 307.2,767.7 305.6,757.5 293.9,759.3 290.3,759.9 282.2,761.2 278.6,761.8 270.6,763 267,763.6 
		258.9,764.9 255.3,765.5 247.3,766.7 243.6,767.3 235.6,768.6 232,769.1 220.3,771 221.9,781.2 233.6,779.3 	"/>
	<polygon points="398.5,742.8 390.5,744 386.8,744.6 378.8,745.9 375.2,746.5 367.1,747.7 363.5,748.3 355.5,749.6 351.8,750.2 
		343.8,751.4 340.2,752 328.5,753.9 330.1,764 341.8,762.2 345.4,761.6 353.5,760.3 357.1,759.8 365.1,758.5 368.7,757.9 
		376.8,756.7 380.4,756.1 388.4,754.8 392.1,754.2 400.1,753 403.7,752.4 415.4,750.5 413.8,740.4 402.1,742.2 	"/>
	<polygon points="579.3,714.1 571.2,715.4 567.6,716 559.6,717.3 556,717.8 547.9,719.1 544.3,719.7 536.3,721 532.6,721.5 
		524.6,722.8 521,723.4 509.3,725.2 510.9,735.4 522.6,733.6 526.2,733 534.2,731.7 537.9,731.1 545.9,729.9 549.5,729.3 557.6,728 
		561.2,727.4 569.2,726.2 572.9,725.6 580.9,724.3 584.5,723.8 596.2,721.9 594.6,711.7 582.9,713.6 	"/>
	<polygon points="629.2,706.2 617.5,708.1 619.1,718.3 630.8,716.4 634.4,715.9 646.1,714 644.5,703.8 632.8,705.7 	"/>
	<polygon points="737.4,689.1 729.3,690.4 725.7,690.9 717.7,692.2 714.1,692.8 706,694.1 702.4,694.6 694.4,695.9 690.7,696.5 
		682.7,697.8 679.1,698.3 667.4,700.2 669,710.4 680.7,708.5 684.3,707.9 692.4,706.7 696,706.1 704,704.8 707.6,704.3 715.7,703 
		719.3,702.4 727.3,701.1 731,700.6 739,699.3 742.6,698.7 754.3,696.9 752.7,686.7 741,688.5 	"/>
	<polygon points="738.5,607.1 730.4,608.4 726.8,608.9 718.8,610.2 715.1,610.8 703.5,612.6 705.1,622.8 716.8,621 720.4,620.4 
		728.4,619.1 732,618.5 740.1,617.3 743.7,616.7 755.4,614.8 753.7,604.7 742.1,606.5 	"/>
	<polygon points="792,598.6 788.4,599.2 776.7,601 778.3,611.2 790,609.4 793.6,608.8 805.3,606.9 803.6,596.8 	"/>
</g>
<g class="st5">
	<path class="st6" d="M125.6,385.7c-0.3-2.2,0.9-4,3-4.3c2.1-0.3,3.7,1,4.1,3.2c0.3,2.1-0.8,4-3,4.3
		C127.6,389.2,125.9,387.8,125.6,385.7z"/>
	<path class="st6" d="M137.9,383.7c-0.3-2.2,0.9-4,3-4.3c2.1-0.3,3.7,1,4.1,3.2c0.3,2.1-0.8,4-3,4.3
		C139.9,387.3,138.2,385.9,137.9,383.7z"/>
	<path class="st6" d="M150.2,381.8c-0.3-2.2,0.9-4,3-4.3s3.7,1,4.1,3.2c0.3,2.1-0.8,4-3,4.3C152.2,385.3,150.5,383.9,150.2,381.8z"
		/>
	<path class="st6" d="M162.4,379.9c-0.3-2.2,0.9-4,3-4.3s3.7,1,4.1,3.2c0.3,2.1-0.8,4-3,4.3C164.5,383.4,162.8,382,162.4,379.9z"/>
	<path class="st6" d="M174.7,377.9c-0.3-2.2,0.9-4,3-4.3s3.7,1,4.1,3.2c0.3,2.1-0.8,4-3,4.3C176.7,381.4,175.1,380,174.7,377.9z"/>
	<path class="st6" d="M187,376c-0.3-2.2,0.9-4,3-4.3s3.7,1,4.1,3.2c0.3,2.1-0.8,4-3,4.3C189,379.5,187.4,378.1,187,376z"/>
	<path class="st6" d="M199.3,374c-0.3-2.2,0.9-4,3-4.3s3.7,1,4.1,3.2c0.3,2.1-0.8,4-3,4.3C201.3,377.5,199.6,376.2,199.3,374z"/>
	<path class="st6" d="M211.6,372.1c-0.3-2.2,0.9-4,3-4.3s3.7,1,4.1,3.2c0.3,2.1-0.8,4-3,4.3C213.6,375.6,211.9,374.2,211.6,372.1z"
		/>
	<path class="st6" d="M223.9,370.1c-0.3-2.2,0.9-4,3-4.3s3.7,1,4.1,3.2c0.3,2.1-0.8,4-3,4.3C225.9,373.6,224.2,372.3,223.9,370.1z"
		/>
	<path class="st6" d="M236.2,368.2c-0.3-2.2,0.9-4,3-4.3s3.7,1,4.1,3.2c0.3,2.1-0.8,4-3,4.3C238.2,371.7,236.5,370.3,236.2,368.2z"
		/>
	<path class="st6" d="M248.5,366.2c-0.3-2.2,0.9-4,3-4.3s3.7,1,4.1,3.2c0.3,2.1-0.8,4-3,4.3C250.5,369.7,248.8,368.4,248.5,366.2z"
		/>
	<path class="st6" d="M260.7,364.3c-0.3-2.2,0.9-4,3-4.3s3.7,1,4.1,3.2c0.3,2.1-0.8,4-3,4.3C262.8,367.8,261.1,366.4,260.7,364.3z"
		/>
	<path class="st6" d="M273,362.3c-0.3-2.2,0.9-4,3-4.3s3.7,1,4.1,3.2c0.3,2.1-0.8,4-3,4.3C275,365.9,273.4,364.5,273,362.3z"/>
	<path class="st6" d="M285.3,360.4c-0.3-2.2,0.9-4,3-4.3s3.7,1,4.1,3.2c0.3,2.1-0.8,4-3,4.3C287.3,363.9,285.7,362.5,285.3,360.4z"
		/>
	<path class="st6" d="M297.6,358.4c-0.3-2.2,0.9-4,3-4.3s3.7,1,4.1,3.2c0.3,2.1-0.8,4-3,4.3C299.6,362,297.9,360.6,297.6,358.4z"/>
	<path class="st6" d="M309.9,356.5c-0.3-2.2,0.9-4,3-4.3s3.7,1,4.1,3.2c0.3,2.1-0.8,4-3,4.3C311.9,360,310.2,358.6,309.9,356.5z"/>
	<path class="st6" d="M322.2,354.6c-0.3-2.2,0.9-4,3-4.3s3.7,1,4.1,3.2c0.3,2.1-0.8,4-3,4.3C324.2,358.1,322.5,356.7,322.2,354.6z"
		/>
	<path class="st6" d="M334.5,352.6c-0.3-2.2,0.9-4,3-4.3s3.7,1,4.1,3.2c0.3,2.1-0.8,4-3,4.3C336.5,356.1,334.8,354.7,334.5,352.6z"
		/>
	<path class="st6" d="M346.7,350.7c-0.3-2.2,0.9-4,3-4.3s3.7,1,4.1,3.2c0.3,2.1-0.8,4-3,4.3C348.8,354.2,347.1,352.8,346.7,350.7z"
		/>
	<path class="st6" d="M359,348.7c-0.3-2.2,0.9-4,3-4.3s3.7,1,4.1,3.2c0.3,2.1-0.8,4-3,4.3C361.1,352.2,359.4,350.9,359,348.7z"/>
	<path class="st6" d="M371.3,346.8c-0.3-2.2,0.9-4,3-4.3c2.1-0.3,3.7,1,4.1,3.2c0.3,2.1-0.8,4-3,4.3
		C373.3,350.3,371.7,348.9,371.3,346.8z"/>
	<path class="st6" d="M383.6,344.8c-0.3-2.2,0.9-4,3-4.3c2.1-0.3,3.7,1,4.1,3.2c0.3,2.1-0.8,4-3,4.3
		C385.6,348.3,383.9,347,383.6,344.8z"/>
	<path class="st6" d="M395.9,342.9c-0.3-2.2,0.9-4,3-4.3c2.1-0.3,3.7,1,4.1,3.2c0.3,2.1-0.8,4-3,4.3
		C397.9,346.4,396.2,345,395.9,342.9z"/>
	<path class="st6" d="M408.2,340.9c-0.3-2.2,0.9-4,3-4.3c2.1-0.3,3.7,1,4.1,3.2c0.3,2.1-0.8,4-3,4.3
		C410.2,344.4,408.5,343.1,408.2,340.9z"/>
	<path class="st6" d="M420.5,339c-0.3-2.2,0.9-4,3-4.3c2.1-0.3,3.7,1,4.1,3.2c0.3,2.1-0.8,4-3,4.3
		C422.5,342.5,420.8,341.1,420.5,339z"/>
	<path class="st6" d="M432.8,337c-0.3-2.2,0.9-4,3-4.3c2.1-0.3,3.7,1,4.1,3.2c0.3,2.1-0.8,4-3,4.3
		C434.8,340.6,433.1,339.2,432.8,337z"/>
	<path class="st6" d="M445,335.1c-0.3-2.2,0.9-4,3-4.3c2.1-0.3,3.7,1,4.1,3.2c0.3,2.1-0.8,4-3,4.3
		C447.1,338.6,445.4,337.2,445,335.1z"/>
	<path class="st6" d="M457.3,333.1c-0.3-2.2,0.9-4,3-4.3c2.1-0.3,3.7,1,4.1,3.2c0.3,2.1-0.8,4-3,4.3
		C459.3,336.7,457.7,335.3,457.3,333.1z"/>
	<path class="st6" d="M469.6,331.2c-0.3-2.2,0.9-4,3-4.3c2.1-0.3,3.7,1,4.1,3.2c0.3,2.1-0.8,4-3,4.3
		C471.6,334.7,470,333.3,469.6,331.2z"/>
	<path class="st6" d="M481.9,329.3c-0.3-2.2,0.9-4,3-4.3c2.1-0.3,3.7,1,4.1,3.2c0.3,2.1-0.8,4-3,4.3
		C483.9,332.8,482.2,331.4,481.9,329.3z"/>
	<path class="st6" d="M494.2,327.3c-0.3-2.2,0.9-4,3-4.3c2.1-0.3,3.7,1,4.1,3.2c0.3,2.1-0.8,4-3,4.3
		C496.2,330.8,494.5,329.4,494.2,327.3z"/>
	<path class="st6" d="M506.5,325.4c-0.3-2.2,0.9-4,3-4.3c2.1-0.3,3.7,1,4.1,3.2c0.3,2.1-0.8,4-3,4.3
		C508.5,328.9,506.8,327.5,506.5,325.4z"/>
	<path class="st6" d="M518.8,323.4c-0.3-2.2,0.9-4,3-4.3c2.1-0.3,3.7,1,4.1,3.2c0.3,2.1-0.8,4-3,4.3
		C520.8,326.9,519.1,325.6,518.8,323.4z"/>
	<path class="st6" d="M531.1,321.5c-0.3-2.2,0.9-4,3-4.3c2.1-0.3,3.7,1,4.1,3.2c0.3,2.1-0.8,4-3,4.3
		C533.1,325,531.4,323.6,531.1,321.5z"/>
	<path class="st6" d="M543.3,319.5c-0.3-2.2,0.9-4,3-4.3c2.1-0.3,3.7,1,4.1,3.2c0.3,2.1-0.8,4-3,4.3
		C545.4,323,543.7,321.7,543.3,319.5z"/>
	<path class="st6" d="M555.6,317.6c-0.3-2.2,0.9-4,3-4.3c2.1-0.3,3.7,1,4.1,3.2c0.3,2.1-0.8,4-3,4.3
		C557.6,321.1,556,319.7,555.6,317.6z"/>
	<path class="st6" d="M567.9,315.6c-0.3-2.2,0.9-4,3-4.3c2.1-0.3,3.7,1,4.1,3.2c0.3,2.1-0.8,4-3,4.3
		C569.9,319.1,568.2,317.8,567.9,315.6z"/>
	<path class="st6" d="M580.2,313.7c-0.3-2.2,0.9-4,3-4.3c2.1-0.3,3.7,1,4.1,3.2c0.3,2.1-0.8,4-3,4.3
		C582.2,317.2,580.5,315.8,580.2,313.7z"/>
	<path class="st6" d="M592.5,311.7c-0.3-2.2,0.9-4,3-4.3c2.1-0.3,3.7,1,4.1,3.2c0.3,2.1-0.8,4-3,4.3
		C594.5,315.3,592.8,313.9,592.5,311.7z"/>
	<path class="st6" d="M604.8,309.8c-0.3-2.2,0.9-4,3-4.3c2.1-0.3,3.7,1,4.1,3.2c0.3,2.1-0.8,4-3,4.3
		C606.8,313.3,605.1,311.9,604.8,309.8z"/>
	<path class="st6" d="M617.1,307.9c-0.3-2.2,0.9-4,3-4.3c2.1-0.3,3.7,1,4.1,3.2c0.3,2.1-0.8,4-3,4.3
		C619.1,311.4,617.4,310,617.1,307.9z"/>
	<path class="st6" d="M629.3,305.9c-0.3-2.2,0.9-4,3-4.3c2.1-0.3,3.7,1,4.1,3.2c0.3,2.1-0.8,4-3,4.3
		C631.4,309.4,629.7,308,629.3,305.9z"/>
	<path class="st6" d="M641.6,304c-0.3-2.2,0.9-4,3-4.3c2.1-0.3,3.7,1,4.1,3.2c0.3,2.1-0.8,4-3,4.3C643.7,307.5,642,306.1,641.6,304z
		"/>
	<path class="st6" d="M653.9,302c-0.3-2.2,0.9-4,3-4.3c2.1-0.3,3.7,1,4.1,3.2c0.3,2.1-0.8,4-3,4.3
		C655.9,305.5,654.3,304.1,653.9,302z"/>
	<path class="st6" d="M666.2,300.1c-0.3-2.2,0.9-4,3-4.3c2.1-0.3,3.7,1,4.1,3.2c0.3,2.1-0.8,4-3,4.3
		C668.2,303.6,666.5,302.2,666.2,300.1z"/>
	<path class="st6" d="M678.5,298.1c-0.3-2.2,0.9-4,3-4.3c2.1-0.3,3.7,1,4.1,3.2c0.3,2.1-0.8,4-3,4.3
		C680.5,301.6,678.8,300.3,678.5,298.1z"/>
	<path class="st6" d="M690.8,296.2c-0.3-2.2,0.9-4,3-4.3c2.1-0.3,3.7,1,4.1,3.2c0.3,2.1-0.8,4-3,4.3
		C692.8,299.7,691.1,298.3,690.8,296.2z"/>
	<path class="st6" d="M703.1,294.2c-0.3-2.2,0.9-4,3-4.3c2.1-0.3,3.7,1,4.1,3.2c0.3,2.1-0.8,4-3,4.3
		C705.1,297.7,703.4,296.4,703.1,294.2z"/>
	<path class="st6" d="M715.4,292.3c-0.3-2.2,0.9-4,3-4.3c2.1-0.3,3.7,1,4.1,3.2c0.3,2.1-0.8,4-3,4.3
		C717.4,295.8,715.7,294.4,715.4,292.3z"/>
	<path class="st6" d="M727.6,290.3c-0.3-2.2,0.9-4,3-4.3c2.1-0.3,3.7,1,4.1,3.2c0.3,2.1-0.8,4-3,4.3
		C729.7,293.9,728,292.5,727.6,290.3z"/>
	<path class="st6" d="M739.9,288.4c-0.3-2.2,0.9-4,3-4.3c2.1-0.3,3.7,1,4.1,3.2c0.3,2.1-0.8,4-3,4.3
		C741.9,291.9,740.3,290.5,739.9,288.4z"/>
	<path class="st6" d="M752.2,286.4c-0.3-2.2,0.9-4,3-4.3c2.1-0.3,3.7,1,4.1,3.2c0.3,2.1-0.8,4-3,4.3
		C754.2,290,752.6,288.6,752.2,286.4z"/>
	<path class="st6" d="M764.5,284.5c-0.3-2.2,0.9-4,3-4.3c2.1-0.3,3.7,1,4.1,3.2c0.3,2.1-0.8,4-3,4.3
		C766.5,288,764.8,286.6,764.5,284.5z"/>
	<path class="st6" d="M776.8,282.6c-0.3-2.2,0.9-4,3-4.3c2.1-0.3,3.7,1,4.1,3.2c0.3,2.1-0.8,4-3,4.3
		C778.8,286.1,777.1,284.7,776.8,282.6z"/>
	<path class="st6" d="M789.1,280.6c-0.3-2.2,0.9-4,3-4.3c2.1-0.3,3.7,1,4.1,3.2c0.3,2.1-0.8,4-3,4.3
		C791.1,284.1,789.4,282.7,789.1,280.6z"/>
	<path class="st6" d="M801.4,278.7c-0.3-2.2,0.9-4,3-4.3c2.1-0.3,3.7,1,4.1,3.2c0.3,2.1-0.8,4-3,4.3
		C803.4,282.2,801.7,280.8,801.4,278.7z"/>
	<path class="st6" d="M813.7,276.7c-0.3-2.2,0.9-4,3-4.3c2.1-0.3,3.7,1,4.1,3.2c0.3,2.1-0.8,4-3,4.3
		C815.7,280.2,814,278.9,813.7,276.7z"/>
	<path class="st6" d="M825.9,274.8c-0.3-2.2,0.9-4,3-4.3c2.1-0.3,3.7,1,4.1,3.2c0.3,2.1-0.8,4-3,4.3
		C828,278.3,826.3,276.9,825.9,274.8z"/>
</g>
</svg>
