<?xml version="1.0" encoding="utf-8"?>
<!-- Generator: Adobe Illustrator 25.0.1, SVG Export Plug-In . SVG Version: 6.00 Build 0)  -->
<svg version="1.1" id="libre-calc" xmlns="http://www.w3.org/2000/svg" xmlns:xlink="http://www.w3.org/1999/xlink" x="0px" y="0px"
	 viewBox="0 0 1024 1024" style="enable-background:new 0 0 1024 1024;" xml:space="preserve">
<style type="text/css">
	.st0{fill:#FFFFFF;}
	.st1{opacity:0.5;}
	.st2{fill:#43C330;}
	.st3{fill:url(#SVGID_1_);}
	.st4{fill:url(#SVGID_2_);}
	.st5{fill:url(#SVGID_3_);}
	.st6{fill:url(#SVGID_4_);}
	.st7{fill:url(#SVGID_5_);}
	.st8{fill:url(#SVGID_6_);}
	.st9{fill:url(#SVGID_7_);}
	.st10{fill:url(#SVGID_8_);}
	.st11{fill:url(#SVGID_9_);}
	.st12{fill:url(#SVGID_10_);}
	.st13{fill:url(#SVGID_11_);}
	.st14{fill:url(#SVGID_12_);}
</style>
<g>
	
		<rect x="119.8" y="119.8" transform="matrix(0.9877 -0.1564 0.1564 0.9877 -73.7758 86.377)" class="st0" width="784.4" height="784.4"/>
	
		<rect x="149.6" y="150" transform="matrix(0.9877 -0.1564 0.1564 0.9877 -73.8527 86.3989)" class="st0" width="725" height="725"/>
</g>
<g class="st1">
	<path class="st2" d="M793.1,240.1L160.6,340.3c-3.7,0.6-7.1-1.9-7.7-5.6l0,0c-0.6-3.7,1.9-7.1,5.6-7.7L791,226.9
		c3.7-0.6,7.1,1.9,7.7,5.6l0,0C799.3,236.1,796.8,239.6,793.1,240.1z"/>
	<path class="st2" d="M781.2,164.5L148.6,264.7c-3.7,0.6-7.1-1.9-7.7-5.6l0,0c-0.6-3.7,1.9-7.1,5.6-7.7l632.6-100.2
		c3.7-0.6,7.1,1.9,7.7,5.6l0,0C787.3,160.5,784.8,164,781.2,164.5z"/>
	<path class="st2" d="M805.1,315.7L172.6,415.9c-3.7,0.6-7.1-1.9-7.7-5.6l0,0c-0.6-3.7,1.9-7.1,5.6-7.7L803,302.5
		c3.7-0.6,7.1,1.9,7.7,5.6l0,0C811.3,311.7,808.8,315.2,805.1,315.7z"/>
	<path class="st2" d="M817.1,391.4L184.5,491.5c-3.7,0.6-7.1-1.9-7.7-5.6l0,0c-0.6-3.7,1.9-7.1,5.6-7.7L815,378.1
		c3.7-0.6,7.1,1.9,7.7,5.6l0,0C823.3,387.3,820.8,390.8,817.1,391.4z"/>
	<path class="st2" d="M829.1,467L196.5,567.1c-3.7,0.6-7.1-1.9-7.7-5.6l0,0c-0.6-3.7,1.9-7.1,5.6-7.7L827,453.7
		c3.7-0.6,7.1,1.9,7.7,5.6l0,0C835.2,462.9,832.7,466.4,829.1,467z"/>
	<path class="st2" d="M841,542.6L208.5,642.7c-3.7,0.6-7.1-1.9-7.7-5.6l0,0c-0.6-3.7,1.9-7.1,5.6-7.7L839,529.2
		c3.7-0.6,7.1,1.9,7.7,5.6l0,0C847.2,538.5,844.7,542,841,542.6z"/>
	<path class="st2" d="M853,618.2L220.4,718.4c-3.7,0.6-7.1-1.9-7.7-5.6l0,0c-0.6-3.7,1.9-7.1,5.6-7.7l632.6-100.2
		c3.7-0.6,7.1,1.9,7.7,5.6l0,0C859.2,614.1,856.7,617.6,853,618.2z"/>
	<path class="st2" d="M865,693.8L232.4,794c-3.7,0.6-7.1-1.9-7.7-5.6l0,0c-0.6-3.7,1.9-7.1,5.6-7.7l632.6-100.2
		c3.7-0.6,7.1,1.9,7.7,5.6l0,0C871.2,689.7,868.7,693.2,865,693.8z"/>
	<path class="st2" d="M877,769.4L244.4,869.6c-3.7,0.6-7.1-1.9-7.7-5.6l0,0c-0.6-3.7,1.9-7.1,5.6-7.7l632.6-100.2
		c3.7-0.6,7.1,1.9,7.7,5.6l0,0C883.1,765.3,880.6,768.8,877,769.4z"/>
	<path class="st2" d="M782.4,793.9L682.2,161.4c-0.6-3.7,1.9-7.1,5.6-7.7l0,0c3.7-0.6,7.1,1.9,7.7,5.6l100.2,632.6
		c0.6,3.7-1.9,7.1-5.6,7.7l0,0C786.4,800.1,782.9,797.6,782.4,793.9z"/>
	<path class="st2" d="M858,782L757.8,149.4c-0.6-3.7,1.9-7.1,5.6-7.7l0,0c3.7-0.6,7.1,1.9,7.7,5.6l100.2,632.6
		c0.6,3.7-1.9,7.1-5.6,7.7l0,0C862,788.1,858.5,785.6,858,782z"/>
	<path class="st2" d="M706.7,805.9L606.6,173.3c-0.6-3.7,1.9-7.1,5.6-7.7l0,0c3.7-0.6,7.1,1.9,7.7,5.6L720,803.8
		c0.6,3.7-1.9,7.1-5.6,7.7l0,0C710.8,812.1,707.3,809.6,706.7,805.9z"/>
	<path class="st2" d="M631.1,817.9L531,185.3c-0.6-3.7,1.9-7.1,5.6-7.7l0,0c3.7-0.6,7.1,1.9,7.7,5.6l100.2,632.6
		c0.6,3.7-1.9,7.1-5.6,7.7l0,0C635.2,824.1,631.7,821.6,631.1,817.9z"/>
	<path class="st2" d="M555.5,829.9L455.3,197.3c-0.6-3.7,1.9-7.1,5.6-7.7l0,0c3.7-0.6,7.1,1.9,7.7,5.6l100.2,632.6
		c0.6,3.7-1.9,7.1-5.6,7.7l0,0C559.6,836,556.1,833.5,555.5,829.9z"/>
	<path class="st2" d="M479.9,841.8L379.7,209.3c-0.6-3.7,1.9-7.1,5.6-7.7l0,0c3.7-0.6,7.1,1.9,7.7,5.6l100.2,632.6
		c0.6,3.7-1.9,7.1-5.6,7.7l0,0C484,848,480.5,845.5,479.9,841.8z"/>
	<path class="st2" d="M404.3,853.8L304.1,221.2c-0.6-3.7,1.9-7.1,5.6-7.7l0,0c3.7-0.6,7.1,1.9,7.7,5.6l100.2,632.6
		c0.6,3.7-1.9,7.1-5.6,7.7l0,0C408.4,860,404.9,857.5,404.3,853.8z"/>
	<path class="st2" d="M328.7,865.8L228.5,233.2c-0.6-3.7,1.9-7.1,5.6-7.7l0,0c3.7-0.6,7.1,1.9,7.7,5.6L342,863.7
		c0.6,3.7-1.9,7.1-5.6,7.7l0,0C332.8,872,329.3,869.5,328.7,865.8z"/>
	<path class="st2" d="M253.1,877.8L152.9,245.2c-0.6-3.7,1.9-7.1,5.6-7.7l0,0c3.7-0.6,7.1,1.9,7.7,5.6l100.2,632.6
		c0.6,3.7-1.9,7.1-5.6,7.7l0,0C257.1,883.9,253.7,881.4,253.1,877.8z"/>
</g>
<linearGradient id="SVGID_1_" gradientUnits="userSpaceOnUse" x1="387.4704" y1="451.8447" x2="387.4704" y2="176.6043" gradientTransform="matrix(0.9877 -0.1564 -0.1564 -0.9877 85.3965 1029.5339)">
	<stop  offset="2.002967e-02" style="stop-color:#51E784"/>
	<stop  offset="0.9918" style="stop-color:#01BB22"/>
</linearGradient>
<polygon class="st3" points="476.3,819.2 414.1,829.1 361.7,498.5 423.9,488.7 "/>
<linearGradient id="SVGID_2_" gradientUnits="userSpaceOnUse" x1="463.9838" y1="584.3073" x2="463.9838" y2="184.6967" gradientTransform="matrix(0.9877 -0.1564 -0.1564 -0.9877 85.3965 1029.5339)">
	<stop  offset="0" style="stop-color:#F35865"/>
	<stop  offset="1" style="stop-color:#E12C41"/>
</linearGradient>
<polygon class="st4" points="551.9,807.2 489.6,817.1 412.5,330.3 474.8,320.5 "/>
<linearGradient id="SVGID_3_" gradientUnits="userSpaceOnUse" x1="540.4316" y1="336.9014" x2="540.4316" y2="165.4535" gradientTransform="matrix(0.9877 -0.1564 -0.1564 -0.9877 85.3965 1029.5339)">
	<stop  offset="0" style="stop-color:#FFB536"/>
	<stop  offset="1" style="stop-color:#F06913"/>
</linearGradient>
<polygon class="st5" points="627.3,795.3 565.2,805.1 532.8,600.8 595,591 "/>
<linearGradient id="SVGID_4_" gradientUnits="userSpaceOnUse" x1="617.0682" y1="425.8808" x2="617.0682" y2="174.0502" gradientTransform="matrix(0.9877 -0.1564 -0.1564 -0.9877 85.3965 1029.5339)">
	<stop  offset="2.002967e-02" style="stop-color:#51E784"/>
	<stop  offset="0.9918" style="stop-color:#01BB22"/>
</linearGradient>
<polygon class="st6" points="703.1,783.3 640.8,793.2 592.9,490.7 655.2,480.9 "/>
<g>
	
		<linearGradient id="SVGID_5_" gradientUnits="userSpaceOnUse" x1="387.4704" y1="469.2853" x2="387.4704" y2="163.0064" gradientTransform="matrix(0.9877 -0.1564 -0.1564 -0.9877 85.3965 1029.5339)">
		<stop  offset="0" style="stop-color:#52CDFB"/>
		<stop  offset="1" style="stop-color:#017CF5"/>
	</linearGradient>
	<polygon class="st7" points="476.3,819.2 414.1,829.1 361.7,498.5 423.9,488.7 	"/>
	
		<linearGradient id="SVGID_6_" gradientUnits="userSpaceOnUse" x1="463.9838" y1="584.3073" x2="463.9838" y2="184.6967" gradientTransform="matrix(0.9877 -0.1564 -0.1564 -0.9877 85.3965 1029.5339)">
		<stop  offset="0" style="stop-color:#F35865"/>
		<stop  offset="1" style="stop-color:#E12C41"/>
	</linearGradient>
	<polygon class="st8" points="551.9,807.2 489.6,817.1 412.5,330.3 474.8,320.5 	"/>
	
		<linearGradient id="SVGID_7_" gradientUnits="userSpaceOnUse" x1="540.4316" y1="336.9014" x2="540.4316" y2="165.4535" gradientTransform="matrix(0.9877 -0.1564 -0.1564 -0.9877 85.3965 1029.5339)">
		<stop  offset="0" style="stop-color:#FFB536"/>
		<stop  offset="1" style="stop-color:#F06913"/>
	</linearGradient>
	<polygon class="st9" points="627.3,795.3 565.2,805.1 532.8,600.8 595,591 	"/>
	
		<linearGradient id="SVGID_8_" gradientUnits="userSpaceOnUse" x1="617.0682" y1="425.8808" x2="617.0682" y2="174.0502" gradientTransform="matrix(0.9877 -0.1564 -0.1564 -0.9877 85.3965 1029.5339)">
		<stop  offset="2.002967e-02" style="stop-color:#51E784"/>
		<stop  offset="0.9918" style="stop-color:#01BB22"/>
	</linearGradient>
	<polygon class="st10" points="703.1,783.3 640.8,793.2 592.9,490.7 655.2,480.9 	"/>
</g>
<g>
	
		<linearGradient id="SVGID_9_" gradientUnits="userSpaceOnUse" x1="357.3945" y1="313.9201" x2="417.8148" y2="313.9201" gradientTransform="matrix(0.9877 -0.1564 -0.1564 -0.9877 85.3965 1029.5339)">
		<stop  offset="0.1025" style="stop-color:#000000;stop-opacity:5.000000e-02"/>
		<stop  offset="0.4939" style="stop-color:#2AA5F8;stop-opacity:0"/>
		<stop  offset="0.9083" style="stop-color:#000000;stop-opacity:5.000000e-02"/>
	</linearGradient>
	<polygon class="st11" points="476.3,819.2 414.1,829.1 361.7,498.5 423.9,488.7 	"/>
	
		<linearGradient id="SVGID_10_" gradientUnits="userSpaceOnUse" x1="439.0065" y1="393.0342" x2="493.7993" y2="393.0342" gradientTransform="matrix(0.9877 -0.1564 -0.1564 -0.9877 85.3965 1029.5339)">
		<stop  offset="0.1025" style="stop-color:#000000;stop-opacity:5.000000e-02"/>
		<stop  offset="0.4939" style="stop-color:#2AA5F8;stop-opacity:0"/>
		<stop  offset="0.9083" style="stop-color:#000000;stop-opacity:5.000000e-02"/>
	</linearGradient>
	<polygon class="st12" points="551.9,807.2 489.6,817.1 412.5,330.3 474.8,320.5 	"/>
	
		<linearGradient id="SVGID_11_" gradientUnits="userSpaceOnUse" x1="510.9221" y1="250.0399" x2="572.5665" y2="250.0399" gradientTransform="matrix(0.9877 -0.1564 -0.1564 -0.9877 85.3965 1029.5339)">
		<stop  offset="0.1025" style="stop-color:#000000;stop-opacity:5.000000e-02"/>
		<stop  offset="0.4939" style="stop-color:#2AA5F8;stop-opacity:0"/>
		<stop  offset="0.9083" style="stop-color:#000000;stop-opacity:5.000000e-02"/>
	</linearGradient>
	<polygon class="st13" points="627.3,795.3 565.2,805.1 532.8,600.8 595,591 	"/>
	
		<linearGradient id="SVGID_12_" gradientUnits="userSpaceOnUse" x1="588.7471" y1="299.6937" x2="642.3254" y2="299.6937" gradientTransform="matrix(0.9877 -0.1564 -0.1564 -0.9877 85.3965 1029.5339)">
		<stop  offset="0.1025" style="stop-color:#000000;stop-opacity:5.000000e-02"/>
		<stop  offset="0.4939" style="stop-color:#2AA5F8;stop-opacity:0"/>
		<stop  offset="0.9083" style="stop-color:#000000;stop-opacity:5.000000e-02"/>
	</linearGradient>
	<polygon class="st14" points="703.1,783.3 640.8,793.2 592.9,490.7 655.2,480.9 	"/>
</g>
</svg>
