<?xml version="1.0" encoding="utf-8"?>
<!-- Generator: Adobe Illustrator 25.0.1, SVG Export Plug-In . SVG Version: 6.00 Build 0)  -->
<svg version="1.1" id="libre-draw" xmlns="http://www.w3.org/2000/svg" xmlns:xlink="http://www.w3.org/1999/xlink" x="0px" y="0px"
	 viewBox="0 0 1024 1024" style="enable-background:new 0 0 1024 1024;" xml:space="preserve">
<style type="text/css">
	.st0{fill:#FFFFFF;}
	.st1{opacity:0.5;fill:#E9B913;}
	.st2{fill:url(#SVGID_1_);stroke:#D36118;stroke-width:10;stroke-miterlimit:10;}
	.st3{fill:#AADCF7;stroke:#1C99E0;stroke-width:10;stroke-miterlimit:10;}
	.st4{fill:#FDE9A9;stroke:#E9B913;stroke-width:10;stroke-miterlimit:10;}
</style>
<g>
	
		<rect x="119.8" y="119.8" transform="matrix(0.9877 -0.1564 0.1564 0.9877 -73.7793 86.3757)" class="st0" width="784.4" height="784.4"/>
	
		<rect x="149.6" y="150" transform="matrix(0.9877 -0.1564 0.1564 0.9877 -73.8558 86.3973)" class="st0" width="725" height="725"/>
</g>
<g>
	<path class="st1" d="M791.2,175.7l-7.8,1.2l-1.1-6.9l7.8-1.2L791.2,175.7z M774.6,178.3l-8.9,1.4l-1.1-6.9l8.9-1.4L774.6,178.3z
		 M756.8,181.1l-8.9,1.4l-1.1-6.9l8.9-1.4L756.8,181.1z M739,183.9l-8.9,1.4l-1.1-6.9l8.9-1.4L739,183.9z M721.3,186.8l-8.9,1.4
		l-1.1-6.9l8.9-1.4L721.3,186.8z M703.5,189.6l-8.9,1.4l-1.1-6.9l8.9-1.4L703.5,189.6z M685.7,192.4l-8.9,1.4l-1.1-6.9l8.9-1.4
		L685.7,192.4z M667.9,195.2l-8.9,1.4l-1.1-6.9l8.9-1.4L667.9,195.2z M650.2,198l-8.9,1.4l-1.1-6.9l8.9-1.4L650.2,198z M632.4,200.8
		l-8.9,1.4l-1.1-6.9l8.9-1.4L632.4,200.8z M614.6,203.6l-8.9,1.4l-1.1-6.9l8.9-1.4L614.6,203.6z M596.8,206.5l-8.9,1.4l-1.1-6.9
		l8.9-1.4L596.8,206.5z M579,209.3l-8.9,1.4l-1.1-6.9l8.9-1.4L579,209.3z M561.3,212.1l-8.9,1.4l-1.1-6.9l8.9-1.4L561.3,212.1z
		 M543.5,214.9l-8.9,1.4l-1.1-6.9l8.9-1.4L543.5,214.9z M525.7,217.7l-8.9,1.4l-1.1-6.9l8.9-1.4L525.7,217.7z M507.9,220.5L499,222
		l-1.1-6.9l8.9-1.4L507.9,220.5z M490.1,223.4l-8.9,1.4l-1.1-6.9l8.9-1.4L490.1,223.4z M472.4,226.2l-8.9,1.4l-1.1-6.9l8.9-1.4
		L472.4,226.2z M454.6,229l-8.9,1.4l-1.1-6.9l8.9-1.4L454.6,229z M436.8,231.8l-8.9,1.4l-1.1-6.9l8.9-1.4L436.8,231.8z M419,234.6
		l-8.9,1.4l-1.1-6.9l8.9-1.4L419,234.6z M401.3,237.4l-8.9,1.4l-1.1-6.9l8.9-1.4L401.3,237.4z M383.5,240.3l-8.9,1.4l-1.1-6.9
		l8.9-1.4L383.5,240.3z M365.7,243.1l-8.9,1.4l-1.1-6.9l8.9-1.4L365.7,243.1z M347.9,245.9l-8.9,1.4l-1.1-6.9l8.9-1.4L347.9,245.9z
		 M330.1,248.7l-8.9,1.4l-1.1-6.9l8.9-1.4L330.1,248.7z M312.4,251.5l-8.9,1.4l-1.1-6.9l8.9-1.4L312.4,251.5z M294.6,254.3l-8.9,1.4
		l-1.1-6.9l8.9-1.4L294.6,254.3z M276.8,257.1l-8.9,1.4l-1.1-6.9l8.9-1.4L276.8,257.1z M259,260l-8.9,1.4l-1.1-6.9l8.9-1.4L259,260z
		 M241.2,262.8l-8.9,1.4l-1.1-6.9l8.9-1.4L241.2,262.8z M223.5,265.6l-8.9,1.4l-1.1-6.9l8.9-1.4L223.5,265.6z M205.7,268.4l-8.9,1.4
		l-1.1-6.9l8.9-1.4L205.7,268.4z M187.9,271.2l-8.9,1.4l-1.1-6.9l8.9-1.4L187.9,271.2z M170.1,274l-8.9,1.4l-1.1-6.9l8.9-1.4
		L170.1,274z M152.4,276.9l-8.9,1.4l-1.1-6.9l8.9-1.4L152.4,276.9z"/>
	<path class="st1" d="M788.7,159.8L781,161l-1.1-6.9l7.8-1.2L788.7,159.8z M772.1,162.4l-8.9,1.4l-1.1-6.9l8.9-1.4L772.1,162.4z
		 M754.3,165.2l-8.9,1.4l-1.1-6.9l8.9-1.4L754.3,165.2z M736.5,168l-8.9,1.4l-1.1-6.9l8.9-1.4L736.5,168z M718.7,170.9l-8.9,1.4
		l-1.1-6.9l8.9-1.4L718.7,170.9z M701,173.7l-8.9,1.4l-1.1-6.9l8.9-1.4L701,173.7z M683.2,176.5l-8.9,1.4l-1.1-6.9l8.9-1.4
		L683.2,176.5z M665.4,179.3l-8.9,1.4l-1.1-6.9l8.9-1.4L665.4,179.3z M647.6,182.1l-8.9,1.4l-1.1-6.9l8.9-1.4L647.6,182.1z
		 M629.9,184.9l-8.9,1.4l-1.1-6.9l8.9-1.4L629.9,184.9z M612.1,187.8l-8.9,1.4l-1.1-6.9l8.9-1.4L612.1,187.8z M594.3,190.6l-8.9,1.4
		l-1.1-6.9l8.9-1.4L594.3,190.6z M576.5,193.4l-8.9,1.4l-1.1-6.9l8.9-1.4L576.5,193.4z M558.7,196.2l-8.9,1.4l-1.1-6.9l8.9-1.4
		L558.7,196.2z M541,199l-8.9,1.4l-1.1-6.9l8.9-1.4L541,199z M523.2,201.8l-8.9,1.4l-1.1-6.9l8.9-1.4L523.2,201.8z M505.4,204.7
		l-8.9,1.4l-1.1-6.9l8.9-1.4L505.4,204.7z M487.6,207.5l-8.9,1.4l-1.1-6.9l8.9-1.4L487.6,207.5z M469.8,210.3l-8.9,1.4l-1.1-6.9
		l8.9-1.4L469.8,210.3z M452.1,213.1l-8.9,1.4l-1.1-6.9l8.9-1.4L452.1,213.1z M434.3,215.9l-8.9,1.4l-1.1-6.9l8.9-1.4L434.3,215.9z
		 M416.5,218.7l-8.9,1.4l-1.1-6.9l8.9-1.4L416.5,218.7z M398.7,221.5l-8.9,1.4l-1.1-6.9l8.9-1.4L398.7,221.5z M381,224.4l-8.9,1.4
		l-1.1-6.9l8.9-1.4L381,224.4z M363.2,227.2l-8.9,1.4l-1.1-6.9l8.9-1.4L363.2,227.2z M345.4,230l-8.9,1.4l-1.1-6.9l8.9-1.4
		L345.4,230z M327.6,232.8l-8.9,1.4l-1.1-6.9l8.9-1.4L327.6,232.8z M309.8,235.6L301,237l-1.1-6.9l8.9-1.4L309.8,235.6z
		 M292.1,238.4l-8.9,1.4l-1.1-6.9l8.9-1.4L292.1,238.4z M274.3,241.3l-8.9,1.4l-1.1-6.9l8.9-1.4L274.3,241.3z M256.5,244.1l-8.9,1.4
		l-1.1-6.9l8.9-1.4L256.5,244.1z M238.7,246.9l-8.9,1.4l-1.1-6.9l8.9-1.4L238.7,246.9z M221,249.7l-8.9,1.4l-1.1-6.9l8.9-1.4
		L221,249.7z M203.2,252.5l-8.9,1.4l-1.1-6.9l8.9-1.4L203.2,252.5z M185.4,255.3l-8.9,1.4l-1.1-6.9l8.9-1.4L185.4,255.3z
		 M167.6,258.2l-8.9,1.4l-1.1-6.9l8.9-1.4L167.6,258.2z M149.8,261l-8.9,1.4l-1.1-6.9l8.9-1.4L149.8,261z"/>
	<path class="st1" d="M796.3,207.5l-7.8,1.2l-1.1-6.9l7.8-1.2L796.3,207.5z M779.6,210.1l-8.9,1.4l-1.1-6.9l8.9-1.4L779.6,210.1z
		 M761.9,212.9l-8.9,1.4l-1.1-6.9l8.9-1.4L761.9,212.9z M744.1,215.7l-8.9,1.4l-1.1-6.9l8.9-1.4L744.1,215.7z M726.3,218.5l-8.9,1.4
		l-1.1-6.9l8.9-1.4L726.3,218.5z M708.5,221.4l-8.9,1.4l-1.1-6.9l8.9-1.4L708.5,221.4z M690.7,224.2l-8.9,1.4l-1.1-6.9l8.9-1.4
		L690.7,224.2z M673,227l-8.9,1.4l-1.1-6.9l8.9-1.4L673,227z M655.2,229.8l-8.9,1.4l-1.1-6.9l8.9-1.4L655.2,229.8z M637.4,232.6
		l-8.9,1.4l-1.1-6.9l8.9-1.4L637.4,232.6z M619.6,235.4l-8.9,1.4l-1.1-6.9l8.9-1.4L619.6,235.4z M601.9,238.3l-8.9,1.4l-1.1-6.9
		l8.9-1.4L601.9,238.3z M584.1,241.1l-8.9,1.4l-1.1-6.9l8.9-1.4L584.1,241.1z M566.3,243.9l-8.9,1.4l-1.1-6.9l8.9-1.4L566.3,243.9z
		 M548.5,246.7l-8.9,1.4l-1.1-6.9l8.9-1.4L548.5,246.7z M530.7,249.5l-8.9,1.4l-1.1-6.9l8.9-1.4L530.7,249.5z M513,252.3l-8.9,1.4
		l-1.1-6.9l8.9-1.4L513,252.3z M495.2,255.1l-8.9,1.4l-1.1-6.9l8.9-1.4L495.2,255.1z M477.4,258l-8.9,1.4l-1.1-6.9l8.9-1.4
		L477.4,258z M459.6,260.8l-8.9,1.4l-1.1-6.9l8.9-1.4L459.6,260.8z M441.8,263.6L433,265l-1.1-6.9l8.9-1.4L441.8,263.6z
		 M424.1,266.4l-8.9,1.4l-1.1-6.9l8.9-1.4L424.1,266.4z M406.3,269.2l-8.9,1.4l-1.1-6.9l8.9-1.4L406.3,269.2z M388.5,272l-8.9,1.4
		l-1.1-6.9l8.9-1.4L388.5,272z M370.7,274.9l-8.9,1.4l-1.1-6.9l8.9-1.4L370.7,274.9z M353,277.7l-8.9,1.4l-1.1-6.9l8.9-1.4
		L353,277.7z M335.2,280.5l-8.9,1.4l-1.1-6.9l8.9-1.4L335.2,280.5z M317.4,283.3l-8.9,1.4l-1.1-6.9l8.9-1.4L317.4,283.3z
		 M299.6,286.1l-8.9,1.4l-1.1-6.9l8.9-1.4L299.6,286.1z M281.8,288.9l-8.9,1.4l-1.1-6.9l8.9-1.4L281.8,288.9z M264.1,291.8l-8.9,1.4
		l-1.1-6.9l8.9-1.4L264.1,291.8z M246.3,294.6l-8.9,1.4l-1.1-6.9l8.9-1.4L246.3,294.6z M228.5,297.4l-8.9,1.4l-1.1-6.9l8.9-1.4
		L228.5,297.4z M210.7,300.2l-8.9,1.4l-1.1-6.9l8.9-1.4L210.7,300.2z M192.9,303l-8.9,1.4l-1.1-6.9l8.9-1.4L192.9,303z M175.2,305.8
		l-8.9,1.4l-1.1-6.9l8.9-1.4L175.2,305.8z M157.4,308.6l-8.9,1.4l-1.1-6.9l8.9-1.4L157.4,308.6z"/>
	<path class="st1" d="M793.8,191.6l-7.8,1.2l-1.1-6.9l7.8-1.2L793.8,191.6z M777.1,194.2l-8.9,1.4l-1.1-6.9l8.9-1.4L777.1,194.2z
		 M759.3,197l-8.9,1.4l-1.1-6.9l8.9-1.4L759.3,197z M741.6,199.8l-8.9,1.4l-1.1-6.9l8.9-1.4L741.6,199.8z M723.8,202.6l-8.9,1.4
		l-1.1-6.9l8.9-1.4L723.8,202.6z M706,205.5l-8.9,1.4L696,200l8.9-1.4L706,205.5z M688.2,208.3l-8.9,1.4l-1.1-6.9l8.9-1.4
		L688.2,208.3z M670.4,211.1l-8.9,1.4l-1.1-6.9l8.9-1.4L670.4,211.1z M652.7,213.9l-8.9,1.4l-1.1-6.9l8.9-1.4L652.7,213.9z
		 M634.9,216.7l-8.9,1.4l-1.1-6.9l8.9-1.4L634.9,216.7z M617.1,219.5l-8.9,1.4l-1.1-6.9l8.9-1.4L617.1,219.5z M599.3,222.4l-8.9,1.4
		l-1.1-6.9l8.9-1.4L599.3,222.4z M581.6,225.2l-8.9,1.4l-1.1-6.9l8.9-1.4L581.6,225.2z M563.8,228l-8.9,1.4l-1.1-6.9l8.9-1.4
		L563.8,228z M546,230.8l-8.9,1.4l-1.1-6.9l8.9-1.4L546,230.8z M528.2,233.6l-8.9,1.4l-1.1-6.9l8.9-1.4L528.2,233.6z M510.4,236.4
		l-8.9,1.4l-1.1-6.9l8.9-1.4L510.4,236.4z M492.7,239.3l-8.9,1.4l-1.1-6.9l8.9-1.4L492.7,239.3z M474.9,242.1l-8.9,1.4l-1.1-6.9
		l8.9-1.4L474.9,242.1z M457.1,244.9l-8.9,1.4l-1.1-6.9l8.9-1.4L457.1,244.9z M439.3,247.7l-8.9,1.4l-1.1-6.9l8.9-1.4L439.3,247.7z
		 M421.5,250.5l-8.9,1.4l-1.1-6.9l8.9-1.4L421.5,250.5z M403.8,253.3l-8.9,1.4l-1.1-6.9l8.9-1.4L403.8,253.3z M386,256.1l-8.9,1.4
		l-1.1-6.9l8.9-1.4L386,256.1z M368.2,259l-8.9,1.4l-1.1-6.9l8.9-1.4L368.2,259z M350.4,261.8l-8.9,1.4l-1.1-6.9l8.9-1.4
		L350.4,261.8z M332.7,264.6l-8.9,1.4l-1.1-6.9l8.9-1.4L332.7,264.6z M314.9,267.4l-8.9,1.4l-1.1-6.9l8.9-1.4L314.9,267.4z
		 M297.1,270.2l-8.9,1.4l-1.1-6.9l8.9-1.4L297.1,270.2z M279.3,273l-8.9,1.4l-1.1-6.9l8.9-1.4L279.3,273z M261.5,275.9l-8.9,1.4
		l-1.1-6.9l8.9-1.4L261.5,275.9z M243.8,278.7l-8.9,1.4l-1.1-6.9l8.9-1.4L243.8,278.7z M226,281.5l-8.9,1.4L216,276l8.9-1.4
		L226,281.5z M208.2,284.3l-8.9,1.4l-1.1-6.9l8.9-1.4L208.2,284.3z M190.4,287.1l-8.9,1.4l-1.1-6.9l8.9-1.4L190.4,287.1z
		 M172.7,289.9l-8.9,1.4l-1.1-6.9l8.9-1.4L172.7,289.9z M154.9,292.8l-8.9,1.4l-1.1-6.9l8.9-1.4L154.9,292.8z"/>
	<path class="st1" d="M801.3,239.3l-7.8,1.2l-1.1-6.9l7.8-1.2L801.3,239.3z M784.7,241.9l-8.9,1.4l-1.1-6.9l8.9-1.4L784.7,241.9z
		 M766.9,244.8l-8.9,1.4l-1.1-6.9l8.9-1.4L766.9,244.8z M749.1,247.6l-8.9,1.4l-1.1-6.9l8.9-1.4L749.1,247.6z M731.3,250.4l-8.9,1.4
		l-1.1-6.9l8.9-1.4L731.3,250.4z M713.6,253.2l-8.9,1.4l-1.1-6.9l8.9-1.4L713.6,253.2z M695.8,256l-8.9,1.4l-1.1-6.9l8.9-1.4
		L695.8,256z M678,258.8l-8.9,1.4l-1.1-6.9l8.9-1.4L678,258.8z M660.2,261.7l-8.9,1.4l-1.1-6.9l8.9-1.4L660.2,261.7z M642.5,264.5
		l-8.9,1.4l-1.1-6.9l8.9-1.4L642.5,264.5z M624.7,267.3l-8.9,1.4l-1.1-6.9l8.9-1.4L624.7,267.3z M606.9,270.1l-8.9,1.4l-1.1-6.9
		l8.9-1.4L606.9,270.1z M589.1,272.9l-8.9,1.4l-1.1-6.9l8.9-1.4L589.1,272.9z M571.3,275.7l-8.9,1.4l-1.1-6.9l8.9-1.4L571.3,275.7z
		 M553.6,278.6l-8.9,1.4l-1.1-6.9l8.9-1.4L553.6,278.6z M535.8,281.4l-8.9,1.4l-1.1-6.9l8.9-1.4L535.8,281.4z M518,284.2l-8.9,1.4
		l-1.1-6.9l8.9-1.4L518,284.2z M500.2,287l-8.9,1.4l-1.1-6.9l8.9-1.4L500.2,287z M482.4,289.8l-8.9,1.4l-1.1-6.9l8.9-1.4
		L482.4,289.8z M464.7,292.6l-8.9,1.4l-1.1-6.9l8.9-1.4L464.7,292.6z M446.9,295.4l-8.9,1.4l-1.1-6.9l8.9-1.4L446.9,295.4z
		 M429.1,298.3l-8.9,1.4l-1.1-6.9l8.9-1.4L429.1,298.3z M411.3,301.1l-8.9,1.4l-1.1-6.9l8.9-1.4L411.3,301.1z M393.6,303.9l-8.9,1.4
		l-1.1-6.9l8.9-1.4L393.6,303.9z M375.8,306.7l-8.9,1.4l-1.1-6.9l8.9-1.4L375.8,306.7z M358,309.5l-8.9,1.4L348,304l8.9-1.4
		L358,309.5z M340.2,312.3l-8.9,1.4l-1.1-6.9l8.9-1.4L340.2,312.3z M322.4,315.2l-8.9,1.4l-1.1-6.9l8.9-1.4L322.4,315.2z M304.7,318
		l-8.9,1.4l-1.1-6.9l8.9-1.4L304.7,318z M286.9,320.8l-8.9,1.4l-1.1-6.9l8.9-1.4L286.9,320.8z M269.1,323.6l-8.9,1.4l-1.1-6.9
		l8.9-1.4L269.1,323.6z M251.3,326.4l-8.9,1.4l-1.1-6.9l8.9-1.4L251.3,326.4z M233.5,329.2l-8.9,1.4l-1.1-6.9l8.9-1.4L233.5,329.2z
		 M215.8,332.1l-8.9,1.4l-1.1-6.9l8.9-1.4L215.8,332.1z M198,334.9l-8.9,1.4l-1.1-6.9l8.9-1.4L198,334.9z M180.2,337.7l-8.9,1.4
		l-1.1-6.9l8.9-1.4L180.2,337.7z M162.4,340.5l-8.9,1.4l-1.1-6.9l8.9-1.4L162.4,340.5z"/>
	<path class="st1" d="M798.8,223.4l-7.8,1.2l-1.1-6.9l7.8-1.2L798.8,223.4z M782.2,226.1l-8.9,1.4l-1.1-6.9l8.9-1.4L782.2,226.1z
		 M764.4,228.9l-8.9,1.4l-1.1-6.9l8.9-1.4L764.4,228.9z M746.6,231.7l-8.9,1.4l-1.1-6.9l8.9-1.4L746.6,231.7z M728.8,234.5l-8.9,1.4
		l-1.1-6.9l8.9-1.4L728.8,234.5z M711,237.3l-8.9,1.4l-1.1-6.9l8.9-1.4L711,237.3z M693.3,240.1l-8.9,1.4l-1.1-6.9l8.9-1.4
		L693.3,240.1z M675.5,242.9l-8.9,1.4l-1.1-6.9l8.9-1.4L675.5,242.9z M657.7,245.8l-8.9,1.4l-1.1-6.9l8.9-1.4L657.7,245.8z
		 M639.9,248.6L631,250l-1.1-6.9l8.9-1.4L639.9,248.6z M622.2,251.4l-8.9,1.4l-1.1-6.9l8.9-1.4L622.2,251.4z M604.4,254.2l-8.9,1.4
		l-1.1-6.9l8.9-1.4L604.4,254.2z M586.6,257l-8.9,1.4l-1.1-6.9l8.9-1.4L586.6,257z M568.8,259.8l-8.9,1.4l-1.1-6.9l8.9-1.4
		L568.8,259.8z M551,262.7l-8.9,1.4l-1.1-6.9l8.9-1.4L551,262.7z M533.3,265.5l-8.9,1.4l-1.1-6.9l8.9-1.4L533.3,265.5z M515.5,268.3
		l-8.9,1.4l-1.1-6.9l8.9-1.4L515.5,268.3z M497.7,271.1l-8.9,1.4l-1.1-6.9l8.9-1.4L497.7,271.1z M479.9,273.9l-8.9,1.4l-1.1-6.9
		l8.9-1.4L479.9,273.9z M462.2,276.7l-8.9,1.4l-1.1-6.9l8.9-1.4L462.2,276.7z M444.4,279.6l-8.9,1.4l-1.1-6.9l8.9-1.4L444.4,279.6z
		 M426.6,282.4l-8.9,1.4l-1.1-6.9l8.9-1.4L426.6,282.4z M408.8,285.2l-8.9,1.4l-1.1-6.9l8.9-1.4L408.8,285.2z M391,288l-8.9,1.4
		l-1.1-6.9l8.9-1.4L391,288z M373.3,290.8l-8.9,1.4l-1.1-6.9l8.9-1.4L373.3,290.8z M355.5,293.6l-8.9,1.4l-1.1-6.9l8.9-1.4
		L355.5,293.6z M337.7,296.5l-8.9,1.4l-1.1-6.9l8.9-1.4L337.7,296.5z M319.9,299.3l-8.9,1.4l-1.1-6.9l8.9-1.4L319.9,299.3z
		 M302.1,302.1l-8.9,1.4l-1.1-6.9l8.9-1.4L302.1,302.1z M284.4,304.9l-8.9,1.4l-1.1-6.9l8.9-1.4L284.4,304.9z M266.6,307.7l-8.9,1.4
		l-1.1-6.9l8.9-1.4L266.6,307.7z M248.8,310.5l-8.9,1.4l-1.1-6.9l8.9-1.4L248.8,310.5z M231,313.3l-8.9,1.4l-1.1-6.9l8.9-1.4
		L231,313.3z M213.3,316.2l-8.9,1.4l-1.1-6.9l8.9-1.4L213.3,316.2z M195.5,319l-8.9,1.4l-1.1-6.9l8.9-1.4L195.5,319z M177.7,321.8
		l-8.9,1.4l-1.1-6.9l8.9-1.4L177.7,321.8z M159.9,324.6L151,326l-1.1-6.9l8.9-1.4L159.9,324.6z"/>
	<path class="st1" d="M806.4,271.1l-7.8,1.2l-1.1-6.9l7.8-1.2L806.4,271.1z M789.7,273.7l-8.9,1.4l-1.1-6.9l8.9-1.4L789.7,273.7z
		 M771.9,276.5L763,278L762,271l8.9-1.4L771.9,276.5z M754.2,279.4l-8.9,1.4l-1.1-6.9l8.9-1.4L754.2,279.4z M736.4,282.2l-8.9,1.4
		l-1.1-6.9l8.9-1.4L736.4,282.2z M718.6,285l-8.9,1.4l-1.1-6.9l8.9-1.4L718.6,285z M700.8,287.8l-8.9,1.4l-1.1-6.9l8.9-1.4
		L700.8,287.8z M683,290.6l-8.9,1.4l-1.1-6.9l8.9-1.4L683,290.6z M665.3,293.4l-8.9,1.4l-1.1-6.9l8.9-1.4L665.3,293.4z M647.5,296.3
		l-8.9,1.4l-1.1-6.9l8.9-1.4L647.5,296.3z M629.7,299.1l-8.9,1.4l-1.1-6.9l8.9-1.4L629.7,299.1z M611.9,301.9l-8.9,1.4l-1.1-6.9
		l8.9-1.4L611.9,301.9z M594.2,304.7l-8.9,1.4l-1.1-6.9l8.9-1.4L594.2,304.7z M576.4,307.5l-8.9,1.4l-1.1-6.9l8.9-1.4L576.4,307.5z
		 M558.6,310.3l-8.9,1.4l-1.1-6.9l8.9-1.4L558.6,310.3z M540.8,313.2l-8.9,1.4l-1.1-6.9l8.9-1.4L540.8,313.2z M523,316l-8.9,1.4
		l-1.1-6.9l8.9-1.4L523,316z M505.3,318.8l-8.9,1.4l-1.1-6.9l8.9-1.4L505.3,318.8z M487.5,321.6l-8.9,1.4l-1.1-6.9l8.9-1.4
		L487.5,321.6z M469.7,324.4l-8.9,1.4l-1.1-6.9l8.9-1.4L469.7,324.4z M451.9,327.2l-8.9,1.4l-1.1-6.9l8.9-1.4L451.9,327.2z
		 M434.1,330.1l-8.9,1.4l-1.1-6.9l8.9-1.4L434.1,330.1z M416.4,332.9l-8.9,1.4l-1.1-6.9l8.9-1.4L416.4,332.9z M398.6,335.7l-8.9,1.4
		l-1.1-6.9l8.9-1.4L398.6,335.7z M380.8,338.5l-8.9,1.4l-1.1-6.9l8.9-1.4L380.8,338.5z M363,341.3l-8.9,1.4l-1.1-6.9l8.9-1.4
		L363,341.3z M345.3,344.1l-8.9,1.4l-1.1-6.9l8.9-1.4L345.3,344.1z M327.5,346.9l-8.9,1.4l-1.1-6.9l8.9-1.4L327.5,346.9z
		 M309.7,349.8l-8.9,1.4l-1.1-6.9l8.9-1.4L309.7,349.8z M291.9,352.6L283,354l-1.1-6.9l8.9-1.4L291.9,352.6z M274.1,355.4l-8.9,1.4
		l-1.1-6.9l8.9-1.4L274.1,355.4z M256.4,358.2l-8.9,1.4l-1.1-6.9l8.9-1.4L256.4,358.2z M238.6,361l-8.9,1.4l-1.1-6.9l8.9-1.4
		L238.6,361z M220.8,363.8l-8.9,1.4l-1.1-6.9l8.9-1.4L220.8,363.8z M203,366.7l-8.9,1.4l-1.1-6.9l8.9-1.4L203,366.7z M185.2,369.5
		l-8.9,1.4l-1.1-6.9l8.9-1.4L185.2,369.5z M167.5,372.3l-8.9,1.4l-1.1-6.9l8.9-1.4L167.5,372.3z"/>
	<path class="st1" d="M803.8,255.2l-7.8,1.2l-1.1-6.9l7.8-1.2L803.8,255.2z M787.2,257.8l-8.9,1.4l-1.1-6.9l8.9-1.4L787.2,257.8z
		 M769.4,260.7l-8.9,1.4l-1.1-6.9l8.9-1.4L769.4,260.7z M751.6,263.5l-8.9,1.4l-1.1-6.9l8.9-1.4L751.6,263.5z M733.9,266.3l-8.9,1.4
		l-1.1-6.9l8.9-1.4L733.9,266.3z M716.1,269.1l-8.9,1.4l-1.1-6.9l8.9-1.4L716.1,269.1z M698.3,271.9l-8.9,1.4l-1.1-6.9l8.9-1.4
		L698.3,271.9z M680.5,274.7l-8.9,1.4l-1.1-6.9l8.9-1.4L680.5,274.7z M662.7,277.6l-8.9,1.4l-1.1-6.9l8.9-1.4L662.7,277.6z
		 M645,280.4l-8.9,1.4l-1.1-6.9l8.9-1.4L645,280.4z M627.2,283.2l-8.9,1.4l-1.1-6.9l8.9-1.4L627.2,283.2z M609.4,286l-8.9,1.4
		l-1.1-6.9l8.9-1.4L609.4,286z M591.6,288.8l-8.9,1.4l-1.1-6.9l8.9-1.4L591.6,288.8z M573.9,291.6L565,293l-1.1-6.9l8.9-1.4
		L573.9,291.6z M556.1,294.4l-8.9,1.4l-1.1-6.9l8.9-1.4L556.1,294.4z M538.3,297.3l-8.9,1.4l-1.1-6.9l8.9-1.4L538.3,297.3z
		 M520.5,300.1l-8.9,1.4l-1.1-6.9l8.9-1.4L520.5,300.1z M502.7,302.9l-8.9,1.4l-1.1-6.9l8.9-1.4L502.7,302.9z M485,305.7l-8.9,1.4
		l-1.1-6.9l8.9-1.4L485,305.7z M467.2,308.5l-8.9,1.4l-1.1-6.9l8.9-1.4L467.2,308.5z M449.4,311.3l-8.9,1.4l-1.1-6.9l8.9-1.4
		L449.4,311.3z M431.6,314.2l-8.9,1.4l-1.1-6.9l8.9-1.4L431.6,314.2z M413.9,317l-8.9,1.4l-1.1-6.9l8.9-1.4L413.9,317z M396.1,319.8
		l-8.9,1.4l-1.1-6.9l8.9-1.4L396.1,319.8z M378.3,322.6l-8.9,1.4l-1.1-6.9l8.9-1.4L378.3,322.6z M360.5,325.4l-8.9,1.4l-1.1-6.9
		l8.9-1.4L360.5,325.4z M342.7,328.2l-8.9,1.4l-1.1-6.9l8.9-1.4L342.7,328.2z M325,331.1l-8.9,1.4l-1.1-6.9l8.9-1.4L325,331.1z
		 M307.2,333.9l-8.9,1.4l-1.1-6.9l8.9-1.4L307.2,333.9z M289.4,336.7l-8.9,1.4l-1.1-6.9l8.9-1.4L289.4,336.7z M271.6,339.5l-8.9,1.4
		l-1.1-6.9l8.9-1.4L271.6,339.5z M253.8,342.3l-8.9,1.4l-1.1-6.9l8.9-1.4L253.8,342.3z M236.1,345.1l-8.9,1.4l-1.1-6.9l8.9-1.4
		L236.1,345.1z M218.3,347.9l-8.9,1.4l-1.1-6.9l8.9-1.4L218.3,347.9z M200.5,350.8l-8.9,1.4l-1.1-6.9l8.9-1.4L200.5,350.8z
		 M182.7,353.6l-8.9,1.4l-1.1-6.9l8.9-1.4L182.7,353.6z M165,356.4l-8.9,1.4l-1.1-6.9l8.9-1.4L165,356.4z"/>
	<path class="st1" d="M811.5,303.6l-7.8,1.2l-1.1-6.9l7.8-1.2L811.5,303.6z M794.9,306.3l-8.9,1.4l-1.1-6.9l8.9-1.4L794.9,306.3z
		 M777.1,309.1l-8.9,1.4l-1.1-6.9l8.9-1.4L777.1,309.1z M759.3,311.9l-8.9,1.4l-1.1-6.9l8.9-1.4L759.3,311.9z M741.5,314.7l-8.9,1.4
		l-1.1-6.9l8.9-1.4L741.5,314.7z M723.8,317.5l-8.9,1.4l-1.1-6.9l8.9-1.4L723.8,317.5z M706,320.4l-8.9,1.4l-1.1-6.9l8.9-1.4
		L706,320.4z M688.2,323.2l-8.9,1.4l-1.1-6.9l8.9-1.4L688.2,323.2z M670.4,326l-8.9,1.4l-1.1-6.9l8.9-1.4L670.4,326z M652.6,328.8
		l-8.9,1.4l-1.1-6.9l8.9-1.4L652.6,328.8z M634.9,331.6L626,333l-1.1-6.9l8.9-1.4L634.9,331.6z M617.1,334.4l-8.9,1.4l-1.1-6.9
		l8.9-1.4L617.1,334.4z M599.3,337.3l-8.9,1.4l-1.1-6.9l8.9-1.4L599.3,337.3z M581.5,340.1l-8.9,1.4l-1.1-6.9l8.9-1.4L581.5,340.1z
		 M563.7,342.9l-8.9,1.4l-1.1-6.9l8.9-1.4L563.7,342.9z M546,345.7l-8.9,1.4l-1.1-6.9l8.9-1.4L546,345.7z M528.2,348.5l-8.9,1.4
		l-1.1-6.9l8.9-1.4L528.2,348.5z M510.4,351.3l-8.9,1.4l-1.1-6.9l8.9-1.4L510.4,351.3z M492.6,354.1l-8.9,1.4l-1.1-6.9l8.9-1.4
		L492.6,354.1z M474.9,357l-8.9,1.4l-1.1-6.9l8.9-1.4L474.9,357z M457.1,359.8l-8.9,1.4l-1.1-6.9l8.9-1.4L457.1,359.8z M439.3,362.6
		l-8.9,1.4l-1.1-6.9l8.9-1.4L439.3,362.6z M421.5,365.4l-8.9,1.4l-1.1-6.9l8.9-1.4L421.5,365.4z M403.7,368.2l-8.9,1.4l-1.1-6.9
		l8.9-1.4L403.7,368.2z M386,371l-8.9,1.4l-1.1-6.9l8.9-1.4L386,371z M368.2,373.9l-8.9,1.4l-1.1-6.9l8.9-1.4L368.2,373.9z
		 M350.4,376.7l-8.9,1.4l-1.1-6.9l8.9-1.4L350.4,376.7z M332.6,379.5l-8.9,1.4l-1.1-6.9l8.9-1.4L332.6,379.5z M314.9,382.3l-8.9,1.4
		l-1.1-6.9l8.9-1.4L314.9,382.3z M297.1,385.1l-8.9,1.4l-1.1-6.9l8.9-1.4L297.1,385.1z M279.3,387.9l-8.9,1.4l-1.1-6.9l8.9-1.4
		L279.3,387.9z M261.5,390.8l-8.9,1.4l-1.1-6.9l8.9-1.4L261.5,390.8z M243.7,393.6l-8.9,1.4l-1.1-6.9l8.9-1.4L243.7,393.6z
		 M226,396.4l-8.9,1.4l-1.1-6.9l8.9-1.4L226,396.4z M208.2,399.2l-8.9,1.4l-1.1-6.9l8.9-1.4L208.2,399.2z M190.4,402l-8.9,1.4
		l-1.1-6.9l8.9-1.4L190.4,402z M172.6,404.8l-8.9,1.4l-1.1-6.9l8.9-1.4L172.6,404.8z"/>
	<path class="st1" d="M809,287.7l-7.8,1.2l-1.1-6.9l7.8-1.2L809,287.7z M792.4,290.4l-8.9,1.4l-1.1-6.9l8.9-1.4L792.4,290.4z
		 M774.6,293.2l-8.9,1.4l-1.1-6.9l8.9-1.4L774.6,293.2z M756.8,296l-8.9,1.4l-1.1-6.9l8.9-1.4L756.8,296z M739,298.8l-8.9,1.4
		l-1.1-6.9l8.9-1.4L739,298.8z M721.2,301.6l-8.9,1.4l-1.1-6.9l8.9-1.4L721.2,301.6z M703.5,304.5l-8.9,1.4l-1.1-6.9l8.9-1.4
		L703.5,304.5z M685.7,307.3l-8.9,1.4l-1.1-6.9l8.9-1.4L685.7,307.3z M667.9,310.1l-8.9,1.4l-1.1-6.9l8.9-1.4L667.9,310.1z
		 M650.1,312.9l-8.9,1.4l-1.1-6.9l8.9-1.4L650.1,312.9z M632.3,315.7l-8.9,1.4l-1.1-6.9l8.9-1.4L632.3,315.7z M614.6,318.5l-8.9,1.4
		l-1.1-6.9l8.9-1.4L614.6,318.5z M596.8,321.4l-8.9,1.4l-1.1-6.9l8.9-1.4L596.8,321.4z M579,324.2l-8.9,1.4l-1.1-6.9l8.9-1.4
		L579,324.2z M561.2,327l-8.9,1.4l-1.1-6.9l8.9-1.4L561.2,327z M543.5,329.8l-8.9,1.4l-1.1-6.9l8.9-1.4L543.5,329.8z M525.7,332.6
		l-8.9,1.4l-1.1-6.9l8.9-1.4L525.7,332.6z M507.9,335.4l-8.9,1.4l-1.1-6.9l8.9-1.4L507.9,335.4z M490.1,338.3l-8.9,1.4l-1.1-6.9
		l8.9-1.4L490.1,338.3z M472.3,341.1l-8.9,1.4l-1.1-6.9l8.9-1.4L472.3,341.1z M454.6,343.9l-8.9,1.4l-1.1-6.9l8.9-1.4L454.6,343.9z
		 M436.8,346.7l-8.9,1.4l-1.1-6.9l8.9-1.4L436.8,346.7z M419,349.5l-8.9,1.4L409,344l8.9-1.4L419,349.5z M401.2,352.3l-8.9,1.4
		l-1.1-6.9l8.9-1.4L401.2,352.3z M383.4,355.2l-8.9,1.4l-1.1-6.9l8.9-1.4L383.4,355.2z M365.7,358l-8.9,1.4l-1.1-6.9l8.9-1.4
		L365.7,358z M347.9,360.8l-8.9,1.4l-1.1-6.9l8.9-1.4L347.9,360.8z M330.1,363.6l-8.9,1.4l-1.1-6.9l8.9-1.4L330.1,363.6z
		 M312.3,366.4l-8.9,1.4l-1.1-6.9l8.9-1.4L312.3,366.4z M294.6,369.2l-8.9,1.4l-1.1-6.9l8.9-1.4L294.6,369.2z M276.8,372l-8.9,1.4
		l-1.1-6.9l8.9-1.4L276.8,372z M259,374.9l-8.9,1.4l-1.1-6.9l8.9-1.4L259,374.9z M241.2,377.7l-8.9,1.4l-1.1-6.9l8.9-1.4
		L241.2,377.7z M223.4,380.5l-8.9,1.4l-1.1-6.9l8.9-1.4L223.4,380.5z M205.7,383.3l-8.9,1.4l-1.1-6.9l8.9-1.4L205.7,383.3z
		 M187.9,386.1l-8.9,1.4l-1.1-6.9l8.9-1.4L187.9,386.1z M170.1,388.9l-8.9,1.4l-1.1-6.9l8.9-1.4L170.1,388.9z"/>
	<path class="st1" d="M816.6,335.4l-7.8,1.2l-1.1-6.9l7.8-1.2L816.6,335.4z M799.9,338.1l-8.9,1.4l-1.1-6.9l8.9-1.4L799.9,338.1z
		 M782.1,340.9l-8.9,1.4l-1.1-6.9l8.9-1.4L782.1,340.9z M764.3,343.7l-8.9,1.4l-1.1-6.9l8.9-1.4L764.3,343.7z M746.6,346.5l-8.9,1.4
		l-1.1-6.9l8.9-1.4L746.6,346.5z M728.8,349.3l-8.9,1.4l-1.1-6.9l8.9-1.4L728.8,349.3z M711,352.1l-8.9,1.4l-1.1-6.9l8.9-1.4
		L711,352.1z M693.2,355l-8.9,1.4l-1.1-6.9l8.9-1.4L693.2,355z M675.5,357.8l-8.9,1.4l-1.1-6.9l8.9-1.4L675.5,357.8z M657.7,360.6
		l-8.9,1.4l-1.1-6.9l8.9-1.4L657.7,360.6z M639.9,363.4l-8.9,1.4l-1.1-6.9l8.9-1.4L639.9,363.4z M622.1,366.2l-8.9,1.4l-1.1-6.9
		l8.9-1.4L622.1,366.2z M604.3,369l-8.9,1.4l-1.1-6.9l8.9-1.4L604.3,369z M586.6,371.9l-8.9,1.4l-1.1-6.9l8.9-1.4L586.6,371.9z
		 M568.8,374.7l-8.9,1.4l-1.1-6.9l8.9-1.4L568.8,374.7z M551,377.5l-8.9,1.4L541,372l8.9-1.4L551,377.5z M533.2,380.3l-8.9,1.4
		l-1.1-6.9l8.9-1.4L533.2,380.3z M515.4,383.1l-8.9,1.4l-1.1-6.9l8.9-1.4L515.4,383.1z M497.7,385.9l-8.9,1.4l-1.1-6.9l8.9-1.4
		L497.7,385.9z M479.9,388.8l-8.9,1.4l-1.1-6.9l8.9-1.4L479.9,388.8z M462.1,391.6l-8.9,1.4l-1.1-6.9l8.9-1.4L462.1,391.6z
		 M444.3,394.4l-8.9,1.4l-1.1-6.9l8.9-1.4L444.3,394.4z M426.6,397.2l-8.9,1.4l-1.1-6.9l8.9-1.4L426.6,397.2z M408.8,400l-8.9,1.4
		l-1.1-6.9l8.9-1.4L408.8,400z M391,402.8l-8.9,1.4l-1.1-6.9l8.9-1.4L391,402.8z M373.2,405.6l-8.9,1.4l-1.1-6.9l8.9-1.4
		L373.2,405.6z M355.4,408.5l-8.9,1.4l-1.1-6.9l8.9-1.4L355.4,408.5z M337.7,411.3l-8.9,1.4l-1.1-6.9l8.9-1.4L337.7,411.3z
		 M319.9,414.1l-8.9,1.4l-1.1-6.9l8.9-1.4L319.9,414.1z M302.1,416.9l-8.9,1.4l-1.1-6.9l8.9-1.4L302.1,416.9z M284.3,419.7l-8.9,1.4
		l-1.1-6.9l8.9-1.4L284.3,419.7z M266.6,422.5l-8.9,1.4l-1.1-6.9l8.9-1.4L266.6,422.5z M248.8,425.4l-8.9,1.4l-1.1-6.9l8.9-1.4
		L248.8,425.4z M231,428.2l-8.9,1.4l-1.1-6.9l8.9-1.4L231,428.2z M213.2,431l-8.9,1.4l-1.1-6.9l8.9-1.4L213.2,431z M195.4,433.8
		l-8.9,1.4l-1.1-6.9l8.9-1.4L195.4,433.8z M177.7,436.6l-8.9,1.4l-1.1-6.9l8.9-1.4L177.7,436.6z"/>
	<path class="st1" d="M814,319.5l-7.8,1.2l-1.1-6.9l7.8-1.2L814,319.5z M797.4,322.2l-8.9,1.4l-1.1-6.9l8.9-1.4L797.4,322.2z
		 M779.6,325l-8.9,1.4l-1.1-6.9l8.9-1.4L779.6,325z M761.8,327.8l-8.9,1.4l-1.1-6.9l8.9-1.4L761.8,327.8z M744,330.6l-8.9,1.4
		l-1.1-6.9l8.9-1.4L744,330.6z M726.3,333.4l-8.9,1.4l-1.1-6.9l8.9-1.4L726.3,333.4z M708.5,336.3l-8.9,1.4l-1.1-6.9l8.9-1.4
		L708.5,336.3z M690.7,339.1l-8.9,1.4l-1.1-6.9l8.9-1.4L690.7,339.1z M672.9,341.9l-8.9,1.4l-1.1-6.9l8.9-1.4L672.9,341.9z
		 M655.2,344.7l-8.9,1.4l-1.1-6.9l8.9-1.4L655.2,344.7z M637.4,347.5l-8.9,1.4l-1.1-6.9l8.9-1.4L637.4,347.5z M619.6,350.3l-8.9,1.4
		l-1.1-6.9l8.9-1.4L619.6,350.3z M601.8,353.1l-8.9,1.4l-1.1-6.9l8.9-1.4L601.8,353.1z M584,356l-8.9,1.4l-1.1-6.9l8.9-1.4L584,356z
		 M566.3,358.8l-8.9,1.4l-1.1-6.9l8.9-1.4L566.3,358.8z M548.5,361.6l-8.9,1.4l-1.1-6.9l8.9-1.4L548.5,361.6z M530.7,364.4l-8.9,1.4
		l-1.1-6.9l8.9-1.4L530.7,364.4z M512.9,367.2l-8.9,1.4l-1.1-6.9l8.9-1.4L512.9,367.2z M495.2,370l-8.9,1.4l-1.1-6.9l8.9-1.4
		L495.2,370z M477.4,372.9l-8.9,1.4l-1.1-6.9l8.9-1.4L477.4,372.9z M459.6,375.7l-8.9,1.4l-1.1-6.9l8.9-1.4L459.6,375.7z
		 M441.8,378.5l-8.9,1.4l-1.1-6.9l8.9-1.4L441.8,378.5z M424,381.3l-8.9,1.4l-1.1-6.9l8.9-1.4L424,381.3z M406.3,384.1l-8.9,1.4
		l-1.1-6.9l8.9-1.4L406.3,384.1z M388.5,386.9l-8.9,1.4l-1.1-6.9l8.9-1.4L388.5,386.9z M370.7,389.8l-8.9,1.4l-1.1-6.9l8.9-1.4
		L370.7,389.8z M352.9,392.6L344,394l-1.1-6.9l8.9-1.4L352.9,392.6z M335.1,395.4l-8.9,1.4l-1.1-6.9l8.9-1.4L335.1,395.4z
		 M317.4,398.2l-8.9,1.4l-1.1-6.9l8.9-1.4L317.4,398.2z M299.6,401l-8.9,1.4l-1.1-6.9l8.9-1.4L299.6,401z M281.8,403.8l-8.9,1.4
		l-1.1-6.9l8.9-1.4L281.8,403.8z M264,406.6l-8.9,1.4l-1.1-6.9l8.9-1.4L264,406.6z M246.3,409.5l-8.9,1.4l-1.1-6.9l8.9-1.4
		L246.3,409.5z M228.5,412.3l-8.9,1.4l-1.1-6.9l8.9-1.4L228.5,412.3z M210.7,415.1l-8.9,1.4l-1.1-6.9l8.9-1.4L210.7,415.1z
		 M192.9,417.9l-8.9,1.4l-1.1-6.9l8.9-1.4L192.9,417.9z M175.1,420.7l-8.9,1.4l-1.1-6.9l8.9-1.4L175.1,420.7z"/>
	<path class="st1" d="M821.6,367.3l-7.8,1.2l-1.1-6.9l7.8-1.2L821.6,367.3z M804.9,369.9l-8.9,1.4l-1.1-6.9l8.9-1.4L804.9,369.9z
		 M787.2,372.7l-8.9,1.4l-1.1-6.9l8.9-1.4L787.2,372.7z M769.4,375.6l-8.9,1.4l-1.1-6.9l8.9-1.4L769.4,375.6z M751.6,378.4l-8.9,1.4
		l-1.1-6.9l8.9-1.4L751.6,378.4z M733.8,381.2l-8.9,1.4l-1.1-6.9l8.9-1.4L733.8,381.2z M716.1,384l-8.9,1.4l-1.1-6.9l8.9-1.4
		L716.1,384z M698.3,386.8l-8.9,1.4l-1.1-6.9l8.9-1.4L698.3,386.8z M680.5,389.6l-8.9,1.4l-1.1-6.9l8.9-1.4L680.5,389.6z
		 M662.7,392.4l-8.9,1.4l-1.1-6.9l8.9-1.4L662.7,392.4z M644.9,395.3l-8.9,1.4l-1.1-6.9l8.9-1.4L644.9,395.3z M627.2,398.1l-8.9,1.4
		l-1.1-6.9l8.9-1.4L627.2,398.1z M609.4,400.9l-8.9,1.4l-1.1-6.9l8.9-1.4L609.4,400.9z M591.6,403.7l-8.9,1.4l-1.1-6.9l8.9-1.4
		L591.6,403.7z M573.8,406.5l-8.9,1.4l-1.1-6.9l8.9-1.4L573.8,406.5z M556.1,409.3l-8.9,1.4l-1.1-6.9l8.9-1.4L556.1,409.3z
		 M538.3,412.2l-8.9,1.4l-1.1-6.9l8.9-1.4L538.3,412.2z M520.5,415l-8.9,1.4l-1.1-6.9l8.9-1.4L520.5,415z M502.7,417.8l-8.9,1.4
		l-1.1-6.9l8.9-1.4L502.7,417.8z M484.9,420.6L476,422l-1.1-6.9l8.9-1.4L484.9,420.6z M467.2,423.4l-8.9,1.4l-1.1-6.9l8.9-1.4
		L467.2,423.4z M449.4,426.2l-8.9,1.4l-1.1-6.9l8.9-1.4L449.4,426.2z M431.6,429.1l-8.9,1.4l-1.1-6.9l8.9-1.4L431.6,429.1z
		 M413.8,431.9l-8.9,1.4l-1.1-6.9l8.9-1.4L413.8,431.9z M396,434.7l-8.9,1.4l-1.1-6.9l8.9-1.4L396,434.7z M378.3,437.5l-8.9,1.4
		l-1.1-6.9l8.9-1.4L378.3,437.5z M360.5,440.3l-8.9,1.4l-1.1-6.9l8.9-1.4L360.5,440.3z M342.7,443.1l-8.9,1.4l-1.1-6.9l8.9-1.4
		L342.7,443.1z M324.9,445.9l-8.9,1.4l-1.1-6.9l8.9-1.4L324.9,445.9z M307.2,448.8l-8.9,1.4l-1.1-6.9l8.9-1.4L307.2,448.8z
		 M289.4,451.6l-8.9,1.4l-1.1-6.9l8.9-1.4L289.4,451.6z M271.6,454.4l-8.9,1.4l-1.1-6.9l8.9-1.4L271.6,454.4z M253.8,457.2l-8.9,1.4
		l-1.1-6.9l8.9-1.4L253.8,457.2z M236,460l-8.9,1.4l-1.1-6.9l8.9-1.4L236,460z M218.3,462.8l-8.9,1.4l-1.1-6.9l8.9-1.4L218.3,462.8z
		 M200.5,465.7l-8.9,1.4l-1.1-6.9l8.9-1.4L200.5,465.7z M182.7,468.5l-8.9,1.4l-1.1-6.9l8.9-1.4L182.7,468.5z"/>
	<path class="st1" d="M819.1,351.4l-7.8,1.2l-1.1-6.9l7.8-1.2L819.1,351.4z M802.4,354l-8.9,1.4l-1.1-6.9l8.9-1.4L802.4,354z
		 M784.7,356.8l-8.9,1.4l-1.1-6.9l8.9-1.4L784.7,356.8z M766.9,359.7l-8.9,1.4l-1.1-6.9l8.9-1.4L766.9,359.7z M749.1,362.5l-8.9,1.4
		l-1.1-6.9l8.9-1.4L749.1,362.5z M731.3,365.3l-8.9,1.4l-1.1-6.9l8.9-1.4L731.3,365.3z M713.5,368.1l-8.9,1.4l-1.1-6.9l8.9-1.4
		L713.5,368.1z M695.8,370.9l-8.9,1.4l-1.1-6.9l8.9-1.4L695.8,370.9z M678,373.7l-8.9,1.4l-1.1-6.9l8.9-1.4L678,373.7z M660.2,376.6
		l-8.9,1.4l-1.1-6.9l8.9-1.4L660.2,376.6z M642.4,379.4l-8.9,1.4l-1.1-6.9l8.9-1.4L642.4,379.4z M624.6,382.2l-8.9,1.4l-1.1-6.9
		l8.9-1.4L624.6,382.2z M606.9,385l-8.9,1.4l-1.1-6.9l8.9-1.4L606.9,385z M589.1,387.8l-8.9,1.4l-1.1-6.9l8.9-1.4L589.1,387.8z
		 M571.3,390.6l-8.9,1.4l-1.1-6.9l8.9-1.4L571.3,390.6z M553.5,393.4l-8.9,1.4l-1.1-6.9l8.9-1.4L553.5,393.4z M535.8,396.3l-8.9,1.4
		l-1.1-6.9l8.9-1.4L535.8,396.3z M518,399.1l-8.9,1.4l-1.1-6.9l8.9-1.4L518,399.1z M500.2,401.9l-8.9,1.4l-1.1-6.9l8.9-1.4
		L500.2,401.9z M482.4,404.7l-8.9,1.4l-1.1-6.9l8.9-1.4L482.4,404.7z M464.6,407.5l-8.9,1.4l-1.1-6.9l8.9-1.4L464.6,407.5z
		 M446.9,410.3l-8.9,1.4l-1.1-6.9l8.9-1.4L446.9,410.3z M429.1,413.2l-8.9,1.4l-1.1-6.9l8.9-1.4L429.1,413.2z M411.3,416l-8.9,1.4
		l-1.1-6.9l8.9-1.4L411.3,416z M393.5,418.8l-8.9,1.4l-1.1-6.9l8.9-1.4L393.5,418.8z M375.7,421.6l-8.9,1.4l-1.1-6.9l8.9-1.4
		L375.7,421.6z M358,424.4l-8.9,1.4l-1.1-6.9l8.9-1.4L358,424.4z M340.2,427.2l-8.9,1.4l-1.1-6.9l8.9-1.4L340.2,427.2z M322.4,430.1
		l-8.9,1.4l-1.1-6.9l8.9-1.4L322.4,430.1z M304.6,432.9l-8.9,1.4l-1.1-6.9l8.9-1.4L304.6,432.9z M286.9,435.7l-8.9,1.4l-1.1-6.9
		l8.9-1.4L286.9,435.7z M269.1,438.5l-8.9,1.4l-1.1-6.9l8.9-1.4L269.1,438.5z M251.3,441.3l-8.9,1.4l-1.1-6.9l8.9-1.4L251.3,441.3z
		 M233.5,444.1l-8.9,1.4l-1.1-6.9l8.9-1.4L233.5,444.1z M215.7,447l-8.9,1.4l-1.1-6.9l8.9-1.4L215.7,447z M198,449.8l-8.9,1.4
		l-1.1-6.9l8.9-1.4L198,449.8z M180.2,452.6l-8.9,1.4l-1.1-6.9l8.9-1.4L180.2,452.6z"/>
	<path class="st1" d="M826.6,399.1l-7.8,1.2l-1.1-6.9l7.8-1.2L826.6,399.1z M810,401.7l-8.9,1.4l-1.1-6.9l8.9-1.4L810,401.7z
		 M792.2,404.5l-8.9,1.4l-1.1-6.9l8.9-1.4L792.2,404.5z M774.4,407.3l-8.9,1.4l-1.1-6.9l8.9-1.4L774.4,407.3z M756.6,410.2l-8.9,1.4
		l-1.1-6.9l8.9-1.4L756.6,410.2z M738.9,413l-8.9,1.4l-1.1-6.9l8.9-1.4L738.9,413z M721.1,415.8l-8.9,1.4l-1.1-6.9l8.9-1.4
		L721.1,415.8z M703.3,418.6l-8.9,1.4l-1.1-6.9l8.9-1.4L703.3,418.6z M685.5,421.4l-8.9,1.4l-1.1-6.9l8.9-1.4L685.5,421.4z
		 M667.8,424.2l-8.9,1.4l-1.1-6.9l8.9-1.4L667.8,424.2z M650,427l-8.9,1.4l-1.1-6.9l8.9-1.4L650,427z M632.2,429.9l-8.9,1.4
		l-1.1-6.9l8.9-1.4L632.2,429.9z M614.4,432.7l-8.9,1.4l-1.1-6.9l8.9-1.4L614.4,432.7z M596.6,435.5l-8.9,1.4l-1.1-6.9l8.9-1.4
		L596.6,435.5z M578.9,438.3l-8.9,1.4l-1.1-6.9l8.9-1.4L578.9,438.3z M561.1,441.1l-8.9,1.4l-1.1-6.9l8.9-1.4L561.1,441.1z
		 M543.3,443.9l-8.9,1.4l-1.1-6.9l8.9-1.4L543.3,443.9z M525.5,446.8l-8.9,1.4l-1.1-6.9l8.9-1.4L525.5,446.8z M507.8,449.6l-8.9,1.4
		l-1.1-6.9l8.9-1.4L507.8,449.6z M490,452.4l-8.9,1.4l-1.1-6.9l8.9-1.4L490,452.4z M472.2,455.2l-8.9,1.4l-1.1-6.9l8.9-1.4
		L472.2,455.2z M454.4,458l-8.9,1.4l-1.1-6.9l8.9-1.4L454.4,458z M436.6,460.8l-8.9,1.4l-1.1-6.9l8.9-1.4L436.6,460.8z M418.9,463.7
		l-8.9,1.4l-1.1-6.9l8.9-1.4L418.9,463.7z M401.1,466.5l-8.9,1.4l-1.1-6.9l8.9-1.4L401.1,466.5z M383.3,469.3l-8.9,1.4l-1.1-6.9
		l8.9-1.4L383.3,469.3z M365.5,472.1l-8.9,1.4l-1.1-6.9l8.9-1.4L365.5,472.1z M347.7,474.9l-8.9,1.4l-1.1-6.9l8.9-1.4L347.7,474.9z
		 M330,477.7l-8.9,1.4l-1.1-6.9l8.9-1.4L330,477.7z M312.2,480.6l-8.9,1.4l-1.1-6.9l8.9-1.4L312.2,480.6z M294.4,483.4l-8.9,1.4
		l-1.1-6.9l8.9-1.4L294.4,483.4z M276.6,486.2l-8.9,1.4l-1.1-6.9l8.9-1.4L276.6,486.2z M258.9,489l-8.9,1.4l-1.1-6.9l8.9-1.4
		L258.9,489z M241.1,491.8l-8.9,1.4l-1.1-6.9l8.9-1.4L241.1,491.8z M223.3,494.6l-8.9,1.4l-1.1-6.9l8.9-1.4L223.3,494.6z
		 M205.5,497.4l-8.9,1.4l-1.1-6.9l8.9-1.4L205.5,497.4z M187.7,500.3l-8.9,1.4l-1.1-6.9l8.9-1.4L187.7,500.3z"/>
	<path class="st1" d="M824.1,383.2l-7.8,1.2l-1.1-6.9l7.8-1.2L824.1,383.2z M807.5,385.8l-8.9,1.4l-1.1-6.9l8.9-1.4L807.5,385.8z
		 M789.7,388.6l-8.9,1.4l-1.1-6.9l8.9-1.4L789.7,388.6z M771.9,391.4l-8.9,1.4l-1.1-6.9l8.9-1.4L771.9,391.4z M754.1,394.3l-8.9,1.4
		l-1.1-6.9l8.9-1.4L754.1,394.3z M736.4,397.1l-8.9,1.4l-1.1-6.9l8.9-1.4L736.4,397.1z M718.6,399.9l-8.9,1.4l-1.1-6.9l8.9-1.4
		L718.6,399.9z M700.8,402.7l-8.9,1.4l-1.1-6.9l8.9-1.4L700.8,402.7z M683,405.5l-8.9,1.4L673,400l8.9-1.4L683,405.5z M665.2,408.3
		l-8.9,1.4l-1.1-6.9l8.9-1.4L665.2,408.3z M647.5,411.2l-8.9,1.4l-1.1-6.9l8.9-1.4L647.5,411.2z M629.7,414l-8.9,1.4l-1.1-6.9
		l8.9-1.4L629.7,414z M611.9,416.8l-8.9,1.4l-1.1-6.9l8.9-1.4L611.9,416.8z M594.1,419.6l-8.9,1.4l-1.1-6.9l8.9-1.4L594.1,419.6z
		 M576.3,422.4l-8.9,1.4l-1.1-6.9l8.9-1.4L576.3,422.4z M558.6,425.2l-8.9,1.4l-1.1-6.9l8.9-1.4L558.6,425.2z M540.8,428.1l-8.9,1.4
		l-1.1-6.9l8.9-1.4L540.8,428.1z M523,430.9l-8.9,1.4l-1.1-6.9l8.9-1.4L523,430.9z M505.2,433.7l-8.9,1.4l-1.1-6.9l8.9-1.4
		L505.2,433.7z M487.5,436.5l-8.9,1.4l-1.1-6.9l8.9-1.4L487.5,436.5z M469.7,439.3l-8.9,1.4l-1.1-6.9l8.9-1.4L469.7,439.3z
		 M451.9,442.1l-8.9,1.4l-1.1-6.9l8.9-1.4L451.9,442.1z M434.1,444.9l-8.9,1.4l-1.1-6.9l8.9-1.4L434.1,444.9z M416.3,447.8l-8.9,1.4
		l-1.1-6.9l8.9-1.4L416.3,447.8z M398.6,450.6l-8.9,1.4l-1.1-6.9l8.9-1.4L398.6,450.6z M380.8,453.4l-8.9,1.4l-1.1-6.9l8.9-1.4
		L380.8,453.4z M363,456.2l-8.9,1.4l-1.1-6.9l8.9-1.4L363,456.2z M345.2,459l-8.9,1.4l-1.1-6.9l8.9-1.4L345.2,459z M327.4,461.8
		l-8.9,1.4l-1.1-6.9l8.9-1.4L327.4,461.8z M309.7,464.7l-8.9,1.4l-1.1-6.9l8.9-1.4L309.7,464.7z M291.9,467.5l-8.9,1.4l-1.1-6.9
		l8.9-1.4L291.9,467.5z M274.1,470.3l-8.9,1.4l-1.1-6.9l8.9-1.4L274.1,470.3z M256.3,473.1l-8.9,1.4l-1.1-6.9l8.9-1.4L256.3,473.1z
		 M238.6,475.9l-8.9,1.4l-1.1-6.9l8.9-1.4L238.6,475.9z M220.8,478.7l-8.9,1.4l-1.1-6.9l8.9-1.4L220.8,478.7z M203,481.6l-8.9,1.4
		L193,476l8.9-1.4L203,481.6z M185.2,484.4l-8.9,1.4l-1.1-6.9l8.9-1.4L185.2,484.4z"/>
	<path class="st1" d="M831.7,430.9l-7.8,1.2l-1.1-6.9l7.8-1.2L831.7,430.9z M815,433.5l-8.9,1.4L805,428l8.9-1.4L815,433.5z
		 M797.2,436.3l-8.9,1.4l-1.1-6.9l8.9-1.4L797.2,436.3z M779.5,439.1l-8.9,1.4l-1.1-6.9l8.9-1.4L779.5,439.1z M761.7,441.9l-8.9,1.4
		l-1.1-6.9l8.9-1.4L761.7,441.9z M743.9,444.8l-8.9,1.4l-1.1-6.9l8.9-1.4L743.9,444.8z M726.1,447.6l-8.9,1.4l-1.1-6.9l8.9-1.4
		L726.1,447.6z M708.3,450.4l-8.9,1.4l-1.1-6.9l8.9-1.4L708.3,450.4z M690.6,453.2l-8.9,1.4l-1.1-6.9l8.9-1.4L690.6,453.2z
		 M672.8,456l-8.9,1.4l-1.1-6.9l8.9-1.4L672.8,456z M655,458.8l-8.9,1.4l-1.1-6.9l8.9-1.4L655,458.8z M637.2,461.7l-8.9,1.4
		l-1.1-6.9l8.9-1.4L637.2,461.7z M619.5,464.5l-8.9,1.4l-1.1-6.9l8.9-1.4L619.5,464.5z M601.7,467.3l-8.9,1.4l-1.1-6.9l8.9-1.4
		L601.7,467.3z M583.9,470.1l-8.9,1.4l-1.1-6.9l8.9-1.4L583.9,470.1z M566.1,472.9l-8.9,1.4l-1.1-6.9l8.9-1.4L566.1,472.9z
		 M548.3,475.7l-8.9,1.4l-1.1-6.9l8.9-1.4L548.3,475.7z M530.6,478.5l-8.9,1.4l-1.1-6.9l8.9-1.4L530.6,478.5z M512.8,481.4l-8.9,1.4
		l-1.1-6.9l8.9-1.4L512.8,481.4z M495,484.2l-8.9,1.4l-1.1-6.9l8.9-1.4L495,484.2z M477.2,487l-8.9,1.4l-1.1-6.9l8.9-1.4L477.2,487z
		 M459.4,489.8l-8.9,1.4l-1.1-6.9l8.9-1.4L459.4,489.8z M441.7,492.6l-8.9,1.4l-1.1-6.9l8.9-1.4L441.7,492.6z M423.9,495.4l-8.9,1.4
		l-1.1-6.9l8.9-1.4L423.9,495.4z M406.1,498.3l-8.9,1.4l-1.1-6.9l8.9-1.4L406.1,498.3z M388.3,501.1l-8.9,1.4l-1.1-6.9l8.9-1.4
		L388.3,501.1z M370.6,503.9l-8.9,1.4l-1.1-6.9l8.9-1.4L370.6,503.9z M352.8,506.7l-8.9,1.4l-1.1-6.9l8.9-1.4L352.8,506.7z
		 M335,509.5l-8.9,1.4L325,504l8.9-1.4L335,509.5z M317.2,512.3l-8.9,1.4l-1.1-6.9l8.9-1.4L317.2,512.3z M299.4,515.2l-8.9,1.4
		l-1.1-6.9l8.9-1.4L299.4,515.2z M281.7,518l-8.9,1.4l-1.1-6.9l8.9-1.4L281.7,518z M263.9,520.8l-8.9,1.4l-1.1-6.9l8.9-1.4
		L263.9,520.8z M246.1,523.6l-8.9,1.4l-1.1-6.9l8.9-1.4L246.1,523.6z M228.3,526.4l-8.9,1.4l-1.1-6.9l8.9-1.4L228.3,526.4z
		 M210.6,529.2l-8.9,1.4l-1.1-6.9l8.9-1.4L210.6,529.2z M192.8,532l-8.9,1.4l-1.1-6.9l8.9-1.4L192.8,532z"/>
	<path class="st1" d="M829.1,415l-7.8,1.2l-1.1-6.9l7.8-1.2L829.1,415z M812.5,417.6l-8.9,1.4l-1.1-6.9l8.9-1.4L812.5,417.6z
		 M794.7,420.4l-8.9,1.4l-1.1-6.9l8.9-1.4L794.7,420.4z M776.9,423.2l-8.9,1.4l-1.1-6.9l8.9-1.4L776.9,423.2z M759.2,426l-8.9,1.4
		l-1.1-6.9l8.9-1.4L759.2,426z M741.4,428.9l-8.9,1.4l-1.1-6.9l8.9-1.4L741.4,428.9z M723.6,431.7l-8.9,1.4l-1.1-6.9l8.9-1.4
		L723.6,431.7z M705.8,434.5l-8.9,1.4l-1.1-6.9l8.9-1.4L705.8,434.5z M688.1,437.3l-8.9,1.4l-1.1-6.9l8.9-1.4L688.1,437.3z
		 M670.3,440.1l-8.9,1.4l-1.1-6.9l8.9-1.4L670.3,440.1z M652.5,442.9l-8.9,1.4l-1.1-6.9l8.9-1.4L652.5,442.9z M634.7,445.8l-8.9,1.4
		l-1.1-6.9l8.9-1.4L634.7,445.8z M616.9,448.6L608,450l-1.1-6.9l8.9-1.4L616.9,448.6z M599.2,451.4l-8.9,1.4l-1.1-6.9l8.9-1.4
		L599.2,451.4z M581.4,454.2l-8.9,1.4l-1.1-6.9l8.9-1.4L581.4,454.2z M563.6,457l-8.9,1.4l-1.1-6.9l8.9-1.4L563.6,457z M545.8,459.8
		l-8.9,1.4l-1.1-6.9l8.9-1.4L545.8,459.8z M528,462.7l-8.9,1.4l-1.1-6.9l8.9-1.4L528,462.7z M510.3,465.5l-8.9,1.4l-1.1-6.9l8.9-1.4
		L510.3,465.5z M492.5,468.3l-8.9,1.4l-1.1-6.9l8.9-1.4L492.5,468.3z M474.7,471.1l-8.9,1.4l-1.1-6.9l8.9-1.4L474.7,471.1z
		 M456.9,473.9l-8.9,1.4l-1.1-6.9l8.9-1.4L456.9,473.9z M439.2,476.7l-8.9,1.4l-1.1-6.9l8.9-1.4L439.2,476.7z M421.4,479.5l-8.9,1.4
		l-1.1-6.9l8.9-1.4L421.4,479.5z M403.6,482.4l-8.9,1.4l-1.1-6.9l8.9-1.4L403.6,482.4z M385.8,485.2l-8.9,1.4l-1.1-6.9l8.9-1.4
		L385.8,485.2z M368,488l-8.9,1.4l-1.1-6.9l8.9-1.4L368,488z M350.3,490.8l-8.9,1.4l-1.1-6.9l8.9-1.4L350.3,490.8z M332.5,493.6
		l-8.9,1.4l-1.1-6.9l8.9-1.4L332.5,493.6z M314.7,496.4l-8.9,1.4l-1.1-6.9l8.9-1.4L314.7,496.4z M296.9,499.3l-8.9,1.4l-1.1-6.9
		l8.9-1.4L296.9,499.3z M279.1,502.1l-8.9,1.4l-1.1-6.9l8.9-1.4L279.1,502.1z M261.4,504.9l-8.9,1.4l-1.1-6.9l8.9-1.4L261.4,504.9z
		 M243.6,507.7l-8.9,1.4l-1.1-6.9l8.9-1.4L243.6,507.7z M225.8,510.5l-8.9,1.4l-1.1-6.9l8.9-1.4L225.8,510.5z M208,513.3l-8.9,1.4
		l-1.1-6.9l8.9-1.4L208,513.3z M190.3,516.2l-8.9,1.4l-1.1-6.9l8.9-1.4L190.3,516.2z"/>
	<path class="st1" d="M836.7,462.6l-7.8,1.2l-1.1-6.9l7.8-1.2L836.7,462.6z M820.1,465.3l-8.9,1.4l-1.1-6.9l8.9-1.4L820.1,465.3z
		 M802.3,468.1l-8.9,1.4l-1.1-6.9l8.9-1.4L802.3,468.1z M784.5,470.9l-8.9,1.4l-1.1-6.9l8.9-1.4L784.5,470.9z M766.7,473.7l-8.9,1.4
		l-1.1-6.9l8.9-1.4L766.7,473.7z M748.9,476.5L740,478L739,471l8.9-1.4L748.9,476.5z M731.2,479.4l-8.9,1.4l-1.1-6.9l8.9-1.4
		L731.2,479.4z M713.4,482.2l-8.9,1.4l-1.1-6.9l8.9-1.4L713.4,482.2z M695.6,485l-8.9,1.4l-1.1-6.9l8.9-1.4L695.6,485z M677.8,487.8
		l-8.9,1.4l-1.1-6.9l8.9-1.4L677.8,487.8z M660,490.6l-8.9,1.4l-1.1-6.9l8.9-1.4L660,490.6z M642.3,493.4l-8.9,1.4l-1.1-6.9l8.9-1.4
		L642.3,493.4z M624.5,496.3l-8.9,1.4l-1.1-6.9l8.9-1.4L624.5,496.3z M606.7,499.1l-8.9,1.4l-1.1-6.9l8.9-1.4L606.7,499.1z
		 M588.9,501.9l-8.9,1.4l-1.1-6.9l8.9-1.4L588.9,501.9z M571.2,504.7l-8.9,1.4l-1.1-6.9l8.9-1.4L571.2,504.7z M553.4,507.5l-8.9,1.4
		l-1.1-6.9l8.9-1.4L553.4,507.5z M535.6,510.3l-8.9,1.4l-1.1-6.9l8.9-1.4L535.6,510.3z M517.8,513.1l-8.9,1.4l-1.1-6.9l8.9-1.4
		L517.8,513.1z M500,516l-8.9,1.4l-1.1-6.9l8.9-1.4L500,516z M482.3,518.8l-8.9,1.4l-1.1-6.9l8.9-1.4L482.3,518.8z M464.5,521.6
		l-8.9,1.4l-1.1-6.9l8.9-1.4L464.5,521.6z M446.7,524.4l-8.9,1.4l-1.1-6.9l8.9-1.4L446.7,524.4z M428.9,527.2l-8.9,1.4l-1.1-6.9
		l8.9-1.4L428.9,527.2z M411.1,530l-8.9,1.4l-1.1-6.9l8.9-1.4L411.1,530z M393.4,532.9l-8.9,1.4l-1.1-6.9l8.9-1.4L393.4,532.9z
		 M375.6,535.7l-8.9,1.4l-1.1-6.9l8.9-1.4L375.6,535.7z M357.8,538.5l-8.9,1.4l-1.1-6.9l8.9-1.4L357.8,538.5z M340,541.3l-8.9,1.4
		l-1.1-6.9l8.9-1.4L340,541.3z M322.3,544.1l-8.9,1.4l-1.1-6.9l8.9-1.4L322.3,544.1z M304.5,546.9l-8.9,1.4l-1.1-6.9l8.9-1.4
		L304.5,546.9z M286.7,549.8l-8.9,1.4l-1.1-6.9l8.9-1.4L286.7,549.8z M268.9,552.6L260,554l-1.1-6.9l8.9-1.4L268.9,552.6z
		 M251.1,555.4l-8.9,1.4l-1.1-6.9l8.9-1.4L251.1,555.4z M233.4,558.2l-8.9,1.4l-1.1-6.9l8.9-1.4L233.4,558.2z M215.6,561l-8.9,1.4
		l-1.1-6.9l8.9-1.4L215.6,561z M197.8,563.8l-8.9,1.4l-1.1-6.9l8.9-1.4L197.8,563.8z"/>
	<path class="st1" d="M834.2,446.7l-7.8,1.2l-1.1-6.9l7.8-1.2L834.2,446.7z M817.5,449.4l-8.9,1.4l-1.1-6.9l8.9-1.4L817.5,449.4z
		 M799.8,452.2l-8.9,1.4l-1.1-6.9l8.9-1.4L799.8,452.2z M782,455l-8.9,1.4l-1.1-6.9l8.9-1.4L782,455z M764.2,457.8l-8.9,1.4
		l-1.1-6.9l8.9-1.4L764.2,457.8z M746.4,460.6l-8.9,1.4l-1.1-6.9l8.9-1.4L746.4,460.6z M728.6,463.5l-8.9,1.4l-1.1-6.9l8.9-1.4
		L728.6,463.5z M710.9,466.3l-8.9,1.4l-1.1-6.9l8.9-1.4L710.9,466.3z M693.1,469.1l-8.9,1.4l-1.1-6.9l8.9-1.4L693.1,469.1z
		 M675.3,471.9l-8.9,1.4l-1.1-6.9l8.9-1.4L675.3,471.9z M657.5,474.7l-8.9,1.4l-1.1-6.9l8.9-1.4L657.5,474.7z M639.8,477.5l-8.9,1.4
		l-1.1-6.9l8.9-1.4L639.8,477.5z M622,480.4l-8.9,1.4l-1.1-6.9l8.9-1.4L622,480.4z M604.2,483.2l-8.9,1.4l-1.1-6.9l8.9-1.4
		L604.2,483.2z M586.4,486l-8.9,1.4l-1.1-6.9l8.9-1.4L586.4,486z M568.6,488.8l-8.9,1.4l-1.1-6.9l8.9-1.4L568.6,488.8z M550.9,491.6
		L542,493l-1.1-6.9l8.9-1.4L550.9,491.6z M533.1,494.4l-8.9,1.4l-1.1-6.9l8.9-1.4L533.1,494.4z M515.3,497.3l-8.9,1.4l-1.1-6.9
		l8.9-1.4L515.3,497.3z M497.5,500.1l-8.9,1.4l-1.1-6.9l8.9-1.4L497.5,500.1z M479.7,502.9l-8.9,1.4l-1.1-6.9l8.9-1.4L479.7,502.9z
		 M462,505.7l-8.9,1.4l-1.1-6.9l8.9-1.4L462,505.7z M444.2,508.5l-8.9,1.4l-1.1-6.9l8.9-1.4L444.2,508.5z M426.4,511.3l-8.9,1.4
		l-1.1-6.9l8.9-1.4L426.4,511.3z M408.6,514.2l-8.9,1.4l-1.1-6.9l8.9-1.4L408.6,514.2z M390.9,517l-8.9,1.4l-1.1-6.9l8.9-1.4
		L390.9,517z M373.1,519.8l-8.9,1.4l-1.1-6.9l8.9-1.4L373.1,519.8z M355.3,522.6l-8.9,1.4l-1.1-6.9l8.9-1.4L355.3,522.6z
		 M337.5,525.4l-8.9,1.4l-1.1-6.9l8.9-1.4L337.5,525.4z M319.7,528.2l-8.9,1.4l-1.1-6.9l8.9-1.4L319.7,528.2z M302,531l-8.9,1.4
		l-1.1-6.9l8.9-1.4L302,531z M284.2,533.9l-8.9,1.4l-1.1-6.9l8.9-1.4L284.2,533.9z M266.4,536.7l-8.9,1.4l-1.1-6.9l8.9-1.4
		L266.4,536.7z M248.6,539.5l-8.9,1.4l-1.1-6.9l8.9-1.4L248.6,539.5z M230.8,542.3l-8.9,1.4l-1.1-6.9l8.9-1.4L230.8,542.3z
		 M213.1,545.1l-8.9,1.4l-1.1-6.9l8.9-1.4L213.1,545.1z M195.3,547.9l-8.9,1.4l-1.1-6.9l8.9-1.4L195.3,547.9z"/>
	<path class="st1" d="M841.7,494.5l-7.8,1.2l-1.1-6.9l7.8-1.2L841.7,494.5z M825.1,497.1l-8.9,1.4l-1.1-6.9l8.9-1.4L825.1,497.1z
		 M807.3,500l-8.9,1.4l-1.1-6.9l8.9-1.4L807.3,500z M789.5,502.8l-8.9,1.4l-1.1-6.9l8.9-1.4L789.5,502.8z M771.8,505.6l-8.9,1.4
		l-1.1-6.9l8.9-1.4L771.8,505.6z M754,508.4l-8.9,1.4l-1.1-6.9l8.9-1.4L754,508.4z M736.2,511.2l-8.9,1.4l-1.1-6.9l8.9-1.4
		L736.2,511.2z M718.4,514l-8.9,1.4l-1.1-6.9l8.9-1.4L718.4,514z M700.6,516.8l-8.9,1.4l-1.1-6.9l8.9-1.4L700.6,516.8z M682.9,519.7
		l-8.9,1.4l-1.1-6.9l8.9-1.4L682.9,519.7z M665.1,522.5l-8.9,1.4l-1.1-6.9l8.9-1.4L665.1,522.5z M647.3,525.3l-8.9,1.4l-1.1-6.9
		l8.9-1.4L647.3,525.3z M629.5,528.1l-8.9,1.4l-1.1-6.9l8.9-1.4L629.5,528.1z M611.8,530.9l-8.9,1.4l-1.1-6.9l8.9-1.4L611.8,530.9z
		 M594,533.7l-8.9,1.4l-1.1-6.9l8.9-1.4L594,533.7z M576.2,536.6l-8.9,1.4l-1.1-6.9l8.9-1.4L576.2,536.6z M558.4,539.4l-8.9,1.4
		l-1.1-6.9l8.9-1.4L558.4,539.4z M540.6,542.2l-8.9,1.4l-1.1-6.9l8.9-1.4L540.6,542.2z M522.9,545l-8.9,1.4l-1.1-6.9l8.9-1.4
		L522.9,545z M505.1,547.8l-8.9,1.4l-1.1-6.9l8.9-1.4L505.1,547.8z M487.3,550.6l-8.9,1.4l-1.1-6.9l8.9-1.4L487.3,550.6z
		 M469.5,553.5l-8.9,1.4l-1.1-6.9l8.9-1.4L469.5,553.5z M451.8,556.3l-8.9,1.4l-1.1-6.9l8.9-1.4L451.8,556.3z M434,559.1l-8.9,1.4
		l-1.1-6.9l8.9-1.4L434,559.1z M416.2,561.9l-8.9,1.4l-1.1-6.9l8.9-1.4L416.2,561.9z M398.4,564.7l-8.9,1.4l-1.1-6.9l8.9-1.4
		L398.4,564.7z M380.6,567.5l-8.9,1.4l-1.1-6.9l8.9-1.4L380.6,567.5z M362.9,570.3l-8.9,1.4l-1.1-6.9l8.9-1.4L362.9,570.3z
		 M345.1,573.2l-8.9,1.4l-1.1-6.9l8.9-1.4L345.1,573.2z M327.3,576l-8.9,1.4l-1.1-6.9l8.9-1.4L327.3,576z M309.5,578.8l-8.9,1.4
		l-1.1-6.9l8.9-1.4L309.5,578.8z M291.7,581.6l-8.9,1.4l-1.1-6.9l8.9-1.4L291.7,581.6z M274,584.4l-8.9,1.4l-1.1-6.9l8.9-1.4
		L274,584.4z M256.2,587.2l-8.9,1.4l-1.1-6.9l8.9-1.4L256.2,587.2z M238.4,590.1l-8.9,1.4l-1.1-6.9l8.9-1.4L238.4,590.1z
		 M220.6,592.9l-8.9,1.4l-1.1-6.9l8.9-1.4L220.6,592.9z M202.9,595.7l-8.9,1.4l-1.1-6.9l8.9-1.4L202.9,595.7z"/>
	<path class="st1" d="M839.2,478.6l-7.8,1.2l-1.1-6.9l7.8-1.2L839.2,478.6z M822.6,481.2l-8.9,1.4l-1.1-6.9l8.9-1.4L822.6,481.2z
		 M804.8,484.1l-8.9,1.4l-1.1-6.9l8.9-1.4L804.8,484.1z M787,486.9l-8.9,1.4l-1.1-6.9l8.9-1.4L787,486.9z M769.2,489.7l-8.9,1.4
		l-1.1-6.9l8.9-1.4L769.2,489.7z M751.5,492.5l-8.9,1.4l-1.1-6.9l8.9-1.4L751.5,492.5z M733.7,495.3l-8.9,1.4l-1.1-6.9l8.9-1.4
		L733.7,495.3z M715.9,498.1l-8.9,1.4l-1.1-6.9l8.9-1.4L715.9,498.1z M698.1,501l-8.9,1.4l-1.1-6.9l8.9-1.4L698.1,501z M680.4,503.8
		l-8.9,1.4l-1.1-6.9l8.9-1.4L680.4,503.8z M662.6,506.6l-8.9,1.4l-1.1-6.9l8.9-1.4L662.6,506.6z M644.8,509.4l-8.9,1.4l-1.1-6.9
		l8.9-1.4L644.8,509.4z M627,512.2l-8.9,1.4l-1.1-6.9l8.9-1.4L627,512.2z M609.2,515l-8.9,1.4l-1.1-6.9l8.9-1.4L609.2,515z
		 M591.5,517.8l-8.9,1.4l-1.1-6.9l8.9-1.4L591.5,517.8z M573.7,520.7l-8.9,1.4l-1.1-6.9l8.9-1.4L573.7,520.7z M555.9,523.5l-8.9,1.4
		l-1.1-6.9l8.9-1.4L555.9,523.5z M538.1,526.3l-8.9,1.4l-1.1-6.9l8.9-1.4L538.1,526.3z M520.3,529.1l-8.9,1.4l-1.1-6.9l8.9-1.4
		L520.3,529.1z M502.6,531.9l-8.9,1.4l-1.1-6.9l8.9-1.4L502.6,531.9z M484.8,534.7l-8.9,1.4l-1.1-6.9l8.9-1.4L484.8,534.7z
		 M467,537.6l-8.9,1.4l-1.1-6.9l8.9-1.4L467,537.6z M449.2,540.4l-8.9,1.4l-1.1-6.9l8.9-1.4L449.2,540.4z M431.5,543.2l-8.9,1.4
		l-1.1-6.9l8.9-1.4L431.5,543.2z M413.7,546l-8.9,1.4l-1.1-6.9l8.9-1.4L413.7,546z M395.9,548.8l-8.9,1.4l-1.1-6.9l8.9-1.4
		L395.9,548.8z M378.1,551.6l-8.9,1.4l-1.1-6.9l8.9-1.4L378.1,551.6z M360.3,554.5l-8.9,1.4l-1.1-6.9l8.9-1.4L360.3,554.5z
		 M342.6,557.3l-8.9,1.4l-1.1-6.9l8.9-1.4L342.6,557.3z M324.8,560.1l-8.9,1.4l-1.1-6.9l8.9-1.4L324.8,560.1z M307,562.9l-8.9,1.4
		l-1.1-6.9l8.9-1.4L307,562.9z M289.2,565.7l-8.9,1.4l-1.1-6.9l8.9-1.4L289.2,565.7z M271.4,568.5l-8.9,1.4l-1.1-6.9l8.9-1.4
		L271.4,568.5z M253.7,571.3l-8.9,1.4l-1.1-6.9l8.9-1.4L253.7,571.3z M235.9,574.2l-8.9,1.4l-1.1-6.9l8.9-1.4L235.9,574.2z
		 M218.1,577l-8.9,1.4l-1.1-6.9l8.9-1.4L218.1,577z M200.3,579.8l-8.9,1.4l-1.1-6.9l8.9-1.4L200.3,579.8z"/>
	<path class="st1" d="M846.8,526.3l-7.8,1.2l-1.1-6.9l7.8-1.2L846.8,526.3z M830.1,528.9l-8.9,1.4l-1.1-6.9l8.9-1.4L830.1,528.9z
		 M812.4,531.7l-8.9,1.4l-1.1-6.9l8.9-1.4L812.4,531.7z M794.6,534.6l-8.9,1.4l-1.1-6.9l8.9-1.4L794.6,534.6z M776.8,537.4l-8.9,1.4
		l-1.1-6.9l8.9-1.4L776.8,537.4z M759,540.2l-8.9,1.4l-1.1-6.9l8.9-1.4L759,540.2z M741.2,543l-8.9,1.4l-1.1-6.9l8.9-1.4L741.2,543z
		 M723.5,545.8l-8.9,1.4l-1.1-6.9l8.9-1.4L723.5,545.8z M705.7,548.6l-8.9,1.4l-1.1-6.9l8.9-1.4L705.7,548.6z M687.9,551.4l-8.9,1.4
		l-1.1-6.9l8.9-1.4L687.9,551.4z M670.1,554.3l-8.9,1.4l-1.1-6.9l8.9-1.4L670.1,554.3z M652.3,557.1l-8.9,1.4l-1.1-6.9l8.9-1.4
		L652.3,557.1z M634.6,559.9l-8.9,1.4l-1.1-6.9l8.9-1.4L634.6,559.9z M616.8,562.7l-8.9,1.4l-1.1-6.9l8.9-1.4L616.8,562.7z
		 M599,565.5l-8.9,1.4L589,560l8.9-1.4L599,565.5z M581.2,568.3l-8.9,1.4l-1.1-6.9l8.9-1.4L581.2,568.3z M563.5,571.2l-8.9,1.4
		l-1.1-6.9l8.9-1.4L563.5,571.2z M545.7,574l-8.9,1.4l-1.1-6.9l8.9-1.4L545.7,574z M527.9,576.8l-8.9,1.4l-1.1-6.9l8.9-1.4
		L527.9,576.8z M510.1,579.6l-8.9,1.4l-1.1-6.9l8.9-1.4L510.1,579.6z M492.3,582.4l-8.9,1.4l-1.1-6.9l8.9-1.4L492.3,582.4z
		 M474.6,585.2l-8.9,1.4l-1.1-6.9l8.9-1.4L474.6,585.2z M456.8,588.1l-8.9,1.4l-1.1-6.9l8.9-1.4L456.8,588.1z M439,590.9l-8.9,1.4
		l-1.1-6.9l8.9-1.4L439,590.9z M421.2,593.7l-8.9,1.4l-1.1-6.9l8.9-1.4L421.2,593.7z M403.5,596.5l-8.9,1.4l-1.1-6.9l8.9-1.4
		L403.5,596.5z M385.7,599.3l-8.9,1.4l-1.1-6.9l8.9-1.4L385.7,599.3z M367.9,602.1l-8.9,1.4l-1.1-6.9l8.9-1.4L367.9,602.1z
		 M350.1,604.9l-8.9,1.4l-1.1-6.9l8.9-1.4L350.1,604.9z M332.3,607.8l-8.9,1.4l-1.1-6.9l8.9-1.4L332.3,607.8z M314.6,610.6l-8.9,1.4
		l-1.1-6.9l8.9-1.4L314.6,610.6z M296.8,613.4l-8.9,1.4l-1.1-6.9l8.9-1.4L296.8,613.4z M279,616.2l-8.9,1.4l-1.1-6.9l8.9-1.4
		L279,616.2z M261.2,619l-8.9,1.4l-1.1-6.9l8.9-1.4L261.2,619z M243.4,621.8l-8.9,1.4l-1.1-6.9l8.9-1.4L243.4,621.8z M225.7,624.7
		l-8.9,1.4l-1.1-6.9l8.9-1.4L225.7,624.7z M207.9,627.5l-8.9,1.4l-1.1-6.9l8.9-1.4L207.9,627.5z"/>
	<path class="st1" d="M844.3,510.4l-7.8,1.2l-1.1-6.9l7.8-1.2L844.3,510.4z M827.6,513l-8.9,1.4l-1.1-6.9l8.9-1.4L827.6,513z
		 M809.8,515.8l-8.9,1.4l-1.1-6.9l8.9-1.4L809.8,515.8z M792.1,518.7l-8.9,1.4l-1.1-6.9l8.9-1.4L792.1,518.7z M774.3,521.5l-8.9,1.4
		l-1.1-6.9l8.9-1.4L774.3,521.5z M756.5,524.3l-8.9,1.4l-1.1-6.9l8.9-1.4L756.5,524.3z M738.7,527.1l-8.9,1.4l-1.1-6.9l8.9-1.4
		L738.7,527.1z M720.9,529.9l-8.9,1.4l-1.1-6.9l8.9-1.4L720.9,529.9z M703.2,532.7l-8.9,1.4l-1.1-6.9l8.9-1.4L703.2,532.7z
		 M685.4,535.6l-8.9,1.4l-1.1-6.9l8.9-1.4L685.4,535.6z M667.6,538.4l-8.9,1.4l-1.1-6.9l8.9-1.4L667.6,538.4z M649.8,541.2l-8.9,1.4
		l-1.1-6.9l8.9-1.4L649.8,541.2z M632.1,544l-8.9,1.4l-1.1-6.9l8.9-1.4L632.1,544z M614.3,546.8l-8.9,1.4l-1.1-6.9l8.9-1.4
		L614.3,546.8z M596.5,549.6l-8.9,1.4l-1.1-6.9l8.9-1.4L596.5,549.6z M578.7,552.4l-8.9,1.4l-1.1-6.9l8.9-1.4L578.7,552.4z
		 M560.9,555.3l-8.9,1.4l-1.1-6.9l8.9-1.4L560.9,555.3z M543.2,558.1l-8.9,1.4l-1.1-6.9l8.9-1.4L543.2,558.1z M525.4,560.9l-8.9,1.4
		l-1.1-6.9l8.9-1.4L525.4,560.9z M507.6,563.7l-8.9,1.4l-1.1-6.9l8.9-1.4L507.6,563.7z M489.8,566.5l-8.9,1.4l-1.1-6.9l8.9-1.4
		L489.8,566.5z M472,569.3l-8.9,1.4l-1.1-6.9l8.9-1.4L472,569.3z M454.3,572.2l-8.9,1.4l-1.1-6.9l8.9-1.4L454.3,572.2z M436.5,575
		l-8.9,1.4l-1.1-6.9l8.9-1.4L436.5,575z M418.7,577.8l-8.9,1.4l-1.1-6.9l8.9-1.4L418.7,577.8z M400.9,580.6L392,582l-1.1-6.9
		l8.9-1.4L400.9,580.6z M383.2,583.4l-8.9,1.4l-1.1-6.9l8.9-1.4L383.2,583.4z M365.4,586.2l-8.9,1.4l-1.1-6.9l8.9-1.4L365.4,586.2z
		 M347.6,589.1l-8.9,1.4l-1.1-6.9l8.9-1.4L347.6,589.1z M329.8,591.9l-8.9,1.4l-1.1-6.9l8.9-1.4L329.8,591.9z M312,594.7l-8.9,1.4
		l-1.1-6.9l8.9-1.4L312,594.7z M294.3,597.5l-8.9,1.4l-1.1-6.9l8.9-1.4L294.3,597.5z M276.5,600.3l-8.9,1.4l-1.1-6.9l8.9-1.4
		L276.5,600.3z M258.7,603.1l-8.9,1.4l-1.1-6.9l8.9-1.4L258.7,603.1z M240.9,605.9l-8.9,1.4l-1.1-6.9l8.9-1.4L240.9,605.9z
		 M223.1,608.8l-8.9,1.4l-1.1-6.9l8.9-1.4L223.1,608.8z M205.4,611.6l-8.9,1.4l-1.1-6.9l8.9-1.4L205.4,611.6z"/>
	<path class="st1" d="M851.8,558.1l-7.8,1.2l-1.1-6.9l7.8-1.2L851.8,558.1z M835.2,560.7l-8.9,1.4l-1.1-6.9l8.9-1.4L835.2,560.7z
		 M817.4,563.5l-8.9,1.4l-1.1-6.9l8.9-1.4L817.4,563.5z M799.6,566.3l-8.9,1.4l-1.1-6.9l8.9-1.4L799.6,566.3z M781.8,569.2l-8.9,1.4
		l-1.1-6.9l8.9-1.4L781.8,569.2z M764.1,572l-8.9,1.4l-1.1-6.9l8.9-1.4L764.1,572z M746.3,574.8l-8.9,1.4l-1.1-6.9l8.9-1.4
		L746.3,574.8z M728.5,577.6l-8.9,1.4l-1.1-6.9l8.9-1.4L728.5,577.6z M710.7,580.4l-8.9,1.4l-1.1-6.9l8.9-1.4L710.7,580.4z
		 M692.9,583.2l-8.9,1.4l-1.1-6.9l8.9-1.4L692.9,583.2z M675.2,586l-8.9,1.4l-1.1-6.9l8.9-1.4L675.2,586z M657.4,588.9l-8.9,1.4
		l-1.1-6.9l8.9-1.4L657.4,588.9z M639.6,591.7l-8.9,1.4l-1.1-6.9l8.9-1.4L639.6,591.7z M621.8,594.5l-8.9,1.4l-1.1-6.9l8.9-1.4
		L621.8,594.5z M604,597.3l-8.9,1.4l-1.1-6.9l8.9-1.4L604,597.3z M586.3,600.1l-8.9,1.4l-1.1-6.9l8.9-1.4L586.3,600.1z M568.5,602.9
		l-8.9,1.4l-1.1-6.9l8.9-1.4L568.5,602.9z M550.7,605.8l-8.9,1.4l-1.1-6.9l8.9-1.4L550.7,605.8z M532.9,608.6L524,610l-1.1-6.9
		l8.9-1.4L532.9,608.6z M515.2,611.4l-8.9,1.4l-1.1-6.9l8.9-1.4L515.2,611.4z M497.4,614.2l-8.9,1.4l-1.1-6.9l8.9-1.4L497.4,614.2z
		 M479.6,617l-8.9,1.4l-1.1-6.9l8.9-1.4L479.6,617z M461.8,619.8l-8.9,1.4l-1.1-6.9l8.9-1.4L461.8,619.8z M444,622.7l-8.9,1.4
		l-1.1-6.9l8.9-1.4L444,622.7z M426.3,625.5l-8.9,1.4l-1.1-6.9l8.9-1.4L426.3,625.5z M408.5,628.3l-8.9,1.4l-1.1-6.9l8.9-1.4
		L408.5,628.3z M390.7,631.1l-8.9,1.4l-1.1-6.9l8.9-1.4L390.7,631.1z M372.9,633.9l-8.9,1.4l-1.1-6.9l8.9-1.4L372.9,633.9z
		 M355.1,636.7l-8.9,1.4l-1.1-6.9l8.9-1.4L355.1,636.7z M337.4,639.5l-8.9,1.4l-1.1-6.9l8.9-1.4L337.4,639.5z M319.6,642.4l-8.9,1.4
		l-1.1-6.9l8.9-1.4L319.6,642.4z M301.8,645.2l-8.9,1.4l-1.1-6.9l8.9-1.4L301.8,645.2z M284,648l-8.9,1.4l-1.1-6.9l8.9-1.4L284,648z
		 M266.3,650.8l-8.9,1.4l-1.1-6.9l8.9-1.4L266.3,650.8z M248.5,653.6l-8.9,1.4l-1.1-6.9l8.9-1.4L248.5,653.6z M230.7,656.4l-8.9,1.4
		l-1.1-6.9l8.9-1.4L230.7,656.4z M212.9,659.3l-8.9,1.4l-1.1-6.9l8.9-1.4L212.9,659.3z"/>
	<path class="st1" d="M849.3,542.2l-7.8,1.2l-1.1-6.9l7.8-1.2L849.3,542.2z M832.6,544.8l-8.9,1.4l-1.1-6.9l8.9-1.4L832.6,544.8z
		 M814.9,547.6L806,549l-1.1-6.9l8.9-1.4L814.9,547.6z M797.1,550.4l-8.9,1.4l-1.1-6.9l8.9-1.4L797.1,550.4z M779.3,553.3l-8.9,1.4
		l-1.1-6.9l8.9-1.4L779.3,553.3z M761.5,556.1l-8.9,1.4l-1.1-6.9l8.9-1.4L761.5,556.1z M743.8,558.9l-8.9,1.4l-1.1-6.9l8.9-1.4
		L743.8,558.9z M726,561.7l-8.9,1.4l-1.1-6.9l8.9-1.4L726,561.7z M708.2,564.5l-8.9,1.4l-1.1-6.9l8.9-1.4L708.2,564.5z M690.4,567.3
		l-8.9,1.4l-1.1-6.9l8.9-1.4L690.4,567.3z M672.6,570.2l-8.9,1.4l-1.1-6.9l8.9-1.4L672.6,570.2z M654.9,573l-8.9,1.4l-1.1-6.9
		l8.9-1.4L654.9,573z M637.1,575.8l-8.9,1.4l-1.1-6.9l8.9-1.4L637.1,575.8z M619.3,578.6l-8.9,1.4l-1.1-6.9l8.9-1.4L619.3,578.6z
		 M601.5,581.4l-8.9,1.4l-1.1-6.9l8.9-1.4L601.5,581.4z M583.8,584.2l-8.9,1.4l-1.1-6.9l8.9-1.4L583.8,584.2z M566,587.1l-8.9,1.4
		l-1.1-6.9l8.9-1.4L566,587.1z M548.2,589.9l-8.9,1.4l-1.1-6.9l8.9-1.4L548.2,589.9z M530.4,592.7l-8.9,1.4l-1.1-6.9l8.9-1.4
		L530.4,592.7z M512.6,595.5l-8.9,1.4l-1.1-6.9l8.9-1.4L512.6,595.5z M494.9,598.3l-8.9,1.4l-1.1-6.9l8.9-1.4L494.9,598.3z
		 M477.1,601.1l-8.9,1.4l-1.1-6.9l8.9-1.4L477.1,601.1z M459.3,603.9l-8.9,1.4l-1.1-6.9l8.9-1.4L459.3,603.9z M441.5,606.8l-8.9,1.4
		l-1.1-6.9l8.9-1.4L441.5,606.8z M423.7,609.6l-8.9,1.4l-1.1-6.9l8.9-1.4L423.7,609.6z M406,612.4l-8.9,1.4l-1.1-6.9l8.9-1.4
		L406,612.4z M388.2,615.2l-8.9,1.4l-1.1-6.9l8.9-1.4L388.2,615.2z M370.4,618l-8.9,1.4l-1.1-6.9l8.9-1.4L370.4,618z M352.6,620.8
		l-8.9,1.4l-1.1-6.9l8.9-1.4L352.6,620.8z M334.9,623.7l-8.9,1.4l-1.1-6.9l8.9-1.4L334.9,623.7z M317.1,626.5l-8.9,1.4l-1.1-6.9
		l8.9-1.4L317.1,626.5z M299.3,629.3l-8.9,1.4l-1.1-6.9l8.9-1.4L299.3,629.3z M281.5,632.1l-8.9,1.4l-1.1-6.9l8.9-1.4L281.5,632.1z
		 M263.7,634.9l-8.9,1.4l-1.1-6.9l8.9-1.4L263.7,634.9z M246,637.7l-8.9,1.4l-1.1-6.9l8.9-1.4L246,637.7z M228.2,640.6l-8.9,1.4
		l-1.1-6.9l8.9-1.4L228.2,640.6z M210.4,643.4l-8.9,1.4l-1.1-6.9l8.9-1.4L210.4,643.4z"/>
	<path class="st1" d="M856.9,589.9l-7.8,1.2l-1.1-6.9l7.8-1.2L856.9,589.9z M840.2,592.5l-8.9,1.4l-1.1-6.9l8.9-1.4L840.2,592.5z
		 M822.4,595.3l-8.9,1.4l-1.1-6.9l8.9-1.4L822.4,595.3z M804.6,598.1l-8.9,1.4l-1.1-6.9l8.9-1.4L804.6,598.1z M786.9,600.9l-8.9,1.4
		l-1.1-6.9l8.9-1.4L786.9,600.9z M769.1,603.8l-8.9,1.4l-1.1-6.9l8.9-1.4L769.1,603.8z M751.3,606.6l-8.9,1.4l-1.1-6.9l8.9-1.4
		L751.3,606.6z M733.5,609.4l-8.9,1.4l-1.1-6.9l8.9-1.4L733.5,609.4z M715.8,612.2l-8.9,1.4l-1.1-6.9l8.9-1.4L715.8,612.2z M698,615
		l-8.9,1.4l-1.1-6.9l8.9-1.4L698,615z M680.2,617.8l-8.9,1.4l-1.1-6.9l8.9-1.4L680.2,617.8z M662.4,620.7l-8.9,1.4l-1.1-6.9l8.9-1.4
		L662.4,620.7z M644.6,623.5l-8.9,1.4l-1.1-6.9l8.9-1.4L644.6,623.5z M626.9,626.3l-8.9,1.4l-1.1-6.9l8.9-1.4L626.9,626.3z
		 M609.1,629.1l-8.9,1.4l-1.1-6.9l8.9-1.4L609.1,629.1z M591.3,631.9l-8.9,1.4l-1.1-6.9l8.9-1.4L591.3,631.9z M573.5,634.7l-8.9,1.4
		l-1.1-6.9l8.9-1.4L573.5,634.7z M555.7,637.5l-8.9,1.4l-1.1-6.9l8.9-1.4L555.7,637.5z M538,640.4l-8.9,1.4l-1.1-6.9l8.9-1.4
		L538,640.4z M520.2,643.2l-8.9,1.4l-1.1-6.9l8.9-1.4L520.2,643.2z M502.4,646l-8.9,1.4l-1.1-6.9l8.9-1.4L502.4,646z M484.6,648.8
		l-8.9,1.4l-1.1-6.9l8.9-1.4L484.6,648.8z M466.9,651.6L458,653l-1.1-6.9l8.9-1.4L466.9,651.6z M449.1,654.4l-8.9,1.4l-1.1-6.9
		l8.9-1.4L449.1,654.4z M431.3,657.3l-8.9,1.4l-1.1-6.9l8.9-1.4L431.3,657.3z M413.5,660.1l-8.9,1.4l-1.1-6.9l8.9-1.4L413.5,660.1z
		 M395.7,662.9l-8.9,1.4l-1.1-6.9l8.9-1.4L395.7,662.9z M378,665.7l-8.9,1.4l-1.1-6.9l8.9-1.4L378,665.7z M360.2,668.5l-8.9,1.4
		l-1.1-6.9l8.9-1.4L360.2,668.5z M342.4,671.3l-8.9,1.4l-1.1-6.9l8.9-1.4L342.4,671.3z M324.6,674.2l-8.9,1.4l-1.1-6.9l8.9-1.4
		L324.6,674.2z M306.8,677l-8.9,1.4l-1.1-6.9l8.9-1.4L306.8,677z M289.1,679.8l-8.9,1.4l-1.1-6.9l8.9-1.4L289.1,679.8z M271.3,682.6
		l-8.9,1.4l-1.1-6.9l8.9-1.4L271.3,682.6z M253.5,685.4l-8.9,1.4l-1.1-6.9l8.9-1.4L253.5,685.4z M235.7,688.2l-8.9,1.4l-1.1-6.9
		l8.9-1.4L235.7,688.2z M218,691l-8.9,1.4l-1.1-6.9l8.9-1.4L218,691z"/>
	<path class="st1" d="M854.3,574l-7.8,1.2l-1.1-6.9l7.8-1.2L854.3,574z M837.7,576.6l-8.9,1.4l-1.1-6.9l8.9-1.4L837.7,576.6z
		 M819.9,579.4l-8.9,1.4l-1.1-6.9l8.9-1.4L819.9,579.4z M802.1,582.2l-8.9,1.4l-1.1-6.9l8.9-1.4L802.1,582.2z M784.3,585l-8.9,1.4
		l-1.1-6.9l8.9-1.4L784.3,585z M766.6,587.9l-8.9,1.4l-1.1-6.9l8.9-1.4L766.6,587.9z M748.8,590.7l-8.9,1.4l-1.1-6.9l8.9-1.4
		L748.8,590.7z M731,593.5l-8.9,1.4L721,588l8.9-1.4L731,593.5z M713.2,596.3l-8.9,1.4l-1.1-6.9l8.9-1.4L713.2,596.3z M695.5,599.1
		l-8.9,1.4l-1.1-6.9l8.9-1.4L695.5,599.1z M677.7,601.9l-8.9,1.4l-1.1-6.9l8.9-1.4L677.7,601.9z M659.9,604.8l-8.9,1.4l-1.1-6.9
		l8.9-1.4L659.9,604.8z M642.1,607.6l-8.9,1.4l-1.1-6.9l8.9-1.4L642.1,607.6z M624.3,610.4l-8.9,1.4l-1.1-6.9l8.9-1.4L624.3,610.4z
		 M606.6,613.2l-8.9,1.4l-1.1-6.9l8.9-1.4L606.6,613.2z M588.8,616l-8.9,1.4l-1.1-6.9l8.9-1.4L588.8,616z M571,618.8l-8.9,1.4
		l-1.1-6.9l8.9-1.4L571,618.8z M553.2,621.7l-8.9,1.4l-1.1-6.9l8.9-1.4L553.2,621.7z M535.5,624.5l-8.9,1.4l-1.1-6.9l8.9-1.4
		L535.5,624.5z M517.7,627.3l-8.9,1.4l-1.1-6.9l8.9-1.4L517.7,627.3z M499.9,630.1l-8.9,1.4l-1.1-6.9l8.9-1.4L499.9,630.1z
		 M482.1,632.9l-8.9,1.4l-1.1-6.9l8.9-1.4L482.1,632.9z M464.3,635.7l-8.9,1.4l-1.1-6.9l8.9-1.4L464.3,635.7z M446.6,638.5l-8.9,1.4
		l-1.1-6.9l8.9-1.4L446.6,638.5z M428.8,641.4l-8.9,1.4l-1.1-6.9l8.9-1.4L428.8,641.4z M411,644.2l-8.9,1.4l-1.1-6.9l8.9-1.4
		L411,644.2z M393.2,647l-8.9,1.4l-1.1-6.9l8.9-1.4L393.2,647z M375.4,649.8l-8.9,1.4l-1.1-6.9l8.9-1.4L375.4,649.8z M357.7,652.6
		l-8.9,1.4l-1.1-6.9l8.9-1.4L357.7,652.6z M339.9,655.4l-8.9,1.4l-1.1-6.9l8.9-1.4L339.9,655.4z M322.1,658.3l-8.9,1.4l-1.1-6.9
		l8.9-1.4L322.1,658.3z M304.3,661.1l-8.9,1.4l-1.1-6.9l8.9-1.4L304.3,661.1z M286.6,663.9l-8.9,1.4l-1.1-6.9l8.9-1.4L286.6,663.9z
		 M268.8,666.7l-8.9,1.4l-1.1-6.9l8.9-1.4L268.8,666.7z M251,669.5l-8.9,1.4L241,664l8.9-1.4L251,669.5z M233.2,672.3l-8.9,1.4
		l-1.1-6.9l8.9-1.4L233.2,672.3z M215.4,675.2l-8.9,1.4l-1.1-6.9l8.9-1.4L215.4,675.2z"/>
	<path class="st1" d="M861.9,621.7l-7.8,1.2L853,616l7.8-1.2L861.9,621.7z M845.2,624.3l-8.9,1.4l-1.1-6.9l8.9-1.4L845.2,624.3z
		 M827.5,627.2l-8.9,1.4l-1.1-6.9l8.9-1.4L827.5,627.2z M809.7,630l-8.9,1.4l-1.1-6.9l8.9-1.4L809.7,630z M791.9,632.8l-8.9,1.4
		l-1.1-6.9l8.9-1.4L791.9,632.8z M774.1,635.6l-8.9,1.4l-1.1-6.9l8.9-1.4L774.1,635.6z M756.4,638.4l-8.9,1.4l-1.1-6.9l8.9-1.4
		L756.4,638.4z M738.6,641.2l-8.9,1.4l-1.1-6.9l8.9-1.4L738.6,641.2z M720.8,644.1l-8.9,1.4l-1.1-6.9l8.9-1.4L720.8,644.1z
		 M703,646.9l-8.9,1.4l-1.1-6.9l8.9-1.4L703,646.9z M685.2,649.7l-8.9,1.4l-1.1-6.9l8.9-1.4L685.2,649.7z M667.5,652.5l-8.9,1.4
		l-1.1-6.9l8.9-1.4L667.5,652.5z M649.7,655.3l-8.9,1.4l-1.1-6.9l8.9-1.4L649.7,655.3z M631.9,658.1l-8.9,1.4l-1.1-6.9l8.9-1.4
		L631.9,658.1z M614.1,661l-8.9,1.4l-1.1-6.9l8.9-1.4L614.1,661z M596.3,663.8l-8.9,1.4l-1.1-6.9l8.9-1.4L596.3,663.8z M578.6,666.6
		l-8.9,1.4l-1.1-6.9l8.9-1.4L578.6,666.6z M560.8,669.4l-8.9,1.4l-1.1-6.9l8.9-1.4L560.8,669.4z M543,672.2l-8.9,1.4l-1.1-6.9
		l8.9-1.4L543,672.2z M525.2,675l-8.9,1.4l-1.1-6.9l8.9-1.4L525.2,675z M507.5,677.8l-8.9,1.4l-1.1-6.9l8.9-1.4L507.5,677.8z
		 M489.7,680.7l-8.9,1.4l-1.1-6.9l8.9-1.4L489.7,680.7z M471.9,683.5l-8.9,1.4l-1.1-6.9l8.9-1.4L471.9,683.5z M454.1,686.3l-8.9,1.4
		l-1.1-6.9l8.9-1.4L454.1,686.3z M436.3,689.1l-8.9,1.4l-1.1-6.9l8.9-1.4L436.3,689.1z M418.6,691.9l-8.9,1.4l-1.1-6.9l8.9-1.4
		L418.6,691.9z M400.8,694.7l-8.9,1.4l-1.1-6.9l8.9-1.4L400.8,694.7z M383,697.6l-8.9,1.4l-1.1-6.9l8.9-1.4L383,697.6z M365.2,700.4
		l-8.9,1.4l-1.1-6.9l8.9-1.4L365.2,700.4z M347.5,703.2l-8.9,1.4l-1.1-6.9l8.9-1.4L347.5,703.2z M329.7,706l-8.9,1.4l-1.1-6.9
		l8.9-1.4L329.7,706z M311.9,708.8l-8.9,1.4l-1.1-6.9l8.9-1.4L311.9,708.8z M294.1,711.6l-8.9,1.4l-1.1-6.9l8.9-1.4L294.1,711.6z
		 M276.3,714.5l-8.9,1.4l-1.1-6.9l8.9-1.4L276.3,714.5z M258.6,717.3l-8.9,1.4l-1.1-6.9l8.9-1.4L258.6,717.3z M240.8,720.1l-8.9,1.4
		l-1.1-6.9l8.9-1.4L240.8,720.1z M223,722.9l-8.9,1.4l-1.1-6.9l8.9-1.4L223,722.9z"/>
	<path class="st1" d="M859.4,605.8l-7.8,1.2l-1.1-6.9l7.8-1.2L859.4,605.8z M842.7,608.5l-8.9,1.4l-1.1-6.9l8.9-1.4L842.7,608.5z
		 M824.9,611.3l-8.9,1.4l-1.1-6.9l8.9-1.4L824.9,611.3z M807.2,614.1l-8.9,1.4l-1.1-6.9l8.9-1.4L807.2,614.1z M789.4,616.9l-8.9,1.4
		l-1.1-6.9l8.9-1.4L789.4,616.9z M771.6,619.7l-8.9,1.4l-1.1-6.9l8.9-1.4L771.6,619.7z M753.8,622.5l-8.9,1.4l-1.1-6.9l8.9-1.4
		L753.8,622.5z M736.1,625.3l-8.9,1.4l-1.1-6.9l8.9-1.4L736.1,625.3z M718.3,628.2l-8.9,1.4l-1.1-6.9l8.9-1.4L718.3,628.2z
		 M700.5,631l-8.9,1.4l-1.1-6.9l8.9-1.4L700.5,631z M682.7,633.8l-8.9,1.4l-1.1-6.9l8.9-1.4L682.7,633.8z M664.9,636.6l-8.9,1.4
		l-1.1-6.9l8.9-1.4L664.9,636.6z M647.2,639.4l-8.9,1.4l-1.1-6.9l8.9-1.4L647.2,639.4z M629.4,642.2l-8.9,1.4l-1.1-6.9l8.9-1.4
		L629.4,642.2z M611.6,645.1l-8.9,1.4l-1.1-6.9l8.9-1.4L611.6,645.1z M593.8,647.9l-8.9,1.4l-1.1-6.9l8.9-1.4L593.8,647.9z
		 M576.1,650.7l-8.9,1.4l-1.1-6.9l8.9-1.4L576.1,650.7z M558.3,653.5l-8.9,1.4l-1.1-6.9l8.9-1.4L558.3,653.5z M540.5,656.3l-8.9,1.4
		l-1.1-6.9l8.9-1.4L540.5,656.3z M522.7,659.1l-8.9,1.4l-1.1-6.9l8.9-1.4L522.7,659.1z M504.9,662l-8.9,1.4l-1.1-6.9l8.9-1.4
		L504.9,662z M487.2,664.8l-8.9,1.4l-1.1-6.9l8.9-1.4L487.2,664.8z M469.4,667.6l-8.9,1.4l-1.1-6.9l8.9-1.4L469.4,667.6z
		 M451.6,670.4l-8.9,1.4l-1.1-6.9l8.9-1.4L451.6,670.4z M433.8,673.2l-8.9,1.4l-1.1-6.9l8.9-1.4L433.8,673.2z M416,676l-8.9,1.4
		l-1.1-6.9l8.9-1.4L416,676z M398.3,678.9l-8.9,1.4l-1.1-6.9l8.9-1.4L398.3,678.9z M380.5,681.7l-8.9,1.4l-1.1-6.9l8.9-1.4
		L380.5,681.7z M362.7,684.5l-8.9,1.4l-1.1-6.9l8.9-1.4L362.7,684.5z M344.9,687.3l-8.9,1.4l-1.1-6.9l8.9-1.4L344.9,687.3z
		 M327.2,690.1l-8.9,1.4l-1.1-6.9l8.9-1.4L327.2,690.1z M309.4,692.9l-8.9,1.4l-1.1-6.9l8.9-1.4L309.4,692.9z M291.6,695.7l-8.9,1.4
		l-1.1-6.9l8.9-1.4L291.6,695.7z M273.8,698.6l-8.9,1.4l-1.1-6.9l8.9-1.4L273.8,698.6z M256,701.4l-8.9,1.4l-1.1-6.9l8.9-1.4
		L256,701.4z M238.3,704.2l-8.9,1.4l-1.1-6.9l8.9-1.4L238.3,704.2z M220.5,707l-8.9,1.4l-1.1-6.9l8.9-1.4L220.5,707z"/>
	<path class="st1" d="M866.9,653.5l-7.8,1.2l-1.1-6.9l7.8-1.2L866.9,653.5z M850.3,656.1l-8.9,1.4l-1.1-6.9l8.9-1.4L850.3,656.1z
		 M832.5,659l-8.9,1.4l-1.1-6.9l8.9-1.4L832.5,659z M814.7,661.8l-8.9,1.4l-1.1-6.9l8.9-1.4L814.7,661.8z M796.9,664.6l-8.9,1.4
		l-1.1-6.9l8.9-1.4L796.9,664.6z M779.2,667.4l-8.9,1.4l-1.1-6.9l8.9-1.4L779.2,667.4z M761.4,670.2l-8.9,1.4l-1.1-6.9l8.9-1.4
		L761.4,670.2z M743.6,673l-8.9,1.4l-1.1-6.9l8.9-1.4L743.6,673z M725.8,675.8l-8.9,1.4l-1.1-6.9l8.9-1.4L725.8,675.8z M708.1,678.7
		l-8.9,1.4l-1.1-6.9l8.9-1.4L708.1,678.7z M690.3,681.5l-8.9,1.4l-1.1-6.9l8.9-1.4L690.3,681.5z M672.5,684.3l-8.9,1.4l-1.1-6.9
		l8.9-1.4L672.5,684.3z M654.7,687.1l-8.9,1.4l-1.1-6.9l8.9-1.4L654.7,687.1z M636.9,689.9l-8.9,1.4l-1.1-6.9l8.9-1.4L636.9,689.9z
		 M619.2,692.7l-8.9,1.4l-1.1-6.9l8.9-1.4L619.2,692.7z M601.4,695.6l-8.9,1.4l-1.1-6.9l8.9-1.4L601.4,695.6z M583.6,698.4l-8.9,1.4
		l-1.1-6.9l8.9-1.4L583.6,698.4z M565.8,701.2l-8.9,1.4l-1.1-6.9l8.9-1.4L565.8,701.2z M548,704l-8.9,1.4l-1.1-6.9l8.9-1.4L548,704z
		 M530.3,706.8l-8.9,1.4l-1.1-6.9l8.9-1.4L530.3,706.8z M512.5,709.6l-8.9,1.4l-1.1-6.9l8.9-1.4L512.5,709.6z M494.7,712.5l-8.9,1.4
		l-1.1-6.9l8.9-1.4L494.7,712.5z M476.9,715.3l-8.9,1.4l-1.1-6.9l8.9-1.4L476.9,715.3z M459.2,718.1l-8.9,1.4l-1.1-6.9l8.9-1.4
		L459.2,718.1z M441.4,720.9l-8.9,1.4l-1.1-6.9l8.9-1.4L441.4,720.9z M423.6,723.7l-8.9,1.4l-1.1-6.9l8.9-1.4L423.6,723.7z
		 M405.8,726.5l-8.9,1.4l-1.1-6.9l8.9-1.4L405.8,726.5z M388,729.3l-8.9,1.4l-1.1-6.9l8.9-1.4L388,729.3z M370.3,732.2l-8.9,1.4
		l-1.1-6.9l8.9-1.4L370.3,732.2z M352.5,735l-8.9,1.4l-1.1-6.9l8.9-1.4L352.5,735z M334.7,737.8l-8.9,1.4l-1.1-6.9l8.9-1.4
		L334.7,737.8z M316.9,740.6L308,742l-1.1-6.9l8.9-1.4L316.9,740.6z M299.2,743.4l-8.9,1.4l-1.1-6.9l8.9-1.4L299.2,743.4z
		 M281.4,746.2l-8.9,1.4l-1.1-6.9l8.9-1.4L281.4,746.2z M263.6,749.1l-8.9,1.4l-1.1-6.9l8.9-1.4L263.6,749.1z M245.8,751.9l-8.9,1.4
		l-1.1-6.9l8.9-1.4L245.8,751.9z M228,754.7l-8.9,1.4l-1.1-6.9l8.9-1.4L228,754.7z"/>
	<path class="st1" d="M864.4,637.6l-7.8,1.2l-1.1-6.9l7.8-1.2L864.4,637.6z M847.8,640.2l-8.9,1.4l-1.1-6.9l8.9-1.4L847.8,640.2z
		 M830,643.1l-8.9,1.4l-1.1-6.9l8.9-1.4L830,643.1z M812.2,645.9l-8.9,1.4l-1.1-6.9l8.9-1.4L812.2,645.9z M794.4,648.7l-8.9,1.4
		l-1.1-6.9l8.9-1.4L794.4,648.7z M776.6,651.5l-8.9,1.4l-1.1-6.9l8.9-1.4L776.6,651.5z M758.9,654.3l-8.9,1.4l-1.1-6.9l8.9-1.4
		L758.9,654.3z M741.1,657.1l-8.9,1.4l-1.1-6.9l8.9-1.4L741.1,657.1z M723.3,660l-8.9,1.4l-1.1-6.9l8.9-1.4L723.3,660z M705.5,662.8
		l-8.9,1.4l-1.1-6.9l8.9-1.4L705.5,662.8z M687.8,665.6l-8.9,1.4l-1.1-6.9l8.9-1.4L687.8,665.6z M670,668.4l-8.9,1.4l-1.1-6.9
		l8.9-1.4L670,668.4z M652.2,671.2l-8.9,1.4l-1.1-6.9l8.9-1.4L652.2,671.2z M634.4,674l-8.9,1.4l-1.1-6.9l8.9-1.4L634.4,674z
		 M616.6,676.8l-8.9,1.4l-1.1-6.9l8.9-1.4L616.6,676.8z M598.9,679.7l-8.9,1.4l-1.1-6.9l8.9-1.4L598.9,679.7z M581.1,682.5l-8.9,1.4
		l-1.1-6.9l8.9-1.4L581.1,682.5z M563.3,685.3l-8.9,1.4l-1.1-6.9l8.9-1.4L563.3,685.3z M545.5,688.1l-8.9,1.4l-1.1-6.9l8.9-1.4
		L545.5,688.1z M527.8,690.9l-8.9,1.4l-1.1-6.9l8.9-1.4L527.8,690.9z M510,693.7l-8.9,1.4l-1.1-6.9l8.9-1.4L510,693.7z M492.2,696.6
		l-8.9,1.4l-1.1-6.9l8.9-1.4L492.2,696.6z M474.4,699.4l-8.9,1.4l-1.1-6.9l8.9-1.4L474.4,699.4z M456.6,702.2l-8.9,1.4l-1.1-6.9
		l8.9-1.4L456.6,702.2z M438.9,705l-8.9,1.4l-1.1-6.9l8.9-1.4L438.9,705z M421.1,707.8l-8.9,1.4l-1.1-6.9l8.9-1.4L421.1,707.8z
		 M403.3,710.6l-8.9,1.4l-1.1-6.9l8.9-1.4L403.3,710.6z M385.5,713.5l-8.9,1.4l-1.1-6.9l8.9-1.4L385.5,713.5z M367.7,716.3l-8.9,1.4
		l-1.1-6.9l8.9-1.4L367.7,716.3z M350,719.1l-8.9,1.4l-1.1-6.9l8.9-1.4L350,719.1z M332.2,721.9l-8.9,1.4l-1.1-6.9l8.9-1.4
		L332.2,721.9z M314.4,724.7l-8.9,1.4l-1.1-6.9l8.9-1.4L314.4,724.7z M296.6,727.5l-8.9,1.4l-1.1-6.9l8.9-1.4L296.6,727.5z
		 M278.9,730.3l-8.9,1.4l-1.1-6.9l8.9-1.4L278.9,730.3z M261.1,733.2l-8.9,1.4l-1.1-6.9l8.9-1.4L261.1,733.2z M243.3,736l-8.9,1.4
		l-1.1-6.9l8.9-1.4L243.3,736z M225.5,738.8l-8.9,1.4l-1.1-6.9l8.9-1.4L225.5,738.8z"/>
	<path class="st1" d="M871.7,683.4l-7.8,1.2l-1.1-6.9l7.8-1.2L871.7,683.4z M855,686.1l-8.9,1.4l-1.1-6.9l8.9-1.4L855,686.1z
		 M837.2,688.9l-8.9,1.4l-1.1-6.9l8.9-1.4L837.2,688.9z M819.5,691.7l-8.9,1.4l-1.1-6.9l8.9-1.4L819.5,691.7z M801.7,694.5l-8.9,1.4
		l-1.1-6.9l8.9-1.4L801.7,694.5z M783.9,697.3l-8.9,1.4l-1.1-6.9l8.9-1.4L783.9,697.3z M766.1,700.1l-8.9,1.4l-1.1-6.9l8.9-1.4
		L766.1,700.1z M748.3,702.9l-8.9,1.4l-1.1-6.9l8.9-1.4L748.3,702.9z M730.6,705.8l-8.9,1.4l-1.1-6.9l8.9-1.4L730.6,705.8z
		 M712.8,708.6l-8.9,1.4l-1.1-6.9l8.9-1.4L712.8,708.6z M695,711.4l-8.9,1.4l-1.1-6.9l8.9-1.4L695,711.4z M677.2,714.2l-8.9,1.4
		l-1.1-6.9l8.9-1.4L677.2,714.2z M659.5,717l-8.9,1.4l-1.1-6.9l8.9-1.4L659.5,717z M641.7,719.8l-8.9,1.4l-1.1-6.9l8.9-1.4
		L641.7,719.8z M623.9,722.7l-8.9,1.4l-1.1-6.9l8.9-1.4L623.9,722.7z M606.1,725.5l-8.9,1.4l-1.1-6.9l8.9-1.4L606.1,725.5z
		 M588.3,728.3l-8.9,1.4l-1.1-6.9l8.9-1.4L588.3,728.3z M570.6,731.1l-8.9,1.4l-1.1-6.9l8.9-1.4L570.6,731.1z M552.8,733.9l-8.9,1.4
		l-1.1-6.9l8.9-1.4L552.8,733.9z M535,736.7l-8.9,1.4l-1.1-6.9l8.9-1.4L535,736.7z M517.2,739.6l-8.9,1.4l-1.1-6.9l8.9-1.4
		L517.2,739.6z M499.5,742.4l-8.9,1.4l-1.1-6.9l8.9-1.4L499.5,742.4z M481.7,745.2l-8.9,1.4l-1.1-6.9l8.9-1.4L481.7,745.2z
		 M463.9,748l-8.9,1.4l-1.1-6.9l8.9-1.4L463.9,748z M446.1,750.8l-8.9,1.4l-1.1-6.9l8.9-1.4L446.1,750.8z M428.3,753.6l-8.9,1.4
		l-1.1-6.9l8.9-1.4L428.3,753.6z M410.6,756.4l-8.9,1.4l-1.1-6.9l8.9-1.4L410.6,756.4z M392.8,759.3l-8.9,1.4l-1.1-6.9l8.9-1.4
		L392.8,759.3z M375,762.1l-8.9,1.4l-1.1-6.9l8.9-1.4L375,762.1z M357.2,764.9l-8.9,1.4l-1.1-6.9l8.9-1.4L357.2,764.9z M339.4,767.7
		l-8.9,1.4l-1.1-6.9l8.9-1.4L339.4,767.7z M321.7,770.5l-8.9,1.4l-1.1-6.9l8.9-1.4L321.7,770.5z M303.9,773.3l-8.9,1.4l-1.1-6.9
		l8.9-1.4L303.9,773.3z M286.1,776.2l-8.9,1.4l-1.1-6.9l8.9-1.4L286.1,776.2z M268.3,779l-8.9,1.4l-1.1-6.9l8.9-1.4L268.3,779z
		 M250.6,781.8l-8.9,1.4l-1.1-6.9l8.9-1.4L250.6,781.8z M232.8,784.6l-8.9,1.4l-1.1-6.9l8.9-1.4L232.8,784.6z"/>
	<path class="st1" d="M869.2,667.5l-7.8,1.2l-1.1-6.9l7.8-1.2L869.2,667.5z M852.5,670.2l-8.9,1.4l-1.1-6.9l8.9-1.4L852.5,670.2z
		 M834.7,673l-8.9,1.4l-1.1-6.9l8.9-1.4L834.7,673z M816.9,675.8l-8.9,1.4l-1.1-6.9l8.9-1.4L816.9,675.8z M799.2,678.6l-8.9,1.4
		l-1.1-6.9l8.9-1.4L799.2,678.6z M781.4,681.4l-8.9,1.4l-1.1-6.9l8.9-1.4L781.4,681.4z M763.6,684.2l-8.9,1.4l-1.1-6.9l8.9-1.4
		L763.6,684.2z M745.8,687.1l-8.9,1.4l-1.1-6.9l8.9-1.4L745.8,687.1z M728.1,689.9l-8.9,1.4l-1.1-6.9l8.9-1.4L728.1,689.9z
		 M710.3,692.7l-8.9,1.4l-1.1-6.9l8.9-1.4L710.3,692.7z M692.5,695.5l-8.9,1.4l-1.1-6.9l8.9-1.4L692.5,695.5z M674.7,698.3l-8.9,1.4
		l-1.1-6.9l8.9-1.4L674.7,698.3z M656.9,701.1l-8.9,1.4l-1.1-6.9l8.9-1.4L656.9,701.1z M639.2,703.9l-8.9,1.4l-1.1-6.9l8.9-1.4
		L639.2,703.9z M621.4,706.8l-8.9,1.4l-1.1-6.9l8.9-1.4L621.4,706.8z M603.6,709.6l-8.9,1.4l-1.1-6.9l8.9-1.4L603.6,709.6z
		 M585.8,712.4l-8.9,1.4l-1.1-6.9l8.9-1.4L585.8,712.4z M568,715.2l-8.9,1.4l-1.1-6.9l8.9-1.4L568,715.2z M550.3,718l-8.9,1.4
		l-1.1-6.9l8.9-1.4L550.3,718z M532.5,720.8l-8.9,1.4l-1.1-6.9l8.9-1.4L532.5,720.8z M514.7,723.7l-8.9,1.4l-1.1-6.9l8.9-1.4
		L514.7,723.7z M496.9,726.5l-8.9,1.4l-1.1-6.9l8.9-1.4L496.9,726.5z M479.2,729.3l-8.9,1.4l-1.1-6.9l8.9-1.4L479.2,729.3z
		 M461.4,732.1l-8.9,1.4l-1.1-6.9l8.9-1.4L461.4,732.1z M443.6,734.9l-8.9,1.4l-1.1-6.9l8.9-1.4L443.6,734.9z M425.8,737.7l-8.9,1.4
		l-1.1-6.9l8.9-1.4L425.8,737.7z M408,740.6l-8.9,1.4l-1.1-6.9l8.9-1.4L408,740.6z M390.3,743.4l-8.9,1.4l-1.1-6.9l8.9-1.4
		L390.3,743.4z M372.5,746.2l-8.9,1.4l-1.1-6.9l8.9-1.4L372.5,746.2z M354.7,749l-8.9,1.4l-1.1-6.9l8.9-1.4L354.7,749z M336.9,751.8
		l-8.9,1.4l-1.1-6.9l8.9-1.4L336.9,751.8z M319.1,754.6l-8.9,1.4l-1.1-6.9l8.9-1.4L319.1,754.6z M301.4,757.4l-8.9,1.4l-1.1-6.9
		l8.9-1.4L301.4,757.4z M283.6,760.3l-8.9,1.4l-1.1-6.9l8.9-1.4L283.6,760.3z M265.8,763.1l-8.9,1.4l-1.1-6.9l8.9-1.4L265.8,763.1z
		 M248,765.9l-8.9,1.4l-1.1-6.9l8.9-1.4L248,765.9z M230.3,768.7l-8.9,1.4l-1.1-6.9l8.9-1.4L230.3,768.7z"/>
	<path class="st1" d="M876.7,715.2l-7.8,1.2l-1.1-6.9l7.8-1.2L876.7,715.2z M860.1,717.8l-8.9,1.4l-1.1-6.9l8.9-1.4L860.1,717.8z
		 M842.3,720.7l-8.9,1.4l-1.1-6.9l8.9-1.4L842.3,720.7z M824.5,723.5l-8.9,1.4l-1.1-6.9l8.9-1.4L824.5,723.5z M806.7,726.3l-8.9,1.4
		l-1.1-6.9l8.9-1.4L806.7,726.3z M788.9,729.1l-8.9,1.4l-1.1-6.9l8.9-1.4L788.9,729.1z M771.2,731.9l-8.9,1.4l-1.1-6.9l8.9-1.4
		L771.2,731.9z M753.4,734.7l-8.9,1.4l-1.1-6.9l8.9-1.4L753.4,734.7z M735.6,737.5l-8.9,1.4l-1.1-6.9l8.9-1.4L735.6,737.5z
		 M717.8,740.4l-8.9,1.4l-1.1-6.9l8.9-1.4L717.8,740.4z M700,743.2l-8.9,1.4l-1.1-6.9l8.9-1.4L700,743.2z M682.3,746l-8.9,1.4
		l-1.1-6.9l8.9-1.4L682.3,746z M664.5,748.8l-8.9,1.4l-1.1-6.9l8.9-1.4L664.5,748.8z M646.7,751.6l-8.9,1.4l-1.1-6.9l8.9-1.4
		L646.7,751.6z M628.9,754.4l-8.9,1.4l-1.1-6.9l8.9-1.4L628.9,754.4z M611.2,757.3l-8.9,1.4l-1.1-6.9l8.9-1.4L611.2,757.3z
		 M593.4,760.1l-8.9,1.4l-1.1-6.9l8.9-1.4L593.4,760.1z M575.6,762.9l-8.9,1.4l-1.1-6.9l8.9-1.4L575.6,762.9z M557.8,765.7l-8.9,1.4
		l-1.1-6.9l8.9-1.4L557.8,765.7z M540,768.5l-8.9,1.4l-1.1-6.9l8.9-1.4L540,768.5z M522.3,771.3l-8.9,1.4l-1.1-6.9l8.9-1.4
		L522.3,771.3z M504.5,774.2l-8.9,1.4l-1.1-6.9l8.9-1.4L504.5,774.2z M486.7,777l-8.9,1.4l-1.1-6.9l8.9-1.4L486.7,777z M468.9,779.8
		l-8.9,1.4l-1.1-6.9l8.9-1.4L468.9,779.8z M451.2,782.6l-8.9,1.4l-1.1-6.9l8.9-1.4L451.2,782.6z M433.4,785.4l-8.9,1.4l-1.1-6.9
		l8.9-1.4L433.4,785.4z M415.6,788.2l-8.9,1.4l-1.1-6.9l8.9-1.4L415.6,788.2z M397.8,791l-8.9,1.4l-1.1-6.9l8.9-1.4L397.8,791z
		 M380,793.9l-8.9,1.4l-1.1-6.9l8.9-1.4L380,793.9z M362.3,796.7l-8.9,1.4l-1.1-6.9l8.9-1.4L362.3,796.7z M344.5,799.5l-8.9,1.4
		l-1.1-6.9l8.9-1.4L344.5,799.5z M326.7,802.3l-8.9,1.4l-1.1-6.9l8.9-1.4L326.7,802.3z M308.9,805.1l-8.9,1.4l-1.1-6.9l8.9-1.4
		L308.9,805.1z M291.1,807.9l-8.9,1.4l-1.1-6.9l8.9-1.4L291.1,807.9z M273.4,810.8l-8.9,1.4l-1.1-6.9l8.9-1.4L273.4,810.8z
		 M255.6,813.6l-8.9,1.4l-1.1-6.9l8.9-1.4L255.6,813.6z M237.8,816.4l-8.9,1.4l-1.1-6.9l8.9-1.4L237.8,816.4z"/>
	<path class="st1" d="M874.2,699.3l-7.8,1.2l-1.1-6.9l7.8-1.2L874.2,699.3z M857.5,701.9l-8.9,1.4l-1.1-6.9l8.9-1.4L857.5,701.9z
		 M839.8,704.8l-8.9,1.4l-1.1-6.9l8.9-1.4L839.8,704.8z M822,707.6l-8.9,1.4l-1.1-6.9l8.9-1.4L822,707.6z M804.2,710.4l-8.9,1.4
		l-1.1-6.9l8.9-1.4L804.2,710.4z M786.4,713.2l-8.9,1.4l-1.1-6.9l8.9-1.4L786.4,713.2z M768.6,716l-8.9,1.4l-1.1-6.9l8.9-1.4
		L768.6,716z M750.9,718.8l-8.9,1.4l-1.1-6.9l8.9-1.4L750.9,718.8z M733.1,721.7l-8.9,1.4l-1.1-6.9l8.9-1.4L733.1,721.7z
		 M715.3,724.5l-8.9,1.4l-1.1-6.9l8.9-1.4L715.3,724.5z M697.5,727.3l-8.9,1.4l-1.1-6.9l8.9-1.4L697.5,727.3z M679.8,730.1l-8.9,1.4
		l-1.1-6.9l8.9-1.4L679.8,730.1z M662,732.9l-8.9,1.4l-1.1-6.9l8.9-1.4L662,732.9z M644.2,735.7l-8.9,1.4l-1.1-6.9l8.9-1.4
		L644.2,735.7z M626.4,738.6l-8.9,1.4l-1.1-6.9l8.9-1.4L626.4,738.6z M608.6,741.4l-8.9,1.4l-1.1-6.9l8.9-1.4L608.6,741.4z
		 M590.9,744.2l-8.9,1.4l-1.1-6.9l8.9-1.4L590.9,744.2z M573.1,747l-8.9,1.4l-1.1-6.9l8.9-1.4L573.1,747z M555.3,749.8l-8.9,1.4
		l-1.1-6.9l8.9-1.4L555.3,749.8z M537.5,752.6l-8.9,1.4l-1.1-6.9l8.9-1.4L537.5,752.6z M519.7,755.4l-8.9,1.4l-1.1-6.9l8.9-1.4
		L519.7,755.4z M502,758.3l-8.9,1.4l-1.1-6.9l8.9-1.4L502,758.3z M484.2,761.1l-8.9,1.4l-1.1-6.9l8.9-1.4L484.2,761.1z M466.4,763.9
		l-8.9,1.4l-1.1-6.9l8.9-1.4L466.4,763.9z M448.6,766.7l-8.9,1.4l-1.1-6.9l8.9-1.4L448.6,766.7z M430.9,769.5l-8.9,1.4l-1.1-6.9
		l8.9-1.4L430.9,769.5z M413.1,772.3l-8.9,1.4l-1.1-6.9l8.9-1.4L413.1,772.3z M395.3,775.2l-8.9,1.4l-1.1-6.9l8.9-1.4L395.3,775.2z
		 M377.5,778l-8.9,1.4l-1.1-6.9l8.9-1.4L377.5,778z M359.7,780.8l-8.9,1.4l-1.1-6.9l8.9-1.4L359.7,780.8z M342,783.6l-8.9,1.4
		l-1.1-6.9l8.9-1.4L342,783.6z M324.2,786.4l-8.9,1.4l-1.1-6.9l8.9-1.4L324.2,786.4z M306.4,789.2l-8.9,1.4l-1.1-6.9l8.9-1.4
		L306.4,789.2z M288.6,792.1l-8.9,1.4l-1.1-6.9l8.9-1.4L288.6,792.1z M270.8,794.9l-8.9,1.4l-1.1-6.9l8.9-1.4L270.8,794.9z
		 M253.1,797.7l-8.9,1.4l-1.1-6.9l8.9-1.4L253.1,797.7z M235.3,800.5l-8.9,1.4l-1.1-6.9l8.9-1.4L235.3,800.5z"/>
	<path class="st1" d="M881.7,747.1l-7.8,1.2l-1.1-6.9l7.8-1.2L881.7,747.1z M865.1,749.7l-8.9,1.4l-1.1-6.9l8.9-1.4L865.1,749.7z
		 M847.3,752.5l-8.9,1.4l-1.1-6.9l8.9-1.4L847.3,752.5z M829.5,755.3l-8.9,1.4l-1.1-6.9l8.9-1.4L829.5,755.3z M811.8,758.1l-8.9,1.4
		l-1.1-6.9l8.9-1.4L811.8,758.1z M794,761l-8.9,1.4l-1.1-6.9l8.9-1.4L794,761z M776.2,763.8l-8.9,1.4l-1.1-6.9l8.9-1.4L776.2,763.8z
		 M758.4,766.6l-8.9,1.4l-1.1-6.9l8.9-1.4L758.4,766.6z M740.6,769.4l-8.9,1.4l-1.1-6.9l8.9-1.4L740.6,769.4z M722.9,772.2l-8.9,1.4
		l-1.1-6.9l8.9-1.4L722.9,772.2z M705.1,775l-8.9,1.4l-1.1-6.9l8.9-1.4L705.1,775z M687.3,777.9l-8.9,1.4l-1.1-6.9l8.9-1.4
		L687.3,777.9z M669.5,780.7l-8.9,1.4l-1.1-6.9l8.9-1.4L669.5,780.7z M651.8,783.5l-8.9,1.4l-1.1-6.9l8.9-1.4L651.8,783.5z
		 M634,786.3l-8.9,1.4l-1.1-6.9l8.9-1.4L634,786.3z M616.2,789.1l-8.9,1.4l-1.1-6.9l8.9-1.4L616.2,789.1z M598.4,791.9l-8.9,1.4
		l-1.1-6.9l8.9-1.4L598.4,791.9z M580.6,794.7l-8.9,1.4l-1.1-6.9l8.9-1.4L580.6,794.7z M562.9,797.6L554,799l-1.1-6.9l8.9-1.4
		L562.9,797.6z M545.1,800.4l-8.9,1.4l-1.1-6.9l8.9-1.4L545.1,800.4z M527.3,803.2l-8.9,1.4l-1.1-6.9l8.9-1.4L527.3,803.2z
		 M509.5,806l-8.9,1.4l-1.1-6.9l8.9-1.4L509.5,806z M491.8,808.8l-8.9,1.4l-1.1-6.9l8.9-1.4L491.8,808.8z M474,811.6l-8.9,1.4
		l-1.1-6.9l8.9-1.4L474,811.6z M456.2,814.5l-8.9,1.4l-1.1-6.9l8.9-1.4L456.2,814.5z M438.4,817.3l-8.9,1.4l-1.1-6.9l8.9-1.4
		L438.4,817.3z M420.6,820.1l-8.9,1.4l-1.1-6.9l8.9-1.4L420.6,820.1z M402.9,822.9l-8.9,1.4l-1.1-6.9l8.9-1.4L402.9,822.9z
		 M385.1,825.7l-8.9,1.4l-1.1-6.9l8.9-1.4L385.1,825.7z M367.3,828.5l-8.9,1.4l-1.1-6.9l8.9-1.4L367.3,828.5z M349.5,831.4l-8.9,1.4
		l-1.1-6.9l8.9-1.4L349.5,831.4z M331.7,834.2l-8.9,1.4l-1.1-6.9l8.9-1.4L331.7,834.2z M314,837l-8.9,1.4l-1.1-6.9l8.9-1.4L314,837z
		 M296.2,839.8l-8.9,1.4l-1.1-6.9l8.9-1.4L296.2,839.8z M278.4,842.6l-8.9,1.4l-1.1-6.9l8.9-1.4L278.4,842.6z M260.6,845.4l-8.9,1.4
		l-1.1-6.9l8.9-1.4L260.6,845.4z M242.9,848.2l-8.9,1.4l-1.1-6.9l8.9-1.4L242.9,848.2z"/>
	<path class="st1" d="M879.2,731.2l-7.8,1.2l-1.1-6.9l7.8-1.2L879.2,731.2z M862.6,733.8l-8.9,1.4l-1.1-6.9l8.9-1.4L862.6,733.8z
		 M844.8,736.6l-8.9,1.4l-1.1-6.9l8.9-1.4L844.8,736.6z M827,739.4l-8.9,1.4l-1.1-6.9l8.9-1.4L827,739.4z M809.2,742.2l-8.9,1.4
		l-1.1-6.9l8.9-1.4L809.2,742.2z M791.5,745.1l-8.9,1.4l-1.1-6.9l8.9-1.4L791.5,745.1z M773.7,747.9l-8.9,1.4l-1.1-6.9l8.9-1.4
		L773.7,747.9z M755.9,750.7l-8.9,1.4l-1.1-6.9l8.9-1.4L755.9,750.7z M738.1,753.5l-8.9,1.4l-1.1-6.9l8.9-1.4L738.1,753.5z
		 M720.4,756.3l-8.9,1.4l-1.1-6.9l8.9-1.4L720.4,756.3z M702.6,759.1l-8.9,1.4l-1.1-6.9l8.9-1.4L702.6,759.1z M684.8,762l-8.9,1.4
		l-1.1-6.9l8.9-1.4L684.8,762z M667,764.8l-8.9,1.4l-1.1-6.9l8.9-1.4L667,764.8z M649.2,767.6l-8.9,1.4l-1.1-6.9l8.9-1.4
		L649.2,767.6z M631.5,770.4l-8.9,1.4l-1.1-6.9l8.9-1.4L631.5,770.4z M613.7,773.2l-8.9,1.4l-1.1-6.9l8.9-1.4L613.7,773.2z
		 M595.9,776l-8.9,1.4l-1.1-6.9l8.9-1.4L595.9,776z M578.1,778.9l-8.9,1.4l-1.1-6.9l8.9-1.4L578.1,778.9z M560.3,781.7l-8.9,1.4
		l-1.1-6.9l8.9-1.4L560.3,781.7z M542.6,784.5l-8.9,1.4l-1.1-6.9l8.9-1.4L542.6,784.5z M524.8,787.3l-8.9,1.4l-1.1-6.9l8.9-1.4
		L524.8,787.3z M507,790.1l-8.9,1.4l-1.1-6.9l8.9-1.4L507,790.1z M489.2,792.9l-8.9,1.4l-1.1-6.9l8.9-1.4L489.2,792.9z M471.5,795.7
		l-8.9,1.4l-1.1-6.9l8.9-1.4L471.5,795.7z M453.7,798.6l-8.9,1.4l-1.1-6.9l8.9-1.4L453.7,798.6z M435.9,801.4l-8.9,1.4l-1.1-6.9
		l8.9-1.4L435.9,801.4z M418.1,804.2l-8.9,1.4l-1.1-6.9l8.9-1.4L418.1,804.2z M400.3,807l-8.9,1.4l-1.1-6.9l8.9-1.4L400.3,807z
		 M382.6,809.8l-8.9,1.4l-1.1-6.9l8.9-1.4L382.6,809.8z M364.8,812.6l-8.9,1.4l-1.1-6.9l8.9-1.4L364.8,812.6z M347,815.5l-8.9,1.4
		L337,810l8.9-1.4L347,815.5z M329.2,818.3l-8.9,1.4l-1.1-6.9l8.9-1.4L329.2,818.3z M311.5,821.1l-8.9,1.4l-1.1-6.9l8.9-1.4
		L311.5,821.1z M293.7,823.9l-8.9,1.4l-1.1-6.9l8.9-1.4L293.7,823.9z M275.9,826.7l-8.9,1.4l-1.1-6.9l8.9-1.4L275.9,826.7z
		 M258.1,829.5l-8.9,1.4l-1.1-6.9l8.9-1.4L258.1,829.5z M240.3,832.4l-8.9,1.4l-1.1-6.9l8.9-1.4L240.3,832.4z"/>
	<path class="st1" d="M886.8,778.8l-7.8,1.2l-1.1-6.9l7.8-1.2L886.8,778.8z M870.1,781.5l-8.9,1.4l-1.1-6.9l8.9-1.4L870.1,781.5z
		 M852.4,784.3l-8.9,1.4l-1.1-6.9l8.9-1.4L852.4,784.3z M834.6,787.1l-8.9,1.4l-1.1-6.9l8.9-1.4L834.6,787.1z M816.8,789.9l-8.9,1.4
		l-1.1-6.9l8.9-1.4L816.8,789.9z M799,792.7l-8.9,1.4l-1.1-6.9l8.9-1.4L799,792.7z M781.2,795.6l-8.9,1.4l-1.1-6.9l8.9-1.4
		L781.2,795.6z M763.5,798.4l-8.9,1.4l-1.1-6.9l8.9-1.4L763.5,798.4z M745.7,801.2l-8.9,1.4l-1.1-6.9l8.9-1.4L745.7,801.2z
		 M727.9,804l-8.9,1.4l-1.1-6.9l8.9-1.4L727.9,804z M710.1,806.8l-8.9,1.4l-1.1-6.9l8.9-1.4L710.1,806.8z M692.3,809.6l-8.9,1.4
		l-1.1-6.9l8.9-1.4L692.3,809.6z M674.6,812.5l-8.9,1.4l-1.1-6.9l8.9-1.4L674.6,812.5z M656.8,815.3l-8.9,1.4l-1.1-6.9l8.9-1.4
		L656.8,815.3z M639,818.1l-8.9,1.4l-1.1-6.9l8.9-1.4L639,818.1z M621.2,820.9l-8.9,1.4l-1.1-6.9l8.9-1.4L621.2,820.9z M603.5,823.7
		l-8.9,1.4l-1.1-6.9l8.9-1.4L603.5,823.7z M585.7,826.5l-8.9,1.4l-1.1-6.9l8.9-1.4L585.7,826.5z M567.9,829.3l-8.9,1.4l-1.1-6.9
		l8.9-1.4L567.9,829.3z M550.1,832.2l-8.9,1.4l-1.1-6.9l8.9-1.4L550.1,832.2z M532.3,835l-8.9,1.4l-1.1-6.9l8.9-1.4L532.3,835z
		 M514.6,837.8l-8.9,1.4l-1.1-6.9l8.9-1.4L514.6,837.8z M496.8,840.6l-8.9,1.4l-1.1-6.9l8.9-1.4L496.8,840.6z M479,843.4l-8.9,1.4
		l-1.1-6.9l8.9-1.4L479,843.4z M461.2,846.2l-8.9,1.4l-1.1-6.9l8.9-1.4L461.2,846.2z M443.5,849.1l-8.9,1.4l-1.1-6.9l8.9-1.4
		L443.5,849.1z M425.7,851.9l-8.9,1.4l-1.1-6.9l8.9-1.4L425.7,851.9z M407.9,854.7l-8.9,1.4l-1.1-6.9l8.9-1.4L407.9,854.7z
		 M390.1,857.5l-8.9,1.4l-1.1-6.9l8.9-1.4L390.1,857.5z M372.3,860.3l-8.9,1.4l-1.1-6.9l8.9-1.4L372.3,860.3z M354.6,863.1l-8.9,1.4
		l-1.1-6.9l8.9-1.4L354.6,863.1z M336.8,866l-8.9,1.4l-1.1-6.9l8.9-1.4L336.8,866z M319,868.8l-8.9,1.4l-1.1-6.9l8.9-1.4L319,868.8z
		 M301.2,871.6l-8.9,1.4l-1.1-6.9l8.9-1.4L301.2,871.6z M283.4,874.4l-8.9,1.4l-1.1-6.9l8.9-1.4L283.4,874.4z M265.7,877.2l-8.9,1.4
		l-1.1-6.9l8.9-1.4L265.7,877.2z M247.9,880l-8.9,1.4l-1.1-6.9l8.9-1.4L247.9,880z"/>
	<path class="st1" d="M884.3,762.9l-7.8,1.2l-1.1-6.9l7.8-1.2L884.3,762.9z M867.6,765.6l-8.9,1.4l-1.1-6.9l8.9-1.4L867.6,765.6z
		 M849.8,768.4l-8.9,1.4l-1.1-6.9l8.9-1.4L849.8,768.4z M832.1,771.2l-8.9,1.4l-1.1-6.9l8.9-1.4L832.1,771.2z M814.3,774l-8.9,1.4
		l-1.1-6.9l8.9-1.4L814.3,774z M796.5,776.9l-8.9,1.4l-1.1-6.9l8.9-1.4L796.5,776.9z M778.7,779.7l-8.9,1.4l-1.1-6.9l8.9-1.4
		L778.7,779.7z M760.9,782.5l-8.9,1.4L751,777l8.9-1.4L760.9,782.5z M743.2,785.3l-8.9,1.4l-1.1-6.9l8.9-1.4L743.2,785.3z
		 M725.4,788.1l-8.9,1.4l-1.1-6.9l8.9-1.4L725.4,788.1z M707.6,790.9l-8.9,1.4l-1.1-6.9l8.9-1.4L707.6,790.9z M689.8,793.7l-8.9,1.4
		l-1.1-6.9l8.9-1.4L689.8,793.7z M672.1,796.6l-8.9,1.4l-1.1-6.9l8.9-1.4L672.1,796.6z M654.3,799.4l-8.9,1.4l-1.1-6.9l8.9-1.4
		L654.3,799.4z M636.5,802.2l-8.9,1.4l-1.1-6.9l8.9-1.4L636.5,802.2z M618.7,805l-8.9,1.4l-1.1-6.9l8.9-1.4L618.7,805z M600.9,807.8
		l-8.9,1.4l-1.1-6.9l8.9-1.4L600.9,807.8z M583.2,810.6l-8.9,1.4l-1.1-6.9l8.9-1.4L583.2,810.6z M565.4,813.5l-8.9,1.4l-1.1-6.9
		l8.9-1.4L565.4,813.5z M547.6,816.3l-8.9,1.4l-1.1-6.9l8.9-1.4L547.6,816.3z M529.8,819.1l-8.9,1.4l-1.1-6.9l8.9-1.4L529.8,819.1z
		 M512,821.9l-8.9,1.4l-1.1-6.9l8.9-1.4L512,821.9z M494.3,824.7l-8.9,1.4l-1.1-6.9l8.9-1.4L494.3,824.7z M476.5,827.5l-8.9,1.4
		l-1.1-6.9l8.9-1.4L476.5,827.5z M458.7,830.4l-8.9,1.4l-1.1-6.9l8.9-1.4L458.7,830.4z M440.9,833.2l-8.9,1.4l-1.1-6.9l8.9-1.4
		L440.9,833.2z M423.2,836l-8.9,1.4l-1.1-6.9l8.9-1.4L423.2,836z M405.4,838.8l-8.9,1.4l-1.1-6.9l8.9-1.4L405.4,838.8z M387.6,841.6
		l-8.9,1.4l-1.1-6.9l8.9-1.4L387.6,841.6z M369.8,844.4l-8.9,1.4l-1.1-6.9l8.9-1.4L369.8,844.4z M352,847.2l-8.9,1.4l-1.1-6.9
		l8.9-1.4L352,847.2z M334.3,850.1l-8.9,1.4l-1.1-6.9l8.9-1.4L334.3,850.1z M316.5,852.9l-8.9,1.4l-1.1-6.9l8.9-1.4L316.5,852.9z
		 M298.7,855.7l-8.9,1.4l-1.1-6.9l8.9-1.4L298.7,855.7z M280.9,858.5l-8.9,1.4l-1.1-6.9l8.9-1.4L280.9,858.5z M263.2,861.3l-8.9,1.4
		l-1.1-6.9l8.9-1.4L263.2,861.3z M245.4,864.1l-8.9,1.4l-1.1-6.9l8.9-1.4L245.4,864.1z"/>
</g>
<radialGradient id="SVGID_1_" cx="433.22" cy="478.2838" r="113.6487" gradientTransform="matrix(0.9877 -0.1564 0.1564 0.9877 -73.7946 86.3967)" gradientUnits="userSpaceOnUse">
	<stop  offset="0" style="stop-color:#F9CFB5"/>
	<stop  offset="0.9987" style="stop-color:#F9CFB5"/>
</radialGradient>
<circle class="st2" cx="428.9" cy="491" r="113.6"/>
<path class="st3" d="M706.8,576.6l-173.7,27.5c-3.5,0.5-6.7-1.8-7.3-5.3l-27.5-173.7c-0.5-3.5,1.8-6.7,5.3-7.3l173.7-27.5
	c3.5-0.5,6.7,1.8,7.3,5.3l27.5,173.7C712.6,572.8,710.2,576.1,706.8,576.6z"/>
<path class="st4" d="M400.4,674l222.3-35.2c4.1-0.6,5.3-7.1,2.1-10.7L486.5,474.4c-2.4-2.6-5.9-2.1-7.4,1.2l-84,188.9
	C393.1,668.9,396.3,674.6,400.4,674z"/>
</svg>
