<?xml version="1.0" encoding="utf-8"?>
<!-- Generator: Adobe Illustrator 27.0.0, SVG Export Plug-In . SVG Version: 6.00 Build 0)  -->
<svg version="1.1" id="libre-draw" xmlns="http://www.w3.org/2000/svg" xmlns:xlink="http://www.w3.org/1999/xlink" x="0px" y="0px"
	 viewBox="0 0 1024 1024" style="enable-background:new 0 0 1024 1024;" xml:space="preserve">
<style type="text/css">
	.st0{fill:url(#SVGID_1_);}
	.st1{fill:#FFFFFF;}
	.st2{opacity:0.11;}
	.st3{fill:#FFBC00;}
	.st4{fill:#00A5D4;}
	.st5{fill:#A5A5A5;}
</style>
<g id="Layer_4_00000127757679839559190090000007519639139524357531_">
	
		<linearGradient id="SVGID_1_" gradientUnits="userSpaceOnUse" x1="496.9557" y1="176.8569" x2="496.9557" y2="160.5129" gradientTransform="matrix(0.9877 -0.1564 -0.1564 -0.9877 101.34 1105.519)">
		<stop  offset="0" style="stop-color:#A9ADAB"/>
		<stop  offset="0.3581" style="stop-color:#A6AAA8"/>
		<stop  offset="0.6161" style="stop-color:#9DA19F"/>
		<stop  offset="0.8419" style="stop-color:#8E918F"/>
	</linearGradient>
	<path class="st0" d="M918.7,811L214.6,922.5c-19.5,3.1-37.8-10.2-40.9-29.7L77.9,287.9c-3.1-19.5,10.2-37.8,29.7-40.9l704.2-111.5
		c19.5-3.1,37.8,10.2,40.9,29.7l95.8,604.9C951.5,789.6,938.2,807.9,918.7,811z"/>
	<path class="st1" d="M916.1,794.3L211.9,905.8c-19.5,3.1-37.8-10.2-40.9-29.7L75.2,271.2c-3.1-19.5,10.2-37.8,29.7-40.9
		l704.2-111.5c19.5-3.1,37.8,10.2,40.9,29.7l95.8,604.9C948.8,772.9,935.5,791.2,916.1,794.3z"/>
</g>
<g class="st2">
	<path d="M796.9,405.5L673.2,278.9c-1.9-2-4.7-3.1-7.5-3.1c-0.5,0-1.1,0-1.6,0.1l-152.9,24.2c-3.8,0.6-7,3.3-8.2,7
		c-1.2,3.7-0.3,7.7,2.3,10.5l121.3,127c2,2.1,4.7,3.2,7.5,3.2c0.5,0,1.1,0,1.6-0.1l155.3-24.6c3.9-0.6,7-3.3,8.3-7
		C800.6,412.4,799.6,408.3,796.9,405.5z M666.1,279.7c-0.2,0-0.3,0-0.5,0c0,0,0.1,0,0.1,0C665.9,279.7,666,279.7,666.1,279.7z
		 M670.4,281.7c-0.2-0.2-0.3-0.3-0.5-0.5C670,281.3,670.2,281.5,670.4,281.7z M669.7,281c-0.1-0.1-0.3-0.2-0.4-0.3
		C669.4,280.8,669.5,280.9,669.7,281z M669,280.6c-0.1-0.1-0.3-0.2-0.4-0.2C668.8,280.5,668.9,280.5,669,280.6z M668.4,280.3
		c-0.1-0.1-0.3-0.1-0.4-0.2C668.1,280.2,668.3,280.2,668.4,280.3z M667.7,280c-0.2-0.1-0.4-0.1-0.6-0.2
		C667.3,279.9,667.5,280,667.7,280z M667.1,279.9c-0.2,0-0.5-0.1-0.7-0.1C666.6,279.8,666.8,279.8,667.1,279.9z M633.7,443.8
		c0.2,0,0.3,0,0.5,0c0,0-0.1,0-0.1,0C634,443.8,633.8,443.8,633.7,443.8z M629.5,441.8c0.2,0.2,0.3,0.3,0.5,0.5
		C629.8,442.2,629.6,442,629.5,441.8z M630.2,442.5c0.1,0.1,0.3,0.2,0.4,0.3C630.4,442.7,630.3,442.6,630.2,442.5z M630.8,442.9
		c0.1,0.1,0.3,0.2,0.4,0.2C631.1,443,630.9,443,630.8,442.9z M631.4,443.2c0.1,0.1,0.3,0.1,0.4,0.2
		C631.7,443.4,631.6,443.3,631.4,443.2z M632.1,443.5c0.2,0.1,0.4,0.1,0.6,0.2C632.5,443.6,632.3,443.6,632.1,443.5z M632.8,443.7
		c0.2,0,0.5,0.1,0.7,0.1C633.3,443.8,633,443.7,632.8,443.7z"/>
	<path d="M260.7,507.1l122.1-19.3c3.4-0.5,6.3-2.7,7.8-5.8l60-124.8c1.6-3.3,1.4-7-0.6-10.1c-1.9-3.1-5.2-4.9-8.8-4.9
		c-0.6,0-1.1,0-1.7,0.1l-120.2,19c-3.3,0.5-6.2,2.6-7.7,5.7l-61.9,125.1c-1.6,3.3-1.4,7,0.5,10.1c1.9,3.1,5.2,4.9,8.8,4.9
		C259.6,507.2,260.2,507.2,260.7,507.1z M258.4,503.2c0.2,0,0.4,0,0.7,0c0,0,0,0,0,0C258.8,503.2,258.6,503.2,258.4,503.2z
		 M382.2,483.8l-122.1,19.3L382.2,483.8c0.5-0.1,1-0.2,1.5-0.4C383.2,483.6,382.7,483.7,382.2,483.8z M384.4,483
		c0.4-0.3,0.9-0.6,1.2-0.9C385.2,482.5,384.8,482.8,384.4,483z M447.5,353.4c0-0.2,0-0.3,0-0.5C447.6,353.1,447.6,353.3,447.5,353.4
		z M447,355.5c0.1-0.3,0.2-0.6,0.3-0.9C447.2,354.9,447.1,355.2,447,355.5z M447.4,354.3c0.1-0.2,0.1-0.4,0.1-0.6
		C447.5,354,447.4,354.1,447.4,354.3z M446.9,349.7c0.1,0.1,0.1,0.3,0.2,0.4C447,350,446.9,349.9,446.9,349.7z M447.2,350.5
		c0.1,0.1,0.1,0.3,0.1,0.4C447.3,350.8,447.2,350.6,447.2,350.5z M447.4,351.3c0,0.1,0.1,0.3,0.1,0.5
		C447.5,351.6,447.5,351.4,447.4,351.3z M447.6,352.1c0,0.2,0,0.3,0,0.5C447.6,352.4,447.6,352.2,447.6,352.1z M446.7,349.4
		c-0.1-0.1-0.2-0.3-0.2-0.4C446.5,349.2,446.6,349.3,446.7,349.4z M446.2,348.7c-0.1-0.1-0.2-0.2-0.3-0.3
		C446,348.5,446.1,348.6,446.2,348.7z M445.7,348.1c-0.1-0.1-0.2-0.2-0.3-0.3C445.5,347.9,445.6,348,445.7,348.1z M441.8,346.3
		c-0.2,0-0.4,0-0.6,0c0,0,0,0,0,0C441.4,346.3,441.6,346.3,441.8,346.3z M445.1,347.6c-0.1-0.1-0.3-0.2-0.4-0.3
		C444.8,347.4,444.9,347.5,445.1,347.6z M444.4,347.1c-0.1-0.1-0.3-0.2-0.5-0.2C444.1,347,444.2,347,444.4,347.1z M443.7,346.8
		c-0.2-0.1-0.4-0.1-0.6-0.2C443.3,346.6,443.5,346.7,443.7,346.8z M442.9,346.5c-0.3-0.1-0.6-0.1-0.8-0.2
		C442.3,346.4,442.6,346.4,442.9,346.5z M252.7,496c0,0.2,0,0.3-0.1,0.5C252.7,496.3,252.7,496.2,252.7,496z M253.3,493.9
		c-0.1,0.3-0.3,0.6-0.3,0.9C253.1,494.5,253.2,494.2,253.3,493.9z M252.9,495.1c-0.1,0.2-0.1,0.4-0.1,0.6
		C252.8,495.5,252.9,495.3,252.9,495.1z M253.4,499.7c-0.1-0.1-0.1-0.3-0.2-0.4C253.3,499.4,253.3,499.6,253.4,499.7z M253.1,499
		c-0.1-0.1-0.1-0.3-0.1-0.4C253,498.7,253,498.8,253.1,499z M252.8,498.2c0-0.2-0.1-0.3-0.1-0.5C252.8,497.9,252.8,498,252.8,498.2z
		 M252.7,497.3c0-0.2,0-0.3,0-0.5C252.7,497,252.7,497.2,252.7,497.3z M253.6,500c0.1,0.1,0.2,0.3,0.2,0.4
		C253.7,500.3,253.6,500.2,253.6,500z M254,500.7c0.1,0.1,0.2,0.2,0.3,0.3C254.2,500.9,254.1,500.8,254,500.7z M254.6,501.3
		c0.1,0.1,0.2,0.2,0.3,0.3C254.8,501.5,254.7,501.4,254.6,501.3z M258.2,503.2c-0.3,0-0.6-0.1-0.8-0.2
		C257.7,503.1,257.9,503.1,258.2,503.2z M257.2,502.9c-0.2-0.1-0.4-0.1-0.6-0.2C256.8,502.8,257,502.9,257.2,502.9z M256.3,502.6
		c-0.2-0.1-0.3-0.1-0.5-0.2C256,502.4,256.2,502.5,256.3,502.6z M255.6,502.1c-0.1-0.1-0.3-0.2-0.4-0.3
		C255.3,502,255.4,502.1,255.6,502.1z"/>
	<path d="M596.4,470.4c-2.1-2.5-5.1-3.9-8.3-3.9c-0.6,0-1.2,0-1.7,0.1l-175.5,27.8c-3.5,0.6-6.5,2.8-8.1,6c-1.5,3.2-1.4,6.9,0.3,10
		l128.1,229.1c1.9,3.5,5.5,5.6,9.4,5.6c5.3,0,9.7-3.7,10.7-8.9l47.4-256.9C599.3,476.1,598.5,472.9,596.4,470.4z M592.9,472.5
		c-0.1-0.1-0.2-0.2-0.3-0.3C592.7,472.3,592.8,472.4,592.9,472.5z M588.4,470.5c-0.2,0-0.3,0-0.5,0c0,0,0.1,0,0.1,0
		C588.2,470.5,588.3,470.5,588.4,470.5z M592.3,472c-0.1-0.1-0.3-0.2-0.4-0.3C592.1,471.8,592.2,471.9,592.3,472z M591.7,471.5
		c-0.2-0.1-0.3-0.2-0.5-0.3C591.4,471.4,591.5,471.4,591.7,471.5z M591,471.2c-0.2-0.1-0.5-0.2-0.7-0.3
		C590.5,471,590.8,471.1,591,471.2z M590.1,470.8c-0.2-0.1-0.4-0.1-0.6-0.2C589.8,470.7,590,470.8,590.1,470.8z M589.3,470.6
		c-0.2,0-0.3-0.1-0.5-0.1C588.9,470.6,589.1,470.6,589.3,470.6z M535.5,738.7c0.2,0.2,0.3,0.4,0.5,0.5
		C535.8,739.1,535.6,738.9,535.5,738.7z M534.7,737.6c0.2,0.3,0.4,0.6,0.6,0.9C535.1,738.2,534.8,737.9,534.7,737.6z M539.8,741
		c0.3,0,0.6,0,0.9,0c0,0,0,0-0.1,0C540.3,741.1,540.1,741,539.8,741z M536.3,739.5c0.2,0.1,0.3,0.3,0.5,0.4
		C536.6,739.7,536.4,739.6,536.3,739.5z M537.1,740.1c0.2,0.1,0.4,0.2,0.5,0.3C537.4,740.3,537.2,740.2,537.1,740.1z M537.9,740.5
		c0.2,0.1,0.4,0.2,0.6,0.2C538.3,740.7,538.1,740.6,537.9,740.5z M538.8,740.8c0.3,0.1,0.6,0.1,0.9,0.2
		C539.4,741,539.1,740.9,538.8,740.8z M541.7,741C541.7,741,541.7,741,541.7,741C541.7,741,541.7,741,541.7,741z M542.8,740.7
		c0.1,0,0.2-0.1,0.3-0.1C543,740.6,542.9,740.7,542.8,740.7z M543.8,740.3c0.1-0.1,0.2-0.1,0.4-0.2
		C544,740.2,543.9,740.2,543.8,740.3z M544.7,739.7c0.1-0.1,0.2-0.2,0.3-0.3C545,739.5,544.9,739.6,544.7,739.7z M545.6,739
		c0.1-0.1,0.2-0.2,0.3-0.3C545.8,738.8,545.7,738.9,545.6,739z M546.3,738.1c0.1-0.1,0.2-0.2,0.2-0.4
		C546.5,737.9,546.4,738,546.3,738.1z M546.9,737c0.1-0.1,0.1-0.2,0.2-0.4C547,736.8,546.9,736.9,546.9,737z M593.1,472.7
		c0.1,0.1,0.2,0.2,0.3,0.3C593.3,472.9,593.2,472.8,593.1,472.7z M593.6,473.3c0.1,0.1,0.2,0.2,0.2,0.4
		C593.8,473.6,593.7,473.4,593.6,473.3z M594,474c0.1,0.1,0.1,0.3,0.2,0.4C594.1,474.2,594.1,474.1,594,474z M594.3,474.7
		c0.1,0.1,0.1,0.3,0.2,0.4C594.5,474.9,594.4,474.8,594.3,474.7z M594.6,475.4c0,0.1,0.1,0.3,0.1,0.4
		C594.7,475.7,594.7,475.5,594.6,475.4z M594.8,478.6c0.1-0.3,0.1-0.6,0.1-0.8C594.9,478,594.8,478.3,594.8,478.6z M594.9,477.5
		c0-0.2,0-0.4,0-0.5C594.9,477.1,594.9,477.3,594.9,477.5z M594.8,476.2c0,0.2,0,0.3,0.1,0.5C594.8,476.5,594.8,476.3,594.8,476.2z"
		/>
	<path d="M407.7,477c2,3.3,5.4,5.2,9.2,5.2c0.6,0,1.2,0,1.7-0.1l156.6-24.8c4.1-0.6,7.4-3.5,8.6-7.4c1.3-3.9,0.2-8.1-2.7-11
		L486,344.3c-2-2-4.8-3.1-7.6-3.1h0c-4.1,0-7.8,2.3-9.7,5.9l-61.4,119.3C405.6,469.8,405.7,473.8,407.7,477z M410.1,471.4
		c0,0.2,0,0.3,0,0.5C410.1,471.7,410.1,471.5,410.1,471.4z M410.2,472.3c0,0.2,0,0.3,0.1,0.5C410.2,472.6,410.2,472.4,410.2,472.3z
		 M410.4,473.1c0,0.2,0.1,0.3,0.1,0.5C410.4,473.5,410.4,473.3,410.4,473.1z M410.6,474c0.1,0.2,0.1,0.3,0.2,0.4
		C410.8,474.3,410.7,474.1,410.6,474z M411,474.8c0.1,0.1,0.2,0.3,0.3,0.4C411.2,475,411.1,474.9,411,474.8z M411.5,475.5
		c0.1,0.1,0.2,0.3,0.3,0.4C411.7,475.8,411.6,475.6,411.5,475.5z M412.1,476.2c0.1,0.1,0.2,0.2,0.4,0.3
		C412.3,476.4,412.2,476.3,412.1,476.2z M416.2,478.2c0.2,0,0.5,0,0.7,0c0,0,0,0,0,0C416.7,478.2,416.4,478.2,416.2,478.2z
		 M412.7,476.8c0.1,0.1,0.3,0.2,0.4,0.3C413,477,412.9,476.9,412.7,476.8z M413.5,477.3c0.2,0.1,0.3,0.2,0.5,0.3
		C413.8,477.4,413.6,477.3,413.5,477.3z M414.3,477.7c0.2,0.1,0.4,0.2,0.6,0.2C414.7,477.8,414.5,477.7,414.3,477.7z M415.1,478
		c0.3,0.1,0.6,0.1,0.9,0.2C415.7,478.1,415.4,478,415.1,478z M418,478.1C418,478.1,418,478.1,418,478.1
		C418,478.1,418,478.1,418,478.1l156.6-24.8L418,478.1z M578.4,441.7l-95.3-94.5c-0.2-0.2-0.4-0.4-0.6-0.5c0.2,0.2,0.4,0.3,0.6,0.5
		L578.4,441.7z M478.6,345.2c-0.1,0-0.3,0-0.4,0c0,0,0.1,0,0.1,0C478.4,345.2,478.5,345.2,478.6,345.2z M482.4,346.5
		c-0.1-0.1-0.3-0.2-0.4-0.3C482.1,346.3,482.2,346.4,482.4,346.5z M481.7,346.1c-0.1-0.1-0.3-0.2-0.4-0.2
		C481.4,345.9,481.5,346,481.7,346.1z M481,345.7c-0.2-0.1-0.3-0.1-0.5-0.2C480.7,345.6,480.8,345.7,481,345.7z M480.3,345.5
		c-0.2-0.1-0.5-0.1-0.7-0.2C479.8,345.3,480.1,345.4,480.3,345.5z M479.5,345.3c-0.2,0-0.4-0.1-0.6-0.1
		C479.1,345.2,479.3,345.2,479.5,345.3z M477.6,345.2c-0.1,0-0.2,0-0.3,0C477.5,345.2,477.6,345.2,477.6,345.2z M476.7,345.4
		c0,0-0.1,0-0.1,0C476.6,345.4,476.6,345.4,476.7,345.4z M475.7,345.7c-0.1,0-0.1,0.1-0.2,0.1C475.6,345.8,475.6,345.7,475.7,345.7z
		 M474.9,346.1c-0.1,0.1-0.2,0.1-0.3,0.2C474.8,346.2,474.9,346.1,474.9,346.1z M474.2,346.6c-0.1,0.1-0.2,0.1-0.3,0.2
		C474,346.7,474.1,346.6,474.2,346.6z M473.5,347.1c-0.1,0.1-0.2,0.2-0.2,0.2C473.4,347.3,473.5,347.2,473.5,347.1z M472.9,347.9
		c-0.1,0.1-0.1,0.2-0.2,0.2C472.8,348,472.9,347.9,472.9,347.9z M410.5,469.1c0.1-0.3,0.2-0.6,0.4-0.9
		C410.7,468.5,410.6,468.8,410.5,469.1z M410.1,471c0-0.2,0-0.4,0.1-0.6C410.2,470.6,410.1,470.8,410.1,471z M410.2,470.1
		c0-0.2,0.1-0.4,0.2-0.6C410.3,469.7,410.3,469.9,410.2,470.1z"/>
	<path d="M387.6,505c-1.8-3.3-5.3-5.4-9.1-5.4c-0.5,0-1.1,0-1.6,0.1l-112.8,17.9c-4.1,0.6-7.3,3.5-8.4,7.5c-1.1,4,0.2,8.1,3.3,10.8
		l230.3,193.2c1.9,1.6,4.2,2.5,6.7,2.5c3.7,0,7.2-2,9.1-5.3c1.9-3.2,1.9-6.9,0-10.3L387.6,505z M501.7,718.1
		C501.7,718.1,501.7,718.1,501.7,718.1C501.7,718.1,501.7,718.1,501.7,718.1L384.1,507c-0.2-0.3-0.3-0.5-0.5-0.8
		c0.2,0.2,0.4,0.5,0.5,0.8L501.7,718.1z M383.4,506c-0.1-0.2-0.3-0.3-0.4-0.5C383.1,505.7,383.3,505.8,383.4,506z M379.4,503.8
		c-0.3,0-0.6-0.1-0.9-0.1c0,0,0,0,0,0C378.8,503.7,379.1,503.7,379.4,503.8z M382.7,505.3c-0.1-0.1-0.3-0.2-0.4-0.4
		C382.4,505,382.6,505.1,382.7,505.3z M382,504.7c-0.2-0.1-0.3-0.2-0.5-0.3C381.7,504.5,381.8,504.6,382,504.7z M381.2,504.3
		c-0.2-0.1-0.3-0.1-0.5-0.2C380.8,504.1,381,504.2,381.2,504.3z M380.3,503.9c-0.2-0.1-0.4-0.1-0.6-0.1
		C379.9,503.8,380.1,503.9,380.3,503.9z M261.6,532.9c-0.8-0.7-1.4-1.4-1.7-2.3C260.2,531.4,260.8,532.2,261.6,532.9l230.3,193.2
		c0.2,0.1,0.3,0.3,0.5,0.4c-0.2-0.1-0.3-0.2-0.5-0.4L261.6,532.9z M495.9,727.7c0.1,0,0.2,0,0.2,0c0,0-0.1,0-0.1,0
		C496,727.7,495.9,727.7,495.9,727.7z M492.6,726.6c0.1,0.1,0.2,0.1,0.3,0.2C492.8,726.8,492.7,726.7,492.6,726.6z M493.2,726.9
		c0.1,0.1,0.2,0.1,0.3,0.2C493.4,727,493.3,727,493.2,726.9z M493.7,727.2c0.1,0,0.2,0.1,0.3,0.1
		C493.9,727.3,493.8,727.2,493.7,727.2z M494.3,727.4c0.1,0,0.2,0.1,0.3,0.1C494.5,727.4,494.4,727.4,494.3,727.4z M494.8,727.5
		c0.1,0,0.2,0,0.3,0.1C495,727.6,494.9,727.5,494.8,727.5z M495.3,727.6c0.1,0,0.2,0,0.3,0C495.5,727.6,495.4,727.6,495.3,727.6z
		 M500.4,725.9c0,0,0.1-0.1,0.1-0.1C500.5,725.9,500.4,725.9,500.4,725.9z M496.8,727.6C496.9,727.6,496.9,727.6,496.8,727.6
		C496.9,727.6,496.9,727.6,496.8,727.6z M497.6,727.5c0.1,0,0.1,0,0.2,0C497.7,727.4,497.6,727.4,497.6,727.5z M498.4,727.2
		c0,0,0.1,0,0.1,0C498.5,727.2,498.4,727.2,498.4,727.2z M499.1,726.9c0,0,0.1-0.1,0.1-0.1C499.2,726.8,499.1,726.8,499.1,726.9z
		 M499.8,726.4c0,0,0.1-0.1,0.1-0.1C499.9,726.4,499.8,726.4,499.8,726.4z M501.5,724.6c0,0-0.1,0.1-0.1,0.1
		C501.5,724.7,501.5,724.6,501.5,724.6z M501.1,725.2c0,0-0.1,0.1-0.1,0.1C501,725.3,501.1,725.2,501.1,725.2z M502.5,721.6
		C502.5,721.6,502.5,721.6,502.5,721.6C502.5,721.6,502.5,721.6,502.5,721.6z M501.9,724c0,0,0-0.1,0.1-0.2
		C501.9,723.9,501.9,723.9,501.9,724z M502.2,723.3c0,0,0-0.1,0-0.1C502.2,723.2,502.2,723.2,502.2,723.3z M502.4,722.5
		c0-0.1,0-0.1,0-0.2C502.4,722.3,502.4,722.4,502.4,722.5z M502.1,718.8c0,0.1,0.1,0.1,0.1,0.2C502.1,719,502.1,718.9,502.1,718.8z
		 M502.4,719.8C502.4,719.8,502.4,719.9,502.4,719.8C502.4,719.9,502.4,719.8,502.4,719.8z M502.5,720.6c0,0.1,0,0.1,0,0.2
		C502.5,720.7,502.5,720.7,502.5,720.6z"/>
	<path d="M739.7,442.5L739.7,442.5c-0.6,0-1.1,0-1.7,0.1l-112.8,17.9c-4.3,0.7-7.8,4-8.6,8.3L570,705.8c-0.6,3.1,0.1,6.2,2.1,8.6
		c2,2.4,5.1,3.9,8.3,3.9c3.6,0,6.8-1.8,8.7-4.9l159.4-254.9c2-3.3,2.1-7.2,0.3-10.6C746.9,444.5,743.4,442.5,739.7,442.5z
		 M746,452.4c0-0.2,0-0.3-0.1-0.5C746,452.1,746,452.3,746,452.4z M745.9,451.6c0-0.2-0.1-0.3-0.1-0.5
		C745.8,451.3,745.9,451.4,745.9,451.6z M745.7,450.7c-0.1-0.1-0.1-0.3-0.2-0.4C745.6,450.5,745.6,450.6,745.7,450.7z M745.3,450
		c-0.1-0.1-0.2-0.3-0.2-0.4C745.2,449.7,745.2,449.8,745.3,450z M744.9,449.2c-0.1-0.1-0.2-0.3-0.3-0.4
		C744.7,449,744.8,449.1,744.9,449.2z M744.3,448.6c-0.1-0.1-0.2-0.2-0.3-0.3C744.1,448.3,744.2,448.4,744.3,448.6z M739.7,446.5
		c0.3,0,0.6,0,0.9,0.1C740.3,446.5,740,446.5,739.7,446.5C739.7,446.5,739.7,446.5,739.7,446.5z M743.7,448
		c-0.1-0.1-0.3-0.2-0.4-0.3C743.5,447.8,743.6,447.9,743.7,448z M743,447.5c-0.1-0.1-0.3-0.2-0.5-0.3
		C742.7,447.3,742.9,447.4,743,447.5z M742.3,447c-0.2-0.1-0.4-0.1-0.5-0.2C741.9,446.9,742.1,447,742.3,447z M741.5,446.7
		c-0.3-0.1-0.5-0.1-0.8-0.2C740.9,446.6,741.2,446.7,741.5,446.7z M573.9,707.4c0,0.1,0,0.1,0,0.2
		C573.8,707.5,573.8,707.4,573.9,707.4z M573.8,708.1c0,0.1,0,0.2,0,0.2C573.8,708.3,573.8,708.2,573.8,708.1z M573.9,709
		c0,0,0-0.1,0-0.1C573.9,708.9,573.9,709,573.9,709z M575.4,712.1c0,0,0.1,0.1,0.1,0.1C575.5,712.2,575.4,712.1,575.4,712.1z
		 M574.1,709.7c0,0.1,0,0.1,0.1,0.2C574.1,709.8,574.1,709.7,574.1,709.7z M574.3,710.3c0,0.1,0.1,0.1,0.1,0.2
		C574.3,710.4,574.3,710.4,574.3,710.3z M574.6,710.9c0,0.1,0.1,0.1,0.1,0.2C574.6,711,574.6,711,574.6,710.9z M575,711.6
		C575,711.6,575,711.7,575,711.6C575,711.7,575,711.6,575,711.6z M580.2,714.3c0.1,0,0.1,0,0.2,0c0,0,0,0,0,0
		C580.3,714.3,580.3,714.3,580.2,714.3z M575.9,712.6c0,0,0.1,0.1,0.1,0.1C576,712.6,575.9,712.6,575.9,712.6z M576.5,713
		C576.5,713.1,576.5,713.1,576.5,713C576.5,713.1,576.5,713.1,576.5,713z M577,713.4c0.1,0,0.1,0.1,0.2,0.1
		C577.1,713.5,577.1,713.4,577,713.4z M577.6,713.7c0.1,0,0.1,0.1,0.2,0.1C577.7,713.7,577.7,713.7,577.6,713.7z M578.2,713.9
		c0,0,0.1,0,0.1,0C578.3,714,578.3,714,578.2,713.9z M579,714.1c0.1,0,0.1,0,0.2,0C579.1,714.2,579,714.2,579,714.1z M579.6,714.2
		c0.1,0,0.1,0,0.2,0C579.7,714.3,579.7,714.3,579.6,714.2z M581.1,714.3c0,0,0.1,0,0.1,0C581.2,714.2,581.1,714.3,581.1,714.3z
		 M581.8,714.1c0.1,0,0.1,0,0.2,0C581.9,714.1,581.8,714.1,581.8,714.1z M582.6,713.9C582.6,713.9,582.6,713.9,582.6,713.9
		C582.6,713.9,582.6,713.9,582.6,713.9z M583.2,713.6c0.1,0,0.1-0.1,0.2-0.1C583.3,713.5,583.3,713.6,583.2,713.6z M583.9,713.2
		c0,0,0.1-0.1,0.1-0.1C584,713.2,583.9,713.2,583.9,713.2z M584.6,712.7c0,0,0.1-0.1,0.1-0.1C584.6,712.6,584.6,712.6,584.6,712.7z
		 M585.1,712.1c0-0.1,0.1-0.1,0.1-0.2C585.2,712,585.1,712,585.1,712.1z M746,453.3c0-0.2,0-0.3,0-0.5
		C746.1,453,746,453.2,746,453.3z M745.1,456.3c0.2-0.3,0.3-0.6,0.5-0.9C745.4,455.7,745.2,456,745.1,456.3z M745.6,455.2
		c0.1-0.2,0.1-0.4,0.2-0.6C745.8,454.8,745.7,455,745.6,455.2z M745.9,454.2c0-0.2,0.1-0.4,0.1-0.5C746,453.9,745.9,454,745.9,454.2
		z"/>
</g>
<g>
	<g>
		<path class="st3" d="M653.4,276.7L777,403.3c3.6,3.7,1.6,10-3.6,10.8l-155.3,24.6c-2.1,0.3-4.2-0.4-5.7-1.9l-121.3-127
			c-3.6-3.7-1.5-10,3.6-10.8l152.9-24.2C649.8,274.5,651.9,275.2,653.4,276.7z"/>
		<path class="st4" d="M648.8,274.7c1.7,0,3.4,0.7,4.6,1.9L777,403.3c3.6,3.7,1.6,10-3.6,10.8l-155.3,24.6c-0.3,0.1-0.7,0.1-1,0.1
			c-1.7,0-3.4-0.7-4.6-2l-121.3-127c-3.6-3.7-1.5-10,3.6-10.8l152.9-24.2C648.1,274.8,648.5,274.7,648.8,274.7 M648.8,270.7
			c-0.5,0-1.1,0-1.6,0.1l-152.9,24.2c-3.8,0.6-7,3.3-8.2,7c-1.2,3.7-0.3,7.7,2.3,10.5l121.3,127c2,2.1,4.7,3.2,7.5,3.2
			c0.5,0,1.1,0,1.6-0.1l155.3-24.6c3.9-0.6,7-3.3,8.3-7c1.2-3.7,0.3-7.8-2.4-10.6L656.2,273.9C654.3,271.9,651.6,270.7,648.8,270.7
			L648.8,270.7z"/>
	</g>
	<g>
		<path class="st3" d="M298.2,363.9l-61.9,125.1c-2.3,4.7,1.6,10,6.8,9.2l122.1-19.3c2.1-0.3,3.9-1.7,4.8-3.6l60-124.8
			c2.2-4.7-1.7-9.9-6.8-9.1l-120.2,19C300.9,360.7,299.1,362,298.2,363.9z"/>
		<path class="st5" d="M424.2,341.3c4.6,0,7.8,4.9,5.8,9.2l-60,124.8c-0.9,1.9-2.7,3.2-4.8,3.6l-122.1,19.3c-0.4,0.1-0.7,0.1-1,0.1
			c-4.6,0-7.9-4.9-5.7-9.3l61.9-125.1c0.9-1.9,2.7-3.2,4.8-3.5l120.2-19C423.5,341.3,423.9,341.3,424.2,341.3 M424.2,337.3
			c-0.6,0-1.1,0-1.7,0.1l-120.2,19c-3.3,0.5-6.2,2.6-7.7,5.7l-61.9,125.1c-1.6,3.3-1.4,7,0.5,10.1c1.9,3.1,5.2,4.9,8.8,4.9
			c0.6,0,1.1,0,1.7-0.1l122.1-19.3c3.4-0.5,6.3-2.7,7.8-5.8l60-124.8c1.6-3.3,1.4-7-0.6-10.1C431.1,339.1,427.8,337.3,424.2,337.3
			L424.2,337.3z"/>
	</g>
	<g>
		<path class="st3" d="M394.5,493.4L570,465.6c4.7-0.7,8.7,3.4,7.8,8l-47.4,256.9c-1.2,6.3-9.6,7.7-12.7,2.1L389.6,503.5
			C387.3,499.3,389.8,494.1,394.5,493.4z"/>
		<path class="st5" d="M571.1,465.5c4.2,0,7.5,3.8,6.7,8.1l-47.4,256.9c-0.7,3.6-3.7,5.6-6.8,5.6c-2.3,0-4.6-1.1-5.9-3.5
			L389.6,503.5c-2.3-4.2,0.2-9.4,4.9-10.1L570,465.6C570.3,465.5,570.7,465.5,571.1,465.5 M571.1,461.5c-0.6,0-1.2,0-1.7,0.1
			l-175.5,27.8c-3.5,0.6-6.5,2.8-8.1,6c-1.5,3.2-1.4,6.9,0.3,10l128.1,229.1c1.9,3.5,5.5,5.6,9.4,5.6c5.3,0,9.7-3.7,10.7-8.9
			l47.4-256.9c0.6-3.2-0.3-6.4-2.3-8.9C577.3,462.9,574.3,461.5,571.1,461.5L571.1,461.5z"/>
	</g>
	<g>
		<path class="st3" d="M393.9,463.2l61.4-119.3c2.1-4.1,7.6-5,10.9-1.7l95.3,94.5c4,3.9,1.8,10.7-3.7,11.6L401,473.1
			C395.5,474,391.3,468.2,393.9,463.2z"/>
		<path class="st5" d="M461.3,340.2c1.7,0,3.4,0.6,4.8,2l95.3,94.5c4,3.9,1.8,10.7-3.7,11.6L401,473.1c-0.4,0.1-0.8,0.1-1.1,0.1
			c-5,0-8.4-5.3-6-10l61.4-119.3C456.5,341.5,458.9,340.2,461.3,340.2 M461.3,336.2L461.3,336.2c-4.1,0-7.8,2.3-9.7,5.9l-61.4,119.3
			c-1.7,3.4-1.6,7.3,0.4,10.6c2,3.3,5.4,5.2,9.2,5.2c0.6,0,1.2,0,1.7-0.1l156.6-24.8c4.1-0.6,7.4-3.5,8.6-7.4
			c1.3-3.9,0.2-8.1-2.7-11L469,339.3C466.9,337.3,464.2,336.2,461.3,336.2L461.3,336.2z"/>
	</g>
	<g>
		<path class="st3" d="M244.6,527.9l230.3,193.2c5.5,4.6,13.2-1.8,9.7-8L367.1,502c-1.3-2.4-4-3.6-6.6-3.2l-112.8,17.9
			C242.3,517.5,240.4,524.4,244.6,527.9z"/>
		<path class="st5" d="M361.5,498.7c2.3,0,4.5,1.2,5.6,3.3l117.6,211.1c2.6,4.8-1.2,9.6-5.6,9.6c-1.4,0-2.8-0.5-4.1-1.6L244.6,527.9
			c-4.2-3.5-2.3-10.4,3.1-11.3l112.8-17.9C360.8,498.7,361.2,498.7,361.5,498.7 M361.5,494.7c-0.5,0-1.1,0-1.6,0.1l-112.8,17.9
			c-4.1,0.6-7.3,3.5-8.4,7.5c-1.1,4,0.2,8.1,3.3,10.8l230.3,193.2c1.9,1.6,4.2,2.5,6.7,2.5c3.7,0,7.2-2,9.1-5.3
			c1.9-3.2,1.9-6.9,0-10.3L370.6,500C368.8,496.7,365.3,494.7,361.5,494.7L361.5,494.7z"/>
	</g>
	<g>
		<path class="st3" d="M728.1,451.3L568.7,706.3c-3.8,6-13.1,2.4-11.8-4.6l46.6-237.1c0.5-2.6,2.6-4.7,5.3-5.1l112.8-17.9
			C727.1,440.7,731,446.6,728.1,451.3z"/>
		<path class="st5" d="M722.7,441.5c4.9,0,8.1,5.5,5.4,9.8L568.7,706.3c-1.3,2.1-3.3,3-5.3,3c-3.7,0-7.3-3.2-6.4-7.7l46.6-237.1
			c0.5-2.6,2.6-4.7,5.3-5.1l112.8-17.9C722,441.5,722.3,441.5,722.7,441.5 M722.7,437.5L722.7,437.5c-0.6,0-1.1,0-1.7,0.1
			l-112.8,17.9c-4.3,0.7-7.8,4-8.6,8.3L553,700.8c-0.6,3.1,0.1,6.2,2.1,8.6c2,2.4,5.1,3.9,8.3,3.9c3.6,0,6.8-1.8,8.7-4.9
			l159.4-254.9c2-3.3,2.1-7.2,0.3-10.6C729.9,439.5,726.4,437.5,722.7,437.5L722.7,437.5z"/>
	</g>
</g>
<g>
	<g>
		<rect x="640.3" y="253.2" class="st1" width="31.5" height="31.5"/>
		<path class="st4" d="M674.8,287.7h-37.5v-37.5h37.5V287.7z M643.3,281.7h25.5v-25.5h-25.5V281.7z"/>
	</g>
	<g>
		<rect x="477.8" y="281.7" class="st1" width="31.5" height="31.5"/>
		<path class="st4" d="M512.2,316.2h-37.5v-37.5h37.5V316.2z M480.8,310.2h25.5v-25.5h-25.5V310.2z"/>
	</g>
	<g>
		<rect x="598.2" y="417.4" class="st1" width="31.5" height="31.5"/>
		<path class="st4" d="M632.7,451.9h-37.5v-37.5h37.5V451.9z M601.2,445.9h25.5v-25.5h-25.5V445.9z"/>
	</g>
	<g>
		<rect x="759" y="393.3" class="st1" width="31.5" height="31.5"/>
		<path class="st4" d="M793.5,427.8H756v-37.5h37.5V427.8z M762,421.8h25.5v-25.5H762V421.8z"/>
	</g>
</g>
</svg>
