<?xml version="1.0" encoding="utf-8"?>
<!-- Generator: Adobe Illustrator 26.3.1, SVG Export Plug-In . SVG Version: 6.00 Build 0)  -->
<svg version="1.1" xmlns="http://www.w3.org/2000/svg" xmlns:xlink="http://www.w3.org/1999/xlink" x="0px" y="0px"
	 viewBox="0 0 1024 1024" style="enable-background:new 0 0 1024 1024;" xml:space="preserve">
<style type="text/css">
	.st0{fill:url(#SVGID_1_);}
	.st1{fill:#FFFFFF;}
	.st2{opacity:0.53;}
	.st3{fill:#898989;}
	.st4{fill:#F43740;}
	.st5{fill:#EDEDED;}
	.st6{fill:#FFBD00;}
	.st7{fill:#56C430;}
	.st8{fill:#00A5D4;}
</style>
<g id="Layer_2">
</g>
<g id="Layer_4_00000127757679839559190090000007519639139524357531_">
	
		<linearGradient id="SVGID_1_" gradientUnits="userSpaceOnUse" x1="511.8092" y1="857.2435" x2="511.8092" y2="873.5875" gradientTransform="matrix(0.9877 -0.1564 0.1564 0.9877 -75.1512 86.475)">
		<stop  offset="0" style="stop-color:#A9ADAB"/>
		<stop  offset="0.3581" style="stop-color:#A6AAA8"/>
		<stop  offset="0.6161" style="stop-color:#9DA19F"/>
		<stop  offset="0.8419" style="stop-color:#8E918F"/>
	</linearGradient>
	<path class="st0" d="M918.7,811L214.6,922.5c-19.5,3.1-37.8-10.2-40.9-29.7L77.9,287.9c-3.1-19.5,10.2-37.8,29.7-40.9l704.2-111.5
		c19.5-3.1,37.8,10.2,40.9,29.7l95.8,604.9C951.5,789.6,938.2,807.9,918.7,811z"/>
	<path class="st1" d="M916.1,794.3L211.9,905.8c-19.5,3.1-37.8-10.2-40.9-29.7L75.2,271.2c-3.1-19.5,10.2-37.8,29.7-40.9
		l704.2-111.5c19.5-3.1,37.8,10.2,40.9,29.7l95.8,604.9C948.8,772.9,935.5,791.2,916.1,794.3z"/>
	<g class="st2">
		<path class="st3" d="M114.6,299.4c-0.3-2.2,0.9-4,3-4.3c2.1-0.3,3.7,1,4.1,3.2c0.3,2.1-0.8,4-3,4.3
			C116.6,302.9,114.9,301.5,114.6,299.4z"/>
		<path class="st3" d="M126.9,297.4c-0.3-2.2,0.9-4,3-4.3c2.1-0.3,3.7,1,4.1,3.2c0.3,2.1-0.8,4-3,4.3
			C128.9,301,127.2,299.6,126.9,297.4z"/>
		<path class="st3" d="M139.2,295.5c-0.3-2.2,0.9-4,3-4.3c2.1-0.3,3.7,1,4.1,3.2c0.3,2.1-0.8,4-3,4.3
			C141.2,299,139.5,297.6,139.2,295.5z"/>
		<path class="st3" d="M151.4,293.6c-0.3-2.2,0.9-4,3-4.3c2.1-0.3,3.7,1,4.1,3.2c0.3,2.1-0.8,4-3,4.3
			C153.5,297.1,151.8,295.7,151.4,293.6z"/>
		<path class="st3" d="M163.7,291.6c-0.3-2.2,0.9-4,3-4.3c2.1-0.3,3.7,1,4.1,3.2c0.3,2.1-0.8,4-3,4.3
			C165.7,295.1,164.1,293.7,163.7,291.6z"/>
		<path class="st3" d="M176,289.7c-0.3-2.2,0.9-4,3-4.3c2.1-0.3,3.7,1,4.1,3.2c0.3,2.1-0.8,4-3,4.3C178,293.2,176.4,291.8,176,289.7
			z"/>
		<path class="st3" d="M188.3,287.7c-0.3-2.2,0.9-4,3-4.3c2.1-0.3,3.7,1,4.1,3.2c0.3,2.1-0.8,4-3,4.3
			C190.3,291.2,188.6,289.9,188.3,287.7z"/>
		<path class="st3" d="M200.6,285.8c-0.3-2.2,0.9-4,3-4.3c2.1-0.3,3.7,1,4.1,3.2c0.3,2.1-0.8,4-3,4.3
			C202.6,289.3,200.9,287.9,200.6,285.8z"/>
		<path class="st3" d="M212.9,283.8c-0.3-2.2,0.9-4,3-4.3c2.1-0.3,3.7,1,4.1,3.2c0.3,2.1-0.8,4-3,4.3
			C214.9,287.3,213.2,286,212.9,283.8z"/>
		<path class="st3" d="M225.2,281.9c-0.3-2.2,0.9-4,3-4.3c2.1-0.3,3.7,1,4.1,3.2c0.3,2.1-0.8,4-3,4.3
			C227.2,285.4,225.5,284,225.2,281.9z"/>
		<path class="st3" d="M237.5,279.9c-0.3-2.2,0.9-4,3-4.3c2.1-0.3,3.7,1,4.1,3.2c0.3,2.1-0.8,4-3,4.3
			C239.5,283.4,237.8,282.1,237.5,279.9z"/>
		<path class="st3" d="M249.7,278c-0.3-2.2,0.9-4,3-4.3c2.1-0.3,3.7,1,4.1,3.2c0.3,2.1-0.8,4-3,4.3
			C251.8,281.5,250.1,280.1,249.7,278z"/>
		<path class="st3" d="M262,276c-0.3-2.2,0.9-4,3-4.3c2.1-0.3,3.7,1,4.1,3.2c0.3,2.1-0.8,4-3,4.3C264,279.6,262.4,278.2,262,276z"/>
		<path class="st3" d="M274.3,274.1c-0.3-2.2,0.9-4,3-4.3c2.1-0.3,3.7,1,4.1,3.2c0.3,2.1-0.8,4-3,4.3
			C276.3,277.6,274.7,276.2,274.3,274.1z"/>
		<path class="st3" d="M286.6,272.1c-0.3-2.2,0.9-4,3-4.3c2.1-0.3,3.7,1,4.1,3.2c0.3,2.1-0.8,4-3,4.3
			C288.6,275.7,286.9,274.3,286.6,272.1z"/>
		<path class="st3" d="M298.9,270.2c-0.3-2.2,0.9-4,3-4.3c2.1-0.3,3.7,1,4.1,3.2c0.3,2.1-0.8,4-3,4.3
			C300.9,273.7,299.2,272.3,298.9,270.2z"/>
		<path class="st3" d="M311.2,268.3c-0.3-2.2,0.9-4,3-4.3c2.1-0.3,3.7,1,4.1,3.2c0.3,2.1-0.8,4-3,4.3
			C313.2,271.8,311.5,270.4,311.2,268.3z"/>
		<path class="st3" d="M323.5,266.3c-0.3-2.2,0.9-4,3-4.3c2.1-0.3,3.7,1,4.1,3.2c0.3,2.1-0.8,4-3,4.3
			C325.5,269.8,323.8,268.4,323.5,266.3z"/>
		<path class="st3" d="M335.7,264.4c-0.3-2.2,0.9-4,3-4.3c2.1-0.3,3.7,1,4.1,3.2c0.3,2.1-0.8,4-3,4.3
			C337.8,267.9,336.1,266.5,335.7,264.4z"/>
		<path class="st3" d="M348,262.4c-0.3-2.2,0.9-4,3-4.3c2.1-0.3,3.7,1,4.1,3.2c0.3,2.1-0.8,4-3,4.3
			C350.1,265.9,348.4,264.6,348,262.4z"/>
		<path class="st3" d="M360.3,260.5c-0.3-2.2,0.9-4,3-4.3c2.1-0.3,3.7,1,4.1,3.2c0.3,2.1-0.8,4-3,4.3
			C362.3,264,360.7,262.6,360.3,260.5z"/>
		<path class="st3" d="M372.6,258.5c-0.3-2.2,0.9-4,3-4.3c2.1-0.3,3.7,1,4.1,3.2c0.3,2.1-0.8,4-3,4.3
			C374.6,262,372.9,260.7,372.6,258.5z"/>
		<path class="st3" d="M384.9,256.6c-0.3-2.2,0.9-4,3-4.3c2.1-0.3,3.7,1,4.1,3.2c0.3,2.1-0.8,4-3,4.3
			C386.9,260.1,385.2,258.7,384.9,256.6z"/>
		<path class="st3" d="M397.2,254.6c-0.3-2.2,0.9-4,3-4.3c2.1-0.3,3.7,1,4.1,3.2c0.3,2.1-0.8,4-3,4.3
			C399.2,258.1,397.5,256.8,397.2,254.6z"/>
		<path class="st3" d="M409.5,252.7c-0.3-2.2,0.9-4,3-4.3c2.1-0.3,3.7,1,4.1,3.2c0.3,2.1-0.8,4-3,4.3
			C411.5,256.2,409.8,254.8,409.5,252.7z"/>
		<path class="st3" d="M421.8,250.7c-0.3-2.2,0.9-4,3-4.3c2.1-0.3,3.7,1,4.1,3.2c0.3,2.1-0.8,4-3,4.3
			C423.8,254.3,422.1,252.9,421.8,250.7z"/>
		<path class="st3" d="M434,248.8c-0.3-2.2,0.9-4,3-4.3c2.1-0.3,3.7,1,4.1,3.2c0.3,2.1-0.8,4-3,4.3
			C436.1,252.3,434.4,250.9,434,248.8z"/>
		<path class="st3" d="M446.3,246.8c-0.3-2.2,0.9-4,3-4.3c2.1-0.3,3.7,1,4.1,3.2c0.3,2.1-0.8,4-3,4.3
			C448.3,250.4,446.7,249,446.3,246.8z"/>
		<path class="st3" d="M458.6,244.9c-0.3-2.2,0.9-4,3-4.3c2.1-0.3,3.7,1,4.1,3.2c0.3,2.1-0.8,4-3,4.3
			C460.6,248.4,459,247,458.6,244.9z"/>
		<path class="st3" d="M470.9,243c-0.3-2.2,0.9-4,3-4.3c2.1-0.3,3.7,1,4.1,3.2c0.3,2.1-0.8,4-3,4.3
			C472.9,246.5,471.2,245.1,470.9,243z"/>
		<path class="st3" d="M483.2,241c-0.3-2.2,0.9-4,3-4.3c2.1-0.3,3.7,1,4.1,3.2c0.3,2.1-0.8,4-3,4.3
			C485.2,244.5,483.5,243.1,483.2,241z"/>
		<path class="st3" d="M495.5,239.1c-0.3-2.2,0.9-4,3-4.3c2.1-0.3,3.7,1,4.1,3.2c0.3,2.1-0.8,4-3,4.3
			C497.5,242.6,495.8,241.2,495.5,239.1z"/>
		<path class="st3" d="M507.8,237.1c-0.3-2.2,0.9-4,3-4.3c2.1-0.3,3.7,1,4.1,3.2c0.3,2.1-0.8,4-3,4.3
			C509.8,240.6,508.1,239.3,507.8,237.1z"/>
		<path class="st3" d="M520.1,235.2c-0.3-2.2,0.9-4,3-4.3c2.1-0.3,3.7,1,4.1,3.2c0.3,2.1-0.8,4-3,4.3
			C522.1,238.7,520.4,237.3,520.1,235.2z"/>
		<path class="st3" d="M532.3,233.2c-0.3-2.2,0.9-4,3-4.3c2.1-0.3,3.7,1,4.1,3.2c0.3,2.1-0.8,4-3,4.3
			C534.4,236.7,532.7,235.4,532.3,233.2z"/>
		<path class="st3" d="M544.6,231.3c-0.3-2.2,0.9-4,3-4.3c2.1-0.3,3.7,1,4.1,3.2c0.3,2.1-0.8,4-3,4.3
			C546.6,234.8,545,233.4,544.6,231.3z"/>
		<path class="st3" d="M556.9,229.3c-0.3-2.2,0.9-4,3-4.3c2.1-0.3,3.7,1,4.1,3.2c0.3,2.1-0.8,4-3,4.3
			C558.9,232.8,557.2,231.5,556.9,229.3z"/>
		<path class="st3" d="M569.2,227.4c-0.3-2.2,0.9-4,3-4.3c2.1-0.3,3.7,1,4.1,3.2c0.3,2.1-0.8,4-3,4.3
			C571.2,230.9,569.5,229.5,569.2,227.4z"/>
		<path class="st3" d="M581.5,225.4c-0.3-2.2,0.9-4,3-4.3c2.1-0.3,3.7,1,4.1,3.2c0.3,2.1-0.8,4-3,4.3
			C583.5,229,581.8,227.6,581.5,225.4z"/>
		<path class="st3" d="M593.8,223.5c-0.3-2.2,0.9-4,3-4.3c2.1-0.3,3.7,1,4.1,3.2c0.3,2.1-0.8,4-3,4.3
			C595.8,227,594.1,225.6,593.8,223.5z"/>
		<path class="st3" d="M606.1,221.6c-0.3-2.2,0.9-4,3-4.3c2.1-0.3,3.7,1,4.1,3.2c0.3,2.1-0.8,4-3,4.3
			C608.1,225.1,606.4,223.7,606.1,221.6z"/>
		<path class="st3" d="M618.3,219.6c-0.3-2.2,0.9-4,3-4.3c2.1-0.3,3.7,1,4.1,3.2c0.3,2.1-0.8,4-3,4.3
			C620.4,223.1,618.7,221.7,618.3,219.6z"/>
		<path class="st3" d="M630.6,217.7c-0.3-2.2,0.9-4,3-4.3c2.1-0.3,3.7,1,4.1,3.2c0.3,2.1-0.8,4-3,4.3
			C632.7,221.2,631,219.8,630.6,217.7z"/>
		<path class="st3" d="M642.9,215.7c-0.3-2.2,0.9-4,3-4.3c2.1-0.3,3.7,1,4.1,3.2c0.3,2.1-0.8,4-3,4.3
			C644.9,219.2,643.3,217.8,642.9,215.7z"/>
		<path class="st3" d="M655.2,213.8c-0.3-2.2,0.9-4,3-4.3c2.1-0.3,3.7,1,4.1,3.2c0.3,2.1-0.8,4-3,4.3
			C657.2,217.3,655.5,215.9,655.2,213.8z"/>
		<path class="st3" d="M667.5,211.8c-0.3-2.2,0.9-4,3-4.3c2.1-0.3,3.7,1,4.1,3.2c0.3,2.1-0.8,4-3,4.3
			C669.5,215.3,667.8,214,667.5,211.8z"/>
		<path class="st3" d="M679.8,209.9c-0.3-2.2,0.9-4,3-4.3c2.1-0.3,3.7,1,4.1,3.2c0.3,2.1-0.8,4-3,4.3
			C681.8,213.4,680.1,212,679.8,209.9z"/>
		<path class="st3" d="M692.1,207.9c-0.3-2.2,0.9-4,3-4.3c2.1-0.3,3.7,1,4.1,3.2c0.3,2.1-0.8,4-3,4.3
			C694.1,211.4,692.4,210.1,692.1,207.9z"/>
		<path class="st3" d="M704.4,206c-0.3-2.2,0.9-4,3-4.3c2.1-0.3,3.7,1,4.1,3.2c0.3,2.1-0.8,4-3,4.3
			C706.4,209.5,704.7,208.1,704.4,206z"/>
		<path class="st3" d="M716.6,204c-0.3-2.2,0.9-4,3-4.3c2.1-0.3,3.7,1,4.1,3.2c0.3,2.1-0.8,4-3,4.3C718.7,207.6,717,206.2,716.6,204
			z"/>
		<path class="st3" d="M728.9,202.1c-0.3-2.2,0.9-4,3-4.3c2.1-0.3,3.7,1,4.1,3.2c0.3,2.1-0.8,4-3,4.3
			C730.9,205.6,729.3,204.2,728.9,202.1z"/>
		<path class="st3" d="M741.2,200.1c-0.3-2.2,0.9-4,3-4.3c2.1-0.3,3.7,1,4.1,3.2c0.3,2.1-0.8,4-3,4.3
			C743.2,203.7,741.6,202.3,741.2,200.1z"/>
		<path class="st3" d="M753.5,198.2c-0.3-2.2,0.9-4,3-4.3c2.1-0.3,3.7,1,4.1,3.2c0.3,2.1-0.8,4-3,4.3
			C755.5,201.7,753.8,200.3,753.5,198.2z"/>
		<path class="st3" d="M765.8,196.3c-0.3-2.2,0.9-4,3-4.3c2.1-0.3,3.7,1,4.1,3.2c0.3,2.1-0.8,4-3,4.3
			C767.8,199.8,766.1,198.4,765.8,196.3z"/>
		<path class="st3" d="M778.1,194.3c-0.3-2.2,0.9-4,3-4.3c2.1-0.3,3.7,1,4.1,3.2c0.3,2.1-0.8,4-3,4.3
			C780.1,197.8,778.4,196.4,778.1,194.3z"/>
		<path class="st3" d="M790.4,192.4c-0.3-2.2,0.9-4,3-4.3c2.1-0.3,3.7,1,4.1,3.2c0.3,2.1-0.8,4-3,4.3
			C792.4,195.9,790.7,194.5,790.4,192.4z"/>
		<path class="st3" d="M802.7,190.4c-0.3-2.2,0.9-4,3-4.3c2.1-0.3,3.7,1,4.1,3.2c0.3,2.1-0.8,4-3,4.3
			C804.7,193.9,803,192.6,802.7,190.4z"/>
		<path class="st3" d="M814.9,188.5c-0.3-2.2,0.9-4,3-4.3c2.1-0.3,3.7,1,4.1,3.2c0.3,2.1-0.8,4-3,4.3
			C817,192,815.3,190.6,814.9,188.5z"/>
	</g>
	<g class="st2">
		<path class="st3" d="M131.8,407.9c-0.3-2.2,0.9-4,3-4.3c2.1-0.3,3.7,1,4.1,3.2c0.3,2.1-0.8,4-3,4.3
			C133.8,411.4,132.1,410,131.8,407.9z"/>
		<path class="st3" d="M144.1,405.9c-0.3-2.2,0.9-4,3-4.3c2.1-0.3,3.7,1,4.1,3.2c0.3,2.1-0.8,4-3,4.3
			C146.1,409.5,144.4,408.1,144.1,405.9z"/>
		<path class="st3" d="M156.3,404c-0.3-2.2,0.9-4,3-4.3c2.1-0.3,3.7,1,4.1,3.2c0.3,2.1-0.8,4-3,4.3
			C158.4,407.5,156.7,406.1,156.3,404z"/>
		<path class="st3" d="M168.6,402.1c-0.3-2.2,0.9-4,3-4.3c2.1-0.3,3.7,1,4.1,3.2c0.3,2.1-0.8,4-3,4.3
			C170.6,405.6,169,404.2,168.6,402.1z"/>
		<path class="st3" d="M180.9,400.1c-0.3-2.2,0.9-4,3-4.3c2.1-0.3,3.7,1,4.1,3.2c0.3,2.1-0.8,4-3,4.3
			C182.9,403.6,181.3,402.2,180.9,400.1z"/>
		<path class="st3" d="M193.2,398.2c-0.3-2.2,0.9-4,3-4.3c2.1-0.3,3.7,1,4.1,3.2c0.3,2.1-0.8,4-3,4.3
			C195.2,401.7,193.5,400.3,193.2,398.2z"/>
		<path class="st3" d="M205.5,396.2c-0.3-2.2,0.9-4,3-4.3c2.1-0.3,3.7,1,4.1,3.2c0.3,2.1-0.8,4-3,4.3
			C207.5,399.7,205.8,398.4,205.5,396.2z"/>
		<path class="st3" d="M217.8,394.3c-0.3-2.2,0.9-4,3-4.3c2.1-0.3,3.7,1,4.1,3.2c0.3,2.1-0.8,4-3,4.3
			C219.8,397.8,218.1,396.4,217.8,394.3z"/>
		<path class="st3" d="M230.1,392.3c-0.3-2.2,0.9-4,3-4.3c2.1-0.3,3.7,1,4.1,3.2c0.3,2.1-0.8,4-3,4.3
			C232.1,395.8,230.4,394.5,230.1,392.3z"/>
		<path class="st3" d="M242.3,390.4c-0.3-2.2,0.9-4,3-4.3c2.1-0.3,3.7,1,4.1,3.2c0.3,2.1-0.8,4-3,4.3
			C244.4,393.9,242.7,392.5,242.3,390.4z"/>
		<path class="st3" d="M254.6,388.4c-0.3-2.2,0.9-4,3-4.3c2.1-0.3,3.7,1,4.1,3.2c0.3,2.1-0.8,4-3,4.3
			C256.7,391.9,255,390.6,254.6,388.4z"/>
		<path class="st3" d="M266.9,386.5c-0.3-2.2,0.9-4,3-4.3c2.1-0.3,3.7,1,4.1,3.2c0.3,2.1-0.8,4-3,4.3
			C268.9,390,267.3,388.6,266.9,386.5z"/>
		<path class="st3" d="M279.2,384.5c-0.3-2.2,0.9-4,3-4.3c2.1-0.3,3.7,1,4.1,3.2c0.3,2.1-0.8,4-3,4.3
			C281.2,388.1,279.5,386.7,279.2,384.5z"/>
		<path class="st3" d="M291.5,382.6c-0.3-2.2,0.9-4,3-4.3c2.1-0.3,3.7,1,4.1,3.2c0.3,2.1-0.8,4-3,4.3
			C293.5,386.1,291.8,384.7,291.5,382.6z"/>
		<path class="st3" d="M303.8,380.7c-0.3-2.2,0.9-4,3-4.3c2.1-0.3,3.7,1,4.1,3.2c0.3,2.1-0.8,4-3,4.3
			C305.8,384.2,304.1,382.8,303.8,380.7z"/>
		<path class="st3" d="M316.1,378.7c-0.3-2.2,0.9-4,3-4.3c2.1-0.3,3.7,1,4.1,3.2c0.3,2.1-0.8,4-3,4.3
			C318.1,382.2,316.4,380.8,316.1,378.7z"/>
		<path class="st3" d="M328.4,376.8c-0.3-2.2,0.9-4,3-4.3c2.1-0.3,3.7,1,4.1,3.2c0.3,2.1-0.8,4-3,4.3
			C330.4,380.3,328.7,378.9,328.4,376.8z"/>
		<path class="st3" d="M340.6,374.8c-0.3-2.2,0.9-4,3-4.3c2.1-0.3,3.7,1,4.1,3.2c0.3,2.1-0.8,4-3,4.3
			C342.7,378.3,341,376.9,340.6,374.8z"/>
		<path class="st3" d="M352.9,372.9c-0.3-2.2,0.9-4,3-4.3c2.1-0.3,3.7,1,4.1,3.2c0.3,2.1-0.8,4-3,4.3
			C354.9,376.4,353.3,375,352.9,372.9z"/>
		<path class="st3" d="M365.2,370.9c-0.3-2.2,0.9-4,3-4.3c2.1-0.3,3.7,1,4.1,3.2c0.3,2.1-0.8,4-3,4.3
			C367.2,374.4,365.6,373.1,365.2,370.9z"/>
		<path class="st3" d="M377.5,369c-0.3-2.2,0.9-4,3-4.3c2.1-0.3,3.7,1,4.1,3.2c0.3,2.1-0.8,4-3,4.3
			C379.5,372.5,377.8,371.1,377.5,369z"/>
		<path class="st3" d="M389.8,367c-0.3-2.2,0.9-4,3-4.3c2.1-0.3,3.7,1,4.1,3.2c0.3,2.1-0.8,4-3,4.3
			C391.8,370.5,390.1,369.2,389.8,367z"/>
		<path class="st3" d="M402.1,365.1c-0.3-2.2,0.9-4,3-4.3c2.1-0.3,3.7,1,4.1,3.2c0.3,2.1-0.8,4-3,4.3
			C404.1,368.6,402.4,367.2,402.1,365.1z"/>
		<path class="st3" d="M414.4,363.1c-0.3-2.2,0.9-4,3-4.3c2.1-0.3,3.7,1,4.1,3.2c0.3,2.1-0.8,4-3,4.3
			C416.4,366.6,414.7,365.3,414.4,363.1z"/>
		<path class="st3" d="M426.7,361.2c-0.3-2.2,0.9-4,3-4.3c2.1-0.3,3.7,1,4.1,3.2c0.3,2.1-0.8,4-3,4.3
			C428.7,364.7,427,363.3,426.7,361.2z"/>
		<path class="st3" d="M438.9,359.2c-0.3-2.2,0.9-4,3-4.3c2.1-0.3,3.7,1,4.1,3.2c0.3,2.1-0.8,4-3,4.3
			C441,362.8,439.3,361.4,438.9,359.2z"/>
		<path class="st3" d="M451.2,357.3c-0.3-2.2,0.9-4,3-4.3c2.1-0.3,3.7,1,4.1,3.2c0.3,2.1-0.8,4-3,4.3
			C453.2,360.8,451.6,359.4,451.2,357.3z"/>
		<path class="st3" d="M463.5,355.4c-0.3-2.2,0.9-4,3-4.3c2.1-0.3,3.7,1,4.1,3.2c0.3,2.1-0.8,4-3,4.3
			C465.5,358.9,463.9,357.5,463.5,355.4z"/>
		<path class="st3" d="M475.8,353.4c-0.3-2.2,0.9-4,3-4.3c2.1-0.3,3.7,1,4.1,3.2c0.3,2.1-0.8,4-3,4.3
			C477.8,356.9,476.1,355.5,475.8,353.4z"/>
		<path class="st3" d="M488.1,351.5c-0.3-2.2,0.9-4,3-4.3c2.1-0.3,3.7,1,4.1,3.2c0.3,2.1-0.8,4-3,4.3
			C490.1,355,488.4,353.6,488.1,351.5z"/>
		<path class="st3" d="M500.4,349.5c-0.3-2.2,0.9-4,3-4.3c2.1-0.3,3.7,1,4.1,3.2c0.3,2.1-0.8,4-3,4.3
			C502.4,353,500.7,351.7,500.4,349.5z"/>
		<path class="st3" d="M512.7,347.6c-0.3-2.2,0.9-4,3-4.3c2.1-0.3,3.7,1,4.1,3.2c0.3,2.1-0.8,4-3,4.3
			C514.7,351.1,513,349.7,512.7,347.6z"/>
		<path class="st3" d="M524.9,345.6c-0.3-2.2,0.9-4,3-4.3s3.7,1,4.1,3.2c0.3,2.1-0.8,4-3,4.3C527,349.1,525.3,347.8,524.9,345.6z"/>
		<path class="st3" d="M537.2,343.7c-0.3-2.2,0.9-4,3-4.3c2.1-0.3,3.7,1,4.1,3.2c0.3,2.1-0.8,4-3,4.3
			C539.3,347.2,537.6,345.8,537.2,343.7z"/>
		<path class="st3" d="M549.5,341.7c-0.3-2.2,0.9-4,3-4.3c2.1-0.3,3.7,1,4.1,3.2c0.3,2.1-0.8,4-3,4.3
			C551.5,345.2,549.9,343.9,549.5,341.7z"/>
		<path class="st3" d="M561.8,339.8c-0.3-2.2,0.9-4,3-4.3c2.1-0.3,3.7,1,4.1,3.2c0.3,2.1-0.8,4-3,4.3
			C563.8,343.3,562.1,341.9,561.8,339.8z"/>
		<path class="st3" d="M574.1,337.8c-0.3-2.2,0.9-4,3-4.3c2.1-0.3,3.7,1,4.1,3.2c0.3,2.1-0.8,4-3,4.3
			C576.1,341.4,574.4,340,574.1,337.8z"/>
		<path class="st3" d="M586.4,335.9c-0.3-2.2,0.9-4,3-4.3c2.1-0.3,3.7,1,4.1,3.2c0.3,2.1-0.8,4-3,4.3
			C588.4,339.4,586.7,338,586.4,335.9z"/>
		<path class="st3" d="M598.7,333.9c-0.3-2.2,0.9-4,3-4.3s3.7,1,4.1,3.2c0.3,2.1-0.8,4-3,4.3C600.7,337.5,599,336.1,598.7,333.9z"/>
		<path class="st3" d="M611,332c-0.3-2.2,0.9-4,3-4.3c2.1-0.3,3.7,1,4.1,3.2c0.3,2.1-0.8,4-3,4.3C613,335.5,611.3,334.1,611,332z"/>
		<path class="st3" d="M623.2,330.1c-0.3-2.2,0.9-4,3-4.3c2.1-0.3,3.7,1,4.1,3.2c0.3,2.1-0.8,4-3,4.3
			C625.3,333.6,623.6,332.2,623.2,330.1z"/>
		<path class="st3" d="M635.5,328.1c-0.3-2.2,0.9-4,3-4.3c2.1-0.3,3.7,1,4.1,3.2c0.3,2.1-0.8,4-3,4.3
			C637.5,331.6,635.9,330.2,635.5,328.1z"/>
		<path class="st3" d="M647.8,326.2c-0.3-2.2,0.9-4,3-4.3c2.1-0.3,3.7,1,4.1,3.2c0.3,2.1-0.8,4-3,4.3
			C649.8,329.7,648.2,328.3,647.8,326.2z"/>
		<path class="st3" d="M660.1,324.2c-0.3-2.2,0.9-4,3-4.3s3.7,1,4.1,3.2c0.3,2.1-0.8,4-3,4.3C662.1,327.7,660.4,326.4,660.1,324.2z"
			/>
		<path class="st3" d="M672.4,322.3c-0.3-2.2,0.9-4,3-4.3c2.1-0.3,3.7,1,4.1,3.2c0.3,2.1-0.8,4-3,4.3
			C674.4,325.8,672.7,324.4,672.4,322.3z"/>
		<path class="st3" d="M684.7,320.3c-0.3-2.2,0.9-4,3-4.3c2.1-0.3,3.7,1,4.1,3.2c0.3,2.1-0.8,4-3,4.3
			C686.7,323.8,685,322.5,684.7,320.3z"/>
		<path class="st3" d="M697,318.4c-0.3-2.2,0.9-4,3-4.3c2.1-0.3,3.7,1,4.1,3.2c0.3,2.1-0.8,4-3,4.3C699,321.9,697.3,320.5,697,318.4
			z"/>
		<path class="st3" d="M709.3,316.4c-0.3-2.2,0.9-4,3-4.3s3.7,1,4.1,3.2c0.3,2.1-0.8,4-3,4.3C711.3,319.9,709.6,318.6,709.3,316.4z"
			/>
		<path class="st3" d="M721.5,314.5c-0.3-2.2,0.9-4,3-4.3c2.1-0.3,3.7,1,4.1,3.2c0.3,2.1-0.8,4-3,4.3
			C723.6,318,721.9,316.6,721.5,314.5z"/>
		<path class="st3" d="M733.8,312.5c-0.3-2.2,0.9-4,3-4.3c2.1-0.3,3.7,1,4.1,3.2c0.3,2.1-0.8,4-3,4.3
			C735.8,316.1,734.2,314.7,733.8,312.5z"/>
		<path class="st3" d="M746.1,310.6c-0.3-2.2,0.9-4,3-4.3c2.1-0.3,3.7,1,4.1,3.2c0.3,2.1-0.8,4-3,4.3
			C748.1,314.1,746.5,312.7,746.1,310.6z"/>
		<path class="st3" d="M758.4,308.6c-0.3-2.2,0.9-4,3-4.3c2.1-0.3,3.7,1,4.1,3.2c0.3,2.1-0.8,4-3,4.3
			C760.4,312.2,758.7,310.8,758.4,308.6z"/>
		<path class="st3" d="M770.7,306.7c-0.3-2.2,0.9-4,3-4.3s3.7,1,4.1,3.2c0.3,2.1-0.8,4-3,4.3C772.7,310.2,771,308.8,770.7,306.7z"/>
		<path class="st3" d="M783,304.8c-0.3-2.2,0.9-4,3-4.3c2.1-0.3,3.7,1,4.1,3.2c0.3,2.1-0.8,4-3,4.3C785,308.3,783.3,306.9,783,304.8
			z"/>
		<path class="st3" d="M795.3,302.8c-0.3-2.2,0.9-4,3-4.3c2.1-0.3,3.7,1,4.1,3.2c0.3,2.1-0.8,4-3,4.3
			C797.3,306.3,795.6,304.9,795.3,302.8z"/>
		<path class="st3" d="M807.5,300.9c-0.3-2.2,0.9-4,3-4.3c2.1-0.3,3.7,1,4.1,3.2c0.3,2.1-0.8,4-3,4.3
			C809.6,304.4,807.9,303,807.5,300.9z"/>
		<path class="st3" d="M819.8,298.9c-0.3-2.2,0.9-4,3-4.3c2.1-0.3,3.7,1,4.1,3.2c0.3,2.1-0.8,4-3,4.3
			C821.9,302.4,820.2,301.1,819.8,298.9z"/>
		<path class="st3" d="M832.1,297c-0.3-2.2,0.9-4,3-4.3c2.1-0.3,3.7,1,4.1,3.2c0.3,2.1-0.8,4-3,4.3
			C834.1,300.5,832.5,299.1,832.1,297z"/>
	</g>
	<g class="st2">
		<path class="st3" d="M149,516.4c-0.3-2.2,0.9-4,3-4.3c2.1-0.3,3.7,1,4.1,3.2c0.3,2.1-0.8,4-3,4.3C151,519.9,149.3,518.5,149,516.4
			z"/>
		<path class="st3" d="M161.2,514.5c-0.3-2.2,0.9-4,3-4.3c2.1-0.3,3.7,1,4.1,3.2c0.3,2.1-0.8,4-3,4.3
			C163.3,518,161.6,516.6,161.2,514.5z"/>
		<path class="st3" d="M173.5,512.5c-0.3-2.2,0.9-4,3-4.3c2.1-0.3,3.7,1,4.1,3.2c0.3,2.1-0.8,4-3,4.3
			C175.5,516,173.9,514.6,173.5,512.5z"/>
		<path class="st3" d="M185.8,510.6c-0.3-2.2,0.9-4,3-4.3c2.1-0.3,3.7,1,4.1,3.2c0.3,2.1-0.8,4-3,4.3
			C187.8,514.1,186.2,512.7,185.8,510.6z"/>
		<path class="st3" d="M198.1,508.6c-0.3-2.2,0.9-4,3-4.3c2.1-0.3,3.7,1,4.1,3.2c0.3,2.1-0.8,4-3,4.3
			C200.1,512.1,198.4,510.7,198.1,508.6z"/>
		<path class="st3" d="M210.4,506.7c-0.3-2.2,0.9-4,3-4.3c2.1-0.3,3.7,1,4.1,3.2c0.3,2.1-0.8,4-3,4.3
			C212.4,510.2,210.7,508.8,210.4,506.7z"/>
		<path class="st3" d="M222.7,504.7c-0.3-2.2,0.9-4,3-4.3c2.1-0.3,3.7,1,4.1,3.2c0.3,2.1-0.8,4-3,4.3
			C224.7,508.2,223,506.9,222.7,504.7z"/>
		<path class="st3" d="M235,502.8c-0.3-2.2,0.9-4,3-4.3c2.1-0.3,3.7,1,4.1,3.2c0.3,2.1-0.8,4-3,4.3C237,506.3,235.3,504.9,235,502.8
			z"/>
		<path class="st3" d="M247.2,500.8c-0.3-2.2,0.9-4,3-4.3c2.1-0.3,3.7,1,4.1,3.2c0.3,2.1-0.8,4-3,4.3
			C249.3,504.3,247.6,503,247.2,500.8z"/>
		<path class="st3" d="M259.5,498.9c-0.3-2.2,0.9-4,3-4.3c2.1-0.3,3.7,1,4.1,3.2c0.3,2.1-0.8,4-3,4.3
			C261.6,502.4,259.9,501,259.5,498.9z"/>
		<path class="st3" d="M271.8,496.9c-0.3-2.2,0.9-4,3-4.3c2.1-0.3,3.7,1,4.1,3.2c0.3,2.1-0.8,4-3,4.3
			C273.8,500.5,272.2,499.1,271.8,496.9z"/>
		<path class="st3" d="M284.1,495c-0.3-2.2,0.9-4,3-4.3c2.1-0.3,3.7,1,4.1,3.2c0.3,2.1-0.8,4-3,4.3
			C286.1,498.5,284.4,497.1,284.1,495z"/>
		<path class="st3" d="M296.4,493c-0.3-2.2,0.9-4,3-4.3c2.1-0.3,3.7,1,4.1,3.2c0.3,2.1-0.8,4-3,4.3
			C298.4,496.6,296.7,495.2,296.4,493z"/>
		<path class="st3" d="M308.7,491.1c-0.3-2.2,0.9-4,3-4.3c2.1-0.3,3.7,1,4.1,3.2c0.3,2.1-0.8,4-3,4.3
			C310.7,494.6,309,493.2,308.7,491.1z"/>
		<path class="st3" d="M321,489.2c-0.3-2.2,0.9-4,3-4.3c2.1-0.3,3.7,1,4.1,3.2c0.3,2.1-0.8,4-3,4.3C323,492.7,321.3,491.3,321,489.2
			z"/>
		<path class="st3" d="M333.3,487.2c-0.3-2.2,0.9-4,3-4.3c2.1-0.3,3.7,1,4.1,3.2c0.3,2.1-0.8,4-3,4.3
			C335.3,490.7,333.6,489.3,333.3,487.2z"/>
		<path class="st3" d="M345.5,485.3c-0.3-2.2,0.9-4,3-4.3c2.1-0.3,3.7,1,4.1,3.2c0.3,2.1-0.8,4-3,4.3
			C347.6,488.8,345.9,487.4,345.5,485.3z"/>
		<path class="st3" d="M357.8,483.3c-0.3-2.2,0.9-4,3-4.3c2.1-0.3,3.7,1,4.1,3.2c0.3,2.1-0.8,4-3,4.3
			C359.8,486.8,358.2,485.5,357.8,483.3z"/>
		<path class="st3" d="M370.1,481.4c-0.3-2.2,0.9-4,3-4.3c2.1-0.3,3.7,1,4.1,3.2c0.3,2.1-0.8,4-3,4.3
			C372.1,484.9,370.5,483.5,370.1,481.4z"/>
		<path class="st3" d="M382.4,479.4c-0.3-2.2,0.9-4,3-4.3c2.1-0.3,3.7,1,4.1,3.2c0.3,2.1-0.8,4-3,4.3
			C384.4,482.9,382.7,481.6,382.4,479.4z"/>
		<path class="st3" d="M394.7,477.5c-0.3-2.2,0.9-4,3-4.3c2.1-0.3,3.7,1,4.1,3.2c0.3,2.1-0.8,4-3,4.3
			C396.7,481,395,479.6,394.7,477.5z"/>
		<path class="st3" d="M407,475.5c-0.3-2.2,0.9-4,3-4.3c2.1-0.3,3.7,1,4.1,3.2c0.3,2.1-0.8,4-3,4.3C409,479,407.3,477.7,407,475.5z"
			/>
		<path class="st3" d="M419.3,473.6c-0.3-2.2,0.9-4,3-4.3c2.1-0.3,3.7,1,4.1,3.2c0.3,2.1-0.8,4-3,4.3
			C421.3,477.1,419.6,475.7,419.3,473.6z"/>
		<path class="st3" d="M431.6,471.6c-0.3-2.2,0.9-4,3-4.3c2.1-0.3,3.7,1,4.1,3.2c0.3,2.1-0.8,4-3,4.3
			C433.6,475.2,431.9,473.8,431.6,471.6z"/>
		<path class="st3" d="M443.8,469.7c-0.3-2.2,0.9-4,3-4.3c2.1-0.3,3.7,1,4.1,3.2c0.3,2.1-0.8,4-3,4.3
			C445.9,473.2,444.2,471.8,443.8,469.7z"/>
		<path class="st3" d="M456.1,467.7c-0.3-2.2,0.9-4,3-4.3c2.1-0.3,3.7,1,4.1,3.2c0.3,2.1-0.8,4-3,4.3
			C458.1,471.3,456.5,469.9,456.1,467.7z"/>
		<path class="st3" d="M468.4,465.8c-0.3-2.2,0.9-4,3-4.3c2.1-0.3,3.7,1,4.1,3.2c0.3,2.1-0.8,4-3,4.3
			C470.4,469.3,468.8,467.9,468.4,465.8z"/>
		<path class="st3" d="M480.7,463.9c-0.3-2.2,0.9-4,3-4.3c2.1-0.3,3.7,1,4.1,3.2c0.3,2.1-0.8,4-3,4.3
			C482.7,467.4,481,466,480.7,463.9z"/>
		<path class="st3" d="M493,461.9c-0.3-2.2,0.9-4,3-4.3s3.7,1,4.1,3.2c0.3,2.1-0.8,4-3,4.3C495,465.4,493.3,464,493,461.9z"/>
		<path class="st3" d="M505.3,460c-0.3-2.2,0.9-4,3-4.3c2.1-0.3,3.7,1,4.1,3.2c0.3,2.1-0.8,4-3,4.3
			C507.3,463.5,505.6,462.1,505.3,460z"/>
		<path class="st3" d="M517.6,458c-0.3-2.2,0.9-4,3-4.3c2.1-0.3,3.7,1,4.1,3.2c0.3,2.1-0.8,4-3,4.3
			C519.6,461.5,517.9,460.2,517.6,458z"/>
		<path class="st3" d="M529.8,456.1c-0.3-2.2,0.9-4,3-4.3c2.1-0.3,3.7,1,4.1,3.2c0.3,2.1-0.8,4-3,4.3
			C531.9,459.6,530.2,458.2,529.8,456.1z"/>
		<path class="st3" d="M542.1,454.1c-0.3-2.2,0.9-4,3-4.3c2.1-0.3,3.7,1,4.1,3.2c0.3,2.1-0.8,4-3,4.3
			C544.2,457.6,542.5,456.3,542.1,454.1z"/>
		<path class="st3" d="M554.4,452.2c-0.3-2.2,0.9-4,3-4.3c2.1-0.3,3.7,1,4.1,3.2c0.3,2.1-0.8,4-3,4.3
			C556.4,455.7,554.8,454.3,554.4,452.2z"/>
		<path class="st3" d="M566.7,450.2c-0.3-2.2,0.9-4,3-4.3c2.1-0.3,3.7,1,4.1,3.2c0.3,2.1-0.8,4-3,4.3
			C568.7,453.7,567,452.4,566.7,450.2z"/>
		<path class="st3" d="M579,448.3c-0.3-2.2,0.9-4,3-4.3s3.7,1,4.1,3.2c0.3,2.1-0.8,4-3,4.3C581,451.8,579.3,450.4,579,448.3z"/>
		<path class="st3" d="M591.3,446.3c-0.3-2.2,0.9-4,3-4.3c2.1-0.3,3.7,1,4.1,3.2c0.3,2.1-0.8,4-3,4.3
			C593.3,449.9,591.6,448.5,591.3,446.3z"/>
		<path class="st3" d="M603.6,444.4c-0.3-2.2,0.9-4,3-4.3c2.1-0.3,3.7,1,4.1,3.2c0.3,2.1-0.8,4-3,4.3
			C605.6,447.9,603.9,446.5,603.6,444.4z"/>
		<path class="st3" d="M615.9,442.4c-0.3-2.2,0.9-4,3-4.3c2.1-0.3,3.7,1,4.1,3.2c0.3,2.1-0.8,4-3,4.3
			C617.9,446,616.2,444.6,615.9,442.4z"/>
		<path class="st3" d="M628.1,440.5c-0.3-2.2,0.9-4,3-4.3c2.1-0.3,3.7,1,4.1,3.2c0.3,2.1-0.8,4-3,4.3
			C630.2,444,628.5,442.6,628.1,440.5z"/>
		<path class="st3" d="M640.4,438.6c-0.3-2.2,0.9-4,3-4.3c2.1-0.3,3.7,1,4.1,3.2c0.3,2.1-0.8,4-3,4.3
			C642.4,442.1,640.8,440.7,640.4,438.6z"/>
		<path class="st3" d="M652.7,436.6c-0.3-2.2,0.9-4,3-4.3s3.7,1,4.1,3.2c0.3,2.1-0.8,4-3,4.3C654.7,440.1,653.1,438.7,652.7,436.6z"
			/>
		<path class="st3" d="M665,434.7c-0.3-2.2,0.9-4,3-4.3c2.1-0.3,3.7,1,4.1,3.2c0.3,2.1-0.8,4-3,4.3C667,438.2,665.3,436.8,665,434.7
			z"/>
		<path class="st3" d="M677.3,432.7c-0.3-2.2,0.9-4,3-4.3c2.1-0.3,3.7,1,4.1,3.2c0.3,2.1-0.8,4-3,4.3
			C679.3,436.2,677.6,434.9,677.3,432.7z"/>
		<path class="st3" d="M689.6,430.8c-0.3-2.2,0.9-4,3-4.3s3.7,1,4.1,3.2c0.3,2.1-0.8,4-3,4.3C691.6,434.3,689.9,432.9,689.6,430.8z"
			/>
		<path class="st3" d="M701.9,428.8c-0.3-2.2,0.9-4,3-4.3c2.1-0.3,3.7,1,4.1,3.2c0.3,2.1-0.8,4-3,4.3
			C703.9,432.3,702.2,431,701.9,428.8z"/>
		<path class="st3" d="M714.2,426.9c-0.3-2.2,0.9-4,3-4.3s3.7,1,4.1,3.2c0.3,2.1-0.8,4-3,4.3C716.2,430.4,714.5,429,714.2,426.9z"/>
		<path class="st3" d="M726.4,424.9c-0.3-2.2,0.9-4,3-4.3c2.1-0.3,3.7,1,4.1,3.2c0.3,2.1-0.8,4-3,4.3
			C728.5,428.4,726.8,427.1,726.4,424.9z"/>
		<path class="st3" d="M738.7,423c-0.3-2.2,0.9-4,3-4.3c2.1-0.3,3.7,1,4.1,3.2c0.3,2.1-0.8,4-3,4.3
			C740.7,426.5,739.1,425.1,738.7,423z"/>
		<path class="st3" d="M751,421c-0.3-2.2,0.9-4,3-4.3c2.1-0.3,3.7,1,4.1,3.2c0.3,2.1-0.8,4-3,4.3C753,424.6,751.4,423.2,751,421z"/>
		<path class="st3" d="M763.3,419.1c-0.3-2.2,0.9-4,3-4.3s3.7,1,4.1,3.2c0.3,2.1-0.8,4-3,4.3C765.3,422.6,763.6,421.2,763.3,419.1z"
			/>
		<path class="st3" d="M775.6,417.1c-0.3-2.2,0.9-4,3-4.3c2.1-0.3,3.7,1,4.1,3.2c0.3,2.1-0.8,4-3,4.3
			C777.6,420.7,775.9,419.3,775.6,417.1z"/>
		<path class="st3" d="M787.9,415.2c-0.3-2.2,0.9-4,3-4.3c2.1-0.3,3.7,1,4.1,3.2c0.3,2.1-0.8,4-3,4.3
			C789.9,418.7,788.2,417.3,787.9,415.2z"/>
		<path class="st3" d="M800.2,413.3c-0.3-2.2,0.9-4,3-4.3c2.1-0.3,3.7,1,4.1,3.2c0.3,2.1-0.8,4-3,4.3
			C802.2,416.8,800.5,415.4,800.2,413.3z"/>
		<path class="st3" d="M812.4,411.3c-0.3-2.2,0.9-4,3-4.3c2.1-0.3,3.7,1,4.1,3.2c0.3,2.1-0.8,4-3,4.3
			C814.5,414.8,812.8,413.4,812.4,411.3z"/>
		<path class="st3" d="M824.7,409.4c-0.3-2.2,0.9-4,3-4.3s3.7,1,4.1,3.2c0.3,2.1-0.8,4-3,4.3C826.8,412.9,825.1,411.5,824.7,409.4z"
			/>
		<path class="st3" d="M837,407.4c-0.3-2.2,0.9-4,3-4.3c2.1-0.3,3.7,1,4.1,3.2c0.3,2.1-0.8,4-3,4.3C839,410.9,837.4,409.6,837,407.4
			z"/>
		<path class="st3" d="M849.3,405.5c-0.3-2.2,0.9-4,3-4.3c2.1-0.3,3.7,1,4.1,3.2c0.3,2.1-0.8,4-3,4.3
			C851.3,409,849.6,407.6,849.3,405.5z"/>
	</g>
	<g class="st2">
		<path class="st3" d="M166.1,624.9c-0.3-2.2,0.9-4,3-4.3c2.1-0.3,3.7,1,4.1,3.2c0.3,2.1-0.8,4-3,4.3
			C168.2,628.4,166.5,627,166.1,624.9z"/>
		<path class="st3" d="M178.4,623c-0.3-2.2,0.9-4,3-4.3c2.1-0.3,3.7,1,4.1,3.2c0.3,2.1-0.8,4-3,4.3
			C180.4,626.5,178.8,625.1,178.4,623z"/>
		<path class="st3" d="M190.7,621c-0.3-2.2,0.9-4,3-4.3c2.1-0.3,3.7,1,4.1,3.2c0.3,2.1-0.8,4-3,4.3C192.7,624.5,191,623.1,190.7,621
			z"/>
		<path class="st3" d="M203,619.1c-0.3-2.2,0.9-4,3-4.3c2.1-0.3,3.7,1,4.1,3.2c0.3,2.1-0.8,4-3,4.3C205,622.6,203.3,621.2,203,619.1
			z"/>
		<path class="st3" d="M215.3,617.1c-0.3-2.2,0.9-4,3-4.3c2.1-0.3,3.7,1,4.1,3.2c0.3,2.1-0.8,4-3,4.3
			C217.3,620.6,215.6,619.3,215.3,617.1z"/>
		<path class="st3" d="M227.6,615.2c-0.3-2.2,0.9-4,3-4.3c2.1-0.3,3.7,1,4.1,3.2c0.3,2.1-0.8,4-3,4.3
			C229.6,618.7,227.9,617.3,227.6,615.2z"/>
		<path class="st3" d="M239.9,613.2c-0.3-2.2,0.9-4,3-4.3c2.1-0.3,3.7,1,4.1,3.2c0.3,2.1-0.8,4-3,4.3
			C241.9,616.7,240.2,615.4,239.9,613.2z"/>
		<path class="st3" d="M252.1,611.3c-0.3-2.2,0.9-4,3-4.3c2.1-0.3,3.7,1,4.1,3.2c0.3,2.1-0.8,4-3,4.3
			C254.2,614.8,252.5,613.4,252.1,611.3z"/>
		<path class="st3" d="M264.4,609.3c-0.3-2.2,0.9-4,3-4.3c2.1-0.3,3.7,1,4.1,3.2c0.3,2.1-0.8,4-3,4.3
			C266.4,612.8,264.8,611.5,264.4,609.3z"/>
		<path class="st3" d="M276.7,607.4c-0.3-2.2,0.9-4,3-4.3c2.1-0.3,3.7,1,4.1,3.2c0.3,2.1-0.8,4-3,4.3
			C278.7,610.9,277.1,609.5,276.7,607.4z"/>
		<path class="st3" d="M289,605.4c-0.3-2.2,0.9-4,3-4.3c2.1-0.3,3.7,1,4.1,3.2c0.3,2.1-0.8,4-3,4.3C291,609,289.3,607.6,289,605.4z"
			/>
		<path class="st3" d="M301.3,603.5c-0.3-2.2,0.9-4,3-4.3c2.1-0.3,3.7,1,4.1,3.2c0.3,2.1-0.8,4-3,4.3
			C303.3,607,301.6,605.6,301.3,603.5z"/>
		<path class="st3" d="M313.6,601.5c-0.3-2.2,0.9-4,3-4.3c2.1-0.3,3.7,1,4.1,3.2c0.3,2.1-0.8,4-3,4.3
			C315.6,605.1,313.9,603.7,313.6,601.5z"/>
		<path class="st3" d="M325.9,599.6c-0.3-2.2,0.9-4,3-4.3c2.1-0.3,3.7,1,4.1,3.2c0.3,2.1-0.8,4-3,4.3
			C327.9,603.1,326.2,601.7,325.9,599.6z"/>
		<path class="st3" d="M338.2,597.7c-0.3-2.2,0.9-4,3-4.3c2.1-0.3,3.7,1,4.1,3.2c0.3,2.1-0.8,4-3,4.3
			C340.2,601.2,338.5,599.8,338.2,597.7z"/>
		<path class="st3" d="M350.4,595.7c-0.3-2.2,0.9-4,3-4.3c2.1-0.3,3.7,1,4.1,3.2c0.3,2.1-0.8,4-3,4.3
			C352.5,599.2,350.8,597.8,350.4,595.7z"/>
		<path class="st3" d="M362.7,593.8c-0.3-2.2,0.9-4,3-4.3c2.1-0.3,3.7,1,4.1,3.2c0.3,2.1-0.8,4-3,4.3
			C364.7,597.3,363.1,595.9,362.7,593.8z"/>
		<path class="st3" d="M375,591.8c-0.3-2.2,0.9-4,3-4.3c2.1-0.3,3.7,1,4.1,3.2c0.3,2.1-0.8,4-3,4.3C377,595.3,375.4,594,375,591.8z"
			/>
		<path class="st3" d="M387.3,589.9c-0.3-2.2,0.9-4,3-4.3c2.1-0.3,3.7,1,4.1,3.2c0.3,2.1-0.8,4-3,4.3
			C389.3,593.4,387.6,592,387.3,589.9z"/>
		<path class="st3" d="M399.6,587.9c-0.3-2.2,0.9-4,3-4.3c2.1-0.3,3.7,1,4.1,3.2c0.3,2.1-0.8,4-3,4.3
			C401.6,591.4,399.9,590.1,399.6,587.9z"/>
		<path class="st3" d="M411.9,586c-0.3-2.2,0.9-4,3-4.3c2.1-0.3,3.7,1,4.1,3.2c0.3,2.1-0.8,4-3,4.3
			C413.9,589.5,412.2,588.1,411.9,586z"/>
		<path class="st3" d="M424.2,584c-0.3-2.2,0.9-4,3-4.3c2.1-0.3,3.7,1,4.1,3.2c0.3,2.1-0.8,4-3,4.3
			C426.2,587.5,424.5,586.2,424.2,584z"/>
		<path class="st3" d="M436.4,582.1c-0.3-2.2,0.9-4,3-4.3c2.1-0.3,3.7,1,4.1,3.2c0.3,2.1-0.8,4-3,4.3
			C438.5,585.6,436.8,584.2,436.4,582.1z"/>
		<path class="st3" d="M448.7,580.1c-0.3-2.2,0.9-4,3-4.3c2.1-0.3,3.7,1,4.1,3.2c0.3,2.1-0.8,4-3,4.3
			C450.8,583.7,449.1,582.3,448.7,580.1z"/>
		<path class="st3" d="M461,578.2c-0.3-2.2,0.9-4,3-4.3c2.1-0.3,3.7,1,4.1,3.2c0.3,2.1-0.8,4-3,4.3C463,581.7,461.4,580.3,461,578.2
			z"/>
		<path class="st3" d="M473.3,576.2c-0.3-2.2,0.9-4,3-4.3c2.1-0.3,3.7,1,4.1,3.2c0.3,2.1-0.8,4-3,4.3
			C475.3,579.8,473.6,578.4,473.3,576.2z"/>
		<path class="st3" d="M485.6,574.3c-0.3-2.2,0.9-4,3-4.3c2.1-0.3,3.7,1,4.1,3.2c0.3,2.1-0.8,4-3,4.3
			C487.6,577.8,485.9,576.4,485.6,574.3z"/>
		<path class="st3" d="M497.9,572.4c-0.3-2.2,0.9-4,3-4.3c2.1-0.3,3.7,1,4.1,3.2c0.3,2.1-0.8,4-3,4.3
			C499.9,575.9,498.2,574.5,497.9,572.4z"/>
		<path class="st3" d="M510.2,570.4c-0.3-2.2,0.9-4,3-4.3c2.1-0.3,3.7,1,4.1,3.2c0.3,2.1-0.8,4-3,4.3
			C512.2,573.9,510.5,572.5,510.2,570.4z"/>
		<path class="st3" d="M522.5,568.5c-0.3-2.2,0.9-4,3-4.3c2.1-0.3,3.7,1,4.1,3.2c0.3,2.1-0.8,4-3,4.3
			C524.5,572,522.8,570.6,522.5,568.5z"/>
		<path class="st3" d="M534.7,566.5c-0.3-2.2,0.9-4,3-4.3c2.1-0.3,3.7,1,4.1,3.2c0.3,2.1-0.8,4-3,4.3
			C536.8,570,535.1,568.7,534.7,566.5z"/>
		<path class="st3" d="M547,564.6c-0.3-2.2,0.9-4,3-4.3c2.1-0.3,3.7,1,4.1,3.2c0.3,2.1-0.8,4-3,4.3C549,568.1,547.4,566.7,547,564.6
			z"/>
		<path class="st3" d="M559.3,562.6c-0.3-2.2,0.9-4,3-4.3c2.1-0.3,3.7,1,4.1,3.2c0.3,2.1-0.8,4-3,4.3
			C561.3,566.1,559.7,564.8,559.3,562.6z"/>
		<path class="st3" d="M571.6,560.7c-0.3-2.2,0.9-4,3-4.3c2.1-0.3,3.7,1,4.1,3.2c0.3,2.1-0.8,4-3,4.3
			C573.6,564.2,571.9,562.8,571.6,560.7z"/>
		<path class="st3" d="M583.9,558.7c-0.3-2.2,0.9-4,3-4.3c2.1-0.3,3.7,1,4.1,3.2c0.3,2.1-0.8,4-3,4.3
			C585.9,562.2,584.2,560.9,583.9,558.7z"/>
		<path class="st3" d="M596.2,556.8c-0.3-2.2,0.9-4,3-4.3c2.1-0.3,3.7,1,4.1,3.2c0.3,2.1-0.8,4-3,4.3
			C598.2,560.3,596.5,558.9,596.2,556.8z"/>
		<path class="st3" d="M608.5,554.8c-0.3-2.2,0.9-4,3-4.3c2.1-0.3,3.7,1,4.1,3.2c0.3,2.1-0.8,4-3,4.3
			C610.5,558.4,608.8,557,608.5,554.8z"/>
		<path class="st3" d="M620.8,552.9c-0.3-2.2,0.9-4,3-4.3c2.1-0.3,3.7,1,4.1,3.2c0.3,2.1-0.8,4-3,4.3
			C622.8,556.4,621.1,555,620.8,552.9z"/>
		<path class="st3" d="M633,550.9c-0.3-2.2,0.9-4,3-4.3s3.7,1,4.1,3.2c0.3,2.1-0.8,4-3,4.3C635.1,554.5,633.4,553.1,633,550.9z"/>
		<path class="st3" d="M645.3,549c-0.3-2.2,0.9-4,3-4.3c2.1-0.3,3.7,1,4.1,3.2c0.3,2.1-0.8,4-3,4.3
			C647.3,552.5,645.7,551.1,645.3,549z"/>
		<path class="st3" d="M657.6,547.1c-0.3-2.2,0.9-4,3-4.3c2.1-0.3,3.7,1,4.1,3.2c0.3,2.1-0.8,4-3,4.3
			C659.6,550.6,658,549.2,657.6,547.1z"/>
		<path class="st3" d="M669.9,545.1c-0.3-2.2,0.9-4,3-4.3c2.1-0.3,3.7,1,4.1,3.2c0.3,2.1-0.8,4-3,4.3
			C671.9,548.6,670.2,547.2,669.9,545.1z"/>
		<path class="st3" d="M682.2,543.2c-0.3-2.2,0.9-4,3-4.3c2.1-0.3,3.7,1,4.1,3.2c0.3,2.1-0.8,4-3,4.3
			C684.2,546.7,682.5,545.3,682.2,543.2z"/>
		<path class="st3" d="M694.5,541.2c-0.3-2.2,0.9-4,3-4.3c2.1-0.3,3.7,1,4.1,3.2c0.3,2.1-0.8,4-3,4.3
			C696.5,544.7,694.8,543.4,694.5,541.2z"/>
		<path class="st3" d="M706.8,539.3c-0.3-2.2,0.9-4,3-4.3c2.1-0.3,3.7,1,4.1,3.2c0.3,2.1-0.8,4-3,4.3
			C708.8,542.8,707.1,541.4,706.8,539.3z"/>
		<path class="st3" d="M719,537.3c-0.3-2.2,0.9-4,3-4.3c2.1-0.3,3.7,1,4.1,3.2c0.3,2.1-0.8,4-3,4.3
			C721.1,540.8,719.4,539.5,719,537.3z"/>
		<path class="st3" d="M731.3,535.4c-0.3-2.2,0.9-4,3-4.3c2.1-0.3,3.7,1,4.1,3.2c0.3,2.1-0.8,4-3,4.3
			C733.4,538.9,731.7,537.5,731.3,535.4z"/>
		<path class="st3" d="M743.6,533.4c-0.3-2.2,0.9-4,3-4.3c2.1-0.3,3.7,1,4.1,3.2c0.3,2.1-0.8,4-3,4.3
			C745.6,536.9,744,535.6,743.6,533.4z"/>
		<path class="st3" d="M755.9,531.5c-0.3-2.2,0.9-4,3-4.3c2.1-0.3,3.7,1,4.1,3.2c0.3,2.1-0.8,4-3,4.3
			C757.9,535,756.2,533.6,755.9,531.5z"/>
		<path class="st3" d="M768.2,529.5c-0.3-2.2,0.9-4,3-4.3c2.1-0.3,3.7,1,4.1,3.2c0.3,2.1-0.8,4-3,4.3
			C770.2,533.1,768.5,531.7,768.2,529.5z"/>
		<path class="st3" d="M780.5,527.6c-0.3-2.2,0.9-4,3-4.3c2.1-0.3,3.7,1,4.1,3.2c0.3,2.1-0.8,4-3,4.3
			C782.5,531.1,780.8,529.7,780.5,527.6z"/>
		<path class="st3" d="M792.8,525.6c-0.3-2.2,0.9-4,3-4.3c2.1-0.3,3.7,1,4.1,3.2c0.3,2.1-0.8,4-3,4.3
			C794.8,529.2,793.1,527.8,792.8,525.6z"/>
		<path class="st3" d="M805.1,523.7c-0.3-2.2,0.9-4,3-4.3c2.1-0.3,3.7,1,4.1,3.2c0.3,2.1-0.8,4-3,4.3
			C807.1,527.2,805.4,525.8,805.1,523.7z"/>
		<path class="st3" d="M817.3,521.8c-0.3-2.2,0.9-4,3-4.3s3.7,1,4.1,3.2c0.3,2.1-0.8,4-3,4.3C819.4,525.3,817.7,523.9,817.3,521.8z"
			/>
		<path class="st3" d="M829.6,519.8c-0.3-2.2,0.9-4,3-4.3c2.1-0.3,3.7,1,4.1,3.2c0.3,2.1-0.8,4-3,4.3
			C831.6,523.3,830,521.9,829.6,519.8z"/>
		<path class="st3" d="M841.9,517.9c-0.3-2.2,0.9-4,3-4.3c2.1-0.3,3.7,1,4.1,3.2c0.3,2.1-0.8,4-3,4.3
			C843.9,521.4,842.3,520,841.9,517.9z"/>
		<path class="st3" d="M854.2,515.9c-0.3-2.2,0.9-4,3-4.3c2.1-0.3,3.7,1,4.1,3.2c0.3,2.1-0.8,4-3,4.3
			C856.2,519.4,854.5,518.1,854.2,515.9z"/>
		<path class="st3" d="M866.5,514c-0.3-2.2,0.9-4,3-4.3c2.1-0.3,3.7,1,4.1,3.2c0.3,2.1-0.8,4-3,4.3
			C868.5,517.5,866.8,516.1,866.5,514z"/>
	</g>
	<g class="st2">
		<path class="st3" d="M183.3,733.4c-0.3-2.2,0.9-4,3-4.3c2.1-0.3,3.7,1,4.1,3.2c0.3,2.1-0.8,4-3,4.3
			C185.3,736.9,183.7,735.5,183.3,733.4z"/>
		<path class="st3" d="M195.6,731.5c-0.3-2.2,0.9-4,3-4.3c2.1-0.3,3.7,1,4.1,3.2c0.3,2.1-0.8,4-3,4.3
			C197.6,735,195.9,733.6,195.6,731.5z"/>
		<path class="st3" d="M207.9,729.5c-0.3-2.2,0.9-4,3-4.3c2.1-0.3,3.7,1,4.1,3.2c0.3,2.1-0.8,4-3,4.3
			C209.9,733,208.2,731.6,207.9,729.5z"/>
		<path class="st3" d="M220.2,727.6c-0.3-2.2,0.9-4,3-4.3c2.1-0.3,3.7,1,4.1,3.2c0.3,2.1-0.8,4-3,4.3
			C222.2,731.1,220.5,729.7,220.2,727.6z"/>
		<path class="st3" d="M232.5,725.6c-0.3-2.2,0.9-4,3-4.3c2.1-0.3,3.7,1,4.1,3.2c0.3,2.1-0.8,4-3,4.3
			C234.5,729.1,232.8,727.8,232.5,725.6z"/>
		<path class="st3" d="M244.8,723.7c-0.3-2.2,0.9-4,3-4.3c2.1-0.3,3.7,1,4.1,3.2c0.3,2.1-0.8,4-3,4.3
			C246.8,727.2,245.1,725.8,244.8,723.7z"/>
		<path class="st3" d="M257,721.7c-0.3-2.2,0.9-4,3-4.3c2.1-0.3,3.7,1,4.1,3.2c0.3,2.1-0.8,4-3,4.3
			C259.1,725.2,257.4,723.9,257,721.7z"/>
		<path class="st3" d="M269.3,719.8c-0.3-2.2,0.9-4,3-4.3c2.1-0.3,3.7,1,4.1,3.2c0.3,2.1-0.8,4-3,4.3
			C271.3,723.3,269.7,721.9,269.3,719.8z"/>
		<path class="st3" d="M281.6,717.8c-0.3-2.2,0.9-4,3-4.3c2.1-0.3,3.7,1,4.1,3.2c0.3,2.1-0.8,4-3,4.3
			C283.6,721.3,282,720,281.6,717.8z"/>
		<path class="st3" d="M293.9,715.9c-0.3-2.2,0.9-4,3-4.3c2.1-0.3,3.7,1,4.1,3.2c0.3,2.1-0.8,4-3,4.3
			C295.9,719.4,294.2,718,293.9,715.9z"/>
		<path class="st3" d="M306.2,713.9c-0.3-2.2,0.9-4,3-4.3c2.1-0.3,3.7,1,4.1,3.2c0.3,2.1-0.8,4-3,4.3
			C308.2,717.5,306.5,716.1,306.2,713.9z"/>
		<path class="st3" d="M318.5,712c-0.3-2.2,0.9-4,3-4.3c2.1-0.3,3.7,1,4.1,3.2c0.3,2.1-0.8,4-3,4.3
			C320.5,715.5,318.8,714.1,318.5,712z"/>
		<path class="st3" d="M330.8,710c-0.3-2.2,0.9-4,3-4.3c2.1-0.3,3.7,1,4.1,3.2c0.3,2.1-0.8,4-3,4.3
			C332.8,713.6,331.1,712.2,330.8,710z"/>
		<path class="st3" d="M343.1,708.1c-0.3-2.2,0.9-4,3-4.3c2.1-0.3,3.7,1,4.1,3.2c0.3,2.1-0.8,4-3,4.3
			C345.1,711.6,343.4,710.2,343.1,708.1z"/>
		<path class="st3" d="M355.3,706.2c-0.3-2.2,0.9-4,3-4.3c2.1-0.3,3.7,1,4.1,3.2c0.3,2.1-0.8,4-3,4.3
			C357.4,709.7,355.7,708.3,355.3,706.2z"/>
		<path class="st3" d="M367.6,704.2c-0.3-2.2,0.9-4,3-4.3c2.1-0.3,3.7,1,4.1,3.2c0.3,2.1-0.8,4-3,4.3
			C369.6,707.7,368,706.3,367.6,704.2z"/>
		<path class="st3" d="M379.9,702.3c-0.3-2.2,0.9-4,3-4.3c2.1-0.3,3.7,1,4.1,3.2c0.3,2.1-0.8,4-3,4.3
			C381.9,705.8,380.3,704.4,379.9,702.3z"/>
		<path class="st3" d="M392.2,700.3c-0.3-2.2,0.9-4,3-4.3c2.1-0.3,3.7,1,4.1,3.2c0.3,2.1-0.8,4-3,4.3
			C394.2,703.8,392.5,702.5,392.2,700.3z"/>
		<path class="st3" d="M404.5,698.4c-0.3-2.2,0.9-4,3-4.3c2.1-0.3,3.7,1,4.1,3.2c0.3,2.1-0.8,4-3,4.3
			C406.5,701.9,404.8,700.5,404.5,698.4z"/>
		<path class="st3" d="M416.8,696.4c-0.3-2.2,0.9-4,3-4.3c2.1-0.3,3.7,1,4.1,3.2c0.3,2.1-0.8,4-3,4.3
			C418.8,699.9,417.1,698.6,416.8,696.4z"/>
		<path class="st3" d="M429.1,694.5c-0.3-2.2,0.9-4,3-4.3c2.1-0.3,3.7,1,4.1,3.2c0.3,2.1-0.8,4-3,4.3
			C431.1,698,429.4,696.6,429.1,694.5z"/>
		<path class="st3" d="M441.3,692.5c-0.3-2.2,0.9-4,3-4.3c2.1-0.3,3.7,1,4.1,3.2c0.3,2.1-0.8,4-3,4.3
			C443.4,696,441.7,694.7,441.3,692.5z"/>
		<path class="st3" d="M453.6,690.6c-0.3-2.2,0.9-4,3-4.3c2.1-0.3,3.7,1,4.1,3.2c0.3,2.1-0.8,4-3,4.3
			C455.7,694.1,454,692.7,453.6,690.6z"/>
		<path class="st3" d="M465.9,688.6c-0.3-2.2,0.9-4,3-4.3c2.1-0.3,3.7,1,4.1,3.2c0.3,2.1-0.8,4-3,4.3
			C467.9,692.2,466.3,690.8,465.9,688.6z"/>
		<path class="st3" d="M478.2,686.7c-0.3-2.2,0.9-4,3-4.3c2.1-0.3,3.7,1,4.1,3.2c0.3,2.1-0.8,4-3,4.3
			C480.2,690.2,478.5,688.8,478.2,686.7z"/>
		<path class="st3" d="M490.5,684.7c-0.3-2.2,0.9-4,3-4.3c2.1-0.3,3.7,1,4.1,3.2c0.3,2.1-0.8,4-3,4.3
			C492.5,688.3,490.8,686.9,490.5,684.7z"/>
		<path class="st3" d="M502.8,682.8c-0.3-2.2,0.9-4,3-4.3c2.1-0.3,3.7,1,4.1,3.2c0.3,2.1-0.8,4-3,4.3
			C504.8,686.3,503.1,684.9,502.8,682.8z"/>
		<path class="st3" d="M515.1,680.9c-0.3-2.2,0.9-4,3-4.3c2.1-0.3,3.7,1,4.1,3.2c0.3,2.1-0.8,4-3,4.3
			C517.1,684.4,515.4,683,515.1,680.9z"/>
		<path class="st3" d="M527.4,678.9c-0.3-2.2,0.9-4,3-4.3c2.1-0.3,3.7,1,4.1,3.2c0.3,2.1-0.8,4-3,4.3
			C529.4,682.4,527.7,681,527.4,678.9z"/>
		<path class="st3" d="M539.6,677c-0.3-2.2,0.9-4,3-4.3c2.1-0.3,3.7,1,4.1,3.2c0.3,2.1-0.8,4-3,4.3C541.7,680.5,540,679.1,539.6,677
			z"/>
		<path class="st3" d="M551.9,675c-0.3-2.2,0.9-4,3-4.3s3.7,1,4.1,3.2c0.3,2.1-0.8,4-3,4.3C553.9,678.5,552.3,677.2,551.9,675z"/>
		<path class="st3" d="M564.2,673.1c-0.3-2.2,0.9-4,3-4.3c2.1-0.3,3.7,1,4.1,3.2c0.3,2.1-0.8,4-3,4.3
			C566.2,676.6,564.6,675.2,564.2,673.1z"/>
		<path class="st3" d="M576.5,671.1c-0.3-2.2,0.9-4,3-4.3c2.1-0.3,3.7,1,4.1,3.2c0.3,2.1-0.8,4-3,4.3
			C578.5,674.6,576.8,673.3,576.5,671.1z"/>
		<path class="st3" d="M588.8,669.2c-0.3-2.2,0.9-4,3-4.3c2.1-0.3,3.7,1,4.1,3.2c0.3,2.1-0.8,4-3,4.3
			C590.8,672.7,589.1,671.3,588.8,669.2z"/>
		<path class="st3" d="M601.1,667.2c-0.3-2.2,0.9-4,3-4.3c2.1-0.3,3.7,1,4.1,3.2c0.3,2.1-0.8,4-3,4.3
			C603.1,670.7,601.4,669.4,601.1,667.2z"/>
		<path class="st3" d="M613.4,665.3c-0.3-2.2,0.9-4,3-4.3c2.1-0.3,3.7,1,4.1,3.2c0.3,2.1-0.8,4-3,4.3
			C615.4,668.8,613.7,667.4,613.4,665.3z"/>
		<path class="st3" d="M625.7,663.3c-0.3-2.2,0.9-4,3-4.3c2.1-0.3,3.7,1,4.1,3.2c0.3,2.1-0.8,4-3,4.3
			C627.7,666.9,626,665.5,625.7,663.3z"/>
		<path class="st3" d="M637.9,661.4c-0.3-2.2,0.9-4,3-4.3c2.1-0.3,3.7,1,4.1,3.2c0.3,2.1-0.8,4-3,4.3
			C640,664.9,638.3,663.5,637.9,661.4z"/>
		<path class="st3" d="M650.2,659.4c-0.3-2.2,0.9-4,3-4.3c2.1-0.3,3.7,1,4.1,3.2c0.3,2.1-0.8,4-3,4.3
			C652.2,663,650.6,661.6,650.2,659.4z"/>
		<path class="st3" d="M662.5,657.5c-0.3-2.2,0.9-4,3-4.3c2.1-0.3,3.7,1,4.1,3.2c0.3,2.1-0.8,4-3,4.3
			C664.5,661,662.9,659.6,662.5,657.5z"/>
		<path class="st3" d="M674.8,655.6c-0.3-2.2,0.9-4,3-4.3c2.1-0.3,3.7,1,4.1,3.2c0.3,2.1-0.8,4-3,4.3
			C676.8,659.1,675.1,657.7,674.8,655.6z"/>
		<path class="st3" d="M687.1,653.6c-0.3-2.2,0.9-4,3-4.3s3.7,1,4.1,3.2c0.3,2.1-0.8,4-3,4.3C689.1,657.1,687.4,655.7,687.1,653.6z"
			/>
		<path class="st3" d="M699.4,651.7c-0.3-2.2,0.9-4,3-4.3c2.1-0.3,3.7,1,4.1,3.2c0.3,2.1-0.8,4-3,4.3
			C701.4,655.2,699.7,653.8,699.4,651.7z"/>
		<path class="st3" d="M711.7,649.7c-0.3-2.2,0.9-4,3-4.3c2.1-0.3,3.7,1,4.1,3.2c0.3,2.1-0.8,4-3,4.3
			C713.7,653.2,712,651.9,711.7,649.7z"/>
		<path class="st3" d="M723.9,647.8c-0.3-2.2,0.9-4,3-4.3s3.7,1,4.1,3.2c0.3,2.1-0.8,4-3,4.3C726,651.3,724.3,649.9,723.9,647.8z"/>
		<path class="st3" d="M736.2,645.8c-0.3-2.2,0.9-4,3-4.3c2.1-0.3,3.7,1,4.1,3.2c0.3,2.1-0.8,4-3,4.3
			C738.3,649.3,736.6,648,736.2,645.8z"/>
		<path class="st3" d="M748.5,643.9c-0.3-2.2,0.9-4,3-4.3c2.1-0.3,3.7,1,4.1,3.2c0.3,2.1-0.8,4-3,4.3
			C750.5,647.4,748.9,646,748.5,643.9z"/>
		<path class="st3" d="M760.8,641.9c-0.3-2.2,0.9-4,3-4.3c2.1-0.3,3.7,1,4.1,3.2c0.3,2.1-0.8,4-3,4.3
			C762.8,645.4,761.1,644.1,760.8,641.9z"/>
		<path class="st3" d="M773.1,640c-0.3-2.2,0.9-4,3-4.3c2.1-0.3,3.7,1,4.1,3.2c0.3,2.1-0.8,4-3,4.3
			C775.1,643.5,773.4,642.1,773.1,640z"/>
		<path class="st3" d="M785.4,638c-0.3-2.2,0.9-4,3-4.3c2.1-0.3,3.7,1,4.1,3.2c0.3,2.1-0.8,4-3,4.3
			C787.4,641.6,785.7,640.2,785.4,638z"/>
		<path class="st3" d="M797.7,636.1c-0.3-2.2,0.9-4,3-4.3c2.1-0.3,3.7,1,4.1,3.2c0.3,2.1-0.8,4-3,4.3
			C799.7,639.6,798,638.2,797.7,636.1z"/>
		<path class="st3" d="M810,634.2c-0.3-2.2,0.9-4,3-4.3c2.1-0.3,3.7,1,4.1,3.2c0.3,2.1-0.8,4-3,4.3C812,637.7,810.3,636.3,810,634.2
			z"/>
		<path class="st3" d="M822.2,632.2c-0.3-2.2,0.9-4,3-4.3c2.1-0.3,3.7,1,4.1,3.2c0.3,2.1-0.8,4-3,4.3
			C824.3,635.7,822.6,634.3,822.2,632.2z"/>
		<path class="st3" d="M834.5,630.3c-0.3-2.2,0.9-4,3-4.3c2.1-0.3,3.7,1,4.1,3.2c0.3,2.1-0.8,4-3,4.3
			C836.5,633.8,834.9,632.4,834.5,630.3z"/>
		<path class="st3" d="M846.8,628.3c-0.3-2.2,0.9-4,3-4.3c2.1-0.3,3.7,1,4.1,3.2c0.3,2.1-0.8,4-3,4.3
			C848.8,631.8,847.2,630.4,846.8,628.3z"/>
		<path class="st3" d="M859.1,626.4c-0.3-2.2,0.9-4,3-4.3c2.1-0.3,3.7,1,4.1,3.2c0.3,2.1-0.8,4-3,4.3
			C861.1,629.9,859.4,628.5,859.1,626.4z"/>
		<path class="st3" d="M871.4,624.4c-0.3-2.2,0.9-4,3-4.3c2.1-0.3,3.7,1,4.1,3.2c0.3,2.1-0.8,4-3,4.3
			C873.4,627.9,871.7,626.6,871.4,624.4z"/>
		<path class="st3" d="M883.7,622.5c-0.3-2.2,0.9-4,3-4.3c2.1-0.3,3.7,1,4.1,3.2c0.3,2.1-0.8,4-3,4.3
			C885.7,626,884,624.6,883.7,622.5z"/>
	</g>
	<g class="st2">
		<path class="st3" d="M200.5,841.9c-0.3-2.2,0.9-4,3-4.3c2.1-0.3,3.7,1,4.1,3.2c0.3,2.1-0.8,4-3,4.3
			C202.5,845.4,200.8,844,200.5,841.9z"/>
		<path class="st3" d="M212.8,840c-0.3-2.2,0.9-4,3-4.3c2.1-0.3,3.7,1,4.1,3.2c0.3,2.1-0.8,4-3,4.3
			C214.8,843.5,213.1,842.1,212.8,840z"/>
		<path class="st3" d="M225.1,838c-0.3-2.2,0.9-4,3-4.3c2.1-0.3,3.7,1,4.1,3.2c0.3,2.1-0.8,4-3,4.3
			C227.1,841.5,225.4,840.1,225.1,838z"/>
		<path class="st3" d="M237.4,836.1c-0.3-2.2,0.9-4,3-4.3c2.1-0.3,3.7,1,4.1,3.2c0.3,2.1-0.8,4-3,4.3
			C239.4,839.6,237.7,838.2,237.4,836.1z"/>
		<path class="st3" d="M249.7,834.1c-0.3-2.2,0.9-4,3-4.3c2.1-0.3,3.7,1,4.1,3.2c0.3,2.1-0.8,4-3,4.3
			C251.7,837.6,250,836.3,249.7,834.1z"/>
		<path class="st3" d="M261.9,832.2c-0.3-2.2,0.9-4,3-4.3c2.1-0.3,3.7,1,4.1,3.2c0.3,2.1-0.8,4-3,4.3
			C264,835.7,262.3,834.3,261.9,832.2z"/>
		<path class="st3" d="M274.2,830.2c-0.3-2.2,0.9-4,3-4.3c2.1-0.3,3.7,1,4.1,3.2c0.3,2.1-0.8,4-3,4.3
			C276.2,833.7,274.6,832.4,274.2,830.2z"/>
		<path class="st3" d="M286.5,828.3c-0.3-2.2,0.9-4,3-4.3c2.1-0.3,3.7,1,4.1,3.2c0.3,2.1-0.8,4-3,4.3
			C288.5,831.8,286.9,830.4,286.5,828.3z"/>
		<path class="st3" d="M298.8,826.3c-0.3-2.2,0.9-4,3-4.3c2.1-0.3,3.7,1,4.1,3.2c0.3,2.1-0.8,4-3,4.3
			C300.8,829.8,299.1,828.5,298.8,826.3z"/>
		<path class="st3" d="M311.1,824.4c-0.3-2.2,0.9-4,3-4.3c2.1-0.3,3.7,1,4.1,3.2c0.3,2.1-0.8,4-3,4.3
			C313.1,827.9,311.4,826.5,311.1,824.4z"/>
		<path class="st3" d="M323.4,822.4c-0.3-2.2,0.9-4,3-4.3c2.1-0.3,3.7,1,4.1,3.2c0.3,2.1-0.8,4-3,4.3
			C325.4,826,323.7,824.6,323.4,822.4z"/>
		<path class="st3" d="M335.7,820.5c-0.3-2.2,0.9-4,3-4.3c2.1-0.3,3.7,1,4.1,3.2c0.3,2.1-0.8,4-3,4.3
			C337.7,824,336,822.6,335.7,820.5z"/>
		<path class="st3" d="M347.9,818.5c-0.3-2.2,0.9-4,3-4.3c2.1-0.3,3.7,1,4.1,3.2c0.3,2.1-0.8,4-3,4.3
			C350,822.1,348.3,820.7,347.9,818.5z"/>
		<path class="st3" d="M360.2,816.6c-0.3-2.2,0.9-4,3-4.3c2.1-0.3,3.7,1,4.1,3.2c0.3,2.1-0.8,4-3,4.3
			C362.3,820.1,360.6,818.7,360.2,816.6z"/>
		<path class="st3" d="M372.5,814.7c-0.3-2.2,0.9-4,3-4.3c2.1-0.3,3.7,1,4.1,3.2c0.3,2.1-0.8,4-3,4.3
			C374.5,818.2,372.9,816.8,372.5,814.7z"/>
		<path class="st3" d="M384.8,812.7c-0.3-2.2,0.9-4,3-4.3c2.1-0.3,3.7,1,4.1,3.2c0.3,2.1-0.8,4-3,4.3
			C386.8,816.2,385.1,814.8,384.8,812.7z"/>
		<path class="st3" d="M397.1,810.8c-0.3-2.2,0.9-4,3-4.3c2.1-0.3,3.7,1,4.1,3.2c0.3,2.1-0.8,4-3,4.3
			C399.1,814.3,397.4,812.9,397.1,810.8z"/>
		<path class="st3" d="M409.4,808.8c-0.3-2.2,0.9-4,3-4.3c2.1-0.3,3.7,1,4.1,3.2c0.3,2.1-0.8,4-3,4.3
			C411.4,812.3,409.7,811,409.4,808.8z"/>
		<path class="st3" d="M421.7,806.9c-0.3-2.2,0.9-4,3-4.3c2.1-0.3,3.7,1,4.1,3.2c0.3,2.1-0.8,4-3,4.3
			C423.7,810.4,422,809,421.7,806.9z"/>
		<path class="st3" d="M434,804.9c-0.3-2.2,0.9-4,3-4.3c2.1-0.3,3.7,1,4.1,3.2c0.3,2.1-0.8,4-3,4.3C436,808.4,434.3,807.1,434,804.9
			z"/>
		<path class="st3" d="M446.2,803c-0.3-2.2,0.9-4,3-4.3c2.1-0.3,3.7,1,4.1,3.2c0.3,2.1-0.8,4-3,4.3
			C448.3,806.5,446.6,805.1,446.2,803z"/>
		<path class="st3" d="M458.5,801c-0.3-2.2,0.9-4,3-4.3c2.1-0.3,3.7,1,4.1,3.2c0.3,2.1-0.8,4-3,4.3
			C460.5,804.5,458.9,803.2,458.5,801z"/>
		<path class="st3" d="M470.8,799.1c-0.3-2.2,0.9-4,3-4.3c2.1-0.3,3.7,1,4.1,3.2c0.3,2.1-0.8,4-3,4.3
			C472.8,802.6,471.2,801.2,470.8,799.1z"/>
		<path class="st3" d="M483.1,797.1c-0.3-2.2,0.9-4,3-4.3c2.1-0.3,3.7,1,4.1,3.2c0.3,2.1-0.8,4-3,4.3
			C485.1,800.7,483.4,799.3,483.1,797.1z"/>
		<path class="st3" d="M495.4,795.2c-0.3-2.2,0.9-4,3-4.3c2.1-0.3,3.7,1,4.1,3.2c0.3,2.1-0.8,4-3,4.3
			C497.4,798.7,495.7,797.3,495.4,795.2z"/>
		<path class="st3" d="M507.7,793.2c-0.3-2.2,0.9-4,3-4.3c2.1-0.3,3.7,1,4.1,3.2c0.3,2.1-0.8,4-3,4.3
			C509.7,796.8,508,795.4,507.7,793.2z"/>
		<path class="st3" d="M520,791.3c-0.3-2.2,0.9-4,3-4.3c2.1-0.3,3.7,1,4.1,3.2c0.3,2.1-0.8,4-3,4.3C522,794.8,520.3,793.4,520,791.3
			z"/>
		<path class="st3" d="M532.3,789.4c-0.3-2.2,0.9-4,3-4.3c2.1-0.3,3.7,1,4.1,3.2c0.3,2.1-0.8,4-3,4.3
			C534.3,792.9,532.6,791.5,532.3,789.4z"/>
		<path class="st3" d="M544.5,787.4c-0.3-2.2,0.9-4,3-4.3c2.1-0.3,3.7,1,4.1,3.2c0.3,2.1-0.8,4-3,4.3
			C546.6,790.9,544.9,789.5,544.5,787.4z"/>
		<path class="st3" d="M556.8,785.5c-0.3-2.2,0.9-4,3-4.3c2.1-0.3,3.7,1,4.1,3.2c0.3,2.1-0.8,4-3,4.3
			C558.8,789,557.2,787.6,556.8,785.5z"/>
		<path class="st3" d="M569.1,783.5c-0.3-2.2,0.9-4,3-4.3c2.1-0.3,3.7,1,4.1,3.2c0.3,2.1-0.8,4-3,4.3
			C571.1,787,569.5,785.7,569.1,783.5z"/>
		<path class="st3" d="M581.4,781.6c-0.3-2.2,0.9-4,3-4.3c2.1-0.3,3.7,1,4.1,3.2c0.3,2.1-0.8,4-3,4.3
			C583.4,785.1,581.7,783.7,581.4,781.6z"/>
		<path class="st3" d="M593.7,779.6c-0.3-2.2,0.9-4,3-4.3c2.1-0.3,3.7,1,4.1,3.2c0.3,2.1-0.8,4-3,4.3
			C595.7,783.1,594,781.8,593.7,779.6z"/>
		<path class="st3" d="M606,777.7c-0.3-2.2,0.9-4,3-4.3s3.7,1,4.1,3.2c0.3,2.1-0.8,4-3,4.3C608,781.2,606.3,779.8,606,777.7z"/>
		<path class="st3" d="M618.3,775.7c-0.3-2.2,0.9-4,3-4.3c2.1-0.3,3.7,1,4.1,3.2c0.3,2.1-0.8,4-3,4.3
			C620.3,779.2,618.6,777.9,618.3,775.7z"/>
		<path class="st3" d="M630.5,773.8c-0.3-2.2,0.9-4,3-4.3c2.1-0.3,3.7,1,4.1,3.2c0.3,2.1-0.8,4-3,4.3
			C632.6,777.3,630.9,775.9,630.5,773.8z"/>
		<path class="st3" d="M642.8,771.8c-0.3-2.2,0.9-4,3-4.3s3.7,1,4.1,3.2c0.3,2.1-0.8,4-3,4.3C644.9,775.4,643.2,774,642.8,771.8z"/>
		<path class="st3" d="M655.1,769.9c-0.3-2.2,0.9-4,3-4.3c2.1-0.3,3.7,1,4.1,3.2c0.3,2.1-0.8,4-3,4.3
			C657.1,773.4,655.5,772,655.1,769.9z"/>
		<path class="st3" d="M667.4,768c-0.3-2.2,0.9-4,3-4.3c2.1-0.3,3.7,1,4.1,3.2c0.3,2.1-0.8,4-3,4.3
			C669.4,771.5,667.7,770.1,667.4,768z"/>
		<path class="st3" d="M679.7,766c-0.3-2.2,0.9-4,3-4.3c2.1-0.3,3.7,1,4.1,3.2c0.3,2.1-0.8,4-3,4.3C681.7,769.5,680,768.1,679.7,766
			z"/>
		<path class="st3" d="M692,764.1c-0.3-2.2,0.9-4,3-4.3c2.1-0.3,3.7,1,4.1,3.2c0.3,2.1-0.8,4-3,4.3C694,767.6,692.3,766.2,692,764.1
			z"/>
		<path class="st3" d="M704.3,762.1c-0.3-2.2,0.9-4,3-4.3c2.1-0.3,3.7,1,4.1,3.2c0.3,2.1-0.8,4-3,4.3
			C706.3,765.6,704.6,764.2,704.3,762.1z"/>
		<path class="st3" d="M716.6,760.2c-0.3-2.2,0.9-4,3-4.3c2.1-0.3,3.7,1,4.1,3.2c0.3,2.1-0.8,4-3,4.3
			C718.6,763.7,716.9,762.3,716.6,760.2z"/>
		<path class="st3" d="M728.8,758.2c-0.3-2.2,0.9-4,3-4.3c2.1-0.3,3.7,1,4.1,3.2c0.3,2.1-0.8,4-3,4.3
			C730.9,761.7,729.2,760.4,728.8,758.2z"/>
		<path class="st3" d="M741.1,756.3c-0.3-2.2,0.9-4,3-4.3c2.1-0.3,3.7,1,4.1,3.2c0.3,2.1-0.8,4-3,4.3
			C743.1,759.8,741.5,758.4,741.1,756.3z"/>
		<path class="st3" d="M753.4,754.3c-0.3-2.2,0.9-4,3-4.3c2.1-0.3,3.7,1,4.1,3.2c0.3,2.1-0.8,4-3,4.3
			C755.4,757.8,753.8,756.5,753.4,754.3z"/>
		<path class="st3" d="M765.7,752.4c-0.3-2.2,0.9-4,3-4.3c2.1-0.3,3.7,1,4.1,3.2c0.3,2.1-0.8,4-3,4.3
			C767.7,755.9,766,754.5,765.7,752.4z"/>
		<path class="st3" d="M778,750.4c-0.3-2.2,0.9-4,3-4.3c2.1-0.3,3.7,1,4.1,3.2c0.3,2.1-0.8,4-3,4.3C780,754,778.3,752.6,778,750.4z"
			/>
		<path class="st3" d="M790.3,748.5c-0.3-2.2,0.9-4,3-4.3c2.1-0.3,3.7,1,4.1,3.2c0.3,2.1-0.8,4-3,4.3
			C792.3,752,790.6,750.6,790.3,748.5z"/>
		<path class="st3" d="M802.6,746.5c-0.3-2.2,0.9-4,3-4.3c2.1-0.3,3.7,1,4.1,3.2c0.3,2.1-0.8,4-3,4.3
			C804.6,750.1,802.9,748.7,802.6,746.5z"/>
		<path class="st3" d="M814.9,744.6c-0.3-2.2,0.9-4,3-4.3c2.1-0.3,3.7,1,4.1,3.2c0.3,2.1-0.8,4-3,4.3
			C816.9,748.1,815.2,746.7,814.9,744.6z"/>
		<path class="st3" d="M827.1,742.7c-0.3-2.2,0.9-4,3-4.3c2.1-0.3,3.7,1,4.1,3.2c0.3,2.1-0.8,4-3,4.3
			C829.2,746.2,827.5,744.8,827.1,742.7z"/>
		<path class="st3" d="M839.4,740.7c-0.3-2.2,0.9-4,3-4.3c2.1-0.3,3.7,1,4.1,3.2c0.3,2.1-0.8,4-3,4.3
			C841.4,744.2,839.8,742.8,839.4,740.7z"/>
		<path class="st3" d="M851.7,738.8c-0.3-2.2,0.9-4,3-4.3c2.1-0.3,3.7,1,4.1,3.2c0.3,2.1-0.8,4-3,4.3
			C853.7,742.3,852.1,740.9,851.7,738.8z"/>
		<path class="st3" d="M864,736.8c-0.3-2.2,0.9-4,3-4.3c2.1-0.3,3.7,1,4.1,3.2c0.3,2.1-0.8,4-3,4.3C866,740.3,864.3,739,864,736.8z"
			/>
		<path class="st3" d="M876.3,734.9c-0.3-2.2,0.9-4,3-4.3c2.1-0.3,3.7,1,4.1,3.2c0.3,2.1-0.8,4-3,4.3
			C878.3,738.4,876.6,737,876.3,734.9z"/>
		<path class="st3" d="M888.6,732.9c-0.3-2.2,0.9-4,3-4.3c2.1-0.3,3.7,1,4.1,3.2c0.3,2.1-0.8,4-3,4.3
			C890.6,736.4,888.9,735.1,888.6,732.9z"/>
		<path class="st3" d="M900.9,731c-0.3-2.2,0.9-4,3-4.3c2.1-0.3,3.7,1,4.1,3.2c0.3,2.1-0.8,4-3,4.3
			C902.9,734.5,901.2,733.1,900.9,731z"/>
	</g>
	<g>
		<path class="st4" d="M344.5,822.9l-94.1,14.9c-4.5,0.7-8.8-2.4-9.5-6.9l-39.4-248.5c-0.7-4.5,2.4-8.8,6.9-9.5l94.1-14.9
			c4.5-0.7,8.8,2.4,9.5,6.9l39.4,248.5C352.1,818,349,822.2,344.5,822.9z"/>
		<path class="st5" d="M303.9,558c4,0,7.5,2.9,8.2,7l39.4,248.5c0.7,4.5-2.4,8.8-6.9,9.5l-94.1,14.9c-0.4,0.1-0.9,0.1-1.3,0.1
			c-4,0-7.5-2.9-8.2-7l-39.4-248.5c-0.7-4.5,2.4-8.8,6.9-9.5l94.1-14.9C303,558,303.4,558,303.9,558 M303.9,553
			c-0.7,0-1.4,0.1-2.1,0.2L207.6,568c-3.5,0.6-6.6,2.4-8.7,5.3c-2.1,2.9-2.9,6.4-2.4,9.9l39.4,248.5c1,6.5,6.6,11.2,13.1,11.2
			c0.7,0,1.4-0.1,2.1-0.2l94.1-14.9c3.5-0.6,6.6-2.4,8.7-5.3c2.1-2.9,2.9-6.4,2.4-9.9L317,564.2C316,557.7,310.4,553,303.9,553
			L303.9,553z"/>
	</g>
	<g>
		<path class="st6" d="M516.1,795.7L422,810.7c-4.5,0.7-8.8-2.4-9.5-6.9l-47.4-299.3c-0.7-4.5,2.4-8.8,6.9-9.5l94.1-14.9
			c4.5-0.7,8.8,2.4,9.5,6.9L523,786.2C523.8,790.8,520.7,795,516.1,795.7z"/>
		<path class="st5" d="M467.5,480c4,0,7.5,2.9,8.2,7L523,786.2c0.7,4.5-2.4,8.8-6.9,9.5L422,810.7c-0.4,0.1-0.9,0.1-1.3,0.1
			c-4,0-7.5-2.9-8.2-7l-47.4-299.3c-0.7-4.5,2.4-8.8,6.9-9.5l94.1-14.9C466.6,480,467,480,467.5,480 M467.5,475
			C467.5,475,467.5,475,467.5,475c-0.7,0-1.4,0.1-2.1,0.2L371.2,490c-3.5,0.6-6.6,2.4-8.7,5.3s-2.9,6.4-2.4,9.9l47.4,299.3
			c1,6.5,6.6,11.2,13.1,11.2c0.7,0,1.4-0.1,2.1-0.2l94.1-14.9c7.2-1.1,12.2-8,11.1-15.2l-47.4-299.3C479.6,479.7,474,475,467.5,475
			L467.5,475z"/>
	</g>
	<g>
		<path class="st7" d="M687.8,768.6l-94.1,14.9c-4.5,0.7-8.8-2.4-9.5-6.9L505,276.6c-0.7-4.5,2.4-8.8,6.9-9.5l94.1-14.9
			c4.5-0.7,8.8,2.4,9.5,6.9l79.2,499.9C695.4,763.6,692.3,767.8,687.8,768.6z"/>
		<path class="st5" d="M607.3,252.1c4,0,7.5,2.9,8.2,7l79.2,499.9c0.7,4.5-2.4,8.8-6.9,9.5l-94.1,14.9c-0.4,0.1-0.9,0.1-1.3,0.1
			c-4,0-7.5-2.9-8.2-7L505,276.6c-0.7-4.5,2.4-8.8,6.9-9.5l94.1-14.9C606.4,252.2,606.9,252.1,607.3,252.1 M607.3,247.1
			c-0.7,0-1.4,0.1-2.1,0.2l-94.1,14.9c-7.2,1.1-12.2,8-11.1,15.2l79.2,499.9c1,6.5,6.6,11.2,13.1,11.2c0.7,0,1.4-0.1,2.1-0.2
			l94.1-14.9c7.2-1.1,12.2-8,11.1-15.2l-79.2-499.9C619.4,251.8,613.9,247.1,607.3,247.1L607.3,247.1z"/>
	</g>
	<g>
		<path class="st8" d="M859.4,741.4l-94.1,14.9c-4.5,0.7-8.8-2.4-9.5-6.9l-73.7-465.1c-0.7-4.5,2.4-8.8,6.9-9.5l94.1-14.9
			c4.5-0.7,8.8,2.4,9.5,6.9l73.7,465.1C867.1,736.4,864,740.7,859.4,741.4z"/>
		<path class="st5" d="M784.5,259.7c4,0,7.5,2.9,8.2,7l73.7,465.1c0.7,4.5-2.4,8.8-6.9,9.5l-94.1,14.9c-0.4,0.1-0.9,0.1-1.3,0.1
			c-4,0-7.5-2.9-8.2-7l-73.7-465.1c-0.7-4.5,2.4-8.8,6.9-9.5l94.1-14.9C783.6,259.8,784,259.7,784.5,259.7 M784.5,254.7
			c-0.7,0-1.4,0.1-2.1,0.2l-94.1,14.9c-3.5,0.6-6.6,2.4-8.7,5.3c-2.1,2.9-2.9,6.4-2.4,9.9l73.7,465.1c1,6.5,6.6,11.2,13.1,11.2
			c0.7,0,1.4-0.1,2.1-0.2l94.1-14.9c7.2-1.1,12.2-8,11.1-15.2L797.6,266C796.6,259.5,791.1,254.7,784.5,254.7L784.5,254.7z"/>
	</g>
</g>
</svg>
