<?xml version="1.0" encoding="utf-8"?>
<!-- Generator: Adobe Illustrator 27.0.0, SVG Export Plug-In . SVG Version: 6.00 Build 0)  -->
<svg version="1.1" id="libre-writer" xmlns="http://www.w3.org/2000/svg" xmlns:xlink="http://www.w3.org/1999/xlink" x="0px"
	 y="0px" viewBox="0 0 1024 1024" style="enable-background:new 0 0 1024 1024;" xml:space="preserve">
<style type="text/css">
	.st0{fill:url(#SVGID_1_);}
	.st1{fill:#FFFFFF;}
	.st2{opacity:0.53;fill:#1287C9;}
	.st3{fill:#1287C9;}
</style>
<linearGradient id="SVGID_1_" gradientUnits="userSpaceOnUse" x1="496.9557" y1="176.8569" x2="496.9557" y2="160.5129" gradientTransform="matrix(0.9877 -0.1564 -0.1564 -0.9877 101.34 1105.519)">
	<stop  offset="0" style="stop-color:#A9ADAB"/>
	<stop  offset="0.3581" style="stop-color:#A6AAA8"/>
	<stop  offset="0.6161" style="stop-color:#9DA19F"/>
	<stop  offset="0.8419" style="stop-color:#8E918F"/>
</linearGradient>
<path class="st0" d="M918.7,811L214.6,922.5c-19.5,3.1-37.8-10.2-40.9-29.7L77.9,287.9c-3.1-19.5,10.2-37.8,29.7-40.9l704.2-111.5
	c19.5-3.1,37.8,10.2,40.9,29.7l95.8,604.9C951.5,789.6,938.2,807.9,918.7,811z"/>
<path class="st1" d="M916.1,794.3L211.9,905.8c-19.5,3.1-37.8-10.2-40.9-29.7L75.2,271.2c-3.1-19.5,10.2-37.8,29.7-40.9l704.2-111.5
	c19.5-3.1,37.8,10.2,40.9,29.7l95.8,604.9C948.8,772.9,935.5,791.2,916.1,794.3z"/>
<g>
	
		<rect x="350.5" y="239.8" transform="matrix(0.9877 -0.1564 0.1564 0.9877 -31.0211 93.4581)" class="st2" width="455.4" height="8"/>
	
		<rect x="358.8" y="291.9" transform="matrix(0.9877 -0.1564 0.1564 0.9877 -39.073 95.3912)" class="st2" width="455.4" height="8"/>
	<rect x="367" y="344" transform="matrix(0.9877 -0.1564 0.1564 0.9877 -47.1249 97.3244)" class="st2" width="455.4" height="8"/>
	<rect x="161.5" y="413" transform="matrix(0.9877 -0.1564 0.1564 0.9877 -59.117 82.8451)" class="st2" width="670.6" height="8"/>
	
		<rect x="169.7" y="465.1" transform="matrix(0.9877 -0.1564 0.1564 0.9877 -67.1616 84.7672)" class="st2" width="670.6" height="8"/>
	<rect x="178" y="517.2" transform="matrix(0.9877 -0.1564 0.1564 0.9877 -75.2125 86.7)" class="st2" width="670.6" height="8"/>
	
		<rect x="186.2" y="569.4" transform="matrix(0.9877 -0.1564 0.1564 0.9877 -83.2634 88.6328)" class="st2" width="670.6" height="8"/>
	
		<rect x="202.8" y="673.6" transform="matrix(0.9877 -0.1564 0.1564 0.9877 -99.3653 92.4984)" class="st2" width="670.6" height="8"/>
	
		<rect x="194.5" y="621.5" transform="matrix(0.9877 -0.1564 0.1564 0.9877 -91.282 90.5282)" class="st2" width="670.6" height="8"/>
	
		<rect x="211" y="725.7" transform="matrix(0.9877 -0.1564 0.1564 0.9877 -107.3779 94.3917)" class="st2" width="670.6" height="8"/>
	
		<rect x="219.3" y="777.8" transform="matrix(0.9877 -0.1564 0.1564 0.9877 -115.467 96.3639)" class="st2" width="670.6" height="8"/>
</g>
<g>
	<path class="st3" d="M175.2,366.4c-3.1-19.4-0.6-35.6,7.5-48.6c7-11.2,18.2-18.7,33.5-22.5c3.9-1,7.8,1.6,8.4,5.5l2.2,14
		c0.5,3.2-1.3,6.3-4.3,7.4c-10.5,3.8-14.5,13.7-12,29.6v0c0.6,3.7,4.1,6.2,7.8,5.6l12.8-2.1c3.7-0.6,7.2,1.9,7.8,5.7l6,37.8
		c0.6,3.7-2,7.2-5.7,7.8l-42.9,6.8c-3,0.5-5.9-1.1-7.2-3.7C182.1,395.4,177.5,381,175.2,366.4z M254.4,353.9
		c-3.1-19.4-0.6-35.6,7.5-48.6c7-11.2,18.2-18.7,33.5-22.5c3.9-1,7.8,1.6,8.4,5.5l2.2,14c0.5,3.2-1.3,6.3-4.3,7.4
		c-10.5,3.8-14.5,13.7-12,29.6l0,0c0.6,3.7,4.1,6.2,7.8,5.6l12.8-2.1c3.7-0.6,7.2,1.9,7.8,5.7l6,37.8c0.6,3.7-2,7.2-5.7,7.8l-43,6.8
		c-3,0.5-5.9-1-7.2-3.7C261.3,382.9,256.7,368.5,254.4,353.9z"/>
</g>
</svg>
