<?xml version="1.0" encoding="utf-8"?>
<!-- Generator: Adobe Illustrator 27.0.0, SVG Export Plug-In . SVG Version: 6.00 Build 0)  -->
<svg version="1.1" id="libre-writer" xmlns="http://www.w3.org/2000/svg" xmlns:xlink="http://www.w3.org/1999/xlink" x="0px"
	 y="0px" viewBox="0 0 1024 1024" style="enable-background:new 0 0 1024 1024;" xml:space="preserve">
<style type="text/css">
	.st0{fill:url(#SVGID_1_);}
	.st1{fill:#FFFFFF;}
	.st2{opacity:0.53;fill:none;stroke:#1287C9;stroke-width:8;stroke-miterlimit:10;}
	.st3{fill:#1287C9;}
</style>
<linearGradient id="SVGID_1_" gradientUnits="userSpaceOnUse" x1="496.9557" y1="176.8569" x2="496.9557" y2="160.5129" gradientTransform="matrix(0.9877 -0.1564 -0.1564 -0.9877 101.34 1105.519)">
	<stop  offset="0" style="stop-color:#A9ADAB"/>
	<stop  offset="0.3581" style="stop-color:#A6AAA8"/>
	<stop  offset="0.6161" style="stop-color:#9DA19F"/>
	<stop  offset="0.8419" style="stop-color:#8E918F"/>
</linearGradient>
<path class="st0" d="M918.7,811L214.6,922.5c-19.5,3.1-37.8-10.2-40.9-29.7L77.9,287.9c-3.1-19.5,10.2-37.8,29.7-40.9l704.2-111.5
	c19.5-3.1,37.8,10.2,40.9,29.7l95.8,604.9C951.5,789.6,938.2,807.9,918.7,811z"/>
<path class="st1" d="M916.1,794.3L211.9,905.8c-19.5,3.1-37.8-10.2-40.9-29.7L75.2,271.2c-3.1-19.5,10.2-37.8,29.7-40.9l704.2-111.5
	c19.5-3.1,37.8,10.2,40.9,29.7l95.8,604.9C948.8,772.9,935.5,791.2,916.1,794.3z"/>
<g>
	<line class="st2" x1="803.1" y1="208.2" x2="353.3" y2="279.4"/>
	<line class="st2" x1="811.4" y1="260.3" x2="361.6" y2="331.6"/>
	<line class="st2" x1="819.7" y1="312.4" x2="369.8" y2="383.7"/>
	<line class="st2" x1="827.9" y1="364.5" x2="165.6" y2="469.4"/>
	<line class="st2" x1="836.2" y1="416.7" x2="173.9" y2="521.6"/>
	<line class="st2" x1="844.4" y1="468.8" x2="182.1" y2="573.7"/>
	<line class="st2" x1="852.7" y1="520.9" x2="190.4" y2="625.8"/>
	<line class="st2" x1="869.2" y1="625.1" x2="206.9" y2="730"/>
	<line class="st2" x1="860.9" y1="573" x2="198.6" y2="677.9"/>
	<line class="st2" x1="877.4" y1="677.3" x2="215.1" y2="782.2"/>
	<line class="st2" x1="885.7" y1="729.4" x2="223.4" y2="834.3"/>
</g>
<g>
	<path class="st3" d="M175.2,366.4c-3.1-19.4-0.6-35.6,7.5-48.6c7-11.2,18.2-18.7,33.5-22.5c3.9-1,7.8,1.6,8.4,5.5l2.2,14
		c0.5,3.2-1.3,6.3-4.3,7.4c-10.5,3.8-14.5,13.7-12,29.6v0c0.6,3.7,4.1,6.2,7.8,5.6l12.8-2.1c3.7-0.6,7.2,1.9,7.8,5.7l6,37.8
		c0.6,3.7-2,7.2-5.7,7.8l-42.9,6.8c-3,0.5-5.9-1.1-7.2-3.7C182.1,395.4,177.5,381,175.2,366.4z M254.4,353.9
		c-3.1-19.4-0.6-35.6,7.5-48.6c7-11.2,18.2-18.7,33.5-22.5c3.9-1,7.8,1.6,8.4,5.5l2.2,14c0.5,3.2-1.3,6.3-4.3,7.4
		c-10.5,3.8-14.5,13.7-12,29.6l0,0c0.6,3.7,4.1,6.2,7.8,5.6l12.8-2.1c3.7-0.6,7.2,1.9,7.8,5.7l6,37.8c0.6,3.7-2,7.2-5.7,7.8l-43,6.8
		c-3,0.5-5.9-1-7.2-3.7C261.3,382.9,256.7,368.5,254.4,353.9z"/>
</g>
</svg>
