<?xml version="1.0" encoding="utf-8"?>
<!-- Generator: Adobe Illustrator 21.1.0, SVG Export Plug-In . SVG Version: 6.00 Build 0)  -->
<!-- Artist: @KevDoy for Trenta.io -->
<svg version="1.1" xmlns="http://www.w3.org/2000/svg" xmlns:xlink="http://www.w3.org/1999/xlink" x="0px" y="0px"
	 viewBox="0 0 1024 1024" style="enable-background:new 0 0 1024 1024;" xml:space="preserve">
<style type="text/css">
	.st0{fill:url(#SVGID_1_);}
	.st1{fill:url(#SVGID_2_);}
	.st2{fill:#32337C;}
	.st3{fill:#076CAB;}
	.st4{fill:#444544;}
	.st5{fill:#FEE9AA;}
	.st6{fill:#C7774B;}
	.st7{fill:#066DAE;}
	.st8{fill:#0DBEBB;}
	.st9{fill:#FEEAAB;}
	.st10{fill:#492207;}
	.st11{fill:#764C22;}
	.st12{fill:#744C21;}
	.st13{fill:#ADEEEE;}
	.st14{fill:#323232;}
</style>
<g id="Circle">
	<radialGradient id="SVGID_1_" cx="531.7676" cy="-103.3945" r="954.2032" gradientUnits="userSpaceOnUse">
		<stop  offset="0" style="stop-color:#FBFAFA"/>
		<stop  offset="1" style="stop-color:#D5D5D5"/>
	</radialGradient>
	<circle class="st0" cx="508.8" cy="511.7" r="447"/>
	<radialGradient id="SVGID_2_" cx="517.3676" cy="23.8697" r="671.3343" gradientUnits="userSpaceOnUse">
		<stop  offset="0" style="stop-color:#B0CC97"/>
		<stop  offset="0.1402" style="stop-color:#A8C88C"/>
		<stop  offset="0.3885" style="stop-color:#92BC6E"/>
		<stop  offset="0.5597" style="stop-color:#80B355"/>
		<stop  offset="0.7267" style="stop-color:#77894B"/>
		<stop  offset="0.9064" style="stop-color:#6E6142"/>
		<stop  offset="1" style="stop-color:#6B523E"/>
	</radialGradient>
	<circle class="st1" cx="509.1" cy="514.7" r="409"/>
</g>
<g id="Leg_-_Left">
	<polyline class="st2" points="454.3,646.5 441.5,669.2 458.9,671.8 582.9,773.3 592.6,789.3 621,722.3 491.9,649.9 454.3,646.5 	
		"/>
	<polygon class="st3" points="441.5,669.2 456.8,688.9 577.5,785.1 592.6,789.3 582.9,773.3 458.9,671.8 	"/>
	<polygon class="st4" points="592.6,789.3 577.5,785.1 573.1,794 601,803.4 631.1,732.4 623.7,722.6 616.6,732.7 	"/>
</g>
<g id="Arm_-_Left">
	<polygon class="st5" points="406.1,352.3 207.6,315 204.2,429.5 402.4,449.5 	"/>
	<polygon class="st6" points="207.6,315 169.4,333 166,437.9 357.2,454.4 402.4,449.5 204.2,429.5 	"/>
	<polygon class="st7" points="402.4,449.5 357.2,454.4 432,460.4 432,452 	"/>
	<polygon class="st8" points="406.1,352.3 433.3,357.8 432,452 402.4,449.5 	"/>
</g>
<g id="Torso">
	<polyline class="st8" points="431,355 433.8,644.5 615.1,661.5 615.1,336.7 611.7,335.5 431,355 	"/>
	<polyline class="st3" points="615.1,607.4 433.3,598.3 433.8,644.5 615.1,661.4 615.1,607.4 	"/>
	<polyline class="st3" points="615.1,336.7 652.3,347 652.7,594.2 615.1,607.4 615.1,336.7 	"/>
	<polyline class="st6" points="472.3,350.5 472.3,375.3 495,373.7 495,398 539,396 539,369.7 563,368 563,340.7 472.3,350.5 	"/>
	<polygon class="st2" points="615.1,607.4 615.1,661.4 652.7,643.9 652.7,594.2 	"/>
</g>
<g id="Head">
	<polyline class="st6" points="401,140 401,348 589,327.2 589,91 401,140 	"/>
	<polyline class="st9" points="589,91 589,327.3 666,355 666,169 	"/>
	<g id="Hair">
		<path class="st10" d="M589,91l-188.3,49v78l23.4-3v-28l137.4-30v31l28.3-6C589.8,152.3,589,91,589,91z"/>
		<polygon class="st11" points="589,91 589,242.1 601,245 601,220.9 621,230 621,286.7 641,296 641,323 666,333 666,168.9 		"/>
	</g>
	<polygon class="st12" points="401,348 431,355 611.7,335.5 589,327.3 	"/>
</g>
<g id="Leg_-_Right">
	<polygon class="st3" points="612.5,627.8 483,779 376,750.5 516.5,617.5 	"/>
	<polyline class="st2" points="483,779 507.5,886.3 641,698.3 623,615.3 612.5,627.8 483,779 	"/>
	<g id="Foot">
		<polygon class="st13" points="376,750.5 483,779 440.9,828.1 331.7,792.9 		"/>
		<polygon class="st4" points="440.9,828.1 470,937.3 507.5,886.3 483,779 		"/>
		<polygon class="st14" points="331.7,792.9 440.9,828.1 470,937.3 364.8,895.4 		"/>
	</g>
</g>
<g id="Arm_-_Right">
	<polygon class="st13" points="636.3,330.7 603.8,382.2 711.8,360.9 730.8,308.7 	"/>
	<polygon class="st8" points="711.8,360.9 742.3,458 758.4,400.9 730.8,308.7 	"/>
	<polyline class="st3" points="603.8,382.2 711.8,360.9 742.3,458 638.3,472.5 603.8,382.2 	"/>
	<polyline class="st6" points="638.3,472.5 696,621.5 792.7,617.5 742.3,458 638.3,472.5 	"/>
	<polyline class="st5" points="742.3,458 758.4,400.9 803,554.3 792.7,617.5 742.3,458 	"/>
</g>
</svg>
