<?xml version="1.0" encoding="UTF-8" standalone="no"?>
<!-- Generator: Adobe Illustrator 22.1.0, SVG Export Plug-In . SVG Version: 6.00 Build 0)  -->

<!-- Artist: @KevDoy for Trenta.io -->

<!-- Vector Conversion by @Genghis-Khanr -->

<svg
   xmlns:dc="http://purl.org/dc/elements/1.1/"
   xmlns:cc="http://creativecommons.org/ns#"
   xmlns:rdf="http://www.w3.org/1999/02/22-rdf-syntax-ns#"
   xmlns:svg="http://www.w3.org/2000/svg"
   xmlns="http://www.w3.org/2000/svg"
   xmlns:sodipodi="http://sodipodi.sourceforge.net/DTD/sodipodi-0.dtd"
   xmlns:inkscape="http://www.inkscape.org/namespaces/inkscape"
   version="1.1"
   id="orca"
   x="0px"
   y="0px"
   viewBox="0 0 1024 1024"
   style="enable-background:new 0 0 1024 1024;"
   xml:space="preserve"
   sodipodi:docname="orca.svg"
   inkscape:version="0.92.3 (2405546, 2018-03-11)"><metadata
   id="metadata51"><rdf:RDF><cc:Work
       rdf:about=""><dc:format>image/svg+xml</dc:format><dc:type
         rdf:resource="http://purl.org/dc/dcmitype/StillImage" /><dc:title></dc:title></cc:Work></rdf:RDF></metadata><defs
   id="defs49"><linearGradient
     gradientTransform="translate(-63.199656,-92.099656)"
     id="SVGID_3_-3"
     gradientUnits="userSpaceOnUse"
     x1="512"
     y1="100.1613"
     x2="512"
     y2="922.77271"><stop
       offset="0.3175"
       style="stop-color:#C8D8DC"
       id="stop27-6" /><stop
       offset="1"
       style="stop-color:#ACB6BA"
       id="stop29-7" /></linearGradient><filter
     inkscape:collect="always"
     style="color-interpolation-filters:sRGB"
     id="filter4835"
     x="-0.019755678"
     width="1.0395114"
     y="-0.021087767"
     height="1.0421755"><feGaussianBlur
       inkscape:collect="always"
       stdDeviation="7.3886294"
       id="feGaussianBlur4837" /></filter><clipPath
     clipPathUnits="userSpaceOnUse"
     id="clipPath4863"><rect
       style="opacity:0.225;vector-effect:none;fill:#00001f;fill-opacity:1;stroke:none;stroke-width:1;stroke-linecap:butt;stroke-linejoin:miter;stroke-miterlimit:4;stroke-dasharray:none;stroke-dashoffset:0;stroke-opacity:1"
       id="rect4865"
       width="832"
       height="756.06781"
       x="101.9661"
       y="-894.91528"
       transform="scale(1,-1)" /></clipPath><filter
     inkscape:collect="always"
     style="color-interpolation-filters:sRGB"
     id="filter4915"
     x="-0.067112548"
     width="1.1342251"
     y="-0.050449304"
     height="1.1008986"><feGaussianBlur
       inkscape:collect="always"
       stdDeviation="7.1385765"
       id="feGaussianBlur4917" /></filter></defs><sodipodi:namedview
   pagecolor="#ffffff"
   bordercolor="#666666"
   borderopacity="1"
   objecttolerance="10"
   gridtolerance="10"
   guidetolerance="10"
   inkscape:pageopacity="0"
   inkscape:pageshadow="2"
   inkscape:window-width="1920"
   inkscape:window-height="958"
   id="namedview47"
   showgrid="false"
   inkscape:zoom="0.921875"
   inkscape:cx="475.97734"
   inkscape:cy="512.9801"
   inkscape:window-x="0"
   inkscape:window-y="28"
   inkscape:window-maximized="1"
   inkscape:current-layer="g44" />
<style
   type="text/css"
   id="style2">
	.st0{fill:url(#SVGID_1_);}
	.st1{fill:#C8D8DC;}
	.st2{fill:url(#SVGID_2_);}
	.st3{fill:url(#SVGID_3_);}
	.st4{fill:url(#Blue_2_);}
</style>
<g
   id="g44">
	<g
   id="Blue_1_"
   style="display:inline">
		<linearGradient
   id="SVGID_1_"
   gradientUnits="userSpaceOnUse"
   x1="512"
   y1="92.049797"
   x2="512"
   y2="932.9502">
			<stop
   offset="0"
   style="stop-color:#99B1B6"
   id="stop4" />
			<stop
   offset="0.5"
   style="stop-color:#8B9EA2"
   id="stop6" />
			<stop
   offset="1"
   style="stop-color:#78888C"
   id="stop8" />
		</linearGradient>
		<path
   class="st0"
   d="M 909.3,933 111.7,930.1 C 84.8,930 63.1,908.1 63.2,881.2 L 65.8,140.6 C 65.9,113.7 87.8,92 114.7,92.1 L 912.3,95 c 26.9,0.1 48.6,22 48.5,48.9 l -2.7,740.6 c 0,26.8 -21.9,48.5 -48.8,48.5 z"
   id="path11"
   inkscape:connector-curvature="0"
   style="fill:url(#SVGID_1_)" />
	</g>
	
	<g
   id="g4897"
   style="fill:#00001f;fill-opacity:1;filter:url(#filter4915);opacity:0.297"><g
     style="display:inline;fill:#00001f;fill-opacity:1"
     id="g16">
		<circle
   style="fill:#00001f;fill-opacity:1"
   id="circle14"
   r="28.299999"
   cy="503.5"
   cx="512"
   class="st1" />
	</g><g
     style="display:inline;fill:#00001f;fill-opacity:1"
     id="g25">
		<linearGradient
   y2="814.77539"
   x2="512"
   y1="536.7229"
   x1="512"
   gradientUnits="userSpaceOnUse"
   id="SVGID_2_">
			<stop
   id="stop18"
   style="stop-color:#C8D8DC"
   offset="0" />
			<stop
   id="stop20"
   style="stop-color:#ACB6BA"
   offset="1" />
		</linearGradient>
		<path
   style="fill:#00001f;fill-opacity:1"
   inkscape:connector-curvature="0"
   id="path23"
   d="m 639.5,550 c -0.9,-8.2 -8.4,-14.2 -16.6,-13.2 l -82.2,9.3 H 483.2 L 401,536.8 c -8.2,-0.9 -15.7,5 -16.6,13.2 -0.9,8.2 5,15.7 13.2,16.6 l 75.8,8.6 v 87.4 l -35.3,131.1 c -2.5,8.8 2.6,17.9 11.4,20.4 1.5,0.4 3,0.6 4.5,0.6 7.2,0 13.8,-4.8 15.9,-12 l 36.8,-123.1 h 10.4 L 554,802.8 c 2.1,7.3 8.7,12 15.9,12 1.5,0 3,-0.2 4.5,-0.6 8.8,-2.5 13.9,-11.6 11.4,-20.4 L 550.5,662.7 v -87.4 l 75.8,-8.6 c 8.2,-1 14.1,-8.4 13.2,-16.7 z"
   class="st2" />
	</g></g><path
   class="st3"
   d="M 912.3,95 114.7,92.1 C 87.8,92 65.9,113.7 65.8,140.6 l -2.6,740.6 c -0.1,26.9 21.6,48.8 48.5,48.9 l 797.6,2.9 c 26.9,0 48.8,-21.7 48.8,-48.5 l 2.7,-740.6 C 960.9,117 939.2,95.1 912.3,95 Z M 661.4,254.3 c 0,-6.9 5.6,-12.5 12.5,-12.5 6.9,0 12.5,5.6 12.5,12.5 v 53.5 c 0,6.9 -5.6,12.5 -12.5,12.5 -6.9,0 -12.5,-5.6 -12.5,-12.5 z m -36,-11 c 0,-6.9 5.6,-12.5 12.5,-12.5 6.9,0 12.5,5.6 12.5,12.5 v 79.5 c 0,6.9 -5.6,12.5 -12.5,12.5 -6.9,0 -12.5,-5.6 -12.5,-12.5 z m -36,-28.5 c 0,-6.9 5.6,-12.5 12.5,-12.5 6.9,0 12.5,5.6 12.5,12.5 V 347 c 0,6.9 -5.6,12.5 -12.5,12.5 -6.9,0 -12.5,-5.6 -12.5,-12.5 z m -35.9,33 c 0,-6.9 5.6,-12.5 12.5,-12.5 6.9,0 12.5,5.6 12.5,12.5 V 317 c 0,6.9 -5.6,12.5 -12.5,12.5 -6.9,0 -12.5,-5.6 -12.5,-12.5 z m -36,18.3 c 0,-6.9 5.6,-12.5 12.5,-12.5 6.9,0 12.5,5.6 12.5,12.5 v 32.8 c 0,6.9 -5.6,12.5 -12.5,12.5 -6.9,0 -12.5,-5.6 -12.5,-12.5 z m -36,-11.3 c 0,-6.9 5.6,-12.5 12.5,-12.5 6.9,0 12.5,5.6 12.5,12.5 v 53.1 c 0,6.9 -5.6,12.5 -12.5,12.5 -6.9,0 -12.5,-5.6 -12.5,-12.5 z m -36,-36.3 c 0,-6.9 5.6,-12.5 12.5,-12.5 6.9,0 12.5,5.6 12.5,12.5 V 344 c 0,6.9 -5.6,12.5 -12.5,12.5 -6.9,0 -12.5,-5.6 -12.5,-12.5 z m -35.9,-45 c 0,-6.9 5.6,-12.5 12.5,-12.5 6.9,0 12.5,5.6 12.5,12.5 v 215.3 c 0,6.9 -5.6,12.5 -12.5,12.5 -6.9,0 -12.5,-5.6 -12.5,-12.5 z m -36,53.4 c 0,-6.9 5.6,-12.5 12.5,-12.5 6.9,0 12.5,5.6 12.5,12.5 v 110.4 c 0,6.9 -5.6,12.5 -12.5,12.5 -6.9,0 -12.5,-5.6 -12.5,-12.5 z m -36,18.8 c 0,-6.9 5.6,-12.5 12.5,-12.5 6.9,0 12.5,5.6 12.5,12.5 v 73.7 c 0,6.9 -5.6,12.5 -12.5,12.5 -6.9,0 -12.5,-5.6 -12.5,-12.5 z M 512,864.3 c -119,0 -215.4,-96.4 -215.4,-215.4 0,-119 96.4,-215.4 215.4,-215.4 119,0 215.4,96.4 215.4,215.4 0,119 -96.4,215.4 -215.4,215.4 z"
   id="path4839"
   inkscape:connector-curvature="0"
   style="opacity:1;vector-effect:none;fill:url(#SVGID_3_);fill-opacity:1;stroke-width:1;stroke-linecap:butt;stroke-linejoin:miter;stroke-miterlimit:4;stroke-dasharray:none;stroke-dashoffset:0;stroke-opacity:1" />
	<g
   id="g34"
   style="display:inline">
		<linearGradient
   id="SVGID_3_"
   gradientUnits="userSpaceOnUse"
   x1="512"
   y1="100.1613"
   x2="512"
   y2="922.77271">
			<stop
   offset="0.3175"
   style="stop-color:#C8D8DC"
   id="stop27" />
			<stop
   offset="1"
   style="stop-color:#ACB6BA"
   id="stop29" />
		</linearGradient>
		<path
   class="st3"
   d="M 912.3,95 114.7,92.1 C 87.8,92 65.9,113.7 65.8,140.6 l -2.6,740.6 c -0.1,26.9 21.6,48.8 48.5,48.9 l 797.6,2.9 c 26.9,0 48.8,-21.7 48.8,-48.5 l 2.7,-740.6 C 960.9,117 939.2,95.1 912.3,95 Z M 661.4,254.3 c 0,-6.9 5.6,-12.5 12.5,-12.5 6.9,0 12.5,5.6 12.5,12.5 v 53.5 c 0,6.9 -5.6,12.5 -12.5,12.5 -6.9,0 -12.5,-5.6 -12.5,-12.5 z m -36,-11 c 0,-6.9 5.6,-12.5 12.5,-12.5 6.9,0 12.5,5.6 12.5,12.5 v 79.5 c 0,6.9 -5.6,12.5 -12.5,12.5 -6.9,0 -12.5,-5.6 -12.5,-12.5 z m -36,-28.5 c 0,-6.9 5.6,-12.5 12.5,-12.5 6.9,0 12.5,5.6 12.5,12.5 V 347 c 0,6.9 -5.6,12.5 -12.5,12.5 -6.9,0 -12.5,-5.6 -12.5,-12.5 z m -35.9,33 c 0,-6.9 5.6,-12.5 12.5,-12.5 6.9,0 12.5,5.6 12.5,12.5 V 317 c 0,6.9 -5.6,12.5 -12.5,12.5 -6.9,0 -12.5,-5.6 -12.5,-12.5 z m -36,18.3 c 0,-6.9 5.6,-12.5 12.5,-12.5 6.9,0 12.5,5.6 12.5,12.5 v 32.8 c 0,6.9 -5.6,12.5 -12.5,12.5 -6.9,0 -12.5,-5.6 -12.5,-12.5 z m -36,-11.3 c 0,-6.9 5.6,-12.5 12.5,-12.5 6.9,0 12.5,5.6 12.5,12.5 v 53.1 c 0,6.9 -5.6,12.5 -12.5,12.5 -6.9,0 -12.5,-5.6 -12.5,-12.5 z m -36,-36.3 c 0,-6.9 5.6,-12.5 12.5,-12.5 6.9,0 12.5,5.6 12.5,12.5 V 344 c 0,6.9 -5.6,12.5 -12.5,12.5 -6.9,0 -12.5,-5.6 -12.5,-12.5 z m -35.9,-45 c 0,-6.9 5.6,-12.5 12.5,-12.5 6.9,0 12.5,5.6 12.5,12.5 v 215.3 c 0,6.9 -5.6,12.5 -12.5,12.5 -6.9,0 -12.5,-5.6 -12.5,-12.5 z m -36,53.4 c 0,-6.9 5.6,-12.5 12.5,-12.5 6.9,0 12.5,5.6 12.5,12.5 v 110.4 c 0,6.9 -5.6,12.5 -12.5,12.5 -6.9,0 -12.5,-5.6 -12.5,-12.5 z m -36,18.8 c 0,-6.9 5.6,-12.5 12.5,-12.5 6.9,0 12.5,5.6 12.5,12.5 v 73.7 c 0,6.9 -5.6,12.5 -12.5,12.5 -6.9,0 -12.5,-5.6 -12.5,-12.5 z M 512,864.3 c -119,0 -215.4,-96.4 -215.4,-215.4 0,-119 96.4,-215.4 215.4,-215.4 119,0 215.4,96.4 215.4,215.4 0,119 -96.4,215.4 -215.4,215.4 z"
   id="path32"
   inkscape:connector-curvature="0"
   style="display:inline;opacity:0.225;vector-effect:none;fill:#00001f;fill-opacity:1;stroke-width:1;stroke-linecap:butt;stroke-linejoin:miter;stroke-miterlimit:4;stroke-dasharray:none;stroke-dashoffset:0;stroke-opacity:1;filter:url(#filter4835)"
   clip-path="url(#clipPath4863)" />
	<path
   style="display:inline;opacity:1;vector-effect:none;fill:url(#SVGID_3_);fill-opacity:1;stroke-width:1;stroke-linecap:butt;stroke-linejoin:miter;stroke-miterlimit:4;stroke-dasharray:none;stroke-dashoffset:0;stroke-opacity:1"
   inkscape:connector-curvature="0"
   id="path4593"
   d="M 912.3,95 114.7,92.1 C 87.8,92 65.9,113.7 65.8,140.6 l -2.6,740.6 c -0.1,26.9 21.6,48.8 48.5,48.9 l 797.6,2.9 c 26.9,0 48.8,-21.7 48.8,-48.5 l 2.7,-740.6 C 960.9,117 939.2,95.1 912.3,95 Z M 661.4,254.3 c 0,-6.9 5.6,-12.5 12.5,-12.5 6.9,0 12.5,5.6 12.5,12.5 v 53.5 c 0,6.9 -5.6,12.5 -12.5,12.5 -6.9,0 -12.5,-5.6 -12.5,-12.5 z m -36,-11 c 0,-6.9 5.6,-12.5 12.5,-12.5 6.9,0 12.5,5.6 12.5,12.5 v 79.5 c 0,6.9 -5.6,12.5 -12.5,12.5 -6.9,0 -12.5,-5.6 -12.5,-12.5 z m -36,-28.5 c 0,-6.9 5.6,-12.5 12.5,-12.5 6.9,0 12.5,5.6 12.5,12.5 V 347 c 0,6.9 -5.6,12.5 -12.5,12.5 -6.9,0 -12.5,-5.6 -12.5,-12.5 z m -35.9,33 c 0,-6.9 5.6,-12.5 12.5,-12.5 6.9,0 12.5,5.6 12.5,12.5 V 317 c 0,6.9 -5.6,12.5 -12.5,12.5 -6.9,0 -12.5,-5.6 -12.5,-12.5 z m -36,18.3 c 0,-6.9 5.6,-12.5 12.5,-12.5 6.9,0 12.5,5.6 12.5,12.5 v 32.8 c 0,6.9 -5.6,12.5 -12.5,12.5 -6.9,0 -12.5,-5.6 -12.5,-12.5 z m -36,-11.3 c 0,-6.9 5.6,-12.5 12.5,-12.5 6.9,0 12.5,5.6 12.5,12.5 v 53.1 c 0,6.9 -5.6,12.5 -12.5,12.5 -6.9,0 -12.5,-5.6 -12.5,-12.5 z m -36,-36.3 c 0,-6.9 5.6,-12.5 12.5,-12.5 6.9,0 12.5,5.6 12.5,12.5 V 344 c 0,6.9 -5.6,12.5 -12.5,12.5 -6.9,0 -12.5,-5.6 -12.5,-12.5 z m -35.9,-45 c 0,-6.9 5.6,-12.5 12.5,-12.5 6.9,0 12.5,5.6 12.5,12.5 v 215.3 c 0,6.9 -5.6,12.5 -12.5,12.5 -6.9,0 -12.5,-5.6 -12.5,-12.5 z m -36,53.4 c 0,-6.9 5.6,-12.5 12.5,-12.5 6.9,0 12.5,5.6 12.5,12.5 v 110.4 c 0,6.9 -5.6,12.5 -12.5,12.5 -6.9,0 -12.5,-5.6 -12.5,-12.5 z m -36,18.8 c 0,-6.9 5.6,-12.5 12.5,-12.5 6.9,0 12.5,5.6 12.5,12.5 v 73.7 c 0,6.9 -5.6,12.5 -12.5,12.5 -6.9,0 -12.5,-5.6 -12.5,-12.5 z M 512,864.3 c -119,0 -215.4,-96.4 -215.4,-215.4 0,-119 96.4,-215.4 215.4,-215.4 119,0 215.4,96.4 215.4,215.4 0,119 -96.4,215.4 -215.4,215.4 z"
   class="st3" /></g>
	<linearGradient
   id="Blue_2_"
   gradientUnits="userSpaceOnUse"
   x1="512"
   y1="92.049896"
   x2="512"
   y2="932.9502">
		<stop
   offset="0.3175"
   style="stop-color:#C7D3D8"
   id="stop36" />
		<stop
   offset="0.6037"
   style="stop-color:#B0BABE"
   id="stop38" />
		<stop
   offset="1"
   style="stop-color:#8C9293"
   id="stop40" />
	</linearGradient>
	<path
   id="Blue_3_"
   class="st4"
   d="m 114.5,105 v 0 h 0.1 l 797.6,2.9 c 19.7,0.1 35.6,16.2 35.5,35.9 L 945,884.4 c 0,19.6 -16.1,35.5 -35.8,35.5 L 111.6,917 C 91.9,916.9 76,900.8 76.1,881.1 L 78.7,140.5 C 78.9,121 94.9,105.1 114.5,105 m 0,-13 c -26.8,0 -48.6,21.7 -48.7,48.5 l -2.6,740.6 c -0.1,26.9 21.6,48.8 48.5,48.9 l 797.6,2.9 c 26.9,0 48.8,-21.7 48.8,-48.5 l 2.7,-740.6 C 960.9,116.9 939.2,95 912.3,94.9 L 114.7,92 c -0.1,0 -0.1,0 -0.2,0 z"
   inkscape:connector-curvature="0"
   style="fill:url(#Blue_2_)" />
<g
   id="g4888"
   style="display:inline"><g
     id="g4869"
     style="display:inline">
		<circle
   class="st1"
   cx="512"
   cy="503.5"
   r="28.299999"
   id="circle4867"
   style="fill:#c8d8dc" />
	</g><g
     id="g4879"
     style="display:inline">
		<linearGradient
   id="linearGradient4875"
   gradientUnits="userSpaceOnUse"
   x1="512"
   y1="536.7229"
   x2="512"
   y2="814.77539">
			<stop
   offset="0"
   style="stop-color:#C8D8DC"
   id="stop4871" />
			<stop
   offset="1"
   style="stop-color:#ACB6BA"
   id="stop4873" />
		</linearGradient>
		<path
   class="st2"
   d="m 639.5,550 c -0.9,-8.2 -8.4,-14.2 -16.6,-13.2 l -82.2,9.3 H 483.2 L 401,536.8 c -8.2,-0.9 -15.7,5 -16.6,13.2 -0.9,8.2 5,15.7 13.2,16.6 l 75.8,8.6 v 87.4 l -35.3,131.1 c -2.5,8.8 2.6,17.9 11.4,20.4 1.5,0.4 3,0.6 4.5,0.6 7.2,0 13.8,-4.8 15.9,-12 l 36.8,-123.1 h 10.4 L 554,802.8 c 2.1,7.3 8.7,12 15.9,12 1.5,0 3,-0.2 4.5,-0.6 8.8,-2.5 13.9,-11.6 11.4,-20.4 L 550.5,662.7 v -87.4 l 75.8,-8.6 c 8.2,-1 14.1,-8.4 13.2,-16.7 z"
   id="path4877"
   inkscape:connector-curvature="0"
   style="fill:url(#SVGID_2_)" />
	</g></g></g>
</svg>