<?xml version="1.0" encoding="utf-8"?>
<!-- Generator: Adobe Illustrator 21.1.0, SVG Export Plug-In . SVG Version: 6.00 Build 0)  -->
<!-- Artist: @KevDoy for Trenta.io -->
<svg version="1.1" xmlns="http://www.w3.org/2000/svg" xmlns:xlink="http://www.w3.org/1999/xlink" x="0px" y="0px"
	 viewBox="0 0 1024 1024" style="enable-background:new 0 0 1024 1024;" xml:space="preserve">
<style type="text/css">
	.st0{fill:url(#SVGID_1_);}
	.st1{fill:url(#SVGID_2_);}
	.st2{opacity:0.13;}
	.st3{fill:#C9122E;}
	.st4{fill:#FF173B;}
	.st5{fill:#F6F6F6;}
	.st6{fill:#C2C2C2;}
	.st7{display:none;}
	.st8{display:inline;fill:#C9122E;}
	.st9{display:inline;fill:#FF173B;}
	.st10{display:inline;fill:#F6F6F6;}
	.st11{display:inline;fill:#C2C2C2;}
</style>
<g id="Circle">
	<radialGradient id="SVGID_1_" cx="534.9938" cy="-103.1427" r="954.2032" gradientUnits="userSpaceOnUse">
		<stop  offset="0" style="stop-color:#FBFAFA"/>
		<stop  offset="1" style="stop-color:#D5D5D5"/>
	</radialGradient>
	<circle class="st0" cx="512" cy="512" r="447"/>
	<radialGradient id="SVGID_2_" cx="512" cy="256.5521" r="1086.4994" gradientUnits="userSpaceOnUse">
		<stop  offset="0.3195" style="stop-color:#00A5FF"/>
		<stop  offset="0.3493" style="stop-color:#009FFB"/>
		<stop  offset="0.4991" style="stop-color:#0086E8"/>
		<stop  offset="0.6543" style="stop-color:#0073DB"/>
		<stop  offset="0.8172" style="stop-color:#0069D4"/>
		<stop  offset="1" style="stop-color:#0065D1"/>
	</radialGradient>
	<circle class="st1" cx="512" cy="512" r="409"/>
	<g class="st2">
		<path d="M283.5,268.1l5,2.3c1.7,0.6,3.3,0,4.1-1.7l5.8-12.8c0.6-1.7,0-3.3-1.7-4.1l-5-2.3c-1.7-0.6-3.3,0-4.1,1.7l-5.8,12.8
			C281.2,265.6,281.9,267.3,283.5,268.1z"/>
		<path d="M296.8,235.4l5,2.3c1.7,0.6,3.3,0,4.1-1.7l3.9-9.1c0.6-1.7,0-3.3-1.7-4.1l-5-2.3c-1.7-0.6-3.3,0-4.1,1.7l-3.9,9.1
			C294.5,233,295.1,234.6,296.8,235.4z"/>
		<path d="M310.8,262.7l3.1-7c0.6-1.2,0-2.7-1.2-3.1l-3.9-1.7c-1.2-0.6-2.7,0-3.1,1.2l-3.1,7c-0.6,1.2,0,2.7,1.2,3.1l3.9,1.7
			C309,264.6,310.4,264,310.8,262.7z"/>
		<path d="M308.3,245.8l5,2.3c1.7,0.6,3.3,0,4.1-1.7l3.9-9.1c0.6-1.7,0-3.3-1.7-4.1l-5-2.3c-1.7-0.6-3.3,0-4.1,1.7l-3.9,9.1
			C306.1,243.3,306.7,245,308.3,245.8z"/>
		<path d="M270.1,234.2l3.9,1.7c1.2,0.6,2.7,0,3.1-1.2l3.1-7c0.6-1.2,0-2.7-1.2-3.1l-3.9-1.7c-1.2-0.6-2.7,0-3.1,1.2l-3.1,7
			C268.2,232.3,268.8,233.8,270.1,234.2z"/>
		<path d="M266.1,248.1l2.3,1c0.6,0.2,1.4,0,1.9-0.6l1.7-3.9c0.2-0.6,0-1.4-0.6-1.9l-2.3-1c-0.6-0.2-1.4,0-1.9,0.6l-1.7,3.9
			C265.3,246.8,265.5,247.6,266.1,248.1z"/>
		<path d="M298,279.9c-2.3-1-4.8,0-5.8,2.1l-14.9,31c-1,2.1,0,4.8,2.1,5.8c2.1,1,4.8,0,5.8-2.1l14.9-31
			C301.1,283.6,300.1,281,298,279.9z"/>
		<path d="M312.9,281.2l19.2,4.6c2.7,0.6,5.6-1,6.2-3.9c0.6-2.9-1-5.6-3.9-6.2l-19.2-4.6c-2.7-0.6-5.6,1-6.2,3.9
			C308.3,277.6,310,280.5,312.9,281.2z"/>
		<path d="M236.3,246l18.4-9.5c1.9-1,2.7-3.5,1.7-5.4c-1-1.9-3.5-2.7-5.4-1.7l-18.4,9.5c-1.9,1-2.7,3.5-1.7,5.4
			C232,246.2,234.5,247,236.3,246z"/>
		<path d="M300.9,266.3c-1.2-0.6-2.7,0-3.1,1.2l-1.4,3.1c-0.6,1.2,0,2.7,1.2,3.1l3.9,1.7c1.2,0.6,2.7,0,3.1-1.2l1.4-3.1
			c0.6-1.2,0-2.7-1.2-3.1L300.9,266.3z"/>
		<path d="M296.3,360.8c-1-1.4-2.9-1.7-4.3-0.6l-7.9,6c-1.4,1-1.7,2.9-0.6,4.3l3.3,4.3c1,1.4,2.9,1.7,4.3,0.6l7.9-6
			c1.4-1,1.7-2.9,0.6-4.3L296.3,360.8z"/>
		<path d="M317.6,363.9l-2.7-1.2c-0.8-0.4-1.9,0-2.1,0.8l-2.1,4.8c-0.4,0.8,0,1.9,0.8,2.1l2.7,1.2c0.8,0.4,1.9,0,2.1-0.8l2.1-4.8
			C318.9,365.2,318.5,364.1,317.6,363.9z"/>
		<path d="M323.6,347.6l3.7-3.5c0.6-0.6,0.6-1.7,0-2.3l-2.1-2.1c-0.6-0.6-1.7-0.6-2.3,0l-3.7,3.5c-0.6,0.6-0.6,1.7,0,2.3l2.1,2.1
			C322,348.2,323,348.2,323.6,347.6z"/>
		<path d="M280.6,591.3l-26.9-9.9c-1.9-0.8-3.9,0.2-4.6,2.1c-0.8,1.9,0.2,3.9,2.1,4.6l26.9,9.9c1.9,0.8,3.9-0.2,4.6-2.1
			C283.5,594,282.5,591.9,280.6,591.3z"/>
		<path d="M301.7,599.3h-12.2c-1.2,0-2.3,1-2.3,2.3c0,1.2,1,2.3,2.3,2.3h12.2c1.2,0,2.3-1,2.3-2.3C304,600.4,303,599.5,301.7,599.3z
			"/>
		<path d="M322,324.9c0.1,0.1,0.1,0.1,0.2,0.1c1.2,0.5,2.2,1.4,2.9,2.6l-0.8-1.7L322,324.9z"/>
		<path d="M325.9,329.6C325.9,329.6,325.9,329.6,325.9,329.6l0-0.1C325.9,329.5,325.9,329.5,325.9,329.6z"/>
		<path d="M276.5,258.4c0.2-2.5-1.9-4.8-4.6-4.8h-7.9c-1.9,0-3.5-1-4.6-2.7l-1.7-3.5c-0.8-1.9-3.1-2.5-4.8-1.7L243,251
			c-1.9,0.8-2.5,3.1-1.7,4.8l2.7,5.6c0.8,1.4,2.5,2.3,3.9,1.9c0.2,0,0.2,0,0.4,0h23.4C274.4,263.2,276.5,261.1,276.5,258.4z"/>
		<path d="M283.9,278.1c-1.2-0.6-2.9-0.6-3.9,0.2c-0.2,0-0.4,0.2-0.4,0.2l-15.5,7.4c-0.8,0.4-1.4,1-1.7,1.7c-0.6,1-0.8,2.5-0.2,3.7
			l6.2,13.2c0.4,1,1,2.1,2.3,2.5c2.1,1,4.8,0.2,5.8-2.1l9.3-21.1C287,281.8,286,279.1,283.9,278.1z"/>
		<path d="M255.4,308.5c0,0,0,0,0-0.2c-1.4-1.7-1.9-3.7-1.4-5.8l4.8-18.8c0.6-2.5-0.8-5-3.3-5.8c-2.5-0.6-5,0.8-5.8,3.3l-0.8,3.1
			c-0.6,1.2-2.1,2.3-3.7,2.3s-2.9-0.8-3.7-2.1l-1.7-3.1c-1.7-3.3-5.6-4.6-8.9-3.1c-0.4,0-1,0.2-1.4,0.4l-15.3,8.1
			c-0.6,0.2-1,0.6-1.4,1c-0.6,0.6-1.2,1.2-1.4,2.1c-1,2.7,0.2,6,3.1,7l4.3,1.7h0.2c0.8,0.4,1.2,1,1.2,1.9s-0.6,1.4-1.2,1.7h-0.8
			l-2.3,0.2c-2.5,0.2-4.1,2.5-3.9,4.8l0.8,7.7c0.2,2.5,2.5,4.1,4.8,3.9l21.1-2.5c1.7,0,3.3,0.4,4.6,1.4l3.1,3.5
			c1.4,1.7,4.1,1.9,5.8,0.4l5.6-4.8c2.1-1,2.3-3.7,0.6-5.4L255.4,308.5z"/>
		<path d="M222.5,272.1l3.1,0.8c2.9,0.6,5.6-1.2,6.2-3.9c0.6-3.1-1.2-6-3.9-6.4l-9.5-2.3c-0.6-0.2-1.4-0.2-2.1,0
			c-1.7,0-3.1,0.6-4.1,2.1l-12.4,14.9c-1.9,2.3-1.4,5.6,0.8,7.4c2.3,1.9,5.6,1.4,7.4-0.8l8.7-10.3
			C218.3,272.1,220.4,271.4,222.5,272.1z"/>
		<path d="M324.9,251.2c-2.3-0.2-4.6,0.8-5.8,2.9c-1.9,2.9-0.8,6.8,2.1,8.5l7.7,5.6c0.6,0.4,1.4,0.6,2.3,0.8c1.9,0.6,4.1,0.4,6-1
			l34.1-24.8c0.8-0.4,1.4-0.8,2.3-1.4l6.4-4.8l2.9-2.1c0.2-0.2,0.4-0.4,0.6-0.6l18-13.4c8.9-6.6,10.6-19.2,3.7-28.1
			s-19.4-10.6-28.3-3.9l-15.5,11.6l-32.9,24c-4.6,3.3-5.4,9.7-2.1,14.1c0.6,0.8,1.4,1.7,2.3,2.3c2.3,2.1,2.7,5.8,0.6,8.3
			C328.2,250.3,326.5,251,324.9,251.2z"/>
		<path d="M531.1,240.6c0.2-0.2,0.2-0.4,0.2-0.6c0-4.6-3.7-8.3-8.3-8.3h-0.4c-5.6,0-9.9-4.3-10.1-9.9c0-0.6,0-1,0-1.7
			c0-8.9-7.2-15.9-15.9-15.9h-5h-18.2h-8.5c-5.8,0-10.3,4.3-10.8,9.9c-0.8,2.5-3.1,4.1-5.8,4.1h-30.2c-8.7,0-15.9,6.6-16.8,15.1
			h-0.2c0,7.4-5.4,13.4-12.4,14.5h-2.5c-8.3,0-15.1,6.8-15.1,15.1c0,8.3,6.8,15.1,15.1,15.1c6.4,0.6,11.4,6.2,11.4,12.8l4.1,50.9
			c0,1.9-1,3.7-2.7,4.8c-0.6,0.2-1.2,0.4-1.9,0.6h-0.2c-3.1,1.7-5,5-4.8,8.7l3.9,41.2c0.2,1.4,0.6,2.7,1.2,3.7
			c1.4,3.3,3.9,6,7.4,7.2c7,2.9,14.9-0.6,17.8-7.7l9.3-23.2c0.6-1.2,1.9-2.3,3.3-2.7l17.4-5.6c2.9-1,4.6-3.7,4.1-6.4
			c0.2-1.2,1-2.1,2.1-2.5l17.2-5.6c0.8-0.2,1.4-0.4,2.3-0.6h0.2c0.4-0.2,0.6-0.2,0.8-0.4c6.2-2.7,11.2-8.1,13-15.1l18.6-70.8
			c0-0.2,0.2-0.2,0.2-0.4c0.2-1,0.6-1.9,1.2-2.7c0,0,0,0,0-0.2l17.2-19.2C530.7,243.7,531.4,242.1,531.1,240.6z"/>
		<path d="M325.9,329.4c-0.2-0.7-0.5-1.3-0.8-1.9L325.9,329.4z"/>
		<path d="M344.3,302.9c-0.8-1.7-2.3-2.9-3.9-3.3c-0.8-0.6-1.9-1-2.9-1.4l-20.3-8.9c-7.9-3.3-16.8,0.6-20.1,8.5
			c-3.3,7.9,0.6,16.8,8.5,20.1l16.4,7.1c-0.9-0.9-2.3-4.8-2.3-4.8l13.9,0.6l-0.4,11.4c-0.2-0.2-6.7-1.7-7.2-2.4l7.2,16.1
			c1,2.5,0.2,5.4-1.4,7.2l-7,6.2c-2.7,2.1-3.3,6-1.2,8.7l12,17.8c0.6,0.8,1.7,1.7,2.5,2.1c0,0,0.2,0,0.2,0.2
			c2.9,1.9,6.8,1.2,8.7-1.7l19-26.7c1.7-1.9,2.1-4.6,1-7L344.3,302.9z"/>
		<path d="M343.9,834.4c4.1,0.2,8.3-1.9,10.3-5.8l32.9-59.2c1.7-3.1,5.2-4.8,8.5-3.7h0.2c0.2,0.2,0.6,0.2,0.8,0.2
			c0.2,0,0.2,0,0.4,0.2c3.9,0.8,8.1-1.2,9.5-5l20.1-49.4c0.2-0.4,0.2-0.8,0.4-1c0-0.2,0.2-0.4,0.2-0.6c2.7-7.7-1.2-15.5-8.5-18
			l-41.6-14.3c-3.9-1.9-6.2-6.2-5.6-10.6c1.4-5.2-1.2-10.8-6.6-12.6l-77-26.5c-5.4-1.9-11.2,1-13,6.4c-0.4,0.8-0.4,1.9-0.6,2.9
			c0,1.4-1,2.5-2.5,2.5s-2.5-1-2.5-2.5c0-1.9-1.4-3.3-3.3-3.3h-13.4c-2.7-0.2-5.2-1.9-6.4-4.6c-1.2-2.7-0.8-5.8,1-7.9
			c1.2-1.2,1.9-2.9,1.9-4.6c0-3.5-2.9-6.4-6.4-6.4h-2.7c-2.7,0-5.6-1.4-7-3.9c-1-2.1-1.2-4.1-0.6-6.2l1.9-3.7
			c1.7-3.5,0.4-7.7-3.1-9.5c-3.5-1.7-7.7-0.4-9.5,3.1l-1,2.3c-2.3,3.5-6.2,6-10.8,6c-5.4,0-9.9-3.1-11.8-7.9l-3.3-18.6
			c-0.6-7.4,4.6-14.1,11.6-15.5h38.5c3.3,0,6.2,2.3,7,5.6l3.1,11c0.6,2.5,3.3,3.9,5.8,3.3c2.5-0.6,3.9-3.3,3.3-5.8l-5.2-18
			c-1.2-3.1,0-6.6,2.7-8.3l17.8-8.1c5.6-2.5,8.1-9.1,5.8-14.7c-1.2-5.6,1.4-11.2,6.2-13.9l77.6-35.8c5.6-2.7,8.1-9.3,5.6-15.1
			c0-0.2-0.2-0.4-0.2-0.4c0-0.6-0.2-1.2-0.4-1.7l-23.8-51.1c-1.2-2.7-4.6-3.9-7.2-2.7c-1.9,0.8-2.9,2.5-3.1,4.3c0,3.9-3.1,7-7,7
			c-3.5,0-6.6-2.7-7-6.2l0.6-10.3c0.2-6.8-5.2-12.6-12.2-12.8c-6.8-0.2-12.6,5.2-12.8,12.2l-2.1,29.8c-0.4,1.4-1,2.9-2.3,4.1
			l-18.4,14.3c-1.7,0.6-3.5,0.2-4.8-1.2c-1.7-1.9-1.7-4.6,0.2-6.4h-0.2c0.2-0.2,0.4-0.6,0.6-0.8c3.1-5.2,1.4-11.8-3.7-14.9
			l-14.5-8.7c-8.5-9.5-8.1-24.2,1.2-32.9l52.1-40.1c2.7-2.1,3.3-6.2,1.2-8.9s-6.2-3.3-8.9-1.2l-0.6,0.4c-3.5,2.9-8.7,2.7-11.8-0.6
			c-2.7-3.5-7.9-3.9-11.4-1.2l-3.3,2.5c-2.1,1.7-5,1.7-7,0c-0.2-0.2-0.4-0.4-0.6-0.6c0,0-0.2,0-0.2-0.2c-2.3-1.7-5.4-1.9-7.7,0
			l-7.7,6c-0.6,0.4-1.4,0.8-2.5,0.8c-2.5,0-4.3-2.1-4.3-4.3v0.2c-0.2-5-4.3-9.1-9.3-9.3c-5.4-0.2-9.9,3.9-9.9,9.3l-0.4,7v-0.2
			c0,1.4-1.2,2.7-2.7,2.7c-1.2,0-2.5-1-2.7-2.3c0-6.4-2.5-13-7.4-18l-24.2-24.6c-4.8-4.8-11.1-7.3-17.4-7.6
			c-13.4,20.5-25,42.1-34.7,64.9c-10.6,25-18.6,50.8-23.9,77.2l7.3,29.7c0.4,4.6-1.4,9.1-5,12c0,0-0.2,0.2-0.2,0.4
			c-8.5,7.2-11.6,19.4-6.8,30l18.6,44.3l12.6,30c1,2.3,3.5,3.3,5.8,2.5c2.3-1,3.3-3.5,2.5-5.8L136,547c-0.2-1.2,0.4-2.7,1.7-3.1
			c1.4-0.6,3.1,0,3.7,1.4l-0.2-0.4l21.5,42c0.6,1.9,0.6,3.7,0.2,5.6c-0.2,0.2-0.2,0.4-0.4,0.6c-1.2,2.9,0,6.4,2.9,7.9l61.9,28.3
			c0.2,0.2,0.4,0.2,0.6,0.4l35,15.9c3.7,1.9,6.2,5.8,6.2,10.1c0,4.1-2.1,7.7-5.4,9.7c-9.5,4.6-13.9,15.9-9.5,25.4l11.4,26.1
			c0.6,1.2,1.2,2.5,2.1,3.7l3.1,6.8c2.9,6.6,8.5,11.2,14.9,13c5.6,1.4,9.5,6.8,9.1,12.8l-1.9,102.8c11,7,22.3,13.5,33.9,19.4
			l11.4-37.9C338.7,835.2,341.4,833.7,343.9,834.4z"/>
		<path d="M795.7,220.1L767,207.9c-3.3-1.4-7.2,0.2-8.7,3.5c-1.4,3.5,0,7.4,3.5,8.7l28.8,12.2c3.3,1.4,7.2-0.2,8.7-3.5
			C800.7,225.5,799.1,221.6,795.7,220.1z"/>
		<path d="M808.2,236.5l1.9,1c1.2,0.6,2.6,0.6,3.8,0c-2.4-2.6-4.8-5.1-7.2-7.7c-0.2,0.3-0.4,0.6-0.6,0.9
			C805.1,232.8,805.9,235.4,808.2,236.5z"/>
		<path d="M722.7,772.3c4.8,1.4,9.7-1.4,11.2-6.2l1-3.5l10.1-35.2c1-2.3-0.4-5-2.9-5.6s-5,0.6-5.8,3.1l-1.7,5.4
			c-0.6,1.9-2.7,2.9-4.6,2.3H730c-2.5-0.6-5,0.6-5.8,3.1l-2.7,8.7c-0.2,0.4-0.4,0.8-0.6,1.4l-4.3,15.3
			C715.1,765.9,718,770.8,722.7,772.3z"/>
		<path d="M705.8,692.3c0.1-1.8,1.1-3.6,2.4-4.7c0.1-0.1,0.3-0.4,0.4-0.8l-3.3,2.5L705.8,692.3z"/>
		<path d="M749.6,336.6l0.4-10.1h0c0,3.7-2.9,6.6-6.6,6.6v0.4h0C745.9,333.5,748.2,334.7,749.6,336.6z"/>
		<path d="M510.9,373.6h-21.1c-3.5,0-6.4,2.9-6.4,6.4s2.9,6.4,6.4,6.4h21.1c3.5,0,6.4-2.9,6.4-6.4
			C517.3,376.7,514.6,373.8,510.9,373.6z"/>
		<path d="M727.9,273.1l-29,33.1c-0.2,0.2-0.4,0.4-0.4,0.6c-1.7,1.4-2.1,3.7-0.8,5.4l14.5,21.7c1.2,1.9,3.9,2.5,5.8,1
			c1.9-1.2,2.5-3.9,1-5.8l-6.2-9.3c-2.1-3.9-2.1-8.7,0.2-12.8l23.4-26.7c2.1-2.3,1.9-5.8-0.6-7.9C733.5,270.4,730,270.6,727.9,273.1
			z"/>
		<path d="M934.1,620.2v-0.4l0.4,0.2L934.1,620.2z"/>
		<path d="M817.3,252.2c0.8,2.1,0,4.6-1.9,6.2l-24.6,17.8c-3.1,2.3-3.9,6.6-1.7,9.7c1,2.5,0.4,5.6-1.7,7.4l-2.9,2.1
			c-2.3,1.7-3.1,4.6-2.3,7.2c0.2,0.4,0.4,0.8,0.6,1.2c0.8,2.1,0,4.6-1.9,6l-13.9,9.9l0.4-7.7c0.2-4.8-3.5-8.7-8.1-8.9
			c-4.8-0.2-8.7,3.5-8.9,8.1l-0.6,15.1h4.1v13.2h-10.8v-6.2c-4.8-0.2-8.7,3.5-8.9,8.1l-0.2,4.6c-0.2,0.8-0.8,1.4-1.7,1.7
			c-0.6,0.2-1,0.2-1.7,0c-6.4-3.9-15.1-3.5-21.1,1.7l-40.1,34.3c-1,0.4-2.1,0.4-3.1,0c-0.8-0.4-1.4-1-1.9-1.9v-3.7
			c0-2.3-1.4-4.3-3.5-5.2c-1.4-0.8-2.1-2.7-1.2-4.1c0.6-1.2,2.1-1.9,3.5-1.4l4.6,2.5c3.9,2.1,8.7,0.6,11-3.1c2.1-3.9,0.6-8.7-3.1-11
			l-30.4-16.6c-0.8-0.6-1.4-1-2.3-1.4c-11.4-6.2-25.7-2.1-31.9,9.3l-7.2,13.4h0.2L588.9,390c-1.2,1.7-3.3,2.7-5.6,2.5l-7.2-0.2
			c-2.9-0.2-5.6,2.1-5.6,5.2l-0.6,21.5c-0.2,2.9,2.1,5.6,5.2,5.6l7.2,0.4c2.7,0.2,5-1.7,5.6-4.1c0.2-0.4,0.4-0.6,0.8-0.6
			c0.4,0,0.6,0.2,0.8,0.4l5,14.5c0.8,2.9,3.9,4.3,6.8,3.5l7-2.1c2.9-0.8,4.3-3.9,3.5-6.8l-2.9-8.1c0-0.6,0.2-1.4,0.8-1.9
			c0.2-0.2,0.6-0.4,1-0.4h3.5c2.5,0,4.6-2.1,4.6-4.6c0-2.5-2.1-4.6-4.6-4.6h-1.9c-0.8-0.2-1.7-0.6-2.1-1.4c-0.4-0.6-0.4-1.4-0.2-2.1
			l16.1-30.6c1.2-1.2,3.1-1.7,4.6-0.8c1.7,0.8,2.5,2.7,2.1,4.3l-7.7,19c-0.4,0.8-0.8,1.7-1,2.7c-0.8,2.9,0.8,6.2,3.7,7.2
			c0.2,0,0.4,0.2,0.6,0.2c0.8,0.2,1.4,0.4,2.3,0.4H648c1.2,0,2.3,1,2.3,2.3s-1,2.3-2.3,2.3h-3.5c-9.3,0-16.8,7.4-16.8,16.8
			c0,5.4,2.5,10.1,6.6,13.2h-36c-2.7,0-5.2-1.7-6.2-4.1l-0.6-2.3c0-0.2,0-0.2,0-0.4l-1-4.3c-0.4-2.1-2.7-3.5-4.8-3.1
			c-2.1,0.4-3.5,2.7-3.1,4.8l0.8,3.3c0.2,2.9-1.4,5.6-3.9,6.6c-0.2,0-0.4,0.2-0.6,0.2c-5.2,2.1-8.9,6.6-9.7,12c0,0.2,0,0.4,0,0.6
			c0,0.2,0,0.6,0,0.8c-0.8,6.4-6,11.6-12.4,12.4H545c-3.3,0-6,2.7-6,6s2.7,6,6,6h1.4c3.3,0.6,5.8,3.5,5.8,6.8s-2.3,6-5.4,6.8h-19.7
			c-3.3,0-5.8,2.5-6,5.8l-0.2,18.6c0,3.3,2.5,5.8,5.8,6h25.9c3.3,0,5.8-2.5,6-5.8v-3.9c0-2.5,1.9-4.8,4.3-5.2c0.2,0,0.4,0,0.6,0h0.2
			c2.5-0.6,4.6-2.7,4.8-5.2c0-3.1,2.5-5.8,5.8-5.8h9.3c0.8,0,1.7-0.2,2.3-0.8c2.7-2.7,6.8-2.7,9.5,0l13,13c1,1.4,1.4,3.3,0.8,5.2
			c-0.6,2.1-2.5,3.5-4.6,3.7h-1.7c-1.2,0-2.3,1-2.3,2.3s1,2.3,2.3,2.3l9.9,0.2c0.8,0,1.4-0.4,1.9-1c0.2-0.2,0.2-0.2,0.4-0.4l5.6-7
			c0,0,0,0,0.2,0c2.1-2.1,2.1-5.4,0-7.7l-18.2-18.4c-0.6-1.2-0.4-2.5,0.6-3.5c1-1,2.5-1.2,3.5-0.6l17.4,17.4c0.8,1,1.2,2.3,1.4,3.5
			v5.4c0,0.8,0.2,1.4,0.8,1.9l9.3,11.2c0.4,0.6,1.4,0.8,2.1,0.6c1-0.2,2.1-0.8,2.3-2.1l2.7-11.8c0.8-2.3,3.3-3.7,5.8-3.1
			c2.5,0.6,4.1,3.1,3.5,5.6c-0.2,0.8-0.4,1.7-0.4,2.5c0,4.3,2.9,7.9,7,8.9c0.2,0.2,0.6,0.2,1,0.2l16.8,3.5l-0.6-0.2
			c5,0.8,8.5,5.8,7.4,10.8c-0.8,4.6-4.8,7.7-9.3,7.7l-34.5-7.2c-3.5-0.8-6.8,1-8.3,4.3c-0.6,2.1-2.7,3.5-4.8,3.3l-21.9-5.6
			c-2.5-0.6-4.3-2.7-5-5c-0.4-5-4.8-8.7-9.7-8.5l-20.5,0.8c-0.2,0-0.4,0-0.6,0l-30.4,0.8c-9.3,0.4-16.8,8.5-16.3,17.8
			c0,0.2,0,0.4,0,0.6c0,0.2,0,0.4,0,0.6s0,0.4,0,0.8c0.2,2.3-0.8,4.3-2.7,5.6c-15.5,9.7-25.4,27.3-24.6,47
			c1.2,29.2,25.9,51.7,55,50.3l20.7-0.8c1.7-0.2,3.1,0.8,3.7,2.3c0.8,2.9,3.5,4.8,6.6,4.6l3.3-0.2c3.3-0.2,6.2,2.3,6.8,5.6l0.8,14.1
			c0.4,5,3.7,9.1,8.3,10.3h0.2c2.3,0.6,4.1,2.3,5,4.8l2.7,21.3c0,0.2,0,0.4,0,0.4l0.2,0.8c0.2,2.5-1.2,5-3.5,6.2
			c-5.4,3.3-7.9,9.9-5.6,15.9l20.9,59.6c2.1,5.8,7.7,9.3,13.7,8.9c0.4,0,1,0,1.7,0l18.4-3.1c1.7-0.2,3.1-1.2,4.1-2.5
			c0.2-0.2,0.6-0.4,0.8-0.6l18.8-20.1c1.2-1.4,1.7-3.5,1-5.2c-1.2-2.1-0.6-4.8,1.7-6l6.8-2.9c1.7-0.6,2.5-2.3,2.5-3.9
			c0-0.6,0-1-0.2-1.7l-2.1-6.4c-1.2-2.7-0.4-5.8,1.7-7.7l19.2-14.5c2.1-1.4,2.9-3.7,2.9-6c0-0.4,0-1,0-1.7l-5.3-34.4
			c0,0.7,0,1.3,0.2,2l-3.9,0.8l-2.9-13l10.6-2.3c-0.2,0.2-0.5,5.1-1.1,7.1l27.3-20.5c2.5-2.1,3.5-5.2,2.7-8.3c0-0.8,0.2-1.7,0.8-2.3
			l14.5-11c4.1-3.1,5-9.1,1.9-13.2c-2.5-3.3-6.8-4.3-10.6-3.1c-2.5,0.2-4.8-1-6-3.3c-1.2-2.7-0.4-5.8,2.1-7.4l34.1-15.3
			c5.8-2.7,8.5-9.7,5.8-15.5c-2.7-5.8-9.7-8.5-15.5-5.8l-6.2,2.9c-2.9,1.2-6.2,0.4-8.1-2.1l-0.6-1.2l-14.3-24.2
			c-0.6-1.9,0-3.9,1.7-5c1.7-1.2,3.9-0.8,5.4,0.6l9.5,14.7c0.6,0.8,1.2,1.4,2.1,2.1c1,1,2.5,1.7,3.9,1.7l38.1,0.4c0.2,0,0.2,0,0.4,0
			c2.7,0,5.4,1.2,7.2,3.3l12,17c1.2,1.9,3.3,2.9,5.4,3.1c2.1,0.4,3.9,2.1,4.8,4.1l18.4,36c1,1.9,2.5,3.1,4.3,3.7
			c1,0.4,2.1,0.6,3.1,0.8c4.8,0.2,8.9-3.5,9.1-8.3l0.8-15.5c0-0.2,0-0.4,0.2-0.6c0-1.7,0.6-3.1,1.9-4.3l0.8-0.8c0,0,0.2,0,0.2-0.2
			l21.3-18.4c0.8-0.6,1.4-1,1.7-1.4c1.2-1,2.7-1.7,4.3-1.7h3.5c1.4,0,2.9,0.6,4.1,1.7c0.4,0.4,1.4,1,2.3,1.9l5.6,5.2
			c0.8,0.8,1.2,2.1,1.4,3.1l0.1,1.8c6.5-29.1,9.8-59,9.8-89.4c0-55.1-10.8-108.5-32.1-158.8c-17.4-41.1-41.1-78.6-70.7-111.9
			C815.6,244.8,815.7,248.8,817.3,252.2z M680.9,552c-0.4-0.1-0.8-0.3-1.2-0.5l1.6,0.3L680.9,552z"/>
		<path d="M587.8,518.5c1.7,0,3.1-1.2,3.1-2.9l0.2-7.2c0-1.7-1.2-3.1-2.9-3.1c-1.7,0-3.1,1.2-3.1,2.9l-0.2,7.2
			C584.9,517,586.2,518.5,587.8,518.5z"/>
		<path d="M599,259.9c-1.4-2.3-4.6-2.9-6.8-1.4l-7.4,4.8c-2.3,1.4-2.9,4.6-1.4,6.8l12.2,19c1.4,2.3,4.6,2.9,6.8,1.4l7.4-4.8
			c2.3-1.4,2.9-4.6,1.4-6.8L599,259.9z"/>
		<path d="M607.1,248.7c-0.8-1.4-2.7-1.9-4.1-0.8l-4.3,2.9c-1.4,0.8-1.9,2.7-0.8,4.1l7.2,11.4c0.8,1.4,2.7,1.9,4.1,0.8l4.3-2.9
			c1.4-0.8,1.9-2.7,0.8-4.1L607.1,248.7z"/>
		<path d="M865.5,651.7c0.6,0.8,1.7,1,2.5,0.6l2.7-1.9c0.8-0.6,1-1.7,0.6-2.5l-4.6-7c-0.6-0.8-1.7-1-2.5-0.6l-2.7,1.9
			c-0.8,0.6-1,1.7-0.6,2.5L865.5,651.7z"/>
		<path d="M699.5,236.1l-0.2-5.2c0-1.7-1.4-2.9-3.1-2.9l-13.4,0.6c-1.7,0-2.9,1.4-2.9,3.1l0.2,5.2c0,1.7,1.4,2.9,3.1,2.9l13.4-0.6
			C698.3,239.2,699.5,237.7,699.5,236.1z"/>
		<path d="M672.9,236.7l-8.7,0.6c-1,0-1.9,1-1.9,2.1l0.2,3.3c0,1,1,1.9,2.1,1.9l8.7-0.6c1,0,1.9-1,1.9-2.1l-0.2-3.3
			C674.9,237.5,673.9,236.7,672.9,236.7z"/>
		<path d="M562.8,454.5c1.2-1.4,1-3.5-0.4-4.8c-0.8-0.6-1.9-1-2.9-0.6c-0.8,0.2-1.7-0.2-2.1-0.8l-9.1-14.3c-0.4-0.6-1.2-1.2-2.1-1.2
			c-0.2,0-0.4-0.2-0.4-0.4c-0.2-0.2-0.2-0.4-0.2-0.6l3.5-6.4c0.2-0.2,0.2-0.4,0-0.8v-0.2c0-0.6-0.4-1-1-1l-5.2,0.2
			c-0.2,0-0.4-0.2-0.4-0.2c-0.2-0.2-0.2-0.4-0.2-0.6l0.8-1.9c0.4-1,0-2.3-1-2.7c-1-0.4-2.3,0-2.7,1l-4.1,9.3
			c-0.2,0.2-0.2,0.6-0.2,0.8c0,0.4,0,0.8,0.2,1.2l5,8.9c0.6,1,1.7,1.2,2.7,0.8c0.2,0,0.4,0,0.6,0c0.2,0.2,0.2,0.2,0.2,0.4
			c-0.2,0.4-0.2,0.8-0.2,1.4l1.2,5.2c0.2,0.8-0.4,1.9-1.4,2.1c-1,0.2-1.7,1-1.7,2.1l0.4,7.2c0,1,1,2.1,2.3,1.9h0.2
			c0.2,0,0.4,0,0.6,0.4c0,0.2,0,0.4-0.4,0.6l-2.7,0.6c-1.2,0.2-1.9,1.4-1.7,2.7c0.2,1.2,1.4,1.9,2.7,1.7l17.8-4.3
			c1.4-0.6,2.1-1.7,1.9-2.9c-0.2-0.8-0.8-1.4-1.7-1.7c-0.2,0-0.2-0.2-0.4-0.2c0-0.2,0-0.2,0-0.4L562.8,454.5z"/>
		<path d="M533.2,437.6c-1.9-0.6-3.9,0.6-4.3,2.5l-0.6,2.3c-0.2,0.4-0.6,0.8-1.2,0.8h-2.9c-1.4,0-2.7,1-2.7,2.5s1,2.7,2.5,2.7h0.2
			c0.2,0,0.4,0.2,0.6,0.4c0.2,0.2,0.2,0.4,0,0.8l-2.1,3.9c0,0.2-0.2,0.2-0.4,0.2H522c-1.4,0.4-2.1,1.9-1.7,3.3
			c0.4,1.4,1.9,2.1,3.3,1.7l9.9-3.3c0.4,0,0.8-0.4,0.8-0.8l1.2-7c0-0.4-0.2-0.8-0.6-1c-0.2-0.2-0.2-0.2-0.2-0.4l1-3.7
			C536.1,440.3,535.1,438.2,533.2,437.6z"/>
	</g>
</g>
<g id="Layer_3">
	<polygon class="st3" points="466.3,462.9 557.7,561.2 799,241.1 	"/>
	<polygon class="st4" points="466.3,462.9 512,512.1 799,241.1 	"/>
	<polygon class="st5" points="557.7,561.2 466.3,462.9 225,783 	"/>
	<polygon class="st6" points="557.7,561.2 512,512.1 225,783 	"/>
</g>
<g id="Layer_3_copy" class="st7">
	<polygon class="st8" points="472.8,465.4 551.2,549.6 758,275.3 	"/>
	<polygon class="st9" points="472.8,465.4 512,507.5 758,275.3 	"/>
	<polygon class="st10" points="551.2,549.6 472.8,465.4 266,739.7 	"/>
	<polygon class="st11" points="551.2,549.6 512,507.5 266,739.7 	"/>
</g>
</svg>
