<?xml version="1.0" encoding="utf-8"?>
<!-- Generator: Adobe Illustrator 22.1.0, SVG Export Plug-In . SVG Version: 6.00 Build 0)  -->
<!-- Artist: @KevDoy for Trenta.io -->
<!-- Vector Conversion by @Genghis-Khanr -->
<svg version="1.1" id="scanner" xmlns="http://www.w3.org/2000/svg" xmlns:xlink="http://www.w3.org/1999/xlink" x="0px" y="0px"
	 viewBox="0 0 1024 1024" style="enable-background:new 0 0 1024 1024;" xml:space="preserve">
<style type="text/css">
	.st0{fill:#141311;}
	.st1{fill:url(#SVGID_1_);}
	.st2{fill:url(#SVGID_2_);}
	.st3{fill:#ADADAD;}
	.st4{fill:#DDDDDD;}
	.st5{fill:url(#SVGID_3_);}
</style>
<g>
	<path class="st0" d="M512,808.9H142.6c-29.6,0-50-20.8-56.7-30l-23.3-48.2v-7c0,0,449.4,0,449.4,0h450.4v7l-24.3,48.2
		c-6.7,9.2-27.1,30-56.7,30C881.4,808.9,512,808.9,512,808.9z"/>
	<linearGradient id="SVGID_1_" gradientUnits="userSpaceOnUse" x1="59.6501" y1="579.7136" x2="965.3544" y2="579.7136">
		<stop  offset="0" style="stop-color:#EAEAEA"/>
		<stop  offset="0.5" style="stop-color:#F4F4F4"/>
		<stop  offset="1" style="stop-color:#EAEAEA"/>
	</linearGradient>
	<path class="st1" d="M814.7,405.1H209.3L62.6,704.3c-10.4,21.7,7.9,49,31.9,50c0.5,0,1,0,1.5,0h833c0.5,0,1,0,1.5,0
		c24.1-1,42.3-28.3,31.9-50L814.7,405.1z"/>
	<linearGradient id="SVGID_2_" gradientUnits="userSpaceOnUse" x1="512" y1="685" x2="512" y2="406.9081">
		<stop  offset="0.1587" style="stop-color:#3F3F3F"/>
		<stop  offset="0.5258" style="stop-color:#3B3B3B"/>
		<stop  offset="0.894" style="stop-color:#2F2F2F"/>
		<stop  offset="1" style="stop-color:#2A2A2A"/>
	</linearGradient>
	<polygon class="st2" points="785.5,406.9 238.5,406.9 120.5,685 903.5,685 	"/>
	<path class="st3" d="M512,418.8l397.3,1.5c48.1,1.4,118.9-5.5,53-49.7c0,0-203.8-150-208.2-151.3c-4.3-1.3-15.2-3.2-61.3-3.2
		c-46.2,0-180.8,0-180.8,0s-134.7,0-180.8,0s-57,1.8-61.3,3.2c-4.3,1.3-208.2,151.3-208.2,151.3c-65.9,44.2,4.9,51.1,53,49.7
		L512,418.8z"/>
	<path class="st4" d="M512,412.8l397.3,1.5c48.1,1.4,118.9,0.5,53-43.8c0,0-203.8-150-208.2-151.3c-4.3-1.3-15.2-3.2-61.3-3.2
		c-46.2,0-180.8,0-180.8,0s-134.7,0-180.8,0s-57,1.8-61.3,3.2c-4.3,1.3-208.2,151.3-208.2,151.3c-65.9,44.2,4.9,45.1,53,43.8
		L512,412.8z"/>
	<linearGradient id="SVGID_3_" gradientUnits="userSpaceOnUse" x1="39.7678" y1="311.4541" x2="985.8152" y2="311.4541">
		<stop  offset="0" style="stop-color:#EAEAEA"/>
		<stop  offset="0.5" style="stop-color:#F4F4F4"/>
		<stop  offset="1" style="stop-color:#EAEAEA"/>
	</linearGradient>
	<path class="st5" d="M519.7,405l397.3,1.5c48.1,1.4,100.1,0.4,45.3-36c0,0-203.8-150-208.2-151.3c-4.3-1.3-15.2-3.2-61.3-3.2
		c-46.2,0-180.8,0-180.8,0s-134.7,0-180.8,0s-57,1.8-61.3,3.2c-4.3,1.3-208.2,151.3-208.2,151.3c-58.2,37.2,12.6,37.4,60.7,36
		L519.7,405z"/>
</g>
</svg>
