<?xml version="1.0" encoding="utf-8"?>
<!-- Generator: Adobe Illustrator 25.0.1, SVG Export Plug-In . SVG Version: 6.00 Build 0)  -->
<svg version="1.1"
	 id="Layer_1" inkscape:version="0.92.2 5c3e80d, 2017-08-06" sodipodi:docname="org.gnome.Podcasts.svg" xmlns:cc="http://creativecommons.org/ns#" xmlns:dc="http://purl.org/dc/elements/1.1/" xmlns:inkscape="http://www.inkscape.org/namespaces/inkscape" xmlns:rdf="http://www.w3.org/1999/02/22-rdf-syntax-ns#" xmlns:sodipodi="http://sodipodi.sourceforge.net/DTD/sodipodi-0.dtd" xmlns:svg="http://www.w3.org/2000/svg"
	 xmlns="http://www.w3.org/2000/svg" xmlns:xlink="http://www.w3.org/1999/xlink" x="0px" y="0px" viewBox="0 0 1024 1024"
	 style="enable-background:new 0 0 1024 1024;" xml:space="preserve">
<style type="text/css">
	.st0{fill:url(#circle954_1_);}
	.st1{fill:url(#circle961_1_);}
	.st2{opacity:0.15;}
	.st3{fill:#FFFFFF;}
</style>
<g id="Circle">
	
		<radialGradient id="circle954_1_" cx="534.9938" cy="155.1427" r="954.2032" gradientTransform="matrix(1 0 0 -1 0 52)" gradientUnits="userSpaceOnUse">
		<stop  offset="0" style="stop-color:#FBFAFA"/>
		<stop  offset="1" style="stop-color:#D5D5D5"/>
	</radialGradient>
	<circle id="circle954" class="st0" cx="512" cy="512" r="447"/>
	
		<linearGradient id="circle961_1_" gradientUnits="userSpaceOnUse" x1="512" y1="169.907" x2="512" y2="977.0905" gradientTransform="matrix(1 0 0 1 0 -54)">
		<stop  offset="0" style="stop-color:#FF8546"/>
		<stop  offset="0.2851" style="stop-color:#FF6B49"/>
		<stop  offset="0.602" style="stop-color:#FF484B"/>
		<stop  offset="1" style="stop-color:#FF004D"/>
	</linearGradient>
	<circle id="circle961" class="st1" cx="512" cy="512" r="409"/>
</g>
<g class="st2">
	<g>
		<circle cx="514.3" cy="394.2" r="58"/>
		<path d="M313.3,573c7.2,3.2,171.3,78.2,174.2,79c27.8,6.8,35.8,6.6,63.4,0c0,0,153.7-71.2,160.3-74.1c9.2-5.2,14.1-28.6,0-37.5
			c-13.8-8.7-150.8-71.2-155.2-72.7c-4.3-1.4-16.7-1.2-16.7-1.2s-0.3,93.2-0.6,101.2c-6.9,18.3-38.6,15.3-45.3,0
			c0-6.6,0-100.9,0-100.9s-11.8-1.2-17.3,0c-5.5,1.2-154.3,68.6-162.7,73.5C301.4,547.3,306.3,569.8,313.3,573z M313.3,573
			c7.2,3.2,171.3,78.2,174.2,79c26.8,12.2,35.1,11.8,63.4,0c0,0,153.7-71.2,160.3-74.1c9.2-5.2,14.1-28.6,0-37.5
			c-13.8-8.7-150.8-71.2-155.2-72.7c-4.3-1.4-16.7-1.2-16.7-1.2s-0.3,93.2-0.6,101.2c-6.9,18.3-38.6,15.3-45.3,0
			c0-6.6,0-100.9,0-100.9s-11.8-1.2-17.3,0c-5.5,1.2-154.3,68.6-162.7,73.5C301.4,547.3,306.3,569.8,313.3,573z"/>
	</g>
	<path d="M711.3,597.1c-6.6,2.9-160.3,74.1-160.3,74.1c-28.4,11.8-36.6,12.2-63.4,0c-2.9-0.9-167-75.8-174.2-79
		c-2.2-1-4.2-4.1-5.5-7.9c-3.9,9.4,0.2,23.2,5.5,25.7c7.2,3.2,171.3,78.2,174.2,79c26.8,12.2,35.1,11.8,63.4,0
		c0,0,153.7-71.2,160.3-74.1c6.9-3.9,11.3-17.7,7.4-28.3C717.1,591.4,714.4,595.3,711.3,597.1z"/>
</g>
<g>
	<g>
		<circle class="st3" cx="513.1" cy="389.1" r="58"/>
		<path class="st3" d="M312.1,567.9c7.2,3.2,171.3,78.2,174.2,79c27.8,6.8,35.8,6.6,63.4,0c0,0,153.7-71.2,160.3-74.1
			c9.2-5.2,14.1-28.6,0-37.5c-13.8-8.7-150.8-71.2-155.2-72.7c-4.3-1.4-16.7-1.2-16.7-1.2s-0.3,93.2-0.6,101.2
			c-6.9,18.3-38.6,15.3-45.3,0c0-6.6,0-100.9,0-100.9s-11.8-1.2-17.3,0c-5.5,1.2-154.3,68.6-162.7,73.5
			C300.3,542.2,305.2,564.7,312.1,567.9z M312.1,567.9c7.2,3.2,171.3,78.2,174.2,79c26.8,12.2,35.1,11.8,63.4,0
			c0,0,153.7-71.2,160.3-74.1c9.2-5.2,14.1-28.6,0-37.5c-13.8-8.7-150.8-71.2-155.2-72.7c-4.3-1.4-16.7-1.2-16.7-1.2
			s-0.3,93.2-0.6,101.2c-6.9,18.3-38.6,15.3-45.3,0c0-6.6,0-100.9,0-100.9s-11.8-1.2-17.3,0c-5.5,1.2-154.3,68.6-162.7,73.5
			C300.3,542.2,305.2,564.7,312.1,567.9z"/>
	</g>
	<path class="st3" d="M710.1,592c-6.6,2.9-160.3,74.1-160.3,74.1c-28.4,11.8-36.6,12.2-63.4,0c-2.9-0.9-167-75.8-174.2-79
		c-2.2-1-4.2-4.1-5.5-7.9c-3.9,9.4,0.2,23.2,5.5,25.7c7.2,3.2,171.3,78.2,174.2,79c26.8,12.2,35.1,11.8,63.4,0
		c0,0,153.7-71.2,160.3-74.1c6.9-3.9,11.3-17.7,7.4-28.3C715.9,586.3,713.3,590.2,710.1,592z"/>
</g>
</svg>
