<?xml version="1.0" encoding="utf-8"?>
<!-- Generator: Adobe Illustrator 22.1.0, SVG Export Plug-In . SVG Version: 6.00 Build 0)  -->
<!-- Artist: @KevDoy for Trenta.io -->
<!-- Vector Conversion by @Genghis-Khanr -->
<svg version="1.1" id="gnome-sudoku" xmlns="http://www.w3.org/2000/svg" xmlns:xlink="http://www.w3.org/1999/xlink" x="0px"
	 y="0px" viewBox="0 0 1024 1024" style="enable-background:new 0 0 1024 1024;" xml:space="preserve">
<style type="text/css">
	.st0{fill:#FFFFFF;}
	.st1{fill:#979797;}
	.st2{fill:#49494B;}
</style>
<g>
	
		<rect x="119.8" y="119.8" transform="matrix(0.9877 -0.1564 0.1564 0.9877 -73.7894 86.3973)" class="st0" width="784.4" height="784.4"/>
	<rect x="149.6" y="150" transform="matrix(0.9877 -0.1564 0.1564 0.9877 -73.8672 86.416)" class="st1" width="725" height="725"/>
	
		<rect x="411.5" y="409.9" transform="matrix(0.9877 -0.1564 0.1564 0.9877 -73.4026 86.1386)" class="st0" width="198.2" height="199.1"/>
	
		<rect x="374.7" y="177.6" transform="matrix(0.9877 -0.1564 0.1564 0.9877 -37.5202 77.524)" class="st0" width="198.2" height="199.1"/>
	
		<rect x="641.7" y="373" transform="matrix(0.9877 -0.1564 0.1564 0.9877 -64.77 122.0956)" class="st0" width="203.3" height="199.1"/>
	
		<rect x="178.2" y="446.4" transform="matrix(0.9877 -0.1564 0.1564 0.9877 -81.9598 50.4951)" class="st0" width="203.3" height="199.1"/>
	
		<rect x="449" y="646.9" transform="matrix(0.9877 -0.1564 0.1564 0.9877 -110.0229 94.9304)" class="st0" width="198.2" height="199.1"/>
	
		<rect x="679.2" y="610" transform="matrix(0.9877 -0.1564 0.1564 0.9877 -101.3904 130.8874)" class="st0" width="203.3" height="199.1"/>
	
		<rect x="215.7" y="683.5" transform="matrix(0.9877 -0.1564 0.1564 0.9877 -118.5802 59.2869)" class="st0" width="203.3" height="199.1"/>
	
		<rect x="604.9" y="140.7" transform="matrix(0.9877 -0.1564 0.1564 0.9877 -28.8877 113.4811)" class="st0" width="203.3" height="199.1"/>
	
		<rect x="141.4" y="214.1" transform="matrix(0.9877 -0.1564 0.1564 0.9877 -46.0775 41.8806)" class="st0" width="203.3" height="199.1"/>
	<g>
		<path class="st2" d="M267.6,344.2c-0.8-5.4-3.4-9.2-7.7-11.6c-4.3-2.4-11.4-4.4-21.4-6.1c-10-1.7-18.3-3.6-24.8-5.6
			c-21.2-6.6-33.1-18.3-35.8-35.2c-1.3-8.4-0.1-16.2,3.8-23.5c3.9-7.2,10-13.3,18.4-18.3c8.4-5,18.2-8.4,29.3-10.2
			c10.9-1.7,21-1.3,30.2,1.2c9.3,2.5,16.8,7,22.8,13.5c5.9,6.4,9.6,14.3,11.1,23.6l-36.4,5.8c-1-6.2-3.6-10.7-8-13.5
			c-4.3-2.8-9.7-3.7-16.2-2.7c-6.5,1-11.4,3.3-14.8,6.8c-3.3,3.5-4.6,7.5-3.9,11.9c0.6,3.9,3.3,7.1,7.9,9.6
			c4.7,2.5,12.5,4.6,23.5,6.3c11,1.7,20.2,4,27.5,6.8c17.9,6.9,28.1,18.6,30.8,35.3c2.1,13.3-1.2,24.5-10,33.7
			c-8.8,9.2-21.9,15.1-39.3,17.9c-12.3,1.9-23.7,1.5-34.4-1.4c-10.7-2.8-19.1-7.7-25.3-14.6c-6.2-6.9-10.2-15.4-11.8-25.4l36.6-5.8
			c1.3,8.1,4.3,13.8,9.1,17c4.8,3.2,11.9,4.1,21.4,2.6c6-1,10.6-3,13.7-6.2C267.1,352.9,268.3,349,267.6,344.2z"/>
	</g>
	<g>
		<path class="st2" d="M522.4,189.1l15.8,99.5c1.8,11.3,0.9,21.4-2.5,30.4c-3.5,9-9.3,16.4-17.6,22.1c-8.3,5.7-18.5,9.6-30.7,11.5
			c-18.4,2.9-33.7,0.4-45.9-7.5c-12.1-7.9-19.6-20.2-22.5-36.9L403.1,208l36.7-5.8l16,101c3.1,16.6,12.1,23.7,27,21.3
			c7.6-1.2,13-4.2,16.2-9c3.2-4.8,4.1-11.9,2.6-21.3l-15.7-99.3L522.4,189.1z"/>
	</g>
	<g>
		<path class="st2" d="M466.2,595l-24-151.5l48.5-7.7c13.3-2.1,25.8-1,37.3,3.4c11.6,4.4,21.2,11.6,28.9,21.8
			c7.7,10.1,12.7,22,14.9,35.8l1.1,7c2.2,13.9,1.3,26.8-2.8,38.7c-4.1,11.9-10.9,21.8-20.5,29.7c-9.6,7.9-20.9,12.9-33.9,15
			L466.2,595z M483,466l15.1,95.2l12.6-2c10.4-1.6,17.8-6.6,22.2-15c4.4-8.3,5.4-19.9,3.1-34.6l-1-6.6c-2.3-14.6-6.9-25.2-13.6-31.8
			c-6.8-6.5-15.5-9-26.2-7.3L483,466z"/>
	</g>
	<g>
		<path class="st2" d="M595.7,660.2l15.7,99.1c1.8,11.2,0.9,21.3-2.5,30.3c-3.5,9-9.3,16.3-17.5,22c-8.2,5.7-18.4,9.5-30.5,11.4
			c-18.3,2.9-33.5,0.4-45.6-7.5c-12.1-7.9-19.5-20.2-22.4-36.8L477,679l36.5-5.8l15.9,100.6c3,16.5,12,23.6,26.9,21.2
			c7.5-1.2,12.9-4.2,16.1-8.9c3.2-4.8,4.1-11.8,2.6-21.2l-15.7-98.9L595.7,660.2z"/>
	</g>
	<g>
		<path class="st2" d="M312.7,802.5l-12.3,18.8l6.3,39.9l-36.3,5.8l-24-151.5l36.3-5.8l10.6,66.8l9.6-21.2l24.9-52.7l44.9-7.1
			l-40.3,75.1l64.3,76.4l-43,6.8L312.7,802.5z"/>
	</g>
	<g>
		<path class="st2" d="M813.3,467.8c2.4,14.9,1.7,28.4-2,40.7c-3.7,12.3-10,22.3-19.1,30.1c-9.1,7.8-20.1,12.7-33,14.7
			c-12.9,2-24.8,0.9-35.7-3.5s-20-11.7-27.4-21.9c-7.3-10.2-12.3-22.5-14.8-36.8l-1.4-8.6c-2.4-14.9-1.7-28.5,1.9-40.8
			c3.6-12.3,10-22.3,19.2-30.1c9.2-7.8,20.2-12.7,33.2-14.8c12.8-2,24.7-0.8,35.7,3.8c11,4.5,20.2,12,27.6,22.5
			c7.4,10.4,12.2,23,14.6,37.6L813.3,467.8z M775.3,467.3c-2.4-15.1-6.7-26.2-13-33.3c-6.3-7-14.1-9.8-23.4-8.4
			c-18.3,2.9-25.7,18.2-22.4,46l1.7,11.2c2.4,14.9,6.6,26,12.8,33.2c6.2,7.2,14.1,10.1,23.8,8.6c9.2-1.5,15.7-6.5,19.4-15.2
			c3.7-8.7,4.5-20.4,2.2-35.2L775.3,467.3z"/>
	</g>
</g>
</svg>
