<?xml version="1.0" encoding="utf-8"?>
<!-- Generator: Adobe Illustrator 21.1.0, SVG Export Plug-In . SVG Version: 6.00 Build 0)  -->
<!-- Artist: @KevDoy for Trenta.io -->
<svg version="1.1" xmlns="http://www.w3.org/2000/svg" xmlns:xlink="http://www.w3.org/1999/xlink" x="0px" y="0px"
	 viewBox="0 0 1024 1024" style="enable-background:new 0 0 1024 1024;" xml:space="preserve">
<style type="text/css">
	.st0{fill:url(#SVGID_1_);}
	.st1{fill:url(#SVGID_2_);}
	.st2{fill:#050505;}
	.st3{fill:#D8B822;}
	.st4{opacity:0.58;}
	.st5{fill:#4A4A4A;}
</style>
<g id="Layer_2">
	<linearGradient id="SVGID_1_" gradientUnits="userSpaceOnUse" x1="513.1985" y1="92" x2="513.1985" y2="932">
		<stop  offset="0" style="stop-color:#DBEDEF"/>
		<stop  offset="0.2604" style="stop-color:#BFCACB"/>
		<stop  offset="0.5805" style="stop-color:#A1A6A6"/>
		<stop  offset="0.8383" style="stop-color:#8F8F8E"/>
		<stop  offset="1" style="stop-color:#888786"/>
	</linearGradient>
	<path class="st0" d="M953.2,932h-880c-22.1,0-40-17.9-40-40V132c0-22.1,17.9-40,40-40h880c22.1,0,40,17.9,40,40v760
		C993.2,914.1,975.3,932,953.2,932z"/>
	<linearGradient id="SVGID_2_" gradientUnits="userSpaceOnUse" x1="845.8798" y1="174.9982" x2="146.1739" y2="883.7911">
		<stop  offset="0" style="stop-color:#1E1F1F"/>
		<stop  offset="0.8984" style="stop-color:#040404"/>
	</linearGradient>
	<path class="st1" d="M945.6,922H80.8c-19.9,0-36.1-16.2-36.1-36.1V138.1c0-19.9,16.2-36.1,36.1-36.1h864.9
		c19.9,0,36.1,16.2,36.1,36.1v747.7C981.7,905.8,965.6,922,945.6,922z"/>
</g>
<g id="Layer_4">
	<rect x="108.2" y="163" class="st2" width="810.1" height="698.1"/>
</g>
<g id="Layer_5">
	<rect x="281.3" y="217.5" class="st3" width="30" height="30"/>
	<rect x="320.7" y="217.5" class="st3" width="30" height="30"/>
	<rect x="281.3" y="329.3" class="st3" width="30" height="30"/>
	<rect x="320.7" y="329.3" class="st3" width="30" height="30"/>
	<rect x="281.3" y="441.2" class="st3" width="30" height="30"/>
	<rect x="320.7" y="441.2" class="st3" width="30" height="30"/>
	<rect x="320.7" y="553.1" class="st3" width="30" height="30"/>
	<rect x="281.3" y="590.4" class="st3" width="30" height="30"/>
	<rect x="281.3" y="627.6" class="st3" width="30" height="30"/>
	<rect x="281.3" y="664.9" class="st3" width="30" height="30"/>
	<rect x="281.3" y="702.2" class="st3" width="30" height="30"/>
	<rect x="281.3" y="739.5" class="st3" width="30" height="30"/>
	<rect x="360.2" y="217.5" class="st3" width="30" height="30"/>
	<rect x="360.2" y="329.3" class="st3" width="30" height="30"/>
	<rect x="360.2" y="441.2" class="st3" width="30" height="30"/>
	<rect x="360.2" y="553.1" class="st3" width="30" height="30"/>
	<rect x="399.6" y="553.1" class="st3" width="30" height="30"/>
	<rect x="478.5" y="217.5" class="st3" width="30" height="30"/>
	<rect x="439.1" y="254.8" class="st3" width="30" height="30"/>
	<rect x="439.1" y="292.1" class="st3" width="30" height="30"/>
	<rect x="478.5" y="329.3" class="st3" width="30" height="30"/>
	<rect x="439.1" y="403.9" class="st3" width="30" height="30"/>
	<rect x="478.5" y="441.2" class="st3" width="30" height="30"/>
	<rect x="439.1" y="590.4" class="st3" width="30" height="30"/>
	<rect x="439.1" y="627.6" class="st3" width="30" height="30"/>
	<rect x="439.1" y="664.9" class="st3" width="30" height="30"/>
	<rect x="439.1" y="702.2" class="st3" width="30" height="30"/>
	<rect x="439.1" y="739.5" class="st3" width="30" height="30"/>
	<rect x="518" y="217.5" class="st3" width="30" height="30"/>
	<rect x="557.4" y="217.5" class="st3" width="30" height="30"/>
	<rect x="518" y="329.3" class="st3" width="30" height="30"/>
	<rect x="557.4" y="329.3" class="st3" width="30" height="30"/>
	<rect x="518" y="441.2" class="st3" width="30" height="30"/>
	<rect x="557.4" y="441.2" class="st3" width="30" height="30"/>
	<rect x="518" y="553.1" class="st3" width="30" height="30"/>
	<rect x="557.4" y="553.1" class="st3" width="30" height="30"/>
	<rect x="518" y="590.4" class="st3" width="30" height="30"/>
	<rect x="518" y="627.6" class="st3" width="30" height="30"/>
	<rect x="518" y="664.9" class="st3" width="30" height="30"/>
	<rect x="557.4" y="664.9" class="st3" width="30" height="30"/>
	<rect x="518" y="702.2" class="st3" width="30" height="30"/>
	<rect x="518" y="739.5" class="st3" width="30" height="30"/>
	<rect x="596.9" y="254.8" class="st3" width="30" height="30"/>
	<rect x="596.9" y="366.6" class="st3" width="30" height="30"/>
	<rect x="596.9" y="403.9" class="st3" width="30" height="30"/>
	<rect x="596.9" y="553.1" class="st3" width="30" height="30"/>
	<rect x="636.3" y="553.1" class="st3" width="30" height="30"/>
	<rect x="596.9" y="664.9" class="st3" width="30" height="30"/>
	<rect x="636.3" y="664.9" class="st3" width="30" height="30"/>
	<rect x="715.2" y="217.5" class="st3" width="30" height="30"/>
	<rect x="675.8" y="254.8" class="st3" width="30" height="30"/>
	<rect x="675.8" y="292.1" class="st3" width="30" height="30"/>
	<rect x="715.2" y="329.3" class="st3" width="30" height="30"/>
	<rect x="675.8" y="403.9" class="st3" width="30" height="30"/>
	<rect x="715.2" y="441.2" class="st3" width="30" height="30"/>
	<rect x="675.8" y="590.4" class="st3" width="30" height="30"/>
	<rect x="675.8" y="627.6" class="st3" width="30" height="30"/>
	<rect x="675.8" y="702.2" class="st3" width="30" height="30"/>
	<rect x="675.8" y="739.5" class="st3" width="30" height="30"/>
	<rect x="754.7" y="217.5" class="st3" width="30" height="30"/>
	<rect x="794.1" y="217.5" class="st3" width="30" height="30"/>
	<rect x="754.7" y="329.3" class="st3" width="30" height="30"/>
	<rect x="794.1" y="329.3" class="st3" width="30" height="30"/>
	<rect x="754.7" y="441.2" class="st3" width="30" height="30"/>
	<rect x="794.1" y="441.2" class="st3" width="30" height="30"/>
	<rect x="794.1" y="553.1" class="st3" width="30" height="30"/>
	<rect x="794.1" y="590.4" class="st3" width="30" height="30"/>
	<rect x="794.1" y="627.6" class="st3" width="30" height="30"/>
	<rect x="794.1" y="664.9" class="st3" width="30" height="30"/>
	<rect x="794.1" y="702.2" class="st3" width="30" height="30"/>
	<rect x="794.1" y="739.5" class="st3" width="30" height="30"/>
	<rect x="833.6" y="254.8" class="st3" width="30" height="30"/>
	<rect x="833.6" y="366.6" class="st3" width="30" height="30"/>
	<rect x="833.6" y="403.9" class="st3" width="30" height="30"/>
	<rect x="241.8" y="217.5" class="st3" width="30" height="30"/>
	<rect x="241.8" y="254.8" class="st3" width="30" height="30"/>
	<rect x="241.8" y="292.1" class="st3" width="30" height="30"/>
	<rect x="241.8" y="329.3" class="st3" width="30" height="30"/>
	<rect x="241.8" y="366.6" class="st3" width="30" height="30"/>
	<rect x="241.8" y="403.9" class="st3" width="30" height="30"/>
	<rect x="241.8" y="441.2" class="st3" width="30" height="30"/>
	<rect x="202.4" y="590.4" class="st3" width="30" height="30"/>
	<rect x="202.4" y="627.6" class="st3" width="30" height="30"/>
	<rect x="202.4" y="702.2" class="st3" width="30" height="30"/>
	<rect x="202.4" y="739.5" class="st3" width="30" height="30"/>
	<rect x="123.5" y="217.5" class="st3" width="30" height="30"/>
	<rect x="162.9" y="254.8" class="st3" width="30" height="30"/>
	<rect x="162.9" y="403.9" class="st3" width="30" height="30"/>
	<rect x="123.5" y="441.2" class="st3" width="30" height="30"/>
	<rect x="123.5" y="553.1" class="st3" width="30" height="30"/>
	<rect x="162.9" y="553.1" class="st3" width="30" height="30"/>
	<rect x="123.5" y="664.9" class="st3" width="30" height="30"/>
	<rect x="162.9" y="664.9" class="st3" width="30" height="30"/>
	<rect x="320.7" y="776.7" class="st3" width="30" height="30"/>
	<rect x="360.2" y="776.7" class="st3" width="30" height="30"/>
	<rect x="399.6" y="776.7" class="st3" width="30" height="30"/>
	<rect x="518" y="776.7" class="st3" width="30" height="30"/>
	<rect x="675.8" y="776.7" class="st3" width="30" height="30"/>
	<rect x="794.1" y="776.7" class="st3" width="30" height="30"/>
	<rect x="833.6" y="776.7" class="st3" width="30" height="30"/>
	<rect x="873" y="776.7" class="st3" width="30" height="30"/>
	<rect x="202.4" y="776.7" class="st3" width="30" height="30"/>
	<g id="Layer_3" class="st4">
		<rect x="281.3" y="254.8" class="st5" width="30" height="30"/>
		<rect x="320.7" y="254.8" class="st5" width="30" height="30"/>
		<rect x="281.3" y="292.1" class="st5" width="30" height="30"/>
		<rect x="320.7" y="292.1" class="st5" width="30" height="30"/>
		<rect x="281.3" y="366.6" class="st5" width="30" height="30"/>
		<rect x="320.7" y="366.6" class="st5" width="30" height="30"/>
		<rect x="281.3" y="403.9" class="st5" width="30" height="30"/>
		<rect x="320.7" y="403.9" class="st5" width="30" height="30"/>
		<rect x="281.3" y="478.5" class="st5" width="30" height="30"/>
		<rect x="320.7" y="478.5" class="st5" width="30" height="30"/>
		<rect x="281.3" y="515.8" class="st5" width="30" height="30"/>
		<rect x="320.7" y="515.8" class="st5" width="30" height="30"/>
		<rect x="281.3" y="553.1" class="st5" width="30" height="30"/>
		<rect x="320.7" y="590.4" class="st5" width="30" height="30"/>
		<rect x="320.7" y="627.6" class="st5" width="30" height="30"/>
		<rect x="320.7" y="664.9" class="st5" width="30" height="30"/>
		<rect x="320.7" y="702.2" class="st5" width="30" height="30"/>
		<rect x="320.7" y="739.5" class="st5" width="30" height="30"/>
		<rect x="399.6" y="217.5" class="st5" width="30" height="30"/>
		<rect x="360.2" y="254.8" class="st5" width="30" height="30"/>
		<rect x="399.6" y="254.8" class="st5" width="30" height="30"/>
		<rect x="360.2" y="292.1" class="st5" width="30" height="30"/>
		<rect x="399.6" y="292.1" class="st5" width="30" height="30"/>
		<rect x="399.6" y="329.3" class="st5" width="30" height="30"/>
		<rect x="360.2" y="366.6" class="st5" width="30" height="30"/>
		<rect x="399.6" y="366.6" class="st5" width="30" height="30"/>
		<rect x="360.2" y="403.9" class="st5" width="30" height="30"/>
		<rect x="399.6" y="403.9" class="st5" width="30" height="30"/>
		<rect x="399.6" y="441.2" class="st5" width="30" height="30"/>
		<rect x="360.2" y="478.5" class="st5" width="30" height="30"/>
		<rect x="399.6" y="478.5" class="st5" width="30" height="30"/>
		<rect x="360.2" y="515.8" class="st5" width="30" height="30"/>
		<rect x="399.6" y="515.8" class="st5" width="30" height="30"/>
		<rect x="360.2" y="590.4" class="st5" width="30" height="30"/>
		<rect x="399.6" y="590.4" class="st5" width="30" height="30"/>
		<rect x="360.2" y="627.6" class="st5" width="30" height="30"/>
		<rect x="399.6" y="627.6" class="st5" width="30" height="30"/>
		<rect x="360.2" y="664.9" class="st5" width="30" height="30"/>
		<rect x="399.6" y="664.9" class="st5" width="30" height="30"/>
		<rect x="360.2" y="702.2" class="st5" width="30" height="30"/>
		<rect x="399.6" y="702.2" class="st5" width="30" height="30"/>
		<rect x="360.2" y="739.5" class="st5" width="30" height="30"/>
		<rect x="399.6" y="739.5" class="st5" width="30" height="30"/>
		<rect x="439.1" y="217.5" class="st5" width="30" height="30"/>
		<rect x="478.5" y="254.8" class="st5" width="30" height="30"/>
		<rect x="478.5" y="292.1" class="st5" width="30" height="30"/>
		<rect x="439.1" y="329.3" class="st5" width="30" height="30"/>
		<rect x="439.1" y="366.6" class="st5" width="30" height="30"/>
		<rect x="478.5" y="366.6" class="st5" width="30" height="30"/>
		<rect x="478.5" y="403.9" class="st5" width="30" height="30"/>
		<rect x="439.1" y="441.2" class="st5" width="30" height="30"/>
		<rect x="439.1" y="478.5" class="st5" width="30" height="30"/>
		<rect x="478.5" y="478.5" class="st5" width="30" height="30"/>
		<rect x="439.1" y="515.8" class="st5" width="30" height="30"/>
		<rect x="478.5" y="515.8" class="st5" width="30" height="30"/>
		<rect x="439.1" y="553.1" class="st5" width="30" height="30"/>
		<rect x="478.5" y="553.1" class="st5" width="30" height="30"/>
		<rect x="478.5" y="590.4" class="st5" width="30" height="30"/>
		<rect x="478.5" y="627.6" class="st5" width="30" height="30"/>
		<rect x="478.5" y="664.9" class="st5" width="30" height="30"/>
		<rect x="478.5" y="702.2" class="st5" width="30" height="30"/>
		<rect x="478.5" y="739.5" class="st5" width="30" height="30"/>
		<rect x="518" y="254.8" class="st5" width="30" height="30"/>
		<rect x="557.4" y="254.8" class="st5" width="30" height="30"/>
		<rect x="518" y="292.1" class="st5" width="30" height="30"/>
		<rect x="557.4" y="292.1" class="st5" width="30" height="30"/>
		<rect x="518" y="366.6" class="st5" width="30" height="30"/>
		<rect x="557.4" y="366.6" class="st5" width="30" height="30"/>
		<rect x="518" y="403.9" class="st5" width="30" height="30"/>
		<rect x="557.4" y="403.9" class="st5" width="30" height="30"/>
		<rect x="518" y="478.5" class="st5" width="30" height="30"/>
		<rect x="557.4" y="478.5" class="st5" width="30" height="30"/>
		<rect x="518" y="515.8" class="st5" width="30" height="30"/>
		<rect x="557.4" y="515.8" class="st5" width="30" height="30"/>
		<rect x="557.4" y="590.4" class="st5" width="30" height="30"/>
		<rect x="557.4" y="627.6" class="st5" width="30" height="30"/>
		<rect x="557.4" y="702.2" class="st5" width="30" height="30"/>
		<rect x="557.4" y="739.5" class="st5" width="30" height="30"/>
		<rect x="596.9" y="217.5" class="st5" width="30" height="30"/>
		<rect x="636.3" y="217.5" class="st5" width="30" height="30"/>
		<rect x="636.3" y="254.8" class="st5" width="30" height="30"/>
		<rect x="596.9" y="292.1" class="st5" width="30" height="30"/>
		<rect x="636.3" y="292.1" class="st5" width="30" height="30"/>
		<rect x="596.9" y="329.3" class="st5" width="30" height="30"/>
		<rect x="636.3" y="329.3" class="st5" width="30" height="30"/>
		<rect x="636.3" y="366.6" class="st5" width="30" height="30"/>
		<rect x="636.3" y="403.9" class="st5" width="30" height="30"/>
		<rect x="596.9" y="441.2" class="st5" width="30" height="30"/>
		<rect x="636.3" y="441.2" class="st5" width="30" height="30"/>
		<rect x="596.9" y="478.5" class="st5" width="30" height="30"/>
		<rect x="636.3" y="478.5" class="st5" width="30" height="30"/>
		<rect x="596.9" y="515.8" class="st5" width="30" height="30"/>
		<rect x="636.3" y="515.8" class="st5" width="30" height="30"/>
		<rect x="596.9" y="590.4" class="st5" width="30" height="30"/>
		<rect x="636.3" y="590.4" class="st5" width="30" height="30"/>
		<rect x="596.9" y="627.6" class="st5" width="30" height="30"/>
		<rect x="636.3" y="627.6" class="st5" width="30" height="30"/>
		<rect x="596.9" y="702.2" class="st5" width="30" height="30"/>
		<rect x="636.3" y="702.2" class="st5" width="30" height="30"/>
		<rect x="596.9" y="739.5" class="st5" width="30" height="30"/>
		<rect x="636.3" y="739.5" class="st5" width="30" height="30"/>
		<rect x="675.8" y="217.5" class="st5" width="30" height="30"/>
		<rect x="715.2" y="254.8" class="st5" width="30" height="30"/>
		<rect x="715.2" y="292.1" class="st5" width="30" height="30"/>
		<rect x="675.8" y="329.3" class="st5" width="30" height="30"/>
		<rect x="675.8" y="366.6" class="st5" width="30" height="30"/>
		<rect x="715.2" y="366.6" class="st5" width="30" height="30"/>
		<rect x="715.2" y="403.9" class="st5" width="30" height="30"/>
		<rect x="675.8" y="441.2" class="st5" width="30" height="30"/>
		<rect x="675.8" y="478.5" class="st5" width="30" height="30"/>
		<rect x="715.2" y="478.5" class="st5" width="30" height="30"/>
		<rect x="675.8" y="515.8" class="st5" width="30" height="30"/>
		<rect x="715.2" y="515.8" class="st5" width="30" height="30"/>
		<rect x="675.8" y="553.1" class="st5" width="30" height="30"/>
		<rect x="715.2" y="553.1" class="st5" width="30" height="30"/>
		<rect x="715.2" y="590.4" class="st5" width="30" height="30"/>
		<rect x="715.2" y="627.6" class="st5" width="30" height="30"/>
		<rect x="675.8" y="664.9" class="st5" width="30" height="30"/>
		<rect x="715.2" y="664.9" class="st5" width="30" height="30"/>
		<rect x="715.2" y="702.2" class="st5" width="30" height="30"/>
		<rect x="715.2" y="739.5" class="st5" width="30" height="30"/>
		<rect x="754.7" y="254.8" class="st5" width="30" height="30"/>
		<rect x="794.1" y="254.8" class="st5" width="30" height="30"/>
		<rect x="754.7" y="292.1" class="st5" width="30" height="30"/>
		<rect x="794.1" y="292.1" class="st5" width="30" height="30"/>
		<rect x="754.7" y="366.6" class="st5" width="30" height="30"/>
		<rect x="794.1" y="366.6" class="st5" width="30" height="30"/>
		<rect x="754.7" y="403.9" class="st5" width="30" height="30"/>
		<rect x="794.1" y="403.9" class="st5" width="30" height="30"/>
		<rect x="754.7" y="478.5" class="st5" width="30" height="30"/>
		<rect x="794.1" y="478.5" class="st5" width="30" height="30"/>
		<rect x="754.7" y="515.8" class="st5" width="30" height="30"/>
		<rect x="794.1" y="515.8" class="st5" width="30" height="30"/>
		<rect x="754.7" y="553.1" class="st5" width="30" height="30"/>
		<rect x="754.7" y="590.4" class="st5" width="30" height="30"/>
		<rect x="754.7" y="627.6" class="st5" width="30" height="30"/>
		<rect x="754.7" y="664.9" class="st5" width="30" height="30"/>
		<rect x="754.7" y="702.2" class="st5" width="30" height="30"/>
		<rect x="754.7" y="739.5" class="st5" width="30" height="30"/>
		<rect x="833.6" y="217.5" class="st5" width="30" height="30"/>
		<rect x="873" y="217.5" class="st5" width="30" height="30"/>
		<rect x="873" y="254.8" class="st5" width="30" height="30"/>
		<rect x="833.6" y="292.1" class="st5" width="30" height="30"/>
		<rect x="873" y="292.1" class="st5" width="30" height="30"/>
		<rect x="833.6" y="329.3" class="st5" width="30" height="30"/>
		<rect x="873" y="329.3" class="st5" width="30" height="30"/>
		<rect x="873" y="366.6" class="st5" width="30" height="30"/>
		<rect x="873" y="403.9" class="st5" width="30" height="30"/>
		<rect x="833.6" y="441.2" class="st5" width="30" height="30"/>
		<rect x="873" y="441.2" class="st5" width="30" height="30"/>
		<rect x="833.6" y="478.5" class="st5" width="30" height="30"/>
		<rect x="873" y="478.5" class="st5" width="30" height="30"/>
		<rect x="833.6" y="515.8" class="st5" width="30" height="30"/>
		<rect x="873" y="515.8" class="st5" width="30" height="30"/>
		<rect x="833.6" y="553.1" class="st5" width="30" height="30"/>
		<rect x="873" y="553.1" class="st5" width="30" height="30"/>
		<rect x="833.6" y="590.4" class="st5" width="30" height="30"/>
		<rect x="873" y="590.4" class="st5" width="30" height="30"/>
		<rect x="833.6" y="627.6" class="st5" width="30" height="30"/>
		<rect x="873" y="627.6" class="st5" width="30" height="30"/>
		<rect x="833.6" y="664.9" class="st5" width="30" height="30"/>
		<rect x="873" y="664.9" class="st5" width="30" height="30"/>
		<rect x="833.6" y="702.2" class="st5" width="30" height="30"/>
		<rect x="873" y="702.2" class="st5" width="30" height="30"/>
		<rect x="833.6" y="739.5" class="st5" width="30" height="30"/>
		<rect x="873" y="739.5" class="st5" width="30" height="30"/>
		<rect x="202.4" y="217.5" class="st5" width="30" height="30"/>
		<rect x="202.4" y="254.8" class="st5" width="30" height="30"/>
		<rect x="202.4" y="292.1" class="st5" width="30" height="30"/>
		<rect x="202.4" y="329.3" class="st5" width="30" height="30"/>
		<rect x="202.4" y="366.6" class="st5" width="30" height="30"/>
		<rect x="202.4" y="403.9" class="st5" width="30" height="30"/>
		<rect x="202.4" y="441.2" class="st5" width="30" height="30"/>
		<rect x="202.4" y="478.5" class="st5" width="30" height="30"/>
		<rect x="241.8" y="478.5" class="st5" width="30" height="30"/>
		<rect x="202.4" y="515.8" class="st5" width="30" height="30"/>
		<rect x="241.8" y="515.8" class="st5" width="30" height="30"/>
		<rect x="202.4" y="553.1" class="st5" width="30" height="30"/>
		<rect x="241.8" y="553.1" class="st5" width="30" height="30"/>
		<rect x="241.8" y="590.4" class="st5" width="30" height="30"/>
		<rect x="241.8" y="627.6" class="st5" width="30" height="30"/>
		<rect x="202.4" y="664.9" class="st5" width="30" height="30"/>
		<rect x="241.8" y="664.9" class="st5" width="30" height="30"/>
		<rect x="241.8" y="702.2" class="st5" width="30" height="30"/>
		<rect x="241.8" y="739.5" class="st5" width="30" height="30"/>
		<rect x="162.9" y="217.5" class="st5" width="30" height="30"/>
		<rect x="123.5" y="254.8" class="st5" width="30" height="30"/>
		<rect x="123.5" y="292.1" class="st5" width="30" height="30"/>
		<rect x="162.9" y="292.1" class="st5" width="30" height="30"/>
		<rect x="123.5" y="329.3" class="st5" width="30" height="30"/>
		<rect x="162.9" y="329.3" class="st5" width="30" height="30"/>
		<rect x="123.5" y="366.6" class="st5" width="30" height="30"/>
		<rect x="162.9" y="366.6" class="st5" width="30" height="30"/>
		<rect x="123.5" y="403.9" class="st5" width="30" height="30"/>
		<rect x="162.9" y="441.2" class="st5" width="30" height="30"/>
		<rect x="123.5" y="478.5" class="st5" width="30" height="30"/>
		<rect x="162.9" y="478.5" class="st5" width="30" height="30"/>
		<rect x="281.3" y="180.2" class="st5" width="30" height="30"/>
		<rect x="320.7" y="180.2" class="st5" width="30" height="30"/>
		<rect x="360.2" y="180.2" class="st5" width="30" height="30"/>
		<rect x="399.6" y="180.2" class="st5" width="30" height="30"/>
		<rect x="439.1" y="180.2" class="st5" width="30" height="30"/>
		<rect x="478.5" y="180.2" class="st5" width="30" height="30"/>
		<rect x="518" y="180.2" class="st5" width="30" height="30"/>
		<rect x="557.4" y="180.2" class="st5" width="30" height="30"/>
		<rect x="596.9" y="180.2" class="st5" width="30" height="30"/>
		<rect x="636.3" y="180.2" class="st5" width="30" height="30"/>
		<rect x="675.8" y="180.2" class="st5" width="30" height="30"/>
		<rect x="715.2" y="180.2" class="st5" width="30" height="30"/>
		<rect x="754.7" y="180.2" class="st5" width="30" height="30"/>
		<rect x="794.1" y="180.2" class="st5" width="30" height="30"/>
		<rect x="833.6" y="180.2" class="st5" width="30" height="30"/>
		<rect x="873" y="180.2" class="st5" width="30" height="30"/>
		<rect x="202.4" y="180.2" class="st5" width="30" height="30"/>
		<rect x="241.8" y="180.2" class="st5" width="30" height="30"/>
		<rect x="123.5" y="180.2" class="st5" width="30" height="30"/>
		<rect x="162.9" y="180.2" class="st5" width="30" height="30"/>
		<rect x="281.3" y="814" class="st5" width="30" height="30"/>
		<rect x="320.7" y="814" class="st5" width="30" height="30"/>
		<rect x="360.2" y="814" class="st5" width="30" height="30"/>
		<rect x="399.6" y="814" class="st5" width="30" height="30"/>
		<rect x="439.1" y="814" class="st5" width="30" height="30"/>
		<rect x="478.5" y="814" class="st5" width="30" height="30"/>
		<rect x="518" y="814" class="st5" width="30" height="30"/>
		<rect x="557.4" y="814" class="st5" width="30" height="30"/>
		<rect x="596.9" y="814" class="st5" width="30" height="30"/>
		<rect x="636.3" y="814" class="st5" width="30" height="30"/>
		<rect x="675.8" y="814" class="st5" width="30" height="30"/>
		<rect x="715.2" y="814" class="st5" width="30" height="30"/>
		<rect x="754.7" y="814" class="st5" width="30" height="30"/>
		<rect x="794.1" y="814" class="st5" width="30" height="30"/>
		<rect x="833.6" y="814" class="st5" width="30" height="30"/>
		<rect x="873" y="814" class="st5" width="30" height="30"/>
		<rect x="202.4" y="814" class="st5" width="30" height="30"/>
		<rect x="241.8" y="814" class="st5" width="30" height="30"/>
		<rect x="123.5" y="814" class="st5" width="30" height="30"/>
		<rect x="162.9" y="814" class="st5" width="30" height="30"/>
		<rect x="123.5" y="515.8" class="st5" width="30" height="30"/>
		<rect x="162.9" y="515.8" class="st5" width="30" height="30"/>
		<rect x="123.5" y="590.4" class="st5" width="30" height="30"/>
		<rect x="162.9" y="590.4" class="st5" width="30" height="30"/>
		<rect x="123.5" y="627.6" class="st5" width="30" height="30"/>
		<rect x="162.9" y="627.6" class="st5" width="30" height="30"/>
		<rect x="123.5" y="702.2" class="st5" width="30" height="30"/>
		<rect x="162.9" y="702.2" class="st5" width="30" height="30"/>
		<rect x="123.5" y="739.5" class="st5" width="30" height="30"/>
		<rect x="162.9" y="739.5" class="st5" width="30" height="30"/>
		<rect x="281.3" y="776.7" class="st5" width="30" height="30"/>
		<rect x="439.1" y="776.7" class="st5" width="30" height="30"/>
		<rect x="478.5" y="776.7" class="st5" width="30" height="30"/>
		<rect x="557.4" y="776.7" class="st5" width="30" height="30"/>
		<rect x="596.9" y="776.7" class="st5" width="30" height="30"/>
		<rect x="636.3" y="776.7" class="st5" width="30" height="30"/>
		<rect x="715.2" y="776.7" class="st5" width="30" height="30"/>
		<rect x="754.7" y="776.7" class="st5" width="30" height="30"/>
		<rect x="241.8" y="776.7" class="st5" width="30" height="30"/>
		<rect x="123.5" y="776.7" class="st5" width="30" height="30"/>
		<rect x="162.9" y="776.7" class="st5" width="30" height="30"/>
	</g>
</g>
</svg>
