<?xml version="1.0" encoding="utf-8"?>
<!-- Generator: Adobe Illustrator 21.1.0, SVG Export Plug-In . SVG Version: 6.00 Build 0)  -->
<!-- Artist: @KevDoy for Trenta.io -->
<!-- Logo used: PlayOnLinux -->

<svg version="1.1" id="Layer_1" xmlns="http://www.w3.org/2000/svg" xmlns:xlink="http://www.w3.org/1999/xlink" x="0px" y="0px"
	 viewBox="0 0 1024 1024" style="enable-background:new 0 0 1024 1024;" xml:space="preserve">
<metadata><?xpacket begin="﻿" id="W5M0MpCehiHzreSzNTczkc9d"?>
<x:xmpmeta xmlns:x="adobe:ns:meta/" x:xmptk="Adobe XMP Core 5.6-c143 79.161356, 2017/09/07-01:11:22        ">
   <rdf:RDF xmlns:rdf="http://www.w3.org/1999/02/22-rdf-syntax-ns#">
      <rdf:Description rdf:about=""/>
   </rdf:RDF>
</x:xmpmeta>
                                                                                                    
                                                                                                    
                                                                                                    
                                                                                                    
                                                                                                    
                                                                                                    
                                                                                                    
                                                                                                    
                                                                                                    
                                                                                                    
                                                                                                    
                                                                                                    
                                                                                                    
                                                                                                    
                                                                                                    
                                                                                                    
                                                                                                    
                                                                                                    
                                                                                                    
                                                                                                    
                           
<?xpacket end="w"?></metadata>
<style type="text/css">
	.st0{fill:url(#SVGID_1_);}
	.st1{fill:url(#SVGID_2_);}
	.st2{fill:url(#SVGID_3_);}
	.st3{fill:url(#SVGID_4_);}
	.st4{fill:url(#SVGID_5_);}
</style>
<g id="Circle">
	
		<radialGradient id="SVGID_1_" cx="534.9938" cy="1127.1427" r="954.2032" gradientTransform="matrix(1 0 0 -1 0 1024)" gradientUnits="userSpaceOnUse">
		<stop  offset="0" style="stop-color:#F6F6F6"/>
		<stop  offset="1" style="stop-color:#E5E5E5"/>
	</radialGradient>
	<circle class="st0" cx="512" cy="512" r="447"/>
</g>
<g id="Logo">
	<g>
		<g>
			
				<radialGradient id="SVGID_2_" cx="536.8676" cy="501.7502" r="219.5275" gradientTransform="matrix(1 0 0 -1 0 1024)" gradientUnits="userSpaceOnUse">
				<stop  offset="0" style="stop-color:#FEFD02"/>
				<stop  offset="1" style="stop-color:#FBD703"/>
			</radialGradient>
			<path class="st1" d="M671.6,460.5c13.8-1.9,29-0.6,40.3,8.3c9.3,6.9,16.5,16.4,21.3,26.8c4.1,9,4,19.1,4.2,28.8
				c0.2,7.9-3.2,15.2-6.8,22c-5.7,10.4-12.7,20-19.5,29.7c-4.2,6.6-8.1,13.6-9.9,21.3c-3.5,16.4-0.2,33.8-6.1,49.7
				c-4.5,12.7-15.7,21.8-27.9,27c-14.7,6.4-32,6.1-46.6-0.7c-14.6-6.9-27.5-18.1-34.9-32.7c-20.9-38.7-36.8-80.5-63.5-115.8
				c-3.2-4.5-7.1-8.3-10.1-13c25.5-3.2,51.8-5.7,75.3-16.8C614.8,482.4,641.1,465,671.6,460.5z"/>
			
				<radialGradient id="SVGID_3_" cx="484.5407" cy="525.26" r="186.1103" gradientTransform="matrix(1 0 0 -1 0 1024)" gradientUnits="userSpaceOnUse">
				<stop  offset="0" style="stop-color:#00FD15"/>
				<stop  offset="1" style="stop-color:#00BD0F"/>
			</radialGradient>
			<path class="st2" d="M353,564.7c-13.8,2-29,0.8-40.4-8c-9.3-6.8-16.6-16.3-21.5-26.7c-4.2-9-4.1-19.1-4.4-28.7
				c-0.2-7.9,3.1-15.2,6.6-22.1c5.6-10.4,12.5-20.1,19.3-29.9c4.2-6.6,8-13.7,9.8-21.4c3.4-16.4-0.1-33.8,5.7-49.8
				c4.4-12.8,15.6-21.9,27.7-27.2c14.6-6.5,32-6.3,46.6,0.3c14.7,6.8,27.7,17.9,35.2,32.4c21.1,38.6,37.4,80.2,64.3,115.4
				c3.2,4.4,7.2,8.3,10.2,12.9c-25.5,3.4-51.7,6-75.2,17.4C409.5,542.4,383.5,559.9,353,564.7z"/>
			
				<radialGradient id="SVGID_4_" cx="577.7925" cy="624.3171" r="200.0428" fx="530.4101" fy="703.8749" gradientTransform="matrix(1 0 0 -1 0 1024)" gradientUnits="userSpaceOnUse">
				<stop  offset="0" style="stop-color:#FF9601"/>
				<stop  offset="0.1644" style="stop-color:#FF8701"/>
				<stop  offset="0.7219" style="stop-color:#FF5700"/>
				<stop  offset="1" style="stop-color:#FF4500"/>
			</radialGradient>
			<path class="st3" d="M469.7,349.9c-1.1-13.9,1-29,10.6-39.8c7.4-8.9,17.3-15.6,28-19.8c9.2-3.6,19.3-2.9,28.9-2.5
				c7.9,0.3,15,4.1,21.6,8c10.1,6.3,19.3,13.8,28.6,21.2c6.4,4.6,13.1,8.9,20.7,11.1c16.2,4.4,33.7,2.1,49.3,8.9
				c12.5,5.2,20.9,17,25.3,29.3c5.6,15,4.3,32.3-3.3,46.5c-7.7,14.2-19.6,26.5-34.6,33c-39.9,18.6-82.4,32.2-119.2,56.8
				c-4.6,2.9-8.7,6.7-13.5,9.3c-1.7-25.6-2.7-52-12.5-76.1C488.3,407.8,472.5,380.6,469.7,349.9z"/>
			
				<radialGradient id="SVGID_5_" cx="499.8669" cy="480.3029" r="200.6305" gradientTransform="matrix(1 0 0 -1 0 1024)" gradientUnits="userSpaceOnUse">
				<stop  offset="0" style="stop-color:#09D4FB"/>
				<stop  offset="1" style="stop-color:#0490D0"/>
			</radialGradient>
			<path class="st4" d="M549.1,675.5c0.6,14-2,28.9-11.9,39.4c-7.7,8.6-17.8,15-28.6,18.8c-9.3,3.3-19.4,2.3-29,1.6
				c-7.9-0.6-14.9-4.6-21.3-8.7c-9.9-6.6-18.8-14.4-27.8-22.1c-6.2-4.8-12.8-9.3-20.3-11.8c-16-4.9-33.6-3.2-49-10.5
				c-12.3-5.6-20.3-17.6-24.4-30.2c-5.1-15.2-3.2-32.4,4.8-46.3c8.2-13.9,20.5-25.8,35.7-31.9c40.5-17.3,83.4-29.4,121.1-52.9
				c4.7-2.8,8.9-6.4,13.8-8.9c0.9,25.7,1,52.1,10,76.5C532.4,617,547.3,644.7,549.1,675.5z"/>
		</g>
	</g>
</g>
</svg>
