<?xml version="1.0" encoding="UTF-8" standalone="no"?>
<!-- Generator: Adobe Illustrator 23.0.2, SVG Export Plug-In . SVG Version: 6.00 Build 0)  -->

<svg
   xmlns:dc="http://purl.org/dc/elements/1.1/"
   xmlns:cc="http://creativecommons.org/ns#"
   xmlns:rdf="http://www.w3.org/1999/02/22-rdf-syntax-ns#"
   xmlns:svg="http://www.w3.org/2000/svg"
   xmlns="http://www.w3.org/2000/svg"
   xmlns:xlink="http://www.w3.org/1999/xlink"
   xmlns:sodipodi="http://sodipodi.sourceforge.net/DTD/sodipodi-0.dtd"
   xmlns:inkscape="http://www.inkscape.org/namespaces/inkscape"
   version="1.1"
   id="Layer_1"
   x="0px"
   y="0px"
   viewBox="0 0 1024 1024"
   style="enable-background:new 0 0 1024 1024;"
   xml:space="preserve"
   sodipodi:docname="steam_icon_730.svg"
   inkscape:version="0.92.2 5c3e80d, 2017-08-06"><metadata
     id="metadata33"><rdf:RDF><cc:Work
         rdf:about=""><dc:format>image/svg+xml</dc:format><dc:type
           rdf:resource="http://purl.org/dc/dcmitype/StillImage" /></cc:Work></rdf:RDF></metadata><defs
     id="defs31"><radialGradient
       inkscape:collect="always"
       xlink:href="#SVGID_3_"
       id="radialGradient83"
       gradientUnits="userSpaceOnUse"
       cx="501.8896"
       cy="163.6352"
       r="485.619" /><filter
       style="color-interpolation-filters:sRGB;"
       inkscape:label="Blur"
       id="filter107"><feGaussianBlur
         stdDeviation="7.19 6.65827"
         result="fbSourceGraphic"
         id="feGaussianBlur105" /><feColorMatrix
         result="fbSourceGraphicAlpha"
         in="fbSourceGraphic"
         values="0 0 0 -1 0 0 0 0 -1 0 0 0 0 -1 0 0 0 0 1 0"
         id="feColorMatrix109" /><feGaussianBlur
         id="feGaussianBlur111"
         stdDeviation="7.19 6.66"
         result="blur"
         in="fbSourceGraphic" /></filter></defs><sodipodi:namedview
     pagecolor="#ffffff"
     bordercolor="#666666"
     borderopacity="1"
     objecttolerance="10"
     gridtolerance="10"
     guidetolerance="10"
     inkscape:pageopacity="0"
     inkscape:pageshadow="2"
     inkscape:window-width="1680"
     inkscape:window-height="1005"
     id="namedview29"
     showgrid="false"
     inkscape:zoom="0.4609375"
     inkscape:cx="931.30086"
     inkscape:cy="273.27116"
     inkscape:window-x="0"
     inkscape:window-y="391"
     inkscape:window-maximized="1"
     inkscape:current-layer="layer1" /><style
     type="text/css"
     id="style2">
	.st0{fill:url(#SVGID_1_);}
	.st1{fill:url(#SVGID_2_);}
	.st2{fill-rule:evenodd;clip-rule:evenodd;fill:url(#SVGID_3_);}
</style><g
     id="Circle"><radialGradient
       id="SVGID_1_"
       cx="531.7676"
       cy="1127.3945"
       r="954.2032"
       gradientTransform="matrix(1 0 0 -1 0 1024)"
       gradientUnits="userSpaceOnUse"><stop
         offset="0"
         style="stop-color:#FBFAFA"
         id="stop4" /><stop
         offset="1"
         style="stop-color:#D5D5D5"
         id="stop6" /></radialGradient><circle
       class="st0"
       cx="508.8"
       cy="511.7"
       r="447"
       id="circle9" /><radialGradient
       id="SVGID_2_"
       cx="501.8896"
       cy="198.4271"
       r="654.6537"
       gradientUnits="userSpaceOnUse"><stop
         offset="0"
         style="stop-color:#444E58"
         id="stop11" /><stop
         offset="1"
         style="stop-color:#1B212A"
         id="stop13" /></radialGradient><circle
       class="st1"
       cx="509.1"
       cy="514.7"
       r="409"
       id="circle16" /><radialGradient
       id="SVGID_3_"
       cx="501.8896"
       cy="163.6352"
       r="485.619"
       gradientUnits="userSpaceOnUse"><stop
         offset="0"
         style="stop-color:#FBFAFA"
         id="stop20" /><stop
         offset="1"
         style="stop-color:#D5D5D5"
         id="stop22" /></radialGradient></g><g
     inkscape:groupmode="layer"
     id="layer1"
     inkscape:label="Layer 1"
     style="display:inline;opacity:0.429"><path
       d="m 525.7,318.6 c 1.7,7.8 10.4,16.4 2.9,24.4 -2.8,4.3 -4.8,8.9 -3.9,14.6 13.2,9.1 16.6,-16.9 32.2,-7.8 3.6,-3.1 7.2,-6.1 12.7,-4.9 -1.2,15 15.6,7.1 23.4,10.7 7.6,-1.6 20.8,4.3 21.5,-7.8 1.6,0.5 3,1.3 4.9,1 0.9,4.1 -3,8.4 2.9,9.8 6.7,-1.7 15.4,4.1 16.6,-4.9 2.1,-0.5 4.2,1.2 4.9,1.9 l -2,2 c 5.6,5.4 11.1,2 18.5,2.9 4.6,-1.6 -1.3,-10 5.9,-7.8 2.1,3.6 -0.4,9 3.9,11.7 -1.2,1.3 -2.9,1.3 -3.9,2.9 0.1,3.9 5,4.4 7.8,5.9 h 5.9 c -0.3,0.9 0.5,1.4 1,2 -16.9,6.1 -45.1,-6.6 -50.7,18.5 -4,-1.3 -6,3.6 -7.8,5.9 -3.7,-0.6 -6,-4.3 -9.8,-4.9 -0.7,16.2 7.5,31.1 15.6,44.9 -2.1,2.6 -4.8,4.3 -7.8,4.9 -10.2,-13.6 -14.2,-29.7 -20.5,-44.9 -4.7,3.1 0.8,8.5 -1,13.7 0.8,3.3 -1,4.8 -3.9,4.9 l -18.5,-3.9 c -9.5,5.1 -12.9,22.8 -26.3,18.5 -1.7,1 -2.4,4 -4.9,2.9 l -1,-1 c -6.6,2.6 -13.7,7 -21.5,3.9 -4,1 -9.3,-0.9 -11.7,3.9 -1.7,9.2 -0.6,19.4 -2.9,28.3 -4.6,-1.3 -9.2,1.6 -9.8,5.9 -0.8,6.8 1.3,12.4 2,18.5 l 7.8,-1.9 c 4.8,9.7 14.7,17.2 20.5,26.3 6.3,7.9 16.5,15.9 16.6,27.3 -2.3,0.6 -3.9,3.2 -5.9,4.9 -0.2,8.2 8.9,12.6 11.7,19.5 8.8,9.8 12,21.8 21.5,31.2 -3.6,24.9 10.4,42.4 6.8,67.3 -2.1,18.3 13.4,29.5 18.5,44.9 v 12.7 c -18.1,10.1 -33.1,-4.7 -46.8,-13.7 -11.1,-8.3 -5.3,-20 -6.8,-32.2 -7.6,-22.4 -12.4,-46.2 -18.5,-69.3 -6.3,-11.2 -21.1,-19.1 -25.4,-31.2 -10.3,-11.5 -18.1,-29.2 -34.2,-33.2 -3.7,1.2 -0.6,5.1 -2.9,6.8 -11.7,22.5 -20.5,46.3 -26.3,71.2 -8.6,15 -14.3,31.2 -21.5,46.8 -9.5,2.3 -21.3,-0.8 -30.2,2.9 0.7,8.8 7.1,17.6 2,26.3 -9.1,-0.7 -20.7,10.4 -27.3,-2 -12.9,-5.5 -11,-22.1 -16.6,-33.2 3.3,-15.1 16.9,-26.1 25.4,-39 6.1,-3.9 15,-3.4 18.5,-11.7 6.5,-34.7 17.4,-67.6 28.3,-100.5 0.8,-10 -10.1,-18.8 -2,-28.3 -1.2,-1.7 -3.4,-0.8 -4.9,-2 8.5,-31 15.4,-62.5 16.6,-96.6 10.1,-13.5 19.2,-29 33.2,-39 1.7,-0.3 3.9,0.8 4.9,-1 -1.6,-16.8 0.2,-36.4 17.6,-44.9 15.6,-8.4 37.3,-2 44.7,15 z"
       id="path18"
       inkscape:connector-curvature="0"
       style="filter:url(#filter107)" /></g><g
     inkscape:groupmode="layer"
     id="layer2"
     inkscape:label="Layer 2"
     style="display:inline"><path
       style="clip-rule:evenodd;display:inline;fill:url(#radialGradient83);fill-rule:evenodd"
       class="st2"
       d="m 525.7,313.6 c 1.7,7.8 10.4,16.4 2.9,24.4 -2.8,4.3 -4.8,8.9 -3.9,14.6 13.2,9.1 16.6,-16.9 32.2,-7.8 3.6,-3.1 7.2,-6.1 12.7,-4.9 -1.2,15 15.6,7.1 23.4,10.7 7.6,-1.6 20.8,4.3 21.5,-7.8 1.6,0.5 3,1.3 4.9,1 0.9,4.1 -3,8.4 2.9,9.8 6.7,-1.7 15.4,4.1 16.6,-4.9 2.1,-0.5 4.2,1.2 4.9,1.9 l -2,2 c 5.6,5.4 11.1,2 18.5,2.9 4.6,-1.6 -1.3,-10 5.9,-7.8 2.1,3.6 -0.4,9 3.9,11.7 -1.2,1.3 -2.9,1.3 -3.9,2.9 0.1,3.9 5,4.4 7.8,5.9 h 5.9 c -0.3,0.9 0.5,1.4 1,2 -16.9,6.1 -45.1,-6.6 -50.7,18.5 -4,-1.3 -6,3.6 -7.8,5.9 -3.7,-0.6 -6,-4.3 -9.8,-4.9 -0.7,16.2 7.5,31.1 15.6,44.9 -2.1,2.6 -4.8,4.3 -7.8,4.9 -10.2,-13.6 -14.2,-29.7 -20.5,-44.9 -4.7,3.1 0.8,8.5 -1,13.7 0.8,3.3 -1,4.8 -3.9,4.9 l -18.5,-3.9 c -9.5,5.1 -12.9,22.8 -26.3,18.5 -1.7,1 -2.4,4 -4.9,2.9 l -1,-1 c -6.6,2.6 -13.7,7 -21.5,3.9 -4,1 -9.3,-0.9 -11.7,3.9 -1.7,9.2 -0.6,19.4 -2.9,28.3 -4.6,-1.3 -9.2,1.6 -9.8,5.9 -0.8,6.8 1.3,12.4 2,18.5 l 7.8,-1.9 c 4.8,9.7 14.7,17.2 20.5,26.3 6.3,7.9 16.5,15.9 16.6,27.3 -2.3,0.6 -3.9,3.2 -5.9,4.9 -0.2,8.2 8.9,12.6 11.7,19.5 8.8,9.8 12,21.8 21.5,31.2 -3.6,24.9 10.4,42.4 6.8,67.3 -2.1,18.3 13.4,29.5 18.5,44.9 v 12.7 c -18.1,10.1 -33.1,-4.7 -46.8,-13.7 -11.1,-8.3 -5.3,-20 -6.8,-32.2 -7.6,-22.4 -12.4,-46.2 -18.5,-69.3 -6.3,-11.2 -21.1,-19.1 -25.4,-31.2 -10.3,-11.5 -18.1,-29.2 -34.2,-33.2 -3.7,1.2 -0.6,5.1 -2.9,6.8 -11.7,22.5 -20.5,46.3 -26.3,71.2 -8.6,15 -14.3,31.2 -21.5,46.8 -9.5,2.3 -21.3,-0.8 -30.2,2.9 0.7,8.8 7.1,17.6 2,26.3 -9.1,-0.7 -20.7,10.4 -27.3,-2 -12.9,-5.5 -11,-22.1 -16.6,-33.2 3.3,-15.1 16.9,-26.1 25.4,-39 6.1,-3.9 15,-3.4 18.5,-11.7 6.5,-34.7 17.4,-67.6 28.3,-100.5 0.8,-10 -10.1,-18.8 -2,-28.3 -1.2,-1.7 -3.4,-0.8 -4.9,-2 8.5,-31 15.4,-62.5 16.6,-96.6 10.1,-13.5 19.2,-29 33.2,-39 1.7,-0.3 3.9,0.8 4.9,-1 -1.6,-16.8 0.2,-36.4 17.6,-44.9 15.6,-8.4 37.3,-2 44.7,15 z"
       id="path25"
       inkscape:connector-curvature="0" /></g></svg>