<?xml version="1.0" encoding="utf-8"?>
<!-- Generator: Adobe Illustrator 22.1.0, SVG Export Plug-In . SVG Version: 6.00 Build 0)  -->
<!-- Artist: @KevDoy for Trenta.io -->
<!-- Vector Conversion by @Genghis-Khanr -->
<svg version="1.1" id="transmission" xmlns="http://www.w3.org/2000/svg" xmlns:xlink="http://www.w3.org/1999/xlink" x="0px"
	 y="0px" viewBox="0 0 1024 1024" style="enable-background:new 0 0 1024 1024;" xml:space="preserve">
<style type="text/css">
	.st0{fill:url(#SVGID_1_);}
	.st1{fill:#CDCDCD;}
	.st2{fill:#1E1E1E;}
	.st3{fill:url(#SVGID_2_);}
	.st4{fill:#767676;}
	.st5{fill:#4F4F4F;}
	.st6{fill:url(#SVGID_3_);}
	.st7{fill:url(#SVGID_4_);}
	.st8{fill:url(#SVGID_5_);}
	.st9{fill:url(#SVGID_6_);}
	.st10{fill:url(#SVGID_7_);}
	.st11{opacity:0.5;}
	.st12{fill:url(#SVGID_8_);}
	.st13{fill:#FFFFFF;}
	.st14{fill:url(#SVGID_9_);}
	.st15{fill:url(#SVGID_10_);}
	.st16{fill:url(#SVGID_11_);}
	.st17{fill:url(#SVGID_12_);}
	.st18{fill:url(#SVGID_13_);}
	.st19{fill:#4E4E4E;}
	.st20{fill:url(#SVGID_14_);}
</style>
<g>
	<linearGradient id="SVGID_1_" gradientUnits="userSpaceOnUse" x1="261.2773" y1="709.2344" x2="770.2433" y2="428.5831">
		<stop  offset="0" style="stop-color:#707070"/>
		<stop  offset="0.1292" style="stop-color:#8D8D8D"/>
		<stop  offset="0.4081" style="stop-color:#D8D8D8"/>
		<stop  offset="0.5473" style="stop-color:#FFFFFF"/>
		<stop  offset="0.7223" style="stop-color:#C3C3C3"/>
		<stop  offset="0.9101" style="stop-color:#878787"/>
		<stop  offset="1" style="stop-color:#707070"/>
	</linearGradient>
	<path class="st0" d="M864.8,709L464.6,931.8c-92.2,41.3-116.7-36.1-132-71L172.5,494.1c-15.3-34.9,0.8-72.1,36.7-90.8l357.1-157.2
		c44.4-19.5,78.4-4.7,110.1,45.3l206.3,315.4C904.5,636.5,902.3,687.5,864.8,709z"/>
</g>
<path class="st1" d="M252.5,486.8c-4.9-10.6-15-24.9-10.5-34.6c3.6-7.9,10.6-12.8,19.1-16.7l311.4-144.7
	c18.9-8.7,43.2,0.7,54.4,19.4l189.6,296.5c5.3,9.5,5,21,2.5,31.3c-2.8,11.2-14.3,23.5-23.1,27.9c16.6-8.3,26.3-36.6,15.3-56.1
	L623.7,316c-11.1-18.5-35.1-27.9-53.8-19.3L262.5,439.6C243.8,448.2,243.8,467.8,252.5,486.8"/>
<path class="st2" d="M797,665.8L480.1,835c-6.6,3.5-13.6,6.4-20.8,8.2c-29.1,7.2-54.7-1.6-65.3-26L244.4,489.4
	c-8.7-18.9-0.6-41.2,18.1-49.8l307.4-142.8c18.7-8.6,42.7,0.8,53.8,19.3l187.7,293.7C822.3,629.2,813.6,657.5,797,665.8z"/>
<linearGradient id="SVGID_2_" gradientUnits="userSpaceOnUse" x1="331.9451" y1="668.696" x2="704.6323" y2="464.6758">
	<stop  offset="0" style="stop-color:#C8C6C8"/>
	<stop  offset="0.1821" style="stop-color:#DFDEDF"/>
	<stop  offset="0.4139" style="stop-color:#F6F6F6"/>
	<stop  offset="0.5563" style="stop-color:#FFFFFF"/>
	<stop  offset="0.5584" style="stop-color:#FFFFFF"/>
	<stop  offset="0.8498" style="stop-color:#D7D6D7"/>
	<stop  offset="1" style="stop-color:#C8C6C8"/>
</linearGradient>
<path class="st3" d="M790,669.8L478.9,835.5c-6.5,3.5-13.3,6.2-20.5,8c-28.5,7.2-53.6-1.3-63.8-25L249.6,500.8
	c-8.4-18.3-0.4-40.1,17.9-48.5l308.1-143.1c18.3-8.4,34.3,1.8,45.1,19.8l183.6,286.3C814.9,634.1,806.3,661.6,790,669.8z"/>
<path class="st4" d="M394.7,818.5l-137.1-313c-8.3-18.1-0.2-39.6,18.2-48l299.7-136.6c18.3-8.4,34.2,1.6,44.9,19.2l184,275
	L620.7,328.9c-10.8-17.9-26.7-28.2-45.1-19.8L267.5,452.3c-18.3,8.4-26.4,30.2-17.9,48.5L394.7,818.5"/>
<path class="st1" d="M889,683.8c-5.2,10.1-13.2,18.9-24.1,25.2L464.6,931.8c-92.2,41.3-116.7-36.1-132-71L172.5,494.1
	c-5.1-11.7-6.7-23.7-5.2-35.1l181.6,424.3c0,0,32.6,84.8,124.5,33.5S889,683.8,889,683.8z"/>
<path class="st5" d="M190.4,416.3c5.4-4.9,11.7-9.3,18.8-13l357.1-157.2c44.4-19.5,78.4-4.7,110.1,45.3l206.3,315.4
	c6,8.2,10.2,18,12.4,28.4L658.5,275.8c0,0-35.5-48.3-81.8-28.8C530.3,266.5,190.4,416.3,190.4,416.3z"/>
<path class="st5" d="M262.9,439.6c-18.7,8.6-33.4,32.5-24.7,51.4l153.3,335.5c10.5,24.5,36.2,33.3,65.3,26
	c7.3-1.8,14.2-4.6,20.8-8.2l319.5-174.5c16.6-8.3,25.1-40.6,14.1-60.1h0.1c11,19.5,2.3,47.8-14.3,56.1L480.1,835
	c-6.6,3.5-13.6,6.4-20.8,8.2c-29.1,7.2-54.7-1.6-65.3-26L244.4,489.4c-8.7-18.9-0.6-41.2,18.1-49.8"/>
<g>
	<linearGradient id="SVGID_3_" gradientUnits="userSpaceOnUse" x1="559.0782" y1="492.8522" x2="543.5053" y2="695.3002">
		<stop  offset="0.5259" style="stop-color:#949494"/>
		<stop  offset="0.6204" style="stop-color:#8E8E8E"/>
		<stop  offset="0.7419" style="stop-color:#7E7E7E"/>
		<stop  offset="0.8777" style="stop-color:#646464"/>
		<stop  offset="1" style="stop-color:#464646"/>
	</linearGradient>
	<polygon class="st6" points="449.8,544.8 504.4,645.5 505.1,655.7 470.7,672.5 620.7,715 657.4,584.3 615.1,602 549,501.9 549,499 
			"/>
	<linearGradient id="SVGID_4_" gradientUnits="userSpaceOnUse" x1="660.5" y1="587.625" x2="615.3333" y2="587.625">
		<stop  offset="0" style="stop-color:#343636"/>
		<stop  offset="0.2598" style="stop-color:#373939"/>
		<stop  offset="0.439" style="stop-color:#404242"/>
		<stop  offset="0.5942" style="stop-color:#4F5151"/>
		<stop  offset="0.7355" style="stop-color:#656666"/>
		<stop  offset="0.8674" style="stop-color:#818282"/>
		<stop  offset="0.9908" style="stop-color:#A3A3A3"/>
		<stop  offset="1" style="stop-color:#A6A6A6"/>
	</linearGradient>
	<polygon class="st7" points="615.8,591.3 660.5,573.3 657.4,584.3 615.3,602 	"/>
	<linearGradient id="SVGID_5_" gradientUnits="userSpaceOnUse" x1="549" y1="548.9163" x2="615.75" y2="548.9163">
		<stop  offset="0" style="stop-color:#343636"/>
		<stop  offset="0.2598" style="stop-color:#373939"/>
		<stop  offset="0.439" style="stop-color:#404242"/>
		<stop  offset="0.5942" style="stop-color:#4F5151"/>
		<stop  offset="0.7355" style="stop-color:#656666"/>
		<stop  offset="0.8674" style="stop-color:#818282"/>
		<stop  offset="0.9908" style="stop-color:#A3A3A3"/>
		<stop  offset="1" style="stop-color:#A6A6A6"/>
	</linearGradient>
	<polygon class="st8" points="549,499.1 556.4,495.8 615.8,591.3 615.3,602 549,501.9 	"/>
	<linearGradient id="SVGID_6_" gradientUnits="userSpaceOnUse" x1="458.5" y1="658.9893" x2="505.1667" y2="658.9893">
		<stop  offset="0" style="stop-color:#343636"/>
		<stop  offset="0.2598" style="stop-color:#373939"/>
		<stop  offset="0.439" style="stop-color:#404242"/>
		<stop  offset="0.5942" style="stop-color:#4F5151"/>
		<stop  offset="0.7355" style="stop-color:#656666"/>
		<stop  offset="0.8674" style="stop-color:#818282"/>
		<stop  offset="0.9908" style="stop-color:#A3A3A3"/>
		<stop  offset="1" style="stop-color:#A6A6A6"/>
	</linearGradient>
	<polygon class="st9" points="504.5,645.5 458.5,669 470.8,672.5 505.2,655.7 	"/>
	<polygon points="450,544.8 430.3,509.2 378.5,532.7 421,426.3 571.3,452 539.2,470 	"/>
	<linearGradient id="SVGID_7_" gradientUnits="userSpaceOnUse" x1="657.3816" y1="627.639" x2="554.8004" y2="627.639">
		<stop  offset="0" style="stop-color:#000000"/>
		<stop  offset="0.294" style="stop-color:#282828;stop-opacity:0.9265"/>
		<stop  offset="0.5879" style="stop-color:#484848;stop-opacity:0.853"/>
		<stop  offset="0.8333" style="stop-color:#5C5C5C;stop-opacity:0.7917"/>
		<stop  offset="1" style="stop-color:#636363;stop-opacity:0.75"/>
	</linearGradient>
	<path class="st10" d="M554.8,550.3c0,0,41.9,84.8,18.6,151.2l47.3,13.4l36.7-130.7l-42,17.7l-40.6-61.7L554.8,550.3z"/>
</g>
<polygon class="st11" points="403.7,469.7 355,411.5 355,396 353.2,392.7 325.6,352 385.8,325.5 417.8,434.3 "/>
<g>
	<linearGradient id="SVGID_8_" gradientUnits="userSpaceOnUse" x1="528.0459" y1="61.6738" x2="606.0459" y2="213.6738">
		<stop  offset="0" style="stop-color:#BC1E1B"/>
		<stop  offset="0.5531" style="stop-color:#A61B19"/>
		<stop  offset="0.6315" style="stop-color:#991917"/>
		<stop  offset="0.871" style="stop-color:#761311"/>
		<stop  offset="1" style="stop-color:#69110F"/>
	</linearGradient>
	<path class="st12" d="M517.7,252c132.7-63.7,141.6-93.7,141.6-93.7c8-86-39-97-39-97c-127.7,4.3-165.1,27.6-165.1,27.6
		S499.4,150.7,517.7,252z"/>
	<path class="st13" d="M474.8,590.7L450,544.8l-4.7-8.6c0,0-29.6-128.3-71-225.5c0,0-58.6-134.1-52.3-180.8c0.9-4.8,5-6.7,13.7-10
		c8.8-3.3,106.9-35.3,110.9-34.8s11.1,3.8,18,13.9S504,148,517,246.8s27.5,214.1,57.8,293.5L474.8,590.7z"/>
	<linearGradient id="SVGID_9_" gradientUnits="userSpaceOnUse" x1="331.0936" y1="119.7077" x2="480.0936" y2="591.7078">
		<stop  offset="0.5341" style="stop-color:#AEAEAE"/>
		<stop  offset="0.595" style="stop-color:#A5A5A5"/>
		<stop  offset="0.6924" style="stop-color:#8E8E8E"/>
		<stop  offset="0.8142" style="stop-color:#686868"/>
		<stop  offset="0.9543" style="stop-color:#343434"/>
		<stop  offset="1" style="stop-color:#212121"/>
	</linearGradient>
	<path class="st14" d="M474.8,590.7L450,544.8l-4.7-8.6c0,0-29.6-128.3-71-225.5c0,0-58.6-134.1-52.3-180.8c0.4-2.3,1.6-4,3.7-5.4
		c0,0,34.5,12.4,65.5,112.4S471.7,557.9,474.8,590.7z"/>
	<linearGradient id="SVGID_10_" gradientUnits="userSpaceOnUse" x1="330.7229" y1="134.0479" x2="430.7229" y2="420.0479">
		<stop  offset="0.5341" style="stop-color:#343636"/>
		<stop  offset="0.658" style="stop-color:#424343"/>
		<stop  offset="0.8144" style="stop-color:#4D4D4D"/>
		<stop  offset="1" style="stop-color:#505050"/>
	</linearGradient>
	<path class="st15" d="M411.2,412.8c-10.5-33.5-23.1-69.5-36.9-102.1c0,0-53.6-122.8-52.7-174.2c0,0,51.5,20.2,73.8,132.5
		c0,0,17.4,70.8,17.9,113C413.3,399.5,411.2,412.8,411.2,412.8z"/>
	<linearGradient id="SVGID_11_" gradientUnits="userSpaceOnUse" x1="398.9334" y1="97.1634" x2="442.4334" y2="232.6634">
		<stop  offset="0" style="stop-color:#6A6A6A"/>
		<stop  offset="0.1257" style="stop-color:#8E8E8E"/>
		<stop  offset="0.4224" style="stop-color:#DDDDDD"/>
		<stop  offset="0.5586" style="stop-color:#FDFDFD"/>
		<stop  offset="1" style="stop-color:#FEFEFE"/>
	</linearGradient>
	<path class="st16" d="M509.5,204.2c-15.2-67.8-39.1-96.7-44.9-105.2c-6.9-10.1-14-13.4-18-13.9S344.5,116.6,335.7,120
		c-2.6,1-4.7,1.8-6.5,2.7c0,0,32.5,9.4,69.3,126.4L509.5,204.2z"/>
	<linearGradient id="SVGID_12_" gradientUnits="userSpaceOnUse" x1="409.8444" y1="242.9539" x2="573.4006" y2="549.8389">
		<stop  offset="0" style="stop-color:#949494"/>
		<stop  offset="5.532010e-02" style="stop-color:#7C7C7C"/>
		<stop  offset="0.1269" style="stop-color:#646464"/>
		<stop  offset="0.2027" style="stop-color:#525252"/>
		<stop  offset="0.2846" style="stop-color:#484848"/>
		<stop  offset="0.3838" style="stop-color:#454545"/>
		<stop  offset="0.5019" style="stop-color:#6A6A6A"/>
		<stop  offset="0.6903" style="stop-color:#ADADAD"/>
		<stop  offset="0.7655" style="stop-color:#A4A4A4"/>
		<stop  offset="0.8873" style="stop-color:#8C8C8C"/>
		<stop  offset="1" style="stop-color:#707070"/>
	</linearGradient>
	<path class="st17" d="M474.8,590.7l99.9-50.4C544.5,460.9,530,345.5,517,246.8c-2.1-15.7-4.6-29.8-7.5-42.6l-111,44.8
		C398.5,249,454.2,417.4,474.8,590.7z"/>
	<linearGradient id="SVGID_13_" gradientUnits="userSpaceOnUse" x1="237.5445" y1="170.3966" x2="313.5445" y2="343.3966">
		<stop  offset="0" style="stop-color:#BC1E1B"/>
		<stop  offset="0.5531" style="stop-color:#A61B19"/>
		<stop  offset="0.6315" style="stop-color:#991917"/>
		<stop  offset="0.871" style="stop-color:#761311"/>
		<stop  offset="1" style="stop-color:#69110F"/>
	</linearGradient>
	<path class="st18" d="M393.7,301.7c0,0-62.3,38.3-183,50.3c0,0-42.4-63.1-51.4-103.8c0,0,73.1-72.4,165-107.3
		C324.3,141,374,172,393.7,301.7z"/>
</g>
<g>
	<path class="st19" d="M120.2,293.5c3.7,16.7,26.5,56.1,30.5,57.8c4,1.7,52-11.8,52-11.8c-11.9-19.1-33.8-56.4-41.9-85.3
		C160.7,254.2,117.2,284.2,120.2,293.5z"/>
	<linearGradient id="SVGID_14_" gradientUnits="userSpaceOnUse" x1="137.2758" y1="273.2998" x2="179.89" y2="347.1099">
		<stop  offset="7.356948e-02" style="stop-color:#A3A3A3"/>
		<stop  offset="9.450606e-02" style="stop-color:#ACACAC"/>
		<stop  offset="0.1731" style="stop-color:#CACACA"/>
		<stop  offset="0.2565" style="stop-color:#E1E1E1"/>
		<stop  offset="0.3459" style="stop-color:#F1F1F1"/>
		<stop  offset="0.4453" style="stop-color:#FBFBFB"/>
		<stop  offset="0.5749" style="stop-color:#FEFEFE"/>
		<stop  offset="0.5995" style="stop-color:#E3E3E3"/>
		<stop  offset="0.6414" style="stop-color:#BBBBBB"/>
		<stop  offset="0.6862" style="stop-color:#999999"/>
		<stop  offset="0.7334" style="stop-color:#7D7D7D"/>
		<stop  offset="0.7842" style="stop-color:#676767"/>
		<stop  offset="0.84" style="stop-color:#585858"/>
		<stop  offset="0.9049" style="stop-color:#4F4F4F"/>
		<stop  offset="1" style="stop-color:#4C4C4C"/>
	</linearGradient>
	<path class="st20" d="M124.5,293.5c3.5,16.7,24.1,52.2,27.9,53.9c3.1,1.4,31.9-6,42.4-8.9c1.6-0.5,2.2-2.4,1.2-3.7
		c-14.4-17.7-29.1-44.9-35.2-71.8c-0.3-1.5-2-2.1-3.3-1.3C148.9,267.3,122.1,285.7,124.5,293.5z"/>
</g>
</svg>
