<?xml version="1.0" encoding="utf-8"?>
<!-- Generator: Adobe Illustrator 24.1.2, SVG Export Plug-In . SVG Version: 6.00 Build 0)  -->
<svg version="1.1"
	 id="Layer_1" inkscape:version="0.92.2 5c3e80d, 2017-08-06" sodipodi:docname="steam_icon_730.svg" xmlns:cc="http://creativecommons.org/ns#" xmlns:dc="http://purl.org/dc/elements/1.1/" xmlns:inkscape="http://www.inkscape.org/namespaces/inkscape" xmlns:rdf="http://www.w3.org/1999/02/22-rdf-syntax-ns#" xmlns:sodipodi="http://sodipodi.sourceforge.net/DTD/sodipodi-0.dtd" xmlns:svg="http://www.w3.org/2000/svg"
	 xmlns="http://www.w3.org/2000/svg" xmlns:xlink="http://www.w3.org/1999/xlink" x="0px" y="0px" width="1024px" height="1024px"
	 viewBox="0 0 1024 1024" style="enable-background:new 0 0 1024 1024;" xml:space="preserve">
<style type="text/css">
	.st0{fill:url(#circle9_1_);}
	.st1{fill:url(#circle16_1_);}
	.st2{fill:url(#SVGID_1_);}
	.st3{fill:url(#SVGID_2_);}
	.st4{fill:url(#SVGID_3_);}
	.st5{fill:url(#SVGID_4_);}
	.st6{fill:url(#SVGID_5_);}
</style>
<sodipodi:namedview  bordercolor="#666666" borderopacity="1" gridtolerance="10" guidetolerance="10" id="namedview29" inkscape:current-layer="layer1" inkscape:cx="931.30086" inkscape:cy="273.27116" inkscape:pageopacity="0" inkscape:pageshadow="2" inkscape:window-height="1005" inkscape:window-maximized="1" inkscape:window-width="1680" inkscape:window-x="0" inkscape:window-y="391" inkscape:zoom="0.4609375" objecttolerance="10" pagecolor="#ffffff" showgrid="false">
	</sodipodi:namedview>
<g id="Circle">
	
		<radialGradient id="circle9_1_" cx="531.7676" cy="1863.3945" r="954.2032" gradientTransform="matrix(1 0 0 -1 0 1760)" gradientUnits="userSpaceOnUse">
		<stop  offset="0" style="stop-color:#000000"/>
		<stop  offset="1" style="stop-color:#242224"/>
	</radialGradient>
	<circle id="circle9" class="st0" cx="508.8" cy="511.7" r="447"/>
	
		<radialGradient id="circle16_1_" cx="501.8896" cy="-537.5729" r="654.6537" gradientTransform="matrix(1 0 0 1 0 736)" gradientUnits="userSpaceOnUse">
		<stop  offset="0" style="stop-color:#333B34"/>
		<stop  offset="1" style="stop-color:#1B212A"/>
	</radialGradient>
	<circle id="circle16" class="st1" cx="509.1" cy="514.7" r="409"/>
</g>
<g>
	<path d="M736.5,409.8c-4.2-8-14.3-11.6-22.3-7.4c-8,4.2-11.6,14.3-7.4,22.3c15.4,30.2,22.8,62.6,22.8,97.6s-8,67.4-22.8,97.6
		c-4.2,8-1.1,18.1,7.4,22.3c2.7,1.1,4.7,1.6,7.4,1.6c5.8,0,11.6-3.2,14.9-9c17.5-35,26.6-72.7,26.6-112.5S754,444.8,736.5,409.8z"/>
	<path d="M307.7,402.3c-8-4.2-18.1-1.1-22.3,7.4c-17.5,35-26.6,72.7-26.6,112.5c0,39.8,9,77.5,26.6,112.5c2.7,5.8,8.5,9,14.9,9
		c2.7,0,4.7-0.5,7.4-1.6c8-4.2,11.6-14.3,7.4-22.3c-15.4-30.2-23.3-63.2-23.3-97.6s8-67.4,22.8-97.6
		C318.9,416.6,315.7,406.6,307.7,402.3z"/>
	<path d="M647.3,435.8c-8,4.2-11.6,14.3-7.4,22.3c10.1,20.1,15.4,41.4,15.4,64.2c0,22.8-5.3,44-15.4,64.2c-4.2,8-1.1,18.1,7.4,22.3
		c2.7,1.1,4.7,1.6,7.4,1.6c5.8,0,11.6-3.2,14.9-9c12.2-24.4,18.6-51.4,18.6-79.1c0-27.6-6.4-54.7-18.6-79.1
		C665.4,435.3,655.3,432,647.3,435.8z"/>
	<path d="M374.7,435.8c-8-4.2-18.1-1.1-22.3,7.4c-12.2,24.4-18.6,51.4-18.6,79.1c0,27.6,6.4,54.7,18.6,79.1c2.7,5.8,8.5,9,14.9,9
		c2.7,0,5.3-0.5,7.4-1.6c8-4.2,11.6-14.3,7.4-22.3c-10.1-20.1-15.4-41.4-15.4-64.2c0-22.8,5.3-44,15.4-64.2
		C386.3,450.1,383.2,440,374.7,435.8z"/>
	<path d="M511,419.9c-56.3,0-102.4,46.2-102.4,102.4c0,56.3,46.2,102.3,102.4,102.3s102.4-46.2,102.4-102.4S567.8,419.9,511,419.9z
		 M545,527.6l-47.2,31.3c-4.2,2.7-9.6,0-9.6-5.3V491c0-4.7,5.3-8,9.6-5.3L545,517C548.1,519.6,548.1,524.9,545,527.6z"/>
</g>
<g>
	
		<radialGradient id="SVGID_1_" cx="505.2766" cy="815.2039" r="473.403" gradientTransform="matrix(1 0 0 -1 0 1024)" gradientUnits="userSpaceOnUse">
		<stop  offset="0" style="stop-color:#FBFAFA"/>
		<stop  offset="1" style="stop-color:#D5D5D5"/>
	</radialGradient>
	<path class="st2" d="M736.5,400c-4.2-8-14.3-11.6-22.3-7.4c-8,4.2-11.6,14.3-7.4,22.3c15.4,30.2,22.8,62.6,22.8,97.6
		s-8,67.4-22.8,97.6c-4.2,8-1.1,18.1,7.4,22.3c2.7,1.1,4.7,1.6,7.4,1.6c5.8,0,11.6-3.2,14.9-9c17.5-35,26.6-72.7,26.6-112.5
		S754,435,736.5,400z"/>
	
		<radialGradient id="SVGID_2_" cx="505.2766" cy="815.2039" r="473.403" gradientTransform="matrix(1 0 0 -1 0 1024)" gradientUnits="userSpaceOnUse">
		<stop  offset="0" style="stop-color:#FBFAFA"/>
		<stop  offset="1" style="stop-color:#D5D5D5"/>
	</radialGradient>
	<path class="st3" d="M307.7,392.6c-8-4.2-18.1-1.1-22.3,7.4c-17.5,35-26.6,72.7-26.6,112.5s9,77.5,26.6,112.5c2.7,5.8,8.5,9,14.9,9
		c2.7,0,4.7-0.5,7.4-1.6c8-4.2,11.6-14.3,7.4-22.3c-15.4-30.2-23.3-63.2-23.3-97.6c0-34.4,8-67.4,22.8-97.6
		C318.9,406.9,315.7,396.8,307.7,392.6z"/>
	
		<radialGradient id="SVGID_3_" cx="505.2766" cy="815.2039" r="473.403" gradientTransform="matrix(1 0 0 -1 0 1024)" gradientUnits="userSpaceOnUse">
		<stop  offset="0" style="stop-color:#FBFAFA"/>
		<stop  offset="1" style="stop-color:#D5D5D5"/>
	</radialGradient>
	<path class="st4" d="M647.3,426c-8,4.2-11.6,14.3-7.4,22.3c10.1,20.1,15.4,41.4,15.4,64.2c0,22.8-5.3,44-15.4,64.2
		c-4.2,8-1.1,18.1,7.4,22.3c2.7,1.1,4.7,1.6,7.4,1.6c5.8,0,11.6-3.2,14.9-9c12.2-24.4,18.6-51.4,18.6-79.1
		c0-27.6-6.4-54.7-18.6-79.1C665.4,425.4,655.3,422.3,647.3,426z"/>
	
		<radialGradient id="SVGID_4_" cx="505.2766" cy="815.2039" r="473.403" gradientTransform="matrix(1 0 0 -1 0 1024)" gradientUnits="userSpaceOnUse">
		<stop  offset="0" style="stop-color:#FBFAFA"/>
		<stop  offset="1" style="stop-color:#D5D5D5"/>
	</radialGradient>
	<path class="st5" d="M374.7,426c-8-4.2-18.1-1.1-22.3,7.4c-12.2,24.4-18.6,51.4-18.6,79.1c0,27.6,6.4,54.7,18.6,79.1
		c2.7,5.8,8.5,9,14.9,9c2.7,0,5.3-0.5,7.4-1.6c8-4.2,11.6-14.3,7.4-22.3c-10.1-20.1-15.4-41.4-15.4-64.2s5.3-44,15.4-64.2
		C386.3,440.3,383.2,430.2,374.7,426z"/>
	
		<radialGradient id="SVGID_5_" cx="505.2766" cy="815.2039" r="473.403" gradientTransform="matrix(1 0 0 -1 0 1024)" gradientUnits="userSpaceOnUse">
		<stop  offset="0" style="stop-color:#FBFAFA"/>
		<stop  offset="1" style="stop-color:#D5D5D5"/>
	</radialGradient>
	<path class="st6" d="M511,410c-56.3,0-102.4,46.2-102.4,102.4c0,56.3,46.2,102.4,102.4,102.4s102.4-46.2,102.4-102.4
		S567.8,410,511,410z M545,517.7L497.8,549c-4.2,2.7-9.6,0-9.6-5.3v-62.6c0-4.7,5.3-8,9.6-5.3l47.2,31.3
		C548.1,509.8,548.1,515.1,545,517.7z"/>
</g>
</svg>
