<?xml version="1.0" encoding="utf-8"?>
<!-- Generator: Adobe Illustrator 21.1.0, SVG Export Plug-In . SVG Version: 6.00 Build 0)  -->
<!-- BASED ON ORIGINAL VLC ICON FOR MAC -->
<!-- Artist: @KevDoy for Trenta.io -->
<svg version="1.1" xmlns="http://www.w3.org/2000/svg" xmlns:xlink="http://www.w3.org/1999/xlink" x="0px" y="0px"
	 viewBox="0 0 1024 1024" style="enable-background:new 0 0 1024 1024;" xml:space="preserve">
<style type="text/css">
	.st0{fill:#FF6E00;}
	.st1{fill:url(#SVGID_1_);}
	.st2{fill:url(#SVGID_2_);}
	.st3{fill:url(#SVGID_3_);}
	.st4{fill:url(#SVGID_4_);}
	.st5{fill:#FC781A;}
</style>
<g id="Layer_1">
	<g id="Layer_4">
		<path class="st0" d="M879.3,919.2l-8.1,10.7c-0.7,1-1.8,1.5-2.9,1.5H158.4c-1.1,0-2.1-0.5-2.8-1.5l-8.4-10.7
			c-2.3-2.9-0.5-7.6,2.8-7.6h726.4C879.7,911.7,881.5,916.3,879.3,919.2z"/>
	</g>
	<g id="Layer_2">
		<linearGradient id="SVGID_1_" gradientUnits="userSpaceOnUse" x1="513.1156" y1="961.3394" x2="513.1156" y2="696.8776">
			<stop  offset="0" style="stop-color:#FF9800"/>
			<stop  offset="1" style="stop-color:#F36A00"/>
		</linearGradient>
		<path class="st1" d="M240.8,621.7h532.9c0,0,22.2-2.7,27.5,16.8c5.3,19.5,80.7,258,80.7,258s9.8,21.3-5.3,22.2
			c-15.1,0.9-718.3,0-718.3,0s-22.2,2.7-16-17.7c6.2-20.4,80.7-266,80.7-266S229.2,621.7,240.8,621.7z"/>
	</g>
	<linearGradient id="SVGID_2_" gradientUnits="userSpaceOnUse" x1="513.8211" y1="124.5856" x2="513.8211" y2="819.5434">
		<stop  offset="0" style="stop-color:#FF9800"/>
		<stop  offset="1" style="stop-color:#F36A00"/>
	</linearGradient>
	<path class="st2" d="M471,96.8c0,0-6,3-10,17S284.3,673.5,284.3,673.5s-82,184.2,222,184.2c323.9,0,236.2-184,236.2-184l-182.4-566
		c0,0-3.2-9.2-8.5-11C546.3,95,471,96.8,471,96.8z"/>
	<linearGradient id="SVGID_3_" gradientUnits="userSpaceOnUse" x1="512.101" y1="199.7772" x2="512.101" y2="668.0077">
		<stop  offset="0" style="stop-color:#EAEBED"/>
		<stop  offset="1" style="stop-color:#D7D8DA"/>
	</linearGradient>
	<path class="st3" d="M689.1,508c-6.4,9.4-45,55.9-177.1,55.9c-119.5,0-164-38.1-176.5-52.3c-19,60-35.2,111.2-44,139.2
		c12.3,19,62.9,77.2,220.5,77.2c181.6,0,218.3-79.3,220.6-84.9L689.1,508z"/>
	<linearGradient id="SVGID_4_" gradientUnits="userSpaceOnUse" x1="512.0705" y1="206.3488" x2="512.0706" y2="667.207">
		<stop  offset="0" style="stop-color:#EAEBED"/>
		<stop  offset="1" style="stop-color:#D7D8DA"/>
	</linearGradient>
	<path class="st4" d="M592.5,208.3c-1.5,1.5-20.9,18.8-81,18.8c-55.9,0-76.6-15-80.4-18.3c-13,41.4-29.2,92.5-45.9,145.5
		c6.2,6.2,36.6,30.8,127.8,30.8c89.1,0,119-25.5,125.8-32.9L592.5,208.3z"/>
</g>
<g id="Layer_5">
	<ellipse class="st5" cx="511.5" cy="100.8" rx="43.5" ry="10"/>
</g>
</svg>
