<?xml version="1.0" encoding="utf-8"?>
<!-- Generator: Adobe Illustrator 21.1.0, SVG Export Plug-In . SVG Version: 6.00 Build 0)  -->
<svg version="1.1" id="Layer_2_copy" xmlns="http://www.w3.org/2000/svg" xmlns:xlink="http://www.w3.org/1999/xlink" x="0px"
	 y="0px" viewBox="0 0 1024 1024" style="enable-background:new 0 0 1024 1024;" xml:space="preserve">
<style type="text/css">
	.st0{fill:url(#SVGID_1_);}
	.st1{fill:url(#SVGID_2_);}
	.st2{fill:url(#SVGID_3_);}
	.st3{opacity:0.65;fill:#009DF1;enable-background:new    ;}
</style>
<g>
	<g>
		
			<linearGradient id="SVGID_1_" gradientUnits="userSpaceOnUse" x1="512.3" y1="1107.96" x2="512.3" y2="1217.9189" gradientTransform="matrix(1 0 0 1 0 -976)">
			<stop  offset="0" style="stop-color:#99DBF9"/>
			<stop  offset="0.4933" style="stop-color:#8AD5F7"/>
			<stop  offset="1" style="stop-color:#85D2F5"/>
		</linearGradient>
		<path class="st0" d="M949,257c0-28.5-23.3-51.8-51.8-51.8H399.3c-15.5,0-28.1-12.6-28.1-28.1l0,0c0-28.5-23.3-51.8-51.8-51.8h-192
			c-28.5,0-51.8,23.3-51.8,51.8V257v42c0-24,19.6-43.6,43.6-43.6H905c24,0,43.6,19.6,43.6,43.6v117.8c0.3-2.1,0.4-4.3,0.4-6.5V257z"
			/>
	</g>
	
		<linearGradient id="SVGID_2_" gradientUnits="userSpaceOnUse" x1="512.1" y1="1240" x2="512.1" y2="1906.0261" gradientTransform="matrix(1 0 0 1 0 -976)">
		<stop  offset="0" style="stop-color:#A0DDF9"/>
		<stop  offset="1" style="stop-color:#6BC9F2"/>
	</linearGradient>
	<path class="st1" d="M910.3,945.6H113.9c-21.1,0-38.3-17.2-38.3-38.3V298.9c0-24,19.6-43.6,43.6-43.6H905c24,0,43.6,19.6,43.6,43.6
		v608.3C948.6,928.3,931.3,945.6,910.3,945.6z"/>
	
		<linearGradient id="SVGID_3_" gradientUnits="userSpaceOnUse" x1="75.6" y1="1249.5" x2="948.6" y2="1249.5" gradientTransform="matrix(1 0 0 1 0 -976)">
		<stop  offset="0" style="stop-color:#8AD5F7"/>
		<stop  offset="4.869445e-03" style="stop-color:#8DD6F7"/>
		<stop  offset="6.110681e-02" style="stop-color:#A0DCF8"/>
		<stop  offset="0.1308" style="stop-color:#ADE1FA"/>
		<stop  offset="0.229" style="stop-color:#B5E4FA"/>
		<stop  offset="0.5015" style="stop-color:#B7E5FA"/>
		<stop  offset="0.7724" style="stop-color:#B5E4FA"/>
		<stop  offset="0.8699" style="stop-color:#ADE1FA"/>
		<stop  offset="0.9392" style="stop-color:#A0DCF8"/>
		<stop  offset="0.9952" style="stop-color:#8DD6F7"/>
		<stop  offset="1" style="stop-color:#8AD5F7"/>
	</linearGradient>
	<path class="st2" d="M905,248H119.2c-24,0-43.6,19.6-43.6,43.6v7.4c0-24,19.6-43.6,43.6-43.6H905c24,0,43.6,19.6,43.6,43.6v-7.4
		C948.6,267.6,929,248,905,248z"/>
</g>
<path class="st3" d="M686.1,594.7v-2.8c0-15.4-18.5-23.2-29.5-12.4l-15.3,15v-99l-79.9-79.8H393.8c-18,0-32.6,14.6-32.6,32.6v288.1
	c0,18,14.6,32.6,32.6,32.6h70l-11.7,11.5c-11.1,10.9-3.4,29.7,12.2,29.7h4.6v-14h12.1v14h24.6v-14h12.1v14h24.6v-14h12.1v14h24.6
	v-14h12.1v14h24.6v-14h12.1v14H652v-14h12.1v14h4.6c9.6,0,17.4-7.8,17.4-17.4V790H676V778h10.1v-24.6H676v-12.1h10.1v-24.6H676
	v-12.1h10.1v-24.6H676V668h10.1v-24.6H676v-12.1h10.1v-24.6H676v-12.1H686.1z M407.7,739c-9.5,0-17.2-7.7-17.2-17.2v-259
	c0-9.5,7.7-17.2,17.2-17.2h147.4v23.7c-0.1,18,14.5,32.5,32.5,32.5H612v121.4L494.3,739H407.7z M612,669.4v48H612v4.5
	c0,9.5-7.7,17.2-17.2,17.2h-54L612,669.4z M652.9,766.2c0,5.4-4.4,9.8-9.8,9.8H526.9c-4.8,0-8.3-3.1-9.4-7h91.2
	c18,0,32.6-14.6,32.6-32.6v-93.3c5.6-1,11.6,3.1,11.6,9.7V766.2z"/>
</svg>
