<?xml version="1.0" encoding="utf-8"?>
<!-- Generator: Adobe Illustrator 22.1.0, SVG Export Plug-In . SVG Version: 6.00 Build 0)  -->
<svg version="1.1" id="Layer_2_copy" xmlns="http://www.w3.org/2000/svg" xmlns:xlink="http://www.w3.org/1999/xlink" x="0px"
	 y="0px" viewBox="0 0 1024 1024" style="enable-background:new 0 0 1024 1024;" xml:space="preserve">
<metadata><?xpacket begin="﻿" id="W5M0MpCehiHzreSzNTczkc9d"?>
<x:xmpmeta xmlns:x="adobe:ns:meta/" x:xmptk="Adobe XMP Core 5.6-c143 79.161356, 2017/09/07-01:11:22        ">
   <rdf:RDF xmlns:rdf="http://www.w3.org/1999/02/22-rdf-syntax-ns#">
      <rdf:Description rdf:about=""/>
   </rdf:RDF>
</x:xmpmeta>
                                                                                                    
                                                                                                    
                                                                                                    
                                                                                                    
                                                                                                    
                                                                                                    
                                                                                                    
                                                                                                    
                                                                                                    
                                                                                                    
                                                                                                    
                                                                                                    
                                                                                                    
                                                                                                    
                                                                                                    
                                                                                                    
                                                                                                    
                                                                                                    
                                                                                                    
                                                                                                    
                           
<?xpacket end="w"?></metadata>
<style type="text/css">
	.st0{fill:url(#SVGID_1_);}
	.st1{fill:url(#SVGID_2_);}
	.st2{fill:url(#SVGID_3_);}
	.st3{opacity:0.65;fill:#009DF1;}
</style>
<g>
	<g>
		
			<linearGradient id="SVGID_1_" gradientUnits="userSpaceOnUse" x1="512.3" y1="892.0401" x2="512.3" y2="782.0811" gradientTransform="matrix(1 0 0 -1 0 1024)">
			<stop  offset="0" style="stop-color:#99DBF9"/>
			<stop  offset="0.4933" style="stop-color:#8AD5F7"/>
			<stop  offset="1" style="stop-color:#85D2F5"/>
		</linearGradient>
		<path class="st0" d="M949,257c0-28.5-23.3-51.8-51.8-51.8H399.3c-15.5,0-28.1-12.6-28.1-28.1l0,0c0-28.5-23.3-51.8-51.8-51.8h-192
			c-28.5,0-51.8,23.3-51.8,51.8V257v42c0-24,19.6-43.6,43.6-43.6H905c24,0,43.6,19.6,43.6,43.6v117.8c0.3-2.1,0.4-4.3,0.4-6.5V257z"
			/>
	</g>
	
		<linearGradient id="SVGID_2_" gradientUnits="userSpaceOnUse" x1="512.1" y1="760" x2="512.1" y2="93.9738" gradientTransform="matrix(1 0 0 -1 0 1024)">
		<stop  offset="0" style="stop-color:#A0DDF9"/>
		<stop  offset="1" style="stop-color:#6BC9F2"/>
	</linearGradient>
	<path class="st1" d="M910.3,945.6H113.9c-21.1,0-38.3-17.2-38.3-38.3V298.9c0-24,19.6-43.6,43.6-43.6H905c24,0,43.6,19.6,43.6,43.6
		v608.3C948.6,928.3,931.3,945.6,910.3,945.6z"/>
	
		<linearGradient id="SVGID_3_" gradientUnits="userSpaceOnUse" x1="75.6" y1="750.5" x2="948.6" y2="750.5" gradientTransform="matrix(1 0 0 -1 0 1024)">
		<stop  offset="0" style="stop-color:#8AD5F7"/>
		<stop  offset="4.869445e-03" style="stop-color:#8DD6F7"/>
		<stop  offset="6.110681e-02" style="stop-color:#A0DCF8"/>
		<stop  offset="0.1308" style="stop-color:#ADE1FA"/>
		<stop  offset="0.229" style="stop-color:#B5E4FA"/>
		<stop  offset="0.5015" style="stop-color:#B7E5FA"/>
		<stop  offset="0.7724" style="stop-color:#B5E4FA"/>
		<stop  offset="0.8699" style="stop-color:#ADE1FA"/>
		<stop  offset="0.9392" style="stop-color:#A0DCF8"/>
		<stop  offset="0.9952" style="stop-color:#8DD6F7"/>
		<stop  offset="1" style="stop-color:#8AD5F7"/>
	</linearGradient>
	<path class="st2" d="M905,248H119.2c-24,0-43.6,19.6-43.6,43.6v7.4c0-24,19.6-43.6,43.6-43.6H905c24,0,43.6,19.6,43.6,43.6v-7.4
		C948.6,267.6,929,248,905,248z"/>
</g>
<g>
	<path class="st3" d="M633.1,681.6L633.1,681.6c-8.5-8.5-22.2-8.5-30.7,0l-33.6,33.6V524.4c0-12-9.7-21.7-21.7-21.7
		c-12,0-21.7,9.7-21.7,21.7v190.8l-33.6-33.6c-8.5-8.5-22.2-8.5-30.7,0l0,0c-8.5,8.5-8.5,22.2,0,30.7l70.6,70.6c0.5,0.5,1,1,1.6,1.5
		c0,0,0.1,0.1,0.1,0.1c0.5,0.4,1,0.8,1.6,1.2c0.1,0,0.2,0.1,0.2,0.1c0.5,0.3,1.1,0.7,1.6,1c0.1,0,0.2,0.1,0.2,0.1
		c0.6,0.3,1.1,0.5,1.7,0.8c0.1,0,0.1,0.1,0.2,0.1c0.6,0.2,1.2,0.4,1.8,0.6c0.1,0,0.1,0,0.2,0c0.6,0.2,1.3,0.3,1.9,0.5
		c0,0,0.1,0,0.1,0c0.6,0.1,1.3,0.2,2,0.3c0,0,0,0,0,0c0,0,0.1,0,0.1,0c0.7,0.1,1.3,0.1,2,0.1s1.3,0,2-0.1c0,0,0.1,0,0.1,0
		c0,0,0,0,0,0c0.7-0.1,1.3-0.2,2-0.3c0,0,0.1,0,0.1,0c0.6-0.1,1.3-0.3,1.9-0.5c0.1,0,0.1,0,0.2,0c0.6-0.2,1.2-0.4,1.8-0.6
		c0.1,0,0.1-0.1,0.2-0.1c0.6-0.2,1.1-0.5,1.7-0.8c0.1,0,0.2-0.1,0.2-0.1c0.6-0.3,1.1-0.6,1.6-1c0.1,0,0.2-0.1,0.2-0.1
		c0.5-0.4,1.1-0.8,1.6-1.2c0,0,0.1-0.1,0.1-0.1c0.6-0.5,1.1-0.9,1.6-1.5l70.6-70.6C641.5,703.8,641.5,690.1,633.1,681.6z"/>
	<path class="st3" d="M710,555.7c0-87.4-71.1-158.4-158.4-158.4c-29.7,0-58.7,8.3-83.8,23.9c-21.3,13.3-39.1,31.4-52,52.8
		c-69,4.2-123.8,61.7-123.8,131.7c0,64.2,46,117.8,106.8,129.6c2.1,0.8,7.4,1.3,7.8,1.3c0.5,0.1,1.4-0.1,1.4-0.1
		c8.8-1.2,15.6-8.8,15.6-17.9c0-9.2-6.8-16.7-15.6-17.9v0c-45.5-7.6-80.2-47.2-80.2-94.8c0-53,43.1-96.2,96.2-96.2
		c0.7,0,1.4,0,2.1,0l11.2,0.2l5.1-10c21.1-41.2,63-66.8,109.2-66.8c67.6,0,122.6,55,122.6,122.6c0,28.5-9.8,54.8-26.2,75.7
		c-1.5,1.6-5.7,9.6-6,12.4c0,0.3-0.1,0.7-0.1,1c0,10,8.1,18.2,18.2,18.2c6.9,0,12.9-3.8,16-9.5C697.3,626.5,710,592.5,710,555.7z"/>
</g>
</svg>
