<?xml version="1.0" encoding="utf-8"?>
<!-- Generator: Adobe Illustrator 21.1.0, SVG Export Plug-In . SVG Version: 6.00 Build 0)  -->
<svg version="1.1" id="Layer_2_copy" xmlns="http://www.w3.org/2000/svg" xmlns:xlink="http://www.w3.org/1999/xlink" x="0px"
	 y="0px" viewBox="0 0 1024 1024" style="enable-background:new 0 0 1024 1024;" xml:space="preserve">
<style type="text/css">
	.st0{fill:url(#SVGID_1_);}
	.st1{fill:url(#SVGID_2_);}
	.st2{fill:url(#SVGID_3_);}
	.st3{opacity:0.65;fill:#009DF1;}
</style>
<g>
	<g>
		
			<linearGradient id="SVGID_1_" gradientUnits="userSpaceOnUse" x1="512.3" y1="-81.96" x2="512.3" y2="-191.9189" gradientTransform="matrix(1 0 0 -1 0 50)">
			<stop  offset="0" style="stop-color:#99DBF9"/>
			<stop  offset="0.4933" style="stop-color:#8AD5F7"/>
			<stop  offset="1" style="stop-color:#85D2F5"/>
		</linearGradient>
		<path class="st0" d="M949,257c0-28.5-23.3-51.8-51.8-51.8H399.3c-15.5,0-28.1-12.6-28.1-28.1l0,0c0-28.5-23.3-51.8-51.8-51.8h-192
			c-28.5,0-51.8,23.3-51.8,51.8V257v42c0-24,19.6-43.6,43.6-43.6H905c24,0,43.6,19.6,43.6,43.6v117.8c0.3-2.1,0.4-4.3,0.4-6.5V257z"
			/>
	</g>
	
		<linearGradient id="SVGID_2_" gradientUnits="userSpaceOnUse" x1="512.1" y1="-214" x2="512.1" y2="-880.0261" gradientTransform="matrix(1 0 0 -1 0 50)">
		<stop  offset="0" style="stop-color:#A0DDF9"/>
		<stop  offset="1" style="stop-color:#6BC9F2"/>
	</linearGradient>
	<path class="st1" d="M910.3,945.6H113.9c-21.1,0-38.3-17.2-38.3-38.3V298.9c0-24,19.6-43.6,43.6-43.6H905c24,0,43.6,19.6,43.6,43.6
		v608.3C948.6,928.3,931.3,945.6,910.3,945.6z"/>
	
		<linearGradient id="SVGID_3_" gradientUnits="userSpaceOnUse" x1="75.6" y1="-223.5" x2="948.6" y2="-223.5" gradientTransform="matrix(1 0 0 -1 0 50)">
		<stop  offset="0" style="stop-color:#8AD5F7"/>
		<stop  offset="4.869445e-03" style="stop-color:#8DD6F7"/>
		<stop  offset="6.110681e-02" style="stop-color:#A0DCF8"/>
		<stop  offset="0.1308" style="stop-color:#ADE1FA"/>
		<stop  offset="0.229" style="stop-color:#B5E4FA"/>
		<stop  offset="0.5015" style="stop-color:#B7E5FA"/>
		<stop  offset="0.7724" style="stop-color:#B5E4FA"/>
		<stop  offset="0.8699" style="stop-color:#ADE1FA"/>
		<stop  offset="0.9392" style="stop-color:#A0DCF8"/>
		<stop  offset="0.9952" style="stop-color:#8DD6F7"/>
		<stop  offset="1" style="stop-color:#8AD5F7"/>
	</linearGradient>
	<path class="st2" d="M905,248H119.2c-24,0-43.6,19.6-43.6,43.6v7.4c0-24,19.6-43.6,43.6-43.6H905c24,0,43.6,19.6,43.6,43.6v-7.4
		C948.6,267.6,929,248,905,248z"/>
</g>
<path class="st3" d="M650.4,607.3L419.4,447.1c-6.7-4.7-16,0.2-16,8.4v320.3c0,8.2,9.2,13,16,8.4L650.4,624
	C656.2,619.9,656.2,611.4,650.4,607.3z"/>
</svg>
