<?xml version="1.0" encoding="UTF-8" standalone="no"?>
<!-- Generator: Adobe Illustrator 21.1.0, SVG Export Plug-In . SVG Version: 6.00 Build 0)  -->
<!-- Artist: @KevDoy for Trenta.io -->
<svg
   xmlns:dc="http://purl.org/dc/elements/1.1/"
   xmlns:cc="http://creativecommons.org/ns#"
   xmlns:rdf="http://www.w3.org/1999/02/22-rdf-syntax-ns#"
   xmlns:svg="http://www.w3.org/2000/svg"
   xmlns="http://www.w3.org/2000/svg"
   xmlns:sodipodi="http://sodipodi.sourceforge.net/DTD/sodipodi-0.dtd"
   xmlns:inkscape="http://www.inkscape.org/namespaces/inkscape"
   version="1.1"
   x="0px"
   y="0px"
   viewBox="0 0 1024 1024"
   style="enable-background:new 0 0 1024 1024;"
   xml:space="preserve"
   id="svg64"
   sodipodi:docname="user-trash.svg"
   inkscape:version="0.92.3 (2405546, 2018-03-11)"><metadata
   id="metadata70"><rdf:RDF><cc:Work
       rdf:about=""><dc:format>image/svg+xml</dc:format><dc:type
         rdf:resource="http://purl.org/dc/dcmitype/StillImage" /><dc:title></dc:title></cc:Work></rdf:RDF></metadata><defs
   id="defs68"><filter
     inkscape:collect="always"
     style="color-interpolation-filters:sRGB"
     id="filter4870"
     x="-0.30222704"
     width="1.6044541"
     y="-0.3813261"
     height="1.7626522"><feGaussianBlur
       inkscape:collect="always"
       stdDeviation="36.0251"
       id="feGaussianBlur4872" /></filter><filter
     inkscape:collect="always"
     style="color-interpolation-filters:sRGB"
     id="filter5352"
     x="-0.58520231"
     width="2.1704046"
     y="-0.2251618"
     height="1.4503236"><feGaussianBlur
       inkscape:collect="always"
       stdDeviation="38.490017"
       id="feGaussianBlur5354" /></filter></defs><sodipodi:namedview
   pagecolor="#ffffff"
   bordercolor="#666666"
   borderopacity="1"
   objecttolerance="10"
   gridtolerance="10"
   guidetolerance="10"
   inkscape:pageopacity="0"
   inkscape:pageshadow="2"
   inkscape:window-width="1920"
   inkscape:window-height="1026"
   id="namedview66"
   showgrid="false"
   inkscape:zoom="0.45254834"
   inkscape:cx="536.156"
   inkscape:cy="628.14307"
   inkscape:window-x="0"
   inkscape:window-y="26"
   inkscape:window-maximized="1"
   inkscape:current-layer="Layer_6" />
<style
   type="text/css"
   id="style2">
	.st0{fill:#00FF00;}
	.st1{fill:url(#SVGID_1_);}
	.st2{opacity:0.8;fill:url(#SVGID_2_);}
	.st3{fill:url(#SVGID_3_);}
</style>
<g
   id="Layer_4">
	
</g>
<g
   id="Layer_6">
	<g
   id="g18">
		<linearGradient
   id="SVGID_1_"
   gradientUnits="userSpaceOnUse"
   x1="221.2269"
   y1="565.7185"
   x2="825.4594"
   y2="565.7185">
			<stop
   offset="0"
   style="stop-color:#DADBDE"
   id="stop7" />
			<stop
   offset="0.3219"
   style="stop-color:#E6E7E9"
   id="stop9" />
			<stop
   offset="0.7074"
   style="stop-color:#DADBDE"
   id="stop11" />
			<stop
   offset="1"
   style="stop-color:#E6E7E9"
   id="stop13" />
		</linearGradient>
		<path
   class="st1"
   d="M512,239c-190,0-345.5-34.5-359-78.3L231,788c0,0,14,132,119,161s219,29,324,0s119-161,119-161l78-627.3    C857.5,204.5,702,239,512,239z"
   id="path16" />
	</g>
	<g
   id="g60">
		<linearGradient
   id="SVGID_2_"
   gradientUnits="userSpaceOnUse"
   x1="152"
   y1="154.5"
   x2="872"
   y2="154.5">
			<stop
   offset="0"
   style="stop-color:#EFEFEF"
   id="stop20" />
			<stop
   offset="4.587660e-02"
   style="stop-color:#E2E2E4"
   id="stop22" />
			<stop
   offset="0.105"
   style="stop-color:#D9DADC"
   id="stop24" />
			<stop
   offset="0.1929"
   style="stop-color:#D6D7DA"
   id="stop26" />
			<stop
   offset="0.2131"
   style="stop-color:#D8D9DC"
   id="stop28" />
			<stop
   offset="0.386"
   style="stop-color:#E9E9EA"
   id="stop30" />
			<stop
   offset="0.5167"
   style="stop-color:#EFEFEF"
   id="stop32" />
			<stop
   offset="0.6553"
   style="stop-color:#ECECED"
   id="stop34" />
			<stop
   offset="0.7465"
   style="stop-color:#E4E4E5"
   id="stop36" />
			<stop
   offset="0.8181"
   style="stop-color:#D6D7DA"
   id="stop38" />
			<stop
   offset="0.9046"
   style="stop-color:#D9D9DC"
   id="stop40" />
			<stop
   offset="0.9572"
   style="stop-color:#E1E2E3"
   id="stop42" />
			<stop
   offset="1"
   style="stop-color:#EFEFEF"
   id="stop44" />
		</linearGradient>
		<ellipse
   class="st2"
   cx="512"
   cy="154.5"
   rx="360"
   ry="84.5"
   id="ellipse47" />
		<linearGradient
   id="SVGID_3_"
   gradientUnits="userSpaceOnUse"
   x1="152"
   y1="154.5"
   x2="872"
   y2="154.5">
			<stop
   offset="0"
   style="stop-color:#DADBDE"
   id="stop49" />
			<stop
   offset="0.3219"
   style="stop-color:#E6E7E9"
   id="stop51" />
			<stop
   offset="0.7074"
   style="stop-color:#DADBDE"
   id="stop53" />
			<stop
   offset="1"
   style="stop-color:#E6E7E9"
   id="stop55" />
		</linearGradient>
		<path
   class="st3"
   d="M512,76c95.7,0,185.6,8.7,253.2,24.6c32.5,7.6,58,16.5,75.6,26.3c11.5,6.4,25.2,16.4,25.2,27.6    s-13.7,21.3-25.2,27.6c-17.6,9.8-43.1,18.6-75.6,26.3C697.6,224.3,607.7,233,512,233s-185.6-8.7-253.2-24.6    c-32.5-7.6-58-16.5-75.6-26.3c-11.5-6.4-25.2-16.4-25.2-27.6s13.7-21.3,25.2-27.6c17.6-9.8,43.1-18.6,75.6-26.3    C326.4,84.7,416.3,76,512,76 M512,70c-198.8,0-360,37.8-360,84.5S313.2,239,512,239s360-37.8,360-84.5S710.8,70,512,70L512,70z"
   id="path58" />
	</g>
<path
   style="fill:#ffffff;stroke:none;stroke-width:1px;stroke-linecap:butt;stroke-linejoin:miter;stroke-opacity:1;fill-opacity:1;filter:url(#filter4870);opacity:0.396"
   d="M 278.125,860.71875 C 277.08333,856.8125 276.14073,852.87848 275,849 c -0.16431,-0.55865 -0.62128,-1.0026 -0.78125,-1.5625 -0.36479,-1.27678 -0.39969,-2.63438 -0.78125,-3.90625 -0.40297,-1.34324 -1.01007,-2.61725 -1.5625,-3.90625 -0.22938,-0.53523 -0.62128,-1.0026 -0.78125,-1.5625 -0.36479,-1.27678 -0.52083,-2.60417 -0.78125,-3.90625 -0.26042,-1.30208 -0.56295,-2.59645 -0.78125,-3.90625 -0.0428,-0.25687 0.0632,-0.52861 0,-0.78125 -0.19973,-0.79892 -0.58152,-1.54483 -0.78125,-2.34375 -0.0632,-0.25264 0.0428,-0.52438 0,-0.78125 -0.73905,-4.43432 -1.46211,-8.87306 -2.34375,-13.28125 -0.32301,-1.61504 -1.08923,-3.10994 -1.5625,-4.6875 -0.54477,-1.81591 -1.10268,-3.62949 -1.5625,-5.46875 C 262.9592,801.61803 262.88156,800.27187 262.5,799 c -0.40297,-1.34324 -1.15953,-2.56301 -1.5625,-3.90625 -0.38156,-1.27187 -0.36134,-2.64652 -0.78125,-3.90625 -0.36828,-1.10486 -0.96331,-2.12635 -1.5625,-3.125 -0.37896,-0.6316 -1.2331,-0.90369 -1.5625,-1.5625 -0.11646,-0.23292 0,-0.52083 0,-0.78125 0,-5.34155 -0.32682,-19.97114 0.78125,-24.21875 0.56547,-2.16765 2.83353,-3.5021 3.90625,-5.46875 0.51416,-0.94262 0.17008,-2.24219 0.78125,-3.125 1.78495,-2.57826 4.33805,-4.54572 6.25,-7.03125 0.71008,-0.92311 0.73899,-2.30149 1.5625,-3.125 2.09955,-2.09955 4.73321,-3.58854 7.03125,-5.46875 0.57007,-0.46642 0.94964,-1.15393 1.5625,-1.5625 0.21455,-0.14303 2.9564,0.0562 3.125,0 5.50168,-1.83389 5.08018,-2.51204 10.15625,-4.6875 0.23936,-0.10258 0.52386,0.0396 0.78125,0 3.13127,-0.48173 6.23874,-1.11446 9.375,-1.5625 0.5156,-0.0737 1.09665,0.23292 1.5625,0 1.16462,-0.58231 1.96038,-1.76144 3.125,-2.34375 0.46585,-0.23292 1.06002,0.13704 1.5625,0 2.38348,-0.65004 4.64777,-1.69371 7.03125,-2.34375 0.75372,-0.20556 1.5625,0 2.34375,0 1.5625,0 3.125,0 4.6875,0 4.94792,0 9.89583,0 14.84375,0 3.90625,0 7.8125,0 11.71875,0 2.91105,0 4.92833,-0.18014 7.8125,0.78125 0.34939,0.11646 0.45185,0.61655 0.78125,0.78125 0.23293,0.11646 0.59711,-0.18414 0.78125,0 0.18414,0.18414 -0.21191,0.62988 0,0.78125 1.70847,1.22034 3.59086,2.18605 5.46875,3.125 0.55306,2.38208 2.16463,0.30106 3.125,0.78125 1.87789,0.93894 3.59086,2.18605 5.46875,3.125 1.25433,0.62717 2.55782,1.17723 3.90625,1.5625 0.5008,0.14308 1.12914,-0.28891 1.5625,0 1.22573,0.81715 2.00651,2.16629 3.125,3.125 0.7129,0.61106 1.67982,0.89856 2.34375,1.5625 0.41176,0.41175 0.45824,1.07799 0.78125,1.5625 0.20429,0.30643 0.52083,0.52083 0.78125,0.78125 1.30208,1.30208 2.52044,2.69366 3.90625,3.90625 1.17517,1.02827 2.25837,1.18824 3.125,2.34375 0.56337,0.75116 0.89857,1.67981 1.5625,2.34375 9.3346,9.33459 -3.48773,-5.4862 6.25,5.46875 1.10782,1.24629 1.94591,2.72716 3.125,3.90625 5.23114,5.23113 2.12464,1.41642 7.03125,4.6875 0.61286,0.40857 1.04167,1.04167 1.5625,1.5625 0.78125,0.78125 1.48101,1.65355 2.34375,2.34375 1.85505,1.48404 1.99169,0.30261 3.90625,0.78125 3.83702,0.95925 10.07092,2.19276 14.0625,4.6875 1.10417,0.6901 2.10825,1.53034 3.125,2.34375 0.57517,0.46013 0.94964,1.15392 1.5625,1.5625 1.26345,0.8423 2.67062,1.46115 3.90625,2.34375 5.82987,4.16419 -3.64385,-1.31624 3.90625,3.125 3.64583,2.08333 7.29167,4.16667 10.9375,6.25 1.30209,1.30208 2.3977,2.85026 3.90625,3.90625 1.14888,0.80422 2.68864,0.86672 3.90625,1.5625 0.63952,0.36544 0.99665,1.09096 1.5625,1.5625 1.00029,0.83357 2.10825,1.53034 3.125,2.34375 1.91503,1.53202 -0.30728,1.76434 0.78125,3.125 0.81341,1.01676 2.20429,1.42304 3.125,2.34375 0.66394,0.66393 0.89857,1.67981 1.5625,2.34375 0.41176,0.41175 1.15075,0.36949 1.5625,0.78125 0.39063,0.39062 -0.39062,1.95312 0,2.34375 0.18414,0.18414 0.55795,-0.13398 0.78125,0 1.11653,0.66992 2.05829,1.59705 3.125,2.34375 1.53843,1.0769 3.1594,2.0335 4.6875,3.125 6.25064,4.46474 -26.79687,-3.44984 14.84375,3.125 0.25723,0.0406 0.52084,0 0.78125,0 3.90625,0 7.84677,-0.51627 11.71875,0 0.51627,0.0688 -0.26796,1.11589 0,1.5625 1.91981,3.19968 2.34898,1.56772 4.6875,3.90625 0.92071,0.92071 1.53035,2.10824 2.34375,3.125 0.23007,0.28758 0.61655,0.45185 0.78125,0.78125 0.11646,0.23292 -0.14445,0.56457 0,0.78125 0.79182,1.18773 5.4013,4.62005 5.46875,4.6875 0.41176,0.41175 0.52084,1.04167 0.78125,1.5625 0.78125,0.78125 1.48101,1.65355 2.34375,2.34375 0.45471,0.36377 1.23949,0.29674 1.5625,0.78125 0.28891,0.43336 -0.23292,1.09665 0,1.5625 2.76366,5.52732 0.63768,-2.91804 2.34375,3.90625 0.0802,0.32075 -0.0947,1.4678 0,1.5625 0.41176,0.41175 1.15075,0.36949 1.5625,0.78125 0.36123,0.36122 2.80431,3.40471 3.125,4.6875 0.14393,0.5757 -0.22886,3.44853 0,3.90625 0.41991,0.83982 1.26558,1.45299 1.5625,2.34375 3.02075,1.54023 0.42012,3.66308 0.78125,5.46875 0.21058,1.05287 0.57068,2.07213 0.78125,3.125 0.14886,0.74428 -0.18387,1.60827 0,2.34375 0.39946,1.59784 1.23949,3.07246 1.5625,4.6875 0.10215,0.51072 -0.19343,1.07892 0,1.5625 0.34872,0.87179 1.26558,1.45299 1.5625,2.34375 0.24705,0.74116 -0.12843,1.57313 0,2.34375 0.13539,0.8123 0.66479,1.52852 0.78125,2.34375 0.19767,1.38369 0,4.58702 0,6.25 0,1.5625 0,3.125 0,4.6875 0,0.78125 0.0969,1.56853 0,2.34375 -0.99404,7.95233 -0.0572,1.71492 -2.34375,7.8125 -2.17496,5.79989 -0.16647,0.99886 -0.78125,4.6875 -1.94168,11.65012 0.29512,-3.81935 -1.5625,5.46875 -0.17383,0.86917 0,2.88848 0,3.90625 0,0.26042 0.18414,0.59711 0,0.78125 -0.66393,0.66393 -1.5625,1.04167 -2.34375,1.5625 -0.78125,0.52083 -1.50393,1.14259 -2.34375,1.5625 -0.73657,0.36828 -1.68494,0.28714 -2.34375,0.78125 -0.46585,0.34939 -0.36949,1.15074 -0.78125,1.5625 -0.92071,0.92071 -2.29142,1.34346 -3.125,2.34375 -0.5272,0.63264 -0.41296,1.60718 -0.78125,2.34375 -0.1647,0.3294 -0.56719,0.48156 -0.78125,0.78125 -1.0915,1.5281 -2.0335,3.1594 -3.125,4.6875 -0.21406,0.29969 -0.61655,0.45185 -0.78125,0.78125 -0.11646,0.23292 0.18414,0.59711 0,0.78125 -0.18414,0.18414 -0.52083,0 -0.78125,0 -0.26041,0 -0.52083,0 -0.78125,0 -0.42933,0 -5.47073,-0.15585 -6.25,0 -4.7086,0.94172 -9.36365,2.13577 -14.0625,3.125 -0.25483,0.0536 -0.52083,0 -0.78125,0 -1.04166,0.26042 -2.0949,0.47828 -3.125,0.78125 -3.39812,0.99945 -6.75048,2.15192 -10.15625,3.125 -0.2504,0.0715 -0.5342,-0.0824 -0.78125,0 -1.33042,0.44347 -2.57583,1.11903 -3.90625,1.5625 -0.24705,0.0824 -0.54832,-0.11646 -0.78125,0 -0.83982,0.41991 -1.44093,1.30455 -2.34375,1.5625 -1.00159,0.28617 -2.08333,0 -3.125,0 -0.26041,0 -0.5342,-0.0824 -0.78125,0 -0.55243,0.18414 -1.01978,0.57019 -1.5625,0.78125 -4.14742,1.61289 -8.30369,3.20645 -12.5,4.6875 -0.24557,0.0867 -0.59711,-0.18414 -0.78125,0 -0.18414,0.18414 0.18414,0.59711 0,0.78125 -0.18414,0.18414 -0.52083,0 -0.78125,0 -0.52083,0 -1.04166,0 -1.5625,0 -1.5625,0 -3.125,0 -4.6875,0 -2.34375,0 -4.6875,0 -7.03125,0 -0.84008,0 -2.24504,0.17599 -3.125,0 -1.05287,-0.21058 -2.07212,-0.57068 -3.125,-0.78125 -0.25536,-0.0511 -0.5342,0.0824 -0.78125,0 -0.55243,-0.18414 -1.04167,-0.52083 -1.5625,-0.78125 -1.04167,-0.52083 -2.04368,-1.12997 -3.125,-1.5625 -0.48358,-0.19343 -1.05722,0.12632 -1.5625,0 -2.39676,-0.59919 -4.65578,-1.66504 -7.03125,-2.34375 -0.94436,-0.26982 -2.22567,0.38543 -3.125,0 -1.3957,-0.59816 -2.54808,-1.66467 -3.90625,-2.34375 -0.3409,-0.17045 -1.87981,0.058 -2.34375,0 -1.8272,-0.2284 -3.65703,-0.45185 -5.46875,-0.78125 -1.0564,-0.19207 -2.07684,-0.54833 -3.125,-0.78125 -1.29625,-0.28806 -2.62517,-0.43186 -3.90625,-0.78125 -1.58898,-0.43336 -3.10385,-1.11003 -4.6875,-1.5625 -0.2504,-0.0715 -0.52242,0.0288 -0.78125,0 -2.0867,-0.23186 -4.16329,-0.54939 -6.25,-0.78125 -0.51765,-0.0575 -1.05178,0.10214 -1.5625,0 -2.3543,-0.47086 -4.67695,-1.09164 -7.03125,-1.5625 -0.25536,-0.0511 -0.52861,0.0632 -0.78125,0 -2.2034,-0.55085 -6.45608,-2.52215 -7.8125,-3.125 -0.53212,-0.2365 -1.01007,-0.59711 -1.5625,-0.78125 -0.24705,-0.0824 -0.5342,0.0824 -0.78125,0 -7.91012,-2.63671 -0.22487,-0.40245 -7.03125,-3.125 -0.24179,-0.0967 -0.52861,0.0632 -0.78125,0 -1.83925,-0.45981 -3.6936,-0.89682 -5.46875,-1.5625 -0.34483,-0.12931 -0.43186,-0.66479 -0.78125,-0.78125 -0.4941,-0.1647 -1.07892,0.19343 -1.5625,0 -0.87179,-0.34872 -1.53861,-1.07942 -2.34375,-1.5625 -0.49932,-0.2996 -1.04167,-0.52083 -1.5625,-0.78125 -1.04167,-0.52083 -2.02014,-1.19422 -3.125,-1.5625 -0.35733,-0.11911 -2.77736,0.17382 -3.125,0 -1.35817,-0.67908 -2.58784,-1.59037 -3.90625,-2.34375 -0.50558,-0.28891 -0.99758,-0.64002 -1.5625,-0.78125 -0.50528,-0.12632 -1.05407,0.11298 -1.5625,0 -1.85071,-0.41127 -3.62949,-1.10269 -5.46875,-1.5625 -0.7923,-0.19807 -2.50509,0.41327 -3.125,0 -1.22572,-0.81715 -1.87578,-2.34424 -3.125,-3.125 -3.99655,-2.49784 -1.90117,-0.38023 -3.90625,-0.78125 -5.07166,-1.01433 -1.43721,-0.23733 -6.25,-3.125 -0.76311,-0.45787 -0.79938,0.45787 -1.5625,0 -9.86681,-5.92009 0.26401,0.264 -3.90625,-3.90625 -0.18414,-0.18414 -0.58119,0.16671 -0.78125,0 -1.41462,-1.17885 -2.60417,-2.60417 -3.90625,-3.90625 -0.52083,-0.52083 -0.97324,-1.12056 -1.5625,-1.5625 -0.46585,-0.34939 -1.15074,-0.3695 -1.5625,-0.78125 -3.3061,1.2431 -1.11897,-2.45971 -1.5625,-3.125 -1.67753,-2.5163 -2.31642,-3.09767 -3.90625,-4.6875 -0.52083,-0.52083 -1.10237,-0.98734 -1.5625,-1.5625 -0.8134,-1.01676 -1.53034,-2.10824 -2.34375,-3.125 -0.23006,-0.28758 -0.52083,-0.52083 -0.78125,-0.78125 -1.04167,-1.04167 -2.08333,-2.08333 -3.125,-3.125 -0.52083,-0.52083 -0.94964,-1.15393 -1.5625,-1.5625 -0.21668,-0.14445 -0.52083,0 -0.78125,0 -0.78125,-0.52083 -1.62243,-0.9614 -2.34375,-1.5625 -0.84877,-0.70731 -1.39634,-1.77531 -2.34375,-2.34375 -0.44661,-0.26797 -1.1558,0.32536 -1.5625,0 -1.01676,-0.81341 -1.34346,-2.29143 -2.34375,-3.125 -0.63264,-0.5272 -1.60718,-0.41297 -2.34375,-0.78125 -0.3294,-0.1647 -0.54157,-0.50163 -0.78125,-0.78125 -1.32366,-1.54427 -2.82827,-2.96274 -3.90625,-4.6875 -0.11787,-0.18859 0,-3.35122 0,-3.90625 0,-0.26042 0,-0.52083 0,-0.78125 0,-0.26042 0.11646,-0.54833 0,-0.78125 -0.96539,-1.93079 -0.78125,0.26967 -0.78125,-1.5625 0,-0.26042 -0.0824,-0.5342 0,-0.78125 0.59848,-1.79542 0.33276,-1.5625 1.5625,-1.5625 0.26042,0 0.59711,0.18414 0.78125,0 0.18414,-0.18414 -0.18414,-0.59711 0,-0.78125 0.18414,-0.18414 0.52083,0 0.78125,0 1.04167,0 2.08333,0 3.125,0 z"
   id="path3775"
   inkscape:connector-curvature="0" /></g>
<g
   id="Layer_7">
</g>
<path
   style="fill:#ffffff;fill-opacity:1;stroke:none;stroke-width:1px;stroke-linecap:butt;stroke-linejoin:miter;stroke-opacity:1;opacity:0.459;filter:url(#filter5352)"
   d="m 610.15625,903.6875 c 0,0 142.1875,-139.84375 119.53125,-317.96875 -22.65625,-178.125 29.6875,45.3125 29.6875,45.3125 0,0 -8.59375,214.84375 -56.25,252.34375 C 655.46875,920.875 575,949 610.15625,903.6875 Z"
   id="path5114"
   inkscape:connector-curvature="0" /></svg>