<?xml version="1.0" encoding="utf-8"?>
<!-- Generator: Adobe Illustrator 21.1.0, SVG Export Plug-In . SVG Version: 6.00 Build 0)  -->
<svg version="1.1" id="Layer_2" xmlns="http://www.w3.org/2000/svg" xmlns:xlink="http://www.w3.org/1999/xlink" x="0px" y="0px"
	 viewBox="0 0 256 256" style="enable-background:new 0 0 256 256;" xml:space="preserve">
<style type="text/css">
	.st0{fill:#231F20;}
</style>
<path class="st0" d="M66.5,96.4H14.7c-3.6,0-6.5,2.9-6.5,6.5v55.5c0,3.6,2.9,6.5,6.5,6.5h51.7c1.7,0,3.4,0.7,4.6,1.9l33.8,33.8
	c4.1,4.1,11.1,1.2,11.1-4.6V65.7c0-5.8-7-8.7-11.1-4.6L71,94.5C69.8,95.7,68.2,96.4,66.5,96.4z"/>
<g>
	<path d="M171.4,129.6L154.2,108c-1-1.3-0.1-3.2,1.5-3.2H167c0.6,0,1.2,0.3,1.5,0.7l10.4,13c0.8,1,2.3,1,3.1,0l10.6-13.1
		c0.4-0.5,0.9-0.7,1.5-0.7h11.3c1.7,0,2.6,1.9,1.5,3.2l-17.2,21.7c-0.6,0.7-0.6,1.8,0,2.5l17.5,21.6c1,1.3,0.1,3.2-1.5,3.2h-11.3
		c-0.6,0-1.2-0.3-1.5-0.7l-10.8-13.3c-0.8-1-2.3-1-3.1,0l-10.7,13.3c-0.4,0.5-0.9,0.7-1.5,0.7h-11.3c-1.7,0-2.6-1.9-1.5-3.2
		l17.4-21.7C172,131.3,172,130.3,171.4,129.6z"/>
</g>
</svg>
