<?xml version="1.0" encoding="utf-8"?>
<!-- Generator: Adobe Illustrator 21.1.0, SVG Export Plug-In . SVG Version: 6.00 Build 0)  -->
<svg version="1.1" id="Layer_2" xmlns="http://www.w3.org/2000/svg" xmlns:xlink="http://www.w3.org/1999/xlink" x="0px" y="0px"
	 viewBox="0 0 256 256" style="enable-background:new 0 0 256 256;" xml:space="preserve">
<style type="text/css">
	.st0{fill:#231F20;}
</style>
<path class="st0" d="M66.5,96.4H14.7c-3.6,0-6.5,2.9-6.5,6.5v55.5c0,3.6,2.9,6.5,6.5,6.5h51.7c1.7,0,3.4,0.7,4.6,1.9l33.8,33.8
	c4.1,4.1,11.1,1.2,11.1-4.6V65.7c0-5.8-7-8.7-11.1-4.6L71,94.5C69.8,95.7,68.2,96.4,66.5,96.4z"/>
<path class="st0" d="M147.1,177.4c-1.7,0-3.4-0.6-4.6-1.9c-2.5-2.6-2.5-6.7,0.1-9.2c11.8-11.7,17.7-23.9,17.3-36.2
	c-0.6-19.8-16.8-34.3-17-34.4c-2.7-2.4-3-6.5-0.6-9.2c2.4-2.7,6.4-3,9.1-0.7c0.8,0.7,20.7,18.2,21.5,43.7c0.5,16.2-6.6,31.7-21.2,46
	C150.4,176.8,148.7,177.4,147.1,177.4z"/>
</svg>
