<?xml version="1.0" encoding="utf-8"?>
<!-- Generator: Adobe Illustrator 21.1.0, SVG Export Plug-In . SVG Version: 6.00 Build 0)  -->
<svg version="1.1" id="Layer_1" xmlns="http://www.w3.org/2000/svg" xmlns:xlink="http://www.w3.org/1999/xlink" x="0px" y="0px"
	 viewBox="0 0 181.6 181.6" style="enable-background:new 0 0 181.6 181.6;" xml:space="preserve">
<g id="Layer_2_copy">
	<path d="M178,102.4h-5.9c-1.5,0-2.8-1.2-2.8-2.8V82.1c0-1.5,1.2-2.8,2.8-2.8h5.9c1.5,0,2.8,1.2,2.8,2.8v17.5
		C180.8,101.1,179.5,102.4,178,102.4z"/>
</g>
<path d="M176.4,102.4h-2.7c-2.4,0-4.4-2-4.4-4.4V83.8c0-2.4,2-4.4,4.4-4.4h2.7c2.4,0,4.4,2,4.4,4.4V98
	C180.8,100.4,178.8,102.4,176.4,102.4z"/>
<path d="M159.2,48.1H8.4c-4.2,0-7.6,3.4-7.6,7.6V126c0,4.2,3.4,7.6,7.6,7.6h150.7c4.2,0,7.6-3.4,7.6-7.6V55.7
	C166.8,51.5,163.4,48.1,159.2,48.1z M159.7,122.8c0,2.1-1.7,3.8-3.8,3.8H11.6c-2.1,0-3.8-1.7-3.8-3.8V58.9c0-2.1,1.7-3.8,3.8-3.8
	h144.3c2.1,0,3.8,1.7,3.8,3.8V122.8z"/>
<g>
	<path d="M72.9,89.6L55.7,68c-1-1.3-0.1-3.2,1.5-3.2h11.3c0.6,0,1.2,0.3,1.5,0.7l10.4,13c0.8,1,2.3,1,3.1,0l10.6-13.1
		c0.4-0.5,0.9-0.7,1.5-0.7h11.3c1.7,0,2.6,1.9,1.5,3.2L91.2,89.6c-0.6,0.7-0.6,1.8,0,2.5l17.5,21.6c1,1.3,0.1,3.2-1.5,3.2H95.9
		c-0.6,0-1.2-0.3-1.5-0.7l-10.8-13.3c-0.8-1-2.3-1-3.1,0l-10.7,13.3c-0.4,0.5-0.9,0.7-1.5,0.7H57c-1.7,0-2.6-1.9-1.5-3.2L72.9,92
		C73.5,91.3,73.5,90.3,72.9,89.6z"/>
</g>
</svg>
