<?xml version="1.0" encoding="utf-8"?>
<!-- Generator: Adobe Illustrator 22.1.0, SVG Export Plug-In . SVG Version: 6.00 Build 0)  -->
<svg version="1.1" id="Layer_2_1_" xmlns="http://www.w3.org/2000/svg" xmlns:xlink="http://www.w3.org/1999/xlink" x="0px" y="0px"
	 viewBox="0 0 256 256" style="enable-background:new 0 0 256 256;" xml:space="preserve">
<style type="text/css">
	.st0{fill:#231F20;}
</style>
<path class="st0" d="M191.5,73.3L123.3,7c-1.7-1.6-4.4-0.4-4.4,1.9l-0.2,86c0,2.3-2.8,3.5-4.5,1.8L78.1,60.7c-1-1-2.7-1-3.7,0
	L63.6,71.6c-1,1-1,2.7,0,3.7l49.1,49.1c1,1,1,2.7,0,3.7l-50,50c-1,1-1,2.7,0,3.7l10.8,10.8c1,1,2.7,1,3.7,0l36.8-36.8
	c1.7-1.7,4.5-0.5,4.5,1.9l-0.2,87c0,2.3,2.8,3.5,4.5,1.9l68.7-68.7c1-1,1-2.7,0-3.7L145.4,128c-1-1-1-2.7,0-3.7L191.6,77
	C192.6,76,192.6,74.3,191.5,73.3z M143.8,55.6l18.6,18.1c1,1,1.1,2.7,0,3.7l-18.7,19.1c-1.6,1.7-4.5,0.5-4.5-1.8l0.1-37.2
	C139.3,55.2,142.1,54,143.8,55.6z M139.1,194.9l0.1-37.8c0-2.3,2.8-3.5,4.5-1.8l18.8,18.8c1,1,1,2.7,0,3.7l-18.9,18.9
	C141.9,198.4,139,197.2,139.1,194.9z"/>
</svg>
