<?xml version="1.0" encoding="utf-8"?>
<!-- Generator: Adobe Illustrator 21.1.0, SVG Export Plug-In . SVG Version: 6.00 Build 0)  -->
<svg version="1.1" id="Layer_2" xmlns="http://www.w3.org/2000/svg" xmlns:xlink="http://www.w3.org/1999/xlink" x="0px" y="0px"
	 viewBox="0 0 256 256" style="enable-background:new 0 0 256 256;" xml:space="preserve">
<style type="text/css">
	.st0{fill:#231F20;}
</style>
<g>
	<path class="st0" d="M213.8,203.4L150,139.5c8.1-10.4,12.9-23.4,12.9-37.5c0-33.8-27.5-61.4-61.4-61.4S40.1,68.2,40.1,102
		s27.5,61.4,61.4,61.4c14.7,0,28.1-5.2,38.7-13.8l63.7,63.7c2.7,2.7,7.2,2.7,9.9,0v0C216.6,210.5,216.6,206.1,213.8,203.4z
		 M101.5,148.4c-25.6,0-46.4-20.8-46.4-46.4s20.8-46.4,46.4-46.4s46.4,20.8,46.4,46.4S127.1,148.4,101.5,148.4z"/>
</g>
</svg>
