<?xml version="1.0" encoding="utf-8"?>
<!-- Generator: Adobe Illustrator 21.1.0, SVG Export Plug-In . SVG Version: 6.00 Build 0)  -->
<svg version="1.1" id="Layer_3" xmlns="http://www.w3.org/2000/svg" xmlns:xlink="http://www.w3.org/1999/xlink" x="0px" y="0px"
	 viewBox="0 0 256 256" style="enable-background:new 0 0 256 256;" xml:space="preserve">
<style type="text/css">
	.st0{opacity:0.3;}
</style>
<path class="st0" d="M66,212H54.3c-4.9,0-8.8-3.9-8.8-8.8V154c0-4.9,3.9-8.8,8.8-8.8H66c4.9,0,8.8,3.9,8.8,8.8v49.2
	C74.8,208.1,70.9,212,66,212z"/>
<path class="st0" d="M111.2,212H99.5c-4.9,0-8.8-3.9-8.8-8.8v-82.6c0-4.9,3.9-8.8,8.8-8.8h11.7c4.9,0,8.8,3.9,8.8,8.8v82.6
	C120,208.1,116.1,212,111.2,212z"/>
<path class="st0" d="M156.7,212H145c-4.9,0-8.8-3.9-8.8-8.8v-116c0-4.9,3.9-8.8,8.8-8.8h11.7c4.9,0,8.8,3.9,8.8,8.8v116
	C165.5,208.1,161.6,212,156.7,212z"/>
<path class="st0" d="M202.2,212h-11.7c-4.9,0-8.8-3.9-8.8-8.8V53.8c0-4.9,3.9-8.8,8.8-8.8h11.7c4.9,0,8.8,3.9,8.8,8.8v149.4
	C211,208.1,207.1,212,202.2,212z"/>
</svg>
