<?xml version="1.0" encoding="utf-8"?>
<!-- Generator: Adobe Illustrator 21.1.0, SVG Export Plug-In . SVG Version: 6.00 Build 0)  -->
<svg version="1.1" xmlns="http://www.w3.org/2000/svg" xmlns:xlink="http://www.w3.org/1999/xlink" x="0px" y="0px"
	 viewBox="0 0 256 256" style="enable-background:new 0 0 256 256;" xml:space="preserve">
<style type="text/css">
	.st0{fill:#231F20;}
	.st1{opacity:0.3;fill:#231F20;}
</style>
<g id="Layer_3">
	<circle class="st0" cx="89.8" cy="128.2" r="17.2"/>
	<circle class="st0" cx="128" cy="128.2" r="17.2"/>
	<circle class="st0" cx="166.2" cy="128.2" r="17.2"/>
</g>
<g id="Layer_2">
	<path class="st1" d="M60.9,63.7L22.7,125c-1.2,1.9-1.2,4.3,0,6.2l38.4,61c2.1,3.4,6.9,3.7,9.4,0.7l9.3-10.9
		c1.6-1.9,1.9-4.7,0.5-6.9l-26.8-43.4c-1.2-1.9-1.2-4.3,0-6.2L80.4,82c1.3-2.1,1.1-4.8-0.4-6.7l-9.5-12.1C68,60,63.1,60.3,60.9,63.7
		z"/>
	<path class="st1" d="M195.1,63.7l38.2,61.3c1.2,1.9,1.2,4.3,0,6.2l-38.4,61c-2.1,3.4-6.9,3.7-9.4,0.7l-9.3-10.9
		c-1.6-1.9-1.9-4.7-0.5-6.9l26.8-43.4c1.2-1.9,1.2-4.3,0-6.2L175.6,82c-1.3-2.1-1.1-4.8,0.4-6.7l9.5-12.1
		C188,60,192.9,60.3,195.1,63.7z"/>
</g>
</svg>
