<?xml version="1.0" encoding="utf-8"?>
<!-- Generator: Adobe Illustrator 21.1.0, SVG Export Plug-In . SVG Version: 6.00 Build 0)  -->
<svg version="1.1" xmlns="http://www.w3.org/2000/svg" xmlns:xlink="http://www.w3.org/1999/xlink" x="0px" y="0px"
	 viewBox="0 0 256 256" style="enable-background:new 0 0 256 256;" xml:space="preserve">
<style type="text/css">
	.st0{opacity:0.3;fill:#231F20;}
</style>
<g id="Layer_3">
	<g>
		<path d="M118.8,126.8l-17.2-21.6c-1-1.3-0.1-3.2,1.5-3.2h11.3c0.6,0,1.2,0.3,1.5,0.7l10.4,13c0.8,1,2.3,1,3.1,0l10.6-13.1
			c0.4-0.5,0.9-0.7,1.5-0.7h11.3c1.7,0,2.6,1.9,1.5,3.2l-17.2,21.7c-0.6,0.7-0.6,1.8,0,2.5l17.5,21.6c1,1.3,0.1,3.2-1.5,3.2h-11.3
			c-0.6,0-1.2-0.3-1.5-0.7l-10.8-13.3c-0.8-1-2.3-1-3.1,0l-10.7,13.3c-0.4,0.5-0.9,0.7-1.5,0.7h-11.3c-1.7,0-2.6-1.9-1.5-3.2
			l17.4-21.7C119.4,128.5,119.4,127.5,118.8,126.8z"/>
	</g>
</g>
<g id="Layer_2">
	<path class="st0" d="M60.9,63.7L22.7,125c-1.2,1.9-1.2,4.3,0,6.2l38.4,61c2.1,3.4,6.9,3.7,9.4,0.7l9.3-10.9
		c1.6-1.9,1.9-4.7,0.5-6.9l-26.8-43.4c-1.2-1.9-1.2-4.3,0-6.2L80.4,82c1.3-2.1,1.1-4.8-0.4-6.7l-9.5-12.1C68,60,63.1,60.3,60.9,63.7
		z"/>
	<path class="st0" d="M195.1,63.7l38.2,61.3c1.2,1.9,1.2,4.3,0,6.2l-38.4,61c-2.1,3.4-6.9,3.7-9.4,0.7l-9.3-10.9
		c-1.6-1.9-1.9-4.7-0.5-6.9l26.8-43.4c1.2-1.9,1.2-4.3,0-6.2L175.6,82c-1.3-2.1-1.1-4.8,0.4-6.7l9.5-12.1
		C188,60,192.9,60.3,195.1,63.7z"/>
</g>
</svg>
