<?xml version="1.0" encoding="UTF-8" standalone="no"?>
<!-- Generator: Adobe Illustrator 23.0.2, SVG Export Plug-In . SVG Version: 6.00 Build 0)  -->

<svg
   xmlns:dc="http://purl.org/dc/elements/1.1/"
   xmlns:cc="http://creativecommons.org/ns#"
   xmlns:rdf="http://www.w3.org/1999/02/22-rdf-syntax-ns#"
   xmlns:svg="http://www.w3.org/2000/svg"
   xmlns="http://www.w3.org/2000/svg"
   xmlns:sodipodi="http://sodipodi.sourceforge.net/DTD/sodipodi-0.dtd"
   xmlns:inkscape="http://www.inkscape.org/namespaces/inkscape"
   version="1.1"
   id="Layer_1"
   x="0px"
   y="0px"
   viewBox="0 0 181 181"
   xml:space="preserve"
   sodipodi:docname="vpn.svg"
   width="181"
   height="181"
   inkscape:version="0.92.2 5c3e80d, 2017-08-06"><metadata
     id="metadata3797"><rdf:RDF><cc:Work
         rdf:about=""><dc:format>image/svg+xml</dc:format><dc:type
           rdf:resource="http://purl.org/dc/dcmitype/StillImage" /><dc:title></dc:title></cc:Work></rdf:RDF></metadata><defs
     id="defs3795" /><sodipodi:namedview
     pagecolor="#ffffff"
     bordercolor="#666666"
     borderopacity="1"
     objecttolerance="10"
     gridtolerance="10"
     guidetolerance="10"
     inkscape:pageopacity="0"
     inkscape:pageshadow="2"
     inkscape:window-width="1983"
     inkscape:window-height="950"
     id="namedview3793"
     showgrid="false"
     inkscape:zoom="1.0824912"
     inkscape:cx="-420.9163"
     inkscape:cy="312.77604"
     inkscape:window-x="0"
     inkscape:window-y="0"
     inkscape:window-maximized="0"
     inkscape:current-layer="Layer_1" /><path
     d="M 175.94722,76.927845 H 90.204022 C 84.386638,59.30707 67.777579,46.576271 48.217675,46.576271 c -24.449879,0 -44.2627109,19.812832 -44.2627109,44.262711 0,24.449878 19.8128319,44.262718 44.2627109,44.262718 19.559904,0 36.168963,-12.7308 41.986347,-30.35158 h 56.234718 v 20.23438 h 16.86199 v -20.23438 h 12.64649 z M 48.217675,115.71041 c -13.742518,0 -24.871428,-11.12891 -24.871428,-24.871428 0,-13.742518 11.12891,-24.871428 24.871428,-24.871428 13.742519,0 24.871429,11.12891 24.871429,24.871428 0,13.742518 -11.12891,24.871428 -24.871429,24.871428 z"
     id="path3790"
     inkscape:connector-curvature="0"
     style="stroke-width:0.84309924" /></svg>