<?xml version="1.0" encoding="utf-8"?>
<!-- Generator: Adobe Illustrator 21.1.0, SVG Export Plug-In . SVG Version: 6.00 Build 0)  -->
<!-- Artist: @KevDoy for Trenta.io -->
<svg version="1.1" id="Layer_1" xmlns="http://www.w3.org/2000/svg" xmlns:xlink="http://www.w3.org/1999/xlink" x="0px" y="0px"
	 viewBox="0 0 1024 1024" style="enable-background:new 0 0 1024 1024;" xml:space="preserve">
<style type="text/css">
	.st0{fill:#363739;}
	.st1{fill:#ECF0F4;}
	.st2{fill:url(#SVGID_1_);}
	.st3{fill:#D9E1E9;}
	.st4{fill:#E36300;}
	.st5{fill:#E14D00;}
	.st6{fill:#DF3800;}
	.st7{fill:#D9D9D9;}
	.st8{fill:#FFFFFF;}
</style>
<g id="Background">
	<path class="st0" d="M875.8,848.3l-603.4,95.6c-16.4,2.6-31.7-8.5-34.3-24.9L122.3,188.1c-2.6-16.4,8.5-31.7,24.9-34.3l603.4-95.6
		c16.4-2.6,31.7,8.5,34.3,24.9l115.8,730.9C903.4,830.3,892.2,845.7,875.8,848.3z"/>
</g>
<g id="Numpad">
	<g>
		<path class="st1" d="M163.6,448.8l74.5,470.1c2.6,16.4,17.9,27.5,34.1,25l461.2-73.1L654.3,371L163.6,448.8z"/>
	</g>
</g>
<g id="Tasks">
	
		<linearGradient id="SVGID_1_" gradientUnits="userSpaceOnUse" x1="760" y1="626.7902" x2="760" y2="127.9587" gradientTransform="matrix(0.9877 -0.1565 -0.1565 -0.9877 88.1586 1097.6099)">
		<stop  offset="0" style="stop-color:#FBB03B"/>
		<stop  offset="1" style="stop-color:#EE9339"/>
	</linearGradient>
	<path class="st2" d="M733.6,870.8l142.2-22.5c16.4-2.6,27.5-17.9,24.9-34.3l-74.5-470.1L654.4,371L733.6,870.8z"/>
</g>
<g id="Accents">
	
		<rect x="179.7" y="528.4" transform="matrix(0.9877 -0.1565 0.1565 0.9877 -77.8934 73.5719)" class="st3" width="497" height="6"/>
	
		<rect x="672.6" y="475.9" transform="matrix(0.9877 -0.1565 0.1565 0.9877 -65.5915 124.7869)" class="st4" width="174" height="6"/>
	
		<rect x="692.9" y="604.3" transform="matrix(0.9877 -0.1565 0.1565 0.9877 -85.4363 129.5537)" class="st5" width="174" height="6"/>
	
		<rect x="713.3" y="732.7" transform="matrix(0.9877 -0.1565 0.1565 0.9877 -105.2812 134.3204)" class="st6" width="174" height="6"/>
	
		<rect x="200.1" y="656.8" transform="matrix(0.9877 -0.1565 0.1565 0.9877 -97.7382 78.3386)" class="st3" width="497" height="6"/>
	
		<rect x="220.4" y="785.2" transform="matrix(0.9877 -0.1565 0.1565 0.9877 -117.5831 83.1054)" class="st3" width="497" height="6"/>
</g>
<g id="Numbers">
	<g>
		<path class="st7" d="M430.7,268.9l11.6-1.8l2,12.4l-11.6,1.8l3.3,20.7l-15.6,2.5l-3.3-20.7l-40.3,6.4l-2-9.4l30.2-69.4l16.2-2.6
			L430.7,268.9z M390.7,275.2l24.4-3.9l-6.2-38.9l-0.9,2.3L390.7,275.2z"/>
		<path class="st7" d="M506.6,204.1l-23.9,90.6l-16.3,2.6l24.4-86.7l-48.2,7.6l-2-12.4l64.6-10.2L506.6,204.1L506.6,204.1z"/>
		<path class="st7" d="M539,307.3l-9.2-3.7c1.9-4.2,3-8,3.5-11c0.4-3,0.5-6,0.1-9l-1.9-12.1l14-2.2l1.7,11.3
			c0.7,4.5,0.3,9.3-1.3,14.2C544.4,299.6,542,303.8,539,307.3z"/>
		<path class="st7" d="M603.4,275.5l-15.5,2.5l-11.9-75l-21.7,11.4l-2.1-13l34.2-19.2l2-0.3L603.4,275.5L603.4,275.5z"/>
		<path class="st7" d="M698.6,260.5l-62.7,9.9l-1.7-10.7l25.7-38.8c3.6-5.7,6.2-10.4,7.6-14.1s1.8-7.2,1.3-10.5
			c-0.7-4.4-2.6-7.8-5.5-10.2c-2.9-2.4-6.5-3.2-10.7-2.6c-5,0.8-8.7,3-11,6.5s-3,8-2.1,13.3l-15.6,2.5c-0.9-5.7-0.4-11,1.4-15.9
			c1.8-5,5-9.1,9.4-12.3c4.4-3.3,9.8-5.4,16-6.4c9.1-1.4,16.6-0.3,22.5,3.4c6,3.7,9.5,9.6,10.8,17.6c0.7,4.6,0.2,9.8-1.6,15.2
			c-1.9,5.6-5.2,12-10.2,19.4l-18.9,28l43.3-6.9l2,12.3L698.6,260.5z"/>
		<path class="st7" d="M752.6,251.9l-15.5,2.5l-11.9-75l-21.7,11.4l-2.1-13l34.2-19.2l2-0.3L752.6,251.9L752.6,251.9z"/>
	</g>
	<g>
		<path d="M261.6,478.9l-10.7,39.8l-5.3,0.8l10.8-38.5l-21.6,3.4l-0.7-4.1l27.1-4.3L261.6,478.9z"/>
		<path d="M418.2,461.8c0.3,2,0.1,3.8-0.7,5.6s-2,3.2-3.7,4.3c2.2,0.6,4.1,1.6,5.6,3.2c1.5,1.5,2.5,3.4,2.8,5.5
			c0.5,3.5-0.2,6.4-2.1,8.8c-2,2.4-4.9,3.9-8.7,4.5c-3.9,0.6-7.1,0.1-9.8-1.6c-2.6-1.7-4.2-4.3-4.8-7.7c-0.3-2.2-0.1-4.2,0.9-6.1
			c0.9-2,2.4-3.5,4.3-4.7c-1.9-0.6-3.5-1.6-4.8-3c-1.2-1.4-2.1-3.1-2.4-5.1c-0.5-3.4,0.1-6.2,2-8.5c1.9-2.3,4.6-3.8,8.1-4.3
			s6.5,0,9,1.6C416.2,456,417.7,458.5,418.2,461.8z M417,481.1c-0.4-2.3-1.3-3.9-3-5.1c-1.6-1.2-3.6-1.6-5.9-1.2
			c-2.3,0.4-4,1.3-5.2,3c-1.2,1.6-1.6,3.6-1.2,5.9c0.4,2.3,1.3,3.9,2.8,5c1.6,1.1,3.6,1.5,5.9,1.1c2.4-0.4,4.1-1.4,5.3-2.9
			C417,485.3,417.4,483.4,417,481.1z M405.3,456.9c-2,0.3-3.6,1.2-4.5,2.6c-1.1,1.5-1.4,3.3-1.1,5.3s1.2,3.6,2.7,4.6
			c1.4,1.1,3.2,1.4,5.1,1.1c2-0.3,3.6-1.2,4.5-2.6c1-1.5,1.4-3.2,1.1-5.2s-1.2-3.6-2.7-4.6S407.3,456.6,405.3,456.9z"/>
		<path d="M586.4,447.5c-0.9,1.5-2,2.6-3.4,3.7c-1.4,1-2.9,1.7-4.7,2c-2.3,0.4-4.4,0.1-6.3-0.7c-1.9-0.9-3.5-2.3-4.7-4.2
			c-1.2-1.9-2.1-4.1-2.5-6.6c-0.4-2.7-0.3-5.1,0.3-7.4c0.6-2.3,1.9-4.1,3.6-5.6s3.8-2.3,6.3-2.7c4-0.6,7.3,0.4,10.1,3
			c2.7,2.6,4.6,6.5,5.4,11.6l0.2,1.5c1.2,7.8,0.5,13.7-1.9,17.8c-2.5,4-6.8,6.7-13,7.7l-1,0.2l-0.7-4.3l1.1-0.2
			c4.1-0.8,7.2-2.4,9.2-4.8C586.3,455.8,586.9,452.1,586.4,447.5z M578.5,448.8c1.7-0.3,3.2-1,4.5-2.3c1.3-1.3,2.1-2.8,2.6-4.4
			l-0.3-2.1c-0.5-3.4-1.6-5.9-3.5-7.8s-3.8-2.6-6-2.3c-2.3,0.4-3.9,1.5-5,3.4c-1.1,1.9-1.4,4.3-1,7.1c0.4,2.8,1.5,4.8,3,6.4
			C574.4,448.5,576.3,449.1,578.5,448.8z"/>
	</g>
	<g>
		<path d="M281.1,630.8l5.5-0.9l0.7,4.1l-5.5,0.9l1.5,9.3l-5.1,0.8l-1.5-9.3l-18.2,2.9l-0.5-3l13.5-30.6l5.4-0.9L281.1,630.8z
			 M263.6,633.5l12.4-2l-3.1-19.7l-0.4,1.2L263.6,633.5z"/>
		<path d="M418,602.3l-1.1-20.3l20.5-3.3l0.8,4.7l-16.2,2.6l0.5,11.1c1.8-1.5,3.9-2.4,6.4-2.8c3.7-0.6,6.7,0.2,9.3,2.3
			c2.5,2,4.2,5.1,4.8,9.3s0.1,7.6-1.8,10.3c-1.9,2.7-4.8,4.4-8.7,5c-3.6,0.6-6.6,0-9.2-1.6c-2.6-1.6-4.3-4.1-5.1-7.5l4.8-0.8
			c0.7,2.2,1.7,3.9,3.3,4.7s3.3,1.3,5.5,0.9c2.4-0.4,4.1-1.5,5.2-3.2c1.1-1.8,1.4-4.2,0.9-7c-0.4-2.7-1.5-4.7-3.2-6.1
			c-1.7-1.3-3.7-1.9-6.2-1.5c-2.2,0.3-3.9,1.1-5,2.3l-1.2,1.3L418,602.3z"/>
		<path d="M603.4,552.4l0.7,4.3l-0.9,0.1c-3.9,0.7-6.9,2.4-8.9,5.1c-2,2.6-2.8,6-2.5,10.2c1.7-2.7,4.4-4.4,8-5
			c3.5-0.5,6.4,0.2,8.9,2.3c2.5,2.1,4.1,5.1,4.7,9c0.7,4.1,0.1,7.6-1.8,10.4s-4.6,4.6-8.4,5.2c-3.9,0.6-7.1-0.4-10-3
			s-4.6-6.2-5.4-10.8l-0.3-2c-1.2-7.4-0.5-13.3,2.1-17.6c2.6-4.4,6.9-7.2,13.1-8.2L603.4,552.4L603.4,552.4z M599.6,571.5
			c-1.8,0.3-3.3,1-4.6,2.3c-1.3,1.3-2.1,2.8-2.4,4.4l0.3,1.9c0.5,3.3,1.7,5.8,3.5,7.6c1.8,1.7,3.8,2.5,6,2.2c2.3-0.4,3.9-1.5,5-3.4
			c1-1.9,1.4-4.2,0.9-6.9c-0.4-2.8-1.5-4.8-3-6.3S601.8,571.1,599.6,571.5z"/>
	</g>
	<g>
		<path d="M298.6,772.4l-5.1,0.8l-5.4-33.9l-9.7,5.4l-0.7-4.6l13.8-7.7l0.8-0.1L298.6,772.4z"/>
		<path d="M465.3,746l-26.3,4.2l-0.6-3.7l11.4-17.6c1.7-2.7,2.8-4.8,3.4-6.3c0.6-1.6,0.7-3.2,0.5-4.7c-0.3-2.1-1.2-3.8-2.7-4.8
			c-1.5-1.2-3.3-1.5-5.4-1.2c-2.6,0.4-4.4,1.4-5.6,3.1c-1.1,1.7-1.5,3.8-1.1,6.4l-5,0.8c-0.6-3.7,0.1-6.8,2.1-9.5c2-2.6,5-4.3,8.9-5
			c3.8-0.6,6.8-0.1,9.3,1.6c2.5,1.6,4,4,4.5,7.3c0.6,4-1.1,9-5.3,15.2l-8.9,13.4l20-3.2L465.3,746L465.3,746z"/>
		<path d="M613.8,699.3l3.9-0.6c2.4-0.4,4.1-1.4,5.3-2.8c1.2-1.4,1.6-3.2,1.3-5.3c-0.7-4.6-3.5-6.6-8.1-5.9
			c-2.2,0.3-3.9,1.2-4.9,2.7c-1.1,1.5-1.5,3.3-1.2,5.4l-5,0.8c-0.5-3.2,0.3-6,2.2-8.4s4.7-4,8.3-4.6c3.8-0.6,6.9-0.1,9.4,1.6
			c2.5,1.6,4,4.2,4.6,7.8c0.3,1.8,0,3.6-0.9,5.3c-0.8,1.9-2.2,3.3-4.1,4.4c2.3,0.3,4.1,1.3,5.7,2.6c1.4,1.4,2.3,3.3,2.7,5.6
			c0.6,3.6-0.2,6.6-2.2,9.2c-2,2.4-4.9,4-8.7,4.6c-3.8,0.6-7,0.1-9.7-1.6c-2.7-1.7-4.3-4.2-4.8-7.5l5.1-0.8c0.3,2.1,1.3,3.6,2.9,4.7
			c1.6,1.1,3.6,1.4,5.8,1c2.5-0.4,4.2-1.4,5.3-2.8c1.1-1.5,1.5-3.5,1.1-5.8s-1.3-4-3-5c-1.6-1.1-3.8-1.3-6.5-0.9l-3.9,0.6
			L613.8,699.3L613.8,699.3z"/>
	</g>
	<g>
		<path d="M324.5,881.4c0.9,5.9,0.7,10.5-1,13.7c-1.6,3.2-4.5,5.2-8.9,5.9c-4.2,0.7-7.6-0.2-10.2-2.7c-2.5-2.5-4.3-6.5-5.2-12.1
			l-1.1-6.8c-0.9-5.9-0.6-10.4,1-13.6c1.6-3.2,4.6-5.1,8.9-5.8c4.3-0.7,7.7,0.2,10.1,2.6c2.5,2.4,4.2,6.5,5.2,12.2L324.5,881.4z
			 M318.4,875.2c-0.7-4.3-1.8-7.3-3.3-9.1c-1.5-1.8-3.6-2.5-6.2-2.1c-2.6,0.4-4.4,1.7-5.3,3.9c-0.9,2.2-1,5.2-0.4,9.4l1.3,8.1
			c0.7,4.3,1.8,7.4,3.4,9.3c1.6,1.9,3.6,2.6,6.2,2.2c2.5-0.4,4.2-1.7,5.2-3.9c0.9-2.2,1.1-5.3,0.4-9.5L318.4,875.2z"/>
		<path d="M468.8,873.3c-0.1-0.9,0-1.6,0.4-2.3c0.4-0.7,1.1-1.1,2.2-1.3c1.1-0.2,1.9,0,2.5,0.5c0.6,0.5,1,1.2,1.1,2
			c0.1,0.9,0,1.6-0.5,2.2c-0.4,0.6-1.1,1.1-2.2,1.3s-1.9,0-2.5-0.5C469.4,874.8,469,874.1,468.8,873.3z"/>
		<path d="M619.5,819c-0.4-2.4,0.1-4.5,1.3-6.3s3.1-2.9,5.6-3.3c2.5-0.4,4.6,0.1,6.3,1.4c1.7,1.3,2.8,3.2,3.2,5.8l0.3,2
			c0.4,2.4-0.1,4.5-1.3,6.3c-1.2,1.7-3.1,2.8-5.5,3.2c-2.4,0.4-4.5-0.1-6.3-1.3c-1.8-1.2-2.9-3.2-3.3-5.7L619.5,819L619.5,819z
			 M623.6,820.5c0.2,1.5,0.8,2.5,1.7,3.4c0.9,0.8,2.1,1.1,3.5,0.9c1.3-0.2,2.3-0.9,2.9-1.9c0.6-1,0.8-2.4,0.6-3.8l-0.3-2
			c-0.2-1.5-0.8-2.5-1.7-3.4c-0.9-0.8-2.1-1.1-3.5-0.9c-1.4,0.2-2.4,0.9-3,1.9c-0.6,1-0.8,2.4-0.6,3.8L623.6,820.5L623.6,820.5z
			 M633.5,846.8l-3.1-1.3L645,811l3.1,1.3L633.5,846.8z M642.5,838.5c-0.4-2.4,0.1-4.5,1.3-6.3c1.2-1.8,3.1-2.9,5.6-3.3
			c2.5-0.4,4.5,0.1,6.3,1.3c1.8,1.2,2.8,3.2,3.2,5.8l0.3,2c0.4,2.4-0.1,4.5-1.3,6.3c-1.2,1.8-3.1,2.9-5.5,3.3
			c-2.4,0.4-4.5-0.1-6.3-1.3c-1.8-1.2-2.9-3.2-3.3-5.7L642.5,838.5L642.5,838.5z M646.7,839.9c0.2,1.5,0.8,2.6,1.7,3.4
			c0.9,0.8,2.1,1.1,3.5,0.9c1.3-0.2,2.3-0.9,2.9-1.9c0.6-1,0.8-2.4,0.6-3.9l-0.3-2.1c-0.2-1.5-0.8-2.6-1.7-3.4
			c-0.9-0.8-2.1-1.1-3.4-0.9c-1.3,0.2-2.3,0.9-2.9,1.9c-0.6,1-0.8,2.4-0.6,3.8L646.7,839.9L646.7,839.9z"/>
	</g>
	<g>
		<path class="st8" d="M750.3,416.7l5.6-12l6.6-1l-8.4,16.4l13.4,13.3l-6.5,1l-9.4-10l-5.8,12.4l-6.5,1L748,421l-13.1-13l6.5-1
			L750.3,416.7z"/>
	</g>
	<g>
		<path class="st8" d="M785.9,548.7l-27.6,4.4l-0.7-4.1l27.6-4.4L785.9,548.7z"/>
	</g>
	<g>
		<path class="st8" d="M793.8,673.4l11.2-1.8l0.8,4.8l-11.2,1.8l2,12.6l-5.1,0.8l-2-12.6l-11.2,1.8l-0.8-4.8l11.2-1.8l-1.8-11.7
			l5.1-0.8L793.8,673.4z"/>
	</g>
	<g>
		<path class="st8" d="M821.9,794.5l-22.9,3.6l-0.7-4.4l22.9-3.6L821.9,794.5z M823.7,806l-22.9,3.6l-0.7-4.4l22.9-3.6L823.7,806z"
			/>
	</g>
</g>
</svg>
