<?xml version="1.0" encoding="utf-8"?>
<!-- Generator: Adobe Illustrator 21.1.0, SVG Export Plug-In . SVG Version: 6.00 Build 0)  -->
<!-- Artist: @KevDoy for Trenta.io -->
<svg version="1.1" xmlns="http://www.w3.org/2000/svg" xmlns:xlink="http://www.w3.org/1999/xlink" x="0px" y="0px"
	 viewBox="0 0 1024 1024" style="enable-background:new 0 0 1024 1024;" xml:space="preserve">
<style type="text/css">
	.st0{fill:#363739;}
	.st1{fill:#ECF0F4;}
	.st2{fill:url(#SVGID_1_);}
	.st3{fill:#D9E1E9;}
	.st4{fill:#E36300;}
	.st5{fill:#E14D00;}
	.st6{fill:#DF3800;}
	.st7{fill:#D9D9D9;}
	.st8{fill:#FFFFFF;}
</style>
<g id="Background">
	<path class="st0" d="M817,901H206.1c-16.6,0-30-13.4-30-30V131c0-16.6,13.4-30,30-30H817c16.6,0,30,13.4,30,30v740
		C847,887.6,833.6,901,817,901z"/>
</g>
<g id="Numpad">
	<g>
		<path class="st1" d="M176.1,395v476c0,16.6,13.4,30,29.8,30h467V395H176.1z"/>
	</g>
</g>
<g id="Tasks">
	<linearGradient id="SVGID_1_" gradientUnits="userSpaceOnUse" x1="760" y1="397.2098" x2="760" y2="896.0413">
		<stop  offset="0" style="stop-color:#FBB03B"/>
		<stop  offset="1" style="stop-color:#EE9339"/>
	</linearGradient>
	<path class="st2" d="M673,901h144c16.6,0,30-13.4,30-30V395H673V901z"/>
</g>
<g id="Accents">
	<rect x="176" y="515" class="st3" width="497" height="6"/>
	<rect x="673" y="515" class="st4" width="174" height="6"/>
	<rect x="673" y="645" class="st5" width="174" height="6"/>
	<rect x="673" y="775" class="st6" width="174" height="6"/>
	<rect x="176" y="645" class="st3" width="497" height="6"/>
	<rect x="176" y="775" class="st3" width="497" height="6"/>
</g>
<g id="Numbers">
	<g>
		<path class="st7" d="M468,259.1h11.7v12.6H468v21h-15.8v-21h-40.8l-0.5-9.6l40.7-63.8H468V259.1z M427.5,259.1h24.7v-39.4
			l-1.2,2.1L427.5,259.1z"/>
		<path class="st7" d="M553.1,207l-37.8,85.7h-16.5l37.7-81.8h-48.8v-12.6h65.4V207z"/>
		<path class="st7" d="M569,314l-8.5-5.1c2.5-3.9,4.2-7.4,5.2-10.3c0.9-2.9,1.4-5.9,1.5-8.9v-12.3h14.2l-0.1,11.4
			c0,4.6-1.2,9.2-3.5,13.8C575.5,307.2,572.5,311,569,314z"/>
		<path class="st7" d="M637.6,292.7h-15.7v-75.9l-23.2,7.9v-13.2l36.8-13.6h2V292.7z"/>
		<path class="st7" d="M733.9,292.7h-63.5v-10.8l31.5-34.3c4.5-5.1,7.8-9.3,9.7-12.7c1.9-3.4,2.9-6.8,2.9-10.2
			c0-4.5-1.3-8.1-3.8-10.9c-2.5-2.8-5.9-4.2-10.2-4.2c-5.1,0-9.1,1.6-11.9,4.7c-2.8,3.1-4.2,7.4-4.2,12.8h-15.8
			c0-5.8,1.3-10.9,3.9-15.5c2.6-4.6,6.4-8.2,11.2-10.7c4.9-2.6,10.5-3.8,16.8-3.8c9.2,0,16.4,2.3,21.7,6.9c5.3,4.6,7.9,11,7.9,19.1
			c0,4.7-1.3,9.7-4,14.8c-2.7,5.2-7,11-13.1,17.6l-23.1,24.7h43.8V292.7z"/>
		<path class="st7" d="M788.6,292.7h-15.7v-75.9l-23.2,7.9v-13.2l36.8-13.6h2V292.7z"/>
	</g>
	<g>
		<path d="M268.1,440.1l-16.8,37.6h-5.4l16.7-36.3h-21.9v-4.2h27.4V440.1z"/>
		<path d="M425.5,447.7c0,2-0.5,3.8-1.6,5.4c-1.1,1.6-2.5,2.8-4.3,3.7c2.1,0.9,3.8,2.2,5,4c1.2,1.7,1.9,3.7,1.9,5.9
			c0,3.5-1.2,6.3-3.5,8.4c-2.4,2.1-5.5,3.1-9.3,3.1c-3.9,0-7-1-9.4-3.1c-2.3-2.1-3.5-4.9-3.5-8.4c0-2.2,0.6-4.2,1.8-5.9
			c1.2-1.8,2.9-3.1,5-4c-1.8-0.9-3.2-2.1-4.3-3.7c-1-1.6-1.6-3.4-1.6-5.4c0-3.4,1.1-6.1,3.3-8.1c2.2-2,5.1-3,8.7-3
			c3.6,0,6.4,1,8.6,3C424.4,441.6,425.5,444.3,425.5,447.7z M421.3,466.6c0-2.3-0.7-4.1-2.2-5.5c-1.4-1.4-3.3-2.1-5.6-2.1
			c-2.3,0-4.2,0.7-5.6,2.1c-1.4,1.4-2.1,3.3-2.1,5.6c0,2.3,0.7,4.1,2,5.4c1.4,1.3,3.3,2,5.7,2c2.4,0,4.3-0.7,5.7-2
			C420.6,470.7,421.3,468.9,421.3,466.6z M413.5,440.8c-2,0-3.7,0.6-4.9,1.9c-1.3,1.3-1.9,3-1.9,5.1c0,2.1,0.6,3.7,1.9,5
			c1.2,1.3,2.9,1.9,4.9,1.9s3.7-0.6,4.9-1.9c1.2-1.3,1.9-2.9,1.9-5s-0.6-3.7-1.9-5C417.1,441.5,415.5,440.8,413.5,440.8z"/>
		<path d="M593.8,459.9c-1.1,1.3-2.4,2.3-3.9,3.1c-1.5,0.8-3.1,1.2-4.9,1.2c-2.3,0-4.4-0.6-6.1-1.7c-1.7-1.2-3.1-2.8-4-4.9
			c-0.9-2.1-1.4-4.4-1.4-6.9c0-2.7,0.5-5.1,1.5-7.3c1-2.2,2.5-3.8,4.4-5c1.9-1.2,4.1-1.7,6.6-1.7c4,0,7.2,1.5,9.5,4.5
			c2.3,3,3.5,7.1,3.5,12.3v1.5c0,7.9-1.6,13.6-4.7,17.3c-3.1,3.6-7.8,5.5-14.1,5.6h-1v-4.4h1.1c4.2-0.1,7.5-1.2,9.8-3.3
			S593.6,464.5,593.8,459.9z M585.8,459.9c1.7,0,3.3-0.5,4.8-1.6s2.5-2.4,3.2-3.9v-2.1c0-3.4-0.7-6.1-2.2-8.2s-3.3-3.2-5.6-3.2
			c-2.3,0-4.1,0.9-5.5,2.6s-2.1,4-2.1,6.9c0,2.8,0.7,5,2,6.8C581.8,459,583.6,459.9,585.8,459.9z"/>
	</g>
	<g>
		<path d="M263.6,593.1h5.6v4.2h-5.6v9.4h-5.2v-9.4H240v-3l18.1-28.1h5.5V593.1z M245.9,593.1h12.6v-19.9l-0.6,1.1L245.9,593.1z"/>
		<path d="M403.3,586.4l2.1-20.2h20.8v4.8h-16.4l-1.2,11c2-1.2,4.2-1.8,6.8-1.8c3.7,0,6.6,1.2,8.8,3.7c2.2,2.4,3.3,5.7,3.3,9.9
			c0,4.2-1.1,7.5-3.4,9.9c-2.3,2.4-5.4,3.6-9.4,3.6c-3.6,0-6.5-1-8.8-3c-2.3-2-3.6-4.7-3.9-8.2h4.9c0.3,2.3,1.1,4.1,2.5,5.2
			s3.1,1.8,5.3,1.8c2.4,0,4.3-0.8,5.6-2.4c1.4-1.6,2-3.9,2-6.8c0-2.7-0.7-4.9-2.2-6.5c-1.5-1.6-3.4-2.5-5.9-2.5
			c-2.2,0-4,0.5-5.3,1.5l-1.4,1.1L403.3,586.4z"/>
		<path d="M594.2,566.1v4.4h-0.9c-4,0.1-7.2,1.3-9.6,3.6c-2.4,2.3-3.7,5.5-4.1,9.7c2.1-2.4,5-3.7,8.7-3.7c3.5,0,6.3,1.2,8.4,3.7
			c2.1,2.5,3.2,5.7,3.2,9.6c0,4.2-1.1,7.5-3.4,10c-2.3,2.5-5.3,3.8-9.1,3.8c-3.9,0-7-1.5-9.4-4.5c-2.4-3-3.6-6.8-3.6-11.5v-2
			c0-7.5,1.6-13.2,4.8-17.1c3.2-3.9,7.9-6,14.2-6.1H594.2z M587.5,584.4c-1.8,0-3.4,0.5-4.9,1.6s-2.5,2.4-3.1,4v1.9
			c0,3.3,0.8,6,2.3,8.1c1.5,2,3.4,3.1,5.6,3.1c2.3,0,4.1-0.9,5.5-2.6c1.3-1.7,2-3.9,2-6.7c0-2.8-0.7-5-2-6.7
			S589.7,584.4,587.5,584.4z"/>
	</g>
	<g>
		<path d="M258.8,735.7h-5.2v-34.3l-10.4,3.8v-4.7L258,695h0.8V735.7z"/>
		<path d="M427.5,735.7h-26.6V732l14-15.6c2.1-2.4,3.5-4.3,4.3-5.7c0.8-1.5,1.2-3,1.2-4.6c0-2.1-0.6-3.9-1.9-5.2c-1.3-1.4-3-2-5.1-2
			c-2.6,0-4.6,0.7-6,2.2c-1.4,1.5-2.1,3.5-2.1,6.1h-5.1c0-3.7,1.2-6.7,3.6-9c2.4-2.3,5.6-3.5,9.6-3.5c3.8,0,6.7,1,8.9,3
			c2.2,2,3.3,4.6,3.3,7.9c0,4-2.5,8.7-7.6,14.2l-10.9,11.8h20.3V735.7z"/>
		<path d="M581.5,712.9h3.9c2.4,0,4.3-0.7,5.7-1.9c1.4-1.2,2.1-2.9,2.1-5c0-4.7-2.4-7.1-7.1-7.1c-2.2,0-4,0.6-5.3,1.9
			c-1.3,1.3-2,3-2,5.1h-5.1c0-3.2,1.2-5.9,3.5-8c2.3-2.1,5.3-3.2,8.9-3.2c3.8,0,6.8,1,9,3c2.2,2,3.3,4.8,3.3,8.4
			c0,1.8-0.6,3.5-1.7,5.1c-1.1,1.7-2.7,2.9-4.7,3.7c2.2,0.7,3.9,1.9,5.2,3.5c1.2,1.6,1.8,3.6,1.8,6c0,3.6-1.2,6.5-3.6,8.7
			c-2.4,2.1-5.5,3.2-9.3,3.2s-6.9-1-9.3-3.1c-2.4-2.1-3.6-4.8-3.6-8.2h5.2c0,2.1,0.7,3.8,2.1,5.1c1.4,1.3,3.3,1.9,5.6,1.9
			c2.5,0,4.4-0.7,5.7-1.9c1.3-1.3,2-3.2,2-5.6c0-2.4-0.7-4.2-2.2-5.4c-1.4-1.3-3.5-1.9-6.3-1.9h-3.9V712.9z"/>
	</g>
	<g>
		<path d="M267.3,847.4c0,6-1,10.5-3.1,13.4s-5.3,4.4-9.7,4.4c-4.3,0-7.5-1.4-9.6-4.3c-2.1-2.9-3.2-7.1-3.2-12.8v-6.9
			c0-6,1-10.4,3.1-13.3s5.3-4.3,9.7-4.3c4.4,0,7.6,1.4,9.6,4.2c2.1,2.8,3.1,7.1,3.2,12.9V847.4z M262.2,840.4c0-4.4-0.6-7.5-1.8-9.5
			s-3.2-3-5.8-3c-2.6,0-4.6,1-5.8,3c-1.2,2-1.8,5-1.9,9.2v8.2c0,4.4,0.6,7.6,1.9,9.7c1.3,2.1,3.2,3.1,5.8,3.1c2.5,0,4.4-1,5.7-3
			c1.2-2,1.9-5.1,1.9-9.3V840.4z"/>
		<path d="M411.1,862c0-0.9,0.3-1.6,0.8-2.2c0.5-0.6,1.3-0.9,2.4-0.9s1.9,0.3,2.4,0.9c0.5,0.6,0.8,1.3,0.8,2.2
			c0,0.9-0.3,1.6-0.8,2.1s-1.3,0.9-2.4,0.9s-1.9-0.3-2.4-0.9C411.4,863.6,411.1,862.8,411.1,862z"/>
		<path d="M568.4,832c0-2.4,0.8-4.4,2.3-6s3.5-2.4,6-2.4c2.5,0,4.5,0.8,6,2.4c1.5,1.6,2.3,3.6,2.3,6.2v2c0,2.4-0.8,4.4-2.3,6
			c-1.5,1.5-3.5,2.3-5.9,2.3c-2.4,0-4.4-0.8-6-2.3c-1.6-1.5-2.4-3.6-2.4-6.2V832z M572.2,834.1c0,1.5,0.4,2.6,1.2,3.6
			c0.8,0.9,1.9,1.4,3.3,1.4c1.3,0,2.4-0.5,3.2-1.4c0.8-0.9,1.2-2.2,1.2-3.7v-2c0-1.5-0.4-2.6-1.2-3.6c-0.8-0.9-1.9-1.4-3.3-1.4
			c-1.4,0-2.5,0.5-3.3,1.4c-0.8,0.9-1.2,2.2-1.2,3.7V834.1z M577.9,861.6l-2.9-1.8l19.8-31.7l2.9,1.8L577.9,861.6z M588.1,854.8
			c0-2.4,0.8-4.4,2.3-6c1.5-1.6,3.5-2.4,6-2.4s4.4,0.8,6,2.3s2.3,3.6,2.3,6.2v2c0,2.4-0.8,4.4-2.3,6c-1.5,1.6-3.5,2.4-5.9,2.4
			s-4.4-0.8-6-2.3c-1.6-1.5-2.4-3.6-2.4-6.2V854.8z M592,856.9c0,1.5,0.4,2.7,1.2,3.6c0.8,0.9,1.9,1.4,3.3,1.4
			c1.3,0,2.4-0.5,3.2-1.4s1.2-2.2,1.2-3.8v-2.1c0-1.5-0.4-2.7-1.2-3.6c-0.8-0.9-1.9-1.4-3.2-1.4c-1.3,0-2.4,0.5-3.2,1.4
			c-0.8,0.9-1.2,2.2-1.2,3.7V856.9z"/>
	</g>
	<g>
		<path class="st8" d="M760.6,455.1l7.4-11h6.7L763.8,459l11.2,15.2h-6.6l-7.7-11.3l-7.7,11.3h-6.6l11.2-15.2l-10.9-14.9h6.6
			L760.6,455.1z"/>
	</g>
	<g>
		<path class="st8" d="M775,591.1h-27.9v-4.2H775V591.1z"/>
	</g>
	<g>
		<path class="st8" d="M763.3,715.5h11.3v4.9h-11.3v12.8h-5.2v-12.8h-11.3v-4.9h11.3v-11.8h5.2V715.5z"/>
	</g>
	<g>
		<path class="st8" d="M772.1,839.5h-23.2v-4.5h23.2V839.5z M772.1,851.1h-23.2v-4.5h23.2V851.1z"/>
	</g>
</g>
</svg>
