<?xml version="1.0" encoding="utf-8"?>
<!-- Generator: Adobe Illustrator 21.1.0, SVG Export Plug-In . SVG Version: 6.00 Build 0)  -->
<!-- Artist: @KevDoy for Trenta.io -->
<svg version="1.1" xmlns="http://www.w3.org/2000/svg" xmlns:xlink="http://www.w3.org/1999/xlink" x="0px" y="0px"
	 viewBox="0 0 1024 1024" style="enable-background:new 0 0 1024 1024;" xml:space="preserve">
<style type="text/css">
	.st0{fill:url(#SVGID_1_);}
	.st1{fill:url(#SVGID_2_);}
	.st2{fill:url(#SVGID_3_);}
	.st3{fill:#26C5FB;}
</style>
<g id="Circle">
	<radialGradient id="SVGID_1_" cx="534.9938" cy="-103.1427" r="954.2032" gradientUnits="userSpaceOnUse">
		<stop  offset="0" style="stop-color:#3EBAEC"/>
		<stop  offset="1" style="stop-color:#359FC9"/>
	</radialGradient>
	<circle class="st0" cx="512" cy="512" r="447"/>
	<radialGradient id="SVGID_2_" cx="508.122" cy="108.6885" r="794.7089" gradientUnits="userSpaceOnUse">
		<stop  offset="0" style="stop-color:#135893"/>
		<stop  offset="0.2367" style="stop-color:#125690"/>
		<stop  offset="0.4293" style="stop-color:#104F86"/>
		<stop  offset="0.6065" style="stop-color:#0D4575"/>
		<stop  offset="0.7745" style="stop-color:#09355D"/>
		<stop  offset="0.9345" style="stop-color:#03223E"/>
		<stop  offset="1" style="stop-color:#00182F"/>
	</radialGradient>
	<circle class="st1" cx="512" cy="512" r="409"/>
</g>
<g id="Logo">
	<linearGradient id="SVGID_3_" gradientUnits="userSpaceOnUse" x1="577.5" y1="405.522" x2="577.5" y2="734.8665">
		<stop  offset="0" style="stop-color:#106FA0"/>
		<stop  offset="1" style="stop-color:#0F5D84"/>
	</linearGradient>
	<circle class="st2" cx="577.5" cy="569.5" r="166.5"/>
	<path class="st3" d="M578.8,740l0-4c3.3,0,6.6-0.1,9.8-0.4l0.3,4C585.6,739.8,582.2,740,578.8,740z M573.8,740
		c-3.3-0.1-6.7-0.2-10-0.5l0.3-4c3.2,0.3,6.5,0.4,9.8,0.5L573.8,740z M593.9,739.2l-0.4-4c3.2-0.3,6.5-0.7,9.7-1.2l0.6,4
		C600.6,738.5,597.2,738.9,593.9,739.2z M558.8,739c-3.3-0.4-6.7-0.8-10-1.4l0.7-3.9c3.2,0.5,6.5,1,9.7,1.4L558.8,739z M608.8,737.1
		l-0.7-3.9c3.2-0.6,6.4-1.3,9.6-2.1l1,3.9C615.4,735.8,612.1,736.5,608.8,737.1z M543.9,736.7c-3.3-0.7-6.6-1.4-9.8-2.3l1-3.9
		c3.2,0.8,6.4,1.6,9.6,2.2L543.9,736.7z M623.5,733.7l-1.1-3.9c3.1-0.9,6.3-1.9,9.4-2.9l1.3,3.8C630,731.8,626.7,732.8,623.5,733.7z
		 M529.2,733.1c-3.2-0.9-6.4-2-9.6-3.1l1.4-3.8c3.1,1.1,6.2,2.1,9.3,3.1L529.2,733.1z M637.9,729l-1.4-3.7c3-1.2,6.1-2.4,9.1-3.7
		l1.6,3.7C644.1,726.5,641,727.8,637.9,729z M515,728.2c-3.1-1.2-6.2-2.6-9.3-4l1.7-3.6c3,1.4,6,2.7,9,3.9L515,728.2z M651.7,723.1
		l-1.7-3.6c2.9-1.4,5.9-2.9,8.7-4.5l2,3.5C657.7,720,654.7,721.6,651.7,723.1z M501.2,722c-3-1.5-6-3.1-8.9-4.8l2-3.5
		c2.8,1.6,5.7,3.2,8.7,4.7L501.2,722z M664.9,715.9l-2.1-3.4c2.8-1.7,5.6-3.5,8.3-5.3l2.3,3.3C670.7,712.4,667.8,714.2,664.9,715.9z
		 M488,714.6c-2.8-1.8-5.7-3.6-8.4-5.5l2.3-3.3c2.7,1.9,5.4,3.7,8.2,5.4L488,714.6z M677.5,707.6l-2.3-3.2c2.6-1.9,5.2-3.9,7.8-6
		l2.5,3.1C682.9,703.6,680.2,705.7,677.5,707.6z M475.5,706.1c-2.7-2-5.3-4.1-7.9-6.3l2.6-3.1c2.5,2.1,5.1,4.2,7.7,6.1L475.5,706.1z
		 M689.3,698.2l-2.6-3c2.5-2.1,4.9-4.4,7.2-6.7l2.8,2.9C694.3,693.7,691.8,696,689.3,698.2z M463.8,696.6c-2.5-2.2-4.9-4.6-7.3-6.9
		l2.8-2.8c2.3,2.3,4.7,4.6,7.1,6.8L463.8,696.6z M700.2,687.8l-2.9-2.8c2.3-2.3,4.5-4.8,6.6-7.3l3,2.6
		C704.8,682.9,702.6,685.4,700.2,687.8z M453,686c-2.3-2.4-4.5-5-6.7-7.5l3.1-2.6c2.1,2.5,4.3,5,6.5,7.4L453,686z M710.2,676.5
		l-3.1-2.5c2.1-2.5,4.1-5.2,5.9-7.8l3.3,2.3C714.4,671.2,712.3,673.9,710.2,676.5z M443.2,674.6c-2.1-2.6-4.1-5.3-6-8.1l3.3-2.3
		c1.9,2.7,3.8,5.3,5.8,7.9L443.2,674.6z M719.2,664.4l-3.3-2.2c1.8-2.7,3.6-5.5,5.2-8.3l3.4,2C722.8,658.7,721,661.6,719.2,664.4z
		 M434.5,662.3c-1.8-2.8-3.6-5.7-5.2-8.6l3.5-2c1.6,2.8,3.3,5.6,5.1,8.4L434.5,662.3z M727,651.5l-3.5-1.9c1.6-2.9,3.1-5.8,4.5-8.8
		l3.6,1.7C730.2,645.5,728.6,648.6,727,651.5z M426.8,649.4c-1.6-2.9-3.1-6-4.4-9l3.6-1.7c1.4,3,2.8,5.9,4.3,8.8L426.8,649.4z
		 M733.7,637.9l-3.7-1.6c1.3-3,2.6-6.1,3.7-9.1l3.8,1.4C736.3,631.7,735,634.9,733.7,637.9z M420.4,635.8c-1.3-3.1-2.5-6.2-3.6-9.4
		l3.8-1.3c1.1,3.1,2.3,6.1,3.5,9.1L420.4,635.8z M739.2,623.9l-3.8-1.3c1-3.1,2-6.3,2.8-9.4l3.9,1
		C741.2,617.4,740.2,620.7,739.2,623.9z M415.1,621.7c-1-3.2-2-6.4-2.8-9.7l3.9-1c0.8,3.2,1.7,6.3,2.7,9.4L415.1,621.7z
		 M743.3,609.4l-3.9-0.9c0.8-3.2,1.4-6.4,2-9.6l3.9,0.7C744.8,602.8,744.1,606.1,743.3,609.4z M411.2,607.1
		c-0.7-3.3-1.4-6.6-1.9-9.9l3.9-0.6c0.5,3.2,1.2,6.5,1.9,9.6L411.2,607.1z M746.2,594.5l-4-0.6c0.5-3.2,0.9-6.5,1.1-9.8l4,0.3
		C747.1,587.9,746.7,591.2,746.2,594.5z M408.5,592.3c-0.4-3.3-0.8-6.7-1-10l4-0.3c0.2,3.2,0.6,6.5,1,9.8L408.5,592.3z M747.7,579.5
		l-4-0.2c0.2-3.2,0.3-6.6,0.3-9.8v-0.4h4v0.4C748,572.8,747.9,576.2,747.7,579.5z M407.2,577.2c-0.1-2.6-0.2-5.2-0.2-7.7
		c0-0.8,0-1.5,0-2.3l4,0.1c0,0.8,0,1.5,0,2.3c0,2.5,0.1,5.1,0.2,7.6L407.2,577.2z M743.9,564.2c-0.1-3.3-0.3-6.6-0.6-9.8l4-0.4
		c0.3,3.3,0.5,6.7,0.6,10L743.9,564.2z M411.2,562.3l-4-0.2c0.1-3.3,0.4-6.7,0.7-10l4,0.4C411.5,555.8,411.3,559.1,411.2,562.3z
		 M742.8,549.6c-0.4-3.2-0.9-6.5-1.5-9.7l3.9-0.7c0.6,3.3,1.1,6.6,1.5,9.9L742.8,549.6z M412.4,547.7l-4-0.5c0.4-3.3,1-6.7,1.6-9.9
		l3.9,0.8C413.4,541.2,412.8,544.4,412.4,547.7z M740.4,535c-0.7-3.2-1.4-6.4-2.3-9.5l3.9-1.1c0.9,3.2,1.7,6.5,2.4,9.8L740.4,535z
		 M415,533.2l-3.9-0.9c0.7-3.3,1.6-6.5,2.5-9.7l3.8,1.1C416.5,526.8,415.7,530,415,533.2z M736.8,520.8c-1-3.1-2-6.3-3.1-9.3
		l3.8-1.4c1.2,3.1,2.2,6.3,3.2,9.5L736.8,520.8z M418.8,518.9l-3.8-1.2c1-3.2,2.1-6.4,3.3-9.5l3.7,1.4
		C420.9,512.7,419.8,515.8,418.8,518.9z M731.8,506.9c-1.2-3-2.6-6-4-9l3.6-1.7c1.4,3,2.8,6.1,4.1,9.2L731.8,506.9z M423.9,505.1
		l-3.7-1.5c1.3-3.1,2.7-6.2,4.2-9.2l3.6,1.8C426.5,499.1,425.2,502.1,423.9,505.1z M725.7,493.5c-1.5-2.9-3.1-5.8-4.7-8.6l3.4-2
		c1.7,2.9,3.3,5.8,4.9,8.8L725.7,493.5z M430.2,491.8l-3.5-1.9c1.6-3,3.2-5.9,5-8.8l3.4,2.1C433.4,486,431.7,488.9,430.2,491.8z
		 M718.4,480.8c-1.7-2.8-3.6-5.5-5.5-8.1l3.3-2.3c1.9,2.7,3.8,5.5,5.6,8.3L718.4,480.8z M437.7,479l-3.4-2.2
		c1.8-2.8,3.7-5.6,5.7-8.3l3.2,2.4C441.3,473.6,439.5,476.3,437.7,479z M710,468.7c-2-2.6-4.1-5.2-6.2-7.6l3-2.6
		c2.2,2.5,4.3,5.2,6.3,7.8L710,468.7z M446.2,467l-3.2-2.5c2.1-2.6,4.2-5.2,6.4-7.7l3,2.6C450.4,461.9,448.2,464.5,446.2,467z
		 M700.6,457.4c-2.2-2.4-4.5-4.8-6.8-7.1l2.8-2.9c2.4,2.3,4.7,4.8,7,7.2L700.6,457.4z M455.8,455.9l-2.9-2.7
		c2.3-2.4,4.7-4.8,7.1-7.1l2.8,2.9C460.4,451.1,458,453.5,455.8,455.9z M690.2,446.9c-2.4-2.2-4.9-4.4-7.4-6.4l2.5-3.1
		c2.6,2.1,5.1,4.3,7.6,6.6L690.2,446.9z M466.3,445.5l-2.7-3c2.5-2.2,5.1-4.4,7.7-6.5l2.5,3.1C471.3,441.2,468.8,443.4,466.3,445.5z
		 M678.9,437.4c-2.6-2-5.3-3.9-8-5.8l2.2-3.3c2.8,1.9,5.5,3.9,8.2,5.9L678.9,437.4z M477.7,436.2l-2.4-3.2c2.7-2,5.4-3.9,8.2-5.8
		l2.2,3.3C483,432.3,480.3,434.3,477.7,436.2z M666.9,429c-2.8-1.8-5.6-3.4-8.4-5l1.9-3.5c2.9,1.6,5.8,3.4,8.6,5.2L666.9,429z
		 M489.9,427.9l-2.1-3.4c2.8-1.8,5.8-3.5,8.7-5l1.9,3.5C495.5,424.5,492.6,426.2,489.9,427.9z M654.1,421.6
		c-2.9-1.5-5.9-2.9-8.9-4.3l1.6-3.7c3,1.4,6.1,2.8,9.1,4.4L654.1,421.6z M502.7,420.7l-1.8-3.6c3-1.5,6-2.9,9.1-4.3l1.6,3.7
		C508.6,417.9,505.6,419.2,502.7,420.7z M640.7,415.4c-3-1.2-6.1-2.4-9.2-3.5l1.3-3.8c3.2,1.1,6.3,2.3,9.4,3.5L640.7,415.4z
		 M516.1,414.7l-1.5-3.7c3.1-1.2,6.3-2.4,9.5-3.4l1.3,3.8C522.2,412.4,519.1,413.5,516.1,414.7z M626.8,410.4
		c-3.1-1-6.3-1.8-9.5-2.6l1-3.9c3.2,0.8,6.5,1.7,9.7,2.7L626.8,410.4z M530,409.9l-1.1-3.8c3.2-1,6.5-1.8,9.7-2.6l0.9,3.9
		C536.3,408.1,533.1,408.9,530,409.9z M612.6,406.7c-3.2-0.7-6.4-1.3-9.7-1.8l0.6-4c3.3,0.5,6.6,1.1,9.9,1.8L612.6,406.7z
		 M544.3,406.3l-0.8-3.9c3.3-0.7,6.6-1.2,9.9-1.7l0.6,4C550.7,405.1,547.5,405.7,544.3,406.3z M598,404.3c-3.2-0.4-6.5-0.7-9.8-0.9
		l0.3-4c3.3,0.2,6.7,0.5,10,0.9L598,404.3z M558.8,404l-0.4-4c3.3-0.4,6.7-0.6,10-0.8l0.2,4C565.4,403.4,562.1,403.7,558.8,404z
		 M583.4,403.1c-3.2-0.1-6.6-0.1-9.8-0.1l-0.1-4c3.3-0.1,6.7-0.1,10.1,0.1L583.4,403.1z"/>
	<path class="st3" d="M465.3,641.3c-5,0.2-10,0.2-15,0l0.4-10c4.7,0.2,9.5,0.2,14.2,0c12.7-0.6,25.4-2.5,37.6-5.9l2.6,9.6
		C492.2,638.6,478.8,640.7,465.3,641.3z M425.3,638.6c-18.2-3.3-35.7-9.4-52.1-18.1l4.7-8.8c15.5,8.2,32,14,49.2,17.1L425.3,638.6z
		 M528.8,626.8l-4-9.2c16-6.9,30.8-16.3,44-27.8l6.6,7.5C561.5,609.5,545.8,619.4,528.8,626.8z M351.9,607.2
		c-15-10.9-28.1-24-39.1-38.9l8.1-5.9c10.4,14.1,22.8,26.4,36.9,36.7L351.9,607.2z M593.2,579.5l-7.6-6.5
		c11.5-13.2,20.8-28.1,27.7-44.1l9.2,3.9C615.2,549.7,605.4,565.5,593.2,579.5z M299.4,547c-8.8-16.3-14.9-33.8-18.3-52l9.8-1.8
		c3.2,17.2,9,33.7,17.3,49.1L299.4,547z M630.8,509l-9.7-2.6c4.5-16.8,6.5-34.2,5.7-51.8l0-0.4l10-0.4l0,0.4
		C637.6,472.8,635.6,491.2,630.8,509z M288.2,469.6l-10,0.4l0-0.2c-0.8-18.5,1.2-36.9,6-54.6l9.7,2.6c-4.5,16.7-6.4,34.1-5.7,51.6
		L288.2,469.6z M624.1,430.6c-3.2-17.2-9.1-33.7-17.4-49.1l8.8-4.8c8.8,16.3,15,33.8,18.4,52L624.1,430.6z M301.6,395.4l-9.2-3.9
		c7.3-17,17.1-32.7,29.2-46.8l7.6,6.5C317.8,364.5,308.5,379.3,301.6,395.4z M594,361.5c-10.4-14.1-22.8-26.4-37-36.7l5.9-8.1
		c15,10.9,28.2,24,39.1,38.9L594,361.5z M346,334.4l-6.6-7.5c14-12.2,29.6-22.2,46.6-29.5l4,9.2C374,313.4,359.2,322.8,346,334.4z
		 M536.9,312.2c-15.5-8.2-32-14-49.2-17l1.8-9.8c18.2,3.3,35.7,9.4,52.1,18.1L536.9,312.2z M412.4,298.6l-2.7-9.6
		c13-3.6,26.4-5.7,40-6.3c0,0,0,0,0,0c4.9-0.2,9.9-0.2,14.8,0l-0.4,10c-4.6-0.2-9.3-0.2-14,0c0,0,0,0,0,0
		C437.3,293.2,424.6,295.2,412.4,298.6z"/>
</g>
</svg>
