<?xml version="1.0" encoding="utf-8"?>
<!-- Generator: Adobe Illustrator 21.1.0, SVG Export Plug-In . SVG Version: 6.00 Build 0)  -->
<!-- Artist: @KevDoy for Trenta.io -->
<svg version="1.1" id="Layer_1" xmlns="http://www.w3.org/2000/svg" xmlns:xlink="http://www.w3.org/1999/xlink" x="0px" y="0px"
	 viewBox="0 0 1024 1024" style="enable-background:new 0 0 1024 1024;" xml:space="preserve">
<style type="text/css">
	.st0{fill:url(#SVGID_1_);}
	.st1{fill:url(#SVGID_2_);stroke:#000000;stroke-width:0.75;stroke-miterlimit:10;}
	.st2{fill:url(#SVGID_3_);}
	.st3{stroke:#959595;stroke-width:0.75;stroke-miterlimit:10;}
	.st4{fill:url(#SVGID_4_);}
	.st5{fill:url(#SVGID_5_);}
</style>
<g id="Layer_2">
	
		<linearGradient id="SVGID_1_" gradientUnits="userSpaceOnUse" x1="230.0574" y1="562.0024" x2="742.0076" y2="465.0421" gradientTransform="matrix(1 0 0 -1 0 1021.75)">
		<stop  offset="0" style="stop-color:#515151"/>
		<stop  offset="4.003580e-02" style="stop-color:#656565"/>
		<stop  offset="0.1152" style="stop-color:#858585"/>
		<stop  offset="0.1971" style="stop-color:#9F9F9F"/>
		<stop  offset="0.2866" style="stop-color:#B4B4B4"/>
		<stop  offset="0.3879" style="stop-color:#C2C2C2"/>
		<stop  offset="0.5105" style="stop-color:#CACACA"/>
		<stop  offset="0.7139" style="stop-color:#CDCDCD"/>
		<stop  offset="0.8323" style="stop-color:#C9C9C9"/>
		<stop  offset="0.96" style="stop-color:#BCBCBC"/>
		<stop  offset="1" style="stop-color:#B6B6B6"/>
	</linearGradient>
	<path class="st0" d="M616.7,953.1H408.3c-86.8,0-157.2-70.4-157.2-157.2V230.6c0-86.8,70.4-157.2,157.2-157.2h208.5
		c86.8,0,157.2,70.4,157.2,157.2v565.3C774,882.7,703.6,953.1,616.7,953.1z"/>
	<g>
		
			<linearGradient id="SVGID_2_" gradientUnits="userSpaceOnUse" x1="251.1" y1="732.85" x2="774" y2="732.85" gradientTransform="matrix(1 0 0 -1 0 1021.75)">
			<stop  offset="0" style="stop-color:#010101"/>
			<stop  offset="0.1219" style="stop-color:#151515"/>
			<stop  offset="0.2619" style="stop-color:#232323"/>
			<stop  offset="0.4319" style="stop-color:#2B2B2B"/>
			<stop  offset="0.7139" style="stop-color:#2E2E2E"/>
			<stop  offset="0.7967" style="stop-color:#2A2A2A"/>
			<stop  offset="0.8862" style="stop-color:#1D1D1D"/>
			<stop  offset="0.9784" style="stop-color:#070707"/>
			<stop  offset="1" style="stop-color:#010101"/>
		</linearGradient>
		<path class="st1" d="M774,504.2V230.6c0-86.8-70.4-157.2-157.2-157.2H408.3c-86.8,0-157.2,70.4-157.2,157.2v273.8
			C303.9,499.6,562.6,478.7,774,504.2z"/>
	</g>
	
		<linearGradient id="SVGID_3_" gradientUnits="userSpaceOnUse" x1="545.9407" y1="657.2621" x2="742.4525" y2="896.3513" gradientTransform="matrix(1 0 0 -1 0 1021.75)">
		<stop  offset="0" style="stop-color:#959595"/>
		<stop  offset="1" style="stop-color:#4E4E4E"/>
	</linearGradient>
	<path class="st2" d="M549.8,491.8c73.5,0.3,151.6,3.6,224.2,12.4V230.6c0-86.8-70.4-157.2-157.2-157.2H442.3
		C450.1,82.6,525,178.5,549.8,491.8z"/>
</g>
<g id="Layer_3">
	<path d="M251,501.9v5c52.5-4.7,312.7-25.5,522.9-0.2v-5C564,476.5,304.7,497.1,251,501.9z"/>
	<path class="st3" d="M508,73.4v376.7c0,2.2,1.8,4,4,4s4-1.8,4-4V73.4H508z"/>
</g>
<g id="Layer_5">
	
		<linearGradient id="SVGID_4_" gradientUnits="userSpaceOnUse" x1="456.5321" y1="245.1" x2="575.0301" y2="245.1" gradientTransform="matrix(1 0 0 -1 0 1021.75)">
		<stop  offset="0" style="stop-color:#B3B3B3"/>
		<stop  offset="1" style="stop-color:#DCDCDC"/>
	</linearGradient>
	<polygon class="st4" points="453.7,748.1 453.7,777.6 481.1,805.2 508.5,777.6 508.5,748.1 	"/>
	
		<linearGradient id="SVGID_5_" gradientUnits="userSpaceOnUse" x1="456.5321" y1="245.05" x2="575.0301" y2="245.05" gradientTransform="matrix(1 0 0 -1 0 1021.75)">
		<stop  offset="0" style="stop-color:#B3B3B3"/>
		<stop  offset="1" style="stop-color:#DCDCDC"/>
	</linearGradient>
	<circle class="st5" cx="542.8" cy="776.7" r="28.5"/>
</g>
</svg>
