<?xml version="1.0" encoding="utf-8"?>
<!-- Generator: Adobe Illustrator 21.1.0, SVG Export Plug-In . SVG Version: 6.00 Build 0)  -->
<!-- Artist: @KevDoy for Trenta.io -->
<svg version="1.1" xmlns="http://www.w3.org/2000/svg" xmlns:xlink="http://www.w3.org/1999/xlink" x="0px" y="0px"
	 viewBox="0 0 1024 1024" style="enable-background:new 0 0 1024 1024;" xml:space="preserve">
<style type="text/css">
	.st0{display:none;}
	.st1{display:inline;fill:#1E1E1E;}
	.st2{fill:url(#SVGID_1_);}
	.st3{fill:url(#SVGID_2_);}
	.st4{fill:url(#SVGID_3_);}
	.st5{fill:url(#SVGID_4_);}
	.st6{fill:url(#SVGID_5_);}
	.st7{fill:url(#SVGID_6_);}
	.st8{fill:#B5B5B3;}
</style>
<g id="Layer_2_1_" class="st0">
	<path class="st1" d="M989.9,726.8H29.1c-3.9,0-7.1-3.2-7.1-7.1V155.6c0-3.9,3.2-7.1,7.1-7.1h960.7c3.9,0,7.1,3.2,7.1,7.1v564.1
		C997,723.6,993.8,726.8,989.9,726.8z"/>
</g>
<g id="Layer_6_copy">
	<path d="M705.9,874.6H315.2c-1.9,0-3.5-1.6-3.5-3.5l0,0c0-1.9,1.6-3.5,3.5-3.5h390.7c1.9,0,3.5,1.6,3.5,3.5l0,0
		C709.3,873,707.8,874.6,705.9,874.6z"/>
	<linearGradient id="SVGID_1_" gradientUnits="userSpaceOnUse" x1="510.872" y1="757.6516" x2="509.1013" y2="895.3274">
		<stop  offset="0" style="stop-color:#FDFDFC"/>
		<stop  offset="0.2084" style="stop-color:#F1F1EF"/>
		<stop  offset="0.4916" style="stop-color:#E5E4E2"/>
		<stop  offset="0.6125" style="stop-color:#F2F1F0"/>
		<stop  offset="0.768" style="stop-color:#FAFAF9"/>
		<stop  offset="0.9779" style="stop-color:#FDFDFC"/>
	</linearGradient>
	<path class="st2" d="M321.3,809.7h381.4l13.6,44.3c0,0,5.7,17-7.2,17.4c-12.9,0.4-393.5,0-393.5,0s-21.2,3-11.7-21.6
		C313.4,825.2,321.3,809.7,321.3,809.7z"/>
</g>
<g id="Layer_6">
	<linearGradient id="SVGID_2_" gradientUnits="userSpaceOnUse" x1="295.7217" y1="740.4418" x2="322.8777" y2="814.8784">
		<stop  offset="0" style="stop-color:#A09F96"/>
		<stop  offset="4.841986e-02" style="stop-color:#A2A198"/>
		<stop  offset="0.4916" style="stop-color:#AEAEA3"/>
		<stop  offset="0.5256" style="stop-color:#ACABA1"/>
		<stop  offset="0.7182" style="stop-color:#A3A299"/>
		<stop  offset="0.9779" style="stop-color:#A09F96"/>
	</linearGradient>
	<polyline class="st3" points="283.7,735.2 316.5,818.1 327.7,818.1 331.1,809.8 302.2,735.2 283.7,735.2 	"/>
	
		<linearGradient id="SVGID_3_" gradientUnits="userSpaceOnUse" x1="-109.37" y1="740.4418" x2="-82.214" y2="814.8784" gradientTransform="matrix(-1 0 0 1 614.8572 0)">
		<stop  offset="0" style="stop-color:#A09F96"/>
		<stop  offset="4.841986e-02" style="stop-color:#A2A198"/>
		<stop  offset="0.4916" style="stop-color:#AEAEA3"/>
		<stop  offset="0.5256" style="stop-color:#ACABA1"/>
		<stop  offset="0.7182" style="stop-color:#A3A299"/>
		<stop  offset="0.9779" style="stop-color:#A09F96"/>
	</linearGradient>
	<polyline class="st4" points="736.2,735.2 703.5,818.1 692.3,818.1 688.8,809.8 717.7,735.2 736.2,735.2 	"/>
</g>
<g id="Layer_2_copy">
	<linearGradient id="SVGID_4_" gradientUnits="userSpaceOnUse" x1="27.9987" y1="328.7478" x2="698.358" y2="472.6197">
		<stop  offset="0" style="stop-color:#404040"/>
		<stop  offset="0.9988" style="stop-color:#1E1E1E"/>
	</linearGradient>
	<path class="st5" d="M990.5,716H29.8c-3.9,0-7.1-3.2-7.1-7.1V155.6c0-3.9,3.2-7.1,7.1-7.1h960.7c3.9,0,7.1,3.2,7.1,7.1v553.3
		C997.6,712.8,994.4,716,990.5,716z"/>
	<g id="Layer_4">
		<linearGradient id="SVGID_5_" gradientUnits="userSpaceOnUse" x1="510.1503" y1="184.3468" x2="510.1503" y2="705.752">
			<stop  offset="0" style="stop-color:#0099D9"/>
			<stop  offset="0.1506" style="stop-color:#0B97D7"/>
			<stop  offset="0.6881" style="stop-color:#2E90D0"/>
			<stop  offset="0.9779" style="stop-color:#3B8DCD"/>
		</linearGradient>
		<rect x="39.9" y="164.1" class="st6" width="940.5" height="551.9"/>
	</g>
</g>
<g id="Layer_5">
	<linearGradient id="SVGID_6_" gradientUnits="userSpaceOnUse" x1="22.6328" y1="716.0237" x2="997.6328" y2="716.0237">
		<stop  offset="0" style="stop-color:#D0CFCB"/>
		<stop  offset="0.9988" style="stop-color:#B5B5B3"/>
	</linearGradient>
	<path class="st7" d="M990.5,735.2H29.8c-3.9,0-7.1-3.2-7.1-7.1V704c0-3.9,3.2-7.1,7.1-7.1h960.7c3.9,0,7.1,3.2,7.1,7.1v24.1
		C997.6,732,994.4,735.2,990.5,735.2z"/>
	<polygon class="st8" points="491.1,706.5 491.1,716.3 500.3,725.6 509.4,716.3 509.4,706.5 	"/>
	<circle class="st8" cx="520.9" cy="716" r="9.5"/>
</g>
</svg>
