<?xml version="1.0" encoding="utf-8"?>
<!-- Generator: Adobe Illustrator 21.1.0, SVG Export Plug-In . SVG Version: 6.00 Build 0)  -->
<!-- BASED ON ORIGINAL VLC ICON FOR MAC -->
<!-- Artist: @KevDoy for Trenta.io -->
<svg version="1.1" xmlns="http://www.w3.org/2000/svg" xmlns:xlink="http://www.w3.org/1999/xlink" x="0px" y="0px"
	 viewBox="0 0 1024 1024" style="enable-background:new 0 0 1024 1024;" xml:space="preserve">
<style type="text/css">
	.st0{fill:#FF6E00;}
	.st1{fill:url(#SVGID_1_);}
	.st2{fill:url(#SVGID_2_);}
	.st3{clip-path:url(#SVGID_4_);fill:url(#SVGID_5_);}
	.st4{clip-path:url(#SVGID_7_);fill:url(#SVGID_8_);}
	.st5{fill:#FC781A;}
</style>
<g id="Layer_1">
	<g id="Layer_4">
		<path class="st0" d="M879.3,919.2l-8.1,10.7c-0.7,1-1.8,1.5-2.9,1.5H158.4c-1.1,0-2.1-0.5-2.8-1.5l-8.4-10.7
			c-2.3-2.9-0.5-7.6,2.8-7.6h726.4C879.7,911.7,881.5,916.3,879.3,919.2z"/>
	</g>
	<g id="Layer_2">
		<linearGradient id="SVGID_1_" gradientUnits="userSpaceOnUse" x1="513.1156" y1="961.3394" x2="513.1156" y2="696.8776">
			<stop  offset="0" style="stop-color:#FF9800"/>
			<stop  offset="1" style="stop-color:#F36A00"/>
		</linearGradient>
		<path class="st1" d="M240.8,621.7h532.9c0,0,22.2-2.7,27.5,16.8c5.3,19.5,80.7,258,80.7,258s9.8,21.3-5.3,22.2
			c-15.1,0.9-718.3,0-718.3,0s-22.2,2.7-16-17.7c6.2-20.4,80.7-266,80.7-266S229.2,621.7,240.8,621.7z"/>
	</g>
	<linearGradient id="SVGID_2_" gradientUnits="userSpaceOnUse" x1="513.8211" y1="124.5856" x2="513.8211" y2="819.5434">
		<stop  offset="0" style="stop-color:#FF9800"/>
		<stop  offset="1" style="stop-color:#F36A00"/>
	</linearGradient>
	<path class="st2" d="M471,96.8c0,0-6,3-10,17S284.3,673.5,284.3,673.5s-82,184.2,222,184.2c323.9,0,236.2-184,236.2-184l-182.4-566
		c0,0-3.2-9.2-8.5-11C546.3,95,471,96.8,471,96.8z"/>
	<g>
		<defs>
			<path id="SVGID_3_" d="M471,96.8c0,0-6,3-10,17S284.3,673.5,284.3,673.5s-82,184.2,222,184.2c323.9,0,236.2-184,236.2-184
				l-182.4-566c0,0-3.2-9.2-8.5-11C546.3,95,471,96.8,471,96.8z"/>
		</defs>
		<clipPath id="SVGID_4_">
			<use xlink:href="#SVGID_3_"  style="overflow:visible;"/>
		</clipPath>
		<linearGradient id="SVGID_5_" gradientUnits="userSpaceOnUse" x1="510.4919" y1="199.7772" x2="510.4919" y2="668.0077">
			<stop  offset="0" style="stop-color:#EAEBED"/>
			<stop  offset="1" style="stop-color:#D7D8DA"/>
		</linearGradient>
		<path class="st3" d="M331.5,506.4c0,0,33.6,57.5,180.5,57.5s178.2-57.5,178.2-57.5l42.6,136.4c0,0-32.4,85.2-220.8,85.2
			s-223.8-83.1-223.8-83.1L331.5,506.4z"/>
	</g>
	<g>
		<defs>
			<path id="SVGID_6_" d="M471,96.8c0,0-6,3-10,17S284.3,673.5,284.3,673.5s-82,184.2,222,184.2c323.9,0,236.2-184,236.2-184
				l-182.4-566c0,0-3.2-9.2-8.5-11C546.3,95,471,96.8,471,96.8z"/>
		</defs>
		<clipPath id="SVGID_7_">
			<use xlink:href="#SVGID_6_"  style="overflow:visible;"/>
		</clipPath>
		<linearGradient id="SVGID_8_" gradientUnits="userSpaceOnUse" x1="512.262" y1="206.3488" x2="512.262" y2="667.207">
			<stop  offset="0" style="stop-color:#EAEBED"/>
			<stop  offset="1" style="stop-color:#D7D8DA"/>
		</linearGradient>
		<path class="st4" d="M430.5,208.2c0,0,18.3,18.9,81.1,18.9s81.1-18.9,81.1-18.9l47.9,141.9c0,0-23,35-127.5,35
			S384,352.9,384,352.9L430.5,208.2z"/>
	</g>
</g>
<g id="Layer_5">
	<ellipse class="st5" cx="511.5" cy="100.8" rx="43.5" ry="10"/>
</g>
</svg>
