<?xml version="1.0" encoding="utf-8"?>
<!-- Generator: Adobe Illustrator 23.0.1, SVG Export Plug-In . SVG Version: 6.00 Build 0)  -->
<!-- Artist: @KevDoy for Trenta.io -->
<svg version="1.1" xmlns="http://www.w3.org/2000/svg" xmlns:xlink="http://www.w3.org/1999/xlink" x="0px" y="0px"
	 viewBox="0 0 1024 1024" style="enable-background:new 0 0 1024 1024;" xml:space="preserve">
<style type="text/css">
	.st0{fill:#F9F9F9;}
	.st1{opacity:0.5;}
	.st2{fill:#49494B;}
	.st3{fill:#182663;}
	.st4{fill:#4F4F51;}
	.st5{fill:#3F51B5;}
	.st6{fill:#617CF2;}
</style>
<g id="Layer_10">
	<g>
		
			<rect x="164.2" y="91.2" transform="matrix(0.9877 -0.1564 0.1564 0.9877 -73.6036 85.6085)" class="st0" width="686.1" height="838.6"/>
	</g>
	<g class="st1">
		<polygon class="st2" points="197.1,273.6 204.3,272.5 204.5,272.5 211.7,271.3 211.9,271.3 219.1,270.1 219.3,270.1 226.7,268.9 
			225.9,263.8 218.5,265 218.3,265.1 211.1,266.2 210.9,266.2 203.7,267.4 203.5,267.4 196.3,268.5 196.1,268.6 188.7,269.7 
			189.5,274.8 196.9,273.7 		"/>
		<polygon class="st2" points="249,265.4 256.2,264.3 256.4,264.2 263.6,263.1 263.8,263.1 271,261.9 271.2,261.9 278.6,260.7 
			277.8,255.6 270.4,256.8 270.2,256.8 263,258 262.8,258 255.6,259.1 255.4,259.2 248.2,260.3 248,260.4 240.6,261.5 241.4,266.6 
			248.8,265.4 		"/>
		<polygon class="st2" points="300.9,257.2 308.1,256.1 308.3,256 315.5,254.9 315.7,254.8 322.9,253.7 323.1,253.7 330.5,252.5 
			329.7,247.4 322.3,248.6 322.1,248.6 314.9,249.8 314.7,249.8 307.5,250.9 307.3,251 300.1,252.1 299.9,252.1 292.5,253.3 
			293.3,258.4 300.7,257.2 		"/>
		<polygon class="st2" points="352.8,249 360,247.8 360.2,247.8 367.6,246.6 366.8,241.5 359.4,242.7 359.2,242.7 352,243.9 
			351.8,243.9 344.4,245.1 345.2,250.2 352.6,249 		"/>
		<polygon class="st2" points="389.9,243.1 397.1,242 397.3,241.9 404.5,240.8 404.7,240.8 411.9,239.6 412.1,239.6 419.5,238.4 
			418.7,233.3 411.3,234.5 411.1,234.5 403.9,235.7 403.7,235.7 396.5,236.8 396.3,236.9 389.1,238 388.9,238 381.4,239.2 
			382.3,244.3 389.7,243.1 		"/>
		<polygon class="st2" points="441.8,234.9 449,233.7 449.2,233.7 456.4,232.6 456.6,232.5 463.8,231.4 464,231.4 471.2,230.2 
			471.4,230.2 478.6,229 478.8,229 486,227.9 486.2,227.8 493.4,226.7 493.6,226.7 500.8,225.5 501.1,225.5 508.2,224.4 
			508.5,224.3 515.6,223.2 515.9,223.1 523.3,222 522.5,216.9 515.1,218.1 514.8,218.1 507.7,219.2 507.4,219.3 500.2,220.4 
			500,220.4 492.8,221.6 492.6,221.6 485.4,222.7 485.2,222.8 478,223.9 477.8,224 470.6,225.1 470.4,225.1 463.2,226.3 463,226.3 
			455.8,227.4 455.6,227.5 448.4,228.6 448.2,228.6 441,229.8 440.8,229.8 433.3,231 434.2,236.1 441.6,234.9 		"/>
		<polygon class="st2" points="545.5,218.4 552.7,217.3 553,217.3 560.1,216.1 560.4,216.1 567.5,215 567.8,214.9 574.9,213.8 
			575.2,213.8 582.4,212.6 582.6,212.6 589.8,211.4 590,211.4 597.2,210.3 597.4,210.2 604.6,209.1 604.8,209.1 612.2,207.9 
			611.4,202.8 604,204 603.8,204 596.6,205.1 596.4,205.2 589.2,206.3 589,206.3 581.8,207.5 581.5,207.5 574.4,208.7 574.1,208.7 
			567,209.8 566.7,209.9 559.6,211 559.3,211 552.1,212.2 551.9,212.2 544.7,213.4 544.5,213.4 537.1,214.6 537.9,219.7 
			545.3,218.5 		"/>
		<polygon class="st2" points="634.5,204.4 641.7,203.2 641.9,203.2 649.1,202 649.3,202 656.5,200.9 656.7,200.8 664.1,199.7 
			663.3,194.6 655.9,195.7 655.7,195.8 648.5,196.9 648.3,197 641.1,198.1 640.9,198.1 633.7,199.3 633.4,199.3 626,200.5 
			626.8,205.6 634.3,204.4 		"/>
		<polygon class="st2" points="686.4,196.1 693.6,195 693.8,195 701.2,193.8 700.4,188.7 693,189.9 692.8,189.9 685.6,191 
			685.3,191.1 677.9,192.3 678.7,197.3 686.2,196.2 		"/>
		<polygon class="st2" points="200.6,295.8 207.8,294.6 208,294.6 215.2,293.4 215.4,293.4 222.8,292.2 222,287.1 214.6,288.3 
			214.4,288.4 207.2,289.5 207,289.5 199.8,290.7 199.6,290.7 192.2,291.9 193,297 200.4,295.8 		"/>
		<polygon class="st2" points="245.1,288.7 252.3,287.6 252.5,287.5 259.7,286.4 259.9,286.4 267.1,285.2 267.3,285.2 274.5,284.1 
			274.7,284 281.9,282.9 282.1,282.8 289.6,281.7 288.7,276.6 281.3,277.7 281.1,277.8 273.9,278.9 273.7,279 266.5,280.1 
			266.3,280.1 259.1,281.3 258.9,281.3 251.7,282.4 251.5,282.5 244.3,283.6 244.1,283.7 236.7,284.8 237.5,289.9 244.9,288.7 		"/>
		<polygon class="st2" points="325.6,270.7 318.4,271.9 318.2,271.9 311,273 310.8,273.1 303.4,274.3 304.2,279.4 311.6,278.2 
			311.8,278.1 319,277 319.2,277 326.4,275.8 326.6,275.8 334,274.6 333.2,269.5 325.8,270.7 		"/>
		<polygon class="st2" points="356.3,271.1 363.5,270 363.7,269.9 370.9,268.8 371.1,268.7 378.3,267.6 378.5,267.6 385.7,266.4 
			385.9,266.4 393.1,265.3 393.4,265.2 400.8,264.1 400,259 392.5,260.1 392.3,260.2 385.1,261.3 384.9,261.3 377.7,262.5 
			377.5,262.5 370.3,263.7 370.1,263.7 362.9,264.8 362.7,264.9 355.5,266 355.3,266 347.9,267.2 348.7,272.3 356.1,271.1 		"/>
		<polygon class="st2" points="422,255.5 414.6,256.6 415.4,261.7 422.8,260.6 423,260.5 430.2,259.4 430.4,259.4 437.6,258.2 
			437.8,258.2 445,257 445.3,257 452.4,255.9 452.7,255.8 459.8,254.7 460.1,254.7 467.2,253.5 467.5,253.5 474.7,252.4 
			474.9,252.3 482.3,251.1 481.5,246 474.1,247.2 473.8,247.3 466.7,248.4 466.4,248.4 459.3,249.6 459,249.6 451.9,250.7 
			451.6,250.8 444.4,251.9 444.2,252 437,253.1 436.8,253.1 429.6,254.3 429.4,254.3 422.2,255.4 		"/>
		<polygon class="st2" points="503.5,242.6 496.1,243.7 496.9,248.8 504.3,247.7 504.6,247.6 512,246.4 511.2,241.3 503.8,242.5 		
			"/>
		<polygon class="st2" points="526.6,244.1 534,243 534.2,242.9 541.4,241.8 541.6,241.7 548.8,240.6 549.1,240.6 556.2,239.4 
			556.5,239.4 563.6,238.3 563.9,238.2 571,237.1 571.3,237 578.7,235.9 577.9,230.8 570.5,232 570.2,232 563.1,233.1 562.8,233.2 
			555.7,234.3 555.4,234.3 548.2,235.5 548,235.5 540.8,236.6 540.6,236.7 533.4,237.8 533.2,237.9 525.8,239 		"/>
		<polygon class="st2" points="607.6,226.1 607.3,226.1 600.1,227.3 599.9,227.3 592.5,228.5 593.3,233.6 600.7,232.4 601,232.3 
			608.1,231.2 608.4,231.2 615.5,230 615.8,230 622.9,228.9 623.2,228.8 630.4,227.7 630.6,227.7 638,226.5 637.2,221.4 
			629.8,222.6 629.5,222.6 622.4,223.7 622.1,223.8 615,224.9 614.7,224.9 		"/>
		<polygon class="st2" points="659.5,217.9 659.2,217.9 651.8,219.1 652.6,224.2 660,223 660.3,223 667.4,221.8 667.7,221.8 
			674.8,220.6 675.1,220.6 682.3,219.5 682.5,219.4 689.9,218.3 689.1,213.2 681.7,214.3 681.4,214.4 674.3,215.5 674,215.6 
			666.9,216.7 666.6,216.7 		"/>
		<polygon class="st2" points="726.2,207.3 725.9,207.3 718.8,208.5 718.5,208.5 711.4,209.6 711.1,209.7 703.7,210.9 704.5,215.9 
			711.9,214.8 712.2,214.7 719.3,213.6 719.6,213.6 726.7,212.4 727,212.4 734.4,211.2 733.6,206.1 		"/>
		<polygon class="st2" points="204.1,317.9 211.3,316.7 211.5,316.7 218.7,315.6 218.9,315.5 226.3,314.4 225.5,309.3 218.1,310.4 
			217.9,310.5 210.7,311.6 210.5,311.7 203.3,312.8 203.1,312.8 195.7,314 196.5,319.1 203.9,317.9 		"/>
		<polygon class="st2" points="248.6,310.8 255.8,309.7 256,309.7 263.2,308.5 263.4,308.5 270.8,307.3 270,302.2 262.6,303.4 
			262.4,303.4 255.2,304.6 255,304.6 247.8,305.7 247.6,305.8 240.2,306.9 241,312 248.4,310.9 		"/>
		<polygon class="st2" points="284.7,299.9 285.5,305 292.9,303.8 293.1,303.8 300.3,302.6 300.5,302.6 307.7,301.5 307.9,301.4 
			315.1,300.3 315.3,300.3 322.5,299.1 322.7,299.1 329.9,298 330.1,297.9 337.3,296.8 337.5,296.7 344.7,295.6 345,295.6 
			352.4,294.4 351.6,289.3 344.1,290.5 343.9,290.5 336.7,291.7 336.5,291.7 329.3,292.8 329.1,292.9 321.9,294 321.7,294 
			314.5,295.2 314.3,295.2 307.1,296.3 306.9,296.4 299.7,297.5 299.5,297.6 292.3,298.7 292.1,298.7 		"/>
		<polygon class="st2" points="374.6,290.9 382,289.7 381.2,284.6 373.8,285.8 373.6,285.8 366.2,287 367,292.1 374.4,290.9 		"/>
		<polygon class="st2" points="418.1,278.8 410.9,279.9 410.7,279.9 403.5,281.1 403.3,281.1 395.9,282.3 396.7,287.4 404.1,286.2 
			404.3,286.2 411.5,285 411.7,285 418.9,283.9 419.1,283.8 426.5,282.7 425.7,277.6 418.3,278.7 		"/>
		<polygon class="st2" points="462.6,271.7 455.4,272.9 455.2,272.9 448,274 447.8,274.1 440.4,275.2 441.2,280.3 448.6,279.2 
			448.8,279.1 456,278 456.2,278 463.4,276.8 463.6,276.8 471,275.6 470.2,270.5 462.8,271.7 		"/>
		<polygon class="st2" points="492.3,267 484.8,268.2 485.7,273.3 493.1,272.1 493.3,272.1 500.7,270.9 499.9,265.8 492.5,267 		"/>
		<polygon class="st2" points="544.2,258.8 537,259.9 536.7,260 529.6,261.1 529.3,261.1 522.2,262.3 521.9,262.3 514.5,263.5 
			515.3,268.6 522.7,267.4 523,267.4 530.1,266.2 530.4,266.2 537.6,265.1 537.8,265 545,263.9 545.2,263.9 552.6,262.7 
			551.8,257.6 544.4,258.8 		"/>
		<polygon class="st2" points="610.9,248.2 603.7,249.4 603.5,249.4 596.3,250.5 596.1,250.6 588.9,251.7 588.6,251.8 581.5,252.9 
			581.2,252.9 574.1,254.1 573.8,254.1 566.4,255.3 567.2,260.4 574.6,259.2 574.9,259.2 582,258 582.3,258 589.5,256.8 
			589.7,256.8 596.9,255.7 597.1,255.6 604.3,254.5 604.5,254.5 611.7,253.3 611.9,253.3 619.3,252.1 618.5,247 611.1,248.2 		"/>
		<polygon class="st2" points="641.6,248.6 648.8,247.5 649,247.4 656.2,246.3 656.4,246.2 663.8,245.1 663,240 655.6,241.2 
			655.4,241.2 648.2,242.3 648,242.4 640.8,243.5 640.5,243.5 633.1,244.7 633.9,249.8 641.4,248.6 		"/>
		<polygon class="st2" points="729.7,229.4 722.3,230.6 722.1,230.6 714.9,231.8 714.7,231.8 707.5,232.9 707.3,233 700.1,234.1 
			699.9,234.1 692.7,235.3 692.4,235.3 685.3,236.5 685,236.5 677.6,237.7 678.4,242.8 685.8,241.6 686.1,241.5 693.3,240.4 
			693.5,240.4 700.7,239.2 700.9,239.2 708.1,238.1 708.3,238 715.5,236.9 715.7,236.9 722.9,235.7 723.1,235.7 730.5,234.5 		"/>
		<polygon class="st2" points="207.6,340 214.8,338.9 215,338.8 222.2,337.7 222.4,337.7 229.6,336.5 229.8,336.5 237,335.3 
			237.3,335.3 244.7,334.1 243.9,329 236.4,330.2 236.2,330.3 229,331.4 228.8,331.4 221.6,332.6 221.4,332.6 214.2,333.7 
			214,333.8 206.8,334.9 206.6,334.9 199.2,336.1 200,341.2 207.4,340 		"/>
		<polygon class="st2" points="295.5,320.9 288.3,322 288.1,322 280.9,323.2 280.7,323.2 273.5,324.3 273.3,324.4 266.1,325.5 
			265.9,325.6 258.5,326.7 259.3,331.8 266.7,330.6 266.9,330.6 274.1,329.5 274.3,329.4 281.5,328.3 281.7,328.3 288.9,327.1 
			289.2,327.1 296.3,326 296.6,325.9 304,324.7 303.2,319.7 295.8,320.8 		"/>
		<polygon class="st2" points="362.5,310.3 362.2,310.3 355.1,311.4 354.8,311.5 347.7,312.6 347.4,312.6 340.2,313.8 340,313.8 
			332.8,315 332.6,315 325.4,316.1 325.2,316.2 317.8,317.3 318.6,322.4 326,321.3 326.2,321.2 333.4,320.1 333.6,320 340.8,318.9 
			341.1,318.9 348.2,317.7 348.5,317.7 355.6,316.6 355.9,316.5 363,315.4 363.3,315.4 370.5,314.2 370.7,314.2 377.9,313 
			378.1,313 385.3,311.9 385.5,311.8 392.7,310.7 392.9,310.7 400.3,309.5 399.5,304.4 392.1,305.6 391.9,305.6 384.7,306.7 
			384.5,306.8 377.3,307.9 377.1,307.9 369.9,309.1 369.6,309.1 		"/>
		<polygon class="st2" points="436.6,298.5 436.4,298.6 429.2,299.7 429,299.7 421.8,300.9 421.5,300.9 414.1,302.1 414.9,307.2 
			422.4,306 422.6,306 429.8,304.8 430,304.8 437.2,303.6 437.4,303.6 444.6,302.5 444.8,302.4 452,301.3 452.2,301.3 459.4,300.1 
			459.6,300.1 466.8,299 467,298.9 474.4,297.7 473.6,292.7 466.2,293.8 466,293.9 458.8,295 458.6,295 451.4,296.2 451.2,296.2 
			444,297.3 443.8,297.4 		"/>
		<polygon class="st2" points="489.1,295.4 496.5,294.3 496.7,294.2 503.9,293.1 504.1,293 511.3,291.9 511.5,291.9 518.7,290.7 
			518.9,290.7 526.1,289.6 526.3,289.5 533.5,288.4 533.7,288.4 540.9,287.2 541.2,287.2 548.6,286 547.8,280.9 540.3,282.1 
			540.1,282.1 532.9,283.3 532.7,283.3 525.5,284.4 525.3,284.5 518.1,285.6 517.9,285.6 510.7,286.8 510.5,286.8 503.3,288 
			503.1,288 495.9,289.1 495.7,289.2 488.3,290.3 		"/>
		<polygon class="st2" points="562.4,278.6 563.2,283.7 570.6,282.5 570.8,282.5 578,281.3 578.2,281.3 585.4,280.2 585.6,280.1 
			593.1,279 592.2,273.9 584.8,275 584.6,275.1 577.4,276.2 577.2,276.2 570,277.4 569.8,277.4 		"/>
		<polygon class="st2" points="615.3,275.4 622.7,274.3 621.9,269.2 614.5,270.3 614.3,270.4 606.9,271.5 607.7,276.6 615.1,275.5 
					"/>
		<polygon class="st2" points="637.4,271.9 644.8,270.8 645,270.7 652.2,269.6 652.4,269.6 659.6,268.4 659.8,268.4 667,267.2 
			667.2,267.2 674.4,266.1 674.6,266 681.8,264.9 682,264.9 689.4,263.7 688.6,258.6 681.2,259.8 681,259.8 673.8,260.9 673.6,261 
			666.4,262.1 666.2,262.2 659,263.3 658.8,263.3 651.6,264.5 651.4,264.5 644.2,265.6 644,265.7 636.6,266.8 		"/>
		<polygon class="st2" points="711.7,260.2 719.1,259 718.3,253.9 710.9,255.1 710.7,255.1 703.3,256.3 704.1,261.4 711.5,260.2 		
			"/>
		<polygon class="st2" points="211.1,362.1 218.5,361 217.7,355.9 210.3,357 210.1,357.1 202.7,358.2 203.5,363.3 210.9,362.2 		"/>
		<polygon class="st2" points="254.8,350 254.6,350 247.4,351.2 247.2,351.2 240,352.3 239.8,352.4 232.4,353.5 233.2,358.6 
			240.6,357.5 240.8,357.4 248,356.3 248.2,356.3 255.4,355.1 255.6,355.1 262.8,353.9 263,353.9 270.2,352.8 270.4,352.7 
			277.6,351.6 277.8,351.6 285.2,350.4 284.4,345.3 277,346.5 276.8,346.5 269.6,347.6 269.4,347.7 262.2,348.8 262,348.9 		"/>
		<polygon class="st2" points="314.1,340.6 313.9,340.6 306.7,341.8 306.5,341.8 299.1,343 299.9,348.1 307.3,346.9 307.5,346.9 
			314.7,345.7 314.9,345.7 322.1,344.6 322.3,344.5 329.5,343.4 329.7,343.3 336.9,342.2 337.1,342.2 344.3,341 344.6,341 
			351.7,339.9 352,339.8 359.1,338.7 359.4,338.6 366.5,337.5 366.8,337.5 374.2,336.3 373.4,331.2 366,332.4 365.7,332.4 
			358.6,333.6 358.3,333.6 351.2,334.7 350.9,334.8 343.7,335.9 343.5,335.9 336.3,337.1 336.1,337.1 328.9,338.2 328.7,338.3 
			321.5,339.4 321.3,339.5 		"/>
		<polygon class="st2" points="410.2,325.4 403.1,326.5 402.8,326.5 395.6,327.7 395.4,327.7 388,328.9 388.8,334 396.2,332.8 
			396.5,332.8 403.6,331.6 403.9,331.6 411,330.5 411.3,330.4 418.7,329.3 417.9,324.2 410.5,325.3 		"/>
		<polygon class="st2" points="440.9,325.7 448.1,324.6 448.4,324.6 455.5,323.4 455.8,323.4 462.9,322.2 463.2,322.2 470.6,321 
			469.8,315.9 462.4,317.1 462.1,317.2 455,318.3 454.7,318.3 447.5,319.5 447.3,319.5 440.1,320.6 439.9,320.7 432.5,321.8 
			433.3,326.9 440.7,325.8 		"/>
		<polygon class="st2" points="485.2,318.7 492.6,317.5 492.8,317.5 500,316.4 500.3,316.3 507.7,315.2 506.9,310.1 499.5,311.2 
			499.2,311.3 492,312.4 491.8,312.5 484.4,313.6 		"/>
		<polygon class="st2" points="536.3,305.4 529.1,306.5 528.9,306.6 521.5,307.8 522.3,312.8 529.7,311.7 529.9,311.6 537.1,310.5 
			537.3,310.5 544.7,309.3 543.9,304.2 536.5,305.4 		"/>
		<polygon class="st2" points="559.4,307 566.8,305.8 567,305.8 574.2,304.6 574.4,304.6 581.6,303.5 581.8,303.4 589,302.3 
			589.2,302.2 596.4,301.1 596.6,301.1 604.1,299.9 603.2,294.8 595.8,296 595.6,296 588.4,297.1 588.2,297.2 581,298.3 
			580.8,298.4 573.6,299.5 573.4,299.5 566.2,300.7 566,300.7 558.6,301.9 		"/>
		<polygon class="st2" points="632.7,290.1 625.5,291.3 625.3,291.3 617.9,292.5 618.7,297.6 626.1,296.4 626.3,296.4 633.5,295.2 
			633.7,295.2 640.9,294.1 641.1,294 648.3,292.9 648.5,292.8 656,291.7 655.1,286.6 647.7,287.8 647.5,287.8 640.3,288.9 
			640.1,289 632.9,290.1 		"/>
		<polygon class="st2" points="678.2,288.1 685.6,287 684.8,281.9 677.4,283.1 677.2,283.1 669.8,284.3 670.6,289.4 678,288.2 		"/>
		<polygon class="st2" points="700.3,284.7 707.7,283.5 707.9,283.4 715.1,282.3 715.3,282.3 722.5,281.1 722.7,281.1 730.1,279.9 
			729.3,274.8 721.9,276 721.7,276 714.5,277.2 714.3,277.2 707.1,278.4 706.9,278.4 699.5,279.6 		"/>
		<polygon class="st2" points="214.6,384.3 221.8,383.1 222,383.1 229.2,381.9 229.4,381.9 236.6,380.8 236.9,380.7 244,379.6 
			244.3,379.6 251.7,378.4 250.9,373.3 243.5,374.5 243.2,374.5 236,375.6 235.8,375.7 228.6,376.8 228.4,376.8 221.2,378 221,378 
			213.8,379.2 213.6,379.2 206.2,380.4 207,385.5 214.4,384.3 		"/>
		<polygon class="st2" points="273.9,374.9 281.3,373.7 280.5,368.6 273.1,369.8 272.9,369.8 265.5,371 266.3,376.1 273.7,374.9 		
			"/>
		<polygon class="st2" points="354.4,356.9 347.3,358 347,358.1 339.8,359.2 339.6,359.2 332.4,360.4 332.2,360.4 325,361.5 
			324.8,361.6 317.6,362.7 317.4,362.8 310.2,363.9 310,363.9 302.8,365.1 302.6,365.1 295.2,366.3 296,371.4 303.4,370.2 
			303.6,370.2 310.8,369 311,369 318.2,367.8 318.4,367.8 325.6,366.7 325.8,366.6 333,365.5 333.2,365.5 340.4,364.3 340.7,364.3 
			347.8,363.2 348.1,363.1 355.2,362 355.5,361.9 362.9,360.8 362.1,355.7 354.7,356.9 		"/>
		<polygon class="st2" points="384.3,352.2 384.1,352.2 376.7,353.4 377.5,358.5 384.9,357.3 385.1,357.2 392.3,356.1 392.6,356.1 
			399.7,354.9 400,354.9 407.1,353.8 407.4,353.7 414.8,352.6 414,347.5 406.6,348.6 406.3,348.7 399.2,349.8 398.9,349.8 
			391.7,351 391.5,351 		"/>
		<polygon class="st2" points="428.6,345.1 429.4,350.2 436.8,349.1 437,349 444.2,347.9 444.5,347.9 451.6,346.7 451.9,346.7 
			459.3,345.5 458.5,340.4 451.1,341.6 450.8,341.6 443.6,342.8 443.4,342.8 436.2,343.9 436,344 		"/>
		<polygon class="st2" points="480.7,336.9 480.5,336.9 473.1,338.1 473.9,343.2 481.3,342 481.5,342 488.7,340.8 488.9,340.8 
			496.1,339.7 496.4,339.6 503.5,338.5 503.8,338.5 510.9,337.3 511.2,337.3 518.3,336.1 518.6,336.1 525.8,335 526,334.9 
			533.4,333.8 532.6,328.7 525.2,329.8 524.9,329.9 517.8,331 517.5,331.1 510.4,332.2 510.1,332.2 503,333.4 502.7,333.4 
			495.5,334.5 495.3,334.6 488.1,335.7 487.9,335.7 		"/>
		<polygon class="st2" points="606.7,316.9 606.5,317 599.3,318.1 599.1,318.1 591.9,319.3 591.7,319.3 584.5,320.5 584.3,320.5 
			577.1,321.6 576.8,321.7 569.7,322.8 569.4,322.8 562.3,324 562,324 554.9,325.1 554.6,325.2 547.2,326.4 548,331.4 555.4,330.3 
			555.7,330.2 562.8,329.1 563.1,329.1 570.2,327.9 570.5,327.9 577.7,326.8 577.9,326.7 585.1,325.6 585.3,325.5 592.5,324.4 
			592.7,324.4 599.9,323.2 600.1,323.2 607.3,322.1 607.5,322 614.7,320.9 614.9,320.9 622.3,319.7 621.5,314.6 614.1,315.8 
			613.9,315.8 		"/>
		<polygon class="st2" points="644.6,316.2 651.8,315 652,315 659.4,313.8 658.6,308.7 651.2,309.9 651,309.9 643.8,311.1 
			643.6,311.1 636.2,312.3 637,317.4 644.4,316.2 		"/>
		<polygon class="st2" points="695.7,302.8 695.5,302.9 688.3,304 688.1,304 680.9,305.2 680.6,305.2 673.2,306.4 674,311.5 
			681.5,310.3 681.7,310.3 688.9,309.1 689.1,309.1 696.3,308 696.5,307.9 703.7,306.8 703.9,306.8 711.3,305.6 710.5,300.5 
			703.1,301.7 702.9,301.7 		"/>
		<polygon class="st2" points="218.1,406.4 225.3,405.2 225.5,405.2 232.7,404.1 232.9,404 240.1,402.9 240.4,402.9 247.5,401.7 
			247.8,401.7 255.2,400.5 254.4,395.4 247,396.6 246.7,396.6 239.6,397.8 239.3,397.8 232.1,398.9 231.9,399 224.7,400.1 
			224.5,400.1 217.3,401.3 217.1,401.3 209.7,402.5 210.5,407.6 217.9,406.4 		"/>
		<polygon class="st2" points="269.8,398.2 277.2,397 277.4,397 284.8,395.8 284,390.7 276.6,391.9 276.4,391.9 269,393.1 		"/>
		<polygon class="st2" points="307.1,392.3 314.3,391.1 314.5,391.1 321.7,390 321.9,389.9 329.1,388.8 329.3,388.8 336.5,387.6 
			336.7,387.6 343.9,386.5 344.2,386.4 351.6,385.2 350.8,380.2 343.4,381.3 343.1,381.4 335.9,382.5 335.7,382.5 328.5,383.7 
			328.3,383.7 321.1,384.8 320.9,384.9 313.7,386 313.5,386.1 306.3,387.2 306.1,387.2 298.7,388.4 299.5,393.5 306.9,392.3 		"/>
		<polygon class="st2" points="373,376.6 372.8,376.7 365.4,377.8 366.2,382.9 373.6,381.8 373.8,381.7 381,380.6 381.2,380.5 
			388.4,379.4 388.6,379.4 395.8,378.2 396.1,378.2 403.5,377 402.7,371.9 395.3,373.1 395,373.1 387.8,374.3 387.6,374.3 
			380.4,375.5 380.2,375.5 		"/>
		<polygon class="st2" points="424.9,368.4 424.7,368.4 417.3,369.6 418.1,374.7 425.5,373.5 425.7,373.5 432.9,372.4 433.1,372.3 
			440.3,371.2 440.5,371.1 447.7,370 448,370 455.1,368.8 455.4,368.8 462.5,367.7 462.8,367.6 469.9,366.5 470.2,366.5 
			477.4,365.3 477.6,365.3 485,364.1 484.2,359 476.8,360.2 476.5,360.2 469.4,361.4 469.1,361.4 462,362.5 461.7,362.6 
			454.6,363.7 454.3,363.7 447.2,364.9 446.9,364.9 439.7,366.1 439.5,366.1 432.3,367.2 432.1,367.3 		"/>
		<polygon class="st2" points="507.3,360.6 514.7,359.4 513.9,354.3 506.5,355.5 506.2,355.5 498.8,356.7 499.6,361.8 507,360.6 		
			"/>
		<polygon class="st2" points="528.5,352 529.3,357.1 536.7,355.9 536.9,355.9 544.1,354.7 544.3,354.7 551.5,353.6 551.8,353.5 
			559.2,352.4 558.4,347.3 551,348.4 550.7,348.5 543.5,349.6 543.3,349.7 536.1,350.8 535.9,350.8 		"/>
		<polygon class="st2" points="581.4,348.8 588.6,347.7 588.8,347.7 596,346.5 596.2,346.5 603.7,345.3 602.9,340.2 595.4,341.4 
			595.2,341.4 588,342.6 587.8,342.6 580.6,343.7 580.4,343.8 573,345 573.8,350 581.2,348.9 		"/>
		<polygon class="st2" points="624.9,336.7 617.5,337.9 618.3,343 625.7,341.8 625.9,341.8 633.3,340.6 632.5,335.5 625.1,336.7 		
			"/>
		<polygon class="st2" points="692.6,331.2 699.8,330.1 700,330 707.5,328.9 706.7,323.8 699.2,325 699,325 691.8,326.1 
			691.6,326.2 684.4,327.3 684.2,327.3 677,328.5 676.8,328.5 669.6,329.6 669.4,329.7 662.2,330.8 662,330.9 654.8,332 654.6,332 
			647.2,333.2 648,338.3 655.4,337.1 655.6,337.1 662.8,336 663,335.9 670.2,334.8 670.4,334.7 677.6,333.6 677.8,333.6 685,332.4 
			685.2,332.4 692.4,331.3 		"/>
		<polygon class="st2" points="728.7,320.3 721.3,321.5 722.1,326.6 729.5,325.4 729.7,325.3 737.1,324.2 736.3,319.1 728.9,320.3 
					"/>
		<polygon class="st2" points="221.6,428.5 228.8,427.4 229,427.3 236.2,426.2 236.5,426.2 243.6,425 243.9,425 251.3,423.8 
			250.5,418.7 243.1,419.9 242.8,419.9 235.6,421.1 235.4,421.1 228.2,422.2 228,422.3 220.8,423.4 220.6,423.4 213.2,424.6 
			214,429.7 221.4,428.5 		"/>
		<polygon class="st2" points="265.1,416.4 265.9,421.5 273.3,420.3 273.5,420.3 280.7,419.1 280.9,419.1 288.1,418 288.4,417.9 
			295.8,416.8 295,411.7 287.5,412.8 287.3,412.9 280.1,414 279.9,414.1 272.7,415.2 272.5,415.2 		"/>
		<polygon class="st2" points="368.8,400 361.7,401.1 361.4,401.1 354.3,402.3 354,402.3 346.9,403.4 346.6,403.5 339.4,404.6 
			339.2,404.7 332,405.8 331.8,405.8 324.6,407 324.4,407 317.2,408.1 317,408.2 309.6,409.4 310.4,414.4 317.8,413.3 318,413.2 
			325.2,412.1 325.4,412.1 332.6,410.9 332.8,410.9 340,409.8 340.3,409.7 347.4,408.6 347.7,408.5 354.8,407.4 355.1,407.4 
			362.2,406.2 362.5,406.2 369.7,405.1 369.9,405 377.3,403.8 376.5,398.8 369.1,399.9 		"/>
		<polygon class="st2" points="405.9,394.1 398.8,395.2 398.5,395.3 391.1,396.4 391.9,401.5 399.3,400.4 399.6,400.3 406.7,399.2 
			407,399.1 414.4,398 413.6,392.9 406.2,394.1 		"/>
		<polygon class="st2" points="473.5,388.6 473.7,388.6 481.1,387.4 480.3,382.3 472.9,383.5 472.6,383.5 465.5,384.7 465.2,384.7 
			458.1,385.8 457.8,385.9 450.7,387 450.4,387 443.2,388.2 443,388.2 435.8,389.4 435.6,389.4 428.2,390.6 429,395.7 436.4,394.5 
			436.6,394.4 443.8,393.3 444.1,393.3 451.2,392.1 451.5,392.1 458.6,391 458.9,390.9 466,389.8 466.3,389.8 		"/>
		<polygon class="st2" points="494.9,380 495.7,385.1 503.1,383.9 503.4,383.9 510.5,382.7 510.8,382.7 517.9,381.6 518.2,381.5 
			525.4,380.4 525.6,380.4 532.8,379.2 533,379.2 540.2,378.1 540.4,378 547.6,376.9 547.8,376.8 555.2,375.7 554.4,370.6 
			547,371.7 546.8,371.8 539.6,372.9 539.4,373 532.2,374.1 532,374.1 524.8,375.3 524.5,375.3 517.4,376.4 517.1,376.5 510,377.6 
			509.7,377.7 502.6,378.8 502.3,378.8 		"/>
		<polygon class="st2" points="569,368.3 569.8,373.4 577.3,372.2 577.5,372.1 584.7,371 584.9,371 592.1,369.8 592.3,369.8 
			599.5,368.7 599.7,368.6 606.9,367.5 607.1,367.4 614.3,366.3 614.5,366.3 621.7,365.1 621.9,365.1 629.3,363.9 628.5,358.8 
			621.1,360 620.9,360 613.7,361.2 613.5,361.2 606.3,362.4 606.1,362.4 598.9,363.5 598.7,363.6 591.5,364.7 591.3,364.7 
			584.1,365.9 583.9,365.9 576.7,367 576.4,367.1 		"/>
		<polygon class="st2" points="644,361.6 651.4,360.4 651.6,360.4 658.8,359.3 659,359.2 666.2,358.1 666.4,358.1 673.6,356.9 
			673.8,356.9 681.2,355.7 680.4,350.6 673,351.8 672.8,351.8 665.6,353 665.4,353 658.2,354.1 658,354.2 650.8,355.3 650.6,355.3 
			643.2,356.5 		"/>
		<polygon class="st2" points="747.1,340 739.7,341.2 739.5,341.3 732.3,342.4 732.1,342.4 724.9,343.6 724.7,343.6 717.5,344.7 
			717.3,344.8 710.1,345.9 709.9,346 702.7,347.1 702.5,347.1 695.1,348.3 695.9,353.4 703.3,352.2 703.5,352.2 710.7,351 
			710.9,351 718.1,349.9 718.3,349.8 725.5,348.7 725.7,348.7 732.9,347.5 733.1,347.5 740.3,346.4 740.5,346.3 748,345.1 		"/>
		<polygon class="st2" points="225.1,450.6 232.3,449.5 232.6,449.5 239.7,448.3 240,448.3 247.1,447.1 247.4,447.1 254.8,445.9 
			254,440.8 246.6,442 246.3,442 239.2,443.2 238.9,443.2 231.7,444.4 231.5,444.4 224.3,445.5 224.1,445.6 216.7,446.7 
			217.5,451.8 224.9,450.7 		"/>
		<polygon class="st2" points="269.4,443.6 276.8,442.4 277,442.4 284.2,441.3 284.4,441.2 291.6,440.1 291.9,440.1 299.3,438.9 
			298.5,433.8 291.1,435 290.8,435 283.6,436.1 283.4,436.2 276.2,437.3 276,437.3 268.6,438.5 		"/>
		<polygon class="st2" points="321.5,435.4 328.7,434.2 328.9,434.2 336.1,433 336.3,433 343.5,431.9 343.8,431.8 350.9,430.7 
			351.2,430.7 358.6,429.5 357.8,424.4 350.4,425.6 350.1,425.6 343,426.7 342.7,426.8 335.5,427.9 335.3,428 328.1,429.1 
			327.9,429.1 320.7,430.3 320.5,430.3 313.1,431.5 313.9,436.6 321.3,435.4 		"/>
		<polygon class="st2" points="379.8,420.9 372.4,422.1 373.2,427.2 380.6,426 380.8,426 388.2,424.8 387.4,419.7 380,420.9 		"/>
		<polygon class="st2" points="424.5,413.8 424.3,413.9 417.1,415 416.9,415 409.7,416.2 409.5,416.2 402.1,417.4 402.9,422.5 
			410.3,421.3 410.5,421.3 417.7,420.1 417.9,420.1 425.1,419 425.3,418.9 432.5,417.8 432.7,417.7 439.9,416.6 440.1,416.6 
			447.3,415.4 447.6,415.4 455,414.2 454.2,409.1 446.8,410.3 446.5,410.3 439.3,411.5 439.1,411.5 431.9,412.7 431.7,412.7 		"/>
		<polygon class="st2" points="491.2,403.3 491,403.3 483.8,404.4 483.6,404.5 476.4,405.6 476.2,405.6 468.8,406.8 469.6,411.9 
			477,410.7 477.2,410.7 484.4,409.6 484.6,409.5 491.8,408.4 492,408.4 499.2,407.2 499.5,407.2 506.9,406 506.1,400.9 
			498.7,402.1 498.4,402.1 		"/>
		<polygon class="st2" points="565.4,391.5 565.1,391.6 558,392.7 557.7,392.7 550.6,393.9 550.3,393.9 543.1,395 542.9,395.1 
			535.7,396.2 535.5,396.2 528.3,397.4 528.1,397.4 520.7,398.6 521.5,403.7 528.9,402.5 529.1,402.5 536.3,401.3 536.5,401.3 
			543.7,400.2 544,400.1 551.1,399 551.4,399 558.5,397.8 558.8,397.8 565.9,396.6 566.2,396.6 573.3,395.5 573.6,395.4 
			580.8,394.3 581,394.3 588.4,393.1 587.6,388 580.2,389.2 580,389.2 572.8,390.3 572.5,390.4 		"/>
		<polygon class="st2" points="228.6,472.7 235.8,471.6 236.1,471.6 243.2,470.4 243.5,470.4 250.6,469.3 250.9,469.2 258.3,468.1 
			257.5,463 250.1,464.1 249.8,464.2 242.7,465.3 242.4,465.3 235.2,466.5 235,466.5 227.8,467.7 227.6,467.7 220.2,468.9 221,474 
			228.4,472.8 		"/>
		<polygon class="st2" points="272.9,465.7 280.3,464.6 280.5,464.5 287.7,463.4 288,463.4 295.1,462.2 295.4,462.2 302.5,461 
			302.8,461 310.2,459.8 309.4,454.7 302,455.9 301.7,456 294.6,457.1 294.3,457.1 287.1,458.3 286.9,458.3 279.7,459.4 
			279.5,459.5 272.1,460.6 		"/>
		<polygon class="st2" points="361.3,446.5 353.9,447.7 353.6,447.7 346.5,448.9 346.2,448.9 339,450 338.8,450.1 331.6,451.2 
			331.4,451.3 324,452.4 324.8,457.5 332.2,456.3 332.4,456.3 339.6,455.2 339.9,455.1 347,454 347.3,454 354.4,452.8 354.7,452.8 
			362.1,451.6 		"/>
		<polygon class="st2" points="390.7,441.9 383.5,443 383.3,443 375.9,444.2 376.7,449.3 384.1,448.1 384.3,448.1 391.5,447 
			391.8,446.9 399.2,445.7 398.4,440.6 390.9,441.8 		"/>
		<polygon class="st2" points="436.2,439.9 443.4,438.7 443.7,438.7 451.1,437.5 450.3,432.4 442.8,433.6 442.6,433.6 435.4,434.8 
			435.2,434.8 428,435.9 427.8,436 420.6,437.1 420.4,437.2 413,438.3 413.8,443.4 421.2,442.3 421.4,442.2 428.6,441.1 428.8,441 
			436,439.9 		"/>
		<polygon class="st2" points="487.1,426.6 479.9,427.7 479.7,427.8 472.5,428.9 472.3,428.9 464.9,430.1 465.7,435.2 473.1,434 
			473.3,434 480.5,432.9 480.7,432.8 487.9,431.7 488.1,431.6 495.6,430.5 494.7,425.4 487.3,426.6 		"/>
		<polygon class="st2" points="517,421.9 516.8,421.9 509.4,423.1 510.2,428.2 517.6,427 517.8,426.9 525,425.8 525.2,425.8 
			532.4,424.6 532.6,424.6 539.8,423.5 540,423.4 547.2,422.3 547.5,422.3 554.6,421.1 554.9,421.1 562,419.9 562.3,419.9 
			569.7,418.7 568.9,413.6 561.5,414.8 561.2,414.9 554.1,416 553.8,416 546.6,417.2 546.4,417.2 539.2,418.3 539,418.4 
			531.8,419.5 531.6,419.5 524.4,420.7 524.2,420.7 		"/>
		<polygon class="st2" points="643,401.9 642.8,401.9 635.6,403.1 635.4,403.1 628.2,404.2 627.9,404.3 620.8,405.4 620.5,405.5 
			613.4,406.6 613.1,406.6 606,407.8 605.7,407.8 598.5,408.9 598.3,409 591.1,410.1 590.9,410.2 583.5,411.3 584.3,416.4 
			591.7,415.2 591.9,415.2 599.1,414.1 599.4,414 606.5,412.9 606.8,412.9 613.9,411.7 614.2,411.7 621.3,410.6 621.6,410.5 
			628.8,409.4 629,409.3 636.2,408.2 636.4,408.2 643.6,407 643.8,407 651,405.9 651.2,405.8 658.6,404.6 657.8,399.6 650.4,400.7 
			650.2,400.8 		"/>
		<polygon class="st2" points="702.1,392.5 694.9,393.7 694.7,393.7 687.5,394.9 687.3,394.9 680.1,396 679.8,396.1 672.4,397.2 
			673.2,402.3 680.7,401.2 680.9,401.1 688.1,400 688.3,399.9 695.5,398.8 695.7,398.8 702.9,397.6 703.1,397.6 710.5,396.4 
			709.7,391.3 702.3,392.5 		"/>
		<polygon class="st2" points="732.8,392.9 740,391.8 740.2,391.7 747.6,390.6 746.8,385.5 739.4,386.6 739.2,386.7 732,387.8 
			731.7,387.8 724.3,389 725.1,394.1 732.6,392.9 		"/>
		<polygon class="st2" points="232.2,494.9 239.3,493.7 239.6,493.7 246.7,492.6 247,492.5 254.4,491.4 253.6,486.3 246.2,487.4 
			245.9,487.5 238.8,488.6 238.5,488.6 231.3,489.8 231.1,489.8 223.7,491 224.5,496.1 231.9,494.9 		"/>
		<polygon class="st2" points="269,489 276.4,487.9 276.6,487.8 283.8,486.7 284.1,486.7 291.2,485.5 291.5,485.5 298.6,484.3 
			298.9,484.3 306,483.2 306.3,483.1 313.4,482 313.7,482 321.1,480.8 320.3,475.7 312.9,476.9 312.6,476.9 305.5,478 305.2,478.1 
			298.1,479.2 297.8,479.3 290.7,480.4 290.4,480.4 283.2,481.6 283,481.6 275.8,482.7 275.6,482.8 268.2,483.9 		"/>
		<polygon class="st2" points="357.1,469.9 350,471 349.7,471 342.6,472.2 342.3,472.2 334.9,473.4 335.7,478.5 343.1,477.3 
			343.4,477.3 350.5,476.1 350.8,476.1 357.9,475 358.2,474.9 365.6,473.7 364.8,468.6 357.4,469.8 		"/>
		<polygon class="st2" points="387.9,470.2 395,469.1 395.3,469 402.4,467.9 402.7,467.9 409.8,466.7 410.1,466.7 417.2,465.6 
			417.5,465.5 424.7,464.4 424.9,464.3 432.3,463.2 431.5,458.1 424.1,459.3 423.9,459.3 416.7,460.4 416.4,460.5 409.3,461.6 
			409,461.6 401.9,462.8 401.6,462.8 394.5,463.9 394.2,464 387,465.1 386.8,465.2 379.4,466.3 380.2,471.4 387.6,470.2 		"/>
		<polygon class="st2" points="505.4,446.4 498.2,447.5 498,447.6 490.8,448.7 490.6,448.7 483.4,449.9 483.2,449.9 476,451 
			475.8,451.1 468.6,452.2 468.3,452.2 461.2,453.4 460.9,453.4 453.8,454.6 453.5,454.6 446.1,455.8 446.9,460.9 454.3,459.7 
			454.6,459.6 461.7,458.5 462,458.5 469.1,457.3 469.4,457.3 476.6,456.2 476.8,456.1 484,455 484.2,455 491.4,453.8 491.6,453.8 
			498.8,452.6 499,452.6 506.2,451.5 506.4,451.4 513.8,450.3 513,445.2 505.6,446.3 		"/>
		<polygon class="st2" points="535.1,441.7 527.7,442.9 528.5,447.9 535.9,446.8 536.1,446.7 543.5,445.6 542.7,440.5 535.3,441.6 
					"/>
		<polygon class="st2" points="601.8,431.1 594.6,432.2 594.4,432.3 587.2,433.4 587,433.5 579.8,434.6 579.6,434.6 572.4,435.8 
			572.1,435.8 565,436.9 564.7,437 557.3,438.1 558.1,443.2 565.5,442.1 565.8,442 572.9,440.9 573.2,440.9 580.4,439.7 
			580.6,439.7 587.8,438.5 588,438.5 595.2,437.4 595.4,437.3 602.6,436.2 602.8,436.2 610.2,435 609.4,429.9 602,431.1 		"/>
		<polygon class="st2" points="662.1,426.8 669.5,425.6 668.7,420.5 661.3,421.7 661.1,421.7 653.9,422.9 653.7,422.9 646.5,424 
			646.3,424.1 639.1,425.2 638.9,425.2 631.7,426.4 631.5,426.4 624,427.6 624.8,432.7 632.3,431.5 632.5,431.5 639.7,430.3 
			639.9,430.3 647.1,429.2 647.3,429.1 654.5,428 654.7,427.9 661.9,426.8 		"/>
		<polygon class="st2" points="713.8,418.6 714,418.6 721.4,417.4 720.6,412.3 713.2,413.5 713,413.5 705.8,414.6 705.6,414.7 
			698.4,415.8 698.2,415.8 691,417 690.8,417 683.4,418.2 684.2,423.3 691.6,422.1 691.8,422.1 699,420.9 699.2,420.9 706.4,419.8 
			706.6,419.7 		"/>
		<polygon class="st2" points="757.5,406.4 750.3,407.6 750.1,407.6 742.9,408.8 742.7,408.8 735.3,410 736.1,415.1 743.5,413.9 
			743.7,413.9 750.9,412.7 751.1,412.7 758.3,411.5 758.5,411.5 765.9,410.3 765.1,405.2 757.7,406.4 		"/>
		<polygon class="st2" points="235.7,517 242.8,515.9 243.1,515.8 250.2,514.7 250.5,514.7 257.9,513.5 257.1,508.4 249.7,509.6 
			249.4,509.6 242.3,510.7 242,510.8 234.8,511.9 234.6,511.9 227.2,513.1 228,518.2 235.4,517 		"/>
		<polygon class="st2" points="272.5,511.2 279.9,510 280.1,510 287.3,508.8 287.6,508.8 294.7,507.6 295,507.6 302.4,506.4 
			301.6,501.3 294.2,502.5 293.9,502.5 286.7,503.7 286.5,503.7 279.3,504.9 279.1,504.9 271.7,506.1 		"/>
		<polygon class="st2" points="316.2,499 317,504.1 324.4,502.9 324.6,502.9 331.8,501.8 332,501.7 339.2,500.6 339.5,500.6 
			346.6,499.4 346.9,499.4 354,498.2 354.3,498.2 361.4,497.1 361.7,497 368.9,495.9 369.1,495.9 376.3,494.7 376.5,494.7 
			383.9,493.5 383.1,488.4 375.7,489.6 375.5,489.6 368.3,490.8 368,490.8 360.9,491.9 360.6,492 353.5,493.1 353.2,493.2 
			346.1,494.3 345.8,494.3 338.6,495.5 338.4,495.5 331.2,496.6 331,496.7 323.8,497.8 323.6,497.8 		"/>
		<polygon class="st2" points="405.1,484.9 397.7,486.1 398.5,491.2 405.9,490 406.2,490 413.6,488.8 412.8,483.7 405.4,484.9 		"/>
		<polygon class="st2" points="427.4,481.4 428.2,486.5 435.6,485.3 435.8,485.3 443,484.2 443.3,484.1 450.4,483 450.7,482.9 
			458.1,481.8 457.3,476.7 449.9,477.9 449.6,477.9 442.4,479 442.2,479.1 435,480.2 434.8,480.2 		"/>
		<polygon class="st2" points="494.1,470.8 486.9,472 486.7,472 479.5,473.2 479.3,473.2 471.9,474.4 472.7,479.5 480.1,478.3 
			480.3,478.2 487.5,477.1 487.7,477.1 494.9,475.9 495.2,475.9 502.6,474.7 501.8,469.6 494.3,470.8 		"/>
		<polygon class="st2" points="523.8,466.1 516.4,467.3 517.2,472.4 524.6,471.2 524.8,471.2 532.2,470 531.4,464.9 524,466.1 		"/>
		<polygon class="st2" points="546.9,467.7 554.3,466.5 554.5,466.5 561.7,465.4 561.9,465.3 569.1,464.2 569.3,464.1 576.5,463 
			576.7,463 584.1,461.8 583.3,456.7 575.9,457.9 575.7,457.9 568.5,459.1 568.3,459.1 561.1,460.2 560.9,460.3 553.7,461.4 
			553.5,461.4 546.1,462.6 		"/>
		<polygon class="st2" points="650,446.1 642.6,447.3 642.4,447.4 635.2,448.5 635,448.5 627.8,449.7 627.6,449.7 620.4,450.8 
			620.2,450.9 613,452 612.8,452 605.6,453.2 605.4,453.2 598,454.4 598.8,459.5 606.2,458.3 606.4,458.3 613.6,457.1 613.8,457.1 
			621,456 621.2,455.9 628.4,454.8 628.6,454.8 635.8,453.6 636,453.6 643.2,452.4 643.4,452.4 650.9,451.2 		"/>
		<polygon class="st2" points="673.1,447.7 680.3,446.6 680.5,446.5 687.7,445.4 687.9,445.4 695.3,444.2 694.5,439.1 687.1,440.3 
			686.9,440.3 679.7,441.4 679.5,441.5 672.3,442.6 672.1,442.7 664.7,443.8 665.5,448.9 672.9,447.7 		"/>
		<polygon class="st2" points="754.4,434.8 754.7,434.8 762.1,433.6 761.3,428.5 753.8,429.7 753.6,429.7 746.4,430.9 746.2,430.9 
			739,432 738.8,432.1 731.6,433.2 731.4,433.3 724.2,434.4 724,434.4 716.8,435.6 716.6,435.6 709.2,436.8 710,441.9 717.4,440.7 
			717.6,440.7 724.8,439.5 725,439.5 732.2,438.4 732.4,438.3 739.6,437.2 739.8,437.1 747,436 747.2,436 		"/>
		<polygon class="st2" points="239.2,539.1 246.3,538 246.6,537.9 253.7,536.8 254,536.8 261.2,535.6 261.4,535.6 268.6,534.5 
			268.8,534.4 276.2,533.3 275.4,528.2 268,529.3 267.8,529.4 260.6,530.5 260.3,530.5 253.2,531.7 252.9,531.7 245.8,532.9 
			245.5,532.9 238.4,534 238.1,534.1 230.7,535.2 231.5,540.3 238.9,539.2 		"/>
		<polygon class="st2" points="312.5,522.3 312.2,522.3 305.1,523.5 304.8,523.5 297.7,524.6 297.4,524.7 290,525.8 290.8,530.9 
			298.2,529.8 298.5,529.7 305.6,528.6 305.9,528.6 313.1,527.4 313.3,527.4 320.5,526.2 320.7,526.2 327.9,525.1 328.1,525 
			335.5,523.9 334.7,518.8 327.3,519.9 327.1,520 319.9,521.1 319.7,521.2 		"/>
		<polygon class="st2" points="386.4,510.6 379.2,511.7 379,511.8 371.8,512.9 371.6,512.9 364.4,514.1 364.1,514.1 357,515.2 
			356.7,515.3 349.3,516.5 350.1,521.5 357.5,520.4 357.8,520.3 365,519.2 365.2,519.2 372.4,518 372.6,518 379.8,516.9 380,516.8 
			387.2,515.7 387.4,515.6 394.6,514.5 394.8,514.5 402,513.3 402.2,513.3 409.4,512.2 409.6,512.1 416.8,511 417,510.9 
			424.2,509.8 424.4,509.8 431.9,508.6 431,503.5 423.6,504.7 423.4,504.7 416.2,505.9 416,505.9 408.8,507 408.6,507.1 
			401.4,508.2 401.2,508.2 394,509.4 393.8,509.4 386.6,510.5 		"/>
		<polygon class="st2" points="468.1,497.6 467.9,497.7 460.7,498.8 460.5,498.8 453.3,500 453.1,500 445.7,501.2 446.5,506.3 
			453.9,505.1 454.1,505.1 461.3,503.9 461.5,503.9 468.7,502.8 468.9,502.7 476.1,501.6 476.3,501.6 483.5,500.4 483.8,500.4 
			490.9,499.2 491.2,499.2 498.3,498.1 498.6,498 506,496.9 505.2,491.8 497.8,492.9 497.5,493 490.4,494.1 490.1,494.2 
			482.9,495.3 482.7,495.3 475.5,496.5 475.3,496.5 		"/>
		<polygon class="st2" points="520.6,494.5 528,493.4 528.2,493.3 535.4,492.2 535.7,492.2 542.8,491 543.1,491 550.2,489.9 
			550.5,489.8 557.6,488.7 557.9,488.6 565.1,487.5 565.3,487.5 572.5,486.3 572.7,486.3 580.1,485.1 579.3,480 571.9,481.2 
			571.7,481.2 564.5,482.4 564.2,482.4 557.1,483.5 556.8,483.6 549.7,484.7 549.4,484.8 542.3,485.9 542,485.9 534.8,487.1 
			534.6,487.1 527.4,488.2 527.2,488.3 519.8,489.5 		"/>
		<polygon class="st2" points="602.4,481.6 609.5,480.5 609.8,480.4 617,479.3 617.2,479.2 624.6,478.1 623.8,473 616.4,474.2 
			616.1,474.2 609,475.3 608.7,475.4 601.6,476.5 601.3,476.5 593.9,477.7 594.7,482.8 602.1,481.6 		"/>
		<polygon class="st2" points="653.5,468.3 646.1,469.5 645.8,469.5 638.4,470.7 639.2,475.8 646.6,474.6 646.9,474.5 654.3,473.4 
					"/>
		<polygon class="st2" points="720.2,457.7 712.8,458.9 712.5,458.9 705.4,460.1 705.1,460.1 698,461.2 697.7,461.3 690.5,462.4 
			690.3,462.4 683.1,463.6 682.9,463.6 675.7,464.8 675.5,464.8 668.1,466 668.9,471.1 676.3,469.9 676.5,469.8 683.7,468.7 
			683.9,468.7 691.1,467.5 691.4,467.5 698.5,466.4 698.8,466.3 705.9,465.2 706.2,465.2 713.3,464 713.6,464 721,462.8 		"/>
		<polygon class="st2" points="750.7,458.1 749.9,453 742.4,454.2 742.2,454.2 734.8,455.4 735.6,460.5 743,459.3 743.3,459.3 		"/>
		<polygon class="st2" points="242.7,561.2 250.1,560.1 249.3,555 241.9,556.2 241.6,556.2 234.2,557.4 235,562.5 242.4,561.3 		"/>
		<polygon class="st2" points="271.5,551.5 271.3,551.5 263.9,552.7 264.7,557.8 272.1,556.6 272.3,556.5 279.5,555.4 279.7,555.4 
			286.9,554.2 287.2,554.2 294.3,553.1 294.6,553 301.7,551.9 302,551.9 309.1,550.7 309.4,550.7 316.8,549.5 316,544.4 
			308.6,545.6 308.3,545.6 301.2,546.8 300.9,546.8 293.8,547.9 293.5,548 286.3,549.1 286.1,549.1 278.9,550.3 278.7,550.3 		"/>
		<polygon class="st2" points="345.7,539.7 345.4,539.7 338.2,540.9 338,540.9 330.6,542.1 331.4,547.2 338.8,546 339.1,546 
			346.2,544.8 346.5,544.8 353.6,543.7 353.9,543.6 361,542.5 361.3,542.5 368.5,541.3 368.7,541.3 375.9,540.1 376.1,540.1 
			383.3,539 383.5,538.9 390.7,537.8 390.9,537.8 398.1,536.6 398.3,536.6 405.7,535.4 404.9,530.3 397.5,531.5 397.3,531.5 
			390.1,532.7 389.9,532.7 382.7,533.8 382.5,533.9 375.3,535 375.1,535.1 367.9,536.2 367.6,536.2 360.5,537.4 360.2,537.4 
			353.1,538.5 352.8,538.6 		"/>
		<polygon class="st2" points="246.2,583.4 253.3,582.2 253.6,582.2 260.8,581.1 261,581 268.2,579.9 268.4,579.9 275.8,578.7 
			275,573.6 267.6,574.8 267.4,574.8 260.2,575.9 259.9,576 252.8,577.1 252.5,577.1 245.4,578.3 245.1,578.3 237.7,579.5 
			238.5,584.6 245.9,583.4 		"/>
		<polygon class="st2" points="319.3,566.6 312.1,567.7 311.8,567.7 304.7,568.9 304.4,568.9 297.3,570.1 297,570.1 289.6,571.3 
			290.4,576.4 297.8,575.2 298.1,575.1 305.2,574 305.5,574 312.7,572.8 312.9,572.8 320.1,571.7 320.3,571.6 327.7,570.5 
			326.9,565.4 319.5,566.5 		"/>
		<polygon class="st2" points="378.8,557.1 371.4,558.3 371.2,558.4 364,559.5 363.7,559.5 356.6,560.7 356.3,560.7 349.2,561.8 
			348.9,561.9 341.5,563 342.3,568.1 349.7,567 350,566.9 357.1,565.8 357.4,565.8 364.6,564.6 364.8,564.6 372,563.4 372.2,563.4 
			379.6,562.2 		"/>
		<polygon class="st2" points="401.9,558.7 409,557.6 409.3,557.5 416.7,556.4 415.9,551.3 408.5,552.4 408.2,552.5 401.1,553.6 
			400.8,553.7 393.4,554.8 394.2,559.9 401.6,558.7 		"/>
		<polygon class="st2" points="430.5,549 431.3,554 438.7,552.9 439,552.8 446.1,551.7 446.4,551.7 453.5,550.5 453.8,550.5 
			460.9,549.4 461.2,549.3 468.6,548.1 467.8,543.1 460.4,544.2 460.1,544.3 453,545.4 452.7,545.4 445.6,546.6 445.3,546.6 
			438.1,547.7 437.9,547.8 		"/>
		<polygon class="st2" points="519.4,534.9 512.3,536 512,536 504.9,537.2 504.6,537.2 497.5,538.3 497.2,538.4 490,539.5 
			489.8,539.6 482.4,540.7 483.2,545.8 490.6,544.7 490.9,544.6 498,543.5 498.3,543.4 505.4,542.3 505.7,542.3 512.8,541.1 
			513.1,541.1 520.3,540 520.5,539.9 527.7,538.8 527.9,538.7 535.1,537.6 535.3,537.6 542.5,536.4 542.7,536.4 549.9,535.3 
			550.1,535.2 557.3,534.1 557.5,534.1 564.7,532.9 564.9,532.9 572.3,531.7 571.5,526.6 564.1,527.8 563.9,527.8 556.7,529 
			556.5,529 549.3,530.1 549.1,530.2 541.9,531.3 541.7,531.3 534.5,532.5 534.3,532.5 527.1,533.7 526.9,533.7 519.7,534.8 		"/>
		<polygon class="st2" points="631.4,522.4 631.6,522.3 638.8,521.2 639.1,521.1 646.2,520 646.5,520 653.6,518.8 653.9,518.8 
			661.3,517.6 660.5,512.5 653.1,513.7 652.8,513.7 645.7,514.9 645.4,514.9 638.2,516.1 638,516.1 630.8,517.2 630.6,517.3 
			623.4,518.4 623.2,518.4 616,519.6 615.8,519.6 608.6,520.7 608.4,520.8 601.2,521.9 601,522 593.8,523.1 593.6,523.1 
			586.2,524.3 587,529.4 594.4,528.2 594.6,528.2 601.8,527 602,527 609.2,525.9 609.4,525.8 616.6,524.7 616.8,524.7 624,523.5 
			624.2,523.5 		"/>
		<polygon class="st2" points="705.5,510.6 705.8,510.6 713.2,509.4 712.4,504.3 705,505.5 704.7,505.5 697.6,506.7 697.3,506.7 
			690.1,507.8 689.9,507.9 682.7,509 682.5,509 675.1,510.2 675.9,515.3 683.3,514.1 683.5,514.1 690.7,513 691,512.9 698.1,511.8 
			698.4,511.7 		"/>
		<polygon class="st2" points="749.5,498.4 742,499.6 741.8,499.6 734.6,500.8 734.4,500.8 727,502 727.8,507.1 735.2,505.9 
			735.4,505.9 742.6,504.7 742.9,504.7 750.3,503.5 		"/>
		<polygon class="st2" points="249.7,605.5 256.8,604.4 257.1,604.3 264.3,603.2 264.5,603.1 271.9,602 271.1,596.9 263.7,598.1 
			263.4,598.1 256.3,599.2 256,599.3 248.9,600.4 248.6,600.4 241.2,601.6 242,606.7 249.4,605.5 		"/>
		<polygon class="st2" points="285.7,594.6 286.5,599.7 293.9,598.5 294.2,598.4 301.3,597.3 301.6,597.3 308.7,596.1 309,596.1 
			316.2,595 316.4,594.9 323.6,593.8 323.8,593.8 331,592.6 331.2,592.6 338.6,591.4 337.8,586.3 330.4,587.5 330.2,587.5 
			323,588.7 322.8,588.7 315.6,589.8 315.3,589.9 308.2,591 307.9,591 300.8,592.2 300.5,592.2 293.4,593.4 293.1,593.4 		"/>
		<polygon class="st2" points="374.7,580.5 367.5,581.6 367.2,581.7 360.1,582.8 359.8,582.8 352.4,584 353.2,589.1 360.6,587.9 
			360.9,587.9 368.1,586.7 368.3,586.7 375.5,585.6 375.7,585.5 383.1,584.4 382.3,579.3 374.9,580.4 		"/>
		<polygon class="st2" points="397.7,582 405.1,580.9 405.4,580.8 412.5,579.7 412.8,579.7 420,578.5 420.2,578.5 427.4,577.4 
			427.6,577.3 434.8,576.2 435,576.1 442.2,575 442.4,575 449.8,573.8 449,568.7 441.6,569.9 441.4,569.9 434.2,571 434,571.1 
			426.8,572.2 426.6,572.3 419.4,573.4 419.1,573.4 412,574.6 411.7,574.6 404.6,575.7 404.3,575.8 396.9,577 		"/>
		<polygon class="st2" points="523.9,562.1 531.3,560.9 530.5,555.8 523.1,557 522.9,557 515.7,558.1 515.5,558.2 508.3,559.3 
			508.1,559.3 500.9,560.5 500.7,560.5 493.5,561.7 493.3,561.7 486.1,562.8 485.9,562.9 478.7,564 478.5,564 471.3,565.2 
			471,565.2 463.6,566.4 464.4,571.5 471.9,570.3 472.1,570.3 479.3,569.1 479.5,569.1 486.7,568 486.9,567.9 494.1,566.8 
			494.3,566.7 501.5,565.6 501.7,565.6 508.9,564.4 509.1,564.4 516.3,563.3 516.5,563.2 523.7,562.1 		"/>
		<polygon class="st2" points="553.6,557.4 561,556.2 560.2,551.1 552.8,552.3 552.6,552.3 545.2,553.5 546,558.6 553.4,557.4 		"/>
		<polygon class="st2" points="620.1,546.8 620.3,546.8 627.7,545.6 626.9,540.5 619.5,541.7 619.3,541.7 612.1,542.9 611.9,542.9 
			604.7,544 604.5,544.1 597.3,545.2 597.1,545.3 589.9,546.4 589.7,546.4 582.5,547.6 582.3,547.6 574.8,548.8 575.7,553.9 
			583.1,552.7 583.3,552.7 590.5,551.5 590.7,551.5 597.9,550.3 598.1,550.3 605.3,549.2 605.5,549.1 612.7,548 612.9,548 		"/>
		<polygon class="st2" points="672.2,538.6 679.4,537.4 679.6,537.4 687,536.2 686.2,531.1 678.8,532.3 678.6,532.3 671.4,533.5 
			671.2,533.5 664,534.6 663.8,534.7 656.6,535.8 656.4,535.9 649.2,537 649,537 641.6,538.2 642.4,543.3 649.8,542.1 650,542.1 
			657.2,541 657.4,540.9 664.6,539.8 664.8,539.7 672,538.6 		"/>
		<polygon class="st2" points="731.3,529.2 731.5,529.2 738.9,528 738.1,522.9 730.7,524.1 730.5,524.1 723.3,525.3 723.1,525.3 
			715.9,526.4 715.7,526.5 708.5,527.6 708.3,527.6 700.9,528.8 701.7,533.9 709.1,532.7 709.3,532.7 716.5,531.6 716.7,531.5 
			723.9,530.4 724.1,530.3 		"/>
		<polygon class="st2" points="775,517.1 767.8,518.2 767.6,518.2 760.4,519.4 760.2,519.4 752.8,520.6 753.6,525.7 761,524.5 
			761.2,524.5 768.4,523.3 768.6,523.3 775.8,522.2 776,522.1 783.4,521 782.6,515.9 775.2,517 		"/>
		<polygon class="st2" points="253.2,627.6 260.4,626.5 260.6,626.4 267.8,625.3 268,625.3 275.4,624.1 274.6,619 267.2,620.2 
			267,620.2 259.8,621.4 259.5,621.4 252.4,622.5 252.1,622.6 244.7,623.7 245.5,628.8 252.9,627.7 		"/>
		<polygon class="st2" points="297.7,620.6 304.8,619.4 305.1,619.4 312.3,618.3 312.5,618.2 319.9,617.1 319.1,612 311.7,613.1 
			311.4,613.2 304.3,614.3 304,614.3 296.9,615.5 296.6,615.5 289.2,616.7 290,621.8 297.4,620.6 		"/>
		<polygon class="st2" points="333.7,609.6 334.5,614.7 341.9,613.6 342.2,613.5 349.3,612.4 349.6,612.4 356.7,611.2 357,611.2 
			364.2,610 364.4,610 371.6,608.9 371.8,608.8 379,607.7 379.2,607.7 386.4,606.5 386.6,606.5 393.8,605.3 394,605.3 401.4,604.1 
			400.6,599 393.2,600.2 393,600.3 385.8,601.4 385.6,601.4 378.4,602.6 378.2,602.6 371,603.7 370.8,603.8 363.6,604.9 
			363.3,604.9 356.2,606.1 355.9,606.1 348.8,607.3 348.5,607.3 341.4,608.4 341.1,608.5 		"/>
		<polygon class="st2" points="422.7,595.6 415.2,596.7 416.1,601.8 423.5,600.6 423.7,600.6 431.1,599.4 430.3,594.3 422.9,595.5 
					"/>
		<polygon class="st2" points="459.7,589.7 452.6,590.8 452.3,590.9 444.9,592 445.7,597.1 453.1,595.9 453.4,595.9 460.5,594.8 
			460.8,594.7 468,593.6 468.2,593.6 475.6,592.4 474.8,587.3 467.4,588.5 467.1,588.5 460,589.6 		"/>
		<polygon class="st2" points="519.3,580.3 511.9,581.4 511.6,581.5 504.5,582.6 504.2,582.6 497.1,583.8 496.8,583.8 489.4,585 
			490.2,590.1 497.6,588.9 497.9,588.9 505,587.7 505.3,587.7 512.4,586.6 512.7,586.5 520.1,585.3 		"/>
		<polygon class="st2" points="541.3,576.8 533.9,577.9 534.7,583 542.1,581.9 542.4,581.8 549.8,580.6 549,575.6 541.5,576.7 		"/>
		<polygon class="st2" points="601.7,572.4 600.9,567.3 593.4,568.5 593.2,568.5 586,569.7 585.8,569.7 578.6,570.9 578.4,570.9 
			571.2,572 571,572.1 563.6,573.2 564.4,578.3 571.8,577.2 572,577.1 579.2,576 579.4,575.9 586.6,574.8 586.8,574.8 594,573.6 
			594.3,573.6 		"/>
		<polygon class="st2" points="667.6,556.8 660.2,557.9 659.9,558 652.8,559.1 652.5,559.1 645.3,560.3 645.1,560.3 637.9,561.5 
			637.7,561.5 630.5,562.6 630.3,562.7 623.1,563.8 622.9,563.8 615.5,565 616.3,570.1 623.7,568.9 623.9,568.9 631.1,567.8 
			631.3,567.7 638.5,566.6 638.7,566.6 645.9,565.4 646.2,565.4 653.3,564.2 653.6,564.2 660.7,563.1 661,563 668.4,561.9 		"/>
		<polygon class="st2" points="690.6,558.3 697.8,557.2 698.1,557.2 705.2,556 705.5,556 712.9,554.8 712.1,549.7 704.7,550.9 
			704.4,550.9 697.2,552.1 697,552.1 689.8,553.2 689.6,553.3 682.2,554.4 683,559.5 690.4,558.4 		"/>
		<polygon class="st2" points="778.8,539.2 771.4,540.3 771.1,540.4 764,541.5 763.7,541.5 756.6,542.7 756.3,542.7 749.1,543.8 
			748.9,543.9 741.7,545 741.5,545.1 734.3,546.2 734.1,546.2 726.7,547.4 727.5,552.5 734.9,551.3 735.1,551.3 742.3,550.1 
			742.5,550.1 749.7,549 750,548.9 757.1,547.8 757.4,547.8 764.5,546.6 764.8,546.6 771.9,545.5 772.2,545.4 779.6,544.2 		"/>
		<polygon class="st2" points="256.7,649.7 263.9,648.6 264.1,648.6 271.3,647.4 271.5,647.4 278.7,646.3 278.9,646.2 286.1,645.1 
			286.3,645 293.7,643.9 292.9,638.8 285.5,640 285.3,640 278.1,641.1 277.9,641.2 270.7,642.3 270.5,642.3 263.3,643.5 263,643.5 
			255.9,644.7 255.6,644.7 248.2,645.9 249,651 256.4,649.8 		"/>
		<polygon class="st2" points="322.4,634.1 315.2,635.3 314.9,635.3 307.5,636.5 308.3,641.6 315.8,640.4 316,640.3 323.2,639.2 
			323.4,639.2 330.6,638 330.8,638 338,636.9 338.2,636.8 345.4,635.7 345.6,635.7 353,634.5 352.2,629.4 344.8,630.6 344.6,630.6 
			337.4,631.7 337.2,631.8 330,632.9 329.8,632.9 322.6,634.1 		"/>
		<polygon class="st2" points="403.9,621.2 396.7,622.3 396.5,622.4 389.3,623.5 389.1,623.6 381.9,624.7 381.7,624.7 374.5,625.9 
			374.3,625.9 366.8,627.1 367.7,632.2 375.1,631 375.3,631 382.5,629.8 382.7,629.8 389.9,628.6 390.1,628.6 397.3,627.5 
			397.5,627.4 404.7,626.3 404.9,626.3 412.1,625.1 412.3,625.1 419.5,624 419.7,623.9 426.9,622.8 427.1,622.7 434.3,621.6 
			434.6,621.6 441.7,620.4 442,620.4 449.4,619.2 448.6,614.1 441.2,615.3 440.9,615.3 433.7,616.5 433.5,616.5 426.3,617.7 
			426.1,617.7 418.9,618.8 418.7,618.9 411.5,620 411.3,620 404.1,621.2 		"/>
		<polygon class="st2" points="522.7,602.4 515.3,603.6 515,603.6 507.9,604.7 507.6,604.8 500.5,605.9 500.2,605.9 493.1,607.1 
			492.8,607.1 485.6,608.3 485.4,608.3 478.2,609.4 478,609.5 470.8,610.6 470.6,610.6 463.2,611.8 464,616.9 471.4,615.7 
			471.6,615.7 478.8,614.6 479,614.5 486.2,613.4 486.5,613.3 493.6,612.2 493.9,612.2 501,611 501.3,611 508.4,609.9 508.7,609.8 
			515.9,608.7 516.1,608.7 523.5,607.5 		"/>
		<polygon class="st2" points="596.8,590.7 589.4,591.8 589.2,591.9 582,593 581.8,593 574.6,594.2 574.4,594.2 567.2,595.3 
			566.9,595.4 559.8,596.5 559.5,596.6 552.4,597.7 552.1,597.7 545,598.9 544.7,598.9 537.3,600.1 538.1,605.2 545.5,604 
			545.8,604 552.9,602.8 553.2,602.8 560.3,601.6 560.6,601.6 567.8,600.5 568,600.4 575.2,599.3 575.4,599.3 582.6,598.1 
			582.8,598.1 590,597 590.2,596.9 597.6,595.7 		"/>
		<polygon class="st2" points="633.7,584.8 626.5,586 626.3,586 619.1,587.1 618.8,587.2 611.4,588.3 612.2,593.4 619.7,592.3 
			619.9,592.2 627.1,591.1 627.3,591 634.5,589.9 634.7,589.9 642.1,588.7 641.3,583.6 633.9,584.8 		"/>
		<polygon class="st2" points="671.8,584 671,578.9 663.6,580.1 663.3,580.1 655.9,581.3 656.7,586.4 664.1,585.2 664.4,585.2 		"/>
		<polygon class="st2" points="730.1,569.5 722.9,570.7 722.6,570.7 715.5,571.9 715.2,571.9 708.1,573 707.8,573.1 700.7,574.2 
			700.4,574.2 693.2,575.4 693,575.4 685.6,576.6 686.4,581.7 693.8,580.5 694.1,580.5 701.2,579.3 701.5,579.3 708.6,578.2 
			708.9,578.1 716,577 716.3,576.9 723.5,575.8 723.7,575.8 730.9,574.6 731.1,574.6 738.5,573.4 737.7,568.3 730.3,569.5 		"/>
		<polygon class="st2" points="760.8,569.9 768.2,568.7 767.4,563.6 760,564.8 759.7,564.8 752.3,566 753.1,571.1 760.5,569.9 		"/>
		<polygon class="st2" points="260.2,671.9 267.6,670.7 266.8,665.6 259.4,666.8 259.1,666.8 251.7,668 252.5,673.1 260,671.9 		"/>
		<polygon class="st2" points="289.1,662.1 288.8,662.1 281.4,663.3 282.2,668.4 289.6,667.2 289.9,667.2 297,666 297.3,666 
			304.4,664.9 304.7,664.8 311.9,663.7 312.1,663.6 319.3,662.5 319.5,662.5 326.7,661.3 326.9,661.3 334.3,660.1 333.5,655 
			326.1,656.2 325.9,656.2 318.7,657.4 318.5,657.4 311.3,658.6 311,658.6 303.9,659.7 303.6,659.8 296.5,660.9 296.2,660.9 		"/>
		<polygon class="st2" points="348.1,652.7 348.9,657.8 356.3,656.6 356.6,656.6 363.8,655.5 364,655.4 371.2,654.3 371.4,654.3 
			378.6,653.1 378.8,653.1 386,651.9 386.2,651.9 393.4,650.8 393.6,650.7 400.8,649.6 401,649.6 408.2,648.4 408.4,648.4 
			415.6,647.3 415.8,647.2 423.2,646 422.4,640.9 415,642.1 414.8,642.2 407.6,643.3 407.4,643.3 400.2,644.5 400,644.5 
			392.8,645.6 392.6,645.7 385.4,646.8 385.2,646.9 378,648 377.8,648 370.6,649.2 370.4,649.2 363.2,650.3 362.9,650.4 
			355.8,651.5 355.5,651.5 		"/>
		<polygon class="st2" points="445.5,642.5 452.7,641.4 452.9,641.3 460.1,640.2 460.3,640.2 467.7,639 466.9,633.9 459.5,635.1 
			459.3,635.1 452.1,636.2 451.9,636.3 444.7,637.4 444.5,637.5 437.1,638.6 437.9,643.7 445.3,642.6 		"/>
		<polygon class="st2" points="512,632 512.2,631.9 519.6,630.8 518.8,625.7 511.4,626.9 511.2,626.9 504,628 503.8,628.1 
			496.6,629.2 496.4,629.2 489.2,630.4 489,630.4 481.6,631.6 482.4,636.7 489.8,635.5 490,635.5 497.2,634.3 497.4,634.3 
			504.6,633.2 504.8,633.1 		"/>
		<polygon class="st2" points="541.9,627.2 549.1,626.1 549.3,626.1 556.7,624.9 555.9,619.8 548.5,621 548.3,621 541.1,622.2 
			540.9,622.2 533.5,623.4 534.3,628.5 541.7,627.3 		"/>
		<polygon class="st2" points="585.4,615.1 578.2,616.3 578,616.3 570.5,617.5 571.4,622.6 578.8,621.4 579,621.4 586.2,620.2 
			586.4,620.2 593.8,619 593,613.9 585.6,615.1 		"/>
		<polygon class="st2" points="616.1,615.5 623.3,614.4 623.5,614.3 630.7,613.2 630.9,613.2 638.1,612 638.3,612 645.5,610.8 
			645.7,610.8 653.1,609.6 652.3,604.5 644.9,605.7 644.7,605.8 637.5,606.9 637.3,606.9 630.1,608.1 629.9,608.1 622.7,609.2 
			622.4,609.3 615.3,610.4 615,610.4 607.6,611.6 608.4,616.7 615.8,615.5 		"/>
		<polygon class="st2" points="682.6,605 682.8,604.9 690,603.8 690.2,603.8 697.4,602.6 697.6,602.6 705,601.4 704.2,596.3 
			696.8,597.5 696.6,597.5 689.4,598.7 689.2,598.7 682,599.8 681.8,599.9 674.6,601 674.3,601.1 666.9,602.2 667.7,607.3 
			675.2,606.1 675.4,606.1 		"/>
		<polygon class="st2" points="727.3,597.9 734.7,596.7 733.9,591.6 726.5,592.8 726.2,592.8 718.8,594 719.6,599.1 727.1,597.9 		
			"/>
		<polygon class="st2" points="749.3,594.4 756.7,593.2 757,593.2 764.1,592 764.4,592 771.5,590.9 771.8,590.8 779.2,589.7 
			778.4,584.6 771,585.7 770.7,585.8 763.6,586.9 763.3,587 756.2,588.1 755.9,588.1 748.5,589.3 		"/>
		<polygon class="st2" points="263.7,694 270.9,692.9 271.1,692.8 278.3,691.7 278.5,691.6 285.7,690.5 285.9,690.5 293.1,689.3 
			293.3,689.3 300.7,688.1 299.9,683 292.5,684.2 292.3,684.2 285.1,685.4 284.9,685.4 277.7,686.6 277.5,686.6 270.3,687.7 
			270.1,687.8 262.9,688.9 262.6,688.9 255.2,690.1 256,695.2 263.5,694 		"/>
		<polygon class="st2" points="323,684.6 330.4,683.4 329.6,678.3 322.2,679.5 322,679.5 314.5,680.7 315.4,685.8 322.8,684.6 		"/>
		<polygon class="st2" points="344.2,676 345,681.1 352.4,679.9 352.7,679.9 359.8,678.8 360.1,678.7 367.3,677.6 367.5,677.6 
			374.7,676.4 374.9,676.4 382.1,675.2 382.3,675.2 389.5,674.1 389.7,674 396.9,672.9 397.1,672.9 404.3,671.7 404.5,671.7 
			411.9,670.5 411.1,665.4 403.7,666.6 403.5,666.6 396.3,667.8 396.1,667.8 388.9,668.9 388.7,669 381.5,670.1 381.3,670.1 
			374.1,671.3 373.9,671.3 366.7,672.5 366.4,672.5 359.3,673.6 359,673.7 351.9,674.8 351.6,674.8 		"/>
		<polygon class="st2" points="456.2,663.5 456.4,663.5 463.8,662.3 463,657.2 455.6,658.4 455.4,658.4 448.2,659.5 448,659.6 
			440.8,660.7 440.6,660.8 433.4,661.9 433.2,661.9 425.8,663.1 426.6,668.2 434,667 434.2,667 441.4,665.8 441.6,665.8 
			448.8,664.7 449,664.6 		"/>
		<polygon class="st2" points="499.9,651.4 492.7,652.5 492.5,652.5 485.3,653.7 485.1,653.7 477.7,654.9 478.5,660 485.9,658.8 
			486.1,658.8 493.3,657.6 493.5,657.6 500.7,656.5 500.9,656.4 508.3,655.2 507.5,650.2 500.1,651.3 		"/>
		<polygon class="st2" points="537.8,650.6 538,650.5 545.2,649.4 545.4,649.4 552.6,648.2 552.8,648.2 560,647.1 560.2,647 
			567.4,645.9 567.6,645.9 574.8,644.7 575,644.7 582.4,643.5 581.6,638.4 574.2,639.6 574,639.6 566.8,640.8 566.6,640.8 
			559.4,641.9 559.2,642 552,643.1 551.8,643.1 544.6,644.3 544.4,644.3 537.2,645.5 537,645.5 529.8,646.6 529.6,646.7 
			522.1,647.8 523,652.9 530.4,651.8 530.6,651.7 		"/>
		<polygon class="st2" points="656.6,631.8 663.7,630.6 664,630.6 671.4,629.4 670.6,624.3 663.2,625.5 662.9,625.5 655.8,626.7 
			655.5,626.7 648.4,627.8 648.1,627.9 641,629 640.7,629.1 633.5,630.2 633.3,630.2 626.1,631.4 625.9,631.4 618.7,632.5 
			618.5,632.6 611.3,633.7 611.1,633.7 603.9,634.9 603.7,634.9 596.3,636.1 597.1,641.2 604.5,640 604.7,640 611.9,638.8 
			612.1,638.8 619.3,637.7 619.5,637.6 626.7,636.5 626.9,636.5 634.1,635.3 634.3,635.3 641.5,634.1 641.8,634.1 648.9,633 
			649.2,632.9 656.3,631.8 		"/>
		<polygon class="st2" points="693.7,625.9 700.8,624.8 701.1,624.7 708.5,623.5 707.7,618.5 700.3,619.6 700,619.7 692.9,620.8 
			692.6,620.8 685.2,622 686,627.1 693.4,625.9 		"/>
		<polygon class="st2" points="744.8,612.6 744.5,612.6 737.3,613.8 737.1,613.8 729.9,614.9 729.7,615 722.3,616.1 723.1,621.2 
			730.5,620.1 730.7,620 737.9,618.9 738.1,618.8 745.3,617.7 745.6,617.7 752.7,616.5 753,616.5 760.4,615.3 759.6,610.2 
			752.2,611.4 751.9,611.4 		"/>
		<polygon class="st2" points="267.2,716.1 274.4,715 274.6,714.9 281.8,713.8 282,713.8 289.2,712.6 289.4,712.6 296.6,711.5 
			296.8,711.4 304.2,710.2 303.4,705.2 296,706.3 295.8,706.4 288.6,707.5 288.4,707.5 281.2,708.7 281,708.7 273.8,709.8 
			273.6,709.9 266.4,711 266.2,711.1 258.7,712.2 259.6,717.3 267,716.2 		"/>
		<polygon class="st2" points="318.9,707.9 326.3,706.8 326.5,706.7 333.9,705.5 333.1,700.5 325.7,701.6 325.5,701.7 318.1,702.8 
					"/>
		<polygon class="st2" points="356.2,702 363.4,700.9 363.6,700.8 370.8,699.7 371,699.7 378.2,698.5 378.4,698.5 385.6,697.4 
			385.8,697.3 393,696.2 393.2,696.2 400.6,695 399.8,689.9 392.4,691.1 392.2,691.1 385,692.2 384.8,692.3 377.6,693.4 
			377.4,693.4 370.2,694.6 370,694.6 362.8,695.8 362.5,695.8 355.4,696.9 355.1,697 347.7,698.1 348.5,703.2 355.9,702.1 		"/>
		<polygon class="st2" points="437.5,689.1 437.7,689.1 444.9,688 445.1,687.9 452.5,686.8 451.7,681.7 444.3,682.8 444.1,682.9 
			436.9,684 436.7,684.1 429.5,685.2 429.3,685.2 422.1,686.4 421.9,686.4 414.4,687.6 415.3,692.7 422.7,691.5 422.9,691.5 
			430.1,690.3 430.3,690.3 		"/>
		<polygon class="st2" points="474.8,683.2 482,682.1 482.2,682.1 489.4,680.9 489.6,680.9 496.8,679.8 497,679.7 504.2,678.6 
			504.4,678.5 511.6,677.4 511.8,677.4 519,676.2 519.2,676.2 526.4,675.1 526.6,675 534.1,673.8 533.2,668.8 525.8,669.9 
			525.6,670 518.4,671.1 518.2,671.1 511,672.3 510.8,672.3 503.6,673.4 503.4,673.5 496.2,674.6 496,674.7 488.8,675.8 
			488.6,675.8 481.4,677 481.2,677 474,678.1 473.8,678.2 466.3,679.4 467.2,684.4 474.6,683.3 		"/>
		<polygon class="st2" points="555.3,665.3 547.9,666.4 548.7,671.5 556.1,670.4 556.3,670.3 563.7,669.1 562.9,664.1 555.5,665.2 
					"/>
		<polygon class="st2" points="608.2,662.1 607.4,657 600,658.2 599.8,658.2 592.6,659.4 592.4,659.4 585.2,660.5 585,660.6 
			577.6,661.7 578.4,666.8 585.8,665.7 586,665.6 593.2,664.5 593.4,664.4 600.6,663.3 600.8,663.3 		"/>
		<polygon class="st2" points="644.3,651.2 637.1,652.3 636.9,652.3 629.7,653.5 629.5,653.5 622,654.7 622.9,659.8 630.3,658.6 
			630.5,658.6 637.7,657.4 637.9,657.4 645.1,656.3 645.3,656.2 652.7,655.1 651.9,650 644.5,651.1 		"/>
		<polygon class="st2" points="682.4,650.4 681.6,645.3 674.2,646.4 673.9,646.5 666.5,647.6 667.3,652.7 674.8,651.6 675,651.5 		
			"/>
		<polygon class="st2" points="741.7,641 748.9,639.8 749.1,639.8 756.5,638.6 755.7,633.5 748.3,634.7 748.1,634.7 740.9,635.9 
			740.7,635.9 733.5,637 733.3,637.1 726.1,638.2 725.8,638.3 718.7,639.4 718.4,639.4 711.3,640.6 711,640.6 703.9,641.7 
			703.6,641.8 696.2,642.9 697,648 704.4,646.9 704.7,646.8 711.8,645.7 712.1,645.7 719.2,644.5 719.5,644.5 726.7,643.3 
			726.9,643.3 734.1,642.2 734.3,642.1 741.5,641 		"/>
		<polygon class="st2" points="777.7,630 770.3,631.2 771.1,636.3 778.6,635.1 778.8,635.1 786.2,633.9 785.4,628.8 778,630 		"/>
		<polygon class="st2" points="270.7,738.2 277.9,737.1 278.1,737.1 285.3,735.9 285.5,735.9 292.7,734.8 292.9,734.7 300.3,733.5 
			299.5,728.5 292.1,729.6 291.9,729.7 284.7,730.8 284.5,730.8 277.3,732 277.1,732 269.9,733.1 269.7,733.2 262.3,734.4 
			263.1,739.5 270.5,738.3 		"/>
		<polygon class="st2" points="314.2,726.1 315,731.2 322.4,730.1 322.6,730 329.8,728.9 330,728.8 337.2,727.7 337.4,727.7 
			344.8,726.5 344,721.4 336.6,722.6 336.4,722.6 329.2,723.8 329,723.8 321.8,724.9 321.6,725 		"/>
		<polygon class="st2" points="411.3,716 411.5,715.9 418.7,714.8 418.9,714.8 426.3,713.6 425.5,708.5 418.1,709.7 417.9,709.7 
			410.7,710.8 410.5,710.9 403.3,712 403.1,712.1 395.9,713.2 395.7,713.2 388.5,714.4 388.3,714.4 381.1,715.5 380.9,715.6 
			373.7,716.7 373.5,716.7 366.3,717.9 366.1,717.9 358.6,719.1 359.4,724.2 366.9,723 367.1,723 374.3,721.8 374.5,721.8 
			381.7,720.7 381.9,720.6 389.1,719.5 389.3,719.5 396.5,718.3 396.7,718.3 403.9,717.1 404.1,717.1 		"/>
		<polygon class="st2" points="448.6,710.1 455.8,708.9 456,708.9 463.4,707.7 462.6,702.6 455.2,703.8 455,703.8 447.8,705 
			447.6,705 440.2,706.2 441,711.3 448.4,710.1 		"/>
		<polygon class="st2" points="507.7,700.7 507.9,700.7 515.1,699.5 515.3,699.5 522.5,698.4 522.7,698.3 530.1,697.1 529.3,692.1 
			521.9,693.2 521.7,693.3 514.5,694.4 514.3,694.4 507.1,695.6 506.9,695.6 499.7,696.7 499.5,696.8 492.3,697.9 492.1,698 
			484.9,699.1 484.7,699.1 477.3,700.3 478.1,705.4 485.5,704.2 485.7,704.2 492.9,703 493.1,703 500.3,701.9 500.5,701.8 		"/>
		<polygon class="st2" points="552.4,693.6 559.6,692.5 559.8,692.4 567,691.3 567.2,691.3 574.4,690.1 574.6,690.1 581.8,689 
			582,688.9 589.2,687.8 589.5,687.8 596.6,686.6 596.9,686.6 604.3,685.4 603.5,680.3 596.1,681.5 595.8,681.5 588.7,682.7 
			588.4,682.7 581.2,683.8 581,683.9 573.8,685 573.6,685 566.4,686.2 566.2,686.2 559,687.4 558.8,687.4 551.6,688.5 551.4,688.6 
			544,689.7 544.8,694.8 552.2,693.7 		"/>
		<polygon class="st2" points="641.1,679.6 641.4,679.5 648.5,678.4 648.8,678.4 655.9,677.2 656.2,677.2 663.3,676.1 663.6,676 
			670.8,674.9 671,674.8 678.4,673.7 677.6,668.6 670.2,669.7 670,669.8 662.8,670.9 662.5,671 655.4,672.1 655.1,672.1 648,673.3 
			647.7,673.3 640.6,674.4 640.3,674.5 633.1,675.6 632.9,675.7 625.7,676.8 625.5,676.8 618.1,678 618.9,683.1 626.3,681.9 
			626.5,681.9 633.7,680.7 633.9,680.7 		"/>
		<polygon class="st2" points="707.8,669 708.1,669 715.2,667.8 715.5,667.8 722.7,666.7 722.9,666.6 730.3,665.4 729.5,660.4 
			722.1,661.5 721.9,661.6 714.7,662.7 714.4,662.7 707.3,663.9 707,663.9 699.9,665 699.6,665.1 692.2,666.3 693,671.3 
			700.4,670.2 700.7,670.1 		"/>
		<polygon class="st2" points="796.2,649.8 788.8,651 788.6,651 781.4,652.1 781.2,652.2 774,653.3 773.7,653.3 766.6,654.5 
			766.3,654.5 759.2,655.7 758.9,655.7 751.8,656.8 751.5,656.9 744.1,658 744.9,663.1 752.3,662 752.6,661.9 759.7,660.8 
			760,660.7 767.1,659.6 767.4,659.6 774.6,658.4 774.8,658.4 782,657.3 782.2,657.2 789.4,656.1 789.6,656.1 797,654.9 		"/>
		<polygon class="st2" points="274.2,760.4 281.4,759.2 281.6,759.2 288.8,758.1 289,758 296.2,756.9 296.4,756.8 303.8,755.7 
			303,750.6 295.6,751.8 295.4,751.8 288.2,752.9 288,753 280.8,754.1 280.6,754.1 273.4,755.3 273.2,755.3 265.8,756.5 
			266.6,761.6 274,760.4 		"/>
		<polygon class="st2" points="318.5,753.4 325.9,752.2 326.1,752.1 333.3,751 333.5,751 340.7,749.8 340.9,749.8 348.3,748.6 
			347.5,743.5 340.1,744.7 339.9,744.7 332.7,745.9 332.5,745.9 325.3,747.1 325.1,747.1 317.7,748.3 		"/>
		<polygon class="st2" points="406.8,734.1 399.4,735.3 399.2,735.3 392,736.5 391.8,736.5 384.6,737.7 384.4,737.7 377.2,738.8 
			377,738.9 369.8,740 369.6,740 362.1,741.2 363,746.3 370.4,745.1 370.6,745.1 377.8,744 378,743.9 385.2,742.8 385.4,742.8 
			392.6,741.6 392.8,741.6 400,740.4 400.2,740.4 407.6,739.2 		"/>
		<polygon class="st2" points="428.9,730.6 421.5,731.8 422.3,736.9 429.7,735.7 429.9,735.7 437.3,734.5 436.5,729.4 429.1,730.6 
					"/>
		<polygon class="st2" points="504,724 503.2,718.9 495.8,720 495.6,720.1 488.4,721.2 488.2,721.3 481,722.4 480.8,722.4 
			473.6,723.6 473.4,723.6 466.2,724.7 465.9,724.8 458.8,725.9 458.5,725.9 451.1,727.1 451.9,732.2 459.3,731 459.6,731 
			466.8,729.9 467,729.8 474.2,728.7 474.4,728.7 481.6,727.5 481.8,727.5 489,726.3 489.2,726.3 496.4,725.2 496.6,725.1 		"/>
		<polygon class="st2" points="548.3,717 548.5,716.9 555.9,715.7 555.1,710.7 547.7,711.8 547.5,711.9 540.3,713 540.1,713 
			532.9,714.2 532.7,714.2 525.5,715.3 525.3,715.4 517.8,716.6 518.7,721.6 526.1,720.5 526.3,720.4 533.5,719.3 533.7,719.3 
			540.9,718.1 541.1,718.1 		"/>
		<polygon class="st2" points="622.4,705.2 622.6,705.2 629.8,704 630,704 637.5,702.8 636.6,697.7 629.2,698.9 629,698.9 
			621.8,700.1 621.6,700.1 614.4,701.3 614.2,701.3 607,702.4 606.8,702.5 599.6,703.6 599.4,703.6 592.2,704.8 592,704.8 
			584.8,706 584.6,706 577.4,707.1 577.2,707.2 569.7,708.3 570.6,713.4 578,712.3 578.2,712.2 585.4,711.1 585.6,711 592.8,709.9 
			593,709.9 600.2,708.7 600.4,708.7 607.6,707.6 607.8,707.5 615,706.4 615.2,706.3 		"/>
		<polygon class="st2" points="277.7,782.5 284.9,781.4 285.1,781.3 292.3,780.2 292.5,780.1 299.7,779 299.9,779 307.3,777.8 
			306.5,772.7 299.1,773.9 298.9,773.9 291.7,775 291.5,775.1 284.3,776.2 284.1,776.3 276.9,777.4 276.7,777.4 269.3,778.6 
			270.1,783.7 277.5,782.5 		"/>
		<polygon class="st2" points="322,775.5 329.4,774.3 329.6,774.3 336.8,773.1 337,773.1 344.2,772 344.4,771.9 351.6,770.8 
			351.8,770.7 359.2,769.6 358.4,764.5 351,765.7 350.8,765.7 343.6,766.8 343.4,766.9 336.2,768 336,768 328.8,769.2 328.6,769.2 
			321.2,770.4 		"/>
		<polygon class="st2" points="410.3,756.3 402.9,757.4 402.7,757.5 395.5,758.6 395.3,758.6 388.1,759.8 387.9,759.8 380.7,761 
			380.5,761 373.1,762.2 373.9,767.3 381.3,766.1 381.5,766 388.7,764.9 388.9,764.9 396.1,763.7 396.3,763.7 403.5,762.6 
			403.7,762.5 411.1,761.4 		"/>
		<polygon class="st2" points="433.4,757.8 440.6,756.7 440.8,756.7 448.2,755.5 447.4,750.4 440,751.6 439.8,751.6 432.6,752.7 
			432.4,752.8 425,753.9 425.8,759 433.2,757.9 		"/>
		<polygon class="st2" points="491.7,743.4 484.5,744.5 484.3,744.6 477.1,745.7 476.9,745.7 469.7,746.9 469.5,746.9 462,748.1 
			462.8,753.2 470.3,752 470.5,752 477.7,750.8 477.9,750.8 485.1,749.6 485.3,749.6 492.5,748.5 492.7,748.4 500.1,747.3 
			499.3,742.2 491.9,743.3 		"/>
		<polygon class="st2" points="522.4,743.7 529.6,742.6 529.8,742.6 537,741.4 537.2,741.4 544.6,740.2 543.8,735.1 536.4,736.3 
			536.2,736.3 529,737.5 528.8,737.5 521.6,738.6 521.4,738.7 513.9,739.9 514.7,744.9 522.2,743.8 		"/>
		<polygon class="st2" points="566.9,736.7 574.1,735.6 574.3,735.5 581.5,734.4 581.7,734.3 588.9,733.2 589.1,733.2 596.3,732 
			596.5,732 603.7,730.9 603.9,730.8 611.1,729.7 611.3,729.6 618.7,728.5 617.9,723.4 610.5,724.6 610.3,724.6 603.1,725.7 
			602.9,725.8 595.7,726.9 595.5,726.9 588.3,728.1 588.1,728.1 580.9,729.2 580.7,729.3 573.5,730.4 573.3,730.5 566.1,731.6 
			565.8,731.6 558.4,732.8 559.2,737.9 566.6,736.7 		"/>
		<polygon class="st2" points="663,721.5 663.2,721.4 670.4,720.3 670.6,720.3 677.8,719.1 678,719.1 685.2,717.9 685.5,717.9 
			692.6,716.8 692.9,716.7 700,715.6 700.3,715.6 707.7,714.4 706.9,709.3 699.5,710.5 699.2,710.5 692.1,711.6 691.8,711.7 
			684.6,712.8 684.4,712.9 677.2,714 677,714 669.8,715.2 669.6,715.2 662.4,716.3 662.2,716.4 655,717.5 654.8,717.5 647.6,718.7 
			647.4,718.7 640.2,719.9 640,719.9 632.6,721.1 633.4,726.2 640.8,725 641,724.9 648.2,723.8 648.4,723.8 655.6,722.6 
			655.8,722.6 		"/>
		<polygon class="st2" points="743.7,703.5 736.5,704.6 736.3,704.6 729.1,705.8 728.9,705.8 721.5,707 722.3,712.1 729.7,710.9 
			729.9,710.9 737.1,709.7 737.4,709.7 744.5,708.6 744.8,708.5 751.9,707.4 752.2,707.3 759.6,706.2 758.8,701.1 751.4,702.2 
			751.1,702.3 744,703.4 		"/>
		<polygon class="st2" points="788.2,696.4 781,697.5 780.8,697.6 773.4,698.8 774.2,703.9 781.6,702.7 781.8,702.6 789,701.5 
			789.3,701.5 796.7,700.3 795.9,695.2 788.4,696.4 		"/>
		<polygon class="st2" points="281.2,804.6 288.4,803.5 288.6,803.4 295.8,802.3 296,802.3 303.4,801.1 302.6,796 295.2,797.2 
			295,797.2 287.8,798.3 287.6,798.4 280.4,799.5 280.2,799.6 272.8,800.7 273.6,805.8 281,804.6 		"/>
		<polygon class="st2" points="355.1,792.9 355.3,792.9 362.5,791.7 362.7,791.7 370.1,790.5 369.3,785.4 361.9,786.6 361.7,786.6 
			354.5,787.8 354.3,787.8 347.1,789 346.9,789 339.7,790.1 339.5,790.2 332.3,791.3 332.1,791.3 324.9,792.5 324.7,792.5 
			317.3,793.7 318.1,798.8 325.5,797.6 325.7,797.6 332.9,796.4 333.1,796.4 340.3,795.3 340.5,795.2 347.7,794.1 347.9,794 		"/>
		<polygon class="st2" points="406.2,779.6 399,780.7 398.8,780.8 391.6,781.9 391.4,781.9 384,783.1 384.8,788.2 392.2,787 
			392.4,787 399.6,785.9 399.8,785.8 407,784.7 407.2,784.7 414.6,783.5 413.8,778.4 406.4,779.6 		"/>
		<polygon class="st2" points="466.3,775.3 466.5,775.3 473.7,774.1 473.9,774.1 481.4,772.9 480.5,767.8 473.1,769 472.9,769 
			465.7,770.2 465.5,770.2 458.3,771.3 458.1,771.4 450.9,772.5 450.7,772.5 443.5,773.7 443.3,773.7 436.1,774.9 435.9,774.9 
			428.5,776.1 429.3,781.2 436.7,780 436.9,780 444.1,778.8 444.3,778.8 451.5,777.6 451.7,777.6 458.9,776.5 459.1,776.4 		"/>
		<polygon class="st2" points="555.5,761.2 562.9,760 562.1,754.9 554.7,756.1 554.4,756.1 547.3,757.3 547,757.3 539.9,758.4 
			539.6,758.5 532.4,759.6 532.2,759.6 525,760.8 524.8,760.8 517.6,761.9 517.4,762 510.2,763.1 510,763.2 502.8,764.3 
			502.6,764.3 495.2,765.5 496,770.6 503.4,769.4 503.6,769.4 510.8,768.2 511,768.2 518.2,767.1 518.4,767 525.6,765.9 
			525.8,765.9 533,764.7 533.3,764.7 540.4,763.6 540.7,763.5 547.8,762.4 548.1,762.3 555.2,761.2 		"/>
		<polygon class="st2" points="585.2,756.5 592.6,755.3 591.8,750.2 584.3,751.4 584.1,751.4 576.7,752.6 577.5,757.7 584.9,756.5 
					"/>
		<polygon class="st2" points="651.6,745.9 651.9,745.9 659.3,744.7 658.5,739.6 651.1,740.8 650.8,740.8 643.7,742 643.4,742 
			636.2,743.2 636,743.2 628.8,744.3 628.6,744.4 621.4,745.5 621.2,745.5 614,746.7 613.8,746.7 606.4,747.9 607.2,753 
			614.6,751.8 614.8,751.8 622,750.6 622.2,750.6 629.4,749.5 629.6,749.4 636.8,748.3 637.1,748.3 644.2,747.1 644.5,747.1 		"/>
		<polygon class="st2" points="711.2,736.5 718.6,735.3 717.8,730.2 710.4,731.4 710.1,731.5 703,732.6 702.7,732.6 695.6,733.8 
			695.3,733.8 688.1,734.9 687.9,735 680.7,736.1 680.5,736.1 673.1,737.3 673.9,742.4 681.3,741.2 681.5,741.2 688.7,740.1 
			689,740 696.1,738.9 696.4,738.9 703.5,737.7 703.8,737.7 710.9,736.5 		"/>
		<polygon class="st2" points="748.3,730.6 755.4,729.5 755.7,729.5 762.8,728.3 763.1,728.3 770.5,727.1 769.7,722 762.3,723.2 
			762,723.2 754.9,724.4 754.6,724.4 747.5,725.5 747.2,725.6 740,726.7 739.8,726.8 732.4,727.9 733.2,733 740.6,731.8 
			740.9,731.8 748,730.7 		"/>
		<polygon class="st2" points="806.5,716.2 799.4,717.3 799.1,717.4 791.9,718.5 791.7,718.5 784.3,719.7 785.1,724.8 792.5,723.6 
			792.8,723.6 799.9,722.5 800.2,722.4 807.3,721.3 807.6,721.2 815,720.1 814.2,715 806.8,716.2 		"/>
		<polygon class="st2" points="284.7,826.7 291.9,825.6 292.1,825.6 299.3,824.4 299.5,824.4 306.9,823.2 306.1,818.1 298.7,819.3 
			298.5,819.3 291.3,820.5 291.1,820.5 283.9,821.6 283.7,821.7 276.3,822.9 277.1,827.9 284.5,826.8 		"/>
		<polygon class="st2" points="343,812.3 335.8,813.4 335.6,813.5 328.4,814.6 328.2,814.6 320.8,815.8 321.6,820.9 329,819.7 
			329.2,819.7 336.4,818.6 336.6,818.5 343.8,817.4 344,817.3 351.4,816.2 350.6,811.1 343.2,812.3 		"/>
		<polygon class="st2" points="373.7,812.6 380.9,811.5 381.1,811.5 388.3,810.3 388.5,810.3 395.7,809.2 395.9,809.1 403.1,808 
			403.3,807.9 410.5,806.8 410.7,806.8 417.9,805.6 418.1,805.6 425.3,804.5 425.6,804.4 433,803.3 432.2,798.2 424.7,799.3 
			424.5,799.4 417.3,800.5 417.1,800.5 409.9,801.7 409.7,801.7 402.5,802.9 402.3,802.9 395.1,804 394.9,804.1 387.7,805.2 
			387.5,805.2 380.3,806.4 380.1,806.4 372.9,807.6 372.7,807.6 365.3,808.8 366.1,813.9 373.5,812.7 		"/>
		<polygon class="st2" points="454.2,794.7 446.8,795.8 447.6,800.9 455,799.8 455.2,799.7 462.6,798.6 461.8,793.5 454.4,794.6 		
			"/>
		<polygon class="st2" points="484.9,795 492.1,793.9 492.3,793.9 499.5,792.7 499.7,792.7 507.1,791.5 506.3,786.4 498.9,787.6 
			498.7,787.6 491.5,788.8 491.3,788.8 484.1,789.9 483.9,790 476.5,791.1 477.3,796.2 484.7,795.1 		"/>
		<polygon class="st2" points="543.2,780.6 536,781.7 535.8,781.8 528.6,782.9 528.4,782.9 521,784.1 521.8,789.2 529.2,788 
			529.4,788 536.6,786.8 536.8,786.8 544,785.7 544.2,785.6 551.6,784.5 550.8,779.4 543.4,780.5 		"/>
		<polygon class="st2" points="573.9,780.9 581.3,779.8 580.5,774.7 573.1,775.8 572.9,775.9 565.4,777.1 566.3,782.1 573.7,781 		
			"/>
		<polygon class="st2" points="603.6,776.2 610.7,775.1 611,775.1 618.2,773.9 618.4,773.9 625.6,772.8 625.8,772.7 633.2,771.5 
			632.4,766.4 625,767.6 624.8,767.7 617.6,768.8 617.3,768.8 610.2,770 609.9,770 602.8,771.1 602.5,771.2 595.1,772.4 
			595.9,777.4 603.3,776.3 		"/>
		<polygon class="st2" points="691.5,757.1 684.3,758.2 684.1,758.3 676.9,759.4 676.7,759.4 669.5,760.6 669.2,760.6 662.1,761.7 
			661.8,761.8 654.7,762.9 654.4,763 647,764.1 647.8,769.2 655.2,768.1 655.5,768 662.6,766.9 662.9,766.8 670.1,765.7 
			670.3,765.7 677.5,764.5 677.7,764.5 684.9,763.4 685.1,763.3 692.3,762.2 692.5,762.1 699.9,761 699.1,755.9 691.7,757.1 		"/>
		<polygon class="st2" points="713.7,753.6 714.5,758.7 722,757.5 722.2,757.4 729.4,756.3 729.6,756.3 736.8,755.1 737,755.1 
			744.4,753.9 743.6,748.8 736.2,750 736,750 728.8,751.2 728.6,751.2 721.4,752.4 721.1,752.4 		"/>
		<polygon class="st2" points="802.7,739.5 795.5,740.6 795.3,740.7 788.1,741.8 787.9,741.8 780.7,743 780.5,743 773.3,744.1 
			773,744.2 765.9,745.3 765.6,745.3 758.2,746.5 759,751.6 766.4,750.4 766.7,750.4 773.9,749.3 774.1,749.2 781.3,748.1 
			781.5,748.1 788.7,746.9 788.9,746.9 796.1,745.7 796.3,745.7 803.5,744.6 803.7,744.5 811.1,743.4 810.3,738.3 802.9,739.4 		"/>
		<polygon class="st2" points="288.2,848.9 295.4,847.7 295.6,847.7 302.8,846.6 303,846.5 310.2,845.4 310.4,845.3 317.6,844.2 
			317.8,844.2 325.3,843 324.4,837.9 317,839.1 316.8,839.1 309.6,840.2 309.4,840.3 302.2,841.4 302,841.5 294.8,842.6 
			294.6,842.6 287.4,843.8 287.2,843.8 279.8,845 280.6,850.1 288,848.9 		"/>
		<polygon class="st2" points="384.6,833.6 383.8,828.5 376.3,829.7 376.1,829.7 368.9,830.9 368.7,830.9 361.5,832 361.3,832.1 
			354.1,833.2 353.9,833.2 346.7,834.4 346.5,834.4 339.1,835.6 339.9,840.7 347.3,839.5 347.5,839.5 354.7,838.3 354.9,838.3 
			362.1,837.2 362.3,837.1 369.5,836 369.7,835.9 376.9,834.8 377.2,834.8 		"/>
		<polygon class="st2" points="480.9,818.3 480.1,813.2 472.7,814.4 472.5,814.5 465.3,815.6 465.1,815.6 457.9,816.8 457.6,816.8 
			450.5,817.9 450.2,818 443.1,819.1 442.8,819.2 435.7,820.3 435.4,820.3 428.2,821.5 428,821.5 420.8,822.6 420.6,822.7 
			413.4,823.8 413.2,823.8 406,825 405.8,825 398.4,826.2 399.2,831.3 406.6,830.1 406.8,830.1 414,828.9 414.2,828.9 421.4,827.8 
			421.6,827.7 428.8,826.6 429.1,826.6 436.2,825.4 436.5,825.4 443.6,824.2 443.9,824.2 451,823.1 451.3,823 458.5,821.9 
			458.7,821.9 465.9,820.7 466.1,820.7 473.3,819.6 473.5,819.5 		"/>
		<polygon class="st2" points="532.6,810.2 532.8,810.1 540,809 540.2,808.9 547.4,807.8 547.6,807.8 555,806.6 554.2,801.5 
			546.8,802.7 546.6,802.7 539.4,803.9 539.2,803.9 532,805 531.8,805.1 524.6,806.2 524.4,806.2 517.2,807.4 517,807.4 
			509.8,808.5 509.5,808.6 502.4,809.7 502.1,809.8 494.7,810.9 495.5,816 502.9,814.9 503.2,814.8 510.4,813.7 510.6,813.6 
			517.8,812.5 518,812.5 525.2,811.3 525.4,811.3 		"/>
		<polygon class="st2" points="628.3,789.8 620.9,790.9 620.7,791 613.5,792.1 613.3,792.2 606.1,793.3 605.9,793.3 598.7,794.5 
			598.5,794.5 591.3,795.6 591.1,795.7 583.9,796.8 583.7,796.8 576.5,798 576.3,798 568.9,799.2 569.7,804.3 577.1,803.1 
			577.3,803.1 584.5,801.9 584.7,801.9 591.9,800.8 592.1,800.7 599.3,799.6 599.5,799.6 606.7,798.4 606.9,798.4 614.1,797.2 
			614.3,797.2 621.5,796.1 621.7,796 629.2,794.9 		"/>
		<polygon class="st2" points="643.8,792.5 651.2,791.4 651.4,791.3 658.6,790.2 658.8,790.2 666,789 666.2,789 673.6,787.8 
			672.8,782.7 665.4,783.9 665.2,783.9 658,785.1 657.8,785.1 650.6,786.2 650.4,786.3 643,787.5 		"/>
		<polygon class="st2" points="694.9,779.2 687.5,780.4 688.3,785.5 695.7,784.3 695.9,784.3 703.3,783.1 702.5,778 695.1,779.2 		
			"/>
		<polygon class="st2" points="769.2,767.5 761.8,768.6 761.6,768.7 754.4,769.8 754.2,769.8 747,771 746.8,771 739.6,772.1 
			739.4,772.2 732.2,773.3 732,773.4 724.8,774.5 724.6,774.5 717.1,775.7 718,780.8 725.4,779.6 725.6,779.6 732.8,778.5 
			733,778.4 740.2,777.3 740.4,777.2 747.6,776.1 747.8,776.1 755,774.9 755.2,774.9 762.4,773.8 762.6,773.7 770,772.5 		"/>
		<polygon class="st2" points="791.3,764 783.9,765.1 784.7,770.2 792.1,769.1 792.3,769 799.7,767.8 798.9,762.8 791.5,763.9 		"/>
		<polygon class="st2" points="291.7,871 299.1,869.8 298.3,864.7 290.9,865.9 290.7,865.9 283.3,867.1 284.1,872.2 291.5,871 		"/>
		<polygon class="st2" points="336.2,863.9 343.4,862.8 343.6,862.8 350.8,861.6 351,861.6 358.2,860.5 358.4,860.4 365.8,859.2 
			365,854.2 357.6,855.3 357.4,855.4 350.2,856.5 350,856.5 342.8,857.7 342.6,857.7 335.4,858.8 335.2,858.9 328,860 327.8,860.1 
			320.6,861.2 320.4,861.2 313,862.4 313.8,867.5 321.2,866.3 321.4,866.3 328.6,865.1 328.8,865.1 336,864 		"/>
		<polygon class="st2" points="447.1,846.4 447.4,846.3 454.8,845.2 454,840.1 446.6,841.2 446.3,841.3 439.2,842.4 438.9,842.4 
			431.8,843.6 431.5,843.6 424.3,844.8 424.1,844.8 416.9,845.9 416.7,846 409.5,847.1 409.3,847.1 402.1,848.3 401.9,848.3 
			394.7,849.5 394.5,849.5 387.3,850.6 387.1,850.7 379.7,851.8 380.5,856.9 387.9,855.8 388.1,855.7 395.3,854.6 395.5,854.5 
			402.7,853.4 402.9,853.4 410.1,852.2 410.3,852.2 417.5,851.1 417.7,851 424.9,849.9 425.2,849.9 432.3,848.7 432.6,848.7 
			439.7,847.5 440,847.5 		"/>
		<polygon class="st2" points="316.4,884.5 309.2,885.7 309,885.7 301.8,886.8 301.6,886.9 294.4,888 294.2,888.1 286.8,889.2 
			287.6,894.3 295,893.1 295.2,893.1 302.4,892 302.6,891.9 309.8,890.8 310,890.8 317.2,889.6 317.4,889.6 324.9,888.4 324,883.3 
			316.6,884.5 		"/>
		<polygon class="st2" points="368.3,876.3 361.1,877.5 360.9,877.5 353.7,878.6 353.5,878.7 346.3,879.8 346.1,879.8 338.7,881 
			339.5,886.1 346.9,884.9 347.1,884.9 354.3,883.8 354.5,883.7 361.7,882.6 361.9,882.5 369.1,881.4 369.3,881.4 376.8,880.2 
			375.9,875.1 368.5,876.3 		"/>
		<polygon class="st2" points="420.2,868.1 413,869.2 412.8,869.3 405.6,870.4 405.4,870.4 398.2,871.6 398,871.6 390.6,872.8 
			391.4,877.9 398.8,876.7 399,876.7 406.2,875.5 406.4,875.5 413.6,874.4 413.8,874.3 421,873.2 421.2,873.1 428.7,872 
			427.8,866.9 420.4,868.1 		"/>
		<polygon class="st2" points="457.3,862.2 450.1,863.4 449.9,863.4 442.5,864.6 443.3,869.7 450.7,868.5 450.9,868.4 458.1,867.3 
			458.3,867.3 465.7,866.1 464.9,861 457.5,862.2 		"/>
		<polygon class="st2" points="509.2,854 502,855.1 501.8,855.2 494.6,856.3 494.4,856.3 487.2,857.5 487,857.5 479.6,858.7 
			480.4,863.8 487.8,862.6 488,862.6 495.2,861.4 495.4,861.4 502.6,860.3 502.8,860.2 510,859.1 510.2,859.1 517.6,857.9 
			516.8,852.8 509.4,854 		"/>
		<polygon class="st2" points="612.9,837.6 605.8,838.7 605.5,838.7 598.4,839.9 598.1,839.9 591,841 590.7,841.1 583.5,842.2 
			583.3,842.3 576.1,843.4 575.9,843.4 568.7,844.6 568.5,844.6 561.3,845.7 561.1,845.8 553.9,846.9 553.7,847 546.5,848.1 
			546.3,848.1 539.1,849.3 538.9,849.3 531.5,850.5 532.3,855.6 539.7,854.4 539.9,854.4 547.1,853.2 547.3,853.2 554.5,852 
			554.7,852 561.9,850.9 562.1,850.8 569.3,849.7 569.5,849.7 576.7,848.5 576.9,848.5 584.1,847.4 584.4,847.3 591.5,846.2 
			591.8,846.1 598.9,845 599.2,845 606.3,843.8 606.6,843.8 613.8,842.7 614,842.6 621.4,841.4 620.6,836.4 613.2,837.5 		"/>
		<polygon class="st2" points="701.9,823.5 694.7,824.6 694.5,824.7 687.3,825.8 687.1,825.8 679.9,827 679.7,827 672.5,828.1 
			672.3,828.2 665.1,829.3 664.8,829.3 657.7,830.5 657.4,830.5 650.3,831.7 650,831.7 642.9,832.8 642.6,832.9 635.2,834 
			636,839.1 643.4,838 643.7,837.9 650.8,836.8 651.1,836.7 658.2,835.6 658.5,835.6 665.7,834.4 665.9,834.4 673.1,833.3 
			673.3,833.2 680.5,832.1 680.7,832.1 687.9,830.9 688.1,830.9 695.3,829.7 695.5,829.7 702.7,828.6 702.9,828.5 710.3,827.4 
			709.5,822.3 702.1,823.4 		"/>
		<polygon class="st2" points="753.8,815.3 746.6,816.4 746.4,816.4 739.2,817.6 739,817.6 731.8,818.7 731.6,818.8 724.2,820 
			725,825 732.4,823.9 732.6,823.8 739.8,822.7 740,822.7 747.2,821.5 747.4,821.5 754.6,820.4 754.8,820.3 762.2,819.1 
			761.4,814.1 754,815.2 		"/>
		<polygon class="st2" points="790.9,809.4 783.7,810.5 783.5,810.6 776.1,811.7 776.9,816.8 784.3,815.7 784.5,815.6 791.7,814.5 
			791.9,814.4 799.3,813.3 798.5,808.2 791.1,809.3 		"/>
	</g>
	<g>
		<polygon class="st2" points="314.7,210.1 293.7,213.4 293,213.6 271.9,216.9 271.2,217 249.5,220.4 246.7,202.9 268.4,199.4 
			269.1,199.3 290.2,196 290.9,195.9 311.9,192.5 312.6,192.4 334.4,189 337.2,206.6 315.4,210 		"/>
		<polygon class="st2" points="532.3,175.6 511.3,179 510.6,179.1 489.5,182.4 488.8,182.5 467.8,185.9 467.1,186 446,189.3 
			445.3,189.4 424.3,192.8 423.6,192.9 402.5,196.2 401.8,196.3 380.1,199.8 377.3,182.2 399.1,178.7 399.7,178.6 420.8,175.3 
			421.5,175.2 442.6,171.9 443.2,171.7 464.3,168.4 465,168.3 486.1,165 486.7,164.9 507.8,161.5 508.5,161.4 529.6,158.1 
			530.2,158 552,154.5 554.8,172.1 533,175.5 		"/>
		
			<rect x="596.2" y="145.8" transform="matrix(0.9877 -0.1564 0.1564 0.9877 -16.7255 96.9448)" class="st2" width="22.7" height="17.8"/>
	</g>
</g>
<g id="Layer_2">
	<path class="st3" d="M585.4,831c0,0.4-0.1,0.9-0.1,1.3c0,0,0.9,15.2,18.9,20.2c18,5,70.6,20.8,80.3,17.7c9.7-3.2,22.2-5.4,29-15.7
		c6.8-10.2,73.8-110.7,67.9-199.3c-5.8-14.7-16-26.4-27.4-35.7c6.5,6.9,14,16.9,22.5,35.2c-10.1,120.7-57.9,185.5-74.5,202.4
		c-16.5,17-72-4.8-95.4-12.1C592.4,840.7,586.4,832.4,585.4,831z"/>
	<path class="st4" d="M692.3,508.5c0,0-0.7,10.6,6,13.7c6.7,3.1,17.6,8,17.6,8l10.8-3.3C726.6,526.9,695.8,508.6,692.3,508.5z"/>
	<g>
		<path class="st3" d="M766.3,246.7c0.2-0.4,0.4-0.8,0.7-1.2c0,0,9.4-12,27-6c17.7,6,70,22.7,76.2,30.8c6.2,8.1,15.3,17.1,15.1,29.3
			s-1.6,133-56.6,202.8c-13.1,8.8-28.1,12.8-42.8,14c9.3-2,21-6,38.4-16.3c59.8-105.3,57-185.8,52.9-209.1
			c-4.1-23.3-62.1-36.7-85.5-43.9C777.5,242.7,767.8,246.1,766.3,246.7z"/>
		<path class="st5" d="M812.9,231.5c-17.7-7.5-18.3-15.4-18.3-15.4l-28.6-8.8c0,0-3.2,2.9-22.4,55c-37.4,102.5-51.5,173.1-54.3,222
			c-2.8,48.9-6.5,56.8-6.5,56.8s-1.4,8.6-26.7,50.5s-53.5,108.2-80.6,213.9c-13.6,53.8-12.6,58-12.6,58l28.6,8.8c0,0,5-6.2,23.8-2.4
			c18.9,3.8,82,25.4,100.9-4.2c18.9-29.6,63.5-97.4,74.7-214.7c0.8-19.3-70.7-68.6-70.7-68.6s-20-13.4-10.3-33
			c3.1-21.6,27.2-21.4,27.2-21.4s86.9-0.3,97.1-16.7c57.1-103,58.6-184.2,59.7-219.3C894.9,256.9,830.6,239.1,812.9,231.5z
			 M781.4,655.3c5.9,88.6-61.1,189.1-67.9,199.3c-6.8,10.2-19.3,12.5-29,15.7c-9.7,3.2-62.4-12.6-80.3-17.7
			c-18-5-18.9-20.2-18.9-20.2c7.5-105.5,64.1-207.2,76.4-227s28.7-16.3,28.7-16.3S761.5,605,781.4,655.3z M828.7,502.5
			c-44.8,30.3-112.4,3.2-112.4,3.2s-15.5-6.3-14.5-29.6s11.7-139.2,65.2-230.5c0,0,9.4-12,27-6c17.7,6,70,22.7,76.2,30.8
			c6.2,8.1,15.3,17.1,15.1,29.3S883.7,432.7,828.7,502.5z"/>
		<path class="st6" d="M770.4,223C760.1,237.8,726,323.3,726,323.3s8.9-18.8,9.3-10c0,0.4,0,0.7,0,1.1c8.4-23.3,18.8-46.8,31.7-68.8
			c0,0,9.4-12,27-6c17.7,6,70,22.7,76.2,30.8c3.6,4.7,8.2,9.8,11.4,15.6c1.8,1.6,2.8,3.1,2.5,4.1c-0.1,0.2-0.1,0.6-0.2,1.2
			c0.9,2.6,1.4,5.4,1.3,8.4c-0.1,4-0.3,19.7-2.4,41.3c-0.2,20.1-0.4,40-0.4,46.8c10-43.2,10.8-76.4,11.4-95.7
			c1.1-35.1-63.2-53-80.9-60.5c-12.4-5.3-16.4-10.7-17.7-13.5c-4.8-1.7-7.6-2.6-7.6-2.6S780.6,208.2,770.4,223z"/>
	</g>
</g>
</svg>
