<?xml version="1.0" encoding="utf-8"?>
<!-- Generator: Adobe Illustrator 23.0.4, SVG Export Plug-In . SVG Version: 6.00 Build 0)  -->
<svg version="1.1" xmlns="http://www.w3.org/2000/svg" xmlns:xlink="http://www.w3.org/1999/xlink" x="0px" y="0px"
	 viewBox="0 0 1024 1024" style="enable-background:new 0 0 1024 1024;" xml:space="preserve">
<style type="text/css">
	.st0{fill:url(#SVGID_1_);}
	.st1{fill:#222321;}
	.st2{fill:url(#SVGID_2_);}
	.st3{fill:none;stroke:#FFFFFF;stroke-miterlimit:10;}
	.st4{fill:url(#SVGID_3_);}
	.st5{fill:url(#SVGID_4_);}
	.st6{opacity:0.5;}
	.st7{fill:#FFFFFF;}
</style>
<g id="Layer_9">
</g>
<g id="Layer_10">
	<linearGradient id="SVGID_1_" gradientUnits="userSpaceOnUse" x1="519.6638" y1="96.2953" x2="519.6638" y2="865.9774">
		<stop  offset="0" style="stop-color:#CBE0E6"/>
		<stop  offset="0.1116" style="stop-color:#BDCED3"/>
		<stop  offset="0.3839" style="stop-color:#9EA8AB"/>
		<stop  offset="0.6322" style="stop-color:#888D8D"/>
		<stop  offset="0.8458" style="stop-color:#7B7C7B"/>
		<stop  offset="1" style="stop-color:#767675"/>
	</linearGradient>
	<path class="st0" d="M780.1,282.1v-146c0-2.5-2-4.5-4.5-4.5H665.6c-2.5,0-4.5,2-4.5,4.5v45.4c0,3.7-4.3,5.8-7.2,3.5L522.4,81.7
		c-1.6-1.3-3.9-1.3-5.5,0L99.7,409.5c-2.1,1.7-2.3,4.8-0.4,6.7l66.5,66.5c1.7,1.7,4.6,1.7,6.3,0h0c2.8-2.8,7.6-0.8,7.6,3.2v377.7
		c0,2.5,2,4.5,4.5,4.5h669.3c2.5,0,4.5-2,4.5-4.5V475.1h1.5l7.6,7.6c1.7,1.7,4.6,1.7,6.3,0l66.5-66.5c1.9-1.9,1.7-5-0.4-6.7
		L781.9,285.6C780.8,284.7,780.1,283.4,780.1,282.1z"/>
</g>
<g id="Layer_11">
	<circle class="st1" cx="518.7" cy="567.2" r="221.8"/>
	<linearGradient id="SVGID_2_" gradientUnits="userSpaceOnUse" x1="518.6995" y1="356.4141" x2="518.6995" y2="781.0707">
		<stop  offset="0" style="stop-color:#383C3E"/>
		<stop  offset="0.131" style="stop-color:#343738"/>
		<stop  offset="0.6351" style="stop-color:#262826"/>
		<stop  offset="1" style="stop-color:#212220"/>
	</linearGradient>
	<circle class="st2" cx="518.7" cy="566.3" r="215"/>
	<circle class="st3" cx="518.7" cy="568.7" r="109.3"/>
	<linearGradient id="SVGID_3_" gradientUnits="userSpaceOnUse" x1="518.6995" y1="439.3553" x2="518.6995" y2="704.3404">
		<stop  offset="0" style="stop-color:#EBF5F8"/>
		<stop  offset="0.1434" style="stop-color:#C7CFD1"/>
		<stop  offset="0.3552" style="stop-color:#979C9D"/>
		<stop  offset="0.5539" style="stop-color:#717474"/>
		<stop  offset="0.7337" style="stop-color:#555856"/>
		<stop  offset="0.8884" style="stop-color:#454644"/>
		<stop  offset="1" style="stop-color:#3F403E"/>
	</linearGradient>
	<circle class="st4" cx="518.7" cy="568.7" r="139.6"/>
	<linearGradient id="SVGID_4_" gradientUnits="userSpaceOnUse" x1="518.6995" y1="468.1298" x2="518.6995" y2="677.159">
		<stop  offset="0" style="stop-color:#CFE5EB"/>
		<stop  offset="0.1265" style="stop-color:#BED0D5"/>
		<stop  offset="0.3943" style="stop-color:#A0AAAD"/>
		<stop  offset="0.6384" style="stop-color:#898E8F"/>
		<stop  offset="0.8483" style="stop-color:#7C7D7D"/>
		<stop  offset="1" style="stop-color:#777777"/>
	</linearGradient>
	<circle class="st5" cx="518.7" cy="568.7" r="109.3"/>
</g>
<g id="Layer_12" class="st6">
	<g>
		<g>
			<path d="M518.7,356.5L518.7,356.5c4,0,7.2,3.2,7.2,7.2v15.7c0,4-3.2,7.2-7.2,7.2l0,0c-4,0-7.2-3.2-7.2-7.2v-15.7
				C511.5,359.7,514.7,356.5,518.7,356.5z"/>
			<path class="st7" d="M518.7,387.4c-4.4,0-8-3.6-8-8v-15.7c0-4.4,3.6-8,8-8c4.4,0,8,3.6,8,8v15.7
				C526.7,383.8,523.1,387.4,518.7,387.4z M518.7,357.2c-3.6,0-6.5,2.9-6.5,6.5v15.7c0,3.6,2.9,6.5,6.5,6.5c3.6,0,6.5-2.9,6.5-6.5
				v-15.7C525.2,360.1,522.3,357.2,518.7,357.2z"/>
		</g>
		<g>
			<path d="M572.3,363.4L572.3,363.4c3.9,1,6.2,5,5.1,8.8l-4,15.2c-1,3.9-5,6.2-8.8,5.1l0,0c-3.9-1-6.2-5-5.1-8.8l4-15.2
				C564.5,364.7,568.5,362.4,572.3,363.4z"/>
			<path class="st7" d="M566.5,393.5c-0.7,0-1.4-0.1-2-0.3c-4.2-1.1-6.8-5.5-5.7-9.7l4-15.2c1.1-4.2,5.5-6.8,9.7-5.7
				c4.2,1.1,6.8,5.5,5.7,9.7l-4,15.2c-0.5,2.1-1.9,3.8-3.7,4.9C569.3,393.2,567.9,393.5,566.5,393.5z M570.5,363.9
				c-2.9,0-5.5,1.9-6.3,4.8l-4,15.2c-0.9,3.5,1.2,7,4.6,7.9c1.7,0.4,3.4,0.2,4.9-0.7c1.5-0.9,2.6-2.3,3-4l4-15.2
				c0.9-3.5-1.2-7-4.6-7.9C571.6,364,571,363.9,570.5,363.9z"/>
		</g>
		<g>
			<path d="M620.9,383L620.9,383c3.5,1.9,4.7,6.4,2.8,9.8l-7.7,13.7c-1.9,3.5-6.4,4.7-9.8,2.8v0c-3.5-1.9-4.7-6.4-2.8-9.8l7.7-13.7
				C613,382.3,617.4,381,620.9,383z"/>
			<path class="st7" d="M609.7,411c-1.3,0-2.7-0.3-3.9-1c-1.9-1-3.2-2.7-3.8-4.8c-0.6-2-0.3-4.2,0.7-6.1l7.7-13.7
				c2.1-3.8,7-5.2,10.8-3.1l0,0c1.9,1,3.2,2.7,3.8,4.8c0.6,2,0.3,4.2-0.7,6.1l-7.7,13.7c-1,1.9-2.7,3.2-4.8,3.8
				C611.1,410.9,610.4,411,609.7,411z M617.4,382.8c-2.3,0-4.5,1.2-5.7,3.3l-7.7,13.7c-0.8,1.5-1.1,3.3-0.6,4.9
				c0.5,1.7,1.6,3.1,3.1,3.9c1.5,0.8,3.3,1.1,4.9,0.6c1.7-0.5,3.1-1.6,3.9-3.1l7.7-13.7c0.8-1.5,1.1-3.3,0.6-4.9
				c-0.5-1.7-1.6-3.1-3.1-3.9l0,0C619.5,383.1,618.4,382.8,617.4,382.8z"/>
		</g>
		<g>
			<path d="M662.5,413.5L662.5,413.5c2.9,2.7,3,7.3,0.3,10.2L652,435.1c-2.7,2.9-7.3,3-10.2,0.3l0,0c-2.9-2.7-3-7.3-0.3-10.2
				l10.8-11.4C655,410.9,659.6,410.7,662.5,413.5z"/>
			<path class="st7" d="M646.8,438.1c-2,0-4-0.8-5.5-2.2c-1.5-1.5-2.4-3.4-2.5-5.6c-0.1-2.1,0.7-4.2,2.2-5.7l10.8-11.4
				c3-3.2,8.1-3.4,11.3-0.3l0,0c3.2,3,3.4,8.1,0.3,11.3l-10.8,11.4c-1.5,1.5-3.4,2.4-5.6,2.5C646.9,438.1,646.8,438.1,646.8,438.1z
				 M657.5,412.2c-0.1,0-0.1,0-0.2,0c-1.7,0.1-3.3,0.8-4.5,2L642,425.7c-1.2,1.3-1.8,2.9-1.8,4.6c0.1,1.7,0.8,3.3,2,4.5
				c1.3,1.2,2.9,1.8,4.6,1.8c1.7-0.1,3.3-0.8,4.5-2l10.8-11.4c2.5-2.6,2.3-6.7-0.3-9.2v0C660.7,412.9,659.2,412.2,657.5,412.2z"/>
		</g>
		<g>
			<path d="M695.4,453L695.4,453c2.2,3.4,1.2,7.8-2.2,10l-13.2,8.5c-3.4,2.2-7.8,1.2-10-2.2l0,0c-2.2-3.4-1.2-7.8,2.2-10l13.2-8.5
				C688.7,448.7,693.2,449.7,695.4,453z"/>
			<path class="st7" d="M676.1,473.4c-0.6,0-1.1-0.1-1.7-0.2c-2.1-0.5-3.9-1.7-5-3.5c-1.1-1.8-1.5-3.9-1.1-6c0.5-2.1,1.7-3.9,3.5-5
				l13.2-8.5c1.8-1.1,3.9-1.5,6-1.1c2.1,0.5,3.9,1.7,5,3.5c1.1,1.8,1.5,3.9,1.1,6c-0.5,2.1-1.7,3.9-3.5,5l-13.2,8.5
				C679.1,473,677.6,473.4,676.1,473.4z M689.3,450.5c-1.2,0-2.4,0.3-3.5,1l-13.2,8.5c-1.5,0.9-2.5,2.4-2.8,4.1
				c-0.4,1.7-0.1,3.4,0.9,4.9c0.9,1.5,2.4,2.5,4.1,2.8c1.7,0.4,3.4,0.1,4.9-0.9l13.2-8.5c1.5-0.9,2.5-2.4,2.8-4.1s0.1-3.4-0.9-4.9
				C693.5,451.5,691.4,450.5,689.3,450.5z"/>
		</g>
		<g>
			<path d="M717.8,500L717.8,500c1.3,3.8-0.8,7.9-4.6,9.1l-14.9,5c-3.8,1.3-7.9-0.8-9.1-4.6v0c-1.3-3.8,0.8-7.9,4.6-9.1l14.9-5
				C712.5,494.2,716.6,496.2,717.8,500z"/>
			<path class="st7" d="M696.1,515.2c-3.3,0-6.5-2.1-7.6-5.4c-0.7-2-0.5-4.2,0.4-6.1c1-1.9,2.6-3.3,4.6-4l14.9-5
				c2-0.7,4.2-0.5,6.1,0.4c1.9,1,3.3,2.6,4,4.6l0,0c0.7,2,0.5,4.2-0.4,6.1c-1,1.9-2.6,3.3-4.6,4l-14.9,5
				C697.8,515.1,696.9,515.2,696.1,515.2z M711,495.8c-0.7,0-1.4,0.1-2.1,0.3l-14.9,5c-1.6,0.5-3,1.7-3.8,3.3
				c-0.8,1.6-0.9,3.3-0.4,5c1.1,3.4,4.8,5.2,8.2,4.1l14.9-5c1.6-0.5,3-1.7,3.8-3.3c0.8-1.6,0.9-3.3,0.4-5v0c-0.5-1.6-1.7-3-3.3-3.8
				C713,496,712,495.8,711,495.8z"/>
		</g>
		<g>
			<path d="M728.1,552.5L728.1,552.5c0.3,4-2.8,7.4-6.7,7.7l-15.7,1c-4,0.3-7.4-2.8-7.7-6.7l0,0c-0.3-4,2.8-7.4,6.7-7.7l15.7-1
				C724.4,545.5,727.8,548.6,728.1,552.5z"/>
			<path class="st7" d="M705.2,562c-4.2,0-7.7-3.2-7.9-7.5c-0.1-2.1,0.6-4.2,2-5.8c1.4-1.6,3.3-2.6,5.5-2.7l15.7-1
				c4.4-0.3,8.2,3.1,8.5,7.4l0,0c0.1,2.1-0.6,4.2-2,5.8c-1.4,1.6-3.3,2.6-5.5,2.7l-15.7,1C705.6,562,705.4,562,705.2,562z
				 M720.9,546.5c-0.1,0-0.3,0-0.4,0l-15.7,1c-3.6,0.2-6.3,3.3-6.1,6.9c0.2,3.6,3.3,6.3,6.9,6.1l15.7-1c1.7-0.1,3.3-0.9,4.5-2.2
				c1.1-1.3,1.7-3,1.6-4.7l0,0C727.1,549.2,724.3,546.5,720.9,546.5z"/>
		</g>
		<g>
			<path d="M724.6,607L724.6,607c-0.8,3.9-4.6,6.5-8.5,5.7l-15.4-3c-3.9-0.8-6.5-4.6-5.7-8.5v0c0.8-3.9,4.6-6.5,8.5-5.7l15.4,3
				C722.8,599.2,725.4,603,724.6,607z"/>
			<path class="st7" d="M717.5,613.5c-0.5,0-1-0.1-1.6-0.2l-15.4-3c-4.3-0.8-7.1-5-6.3-9.4c0.8-4.3,5-7.1,9.4-6.3l15.4,3
				c4.3,0.8,7.1,5,6.3,9.4l0,0c-0.4,2.1-1.6,3.9-3.4,5.1C720.6,613.1,719.1,613.5,717.5,613.5z M702.1,596.1c-3,0-5.8,2.2-6.4,5.2
				c-0.7,3.5,1.6,6.9,5.1,7.6l15.4,3c3.5,0.7,6.9-1.6,7.6-5.1l0,0c0.7-3.5-1.6-6.9-5.1-7.6l-15.4-3
				C703,596.1,702.5,596.1,702.1,596.1z"/>
		</g>
		<g>
			<path d="M708,657L708,657c-1.7,3.6-6,5.1-9.6,3.4l-14.2-6.8c-3.6-1.7-5.1-6-3.4-9.6l0,0c1.7-3.6,6-5.1,9.6-3.4l14.2,6.8
				C708.2,649,709.8,653.4,708,657z"/>
			<path class="st7" d="M701.5,661.8c-1.2,0-2.3-0.3-3.4-0.8l-14.2-6.8c-4-1.9-5.6-6.7-3.7-10.6c0.9-1.9,2.5-3.4,4.5-4.1
				c2-0.7,4.2-0.6,6.1,0.3l14.2,6.8c1.9,0.9,3.4,2.5,4.1,4.5c0.7,2,0.6,4.2-0.3,6.1l0,0C707.3,660.1,704.5,661.8,701.5,661.8z
				 M687.4,640.5c-2.4,0-4.8,1.4-5.9,3.7c-1.5,3.2-0.2,7.1,3,8.7l14.2,6.8c3.2,1.5,7.1,0.2,8.7-3l0,0c0.8-1.6,0.8-3.3,0.3-5
				c-0.6-1.6-1.8-3-3.3-3.7l-14.2-6.8C689.3,640.8,688.3,640.5,687.4,640.5z"/>
		</g>
		<g>
			<path d="M680.1,700.4L680.1,700.4c-2.6,3.1-7.1,3.5-10.2,0.9l-12.1-10c-3.1-2.6-3.5-7.1-0.9-10.2l0,0c2.6-3.1,7.1-3.5,10.2-0.9
				l12.1,10C682.2,692.8,682.7,697.4,680.1,700.4z"/>
			<path class="st7" d="M674.5,703.8c-1.8,0-3.6-0.6-5.1-1.8l-12.1-10c-1.6-1.4-2.6-3.3-2.8-5.4c-0.2-2.1,0.4-4.2,1.8-5.8
				c1.4-1.6,3.3-2.6,5.4-2.8c2.1-0.2,4.2,0.4,5.8,1.8l12.1,10c3.4,2.8,3.8,7.8,1,11.2l0,0C679.1,702.8,676.8,703.8,674.5,703.8z
				 M662.5,679.3c-0.2,0-0.4,0-0.6,0c-1.7,0.2-3.3,1-4.4,2.3c-1.1,1.3-1.6,3-1.5,4.7c0.2,1.7,1,3.3,2.3,4.4l12.1,10
				c2.8,2.3,6.9,1.9,9.1-0.8c2.3-2.8,1.9-6.9-0.8-9.1l-12.1-10C665.5,679.8,664,679.3,662.5,679.3z"/>
		</g>
		<g>
			<path d="M642.6,735.7L642.6,735.7c-3.2,2.4-7.7,1.7-10.1-1.6l-9.3-12.7c-2.4-3.2-1.7-7.7,1.6-10.1h0c3.2-2.4,7.7-1.7,10.1,1.6
				l9.3,12.7C646.6,728.8,645.9,733.3,642.6,735.7z"/>
			<path class="st7" d="M638.4,737.8c-2.5,0-4.9-1.1-6.4-3.3l-9.3-12.7c-2.6-3.5-1.8-8.5,1.7-11.1s8.5-1.8,11.1,1.7l9.3,12.7
				c1.3,1.7,1.8,3.8,1.4,5.9c-0.3,2.1-1.4,4-3.2,5.2C641.7,737.3,640,737.8,638.4,737.8z M629.1,710.7c-1.3,0-2.7,0.4-3.8,1.3
				c-2.9,2.1-3.5,6.2-1.4,9.1l9.3,12.7c2.1,2.9,6.2,3.5,9.1,1.4l0,0c1.4-1,2.3-2.5,2.6-4.2s-0.2-3.4-1.2-4.8l-9.3-12.7
				C633.1,711.6,631.1,710.7,629.1,710.7z"/>
		</g>
		<g>
			<path d="M597.4,760.9L597.4,760.9c-3.7,1.5-7.9-0.3-9.4-4l-5.9-14.5c-1.5-3.7,0.3-7.9,4-9.4l0,0c3.7-1.5,7.9,0.3,9.4,4l5.9,14.5
				C602.9,755.2,601.1,759.4,597.4,760.9z"/>
			<path class="st7" d="M594.7,762.2c-3.2,0-6.1-1.9-7.4-5l-5.9-14.5c-1.6-4.1,0.3-8.7,4.4-10.4c4.1-1.6,8.7,0.3,10.4,4.4l5.9,14.5
				c1.6,4.1-0.3,8.7-4.4,10.4C596.7,762,595.7,762.2,594.7,762.2z M588.8,733.2c-0.8,0-1.6,0.2-2.4,0.5c-3.3,1.3-4.9,5.1-3.6,8.5
				l5.9,14.5c1.3,3.3,5.1,4.9,8.5,3.6c3.3-1.3,4.9-5.1,3.6-8.5l-5.9-14.5C593.8,734.7,591.3,733.2,588.8,733.2z"/>
		</g>
		<g>
			<path d="M546,774.4L546,774.4c-4,0.5-7.6-2.3-8.1-6.2l-2-15.6c-0.5-4,2.3-7.6,6.2-8.1l0,0c4-0.5,7.6,2.3,8.1,6.2l2,15.6
				C552.8,770.3,550,773.9,546,774.4z"/>
			<path class="st7" d="M545.1,775.2c-1.7,0-3.4-0.6-4.8-1.7c-1.7-1.3-2.8-3.2-3-5.3l-2-15.6c-0.6-4.4,2.5-8.4,6.9-8.9
				c4.3-0.6,8.4,2.5,8.9,6.9l2,15.6c0.6,4.4-2.5,8.4-6.9,8.9C545.8,775.2,545.4,775.2,545.1,775.2z M543.1,745.2
				c-0.3,0-0.6,0-0.8,0.1c-3.6,0.5-6.1,3.7-5.6,7.3l2,15.6c0.2,1.7,1.1,3.3,2.5,4.3c1.4,1.1,3.1,1.5,4.8,1.3l0,0
				c3.6-0.5,6.1-3.7,5.6-7.3l-2-15.6C549.1,747.6,546.3,745.2,543.1,745.2z"/>
		</g>
		<g>
			<path d="M491.4,774.4L491.4,774.4c-4-0.5-6.8-4.1-6.2-8.1l2-15.6c0.5-4,4.1-6.8,8.1-6.2l0,0c4,0.5,6.8,4.1,6.2,8.1l-2,15.6
				C498.9,772.1,495.3,774.9,491.4,774.4z"/>
			<path class="st7" d="M492.3,775.2c-0.3,0-0.7,0-1-0.1c-4.4-0.6-7.4-4.6-6.9-8.9l2-15.6c0.3-2.1,1.4-4,3-5.3
				c1.7-1.3,3.8-1.9,5.9-1.6c4.4,0.6,7.4,4.6,6.9,8.9l-2,15.6c-0.3,2.1-1.4,4-3,5.3C495.7,774.6,494.1,775.2,492.3,775.2z
				 M494.3,745.2c-1.4,0-2.8,0.5-3.9,1.3c-1.4,1.1-2.3,2.6-2.5,4.3l-2,15.6c-0.5,3.6,2.1,6.8,5.6,7.3c1.7,0.2,3.4-0.2,4.8-1.3
				c1.4-1.1,2.3-2.6,2.5-4.3l2-15.6c0.5-3.6-2.1-6.8-5.6-7.3C494.9,745.2,494.6,745.2,494.3,745.2z"/>
		</g>
		<g>
			<path d="M440,760.9L440,760.9c-3.7-1.5-5.5-5.7-4-9.4l5.9-14.5c1.5-3.7,5.7-5.5,9.4-4l0,0c3.7,1.5,5.5,5.7,4,9.4l-5.9,14.5
				C448,760.7,443.7,762.4,440,760.9z"/>
			<path class="st7" d="M442.7,762.2c-1,0-2-0.2-3-0.6c-4.1-1.6-6-6.3-4.4-10.4l5.9-14.5c1.6-4.1,6.3-6,10.4-4.4
				c2,0.8,3.5,2.3,4.3,4.3c0.8,2,0.8,4.1,0,6.1l-5.9,14.5c-0.8,2-2.3,3.5-4.3,4.3C444.9,762,443.8,762.2,442.7,762.2z M448.6,733.2
				c-2.6,0-5,1.5-6,4.1l-5.9,14.5c-1.3,3.3,0.3,7.1,3.6,8.5l0,0c1.6,0.7,3.4,0.6,5,0c1.6-0.7,2.8-1.9,3.5-3.5l5.9-14.5
				c0.7-1.6,0.6-3.4,0-5c-0.7-1.6-1.9-2.8-3.5-3.5C450.3,733.3,449.5,733.2,448.6,733.2z"/>
		</g>
		<g>
			<path d="M394.8,735.7L394.8,735.7c-3.2-2.4-3.9-6.9-1.6-10.1l9.3-12.7c2.4-3.2,6.9-3.9,10.1-1.6h0c3.2,2.4,3.9,6.9,1.6,10.1
				l-9.3,12.7C402.5,737.4,398,738,394.8,735.7z"/>
			<path class="st7" d="M399,737.8c-1.7,0-3.3-0.5-4.7-1.5l0,0c-1.7-1.3-2.8-3.1-3.2-5.2c-0.3-2.1,0.2-4.2,1.4-5.9l9.3-12.7
				c1.3-1.7,3.1-2.8,5.2-3.2c2.1-0.3,4.2,0.2,5.9,1.4c3.5,2.6,4.3,7.6,1.7,11.1l-9.3,12.7c-1.3,1.7-3.1,2.8-5.2,3.2
				C399.8,737.8,399.4,737.8,399,737.8z M408.3,710.7c-0.3,0-0.7,0-1,0.1c-1.7,0.3-3.2,1.2-4.2,2.6l-9.3,12.7
				c-1,1.4-1.4,3.1-1.2,4.8c0.3,1.7,1.2,3.2,2.6,4.2l0,0c1.4,1,3.1,1.4,4.8,1.2c1.7-0.3,3.2-1.2,4.2-2.6l9.3-12.7
				c2.1-2.9,1.5-7-1.4-9.1C411,711.1,409.7,710.7,408.3,710.7z"/>
		</g>
		<g>
			<path d="M357.3,700.4L357.3,700.4c-2.6-3.1-2.1-7.6,0.9-10.2l12.1-10c3.1-2.6,7.6-2.1,10.2,0.9l0,0c2.6,3.1,2.1,7.6-0.9,10.2
				l-12.1,10C364.4,703.9,359.8,703.5,357.3,700.4z"/>
			<path class="st7" d="M362.9,703.8c-2.3,0-4.6-1-6.1-2.9l0,0c-2.8-3.4-2.3-8.4,1-11.2l12.1-10c1.6-1.4,3.7-2,5.8-1.8
				c2.1,0.2,4,1.2,5.4,2.8c2.8,3.4,2.3,8.4-1,11.2l-12.1,10C366.5,703.2,364.6,703.8,362.9,703.8z M357.9,700
				c2.3,2.8,6.4,3.1,9.1,0.8l12.1-10c2.8-2.3,3.1-6.4,0.8-9.1c-1.1-1.3-2.7-2.2-4.4-2.3c-1.7-0.2-3.4,0.4-4.7,1.5l-12.1,10
				C355.9,693.1,355.6,697.2,357.9,700L357.9,700z"/>
		</g>
		<g>
			<path d="M329.4,657L329.4,657c-1.7-3.6-0.2-7.9,3.4-9.6l14.2-6.8c3.6-1.7,7.9-0.2,9.6,3.4l0,0c1.7,3.6,0.2,7.9-3.4,9.6l-14.2,6.8
				C335.4,662.1,331.1,660.6,329.4,657z"/>
			<path class="st7" d="M335.9,661.8c-3,0-5.8-1.7-7.2-4.5c-0.9-1.9-1-4.1-0.3-6.1c0.7-2,2.2-3.6,4.1-4.5l14.2-6.8
				c1.9-0.9,4.1-1,6.1-0.3c2,0.7,3.6,2.2,4.5,4.1c1.9,4,0.2,8.7-3.7,10.6l-14.2,6.8C338.2,661.5,337.1,661.8,335.9,661.8z
				 M350,640.5c-1,0-1.9,0.2-2.8,0.6l-14.2,6.8c-1.6,0.7-2.7,2.1-3.3,3.7c-0.6,1.6-0.5,3.4,0.3,5c1.5,3.2,5.4,4.6,8.7,3l14.2-6.8
				c3.2-1.5,4.6-5.4,3-8.7c-0.8-1.6-2.1-2.7-3.7-3.3C351.5,640.7,350.8,640.5,350,640.5z"/>
		</g>
		<g>
			<path d="M312.8,607L312.8,607c-0.8-3.9,1.8-7.7,5.7-8.5l15.4-3c3.9-0.8,7.7,1.8,8.5,5.7v0c0.8,3.9-1.8,7.7-5.7,8.5l-15.4,3
				C317.4,613.4,313.6,610.9,312.8,607z"/>
			<path class="st7" d="M319.9,613.5c-1.6,0-3.1-0.5-4.4-1.4c-1.8-1.2-3-3-3.4-5.1s0-4.2,1.2-6c1.2-1.8,3-3,5.1-3.4l15.4-3
				c4.3-0.8,8.5,2,9.4,6.3c0.8,4.3-2,8.5-6.3,9.4l-15.4,3C320.9,613.5,320.4,613.5,319.9,613.5z M335.3,596.1c-0.4,0-0.8,0-1.3,0.1
				l-15.4,3c-1.7,0.3-3.2,1.3-4.1,2.8c-1,1.4-1.3,3.2-1,4.9l0,0c0.3,1.7,1.3,3.2,2.8,4.1c1.4,1,3.2,1.3,4.9,1l15.4-3
				c3.5-0.7,5.8-4.1,5.1-7.6C341,598.2,338.3,596.1,335.3,596.1z"/>
		</g>
		<g>
			<path d="M309.3,552.5L309.3,552.5c0.3-4,3.7-7,7.7-6.7l15.7,1c4,0.3,7,3.7,6.7,7.7l0,0c-0.3,4-3.7,7-7.7,6.7l-15.7-1
				C312.1,560,309,556.5,309.3,552.5z"/>
			<path class="st7" d="M332.2,562c-0.2,0-0.4,0-0.5,0l-15.7-1c-2.1-0.1-4.1-1.1-5.5-2.7c-1.4-1.6-2.1-3.6-2-5.8
				c0.3-4.4,4.1-7.7,8.5-7.4l15.7,1c4.4,0.3,7.7,4.1,7.4,8.5c-0.1,2.1-1.1,4.1-2.7,5.5C336,561.3,334.1,562,332.2,562z M316.5,546.5
				c-3.4,0-6.3,2.6-6.5,6.1l0,0c-0.1,1.7,0.5,3.4,1.6,4.7c1.1,1.3,2.7,2.1,4.5,2.2l15.7,1c3.6,0.2,6.7-2.5,6.9-6.1
				c0.2-3.6-2.5-6.7-6.1-6.9l-15.7-1C316.8,546.5,316.6,546.5,316.5,546.5z"/>
		</g>
		<g>
			<path d="M319.5,500L319.5,500c1.3-3.8,5.4-5.8,9.1-4.6l14.9,5c3.8,1.3,5.8,5.4,4.6,9.1v0c-1.3,3.8-5.4,5.8-9.1,4.6l-14.9-5
				C320.3,507.9,318.3,503.8,319.5,500z"/>
			<path class="st7" d="M341.3,515.2c-0.8,0-1.7-0.1-2.5-0.4l-14.9-5c-2-0.7-3.7-2.1-4.6-4c-1-1.9-1.1-4.1-0.4-6.1
				c0.7-2,2.1-3.7,4-4.6c1.9-1,4.1-1.1,6.1-0.4l14.9,5c2,0.7,3.7,2.1,4.6,4c1,1.9,1.1,4.1,0.4,6.1c-0.7,2-2.1,3.7-4,4.6
				C343.7,514.9,342.5,515.2,341.3,515.2z M326.4,495.8c-2.7,0-5.3,1.7-6.2,4.4c-0.5,1.6-0.4,3.4,0.4,5c0.8,1.6,2.1,2.7,3.8,3.3
				l14.9,5c1.6,0.5,3.4,0.4,5-0.4c1.6-0.8,2.7-2.1,3.3-3.8c0.5-1.6,0.4-3.4-0.4-5c-0.8-1.6-2.1-2.7-3.8-3.3l-14.9-5
				C327.8,495.9,327.1,495.8,326.4,495.8z"/>
		</g>
		<g>
			<path d="M342,453L342,453c2.2-3.4,6.6-4.3,10-2.2l13.2,8.5c3.4,2.2,4.3,6.6,2.2,10l0,0c-2.2,3.4-6.6,4.3-10,2.2l-13.2-8.5
				C340.8,460.9,339.9,456.4,342,453z"/>
			<path class="st7" d="M361.3,473.4c-1.5,0-3-0.4-4.3-1.3l-13.2-8.5c-3.7-2.4-4.8-7.3-2.4-11c1.2-1.8,2.9-3,5-3.5
				c2.1-0.5,4.2-0.1,6,1.1l13.2,8.5c3.7,2.4,4.8,7.3,2.4,11c-1.2,1.8-2.9,3-5,3.5C362.4,473.3,361.9,473.4,361.3,473.4z
				 M348.1,450.5c-2.1,0-4.2,1.1-5.5,3c-1.9,3-1.1,7,2,9l13.2,8.5c1.5,0.9,3.2,1.3,4.9,0.9c1.7-0.4,3.1-1.4,4.1-2.8c1.9-3,1.1-7-2-9
				l-13.2-8.5C350.5,450.8,349.3,450.5,348.1,450.5z"/>
		</g>
		<g>
			<path d="M374.9,413.5L374.9,413.5c2.9-2.7,7.5-2.6,10.2,0.3l10.8,11.4c2.7,2.9,2.6,7.5-0.3,10.2v0c-2.9,2.7-7.5,2.6-10.2-0.3
				l-10.8-11.4C371.9,420.8,372,416.2,374.9,413.5z"/>
			<path class="st7" d="M390.6,438.1c-0.1,0-0.2,0-0.2,0c-2.1-0.1-4.1-1-5.6-2.5l-10.8-11.4c-1.5-1.5-2.2-3.6-2.2-5.7
				c0.1-2.1,1-4.1,2.5-5.6c1.6-1.5,3.6-2.2,5.7-2.2c2.1,0.1,4.1,1,5.6,2.5l10.8,11.4c3,3.2,2.9,8.3-0.3,11.3
				C394.6,437.4,392.7,438.1,390.6,438.1z M379.9,412.2c-1.7,0-3.2,0.6-4.4,1.8v0c-2.6,2.5-2.7,6.6-0.3,9.2l10.8,11.4
				c1.2,1.3,2.8,2,4.5,2c1.7,0,3.4-0.6,4.6-1.8c2.6-2.5,2.7-6.6,0.3-9.2l-10.8-11.4c-1.2-1.3-2.8-2-4.5-2
				C380,412.2,380,412.2,379.9,412.2z"/>
		</g>
		<g>
			<path d="M416.5,383L416.5,383c3.5-1.9,7.9-0.7,9.8,2.8l7.7,13.7c1.9,3.5,0.7,7.9-2.8,9.8l0,0c-3.5,1.9-7.9,0.7-9.8-2.8l-7.7-13.7
				C411.8,389.3,413,384.9,416.5,383z"/>
			<path class="st7" d="M427.7,411c-0.7,0-1.5-0.1-2.2-0.3c-2-0.6-3.7-1.9-4.8-3.8l-7.7-13.7c-1-1.9-1.3-4-0.7-6.1
				c0.6-2,1.9-3.7,3.8-4.8c1.9-1,4-1.3,6.1-0.7c2,0.6,3.7,1.9,4.8,3.8l7.7,13.7c2.1,3.8,0.8,8.7-3.1,10.8
				C430.4,410.6,429.1,411,427.7,411z M420,382.8c-1.1,0-2.2,0.3-3.2,0.8h0c-1.5,0.8-2.6,2.2-3.1,3.9c-0.5,1.7-0.3,3.4,0.6,4.9
				l7.7,13.7c0.8,1.5,2.2,2.6,3.9,3.1c1.7,0.5,3.4,0.3,4.9-0.6c3.1-1.7,4.2-5.7,2.5-8.8l-7.7-13.7c-0.8-1.5-2.2-2.6-3.9-3.1
				C421.2,382.9,420.6,382.8,420,382.8z"/>
		</g>
		<g>
			<path d="M465.1,363.4L465.1,363.4c3.9-1,7.8,1.3,8.8,5.1l4,15.2c1,3.9-1.3,7.8-5.1,8.8l0,0c-3.9,1-7.8-1.3-8.8-5.1l-4-15.2
				C458.9,368.4,461.2,364.4,465.1,363.4z"/>
			<path class="st7" d="M470.9,393.5c-1.4,0-2.8-0.4-4-1.1c-1.8-1.1-3.1-2.8-3.7-4.9l-4-15.2c-0.5-2.1-0.3-4.2,0.8-6
				c1.1-1.8,2.8-3.1,4.9-3.7c2.1-0.5,4.2-0.3,6,0.8c1.8,1.1,3.1,2.8,3.7,4.9l4,15.2c0.5,2.1,0.3,4.2-0.8,6c-1.1,1.8-2.8,3.1-4.9,3.7
				C472.3,393.4,471.6,393.5,470.9,393.5z M466.9,363.9c-0.6,0-1.1,0.1-1.7,0.2c-1.7,0.4-3.1,1.5-4,3c-0.9,1.5-1.1,3.2-0.7,4.9
				l4,15.2c0.9,3.5,4.5,5.5,7.9,4.6c1.7-0.4,3.1-1.5,4-3c0.9-1.5,1.1-3.2,0.7-4.9l-4-15.2c-0.4-1.7-1.5-3.1-3-4
				C469.2,364.2,468,363.9,466.9,363.9z"/>
		</g>
		<g>
			<path d="M518.7,356.5L518.7,356.5c4,0,7.2,3.2,7.2,7.2v15.7c0,4-3.2,7.2-7.2,7.2l0,0c-4,0-7.2-3.2-7.2-7.2v-15.7
				C511.5,359.7,514.7,356.5,518.7,356.5z"/>
			<path class="st7" d="M518.7,387.4c-4.4,0-8-3.6-8-8v-15.7c0-4.4,3.6-8,8-8c4.4,0,8,3.6,8,8v15.7
				C526.7,383.8,523.1,387.4,518.7,387.4z M518.7,357.2c-3.6,0-6.5,2.9-6.5,6.5v15.7c0,3.6,2.9,6.5,6.5,6.5c3.6,0,6.5-2.9,6.5-6.5
				v-15.7C525.2,360.1,522.3,357.2,518.7,357.2z"/>
		</g>
	</g>
</g>
</svg>
