<?xml version="1.0" encoding="utf-8"?>
<!-- Generator: Adobe Illustrator 23.0.1, SVG Export Plug-In . SVG Version: 6.00 Build 0)  -->
<svg version="1.1" id="Layer_1" xmlns="http://www.w3.org/2000/svg" xmlns:xlink="http://www.w3.org/1999/xlink" x="0px" y="0px"
	 viewBox="0 0 1024 1024" style="enable-background:new 0 0 1024 1024;" xml:space="preserve">
<style type="text/css">
	.st0{fill:url(#path11_1_);}
	.st1{fill:#FF1F48;}
	.st2{fill:#FFC70E;}
	.st3{fill:#00F94A;}
	.st4{fill:url(#SVGID_1_);}
	.st5{fill:#0686FF;}
	.st6{fill:#FFFFFF;}
</style>
<g id="orca" inkscape:version="0.92.3 (2405546, 2018-03-11)" sodipodi:docname="orca.svg" xmlns:cc="http://creativecommons.org/ns#" xmlns:dc="http://purl.org/dc/elements/1.1/" xmlns:inkscape="http://www.inkscape.org/namespaces/inkscape" xmlns:rdf="http://www.w3.org/1999/02/22-rdf-syntax-ns#" xmlns:sodipodi="http://sodipodi.sourceforge.net/DTD/sodipodi-0.dtd" xmlns:svg="http://www.w3.org/2000/svg">
	<linearGradient id="path11_1_" gradientUnits="userSpaceOnUse" x1="-29.8518" y1="1484.1793" x2="489.292" y2="555.6063">
		<stop  offset="0" style="stop-color:#0686FF"/>
		<stop  offset="0.275" style="stop-color:#43A2FC"/>
		<stop  offset="0.9076" style="stop-color:#DBE8F3"/>
		<stop  offset="1" style="stop-color:#F2F2F2"/>
	</linearGradient>
	<path id="path11" inkscape:connector-curvature="0" class="st0" d="M909.3,935.5l-797.6-2.9c-26.9-0.1-48.6-22-48.5-48.9l2.6-740.6
		c0.1-26.9,22-48.6,48.9-48.5l797.6,2.9c26.9,0.1,48.6,22,48.5,48.9L958.1,887C958.1,913.8,936.2,935.5,909.3,935.5z"/>
	
		<ellipse transform="matrix(7.088901e-02 -0.9975 0.9975 7.088901e-02 -35.0213 312.8022)" class="st1" cx="150.4" cy="175.2" rx="42.6" ry="42.6"/>
	<circle class="st2" cx="261" cy="175.2" r="42.6"/>
	<circle class="st3" cx="371.5" cy="175.2" r="42.6"/>
</g>
<g>
	
		<linearGradient id="SVGID_1_" gradientUnits="userSpaceOnUse" x1="576.4273" y1="722.9764" x2="463.7472" y2="190.5075" gradientTransform="matrix(1 0 0 -1 0 1021.8898)">
		<stop  offset="0" style="stop-color:#CCCCCC;stop-opacity:0"/>
		<stop  offset="0.4383" style="stop-color:#0086FF"/>
		<stop  offset="1" style="stop-color:#CCCCCC;stop-opacity:0"/>
	</linearGradient>
	<path class="st4" d="M958.4,416.6v-71.2v-3v-74.2h-74.3h-3H810h-3.2h-71.1h-3h-70.9h-3.4h-70.9h-3h-71.3h-3h-71.3h-3H365h-3.2
		h-71.1h-3h-70.9h-3.4h-70.9h-3H65.3v74.2v3v71.2v3v71.2v3V565v3v71.2v3v71.2v3v74.2h0.1v71.2v3V939h74.3h3h70.9h3.4h70.9h3H362h3.2
		h71.1h3h71.3h3h71.3h3h70.9h3.4H733h3h71h3.2h71.1h3h74.3v-74.2v-3v-71.2v-3v-71.2v-3v-71.2v-3V568v-3v-71.2v-3v-74.2L958.4,416.6
		L958.4,416.6z M884.3,716.6h71.1v71.2h-71.1V716.6z M884.3,713.6v-71.2h71.1v71.2H884.3z M884.3,639.3v-71.2h71.1v71.2H884.3z
		 M884.3,565.1v-71.2h71.1v71.2H884.3z M955.4,419.6v71.2h-71.1v-71.2L955.4,419.6L955.4,419.6z M884.2,271.2h71.2v71.2h-71.2V271.2
		z M884.2,345.4h71.2v71.2h-71.2h-0.1L884.2,345.4L884.2,345.4z M810.3,716.6h70.9v71.2h-70.9V716.6z M810.3,713.6v-71.2h70.9v71.2
		H810.3z M810.3,639.3v-71.2h70.9v71.2H810.3z M810.3,565.1v-71.2h70.9v71.2H810.3z M881.1,419.6v71.2h-70.9v-71.2L881.1,419.6
		L881.1,419.6z M810.1,271.2h71v71.2h-71V271.2z M810.1,345.4h71v71.2h-70.9h-0.1V345.4z M736,716.6h70.9v71.2H736V716.6z
		 M736,713.6v-71.2h70.9v71.2H736z M736,639.3v-71.2h70.9v71.2H736z M736,565.1v-71.2h70.9v71.2H736z M806.9,419.6v71.2H736v-71.2
		L806.9,419.6L806.9,419.6z M735.9,271.2h71v71.2h-71V271.2z M735.9,345.4h71v71.2H736h-0.1V345.4z M662.1,716.6h70.7v71.2h-70.7
		V716.6z M662.1,713.6v-71.2h70.7v71.2H662.1z M662.1,639.3v-71.2h70.7v71.2H662.1z M662.1,565.1v-71.2h70.7v71.2H662.1z
		 M732.8,419.6v71.2h-70.7v-71.2L732.8,419.6L732.8,419.6z M661.9,271.2h70.9v71.2h-70.9V271.2z M661.9,345.4h70.9v71.2h-70.7H662
		v-71.2H661.9z M587.8,716.6h70.7v71.2h-70.7V716.6z M587.8,713.6v-71.2h70.7v71.2H587.8z M587.8,639.3v-71.2h70.7v71.2H587.8z
		 M587.8,565.1v-71.2h70.7v71.2H587.8z M658.5,419.6v71.2h-70.7v-71.2L658.5,419.6L658.5,419.6z M587.7,271.2h70.9v71.2h-70.9V271.2
		z M587.7,345.4h70.9v71.2h-70.8h-0.1L587.7,345.4L587.7,345.4z M513.5,716.6h71.1v71.2h-71.1V716.6z M513.5,713.6v-71.2h71.1v71.2
		H513.5z M513.5,639.3v-71.2h71.1v71.2H513.5z M513.5,565.1v-71.2h71.1v71.2H513.5z M584.6,419.6v71.2h-71.1v-71.2L584.6,419.6
		L584.6,419.6z M513.4,271.2h71.2v71.2h-71.2V271.2z M513.4,345.4h71.2v71.2h-71.1h-0.1L513.4,345.4L513.4,345.4z M439.3,716.6h71.1
		v71.2h-71.1V716.6z M439.3,713.6v-71.2h71.1v71.2H439.3z M439.3,639.3v-71.2h71.1v71.2H439.3z M439.3,565.1v-71.2h71.1v71.2H439.3z
		 M510.4,419.6v71.2h-71.1v-71.2L510.4,419.6L510.4,419.6z M439.1,271.2h71.2v71.2h-71.2L439.1,271.2L439.1,271.2z M439.1,345.4
		h71.2v71.2h-71.2H439v-71.2H439.1z M365.2,716.6H436v71.2h-70.9v-71.2H365.2z M365.2,713.6v-71.2H436v71.2H365.2z M365.2,639.3
		v-71.2H436v71.2H365.2z M365.2,565.1v-71.2H436v71.2H365.2z M436,419.6v71.2h-70.9v-71.2L436,419.6L436,419.6z M365,271.2h71v71.2
		h-71V271.2z M365,345.4h71v71.2h-70.9H365V345.4z M290.9,716.6h70.9v71.2h-70.9V716.6z M290.9,713.6v-71.2h70.9v71.2H290.9z
		 M290.9,639.3v-71.2h70.9v71.2H290.9z M290.9,565.1v-71.2h70.9v71.2H290.9z M361.8,419.6v71.2h-70.9v-71.2L361.8,419.6L361.8,419.6
		z M290.8,271.2h71v71.2h-71V271.2z M290.8,345.4h71v71.2h-70.9h-0.1V345.4z M217,716.6h70.7v71.2H217V716.6z M217,713.6v-71.2h70.7
		v71.2H217z M217,639.3v-71.2h70.7v71.2H217z M217,565.1v-71.2h70.7v71.2H217z M287.7,419.6v71.2H217v-71.2L287.7,419.6L287.7,419.6
		z M216.8,271.2h70.9v71.2h-70.9L216.8,271.2L216.8,271.2z M216.8,345.4h70.9v71.2H217h-0.1L216.8,345.4L216.8,345.4z M142.7,716.6
		h70.7v71.2h-70.7V716.6z M142.7,713.6v-71.2h70.7v71.2H142.7z M142.7,639.3v-71.2h70.7v71.2H142.7z M142.7,565.1v-71.2h70.7v71.2
		H142.7z M213.5,419.6v71.2h-70.7v-71.2L213.5,419.6L213.5,419.6z M142.6,271.2h70.9v71.2h-70.9V271.2z M142.6,345.4h70.9v71.2
		h-70.8h-0.1L142.6,345.4L142.6,345.4z M68.4,716.6h71.1v71.2H68.4V716.6z M68.4,713.6v-71.2h71.1v71.2H68.4z M68.4,639.3v-71.2
		h71.1v71.2H68.4z M68.4,565.1v-71.2h71.1v71.2H68.4z M139.5,419.6v71.2H68.4v-71.2L139.5,419.6L139.5,419.6z M68.3,271.2h71.2v71.2
		H68.3V271.2z M68.3,345.4h71.2v71.2H68.3V345.4z M139.7,936.3H68.4v-71.2h71.2L139.7,936.3L139.7,936.3z M68.4,862.1v-71.2h71.2
		h0.1v71.2H68.4z M213.6,936.3h-70.9v-71.2h70.9V936.3z M142.7,862.1v-71.2h70.7h0.1v71.2H142.7z M287.9,936.3H217v-71.2h70.9V936.3
		z M217,862.1v-71.2h70.8h0.1v71.2H217z M361.9,936.3h-71v-71.2h71V936.3z M290.9,862.1v-71.2h70.9h0.1v71.2H290.9z M436.2,936.3
		h-71v-71.2h71V936.3z M365.2,862.1v-71.2h70.9h0.1v71.2H365.2z M510.5,936.3h-71.2v-71.2h71.2V936.3z M439.3,862.1v-71.2h71.1h0.1
		v71.2H439.3z M584.7,936.3h-71.2v-71.2h71.2V936.3z M513.5,862.1v-71.2h71.2h0.1v71.2H513.5z M658.7,936.3h-70.9v-71.2h70.9V936.3z
		 M587.8,862.1v-71.2h70.7h0.1v71.2H587.8z M732.9,936.3H662v-71.2h70.9V936.3z M662.1,862.1v-71.2h70.8h0.1v71.2H662.1z M807,936.3
		h-71v-71.2h71V936.3z M736,862.1v-71.2h70.9h0.1v71.2H736z M881.3,936.3h-71v-71.2h71V936.3z M810.3,862.1v-71.2h70.9h0.1v71.2
		H810.3z M955.6,936.3h-71.2v-71.2h71.2V936.3z M884.3,862.1v-71.2h71.2v71.2H884.3z"/>
</g>
<path class="st5" d="M693.8,614.2L530.1,388.6c-9.4-13-28.9-13-38.3,0L328,614.2c-11.3,15.6-0.1,37.4,19.2,37.3l163.7-0.3l163.7,0.3
	C693.9,651.5,705.1,629.7,693.8,614.2z M559.9,538.8l-69,84.6c-2,2.5-6,0.4-5.1-2.7l16.1-56.5c0.5-1.9-0.9-3.8-2.8-3.8h-35
	c-2.5,0-3.9-2.9-2.3-4.8l67.1-85c2-2.5,6-0.5,5.2,2.6l-14.3,57.1c-0.5,1.9,0.9,3.7,2.9,3.7h35C560.1,533.9,561.4,536.8,559.9,538.8z
	"/>
<path class="st6" d="M560,538.8l-69,84.6c-2,2.5-6,0.4-5.1-2.7l16.1-56.5c0.5-1.9-0.9-3.8-2.8-3.8h-35c-2.5,0-3.9-2.9-2.3-4.8
	l67.1-85c2-2.5,6-0.5,5.2,2.6l-14.3,57.1c-0.5,1.9,0.9,3.7,2.9,3.7h35C560.2,533.9,561.6,536.8,560,538.8z"/>
</svg>
