<?xml version="1.0" encoding="utf-8"?>
<!-- Generator: Adobe Illustrator 22.1.0, SVG Export Plug-In . SVG Version: 6.00 Build 0)  -->
<!-- Artist: @KevDoy for Trenta.io -->
<!-- Vector Conversion by @Genghis-Khanr -->
<svg version="1.1" id="gnome-mahjongg" xmlns="http://www.w3.org/2000/svg" xmlns:xlink="http://www.w3.org/1999/xlink" x="0px" y="0px"
	 viewBox="0 0 1024 1024" style="enable-background:new 0 0 1024 1024;" xml:space="preserve">
<style type="text/css">
	.st0{fill:url(#SVGID_1_);}
	.st1{fill:url(#SVGID_2_);}
	.st2{fill:#F6F0E6;}
	.st3{fill:#D50000;}
</style>
<g>
	<g>
		<linearGradient id="SVGID_1_" gradientUnits="userSpaceOnUse" x1="937.6451" y1="770.555" x2="92.0378" y2="282.3434">
			<stop  offset="0" style="stop-color:#B9B4A7"/>
			<stop  offset="0.25" style="stop-color:#CFCCC3"/>
			<stop  offset="0.5" style="stop-color:#B9B4A7"/>
			<stop  offset="0.75" style="stop-color:#CFCCC3"/>
			<stop  offset="1" style="stop-color:#B9B4A7"/>
		</linearGradient>
		<path class="st0" d="M866.5,893.4c-1.2,3.4-4.2,5.9-7.8,6.4L304,990.3c-16.9,2.7-32.8-8.9-35.5-25.8l-123-770.3
			c-0.4-2.5,0.2-5.1,1.6-7.2l27.7-46.2c0.8-1.2,5.6-6.7,7-6.9L719.5,59c16.9-2.7,32.8,8.9,35.5,25.8l128.4,759.1
			c0.1,0.9-0.5,5.3-0.9,6.2L866.5,893.4z"/>
	</g>
	<g>
		<linearGradient id="SVGID_2_" gradientUnits="userSpaceOnUse" x1="169.9477" y1="499.3952" x2="883.6984" y2="499.3952">
			<stop  offset="0" style="stop-color:#B9B4A7"/>
			<stop  offset="0.25" style="stop-color:#CFCCC3"/>
			<stop  offset="0.5" style="stop-color:#B9B4A7"/>
			<stop  offset="0.75" style="stop-color:#CFCCC3"/>
			<stop  offset="1" style="stop-color:#B9B4A7"/>
		</linearGradient>
		<path class="st1" d="M736.7,47.4c11.7,0,20.1,9.4,22,21.8L880.5,839c1.3,9.7-3.6,24.1-17.2,26.3l-539.3,85.8
			c-1.3,0.2-2.6,0.3-3.9,0.3c-12.1,0-22.7-8.8-24.7-21.1L173.3,159.7c-2.2-13.6,7.1-26.4,20.8-28.6l539.1-83.4
			C734.3,47.5,735.6,47.4,736.7,47.4 M736.7,44.4v3V44.4L736.7,44.4c-1.3,0-2.7,0.1-4.1,0.3l-539,83.4c-15.3,2.4-25.7,16.8-23.3,32
			l122.1,770.6c2.2,13.7,13.8,23.6,27.6,23.6c1.5,0,3-0.1,4.4-0.3l539.3-85.8c15.9-2.5,21.2-19.2,19.7-29.7l0,0l0,0L761.7,68.8
			C759.4,54.2,749.4,44.4,736.7,44.4L736.7,44.4z"/>
	</g>
	<g>
		<path class="st2" d="M863,865.7l-539.1,85.4c-13.6,2.2-26.4-7.1-28.6-20.8L173.3,159.7c-2.2-13.6,7.1-26.4,20.8-28.6l539.1-85.4
			c13.6-2.2,26.4,7.1,28.6,20.8l122.1,770.6C885.9,850.7,876.6,863.5,863,865.7z"/>
	</g>
	<path class="st3" d="M731.7,311.7c0,0-33.3-88.7-199,0c0,0-11.3-19.3,0-43.5c7.5-13.7,19.3-29.7,12-51.8c0,0-58.3-46.5-87.8-50.2
		c0,0-3.7,17.3-23.3,36c-9.5,8.2-16.8,23.5-16.8,23.5s14.3,32.7,41,66c26.7,33.3,22.7,73,22.7,73S446,385.3,414.7,410
		c-31.3,24.7-37.7,25-41,25.7c-3.3,0.7-12.7,6-27-7c-14.3-13-22.3-19.3-47.7-13c0,0-4,46.7,20.3,65.7c24.3,19,61.8,23.3,72.7,31.2
		c10.8,7.8,27.7,21,29,44c0,0,11,2.3,35.5-18c24.5-20.3,42.2-19.8,42.2-19.8s18.7,24.7,23.7,87.3s8.3,183.7,46.2,209.5
		c0,0,22.5-36.5,9.5-111.8s-18.3-72-22.3-101.3s-10.5-56.2-1.3-104.1c0,0,64-27.4,80.8-14.6C635.3,483.8,624.3,422.7,731.7,311.7z
		 M451.8,492.7c-13.7-5.8-20.5-6.8-44-46.2c0,0,52.8-24.7,53.5-41c0,0,23-7.3,26.7,21.5c3.7,28.8,2.2,30.3,6.5,59.2
		C494.5,486.2,465.5,498.5,451.8,492.7z M539.3,470.3c-6.3-67.5-10.7-99.8-10.7-99.8C599.7,303.7,628,325,628,325
		C617,447,539.3,470.3,539.3,470.3z"/>
</g>
</svg>
