<?xml version="1.0" encoding="utf-8"?>
<!-- Generator: Adobe Illustrator 21.1.0, SVG Export Plug-In . SVG Version: 6.00 Build 0)  -->
<!-- Artist: @KevDoy for Trenta.io -->
<svg version="1.1" id="Layer_1" xmlns="http://www.w3.org/2000/svg" xmlns:xlink="http://www.w3.org/1999/xlink" x="0px" y="0px"
	 viewBox="0 0 1024 1024" style="enable-background:new 0 0 1024 1024;" xml:space="preserve">
<style type="text/css">
	.st0{fill:url(#Blue_1_);}
	.st1{fill:url(#SVGID_1_);}
	.st2{fill:#EB8F00;}
	.st3{clip-path:url(#SVGID_3_);fill:#242424;}
	.st4{opacity:0.6;clip-path:url(#SVGID_5_);}
	.st5{fill:none;}
	.st6{clip-path:url(#SVGID_7_);fill:#E04C74;}
	.st7{opacity:0.3;clip-path:url(#SVGID_9_);}
	.st8{fill:#AB3F2E;}
	
		.st9{opacity:0.3;clip-path:url(#SVGID_11_);fill:none;stroke:#AB3F2E;stroke-width:4;stroke-linecap:round;stroke-miterlimit:10;enable-background:new    ;}
	.st10{fill:#FFFFFF;}
	.st11{fill:#242424;}
	.st12{fill:url(#SVGID_12_);}
	.st13{fill:#858585;}
	.st14{fill:url(#SVGID_13_);}
	.st15{fill:url(#SVGID_14_);}
	.st16{opacity:0.2;}
	.st17{fill:#424242;}
	.st18{fill:url(#SVGID_15_);}
	.st19{fill:url(#SVGID_16_);}
	.st20{fill:url(#SVGID_17_);}
	.st21{fill:url(#SVGID_18_);}
</style>
<g id="Layer_3">
	
		<linearGradient id="Blue_1_" gradientUnits="userSpaceOnUse" x1="512.5" y1="-49.6111" x2="512.5" y2="-872.2225" gradientTransform="matrix(1 0 0 -1 0 50)">
		<stop  offset="0" style="stop-color:#F2F2F2"/>
		<stop  offset="1" style="stop-color:#F3F3F3"/>
	</linearGradient>
	<path id="Blue" class="st0" d="M909.8,932.4l-797.6-2.9c-26.9-0.1-48.6-22-48.5-48.9L66.3,140c0.1-26.9,22-48.6,48.9-48.5
		l797.6,2.9c26.9,0.1,48.6,22,48.5,48.9l-2.7,740.6C958.6,910.7,936.7,932.4,909.8,932.4z"/>
</g>
<g id="Circles">
	
		<linearGradient id="SVGID_1_" gradientUnits="userSpaceOnUse" x1="327.5" y1="1221.6033" x2="327.5" y2="1416.2388" gradientTransform="matrix(1 0 0 1 0 -974)">
		<stop  offset="0.5" style="stop-color:#FEE133"/>
		<stop  offset="0.6118" style="stop-color:#FEDE32"/>
		<stop  offset="0.7076" style="stop-color:#FCD32F"/>
		<stop  offset="0.7975" style="stop-color:#FAC12B"/>
		<stop  offset="0.8834" style="stop-color:#F7A924"/>
		<stop  offset="0.9" style="stop-color:#F6A323"/>
	</linearGradient>
	<path class="st1" d="M327.5,469.2c-61.8,0-128.3-38.7-128.3-123.7c0-84.9,66.5-123.7,128.3-123.7c34.2,0,65.9,11.3,89.3,31.9
		c25.5,22.5,39,54.3,39,91.7c0,37.3-13.5,69-39,91.6C393.4,457.8,361.6,469.2,327.5,469.2z"/>
	<path class="st2" d="M327.5,226.3c33.2,0,63.8,11,86.4,30.8c24.6,21.7,37.5,52.3,37.5,88.4c0,36-13,66.5-37.5,88.2
		c-22.6,20-53.2,31-86.3,31c-33.3,0-63.9-10.9-86.4-30.6c-24.6-21.6-37.5-52.2-37.5-88.6c0-36.6,13-67.3,37.5-88.8
		C263.5,237.1,294.1,226.3,327.5,226.3 M327.5,217.5c-68.9,0-132.7,44.3-132.7,128.1c0,83.4,63.8,128.1,132.7,128.1
		s132.7-45.9,132.7-128.1C460.2,262.9,396.4,217.5,327.5,217.5z"/>
	<g>
		<g>
			<defs>
				<path id="SVGID_2_" d="M324.5,383.1c-28.1,0-54.3-2.4-76.1-6.4c-5.4-1-10.2,3.8-9.1,9.1c7.3,35.5,42.2,64.6,85.2,64.6
					c47.1,0,78.7-30.1,85.3-64.8c1-5.4-3.8-10-9.1-9C378.8,380.7,352.7,383.1,324.5,383.1z"/>
			</defs>
			<clipPath id="SVGID_3_">
				<use xlink:href="#SVGID_2_"  style="overflow:visible;"/>
			</clipPath>
			<path class="st3" d="M324.5,383.1c-28.1,0-54.3-2.4-76.1-6.4c-5.4-1-10.2,3.8-9.1,9.1c7.3,35.5,42.2,64.6,85.2,64.6
				c47.1,0,78.7-30.1,85.3-64.8c1-5.4-3.8-10-9.1-9C378.8,380.7,352.7,383.1,324.5,383.1z"/>
		</g>
	</g>
	<g>
		<g>
			<defs>
				<path id="SVGID_4_" d="M324.5,383.1c-28.1,0-54.3-2.4-76.1-6.4c-5.4-1-10.2,3.8-9.1,9.1c7.3,35.5,42.2,64.6,85.2,64.6
					c47.1,0,78.7-30.1,85.3-64.8c1-5.4-3.8-10-9.1-9C378.8,380.7,352.7,383.1,324.5,383.1z"/>
			</defs>
			<clipPath id="SVGID_5_">
				<use xlink:href="#SVGID_4_"  style="overflow:visible;"/>
			</clipPath>
			<g class="st4">
				<path d="M400.7,385.7c-3.2,14.9-11.7,28.6-24,38.5c-14,11.4-32.1,17.4-52.3,17.4c-36.3,0-68.7-23.9-76.1-55.9
					c22.8,4.1,49.1,6.3,76.2,6.3S378,389.7,400.7,385.7 M402.1,376.5c-0.5,0-1,0-1.5,0.1c-21.8,4-48,6.4-76.1,6.4
					s-54.3-2.4-76.1-6.4c-0.5-0.1-1-0.1-1.5-0.1c-4.8,0-8.6,4.4-7.7,9.3c7.3,35.5,42.2,64.6,85.2,64.6c47.1,0,78.7-30.1,85.3-64.8
					C410.7,380.8,406.8,376.5,402.1,376.5z"/>
			</g>
		</g>
	</g>
	<path class="st5" d="M324.5,383.1c-28.1,0-54.3-2.4-76.1-6.4c-5.4-1-10.2,3.8-9.1,9.1c7.3,35.5,42.2,64.6,85.2,64.6
		c47.1,0,78.7-30.1,85.3-64.8c1-5.4-3.8-10-9.1-9C378.8,380.7,352.7,383.1,324.5,383.1z"/>
	<path class="st5" d="M324.5,383.1c-28.1,0-54.3-2.4-76.1-6.4c-5.4-1-10.2,3.8-9.1,9.1c7.3,35.5,42.2,64.6,85.2,64.6
		c47.1,0,78.7-30.1,85.3-64.8c1-5.4-3.8-10-9.1-9C378.8,380.7,352.7,383.1,324.5,383.1z"/>
	<g>
		<g>
			<defs>
				<path id="SVGID_6_" d="M248.4,387.3V485H399v-97.7c-22.4,3.9-48,6-74.5,6c-26.4,0-52-2-74.4-5.9"/>
			</defs>
			<clipPath id="SVGID_7_">
				<use xlink:href="#SVGID_6_"  style="overflow:visible;"/>
			</clipPath>
			<path class="st6" d="M329.7,484.2h-7.3c-21,0-38.1-17.1-38.1-38.1v-85.8h83.4V446C367.8,467.2,350.8,484.2,329.7,484.2z"/>
		</g>
	</g>
	<g>
		<g>
			<defs>
				<path id="SVGID_8_" d="M248.4,387.3V485H399v-97.7c-22.4,3.9-48,6-74.5,6c-26.4,0-52-2-74.4-5.9"/>
			</defs>
			<clipPath id="SVGID_9_">
				<use xlink:href="#SVGID_8_"  style="overflow:visible;"/>
			</clipPath>
			<g class="st7">
				<path class="st8" d="M359,369.2v76.9c0,16.1-13.1,29.2-29.2,29.2h-7.3c-16.1,0-29.2-13.1-29.2-29.2v-76.9H359 M367.8,360.4
					h-83.4v85.7c0,21,17.1,38.1,38.1,38.1h7.3c21,0,38.1-17.1,38.1-38.1v-85.7H367.8z"/>
			</g>
		</g>
	</g>
	<g>
		<g>
			<defs>
				<path id="SVGID_10_" d="M248.4,387.3V485H399v-97.7c-22.4,3.9-48,6-74.5,6c-26.4,0-52-2-74.4-5.9"/>
			</defs>
			<clipPath id="SVGID_11_">
				<use xlink:href="#SVGID_10_"  style="overflow:visible;"/>
			</clipPath>
			<line class="st9" x1="326.1" y1="360.4" x2="326.1" y2="435.9"/>
		</g>
	</g>
	<circle class="st10" cx="368.5" cy="324.3" r="47.3"/>
	<path class="st2" d="M368.5,285.8c21.2,0,38.4,17.3,38.4,38.4c0,21.2-17.3,38.4-38.4,38.4c-21.2,0-38.4-17.3-38.4-38.4
		S347.3,285.8,368.5,285.8 M368.5,277c-26.1,0-47.3,21.2-47.3,47.3s21.2,47.3,47.3,47.3c26.1,0,47.3-21.2,47.3-47.3
		S394.6,277,368.5,277z"/>
	<ellipse class="st11" cx="370.2" cy="324.3" rx="16.5" ry="16.8"/>
	<path class="st11" d="M295.2,340c0,0-0.2-0.1-0.6-0.2c-0.2-0.1-0.4-0.2-0.7-0.3c-0.2,0-0.4-0.1-0.6-0.2c-0.4-0.1-1.2-0.4-2-0.6
		s-1.8-0.4-2.8-0.6c-2.1-0.4-4.7-0.6-7.5-0.7c-2.8,0-5.8,0.2-8.8,0.6c-0.6,0.1-1.7,0.2-2.3,0.4c-0.7,0.1-1.4,0.2-2.1,0.4
		c-1.4,0.3-2.9,0.7-4.2,1.1c-2.7,0.8-5.1,1.7-7,2.7s-3.4,1.9-4.4,2.5c-0.5,0.3-0.9,0.6-1.1,0.8c-0.2,0.2-0.4,0.3-0.4,0.3l-0.6,0.4
		c-2.4,1.8-5.8,1.3-7.6-1.1c-1.5-2-1.4-4.6,0-6.5c0,0,0.2-0.2,0.5-0.6s0.8-1,1.4-1.7c0.6-0.7,1.4-1.5,2.4-2.3c1-0.9,2.1-1.7,3.3-2.6
		c2.5-1.8,5.6-3.4,9.1-4.7c1.7-0.6,3.5-1.3,5.4-1.7c0.9-0.2,1.9-0.4,2.9-0.6c1.1-0.2,1.6-0.3,2.8-0.5c3.9-0.5,7.8-0.7,11.5-0.3
		c3.7,0.3,7.1,1,10,2c1.5,0.5,2.8,1,3.9,1.6c1.2,0.6,2.1,1.1,3,1.6c0.4,0.3,0.8,0.5,1.2,0.8c0.2,0.2,0.4,0.4,0.6,0.5
		c0.3,0.3,0.5,0.4,0.5,0.4c2.3,1.9,2.7,5.4,0.8,7.7C300,340.4,297.4,341,295.2,340z"/>
	<path class="st11" d="M293.7,338c0,0-0.2-0.2-0.5-0.4c-0.3-0.4-0.7-0.6-1.1-1c-1-0.8-2.5-2.1-4.5-3.5s-4.3-3.1-6.9-4.7
		c-1.3-0.8-2.7-1.7-4.1-2.5s-2.9-1.7-4.2-2.5c-1.6-0.9-3-1.7-4.4-2.4s-2.9-1.5-4.3-2.2c-2.8-1.4-5.4-2.6-7.6-3.5s-4.1-1.6-5.3-2.1
		c-1.2-0.4-1.9-0.6-1.9-0.6l-0.6-0.2c-2.9-0.9-4.4-4-3.5-6.9c0.8-2.3,3-3.8,5.3-3.8c0,0,0.3,0,0.8,0s1.2,0,2.1,0.1
		c1.8,0.2,4.3,0.6,7.1,1.3c2.8,0.7,6,1.8,9.3,3.2c1.6,0.7,3.3,1.4,5,2.3c1.7,0.8,3.4,1.8,4.9,2.6c1.7,1,3.3,1.9,4.8,2.9
		c1.6,1,3,2.1,4.5,3.1c2.9,2.1,5.4,4.3,7.5,6.3s3.7,4,4.8,5.4c0.6,0.8,1,1.4,1.2,1.7c0.2,0.4,0.3,0.6,0.3,0.6c1.6,2.6,0.8,6-1.8,7.5
		C298.2,340.1,295.4,339.7,293.7,338L293.7,338z"/>
	
		<linearGradient id="SVGID_12_" gradientUnits="userSpaceOnUse" x1="694.5" y1="1567.4216" x2="694.5" y2="1761.7506" gradientTransform="matrix(1 0 0 1 0 -974)">
		<stop  offset="0.5" style="stop-color:#FEE133"/>
		<stop  offset="0.6118" style="stop-color:#FEDE32"/>
		<stop  offset="0.7076" style="stop-color:#FCD32F"/>
		<stop  offset="0.7975" style="stop-color:#FAC12B"/>
		<stop  offset="0.8834" style="stop-color:#F7A924"/>
		<stop  offset="0.9" style="stop-color:#F6A323"/>
	</linearGradient>
	<path class="st12" d="M694.5,814.7c-61.7,0-128.1-38.6-128.1-123.4s66.4-123.4,128.1-123.4c34.2,0,65.8,11.3,89.1,31.9
		c25.5,22.5,39,54.2,39,91.6c0,37.2-13.5,68.9-39,91.4C760.3,803.3,728.6,814.7,694.5,814.7z"/>
	<path class="st2" d="M694.5,572.3c33.1,0,63.7,10.9,86.2,30.7c24.5,21.6,37.4,52.1,37.4,88.2c0,35.9-12.9,66.3-37.5,88
		c-22.5,19.9-53.1,30.9-86.2,30.9c-33.2,0-63.8-10.8-86.2-30.5c-24.4-21.5-37.4-52.1-37.4-88.4c0-36.5,12.9-67.1,37.4-88.6
		C630.7,583.1,661.3,572.3,694.5,572.3 M694.5,563.3c-68.9,0-132.6,44.2-132.6,128c0,83.3,63.8,128,132.6,128s132.6-45.8,132.6-128
		C827.1,608.6,763.4,563.3,694.5,563.3z"/>
	<path d="M830.1,649.3c0,0-9.6,0.2-9.6,7.9c0,19,0.2,59.8-49.6,59.8c-39.9,0-58.9-20.6-62.1-43.3c-1.3-9.5-4.6-19.8-14.2-19.8
		s-12.9,10.3-14.2,19.8c-3.2,22.7-22.3,43.3-62.1,43.3c-49.8,0-49.6-40.8-49.6-59.8c0-7.7-9.6-7.9-9.6-7.9v-18.8
		c0,0,18.5-2.8,46.7-2.8s39.4,0,61.8,2.2c13.2,1.3,27,1.5,27,1.5s13.8-0.1,27-1.5c22.4-2.2,33.7-2.2,61.8-2.2s46.7,2.8,46.7,2.8
		L830.1,649.3L830.1,649.3z"/>
	<path class="st13" d="M597.7,664c-0.2,3.6-1.7,7-5.2,7.6c-0.4,0.1-0.8,0.1-1.2,0.1c-3.1,0-5.8-2.2-6.4-5.3
		c-1.3-6.7,0.2-13,4.1-17.8c3.7-4.4,9.1-7,14.9-7c3.6,0,6.8,2.2,6.8,5.8c0,4.2-3.4,6-6.8,7.2C600.6,655.9,597.9,659.6,597.7,664z"/>
	<path class="st13" d="M741.3,664c-0.2,3.6-1.7,7-5.2,7.6c-0.4,0.1-0.8,0.1-1.2,0.1c-3.1,0-5.8-2.2-6.4-5.3
		c-1.3-6.7,0.2-13,4.1-17.8c3.7-4.4,9.1-7,14.9-7c3.6,0,6.8,2.2,6.8,5.8c0,4.2-3.4,6-6.8,7.2C744.3,655.9,741.6,659.6,741.3,664z"/>
	<path class="st11" d="M694.5,758.6c-26,0-44.6-13.5-50.1-22c-2.1-3.3-2.6-6.8-1.1-9.5c1.1-2,3.1-3.2,5.5-3.2c0.8,0,1.6,0.1,2.5,0.4
		c13.1,4.1,28.1,6.3,43.5,6.3c15.2,0,30.2-2.2,43.3-6.3c0.8-0.3,1.7-0.4,2.5-0.4c2.4,0,4.4,1.2,5.4,3.2c1.4,2.7,1,6.2-1.1,9.5
		C739.1,745.1,720.5,758.6,694.5,758.6z"/>
	
		<linearGradient id="SVGID_13_" gradientUnits="userSpaceOnUse" x1="694.9683" y1="1385.8911" x2="694.9683" y2="1244.642" gradientTransform="matrix(1 0 0 1 0 -974)">
		<stop  offset="0.2283" style="stop-color:#FB8C00"/>
		<stop  offset="0.7141" style="stop-color:#EF6C00"/>
	</linearGradient>
	<path class="st14" d="M728.3,204.1c0,0-5,14.1-0.7,38.9c2,11.4,11.4,28.9,18.5,41.5c21.9,38.8,9.3,74,9.3,74s9-14.7,20.3-33.3
		c11.3-18.7,27.9-26.7,27.9-26.7s-5.3,7.7-7.1,36.4c-1.5,25.4,10.4,51.3,7.1,79.7c-4.6,38.9-44.7,74.7-79.6,81.1
		c-25.2,4.6-49.7,4.4-76.7-10.6c-42.7-23.8-63.5-70.1-61.4-112c1.9-38.4,28.8-80.5,27.5-74.8c-9,40.1,25.6,61.8,25.6,61.8
		s-11.5-56.3,16.4-98.9S728.3,204.1,728.3,204.1L728.3,204.1z"/>
	
		<linearGradient id="SVGID_14_" gradientUnits="userSpaceOnUse" x1="694.9135" y1="1468.3484" x2="694.9135" y2="1328.4587" gradientTransform="matrix(1 0 0 1 0 -974)">
		<stop  offset="0" style="stop-color:#FFB300"/>
		<stop  offset="2.510000e-02" style="stop-color:#FFB504"/>
		<stop  offset="0.3106" style="stop-color:#FFCE28"/>
		<stop  offset="0.577" style="stop-color:#FFE042"/>
		<stop  offset="0.8148" style="stop-color:#FFEA52"/>
		<stop  offset="1" style="stop-color:#FFEE58"/>
	</linearGradient>
	<path class="st15" d="M691.1,301.5c0,0,2.9,37.4-16.2,67.5c-9.2,14.5-29,29.4-37.4,47.5c-8.3,18.1-8.9,40.6,3.7,60.7
		c11.8,18.9,48.5,21.6,52.8,21.8c28,1.1,77.3-16.5,61.2-75.5c-5.1-18.6-18.3-26.6-18.3-26.6s0.8,9.4-6.5,21.3
		c-7.4,11.9-18.2,14.2-18.2,14.2s29.7-24.7,12.8-78.7C715.6,324,691.1,301.5,691.1,301.5z"/>
	<g class="st16">
		<path class="st17" d="M716.1,220.2c-0.2,6.6,0.2,14.8,1.9,24.5c2.2,12.6,11.1,29.7,19.6,44.6c19.3,34.1,9,64.6,8.6,65.8
			c-1.7,4.8,0.4,10,5,12.2c1.4,0.7,2.8,1,4.3,1c3.3,0,6.6-1.7,8.4-4.7c0.1-0.1,9.2-15,20.3-33.4c1-1.7,2.1-3.3,3.2-4.8
			c-0.3,2.7-0.5,5.6-0.7,8.8c-0.8,12.8,1.5,25.5,3.8,37.8c2.5,13.5,5,27.4,3.4,41.3c-4.1,34.7-41.2,67-71.6,72.6
			c-9.1,1.7-17.2,2.5-24.6,2.5c-16.3,0-30.7-3.8-45.5-12.1c-18.5-10.3-33.6-25.9-43.6-45.2c-9.3-17.8-13.8-38.3-12.8-57.8
			c0.7-13.9,5-28.5,9.9-40.6c8.1,22.7,26.9,34.8,28,35.5c1.6,1,3.4,1.5,5.3,1.5c2,0,3.9-0.6,5.6-1.8c3.3-2.2,4.8-6.2,4-10.1
			c-0.1-0.5-10.4-52.8,15-91.5C679.3,242.3,701.4,227.8,716.1,220.2 M728.3,204.1c0,0-45.2,14.4-73.1,57
			c-27.9,42.6-16.4,98.9-16.4,98.9s-34.5-21.7-25.5-61.8c0.1-0.3,0-0.5-0.1-0.5c-1.9,0-25.6,39.3-27.4,75.3
			c-2.1,41.9,18.8,88.3,61.4,112c17.5,9.8,34,13.3,50.3,13.3c8.8,0,17.6-1,26.5-2.7c34.8-6.4,74.9-42.2,79.6-81.1
			c3.4-28.4-8.6-54.4-7.1-79.7c1.7-28.7,7.1-36.4,7.1-36.4s-16.6,8-27.9,26.7c-11.3,18.6-20.3,33.3-20.3,33.3s12.7-35.2-9.3-74
			c-7.1-12.6-16.5-30-18.5-41.5C723.3,218.1,728.3,204.1,728.3,204.1L728.3,204.1z"/>
	</g>
	<g class="st16">
		<path class="st17" d="M699.8,326.6c5.9,8.2,12.1,18.6,15.8,30.2c14.6,46.4-8.8,67.3-9.7,68.1c-3.5,2.9-4.6,7.8-2.6,11.9
			c1.7,3.4,5.2,5.6,8.9,5.6c0.7,0,1.4-0.1,2.1-0.2c1.5-0.3,15.2-3.7,24.5-18.8c1.3-2.1,2.4-4.2,3.3-6.2c1.4,2.5,2.7,5.5,3.6,8.9
			c5,18.3,3.3,33.1-5,44c-10.8,14.1-30.5,19.1-44.2,19.1c-0.7,0-1.5,0-2.1,0c-9.1-0.4-36.8-4.3-44.9-17.2
			c-9.8-15.6-10.9-34.3-3.1-51.3c4.2-9.2,12.4-18,20.3-26.5c6.2-6.7,12.1-13.1,16.4-19.8C693.4,358.3,697.8,340.6,699.8,326.6
			 M691.1,301.5c0,0,2.9,37.4-16.2,67.5c-9.2,14.5-29,29.4-37.4,47.5c-8.3,18.1-8.9,40.6,3.7,60.7c11.8,18.9,48.5,21.6,52.8,21.8
			c0.8,0,1.7,0,2.6,0c28.3,0,74.3-18.3,58.7-75.6c-5.1-18.6-18.3-26.6-18.3-26.6s0.8,9.4-6.5,21.3c-7.4,11.9-18.2,14.2-18.2,14.2
			s29.7-24.7,12.8-78.7C715.6,324,691.1,301.5,691.1,301.5z"/>
	</g>
	
		<linearGradient id="SVGID_15_" gradientUnits="userSpaceOnUse" x1="324.7657" y1="1603.0823" x2="324.7657" y2="1768.9281" gradientTransform="matrix(1 0 0 1 0 -974)">
		<stop  offset="0" style="stop-color:#EF5350"/>
		<stop  offset="0.5777" style="stop-color:#E0403E"/>
		<stop  offset="1" style="stop-color:#D32F2F"/>
	</linearGradient>
	<path class="st18" d="M258.5,738.6c19.4-5.6,69.8-21.6,136-17.9c2.1,0.1,2.3,3.1,0.3,3.5c-30.8,6.3-108.3,22.7-130,31.2
		c-3.5,1.4-7.4-0.1-9-3.5c-0.5-1.1-1.1-2.2-1.7-3.4C252.1,744.6,254.2,739.8,258.5,738.6z"/>
	
		<linearGradient id="SVGID_16_" gradientUnits="userSpaceOnUse" x1="321.5179" y1="1603.0822" x2="321.5179" y2="1768.9281" gradientTransform="matrix(1 0 0 1 0 -974)">
		<stop  offset="0" style="stop-color:#EF5350"/>
		<stop  offset="0.5777" style="stop-color:#E0403E"/>
		<stop  offset="1" style="stop-color:#D32F2F"/>
	</linearGradient>
	<path class="st19" d="M219.3,779.8c30.5-7.6,158.4-39.6,207.9-39.1c2.1,0,2.5,3.1,0.4,3.5c-38.5,8.3-171.3,39.1-201.7,54
		c-3.9,1.9-8.5-0.1-9.9-4.2l-1.4-4.3C212.9,785,215.3,780.8,219.3,779.8z"/>
	
		<linearGradient id="SVGID_17_" gradientUnits="userSpaceOnUse" x1="249.2427" y1="1603.0823" x2="249.2427" y2="1768.9281" gradientTransform="matrix(1 0 0 1 0 -974)">
		<stop  offset="0" style="stop-color:#EF5350"/>
		<stop  offset="0.5777" style="stop-color:#E0403E"/>
		<stop  offset="1" style="stop-color:#D32F2F"/>
	</linearGradient>
	<path class="st20" d="M218.5,625.8c-6.3,2.7-5.4-9.8-1-13.1c12.6-9.8,43.3-21.2,61-28.3c3.7-1.5,7.2,2.3,5.6,5.9
		c-9.7,21.9-38.1,85.6-55.8,142c-0.9,2.9-6.9,3.1-7.2,0c-1.6-16.5,9.9-61.9,34.2-115.1c0.9-1.9-1-3.9-3.1-3.5
		C245.2,615.3,234.2,619.2,218.5,625.8z"/>
	
		<linearGradient id="SVGID_18_" gradientUnits="userSpaceOnUse" x1="351.8388" y1="1603.0822" x2="351.8388" y2="1768.9281" gradientTransform="matrix(1 0 0 1 0 -974)">
		<stop  offset="0" style="stop-color:#EF5350"/>
		<stop  offset="0.5777" style="stop-color:#E0403E"/>
		<stop  offset="1" style="stop-color:#D32F2F"/>
	</linearGradient>
	<path class="st21" d="M407.1,592.4c-0.3-0.1-2.5-0.7-3.3-0.7c-53.7-1.9-75.5,15.2-76.4,15.9c-3.1,2.5-3.6,7-1.1,10.1
		c2,2.5,4,2.8,5.1,2.7c0.4,0,0.8,0.3,1,0.7c2.2,8.8,2.6,21.4-1.3,36.1c-6.8,25.5-21.6,39.6-29.2,39.6c-0.4,0-0.8-0.1-1.2-0.2
		c-3.1-0.8-6.3-5.8-8.1-12.5c-2.7-10.2-2.3-23.6,1.2-36.8c4.7-17.9,13.5-30.1,20.9-35.8c3.4-2.6,6.1-6,8.1-9.8v-0.1
		c0.9-1.7,5.1-9.8,0.2-9.9c-17.6,0-36.8,21.5-44.8,51.5c-8.8,33.1-0.6,64,18.3,69c1.8,0.5,3.5,0.7,5.4,0.7
		c17.6,0,36.8-21.5,44.8-51.5c4.4-16.7,4.5-32.8,1.1-45.3c-0.4-1.5,0.4-3,1.9-3.5c5.4-1.8,12.4-3.7,21.5-5c1.4-0.2,2.4,1.4,1.5,2.5
		c-6.6,8.7-12.2,20.1-15.6,33.1c-8.8,33.1-0.6,64,18.3,69c1.8,0.5,3.5,0.7,5.4,0.7c17.6,0,36.8-21.5,44.8-51.5
		C434.2,628.4,426,597.4,407.1,592.4z M409.8,657.3c-6.8,25.5-21.6,39.6-29.2,39.6c-0.4,0-0.8-0.1-1.2-0.2
		c-3.1-0.8-6.3-5.8-8.1-12.5c-2.7-10.2-2.3-23.6,1.2-36.8c6.8-25.5,21.6-39.6,29.2-39.6c0.4,0,0.8,0.1,1.2,0.2
		C409.5,609.7,417.2,629.8,409.8,657.3z"/>
	<g class="st16">
		<path class="st17" d="M361.4,725.8c-36,7.7-82.3,18.3-98.6,24.7c-0.2,0.1-0.4,0.1-0.7,0.1c-0.5,0-1.2-0.3-1.6-1l-1.7-3.4
			c-0.3-0.7-0.2-1.2,0-1.5c0.1-0.3,0.4-0.8,1.1-1c1.1-0.3,2.2-0.6,3.4-1C280.9,737.6,315.7,727.5,361.4,725.8 M374.7,720.1
			c-56.5,0-98.9,13.4-116.3,18.4c-4.3,1.2-6.4,6.1-4.4,10.1c0.6,1.1,1.1,2.3,1.7,3.4c1.3,2.5,3.8,4,6.4,4c0.9,0,1.8-0.2,2.6-0.5
			c21.7-8.5,99.3-24.9,130-31.2c2.1-0.4,1.8-3.4-0.3-3.5C387.7,720.3,381.2,720.1,374.7,720.1L374.7,720.1z"/>
		<path class="st17" d="M364.1,753.3c-52.7,12.6-119.7,29.9-140.6,40.1c-0.2,0.1-0.5,0.2-0.7,0.2c-0.6,0-1.4-0.4-1.7-1.3l-1.4-4.3
			c-0.3-0.9-0.3-1.7,0-2.3c0.2-0.4,0.5-0.6,1-0.7l1.1-0.3C266.6,773.5,320.4,761,364.1,753.3 M426,740.7
			c-50.4,0-176.4,31.6-206.7,39.1c-4,1-6.4,5.2-4.8,10l1.4,4.3c1,3,3.9,4.9,6.8,4.9c1,0,2.1-0.2,3.1-0.7
			c30.4-14.9,163.2-45.7,201.7-54c2.1-0.4,1.8-3.5-0.4-3.5C426.8,740.7,426.4,740.7,426,740.7z"/>
		<path class="st17" d="M278.3,590.2l-0.1,0.2c-9.5,21.5-33.6,75.8-50.7,127.1c3-19.5,12.6-53.9,32.8-98.1c1.1-2.4,0.9-5.2-0.5-7.4
			c-1.5-2.3-4.1-3.7-6.8-3.7c-0.6,0-1.2,0.1-1.8,0.2c-7.3,1.7-17.9,5.4-31.5,11.1c0.3-1.1,0.7-2.2,1.1-2.6
			c10.5-8.2,36.1-18.3,53.1-25C275.4,591.3,276.8,590.8,278.3,590.2 M280.1,584c-0.5,0-1.1,0.1-1.6,0.3c-17.8,7.1-48.5,18.6-61,28.3
			c-3.9,3-5,13.5-0.6,13.5c0.5,0,1-0.1,1.6-0.4c15.7-6.6,26.7-10.4,33.8-12.1c0.2-0.1,0.4-0.1,0.6-0.1c1.8,0,3.3,1.8,2.5,3.5
			c-24.4,53.1-35.8,98.6-34.2,115.1c0.1,1.5,1.7,2.2,3.3,2.2c1.7,0,3.4-0.8,3.9-2.2c17.7-56.4,46.1-120.1,55.8-142
			C285.5,587.2,283.1,584,280.1,584z"/>
		<path class="st17" d="M395.7,597c2.5,0,5.2,0.1,7.8,0.1c0.2,0,0.9,0.2,2.2,0.5c15.7,4.2,22.4,32.8,14.5,62.5
			c-7.1,26.6-24.5,47.5-39.6,47.5c-1.4,0-2.7-0.2-4-0.5c-7.2-1.9-12.8-9.1-15.7-20.2c-3.2-12.1-2.8-27.2,1.2-42.3
			c3.2-11.9,8.3-22.7,14.7-31.3c1.6-2.1,1.9-4.9,0.7-7.3c-1.2-2.4-3.6-3.9-6.3-3.9c-0.3,0-0.7,0-1,0.1c-8.2,1.2-15.8,2.9-22.5,5.2
			c-4.1,1.4-6.4,5.8-5.3,10c3.3,12.2,2.9,27.3-1.1,42.6c-7.1,26.7-24.5,47.5-39.6,47.5c-1.4,0-2.7-0.2-4-0.5
			c-7.2-1.9-12.8-9.1-15.7-20.2c-3.2-12.1-2.8-27.2,1.2-42.3c6.4-24.2,21.4-43.7,35.4-47c-0.2,0.5-0.5,1-0.8,1.6c-1.7,3.2-4,6-6.6,8
			c-9.9,7.6-18.4,22.1-22.8,38.7c-3.7,14-4.2,28.4-1.2,39.5c1.1,4.3,4.6,14.4,11.9,16.4c0.8,0.2,1.7,0.3,2.6,0.3
			c14.1,0,28.9-22.6,34.4-43.5c3.7-13.9,4.2-27.6,1.4-38.8c-0.7-2.8-3.2-4.8-6.1-4.8h-0.1c-0.1-0.1-0.4-0.2-0.8-0.7s-0.4-1-0.4-1.3
			s0.2-0.8,0.7-1.2C331,611.7,349.8,597,395.7,597 M380.6,702.2c14.1,0,28.9-22.6,34.4-43.5c3.4-12.9,4.1-26,1.8-36.8
			c-2.2-10.6-6.8-17.6-12.5-19.1c-0.8-0.2-1.7-0.3-2.6-0.3c-14.1,0-28.9,22.6-34.4,43.5c-3.7,14-4.2,28.4-1.2,39.5
			c1.1,4.3,4.6,14.4,11.9,16.4C378.9,702.1,379.7,702.2,380.6,702.2 M395.7,591.6c-47.8,0-67.5,15.4-68.3,16.1
			c-3.1,2.5-3.6,7-1.1,10.1c1.9,2.3,3.9,2.7,4.9,2.7h0.1l0,0c0.4,0,0.8,0.3,0.9,0.7c2.2,8.8,2.6,21.4-1.3,36.1
			c-6.8,25.5-21.6,39.6-29.2,39.6c-0.4,0-0.8-0.1-1.2-0.2c-3.1-0.8-6.3-5.8-8.1-12.5c-2.7-10.2-2.3-23.6,1.2-36.8
			c4.7-17.9,13.5-30.1,20.9-35.8c3.4-2.6,6.1-6,8.1-9.8v-0.1c0.9-1.7,5.1-9.8,0.2-9.9c-17.6,0-36.8,21.5-44.8,51.5
			c-8.8,33.1-0.6,64,18.3,69c1.8,0.5,3.5,0.7,5.4,0.7c17.6,0,36.8-21.5,44.8-51.5c4.4-16.7,4.5-32.8,1.1-45.3
			c-0.4-1.5,0.4-3,1.9-3.5c5.4-1.8,12.4-3.7,21.5-5c0.1,0,0.2,0,0.2,0c1.3,0,2.1,1.5,1.3,2.6c-6.6,8.7-12.2,20.1-15.6,33.1
			c-8.8,33.1-0.6,64,18.3,69c1.8,0.5,3.5,0.7,5.4,0.7c17.6,0,36.8-21.5,44.8-51.5c8.8-33.1,0.6-64-18.3-69c-0.3-0.1-2.5-0.7-3.3-0.7
			C401,591.6,398.3,591.6,395.7,591.6z M380.6,696.9c-0.4,0-0.8-0.1-1.2-0.2c-3.1-0.8-6.3-5.8-8.1-12.5c-2.7-10.2-2.3-23.6,1.2-36.8
			c6.8-25.5,21.6-39.6,29.2-39.6c0.4,0,0.8,0.1,1.2,0.2c6.6,1.8,14.2,21.8,6.9,49.3C403.1,682.8,388.3,696.9,380.6,696.9z"/>
	</g>
</g>
</svg>
