<?xml version="1.0" encoding="utf-8"?>
<!-- Generator: Adobe Illustrator 23.0.1, SVG Export Plug-In . SVG Version: 6.00 Build 0)  -->
<svg version="1.1" id="Layer_1" xmlns="http://www.w3.org/2000/svg" xmlns:xlink="http://www.w3.org/1999/xlink" x="0px" y="0px"
	 viewBox="0 0 1024 1024" style="enable-background:new 0 0 1024 1024;" xml:space="preserve">
<style type="text/css">
	.st0{fill:url(#path11_1_);}
	.st1{fill:#FF1F48;}
	.st2{fill:#FFC70E;}
	.st3{fill:#00F94A;}
	.st4{fill:url(#SVGID_1_);}
	.st5{fill:#0686FF;}
	.st6{fill:#FFFFFF;}
</style>
<g id="orca" inkscape:version="0.92.3 (2405546, 2018-03-11)" sodipodi:docname="orca.svg" xmlns:cc="http://creativecommons.org/ns#" xmlns:dc="http://purl.org/dc/elements/1.1/" xmlns:inkscape="http://www.inkscape.org/namespaces/inkscape" xmlns:rdf="http://www.w3.org/1999/02/22-rdf-syntax-ns#" xmlns:sodipodi="http://sodipodi.sourceforge.net/DTD/sodipodi-0.dtd" xmlns:svg="http://www.w3.org/2000/svg">
	
		<linearGradient id="path11_1_" gradientUnits="userSpaceOnUse" x1="512" y1="895.4694" x2="512" y2="85.4868" gradientTransform="matrix(1 0 0 -1 0 1021.8898)">
		<stop  offset="0" style="stop-color:#F4F4F4"/>
		<stop  offset="0.541" style="stop-color:#F2F2F2;stop-opacity:0.459"/>
		<stop  offset="0.7358" style="stop-color:#EBEBEB;stop-opacity:0.2642"/>
		<stop  offset="0.8743" style="stop-color:#DFDFDF;stop-opacity:0.1257"/>
		<stop  offset="0.9858" style="stop-color:#CFCFCF;stop-opacity:1.415163e-02"/>
		<stop  offset="1" style="stop-color:#CCCCCC;stop-opacity:0"/>
	</linearGradient>
	<path id="path11" inkscape:connector-curvature="0" class="st0" d="M909.3,933l-797.6-2.9c-26.9-0.1-48.6-22-48.5-48.9l2.6-740.6
		c0.1-26.9,22-48.6,48.9-48.5L912.3,95c26.9,0.1,48.6,22,48.5,48.9l-2.7,740.6C958.1,911.3,936.2,933,909.3,933z"/>
	
		<ellipse transform="matrix(7.088901e-02 -0.9975 0.9975 7.088901e-02 -32.5272 310.4791)" class="st1" cx="150.4" cy="172.7" rx="42.6" ry="42.6"/>
	<circle class="st2" cx="261" cy="172.7" r="42.6"/>
	<circle class="st3" cx="371.5" cy="172.7" r="42.6"/>
</g>
<g>
	
		<linearGradient id="SVGID_1_" gradientUnits="userSpaceOnUse" x1="576.4273" y1="725.4768" x2="463.7472" y2="193.0078" gradientTransform="matrix(1 0 0 -1 0 1021.8898)">
		<stop  offset="0" style="stop-color:#CCCCCC;stop-opacity:0"/>
		<stop  offset="0.4383" style="stop-color:#0086FF"/>
		<stop  offset="1" style="stop-color:#CCCCCC;stop-opacity:0"/>
	</linearGradient>
	<path class="st4" d="M958.4,414.1v-71.2v-3v-74.2h-74.3h-3H810h-3.2h-71.1h-3h-70.9h-3.4h-70.9h-3h-71.3h-3h-71.3h-3H365h-3.2
		h-71.1h-3h-70.9h-3.4h-70.9h-3H65.3v74.2v3v71.2v3v71.2v3v71.2v3v71.2v3v71.2v3v74.2h0.1v71.2v3v74.2h74.3h3h70.9h3.4h70.9h3H362
		h3.2h71.1h3h71.3h3h71.3h3h70.9h3.4H733h3h71h3.2h71.1h3h74.3v-74.2v-3v-71.2v-3v-71.2v-3v-71.2v-3v-71.2v-3v-71.2v-3v-74.2
		L958.4,414.1L958.4,414.1z M884.3,714.1h71.1v71.2h-71.1V714.1z M884.3,711.1v-71.2h71.1v71.2H884.3z M884.3,636.8v-71.2h71.1v71.2
		H884.3z M884.3,562.6v-71.2h71.1v71.2H884.3z M955.4,417.1v71.2h-71.1v-71.2L955.4,417.1L955.4,417.1z M884.2,268.7h71.2v71.2
		h-71.2V268.7z M884.2,342.9h71.2v71.2h-71.2h-0.1L884.2,342.9L884.2,342.9z M810.3,714.1h70.9v71.2h-70.9V714.1z M810.3,711.1
		v-71.2h70.9v71.2H810.3z M810.3,636.8v-71.2h70.9v71.2H810.3z M810.3,562.6v-71.2h70.9v71.2H810.3z M881.1,417.1v71.2h-70.9v-71.2
		L881.1,417.1L881.1,417.1z M810.1,268.7h71v71.2h-71V268.7z M810.1,342.9h71v71.2h-70.9h-0.1V342.9z M736,714.1h70.9v71.2H736
		V714.1z M736,711.1v-71.2h70.9v71.2H736z M736,636.8v-71.2h70.9v71.2H736z M736,562.6v-71.2h70.9v71.2H736z M806.9,417.1v71.2H736
		v-71.2L806.9,417.1L806.9,417.1z M735.9,268.7h71v71.2h-71V268.7z M735.9,342.9h71v71.2H736h-0.1V342.9z M662.1,714.1h70.7v71.2
		h-70.7V714.1z M662.1,711.1v-71.2h70.7v71.2H662.1z M662.1,636.8v-71.2h70.7v71.2H662.1z M662.1,562.6v-71.2h70.7v71.2H662.1z
		 M732.8,417.1v71.2h-70.7v-71.2L732.8,417.1L732.8,417.1z M661.9,268.7h70.9v71.2h-70.9V268.7z M661.9,342.9h70.9v71.2h-70.7H662
		v-71.2H661.9z M587.8,714.1h70.7v71.2h-70.7V714.1z M587.8,711.1v-71.2h70.7v71.2H587.8z M587.8,636.8v-71.2h70.7v71.2H587.8z
		 M587.8,562.6v-71.2h70.7v71.2H587.8z M658.5,417.1v71.2h-70.7v-71.2L658.5,417.1L658.5,417.1z M587.7,268.7h70.9v71.2h-70.9V268.7
		z M587.7,342.9h70.9v71.2h-70.8h-0.1L587.7,342.9L587.7,342.9z M513.5,714.1h71.1v71.2h-71.1V714.1z M513.5,711.1v-71.2h71.1v71.2
		H513.5z M513.5,636.8v-71.2h71.1v71.2H513.5z M513.5,562.6v-71.2h71.1v71.2H513.5z M584.6,417.1v71.2h-71.1v-71.2L584.6,417.1
		L584.6,417.1z M513.4,268.7h71.2v71.2h-71.2V268.7z M513.4,342.9h71.2v71.2h-71.1h-0.1L513.4,342.9L513.4,342.9z M439.3,714.1h71.1
		v71.2h-71.1V714.1z M439.3,711.1v-71.2h71.1v71.2H439.3z M439.3,636.8v-71.2h71.1v71.2H439.3z M439.3,562.6v-71.2h71.1v71.2H439.3z
		 M510.4,417.1v71.2h-71.1v-71.2L510.4,417.1L510.4,417.1z M439.1,268.7h71.2v71.2h-71.2L439.1,268.7L439.1,268.7z M439.1,342.9
		h71.2v71.2h-71.2H439v-71.2H439.1z M365.2,714.1H436v71.2h-70.9v-71.2H365.2z M365.2,711.1v-71.2H436v71.2H365.2z M365.2,636.8
		v-71.2H436v71.2H365.2z M365.2,562.6v-71.2H436v71.2H365.2z M436,417.1v71.2h-70.9v-71.2L436,417.1L436,417.1z M365,268.7h71v71.2
		h-71V268.7z M365,342.9h71v71.2h-70.9H365V342.9z M290.9,714.1h70.9v71.2h-70.9V714.1z M290.9,711.1v-71.2h70.9v71.2H290.9z
		 M290.9,636.8v-71.2h70.9v71.2H290.9z M290.9,562.6v-71.2h70.9v71.2H290.9z M361.8,417.1v71.2h-70.9v-71.2L361.8,417.1L361.8,417.1
		z M290.8,268.7h71v71.2h-71V268.7z M290.8,342.9h71v71.2h-70.9h-0.1V342.9z M217,714.1h70.7v71.2H217V714.1z M217,711.1v-71.2h70.7
		v71.2H217z M217,636.8v-71.2h70.7v71.2H217z M217,562.6v-71.2h70.7v71.2H217z M287.7,417.1v71.2H217v-71.2L287.7,417.1L287.7,417.1
		z M216.8,268.7h70.9v71.2h-70.9L216.8,268.7L216.8,268.7z M216.8,342.9h70.9v71.2H217h-0.1L216.8,342.9L216.8,342.9z M142.7,714.1
		h70.7v71.2h-70.7V714.1z M142.7,711.1v-71.2h70.7v71.2H142.7z M142.7,636.8v-71.2h70.7v71.2H142.7z M142.7,562.6v-71.2h70.7v71.2
		H142.7z M213.5,417.1v71.2h-70.7v-71.2L213.5,417.1L213.5,417.1z M142.6,268.7h70.9v71.2h-70.9V268.7z M142.6,342.9h70.9v71.2
		h-70.8h-0.1L142.6,342.9L142.6,342.9z M68.4,714.1h71.1v71.2H68.4V714.1z M68.4,711.1v-71.2h71.1v71.2H68.4z M68.4,636.8v-71.2
		h71.1v71.2H68.4z M68.4,562.6v-71.2h71.1v71.2H68.4z M139.5,417.1v71.2H68.4v-71.2L139.5,417.1L139.5,417.1z M68.3,268.7h71.2v71.2
		H68.3V268.7z M68.3,342.9h71.2v71.2H68.3V342.9z M139.7,933.8H68.4v-71.2h71.2L139.7,933.8L139.7,933.8z M68.4,859.6v-71.2h71.2
		h0.1v71.2H68.4z M213.6,933.8h-70.9v-71.2h70.9V933.8z M142.7,859.6v-71.2h70.7h0.1v71.2H142.7z M287.9,933.8H217v-71.2h70.9V933.8
		z M217,859.6v-71.2h70.8h0.1v71.2H217z M361.9,933.8h-71v-71.2h71V933.8z M290.9,859.6v-71.2h70.9h0.1v71.2H290.9z M436.2,933.8
		h-71v-71.2h71V933.8z M365.2,859.6v-71.2h70.9h0.1v71.2H365.2z M510.5,933.8h-71.2v-71.2h71.2V933.8z M439.3,859.6v-71.2h71.1h0.1
		v71.2H439.3z M584.7,933.8h-71.2v-71.2h71.2V933.8z M513.5,859.6v-71.2h71.2h0.1v71.2H513.5z M658.7,933.8h-70.9v-71.2h70.9V933.8z
		 M587.8,859.6v-71.2h70.7h0.1v71.2H587.8z M732.9,933.8H662v-71.2h70.9V933.8z M662.1,859.6v-71.2h70.8h0.1v71.2H662.1z M807,933.8
		h-71v-71.2h71V933.8z M736,859.6v-71.2h70.9h0.1v71.2H736z M881.3,933.8h-71v-71.2h71V933.8z M810.3,859.6v-71.2h70.9h0.1v71.2
		H810.3z M955.6,933.8h-71.2v-71.2h71.2V933.8z M884.3,859.6v-71.2h71.2v71.2H884.3z"/>
</g>
<path class="st5" d="M693.8,611.7L530.1,386.1c-9.4-13-28.9-13-38.3,0L328,611.7c-11.3,15.6-0.1,37.4,19.2,37.3l163.7-0.3l163.7,0.3
	C693.9,649,705.1,627.2,693.8,611.7z M559.9,536.3l-69,84.6c-2,2.5-6,0.4-5.1-2.7l16.1-56.5c0.5-1.9-0.9-3.8-2.8-3.8h-35
	c-2.5,0-3.9-2.9-2.3-4.8l67.1-85c2-2.5,6-0.5,5.2,2.6l-14.3,57.1c-0.5,1.9,0.9,3.7,2.9,3.7h35C560.1,531.4,561.4,534.3,559.9,536.3z
	"/>
<path class="st6" d="M560,536.3l-69,84.6c-2,2.5-6,0.4-5.1-2.7l16.1-56.5c0.5-1.9-0.9-3.8-2.8-3.8h-35c-2.5,0-3.9-2.9-2.3-4.8
	l67.1-85c2-2.5,6-0.5,5.2,2.6l-14.3,57.1c-0.5,1.9,0.9,3.7,2.9,3.7h35C560.2,531.4,561.6,534.3,560,536.3z"/>
</svg>
