<?xml version="1.0" encoding="utf-8"?>
<!-- Generator: Adobe Illustrator 22.1.0, SVG Export Plug-In . SVG Version: 6.00 Build 0)  -->
<!-- Artist: @KevDoy for Trenta.io -->
<!-- Vector Conversion by @Genghis-Khanr -->
<svg version="1.1" id="jockey" xmlns="http://www.w3.org/2000/svg" xmlns:xlink="http://www.w3.org/1999/xlink" x="0px" y="0px"
	 viewBox="0 0 1024 1024" style="enable-background:new 0 0 1024 1024;" xml:space="preserve">
<style type="text/css">
	.st0{fill:#007D5A;}
	.st1{fill:#073C34;}
	.st2{fill:url(#SVGID_1_);}
	.st3{fill:url(#SVGID_2_);}
	.st4{fill:#FFF293;}
	.st5{fill:url(#SVGID_3_);}
</style>
<g>
	<g>
		<path class="st0" d="M871.7,314.7c0-8.9,6.1-16.3,14.3-18.5V107H138.1v189.2c8.2,2.1,14.3,9.6,14.3,18.5s-6.1,16.3-14.3,18.5V905
			h747.9V333.2C877.7,331,871.7,323.6,871.7,314.7z"/>
	</g>
	<g>
		<path class="st1" d="M863.4,314.7c0-10.3,5.7-19.3,14.1-24V116h-731v174.7c8.4,4.7,14.1,13.6,14.1,24c0,10.3-5.7,19.3-14.1,24V896
			h731V338.7C869.1,334,863.4,325,863.4,314.7z"/>
	</g>
	<g>
		<linearGradient id="SVGID_1_" gradientUnits="userSpaceOnUse" x1="193.9364" y1="836.4471" x2="826.7696" y2="168.1151">
			<stop  offset="0" style="stop-color:#8B8B8B"/>
			<stop  offset="5.000000e-02" style="stop-color:#ACADAD"/>
			<stop  offset="0.95" style="stop-color:#C2C4C3"/>
			<stop  offset="0.9632" style="stop-color:#B9BAB9"/>
			<stop  offset="0.9855" style="stop-color:#9FA09F"/>
			<stop  offset="1" style="stop-color:#8B8B8B"/>
		</linearGradient>
		<path class="st2" d="M751.7,154.3H272.3c-46.9,0-85,38.1-85,85v522.4c0,46.9,38.1,85,85,85h479.3c46.9,0,85-38.1,85-85V239.3
			C836.7,192.4,798.6,154.3,751.7,154.3z"/>
	</g>
	<g>
		<linearGradient id="SVGID_2_" gradientUnits="userSpaceOnUse" x1="217.0012" y1="173.098" x2="808.0012" y2="829.098">
			<stop  offset="0" style="stop-color:#E0E1E0"/>
			<stop  offset="5.000000e-02" style="stop-color:#ACADAD;stop-opacity:0"/>
			<stop  offset="0.9444" style="stop-color:#C2C4C3;stop-opacity:0"/>
			<stop  offset="1" style="stop-color:#E0E1E0"/>
		</linearGradient>
		<path class="st3" d="M751.7,154.3H272.3c-46.9,0-85,38.1-85,85v522.4c0,46.9,38.1,85,85,85h479.3c46.9,0,85-38.1,85-85V239.3
			C836.7,192.4,798.6,154.3,751.7,154.3z"/>
	</g>
	<g>
		<circle class="st4" cx="213.2" cy="130" r="6"/>
	</g>
	<g>
		<circle class="st4" cx="167.2" cy="139" r="10.3"/>
	</g>
	<g>
		<circle class="st4" cx="220.9" cy="118.6" r="6"/>
	</g>
	<g>
		<circle class="st4" cx="227.3" cy="130" r="6"/>
	</g>
	<g>
		<circle class="st4" cx="235.1" cy="118.6" r="6"/>
	</g>
	<g>
		<circle class="st4" cx="491.8" cy="130" r="6"/>
	</g>
	<g>
		<circle class="st4" cx="499.5" cy="118.6" r="6"/>
	</g>
	<g>
		<circle class="st4" cx="505.9" cy="130" r="6"/>
	</g>
	<g>
		<circle class="st4" cx="513.6" cy="118.6" r="6"/>
	</g>
	<g>
		<circle class="st4" cx="592.8" cy="130" r="6"/>
	</g>
	<g>
		<circle class="st4" cx="600.5" cy="118.6" r="6"/>
	</g>
	<g>
		<circle class="st4" cx="606.9" cy="130" r="6"/>
	</g>
	<g>
		<circle class="st4" cx="614.6" cy="118.6" r="6"/>
	</g>
	<g>
		<circle class="st4" cx="676.1" cy="130" r="6"/>
	</g>
	<g>
		<circle class="st4" cx="683.8" cy="118.6" r="6"/>
	</g>
	<g>
		<circle class="st4" cx="690.2" cy="130" r="6"/>
	</g>
	<g>
		<circle class="st4" cx="698" cy="118.6" r="6"/>
	</g>
	<g>
		<circle class="st4" cx="743.5" cy="130" r="6"/>
	</g>
	<g>
		<circle class="st4" cx="751.1" cy="118.6" r="6"/>
	</g>
	<g>
		<circle class="st4" cx="757.5" cy="130" r="6"/>
	</g>
	<g>
		<circle class="st4" cx="765.3" cy="118.6" r="6"/>
	</g>
	<g>
		<circle class="st4" cx="808.4" cy="130" r="6"/>
	</g>
	<g>
		<circle class="st4" cx="816.1" cy="118.6" r="6"/>
	</g>
	<g>
		<circle class="st4" cx="822.5" cy="130" r="6"/>
	</g>
	<g>
		<circle class="st4" cx="830.3" cy="118.6" r="6"/>
	</g>
	<g>
		<circle class="st4" cx="866.1" cy="190.1" r="6"/>
	</g>
	<g>
		<circle class="st4" cx="877.5" cy="182.9" r="6"/>
	</g>
	<g>
		<circle class="st4" cx="866.1" cy="203.3" r="6"/>
	</g>
	<g>
		<circle class="st4" cx="877.5" cy="197" r="6"/>
	</g>
	<g>
		<circle class="st4" cx="866.1" cy="176" r="6"/>
	</g>
	<g>
		<circle class="st4" cx="877.5" cy="169.7" r="6"/>
	</g>
	<g>
		<circle class="st4" cx="873.5" cy="120.3" r="6"/>
	</g>
	<g>
		<circle class="st4" cx="402.8" cy="882.4" r="5.5"/>
	</g>
	<g>
		<circle class="st4" cx="408.3" cy="893.2" r="5.5"/>
	</g>
	<g>
		<circle class="st4" cx="421.9" cy="893.2" r="5.5"/>
	</g>
	<g>
		<circle class="st4" cx="435.3" cy="893.2" r="5.5"/>
	</g>
	<g>
		<circle class="st4" cx="448.6" cy="893.2" r="5.5"/>
	</g>
	<g>
		<circle class="st4" cx="462.2" cy="893.2" r="5.5"/>
	</g>
	<g>
		<circle class="st4" cx="475.3" cy="893.2" r="5.5"/>
	</g>
	<g>
		<circle class="st4" cx="488.5" cy="893.2" r="5.5"/>
	</g>
	<g>
		<circle class="st4" cx="501.6" cy="893.2" r="5.5"/>
	</g>
	<g>
		<circle class="st4" cx="514.7" cy="893.2" r="5.5"/>
	</g>
	<g>
		<circle class="st4" cx="527.9" cy="893.2" r="5.5"/>
	</g>
	<g>
		<circle class="st4" cx="541.2" cy="893.2" r="5.5"/>
	</g>
	<g>
		<circle class="st4" cx="554.4" cy="893.2" r="5.5"/>
	</g>
	<g>
		<circle class="st4" cx="567.5" cy="893.2" r="5.5"/>
	</g>
	<g>
		<circle class="st4" cx="580.9" cy="893.2" r="5.5"/>
	</g>
	<g>
		<circle class="st4" cx="594.3" cy="893.2" r="5.5"/>
	</g>
	<g>
		<circle class="st4" cx="607.5" cy="893.2" r="5.5"/>
	</g>
	<g>
		<circle class="st4" cx="621.2" cy="893.2" r="5.5"/>
	</g>
	<g>
		<circle class="st4" cx="634.4" cy="893.2" r="5.5"/>
	</g>
	<g>
		<circle class="st4" cx="647.3" cy="893.2" r="5.5"/>
	</g>
	<g>
		<circle class="st4" cx="660.9" cy="893.2" r="5.5"/>
	</g>
	<g>
		<circle class="st4" cx="674.3" cy="893.2" r="5.5"/>
	</g>
	<g>
		<circle class="st4" cx="686.8" cy="893.2" r="5.5"/>
	</g>
	<g>
		<circle class="st4" cx="701" cy="893.2" r="5.5"/>
	</g>
	<g>
		<circle class="st4" cx="713.7" cy="893.2" r="5.5"/>
	</g>
	<g>
		<circle class="st4" cx="726.8" cy="893.2" r="5.5"/>
	</g>
	<g>
		<circle class="st4" cx="740.7" cy="893.2" r="5.5"/>
	</g>
	<g>
		<circle class="st4" cx="753.6" cy="893.2" r="5.5"/>
	</g>
	<g>
		<circle class="st4" cx="766.7" cy="893.2" r="5.5"/>
	</g>
	<g>
		<circle class="st4" cx="780.6" cy="893.2" r="5.5"/>
	</g>
	<g>
		<circle class="st4" cx="793.5" cy="893.2" r="5.5"/>
	</g>
	<g>
		<circle class="st4" cx="806.3" cy="893.2" r="5.5"/>
	</g>
	<g>
		<circle class="st4" cx="820.3" cy="893.2" r="5.5"/>
	</g>
	<g>
		<circle class="st4" cx="833.3" cy="893.2" r="5.5"/>
	</g>
	<g>
		<circle class="st4" cx="415.5" cy="882.4" r="5.5"/>
	</g>
	<g>
		<circle class="st4" cx="428.7" cy="882.4" r="5.5"/>
	</g>
	<g>
		<circle class="st4" cx="197.1" cy="882.4" r="5.5"/>
	</g>
	<g>
		<circle class="st4" cx="202.6" cy="893.2" r="5.5"/>
	</g>
	<g>
		<circle class="st4" cx="216.2" cy="893.2" r="5.5"/>
	</g>
	<g>
		<circle class="st4" cx="229.6" cy="893.2" r="5.5"/>
	</g>
	<g>
		<circle class="st4" cx="209.9" cy="882.4" r="5.5"/>
	</g>
	<g>
		<circle class="st4" cx="223" cy="882.4" r="5.5"/>
	</g>
	<g>
		<circle class="st4" cx="148.6" cy="811.6" r="5.5"/>
	</g>
	<g>
		<circle class="st4" cx="159.5" cy="817.1" r="5.5"/>
	</g>
	<g>
		<circle class="st4" cx="159.5" cy="830.7" r="5.5"/>
	</g>
	<g>
		<circle class="st4" cx="159.5" cy="844.1" r="5.5"/>
	</g>
	<g>
		<circle class="st4" cx="148.6" cy="824.3" r="5.5"/>
	</g>
	<g>
		<circle class="st4" cx="148.6" cy="837.4" r="5.5"/>
	</g>
	<g>
		<circle class="st4" cx="442.7" cy="882.4" r="5.5"/>
	</g>
	<g>
		<circle class="st4" cx="455.5" cy="882.4" r="5.5"/>
	</g>
	<g>
		<circle class="st4" cx="468.4" cy="882.4" r="5.5"/>
	</g>
	<g>
		<circle class="st4" cx="482.2" cy="882.4" r="5.5"/>
	</g>
	<g>
		<circle class="st4" cx="495.1" cy="882.4" r="5.5"/>
	</g>
	<g>
		<circle class="st4" cx="508" cy="882.4" r="5.5"/>
	</g>
	<g>
		<circle class="st4" cx="521.9" cy="882.4" r="5.5"/>
	</g>
	<g>
		<circle class="st4" cx="535" cy="882.4" r="5.5"/>
	</g>
	<g>
		<circle class="st4" cx="548.2" cy="882.4" r="5.5"/>
	</g>
	<g>
		<circle class="st4" cx="561.8" cy="882.4" r="5.5"/>
	</g>
	<g>
		<circle class="st4" cx="574.8" cy="882.4" r="5.5"/>
	</g>
	<g>
		<circle class="st4" cx="588" cy="882.4" r="5.5"/>
	</g>
	<g>
		<circle class="st4" cx="601.4" cy="882.4" r="5.5"/>
	</g>
	<g>
		<circle class="st4" cx="614.7" cy="882.4" r="5.5"/>
	</g>
	<g>
		<circle class="st4" cx="627.7" cy="882.4" r="5.5"/>
	</g>
	<g>
		<circle class="st4" cx="641.3" cy="882.4" r="5.5"/>
	</g>
	<g>
		<circle class="st4" cx="654.2" cy="882.4" r="5.5"/>
	</g>
	<g>
		<circle class="st4" cx="667.5" cy="882.4" r="5.5"/>
	</g>
	<g>
		<circle class="st4" cx="681.2" cy="882.4" r="5.5"/>
	</g>
	<g>
		<circle class="st4" cx="694.4" cy="882.4" r="5.5"/>
	</g>
	<g>
		<circle class="st4" cx="707.3" cy="882.4" r="5.5"/>
	</g>
	<g>
		<circle class="st4" cx="721.2" cy="882.4" r="5.5"/>
	</g>
	<g>
		<circle class="st4" cx="734" cy="882.4" r="5.5"/>
	</g>
	<g>
		<circle class="st4" cx="747.1" cy="882.4" r="5.5"/>
	</g>
	<g>
		<circle class="st4" cx="761.2" cy="882.4" r="5.5"/>
	</g>
	<g>
		<circle class="st4" cx="773.9" cy="882.4" r="5.5"/>
	</g>
	<g>
		<circle class="st4" cx="787" cy="882.4" r="5.5"/>
	</g>
	<g>
		<circle class="st4" cx="800.7" cy="882.4" r="5.5"/>
	</g>
	<g>
		<circle class="st4" cx="813.7" cy="882.4" r="5.5"/>
	</g>
	<g>
		<circle class="st4" cx="826.5" cy="882.4" r="5.5"/>
	</g>
	<g>
		<circle class="st4" cx="866.7" cy="417.1" r="5.5"/>
	</g>
	<g>
		<circle class="st4" cx="877.5" cy="422.6" r="5.5"/>
	</g>
	<g>
		<circle class="st4" cx="877.5" cy="436.2" r="5.5"/>
	</g>
	<g>
		<circle class="st4" cx="877.5" cy="449.5" r="5.5"/>
	</g>
	<g>
		<circle class="st4" cx="877.5" cy="462.8" r="5.5"/>
	</g>
	<g>
		<circle class="st4" cx="877.5" cy="476.5" r="5.5"/>
	</g>
	<g>
		<circle class="st4" cx="877.5" cy="489.6" r="5.5"/>
	</g>
	<g>
		<circle class="st4" cx="877.5" cy="502.7" r="5.5"/>
	</g>
	<g>
		<circle class="st4" cx="877.5" cy="515.9" r="5.5"/>
	</g>
	<g>
		<circle class="st4" cx="877.5" cy="529" r="5.5"/>
	</g>
	<g>
		<circle class="st4" cx="877.5" cy="542.1" r="5.5"/>
	</g>
	<g>
		<circle class="st4" cx="877.5" cy="555.5" r="5.5"/>
	</g>
	<g>
		<circle class="st4" cx="877.5" cy="568.7" r="5.5"/>
	</g>
	<g>
		<circle class="st4" cx="877.5" cy="581.8" r="5.5"/>
	</g>
	<g>
		<circle class="st4" cx="877.5" cy="595.2" r="5.5"/>
	</g>
	<g>
		<circle class="st4" cx="877.5" cy="608.6" r="5.5"/>
	</g>
	<g>
		<circle class="st4" cx="877.5" cy="621.8" r="5.5"/>
	</g>
	<g>
		<circle class="st4" cx="877.5" cy="635.4" r="5.5"/>
	</g>
	<g>
		<circle class="st4" cx="877.5" cy="648.7" r="5.5"/>
	</g>
	<g>
		<circle class="st4" cx="877.5" cy="661.6" r="5.5"/>
	</g>
	<g>
		<circle class="st4" cx="877.5" cy="675.2" r="5.5"/>
	</g>
	<g>
		<circle class="st4" cx="877.5" cy="688.6" r="5.5"/>
	</g>
	<g>
		<circle class="st4" cx="877.5" cy="701" r="5.5"/>
	</g>
	<g>
		<circle class="st4" cx="877.5" cy="715.3" r="5.5"/>
	</g>
	<g>
		<circle class="st4" cx="877.5" cy="728" r="5.5"/>
	</g>
	<g>
		<circle class="st4" cx="877.5" cy="741" r="5.5"/>
	</g>
	<g>
		<circle class="st4" cx="877.5" cy="755" r="5.5"/>
	</g>
	<g>
		<circle class="st4" cx="877.5" cy="767.8" r="5.5"/>
	</g>
	<g>
		<circle class="st4" cx="877.5" cy="781" r="5.5"/>
	</g>
	<g>
		<circle class="st4" cx="877.5" cy="794.8" r="5.5"/>
	</g>
	<g>
		<circle class="st4" cx="877.5" cy="807.7" r="5.5"/>
	</g>
	<g>
		<circle class="st4" cx="877.5" cy="820.5" r="5.5"/>
	</g>
	<g>
		<circle class="st4" cx="877.5" cy="834.5" r="5.5"/>
	</g>
	<g>
		<circle class="st4" cx="877.5" cy="847.6" r="5.5"/>
	</g>
	<g>
		<circle class="st4" cx="874.4" cy="887.9" r="5.5"/>
	</g>
	<g>
		<circle class="st4" cx="866.7" cy="429.8" r="5.5"/>
	</g>
	<g>
		<circle class="st4" cx="866.7" cy="442.9" r="5.5"/>
	</g>
	<g>
		<circle class="st4" cx="866.7" cy="456.9" r="5.5"/>
	</g>
	<g>
		<circle class="st4" cx="866.7" cy="469.8" r="5.5"/>
	</g>
	<g>
		<circle class="st4" cx="866.7" cy="482.7" r="5.5"/>
	</g>
	<g>
		<circle class="st4" cx="866.7" cy="496.5" r="5.5"/>
	</g>
	<g>
		<circle class="st4" cx="866.7" cy="509.4" r="5.5"/>
	</g>
	<g>
		<circle class="st4" cx="866.7" cy="522.2" r="5.5"/>
	</g>
	<g>
		<circle class="st4" cx="866.7" cy="536.1" r="5.5"/>
	</g>
	<g>
		<circle class="st4" cx="866.7" cy="549.3" r="5.5"/>
	</g>
	<g>
		<circle class="st4" cx="866.7" cy="562.5" r="5.5"/>
	</g>
	<g>
		<circle class="st4" cx="866.7" cy="576.1" r="5.5"/>
	</g>
	<g>
		<circle class="st4" cx="866.7" cy="589.1" r="5.5"/>
	</g>
	<g>
		<circle class="st4" cx="866.7" cy="602.2" r="5.5"/>
	</g>
	<g>
		<circle class="st4" cx="866.7" cy="615.6" r="5.5"/>
	</g>
	<g>
		<circle class="st4" cx="866.7" cy="629" r="5.5"/>
	</g>
	<g>
		<circle class="st4" cx="866.7" cy="641.9" r="5.5"/>
	</g>
	<g>
		<circle class="st4" cx="866.7" cy="655.6" r="5.5"/>
	</g>
	<g>
		<circle class="st4" cx="866.7" cy="668.4" r="5.5"/>
	</g>
	<g>
		<circle class="st4" cx="866.7" cy="681.8" r="5.5"/>
	</g>
	<g>
		<circle class="st4" cx="866.7" cy="695.5" r="5.5"/>
	</g>
	<g>
		<circle class="st4" cx="866.7" cy="708.7" r="5.5"/>
	</g>
	<g>
		<circle class="st4" cx="866.7" cy="721.6" r="5.5"/>
	</g>
	<g>
		<circle class="st4" cx="866.7" cy="735.5" r="5.5"/>
	</g>
	<g>
		<circle class="st4" cx="866.7" cy="748.3" r="5.5"/>
	</g>
	<g>
		<circle class="st4" cx="866.7" cy="761.3" r="5.5"/>
	</g>
	<g>
		<circle class="st4" cx="866.7" cy="775.4" r="5.5"/>
	</g>
	<g>
		<circle class="st4" cx="866.7" cy="788.2" r="5.5"/>
	</g>
	<g>
		<circle class="st4" cx="866.7" cy="801.3" r="5.5"/>
	</g>
	<g>
		<circle class="st4" cx="866.7" cy="815" r="5.5"/>
	</g>
	<g>
		<circle class="st4" cx="866.7" cy="828" r="5.5"/>
	</g>
	<g>
		<circle class="st4" cx="866.7" cy="840.8" r="5.5"/>
	</g>
	<g>
		<linearGradient id="SVGID_3_" gradientUnits="userSpaceOnUse" x1="222.6667" y1="500.5417" x2="813.5961" y2="500.5417">
			<stop  offset="0" style="stop-color:#E0E1E0"/>
			<stop  offset="0.5808" style="stop-color:#DEDFDE"/>
			<stop  offset="0.79" style="stop-color:#D8D9D7"/>
			<stop  offset="0.9386" style="stop-color:#CECDCC"/>
			<stop  offset="1" style="stop-color:#C7C6C4"/>
		</linearGradient>
		<path class="st5" d="M763.3,188.3H260.7c-21,0-38,17-38,38v548.4c0,21,17,38,38,38h502.7c21,0,38-17,38-38V226.3
			C801.3,205.3,784.3,188.3,763.3,188.3z"/>
	</g>
</g>
</svg>
