<?xml version="1.0" encoding="utf-8"?>
<!-- Generator: Adobe Illustrator 23.0.1, SVG Export Plug-In . SVG Version: 6.00 Build 0)  -->
<!-- Artist: @KevDoy for Trenta.io -->
<svg version="1.1" id="Layer_8" xmlns="http://www.w3.org/2000/svg" xmlns:xlink="http://www.w3.org/1999/xlink" x="0px" y="0px"
	 viewBox="0 0 1024 1024" style="enable-background:new 0 0 1024 1024;" xml:space="preserve">
<style type="text/css">
	.st0{display:none;}
	.st1{display:inline;fill:#FFFFFF;stroke:#000000;stroke-miterlimit:10;}
	.st2{fill:#BABABA;}
	.st3{fill:url(#SVGID_1_);}
	.st4{fill:url(#SVGID_2_);}
	.st5{fill:url(#SVGID_3_);}
	.st6{fill:url(#SVGID_4_);}
	.st7{fill:#9D9D9E;}
	.st8{fill:#DCDCDC;}
	.st9{fill:url(#SVGID_5_);}
	.st10{fill:#4B2D00;}
	.st11{fill:#372000;}
	.st12{fill:#221100;}
	.st13{fill:url(#SVGID_6_);}
</style>
<g id="Layer_3" class="st0">
	<path class="st1" d="M405.5,836.5c0,0,129,28,219-3c1,8-5,15-5,15s14,21-1,34c18,24-9,38-9,38s-2,30-38,37c2,36-56,40-56,40
		s-59,3-64-40c-24-6-33-21-33-21s-38-17-10-38c-22-21,0-33,0-33S386.5,847.5,405.5,836.5z"/>
</g>
<path class="st2" d="M999.2,439.9l-0.1-2.8l-0.5-2.8c-0.7-3.7-4.7-23.2-17.3-43c-18.6-29.3-47.1-45.4-80.3-45.4
	c-32.2,0-60.6,14.7-82,42.5c-14.5,18.7-20.8,37.2-21.9,40.7l-0.1,0.3l-0.1,0.3l-55.8,185.2c-2.7,8.2-7.4,28.5,4.4,47.6l5.8,35.1
	c0,0,11.3-9.1,34.7-13.1c14.4,0,38.3-4.6,95.5-40.8C1004.1,566.3,999.5,445.1,999.2,439.9z M862.8,609
	c-43.1,27.3-65.4,35.3-76.7,35.3c-16,0-9.9-16.1-9.9-16.1l56-186c0,0,17.8-56,68.7-56s61.1,56,61.1,56S967.2,543.1,862.8,609z"/>
<radialGradient id="SVGID_1_" cx="915.9469" cy="605.9649" r="148.9363" fx="1029.9725" fy="510.1516" gradientTransform="matrix(-0.8992 0.4376 -8.123957e-02 -0.167 1788.7888 306.3586)" gradientUnits="userSpaceOnUse">
	<stop  offset="0.2685" style="stop-color:#E0E0E0"/>
	<stop  offset="0.4118" style="stop-color:#D8D8D8;stop-opacity:0.804"/>
	<stop  offset="0.6384" style="stop-color:#C1C1C1;stop-opacity:0.4943"/>
	<stop  offset="0.9183" style="stop-color:#9C9C9C;stop-opacity:0.1117"/>
	<stop  offset="1" style="stop-color:#909090;stop-opacity:0"/>
</radialGradient>
<path class="st3" d="M999.2,439.9l-0.1-2.8l-0.5-2.8c-0.7-3.7-4.7-23.2-17.3-43c-18.6-29.3-47.1-45.4-80.3-45.4
	c-32.2,0-60.6,14.7-82,42.5c-14.5,18.7-20.8,37.2-21.9,40.7l-0.1,0.3l-0.1,0.3l-55.8,185.2c-2.7,8.2-7.4,28.5,4.4,47.6l5.8,35.1
	c0,0,11.3-9.1,34.7-13.1c14.4,0,38.3-4.6,95.5-40.8C1004.1,566.3,999.5,445.1,999.2,439.9z M862.8,609
	c-43.1,27.3-65.4,35.3-76.7,35.3c-16,0-9.9-16.1-9.9-16.1l56-186c0,0,17.8-56,68.7-56s61.1,56,61.1,56S967.2,543.1,862.8,609z"/>
<radialGradient id="SVGID_2_" cx="892.649" cy="489.3915" r="229.02" gradientUnits="userSpaceOnUse">
	<stop  offset="0.2234" style="stop-color:#000000;stop-opacity:0.2"/>
	<stop  offset="0.257" style="stop-color:#080808;stop-opacity:0.1743"/>
	<stop  offset="0.31" style="stop-color:#1F1F1F;stop-opacity:0.1337"/>
	<stop  offset="0.3759" style="stop-color:#444444;stop-opacity:8.322616e-02"/>
	<stop  offset="0.4513" style="stop-color:#777777;stop-opacity:2.542500e-02"/>
	<stop  offset="0.4845" style="stop-color:#909090;stop-opacity:0"/>
</radialGradient>
<path class="st4" d="M999.2,439.9l-0.1-2.8l-0.5-2.8c-0.7-3.7-4.7-23.2-17.3-43c-18.6-29.3-47.1-45.4-80.3-45.4
	c-32.2,0-60.6,14.7-82,42.5c-14.5,18.7-20.8,37.2-21.9,40.7l-0.1,0.3l-0.1,0.3l-55.8,185.2c-2.7,8.2-7.4,28.5,4.4,47.6l5.8,35.1
	c0,0,11.3-9.1,34.7-13.1c14.4,0,38.3-4.6,95.5-40.8C1004.1,566.3,999.5,445.1,999.2,439.9z M862.8,609
	c-43.1,27.3-65.4,35.3-76.7,35.3c-16,0-9.9-16.1-9.9-16.1l56-186c0,0,17.8-56,68.7-56s61.1,56,61.1,56S967.2,543.1,862.8,609z"/>
<linearGradient id="SVGID_3_" gradientUnits="userSpaceOnUse" x1="113.9717" y1="670.923" x2="846.6579" y2="416.3456">
	<stop  offset="0" style="stop-color:#909090"/>
	<stop  offset="6.362076e-03" style="stop-color:#939393"/>
	<stop  offset="7.573852e-02" style="stop-color:#AFAFAF"/>
	<stop  offset="0.1506" style="stop-color:#C5C5C5"/>
	<stop  offset="0.2326" style="stop-color:#D4D4D4"/>
	<stop  offset="0.3273" style="stop-color:#DDDDDD"/>
	<stop  offset="0.4637" style="stop-color:#E0E0E0"/>
	<stop  offset="0.6702" style="stop-color:#C4C4C4"/>
	<stop  offset="1" style="stop-color:#909090"/>
</linearGradient>
<path class="st5" d="M25.1,382.8c0,0-27,460.9,397.2,468.8c424.3,7.8,429.5-468.8,429.5-468.8s-64.7,100.7-271.9,124.1
	c-207.2,23.5-382.4-11.8-382.4-11.8S31.1,427,25.1,382.8z"/>
<radialGradient id="SVGID_4_" cx="438.2513" cy="617.2581" r="336.1303" gradientTransform="matrix(1 0 0 0.6547 0 213.1485)" gradientUnits="userSpaceOnUse">
	<stop  offset="0" style="stop-color:#E0E0E0;stop-opacity:0"/>
	<stop  offset="2.965857e-02" style="stop-color:#DFDFDF;stop-opacity:5.269403e-03"/>
	<stop  offset="0.2254" style="stop-color:#D6D6D6;stop-opacity:8.489932e-02"/>
	<stop  offset="0.5463" style="stop-color:#BDBDBD;stop-opacity:0.2154"/>
	<stop  offset="0.9505" style="stop-color:#959595;stop-opacity:0.3799"/>
	<stop  offset="1" style="stop-color:#909090;stop-opacity:0.4"/>
</radialGradient>
<path class="st6" d="M25.1,382.8c0,0-27,460.9,397.2,468.8c424.3,7.8,429.5-468.8,429.5-468.8s-64.7,100.7-271.9,124.1
	c-207.2,23.5-382.4-11.8-382.4-11.8S31.1,427,25.1,382.8z"/>
<g>
	<path class="st7" d="M438.4,519.2c-110,0-213.4-14.5-291.2-40.8c-37.6-12.7-67-27.5-87.5-43.9C39,418,28.6,400.6,28.6,382.8
		s10.5-35.2,31.2-51.7c20.5-16.4,49.9-31.2,87.5-43.9c77.7-26.3,181.1-40.8,291.2-40.8c110,0,213.4,14.5,291.2,40.8
		c37.6,12.7,67,27.5,87.5,43.9c20.7,16.5,31.2,33.9,31.2,51.7s-10.5,35.2-31.2,51.7c-20.5,16.4-49.9,31.2-87.5,43.9
		C651.9,504.7,548.5,519.2,438.4,519.2z"/>
	<path class="st8" d="M438.4,250c109.7,0,212.7,14.4,290,40.6c37.2,12.6,66.3,27.2,86.5,43.3c19.8,15.8,29.9,32.3,29.9,49
		c0,16.7-10,33.1-29.9,49c-20.2,16.1-49.3,30.7-86.5,43.3c-77.4,26.2-180.4,40.6-290,40.6s-212.7-14.4-290-40.6
		c-37.2-12.6-66.3-27.2-86.5-43.3c-19.8-15.8-29.9-32.3-29.9-49c0-16.7,10-33.1,29.9-49c20.2-16.1,49.3-30.7,86.5-43.3
		C225.7,264.4,328.8,250,438.4,250 M438.4,243c-228.3,0-413.4,62.6-413.4,139.9c0,77.3,185.1,139.9,413.4,139.9
		s413.4-62.6,413.4-139.9C851.8,305.6,666.7,243,438.4,243L438.4,243z"/>
</g>
<g>
	<linearGradient id="SVGID_5_" gradientUnits="userSpaceOnUse" x1="32.4341" y1="317.9496" x2="855.5949" y2="449.4997">
		<stop  offset="0" style="stop-color:#DCDCDC;stop-opacity:0"/>
		<stop  offset="0.5493" style="stop-color:#E0E0E0"/>
	</linearGradient>
	<ellipse class="st9" cx="438.4" cy="382.8" rx="413.4" ry="139.9"/>
</g>
<g>
	<path class="st10" d="M150.2,469.6c76.8,26,179.1,40.3,288.2,40.3s211.4-14.3,288.2-40.3c36-12.2,65.3-26.8,84.7-42.3
		c1.8-1.4,3.4-2.8,5-4.3C807.3,366.8,641.5,322,438.4,322S69.6,366.8,60.5,423.1c1.6,1.4,3.3,2.8,5,4.3
		C84.9,442.8,114.2,457.4,150.2,469.6z"/>
</g>
<path class="st11" d="M438.4,509.9c109.1,0,211.4-14.3,288.2-40.3c34.2-11.6,62.4-25.4,81.7-40c-36.5-47.8-188.3-83.7-369.9-83.7
	S105,381.8,68.5,429.6c19.3,14.6,47.5,28.4,81.7,40C227,495.6,329.4,509.9,438.4,509.9z"/>
<path class="st12" d="M92.9,445.2c16.2,8.8,35.5,17.1,57.3,24.5c76.8,26,179.1,40.3,288.2,40.3s211.4-14.3,288.2-40.3
	c21.7-7.4,41-15.6,57.1-24.4c-59.1-37-191.5-62.7-345.5-62.7C284.4,382.5,152.1,408.2,92.9,445.2z"/>
<linearGradient id="SVGID_6_" gradientUnits="userSpaceOnUse" x1="854.5839" y1="460.5225" x2="54.0808" y2="311.0798">
	<stop  offset="0" style="stop-color:#DCDCDC"/>
	<stop  offset="0.4238" style="stop-color:#DCDCDC"/>
	<stop  offset="1" style="stop-color:#E0E0E0"/>
</linearGradient>
<path class="st13" d="M438.4,255.7c109.1,0,211.4,14.3,288.2,40.3c36,12.2,65.3,26.8,84.7,42.3c18.4,14.7,27.7,29.7,27.7,44.5
	c0,14.8-9.3,29.8-27.7,44.5c-19.4,15.5-48.7,30.1-84.7,42.3c-76.8,26-179.1,40.3-288.2,40.3S227,495.6,150.2,469.6
	c-36-12.2-65.3-26.8-84.7-42.3c-18.4-14.7-27.7-29.7-27.7-44.5c0-14.8,9.3-29.8,27.7-44.5c19.4-15.5,48.7-30.1,84.7-42.3
	C227,270,329.4,255.7,438.4,255.7 M438.4,243c-228.3,0-413.4,62.6-413.4,139.9c0,77.3,185.1,139.9,413.4,139.9
	s413.4-62.6,413.4-139.9C851.8,305.6,666.7,243,438.4,243L438.4,243z"/>
</svg>
