<?xml version="1.0" encoding="utf-8"?>
<!-- Generator: Adobe Illustrator 22.1.0, SVG Export Plug-In . SVG Version: 6.00 Build 0)  -->
<!-- Artist: @KevDoy for Trenta.io -->
<!-- Vector Conversion by @Genghis-Khanr -->
<svg version="1.1" id="orca" xmlns="http://www.w3.org/2000/svg" xmlns:xlink="http://www.w3.org/1999/xlink" x="0px" y="0px"
	 viewBox="0 0 1024 1024" style="enable-background:new 0 0 1024 1024;" xml:space="preserve">
<style type="text/css">
	.st0{fill:url(#SVGID_1_);}
	.st1{fill:#C8D8DC;}
	.st2{fill:url(#SVGID_2_);}
	.st3{fill:url(#SVGID_3_);}
	.st4{fill:url(#Blue_2_);}
</style>
<g>
	<g id="Blue_1_">
		<linearGradient id="SVGID_1_" gradientUnits="userSpaceOnUse" x1="512" y1="92.0498" x2="512" y2="932.9502">
			<stop  offset="0" style="stop-color:#99B1B6"/>
			<stop  offset="0.5" style="stop-color:#8B9EA2"/>
			<stop  offset="1" style="stop-color:#78888C"/>
		</linearGradient>
		<path class="st0" d="M909.3,933l-797.6-2.9c-26.9-0.1-48.6-22-48.5-48.9l2.6-740.6c0.1-26.9,22-48.6,48.9-48.5L912.3,95
			c26.9,0.1,48.6,22,48.5,48.9l-2.7,740.6C958.1,911.3,936.2,933,909.3,933z"/>
	</g>
	<g>
		<circle class="st1" cx="512" cy="503.5" r="28.3"/>
	</g>
	<g>
		<linearGradient id="SVGID_2_" gradientUnits="userSpaceOnUse" x1="512" y1="536.7229" x2="512" y2="814.7754">
			<stop  offset="0" style="stop-color:#C8D8DC"/>
			<stop  offset="1" style="stop-color:#ACB6BA"/>
		</linearGradient>
		<path class="st2" d="M639.5,550c-0.9-8.2-8.4-14.2-16.6-13.2l-82.2,9.3h-57.5l-82.2-9.3c-8.2-0.9-15.7,5-16.6,13.2
			c-0.9,8.2,5,15.7,13.2,16.6l75.8,8.6v87.4l-35.3,131.1c-2.5,8.8,2.6,17.9,11.4,20.4c1.5,0.4,3,0.6,4.5,0.6c7.2,0,13.8-4.8,15.9-12
			l36.8-123.1h10.4L554,802.8c2.1,7.3,8.7,12,15.9,12c1.5,0,3-0.2,4.5-0.6c8.8-2.5,13.9-11.6,11.4-20.4l-35.3-131.1v-87.4l75.8-8.6
			C634.5,565.7,640.4,558.3,639.5,550z"/>
	</g>
	<g>
		<linearGradient id="SVGID_3_" gradientUnits="userSpaceOnUse" x1="512" y1="100.1613" x2="512" y2="922.7727">
			<stop  offset="0.3175" style="stop-color:#C8D8DC"/>
			<stop  offset="1" style="stop-color:#ACB6BA"/>
		</linearGradient>
		<path class="st3" d="M912.3,95l-797.6-2.9c-26.9-0.1-48.8,21.6-48.9,48.5l-2.6,740.6c-0.1,26.9,21.6,48.8,48.5,48.9l797.6,2.9
			c26.9,0,48.8-21.7,48.8-48.5l2.7-740.6C960.9,117,939.2,95.1,912.3,95z M661.4,254.3c0-6.9,5.6-12.5,12.5-12.5s12.5,5.6,12.5,12.5
			v53.5c0,6.9-5.6,12.5-12.5,12.5s-12.5-5.6-12.5-12.5V254.3z M625.4,243.3c0-6.9,5.6-12.5,12.5-12.5s12.5,5.6,12.5,12.5v79.5
			c0,6.9-5.6,12.5-12.5,12.5s-12.5-5.6-12.5-12.5V243.3z M589.4,214.8c0-6.9,5.6-12.5,12.5-12.5s12.5,5.6,12.5,12.5V347
			c0,6.9-5.6,12.5-12.5,12.5s-12.5-5.6-12.5-12.5V214.8z M553.5,247.8c0-6.9,5.6-12.5,12.5-12.5s12.5,5.6,12.5,12.5V317
			c0,6.9-5.6,12.5-12.5,12.5s-12.5-5.6-12.5-12.5V247.8z M517.5,266.1c0-6.9,5.6-12.5,12.5-12.5s12.5,5.6,12.5,12.5v32.8
			c0,6.9-5.6,12.5-12.5,12.5s-12.5-5.6-12.5-12.5V266.1z M481.5,254.8c0-6.9,5.6-12.5,12.5-12.5s12.5,5.6,12.5,12.5v53.1
			c0,6.9-5.6,12.5-12.5,12.5s-12.5-5.6-12.5-12.5V254.8z M445.5,218.5c0-6.9,5.6-12.5,12.5-12.5s12.5,5.6,12.5,12.5V344
			c0,6.9-5.6,12.5-12.5,12.5s-12.5-5.6-12.5-12.5V218.5z M409.6,173.5c0-6.9,5.6-12.5,12.5-12.5s12.5,5.6,12.5,12.5v215.3
			c0,6.9-5.6,12.5-12.5,12.5s-12.5-5.6-12.5-12.5V173.5z M373.6,226.9c0-6.9,5.6-12.5,12.5-12.5s12.5,5.6,12.5,12.5v110.4
			c0,6.9-5.6,12.5-12.5,12.5s-12.5-5.6-12.5-12.5V226.9z M337.6,245.7c0-6.9,5.6-12.5,12.5-12.5s12.5,5.6,12.5,12.5v73.7
			c0,6.9-5.6,12.5-12.5,12.5s-12.5-5.6-12.5-12.5V245.7z M512,864.3c-119,0-215.4-96.4-215.4-215.4S393,433.5,512,433.5
			s215.4,96.4,215.4,215.4S631,864.3,512,864.3z"/>
	</g>
	<linearGradient id="Blue_2_" gradientUnits="userSpaceOnUse" x1="512" y1="92.0499" x2="512" y2="932.9502">
		<stop  offset="0.3175" style="stop-color:#C7D3D8"/>
		<stop  offset="0.6037" style="stop-color:#B0BABE"/>
		<stop  offset="1" style="stop-color:#8C9293"/>
	</linearGradient>
	<path id="Blue_3_" class="st4" d="M114.5,105L114.5,105l0.1,0l797.6,2.9c19.7,0.1,35.6,16.2,35.5,35.9l-2.7,740.6
		c0,19.6-16.1,35.5-35.8,35.5l-797.6-2.9c-19.7-0.1-35.6-16.2-35.5-35.9l2.6-740.6C78.9,121,94.9,105.1,114.5,105 M114.5,92
		c-26.8,0-48.6,21.7-48.7,48.5l-2.6,740.6c-0.1,26.9,21.6,48.8,48.5,48.9l797.6,2.9c26.9,0,48.8-21.7,48.8-48.5l2.7-740.6
		c0.1-26.9-21.6-48.8-48.5-48.9l-797.6-2.9C114.6,92,114.6,92,114.5,92L114.5,92z"/>
</g>
</svg>
