<?xml version="1.0" encoding="utf-8"?>
<!-- Generator: Adobe Illustrator 23.0.1, SVG Export Plug-In . SVG Version: 6.00 Build 0)  -->
<!-- Artist: @KevDoy for Trenta.io -->
<svg version="1.1" xmlns="http://www.w3.org/2000/svg" xmlns:xlink="http://www.w3.org/1999/xlink" x="0px" y="0px"
	 viewBox="0 0 1024 1024" style="enable-background:new 0 0 1024 1024;" xml:space="preserve">
<style type="text/css">
	.st0{fill:url(#SVGID_1_);}
	.st1{fill:url(#SVGID_2_);}
	.st2{fill:url(#SVGID_3_);}
	.st3{fill:#104A8C;}
	.st4{fill:#FF074A;}
	.st5{fill:url(#SVGID_4_);}
	.st6{fill:url(#SVGID_5_);}
	.st7{fill:url(#SVGID_6_);}
	.st8{fill:url(#SVGID_7_);}
	.st9{fill:url(#SVGID_8_);}
	.st10{fill:url(#SVGID_9_);}
	.st11{fill:url(#SVGID_10_);}
	.st12{fill:url(#SVGID_11_);}
	.st13{fill:url(#SVGID_12_);}
	.st14{fill:url(#SVGID_13_);}
	.st15{fill:url(#SVGID_14_);}
	.st16{fill:url(#SVGID_15_);}
	.st17{fill:url(#SVGID_16_);}
	.st18{fill:url(#SVGID_17_);}
	.st19{fill:url(#SVGID_18_);}
	.st20{opacity:0.5;fill:url(#SVGID_19_);enable-background:new    ;}
	.st21{opacity:0.5;fill:url(#SVGID_20_);enable-background:new    ;}
	.st22{opacity:0.5;fill:url(#SVGID_21_);enable-background:new    ;}
	.st23{fill:url(#SVGID_22_);}
	.st24{fill:url(#SVGID_23_);}
	.st25{fill:url(#SVGID_24_);}
	.st26{fill:url(#SVGID_25_);}
	.st27{fill:url(#SVGID_26_);}
	.st28{fill:url(#SVGID_27_);}
	.st29{fill:url(#SVGID_28_);}
	.st30{fill:url(#SVGID_29_);}
	.st31{fill:url(#SVGID_30_);}
</style>
<g id="Layer_1">
	<g>
		
			<linearGradient id="SVGID_1_" gradientUnits="userSpaceOnUse" x1="482.4171" y1="919.9671" x2="482.4171" y2="159.8185" gradientTransform="matrix(1 0 0 -1 0 1024)">
			<stop  offset="0" style="stop-color:#DBEDEF"/>
			<stop  offset="0.2604" style="stop-color:#BFCACB"/>
			<stop  offset="0.5805" style="stop-color:#A1A6A6"/>
			<stop  offset="0.8383" style="stop-color:#8F8F8E"/>
			<stop  offset="1" style="stop-color:#888786"/>
		</linearGradient>
		<path class="st0" d="M880.6,864.2H84.2C64.2,864.2,48,848,48,828V140.2c0-20,16.2-36.2,36.2-36.2h796.3c20,0,36.2,16.2,36.2,36.2
			V828C916.8,848,900.6,864.2,880.6,864.2z"/>
		
			<linearGradient id="SVGID_2_" gradientUnits="userSpaceOnUse" x1="783.4812" y1="844.8497" x2="150.2903" y2="203.4355" gradientTransform="matrix(1 0 0 -1 0 1024)">
			<stop  offset="0" style="stop-color:#1E1F1F"/>
			<stop  offset="0.8984" style="stop-color:#040404"/>
		</linearGradient>
		<path class="st1" d="M873.7,855.1H91.1c-18,0-32.7-14.7-32.7-32.7V145.8c0-18,14.7-32.7,32.7-32.7h782.7c18,0,32.7,14.7,32.7,32.7
			v676.6C906.4,840.5,891.8,855.1,873.7,855.1z"/>
	</g>
	<g id="Layer_4">
		<radialGradient id="SVGID_3_" cx="482.4624" cy="484.1524" r="342.1467" gradientUnits="userSpaceOnUse">
			<stop  offset="0" style="stop-color:#FFFFFF"/>
			<stop  offset="1" style="stop-color:#DDDDDD"/>
		</radialGradient>
		<rect x="115.9" y="168.3" class="st2" width="733.1" height="631.7"/>
	</g>
</g>
<g id="Layer_3">
</g>
<g id="Layer_4_2_">
	<path class="st3" d="M821.1,168.3L653,402.7L517.4,295.2c-2.1-1.7-4.8-2.4-7.5-2.1c-2.7,0.3-5.1,1.7-6.7,3.9L340.1,511.2L248,422
		c-2.3-2.2-5.4-3.2-8.5-2.7c-3.1,0.5-5.8,2.4-7.3,5.2L115.9,646.4v31.5c3.6,0,7.1-2,8.9-5.4l118.9-226.9l90.5,87.8
		c2.1,2,4.9,3,7.7,2.8c2.9-0.2,5.5-1.6,7.2-3.9l163.8-215.2l135.9,107.7c2.1,1.7,4.9,2.4,7.6,2.1c2.7-0.4,5.1-1.9,6.7-4.1
		l182.5-254.6H821.1z"/>
</g>
<g id="Layer_5_1_">
	<path class="st4" d="M849,461.1l-151.8,91.1l-164.7-58.8c-3.2-1.2-6.9-0.6-9.6,1.6L377.3,609.8l-106.1-44.3c-3-1.2-6.4-1-9.1,0.7
		l-146.2,89.9v21.7c0,0,0,0,0,0c1.8,0,3.6-0.5,5.2-1.5l147-90.4L375,630.6c3.3,1.4,7.2,0.9,10-1.4l146-115.1l163.9,58.5
		c2.8,1,5.9,0.7,8.5-0.8L849,484.5V461.1z"/>
</g>
<g id="Layer_2">
	<g id="Layer_12_1_">
		
			<radialGradient id="SVGID_4_" cx="781.4954" cy="265.5878" r="56.5295" gradientTransform="matrix(0.9979 -6.551694e-02 -3.252485e-02 -0.4954 -0.3356 1097.7083)" gradientUnits="userSpaceOnUse">
			<stop  offset="0.3169" style="stop-color:#727375"/>
			<stop  offset="0.5207" style="stop-color:#727375"/>
			<stop  offset="0.724" style="stop-color:#747576"/>
			<stop  offset="0.7973" style="stop-color:#7B7C7B"/>
			<stop  offset="0.8495" style="stop-color:#868784"/>
			<stop  offset="0.8917" style="stop-color:#979890"/>
			<stop  offset="0.9274" style="stop-color:#ADAEA0"/>
			<stop  offset="0.934" style="stop-color:#B2B3A4"/>
			<stop  offset="0.9736" style="stop-color:#B0B1A3"/>
			<stop  offset="1" style="stop-color:#9DA5B0"/>
		</radialGradient>
		<path class="st5" d="M744.3,909.7c0,0,2.3,29.5,36.3,28.3s41.8-12.3,41.8-12.3s6.1-7.3,4.6-16.1
			C825.5,900.9,744.3,909.7,744.3,909.7z"/>
		
			<radialGradient id="SVGID_5_" cx="644.1637" cy="-235.7765" r="57.2063" gradientTransform="matrix(-0.9826 0.186 0.1329 0.702 1464.2773 945.8117)" gradientUnits="userSpaceOnUse">
			<stop  offset="0.5207" style="stop-color:#727375;stop-opacity:0"/>
			<stop  offset="0.724" style="stop-color:#747576;stop-opacity:0.1968"/>
			<stop  offset="0.7973" style="stop-color:#7B7C7B;stop-opacity:0.2676"/>
			<stop  offset="0.8495" style="stop-color:#868784;stop-opacity:0.3182"/>
			<stop  offset="0.8917" style="stop-color:#979890;stop-opacity:0.359"/>
			<stop  offset="0.9274" style="stop-color:#ADAEA0;stop-opacity:0.3936"/>
			<stop  offset="0.934" style="stop-color:#B2B3A4;stop-opacity:0.4"/>
			<stop  offset="0.9736" style="stop-color:#B0B1A3;stop-opacity:0.6"/>
			<stop  offset="1" style="stop-color:#B2B3A4"/>
		</radialGradient>
		<path class="st6" d="M744.3,909.7c0,0,2.3,29.5,36.3,28.3s41.8-12.3,41.8-12.3s6.1-7.3,4.6-16.1
			C825.5,900.9,744.3,909.7,744.3,909.7z"/>
		
			<radialGradient id="SVGID_6_" cx="629.8994" cy="-339.5198" r="20.9121" gradientTransform="matrix(-0.8848 0.466 0.2036 0.3865 1441.6632 757.066)" gradientUnits="userSpaceOnUse">
			<stop  offset="0" style="stop-color:#8B8986"/>
			<stop  offset="0.7171" style="stop-color:#8B8986;stop-opacity:0"/>
		</radialGradient>
		<path class="st7" d="M744.3,909.7c0,0,2.3,29.5,36.3,28.3s41.8-12.3,41.8-12.3s6.1-7.3,4.6-16.1
			C825.5,900.9,744.3,909.7,744.3,909.7z"/>
		
			<radialGradient id="SVGID_7_" cx="558.2571" cy="-13.9265" r="20.0623" gradientTransform="matrix(1.973300e-02 0.9998 2.2362 -4.413522e-02 808.0686 349.4691)" gradientUnits="userSpaceOnUse">
			<stop  offset="0" style="stop-color:#000000;stop-opacity:0.4"/>
			<stop  offset="0.209" style="stop-color:#131313;stop-opacity:0.3164"/>
			<stop  offset="0.6314" style="stop-color:#434445;stop-opacity:0.1474"/>
			<stop  offset="1" style="stop-color:#727375;stop-opacity:0"/>
		</radialGradient>
		<path class="st8" d="M744.3,909.7c0,0,2.3,29.5,36.3,28.3s41.8-12.3,41.8-12.3s6.1-7.3,4.6-16.1
			C825.5,900.9,744.3,909.7,744.3,909.7z"/>
	</g>
	<g id="Layer_5_2_">
		
			<linearGradient id="SVGID_8_" gradientUnits="userSpaceOnUse" x1="787.0023" y1="744.6212" x2="787.0023" y2="435.613" gradientTransform="matrix(1 0 0 -1 0 1024)">
			<stop  offset="0" style="stop-color:#FFFB6C"/>
			<stop  offset="0.2225" style="stop-color:#FEF669"/>
			<stop  offset="0.4924" style="stop-color:#FAE761"/>
			<stop  offset="0.7858" style="stop-color:#F3CF53"/>
			<stop  offset="1" style="stop-color:#EDB847"/>
		</linearGradient>
		<path class="st9" d="M787,599.7L787,599.7L787,599.7c151.9,1.4,144.2-19.8,145-19.3c27.4-32.8,43.9-75,43.9-121
			c0-104.3-84.6-189-189-189s-189,84.6-189,189c0,46.1,16.5,88.3,43.9,121C642.8,579.9,635.1,601.1,787,599.7z"/>
		
			<radialGradient id="SVGID_9_" cx="787.0022" cy="571.5384" r="169.6423" gradientTransform="matrix(1 0 0 -1 0 1024)" gradientUnits="userSpaceOnUse">
			<stop  offset="0" style="stop-color:#FFFEF8"/>
			<stop  offset="0.1681" style="stop-color:#FFFDE5"/>
			<stop  offset="0.5059" style="stop-color:#FEF9B5"/>
			<stop  offset="0.5418" style="stop-color:#FEF9B0"/>
			<stop  offset="0.7222" style="stop-color:#FEF8AE"/>
			<stop  offset="0.8138" style="stop-color:#FEF6A6"/>
			<stop  offset="0.8853" style="stop-color:#FDF299"/>
			<stop  offset="0.9461" style="stop-color:#FCEC86"/>
			<stop  offset="1" style="stop-color:#FBE56E"/>
		</radialGradient>
		<path class="st10" d="M787,592.7L787,592.7L787,592.7c145.5,1.3,138-19,138.8-18.5c26.2-31.4,42-71.8,42-115.9
			c0-99.9-80.9-180.8-180.8-180.8s-180.8,80.9-180.8,180.8c0,44.1,15.8,84.5,42,115.9C649,573.7,641.5,594,787,592.7z"/>
		
			<linearGradient id="SVGID_10_" gradientUnits="userSpaceOnUse" x1="787.0022" y1="438.1086" x2="787.0022" y2="463.784" gradientTransform="matrix(1 0 0 -1 0 1024)">
			<stop  offset="0" style="stop-color:#FCE46E;stop-opacity:0.6"/>
			<stop  offset="1" style="stop-color:#FBE56E;stop-opacity:0"/>
		</linearGradient>
		<path class="st11" d="M787,592.7L787,592.7L787,592.7c145.5,1.3,138-19,138.8-18.5c26.2-31.4,42-71.8,42-115.9
			c0-99.9-80.9-180.8-180.8-180.8s-180.8,80.9-180.8,180.8c0,44.1,15.8,84.5,42,115.9C649,573.7,641.5,594,787,592.7z"/>
	</g>
	<g id="Layer_6_1_">
		
			<linearGradient id="SVGID_11_" gradientUnits="userSpaceOnUse" x1="708.7831" y1="155.0949" x2="860.2197" y2="155.0949" gradientTransform="matrix(1 0 0 -1 0 1024)">
			<stop  offset="0" style="stop-color:#999795"/>
			<stop  offset="0.149" style="stop-color:#9B9A98"/>
			<stop  offset="0.2567" style="stop-color:#A3A2A1"/>
			<stop  offset="0.351" style="stop-color:#B1B1B1"/>
			<stop  offset="0.4239" style="stop-color:#C0C2C3"/>
			<stop  offset="0.5097" style="stop-color:#C0C2C3"/>
			<stop  offset="0.5936" style="stop-color:#C0C2C3"/>
			<stop  offset="0.7272" style="stop-color:#AEAFAE"/>
			<stop  offset="0.8871" style="stop-color:#9F9D9C"/>
			<stop  offset="1" style="stop-color:#999795"/>
		</linearGradient>
		<path class="st12" d="M713.5,825.8c0,0-13.5,9.3,1.6,21c-15.3,10.5,0,22.1,0,22.1s-17.9,14.2,4.9,24.7c15.3,17.5,24.7,16,24.7,16
			s34.7,14.1,85.3,0.1c26.6-7.8,25.2-24.6,25.2-24.6s18.6-8.9,6.1-26.6c10.7-13.1,0-22.8,0-22.8s6.2-6.2,4.7-11.6
			C864.7,818.6,713.5,825.8,713.5,825.8z"/>
	</g>
	<g id="Layer_22_1_">
		
			<linearGradient id="SVGID_12_" gradientUnits="userSpaceOnUse" x1="841.2231" y1="132.119" x2="814.2281" y2="124.9732" gradientTransform="matrix(1 0 0 -1 0 1024)">
			<stop  offset="0.2835" style="stop-color:#A4A197"/>
			<stop  offset="0.8697" style="stop-color:#A9A7A3;stop-opacity:0.4259"/>
			<stop  offset="0.984" style="stop-color:#AAA8A6;stop-opacity:0.3141"/>
			<stop  offset="1" style="stop-color:#AAA8A6;stop-opacity:0.3"/>
		</linearGradient>
		<path class="st13" d="M848.5,887.1c0,0-19,9.1-32.9,9.6c-13.9,0.5,5.8,1.8,5.8,1.8s27.1-3.8,27.1-7.6
			C848.5,887.1,848.5,887.1,848.5,887.1z"/>
		
			<linearGradient id="SVGID_13_" gradientUnits="userSpaceOnUse" x1="729.9427" y1="129.5128" x2="766.14" y2="127.4877" gradientTransform="matrix(1 0 0 -1 0 1024)">
			<stop  offset="5.587829e-02" style="stop-color:#A4A197"/>
			<stop  offset="1" style="stop-color:#AAA8A6;stop-opacity:0.3"/>
		</linearGradient>
		<path class="st14" d="M720.8,890.4c0,0,16.7,7.2,41.3,6.9c24.6-0.3-10.4,5.1-37.9-1.2C714,888.9,720.8,890.4,720.8,890.4z"/>
	</g>
	<g id="Layer_21_1_">
		
			<linearGradient id="SVGID_14_" gradientUnits="userSpaceOnUse" x1="822.2006" y1="108.8262" x2="848.1755" y2="134.6388" gradientTransform="matrix(1 0 0 -1 0 1024)">
			<stop  offset="5.587829e-02" style="stop-color:#FEFEFE;stop-opacity:0"/>
			<stop  offset="0.4324" style="stop-color:#CCD5E0;stop-opacity:0.3988"/>
			<stop  offset="0.8089" style="stop-color:#A1B1C5;stop-opacity:0.7976"/>
			<stop  offset="1" style="stop-color:#90A3BB"/>
		</linearGradient>
		<path class="st15" d="M845.3,881.6c0,0-1.5,19.1-18.2,25.7c-16.7,6.6,7.5,2.8,15.3-3.1c6-3.9,12.4-9.5,12.8-18.5
			C855.6,876.7,845.3,881.6,845.3,881.6z"/>
	</g>
	<g id="Layer_17_1_">
		
			<linearGradient id="SVGID_15_" gradientUnits="userSpaceOnUse" x1="864.3188" y1="195.0669" x2="809.826" y2="174.8688" gradientTransform="matrix(1 0 0 -1 0 1024)">
			<stop  offset="0" style="stop-color:#95AAC3"/>
			<stop  offset="0.369" style="stop-color:#BFDAE6"/>
			<stop  offset="0.4537" style="stop-color:#D0DEE4;stop-opacity:0.9118"/>
			<stop  offset="0.55" style="stop-color:#DAE0E3;stop-opacity:0.8115"/>
			<stop  offset="0.657" style="stop-color:#DEE1E3;stop-opacity:0.7"/>
			<stop  offset="1" style="stop-color:#E0E2E3;stop-opacity:0"/>
		</linearGradient>
		<path class="st16" d="M810.2,846.8c19.4,0.9,33.2-6,34.3-6.7c-7.1,7.1-27.5,12.4-27.5,12.4s32-2.5,44-15.6
			c5.7-6.6,6.5-12.3,4.4-14C857,816.3,800.7,844.2,810.2,846.8z"/>
	</g>
	<g id="Layer_18_1_">
		
			<linearGradient id="SVGID_16_" gradientUnits="userSpaceOnUse" x1="708.5307" y1="143.4855" x2="843.3967" y2="143.4855" gradientTransform="matrix(1 0 0 -1 0 1024)">
			<stop  offset="0" style="stop-color:#90A3BB"/>
			<stop  offset="6.945469e-02" style="stop-color:#92A6BD"/>
			<stop  offset="0.1196" style="stop-color:#9AAFC4"/>
			<stop  offset="0.1638" style="stop-color:#A7BFCF"/>
			<stop  offset="0.2042" style="stop-color:#B9D5DF"/>
			<stop  offset="0.2421" style="stop-color:#D1F2F4"/>
			<stop  offset="0.2436" style="stop-color:#D2F3F5"/>
			<stop  offset="0.3049" style="stop-color:#D8F4F6"/>
			<stop  offset="0.3848" style="stop-color:#E8F9FA"/>
			<stop  offset="0.46" style="stop-color:#FEFEFE"/>
			<stop  offset="0.9441" style="stop-color:#FEFEFE;stop-opacity:0"/>
		</linearGradient>
		<path class="st17" d="M727.1,863.8c0,0,6.1,0.3,5.8,3.7c-0.3,3.4-10.8,1.7-10.8,1.7s7.8,8.4,9.6,11.4c1.7,3,41.6,10.4,58.5,8
			c16.8-2.3,43.2-4.5,46.5-8c3.2-3.5,13.9,3.5-0.4,4.2c-14.4,0.8-62.8,13.1-91.1,7.4c-28.3-5.8-20.6,6.1-20.6,6.1s-2-2.8-4.3-5
			c-15.9-7.1-13.2-17.5-4.9-24.7C721.6,859,727.1,863.8,727.1,863.8z"/>
	</g>
	<g id="Layer_20_1_">
		
			<linearGradient id="SVGID_17_" gradientUnits="userSpaceOnUse" x1="732.7101" y1="117.6474" x2="843.0983" y2="117.6474" gradientTransform="matrix(1 0 0 -1 0 1024)">
			<stop  offset="3.638043e-02" style="stop-color:#FEFEFE;stop-opacity:0"/>
			<stop  offset="0.46" style="stop-color:#FEFEFE"/>
			<stop  offset="0.9441" style="stop-color:#FEFEFE;stop-opacity:0"/>
		</linearGradient>
		<path class="st18" d="M734,902.2c0,0,15.7,12.3,52.4,10.5c36.8-1.8,46-6.7,53.1-13.6c7.1-6.9,3.1,5.3-9.1,9.4
			c-12.1,4-27.1,7.6-45.2,7.1c-18.1-0.5-51.2-6.9-52.3-10.7C731.9,901.2,734,902.2,734,902.2z"/>
	</g>
	<g id="Layer_14_1_">
		
			<linearGradient id="SVGID_18_" gradientUnits="userSpaceOnUse" x1="709.8547" y1="187.7651" x2="749.0716" y2="178.5019" gradientTransform="matrix(1 0 0 -1 0 1024)">
			<stop  offset="0" style="stop-color:#93A6BB"/>
			<stop  offset="0.3687" style="stop-color:#A2B7C8"/>
			<stop  offset="0.6895" style="stop-color:#ABC0CF"/>
			<stop  offset="0.7051" style="stop-color:#AEC2CF;stop-opacity:0.9771"/>
			<stop  offset="0.8153" style="stop-color:#C0CBCE;stop-opacity:0.8153"/>
			<stop  offset="0.8937" style="stop-color:#C7CFCE;stop-opacity:0.7"/>
			<stop  offset="0.902" style="stop-color:#C8CFCE;stop-opacity:0.6607"/>
			<stop  offset="0.9992" style="stop-color:#CDD2CE;stop-opacity:0.2"/>
		</linearGradient>
		<path class="st19" d="M720.3,827.9c0,0-7.7,5.6,3.2,8.6c10.9,3,26.8,3.8,26.8,3.8s3.1,3.5-1.9,2.9c-4.9-0.6-25.1-2.4-25.1-2.4
			s-7.1,0-1,3.9c6.1,3.9,9.8,6.5,9.8,6.5s3.4,4.2-1.7,2.1c-5.1-2.1-9.8-3.3-18.1-8.9c-4.4-5.5-7.6-10.1,1.2-18.6
			C719.9,825,720.3,827.9,720.3,827.9z"/>
	</g>
	<g id="Layer_16_1_">
		
			<linearGradient id="SVGID_19_" gradientUnits="userSpaceOnUse" x1="734.7701" y1="167.3568" x2="811.7657" y2="167.3568" gradientTransform="matrix(1 0 0 -1 0 1024)">
			<stop  offset="0" style="stop-color:#484A4C"/>
			<stop  offset="1" style="stop-color:#484A4C;stop-opacity:0"/>
		</linearGradient>
		<path class="st20" d="M734.8,854.6c0,0,18.2,7.9,77,1.8C775.1,858.7,734.8,854.6,734.8,854.6z"/>
		
			<linearGradient id="SVGID_20_" gradientUnits="userSpaceOnUse" x1="838.1368" y1="178.7125" x2="733.7154" y2="169.8541" gradientTransform="matrix(1 0 0 -1 0 1024)">
			<stop  offset="0" style="stop-color:#484A4C"/>
			<stop  offset="1" style="stop-color:#484A4C;stop-opacity:0"/>
		</linearGradient>
		<path class="st21" d="M760.9,849.8c0,0,64,1.6,83.5-9.7C820.5,861.5,760.9,849.8,760.9,849.8z"/>
		
			<linearGradient id="SVGID_21_" gradientUnits="userSpaceOnUse" x1="746.9091" y1="152.6154" x2="837.084" y2="152.6154" gradientTransform="matrix(1 0 0 -1 0 1024)">
			<stop  offset="0" style="stop-color:#484A4C;stop-opacity:0"/>
			<stop  offset="1" style="stop-color:#484A4C"/>
		</linearGradient>
		<path class="st22" d="M837.1,866.2c0,0-49,10.2-90.2,4.7C747,871,785.1,886.4,837.1,866.2z"/>
	</g>
	<g id="Layer_19_1_">
		
			<linearGradient id="SVGID_22_" gradientUnits="userSpaceOnUse" x1="861.2919" y1="153.1994" x2="807.1472" y2="138.2857" gradientTransform="matrix(1 0 0 -1 0 1024)">
			<stop  offset="0" style="stop-color:#90A3BB"/>
			<stop  offset="7.847521e-02" style="stop-color:#99AEC3"/>
			<stop  offset="0.2149" style="stop-color:#B0CAD7"/>
			<stop  offset="0.3737" style="stop-color:#D2F3F5"/>
			<stop  offset="1" style="stop-color:#D2F3F5;stop-opacity:0"/>
		</linearGradient>
		<path class="st23" d="M845.8,864.5c0,0,2,5.2-6.3,7.2c-8.3,2-13,6.3-15.8,6.3c-2.9,0-19.9,4.3-19.9,4.3s-6.3,3.7,4.3,4.3
			c10.7,0.6,37.9-4.3,37.9-4.3s5.3,1.2,1.5,4.4c-3.7,3.1,12-1.7,15.3-8.7c5.1-5.5,2.6-14-1.5-19.7
			C857.3,856.9,845.8,864.5,845.8,864.5z"/>
	</g>
	<g id="Layer_15_1_">
		
			<linearGradient id="SVGID_23_" gradientUnits="userSpaceOnUse" x1="708.319" y1="167.9238" x2="866.1309" y2="167.9238" gradientTransform="matrix(1 0 0 -1 0 1024)">
			<stop  offset="0" style="stop-color:#9CB1C7"/>
			<stop  offset="2.239721e-02" style="stop-color:#A0B6CB"/>
			<stop  offset="4.930067e-02" style="stop-color:#ADC5D7"/>
			<stop  offset="7.841119e-02" style="stop-color:#C2DDEA"/>
			<stop  offset="8.658297e-02" style="stop-color:#C9E5F1"/>
			<stop  offset="0.235" style="stop-color:#C9E5F1"/>
			<stop  offset="0.2857" style="stop-color:#D9EBF3"/>
			<stop  offset="0.357" style="stop-color:#E9F1F5"/>
			<stop  offset="0.4388" style="stop-color:#F2F5F6"/>
			<stop  offset="0.554" style="stop-color:#F5F6F6"/>
			<stop  offset="0.6039" style="stop-color:#E9F1F5"/>
			<stop  offset="0.7198" style="stop-color:#D2E8F2"/>
			<stop  offset="0.7924" style="stop-color:#C9E5F1"/>
			<stop  offset="1" style="stop-color:#9CB1C7"/>
		</linearGradient>
		<path class="st24" d="M715.1,846.9c0,0,11.1,6.1,12.6,7.8c1.5,1.7,2.8,4,2.3,5.5s31.1,6.4,45.6,5.9c14.6-0.5,58-8.9,58.7-10.1
			s-4.4-2.4-1-4.1c3.4-1.7,25.2-9.2,28.2-16.4c3.8,3.6,8.3,13,0,22.8c-1,0.6-15.9,10.3-31.5,12.4l19-9.2c0,0-59.2,6.8-90.7,5.6
			s-39.4-7.8-38.4,0.3c8.1,4.3,13.2,9.1,13.2,9.1s-13-2.1-17.2-6.8C710.5,864.6,702.4,855.6,715.1,846.9z"/>
	</g>
	<g id="Layer_13_1_">
		
			<linearGradient id="SVGID_24_" gradientUnits="userSpaceOnUse" x1="713.2853" y1="190.5353" x2="863.5122" y2="190.5353" gradientTransform="matrix(1 0 0 -1 0 1024)">
			<stop  offset="0" style="stop-color:#FFFFFF;stop-opacity:0"/>
			<stop  offset="5.067276e-03" style="stop-color:#E3E4E4;stop-opacity:3.244674e-02"/>
			<stop  offset="1.294558e-02" style="stop-color:#BFC0C0;stop-opacity:8.289307e-02"/>
			<stop  offset="2.180267e-02" style="stop-color:#9FA0A1;stop-opacity:0.1396"/>
			<stop  offset="3.159662e-02" style="stop-color:#838586;stop-opacity:0.2023"/>
			<stop  offset="4.266061e-02" style="stop-color:#6D6F71;stop-opacity:0.2732"/>
			<stop  offset="5.558196e-02" style="stop-color:#5C5E60;stop-opacity:0.3559"/>
			<stop  offset="7.155876e-02" style="stop-color:#515354;stop-opacity:0.4582"/>
			<stop  offset="9.396563e-02" style="stop-color:#4A4C4E;stop-opacity:0.6017"/>
			<stop  offset="0.1562" style="stop-color:#484A4C"/>
			<stop  offset="0.205" style="stop-color:#484A4C"/>
			<stop  offset="0.5013" style="stop-color:#484A4C"/>
			<stop  offset="0.8051" style="stop-color:#484A4C"/>
			<stop  offset="0.8827" style="stop-color:#4A4C4E;stop-opacity:0.6017"/>
			<stop  offset="0.9107" style="stop-color:#515354;stop-opacity:0.4582"/>
			<stop  offset="0.9306" style="stop-color:#5C5E60;stop-opacity:0.3559"/>
			<stop  offset="0.9468" style="stop-color:#6D6F71;stop-opacity:0.2732"/>
			<stop  offset="0.9606" style="stop-color:#838586;stop-opacity:0.2023"/>
			<stop  offset="0.9728" style="stop-color:#9FA0A1;stop-opacity:0.1396"/>
			<stop  offset="0.9838" style="stop-color:#BFC0C0;stop-opacity:8.289307e-02"/>
			<stop  offset="0.9937" style="stop-color:#E3E4E4;stop-opacity:3.244674e-02"/>
			<stop  offset="1" style="stop-color:#FFFFFF;stop-opacity:0"/>
		</linearGradient>
		<path class="st25" d="M863.5,824.3c0,0-10.8,18.7-84.4,18.4S713.5,827,713.5,827L863.5,824.3z"/>
	</g>
	<g id="Layer_4_3_">
		
			<linearGradient id="SVGID_25_" gradientUnits="userSpaceOnUse" x1="787.0023" y1="421.2514" x2="787.0023" y2="194.6785" gradientTransform="matrix(1 0 0 -1 0 1024)">
			<stop  offset="0" style="stop-color:#DFE0E4"/>
			<stop  offset="0.111" style="stop-color:#DFE0E4"/>
			<stop  offset="0.2268" style="stop-color:#E7E8EC"/>
			<stop  offset="0.4419" style="stop-color:#F0F0F4"/>
			<stop  offset="0.8147" style="stop-color:#F2F2F6"/>
		</linearGradient>
		<path class="st26" d="M930.6,579.6c0,0,8.3,21.5-143.6,20.1l0,0l0,0l0,0l0,0c-151.9,1.4-143.6-20.1-143.6-20.1s-10.4,4.9,0,12.5
			c10.4,7.6,49.2,168.6,37.5,201.9c10.4,5.5,20.8,22.2,20.8,22.2s2.1,1.4-2.1,2.8s25,15.3,87.4,15.3l0,0l0,0l0,0l0,0
			c62.4,0,91.6-13.9,87.4-15.3s-2.1-2.8-2.1-2.8s10.4-16.6,20.8-22.2c-11.8-33.3,27.1-194.2,37.5-201.9
			C941,584.5,930.6,579.6,930.6,579.6z"/>
	</g>
	<g id="Layer_4_copy_1_">
		
			<radialGradient id="SVGID_26_" cx="841.7296" cy="-59.2058" r="292.6316" gradientTransform="matrix(-1.650668e-03 -1 -0.5695 9.400374e-04 752.2186 1672.7789)" gradientUnits="userSpaceOnUse">
			<stop  offset="0" style="stop-color:#F3F3F7;stop-opacity:3.000000e-02"/>
			<stop  offset="1" style="stop-color:#D7D8DC"/>
		</radialGradient>
		<path class="st27" d="M930.6,579.6c0,0,8.3,21.5-143.6,20.1l0,0l0,0l0,0l0,0c-151.9,1.4-143.6-20.1-143.6-20.1s-10.4,4.9,0,12.5
			c10.4,7.6,49.2,168.6,37.5,201.9c10.4,5.5,20.8,22.2,20.8,22.2s2.1,1.4-2.1,2.8s25,15.3,87.4,15.3l0,0l0,0l0,0l0,0
			c62.4,0,91.6-13.9,87.4-15.3s-2.1-2.8-2.1-2.8s10.4-16.6,20.8-22.2c-11.8-33.3,27.1-194.2,37.5-201.9
			C941,584.5,930.6,579.6,930.6,579.6z"/>
	</g>
	<g id="Layer_7_1_">
		
			<linearGradient id="SVGID_27_" gradientUnits="userSpaceOnUse" x1="931.6455" y1="326.0192" x2="877.4346" y2="331.0122" gradientTransform="matrix(1 0 0 -1 0 1024)">
			<stop  offset="0.1621" style="stop-color:#D0D4DB"/>
			<stop  offset="0.9781" style="stop-color:#D0D4DB;stop-opacity:2.611685e-02"/>
			<stop  offset="1" style="stop-color:#D0D4DB;stop-opacity:0"/>
		</linearGradient>
		<path class="st28" d="M906.9,592.5c0,0-49.9,185.3-31.1,218.7c5.1-5,10.4-14.4,17.4-17.3c-8-42.7,20.1-170.3,37.5-201.9
			c0.6-2.2,4.6-2.4,4.6-6.7c0.7-2.8-4.6-5.8-4.6-5.8s1.5,4.4-8.3,8.2C914.2,591.5,906.9,592.5,906.9,592.5z"/>
	</g>
	<g id="Layer_9_1_">
		
			<linearGradient id="SVGID_28_" gradientUnits="userSpaceOnUse" x1="895.4858" y1="408.6173" x2="869.0886" y2="214.5199" gradientTransform="matrix(1 0 0 -1 0 1024)">
			<stop  offset="0" style="stop-color:#DFE1E6;stop-opacity:0.7"/>
			<stop  offset="1" style="stop-color:#DFE1E6;stop-opacity:0"/>
		</linearGradient>
		<path class="st29" d="M901.2,594.3c0,0-55,169.3-26.7,221.8l3.6-4.6c-18.7-46.1,30.9-219,30.9-219L901.2,594.3z"/>
	</g>
	<g id="Layer_4_copy_2_1_">
		
			<radialGradient id="SVGID_29_" cx="676.7582" cy="419.0338" r="80.4327" gradientTransform="matrix(4.714199e-03 1 8.741 -4.120727e-02 -2892.1289 -68.0091)" gradientUnits="userSpaceOnUse">
			<stop  offset="0" style="stop-color:#FDFEFF"/>
			<stop  offset="5.886023e-02" style="stop-color:#FDFEFF"/>
			<stop  offset="6.854894e-02" style="stop-color:#FDFEFF"/>
			<stop  offset="0.1357" style="stop-color:#FBFCFD;stop-opacity:0.8912"/>
			<stop  offset="0.1616" style="stop-color:#F4F5F7;stop-opacity:0.8491"/>
			<stop  offset="0.1804" style="stop-color:#E8E9EB;stop-opacity:0.8187"/>
			<stop  offset="0.192" style="stop-color:#DCDDE0;stop-opacity:0.8"/>
			<stop  offset="0.2951" style="stop-color:#DDDEE1;stop-opacity:0"/>
			<stop  offset="1" style="stop-color:#DFE0E4;stop-opacity:0"/>
		</radialGradient>
		<path class="st30" d="M930.6,579.6c0,0,8.3,21.5-143.6,20.1l0,0l0,0c-151.9,1.4-143.6-20.1-143.6-20.1s-10.4,4.9,0,12.5
			c1.7,1.2,10,27.3,12.9,35.4c34.1,14.4,104.6,7.8,243.1-20.1c12.4-2.5,17.7-12.3,31.2-15.3C941,584.5,930.6,579.6,930.6,579.6z"/>
	</g>
	<g id="Layer_11_1_">
		
			<linearGradient id="SVGID_30_" gradientUnits="userSpaceOnUse" x1="673.8694" y1="336.3474" x2="680.3044" y2="337.1518" gradientTransform="matrix(1 0 0 -1 0 1024)">
			<stop  offset="0" style="stop-color:#DDE9F3;stop-opacity:0.6"/>
			<stop  offset="1.928165e-02" style="stop-color:#DDE9F3;stop-opacity:0.5857"/>
			<stop  offset="0.1348" style="stop-color:#DDE9F3;stop-opacity:0.5"/>
		</linearGradient>
		<path class="st31" d="M643.4,579.6c0,0-10.4,4.9,0,12.5c10.4,7.6,49.2,168.6,37.5,201.9c1.9,1,3.8,2.4,5.6,4c0,0,0-0.1,0.1-0.1
			c14.3-38.7-29.3-200.8-34.6-204.1c-3.7-2.3-5-6.6-5.5-8.9C642.6,581.8,643.4,579.6,643.4,579.6z"/>
	</g>
</g>
</svg>
