<?xml version="1.0" encoding="utf-8"?>
<!-- Generator: Adobe Illustrator 23.0.2, SVG Export Plug-In . SVG Version: 6.00 Build 0)  -->
<svg version="1.1" xmlns="http://www.w3.org/2000/svg" xmlns:xlink="http://www.w3.org/1999/xlink" x="0px" y="0px"
	 viewBox="0 0 1024 1024" style="enable-background:new 0 0 1024 1024;" xml:space="preserve">
<style type="text/css">
	.st0{fill:url(#circle954_1_);}
	.st1{fill:#FF001D;}
	.st2{fill:#FFFFFF;}
	.st3{fill:#00B5FF;}
</style>
<g id="Layer_1" xmlns:cc="http://creativecommons.org/ns#" xmlns:dc="http://purl.org/dc/elements/1.1/" xmlns:inkscape="http://www.inkscape.org/namespaces/inkscape" xmlns:rdf="http://www.w3.org/1999/02/22-rdf-syntax-ns#" xmlns:sodipodi="http://sodipodi.sourceforge.net/DTD/sodipodi-0.dtd" xmlns:svg="http://www.w3.org/2000/svg">
	
		<sodipodi:namedview  bordercolor="#666666" borderopacity="1" gridtolerance="10" guidetolerance="10" id="namedview2240" inkscape:current-layer="Layer_1" inkscape:cx="-617.21687" inkscape:cy="34.528894" inkscape:pageopacity="0" inkscape:pageshadow="2" inkscape:window-height="956" inkscape:window-maximized="1" inkscape:window-width="1680" inkscape:window-x="0" inkscape:window-y="1" inkscape:zoom="0.32593203" objecttolerance="10" pagecolor="#ffffff" showgrid="false">
		</sodipodi:namedview>
	<g id="Circle">
		
			<radialGradient id="circle954_1_" cx="534.9938" cy="153.1427" r="954.2032" gradientTransform="matrix(1 0 0 -1 0 50)" gradientUnits="userSpaceOnUse">
			<stop  offset="0" style="stop-color:#FBFAFA"/>
			<stop  offset="1" style="stop-color:#D5D5D5"/>
		</radialGradient>
		<circle id="circle954" class="st0" cx="512" cy="512" r="447"/>
		<circle id="circle961" cx="512" cy="512" r="409"/>
	</g>
</g>
<g id="Layer_4">
	<path class="st1" d="M356.5,827L356.5,827c-3.6,0-6.5-2.9-6.5-6.5v-608c0-3.6,2.9-6.5,6.5-6.5l0,0c3.6,0,6.5,2.9,6.5,6.5v608
		C363,824.1,360.1,827,356.5,827z"/>
	<path class="st1" d="M387.7,768.2L387.7,768.2c-3.6,0-6.5-2.9-6.5-6.5V281c0-3.6,2.9-6.5,6.5-6.5l0,0c3.6,0,6.5,2.9,6.5,6.5v480.7
		C394.2,765.3,391.3,768.2,387.7,768.2z"/>
	<path class="st1" d="M418.8,657.5L418.8,657.5c-3.6,0-6.5-2.9-6.5-6.5V391.7c0-3.6,2.9-6.5,6.5-6.5l0,0c3.6,0,6.5,2.9,6.5,6.5V651
		C425.3,654.6,422.4,657.5,418.8,657.5z"/>
	<path class="st1" d="M450.7,576.9L450.7,576.9c-3.6,0-6.5-2.9-6.5-6.5v-98c0-3.6,2.9-6.5,6.5-6.5l0,0c3.6,0,6.5,2.9,6.5,6.5v98
		C457.2,573.9,454.3,576.9,450.7,576.9z"/>
	<path class="st2" d="M543.2,613.6L543.2,613.6c-3.6,0-6.5-2.9-6.5-6.5V435.6c0-3.6,2.9-6.5,6.5-6.5h0c3.6,0,6.5,2.9,6.5,6.5v171.5
		C549.7,610.7,546.8,613.6,543.2,613.6z"/>
	<path class="st2" d="M572.9,586.2L572.9,586.2c-3.6,0-6.5-2.9-6.5-6.5V457.2c0-3.6,2.9-6.5,6.5-6.5l0,0c3.6,0,6.5,2.9,6.5,6.5
		v122.6C579.4,583.3,576.5,586.2,572.9,586.2z"/>
	<path class="st2" d="M604.3,564L604.3,564c-3.6,0-6.5-2.9-6.5-6.5v-78.1c0-3.6,2.9-6.5,6.5-6.5l0,0c3.6,0,6.5,2.9,6.5,6.5v78.1
		C610.8,561.1,607.9,564,604.3,564z"/>
	<path class="st2" d="M635,542.7L635,542.7c-3.6,0-6.5-2.9-6.5-6.5v-35.5c0-3.6,2.9-6.5,6.5-6.5l0,0c3.6,0,6.5,2.9,6.5,6.5v35.5
		C641.5,539.8,638.6,542.7,635,542.7z"/>
	<path class="st2" d="M665.9,537.2L665.9,537.2c-3.6,0-6.5-2.9-6.5-6.5v-24.6c0-3.6,2.9-6.5,6.5-6.5l0,0c3.6,0,6.5,2.9,6.5,6.5v24.6
		C672.4,534.3,669.5,537.2,665.9,537.2z"/>
	<path class="st2" d="M696.4,544.4L696.4,544.4c-3.6,0-6.5-2.9-6.5-6.5V499c0-3.6,2.9-6.5,6.5-6.5l0,0c3.6,0,6.5,2.9,6.5,6.5v38.9
		C702.9,541.5,700,544.4,696.4,544.4z"/>
	<path class="st2" d="M727.8,534.3L727.8,534.3c-3.6,0-6.5-2.9-6.5-6.5v-18.8c0-3.6,2.9-6.5,6.5-6.5l0,0c3.6,0,6.5,2.9,6.5,6.5v18.8
		C734.3,531.4,731.4,534.3,727.8,534.3z"/>
	<path class="st2" d="M758.5,547.1L758.5,547.1c-3.6,0-6.5-2.9-6.5-6.5v-44.4c0-3.6,2.9-6.5,6.5-6.5h0c3.6,0,6.5,2.9,6.5,6.5v44.4
		C765,544.2,762,547.1,758.5,547.1z"/>
	<path class="st2" d="M789.6,537.2L789.6,537.2c-3.6,0-6.5-2.9-6.5-6.5v-24.6c0-3.6,2.9-6.5,6.5-6.5l0,0c3.6,0,6.5,2.9,6.5,6.5v24.6
		C796.1,534.3,793.2,537.2,789.6,537.2z"/>
	<path class="st2" d="M820.1,537.2L820.1,537.2c-3.6,0-6.5-2.9-6.5-6.5v-24.6c0-3.6,2.9-6.5,6.5-6.5l0,0c3.6,0,6.5,2.9,6.5,6.5v24.6
		C826.6,534.3,823.7,537.2,820.1,537.2z"/>
	<path class="st2" d="M851.2,537.2L851.2,537.2c-3.6,0-6.5-2.9-6.5-6.5v-24.6c0-3.6,2.9-6.5,6.5-6.5l0,0c3.6,0,6.5,2.9,6.5,6.5v24.6
		C857.7,534.3,854.8,537.2,851.2,537.2z"/>
	<path class="st2" d="M883.1,537.2L883.1,537.2c-3.6,0-6.5-2.9-6.5-6.5v-24.6c0-3.6,2.9-6.5,6.5-6.5l0,0c3.6,0,6.5,2.9,6.5,6.5v24.6
		C889.6,534.3,886.7,537.2,883.1,537.2z"/>
	<path class="st2" d="M911.9,531.7L911.9,531.7c-3.6,0-6.5-2.9-6.5-6.5v-13.4c0-3.6,2.9-6.5,6.5-6.5l0,0c3.6,0,6.5,2.9,6.5,6.5v13.4
		C918.4,528.8,915.5,531.7,911.9,531.7z"/>
	<path class="st1" d="M480,612.5L480,612.5c-3.6,0-6.5-2.9-6.5-6.5V436.7c0-3.6,2.9-6.5,6.5-6.5h0c3.6,0,6.5,2.9,6.5,6.5V606
		C486.5,609.6,483.6,612.5,480,612.5z"/>
	<path class="st1" d="M264,536.7L264,536.7c-3.6,0-6.5-2.9-6.5-6.5v-38.5c0-3.6,2.9-6.5,6.5-6.5h0c3.6,0,6.5,2.9,6.5,6.5v38.5
		C270.5,533.8,267.6,536.7,264,536.7z"/>
	<path class="st1" d="M294.8,607.7L294.8,607.7c-3.6,0-6.5-2.9-6.5-6.5V420.7c0-3.6,2.9-6.5,6.5-6.5h0c3.6,0,6.5,2.9,6.5,6.5v180.5
		C301.3,604.8,298.4,607.7,294.8,607.7z"/>
	<path class="st1" d="M325.6,657.7L325.6,657.7c-3.6,0-6.5-2.9-6.5-6.5V370.7c0-3.6,2.9-6.5,6.5-6.5h0c3.6,0,6.5,2.9,6.5,6.5v280.5
		C332.1,654.8,329.2,657.7,325.6,657.7z"/>
	<path class="st1" d="M233.1,524.5L233.1,524.5c-3.6,0-6.5-2.9-6.5-6.5v-14.1c0-3.6,2.9-6.5,6.5-6.5h0c3.6,0,6.5,2.9,6.5,6.5V518
		C239.6,521.6,236.7,524.5,233.1,524.5z"/>
	<path class="st1" d="M201.7,524.5L201.7,524.5c-3.6,0-6.5-2.9-6.5-6.5v-14.1c0-3.6,2.9-6.5,6.5-6.5h0c3.6,0,6.5,2.9,6.5,6.5V518
		C208.2,521.6,205.2,524.5,201.7,524.5z"/>
	<path class="st1" d="M170.7,518.5L170.7,518.5c-3.6,0-6.5-2.9-6.5-6.5v-2c0-3.6,2.9-6.5,6.5-6.5h0c3.6,0,6.5,2.9,6.5,6.5v2
		C177.2,515.5,174.3,518.5,170.7,518.5z"/>
	<path class="st1" d="M170.7,518.5L170.7,518.5c-3.6,0-6.5-2.9-6.5-6.5v-2c0-3.6,2.9-6.5,6.5-6.5h0c3.6,0,6.5,2.9,6.5,6.5v2
		C177.2,515.5,174.3,518.5,170.7,518.5z"/>
	<path class="st1" d="M140.8,530.3L140.8,530.3c-3.6,0-6.5-2.9-6.5-6.5v-25.6c0-3.6,2.9-6.5,6.5-6.5h0c3.6,0,6.5,2.9,6.5,6.5v25.6
		C147.3,527.4,144.4,530.3,140.8,530.3z"/>
	<path class="st1" d="M112.7,524.5L112.7,524.5c-3.6,0-6.5-2.9-6.5-6.5v-14.1c0-3.6,2.9-6.5,6.5-6.5h0c3.6,0,6.5,2.9,6.5,6.5V518
		C119.2,521.6,116.3,524.5,112.7,524.5z"/>
</g>
<g id="Layer_3">
	<path class="st3" d="M511.8,883.9L511.8,883.9c-10.2,0-18.5-8.3-18.5-18.5V159.5c0-10.2,8.3-18.5,18.5-18.5h0
		c10.2,0,18.5,8.3,18.5,18.5v705.8C530.3,875.6,522,883.9,511.8,883.9z"/>
</g>
</svg>
