<?xml version="1.0" encoding="UTF-8" standalone="no"?>
<!-- Generator: Adobe Illustrator 21.1.0, SVG Export Plug-In . SVG Version: 6.00 Build 0)  -->

<svg
   xmlns:dc="http://purl.org/dc/elements/1.1/"
   xmlns:cc="http://creativecommons.org/ns#"
   xmlns:rdf="http://www.w3.org/1999/02/22-rdf-syntax-ns#"
   xmlns:svg="http://www.w3.org/2000/svg"
   xmlns="http://www.w3.org/2000/svg"
   xmlns:sodipodi="http://sodipodi.sourceforge.net/DTD/sodipodi-0.dtd"
   xmlns:inkscape="http://www.inkscape.org/namespaces/inkscape"
   version="1.1"
   id="Layer_1"
   inkscape:version="0.92.2 5c3e80d, 2017-08-06"
   sodipodi:docname="org.gnome.Podcasts.svg"
   x="0px"
   y="0px"
   viewBox="0 0 1024 1024"
   style="enable-background:new 0 0 1024 1024;"
   xml:space="preserve"><metadata
     id="metadata2244"><rdf:RDF><cc:Work
         rdf:about=""><dc:format>image/svg+xml</dc:format><dc:type
           rdf:resource="http://purl.org/dc/dcmitype/StillImage" /></cc:Work></rdf:RDF></metadata><defs
     id="defs2242"><filter
       inkscape:collect="always"
       style="color-interpolation-filters:sRGB"
       id="filter2793"
       x="-0.059362431"
       width="1.1187249"
       y="-0.060651413"
       height="1.1213028"><feGaussianBlur
         inkscape:collect="always"
         stdDeviation="10.82375"
         id="feGaussianBlur2795" /></filter></defs><sodipodi:namedview
     pagecolor="#ffffff"
     bordercolor="#666666"
     borderopacity="1"
     objecttolerance="10"
     gridtolerance="10"
     guidetolerance="10"
     inkscape:pageopacity="0"
     inkscape:pageshadow="2"
     inkscape:window-width="1680"
     inkscape:window-height="956"
     id="namedview2240"
     showgrid="false"
     inkscape:zoom="0.32593203"
     inkscape:cx="-617.21687"
     inkscape:cy="34.528894"
     inkscape:window-x="0"
     inkscape:window-y="1"
     inkscape:window-maximized="1"
     inkscape:current-layer="Layer_1" /><style
     type="text/css"
     id="style2206">
	.st0{fill:url(#circle954_1_);}
	.st1{fill:url(#circle961_1_);}
	.st2{opacity:0.15;}
	.st3{fill:#FFFFFF;}
</style><g
     id="Circle"><radialGradient
       id="circle954_1_"
       cx="534.9938"
       cy="870.8573"
       r="954.2032"
       gradientTransform="matrix(1 0 0 1 0 -974)"
       gradientUnits="userSpaceOnUse"><stop
         offset="0"
         style="stop-color:#FBFAFA"
         id="stop2208" /><stop
         offset="1"
         style="stop-color:#D5D5D5"
         id="stop2210" /></radialGradient><circle
       id="circle954"
       class="st0"
       cx="512"
       cy="512"
       r="447" /><linearGradient
       id="circle961_1_"
       gradientUnits="userSpaceOnUse"
       x1="512"
       y1="910.093"
       x2="512"
       y2="102.9095"
       gradientTransform="matrix(1 0 0 -1 0 1026)"><stop
         offset="0"
         style="stop-color:#E160FF"
         id="stop2214" /><stop
         offset="0.2851"
         style="stop-color:#C646EC"
         id="stop2216" /><stop
         offset="0.7543"
         style="stop-color:#A020D1"
         id="stop2218" /><stop
         offset="1"
         style="stop-color:#9112C7"
         id="stop2220" /></linearGradient><circle
       id="circle961"
       class="st1"
       cx="512"
       cy="512"
       r="409" /></g><g
     class="st2"
     id="g2229"
     style="opacity:0.15;filter:url(#filter2793)"><path
       d="M 728.8,522.8 C 728.8,464.4 706,409.4 664.7,368.1 623.4,326.8 568.4,304 510,304 c -58.4,0 -113.4,22.8 -154.7,64.1 -41.3,41.3 -64.1,96.3 -64.1,154.7 0,58.4 22.8,113.4 64.1,154.7 25.9,25.9 57.1,44.5 91.2,54.8 v -30.7 c -26.2,-9.3 -50.3,-24.4 -70.5,-44.7 -35.8,-35.8 -55.5,-83.4 -55.5,-134.1 0,-50.7 19.7,-98.3 55.5,-134.1 35.8,-35.8 83.4,-55.5 134.1,-55.5 50.7,0 98.3,19.7 134.1,55.5 35.8,35.8 55.5,83.4 55.5,134.1 0,50.7 -19.7,98.3 -55.5,134.1 -20.3,20.3 -44.3,35.4 -70.5,44.7 v 30.7 C 607.8,722 639,703.4 664.9,677.5 706,636.2 728.8,581.3 728.8,522.8 Z"
       id="path2225"
       inkscape:connector-curvature="0" /><path
       d="m 652.1,522.8 c 0,-38 -14.8,-73.7 -41.6,-100.5 C 583.7,395.5 548,380.7 510,380.7 c -38,0 -73.7,14.8 -100.5,41.6 -26.8,26.8 -41.6,62.5 -41.6,100.5 0,38 14.8,73.7 41.6,100.5 11,11 23.4,19.9 36.9,26.7 V 616.1 C 416.6,595.7 397,561.5 397,522.7 c 0,-62.3 50.7,-113 113,-113 62.3,0 113,50.7 113,113 0,38.7 -19.6,73 -49.4,93.4 V 650 c 13.5,-6.8 26,-15.7 36.9,-26.7 26.8,-26.8 41.6,-62.5 41.6,-100.5 z"
       id="path2227"
       inkscape:connector-curvature="0" /></g><path
     class="st3"
     d="M510,466.9c-25.1,0-45.5,20.4-45.5,45.5S484.9,558,510,558c25.1,0,45.5-20.4,45.5-45.5S535.1,466.9,510,466.9z"
     id="path2231" /><g
     id="g2237"><path
       class="st3"
       d="M 728.8,512.4 C 728.8,454 706,399 664.7,357.7 623.4,316.4 568.4,293.6 510,293.6 c -58.4,0 -113.4,22.8 -154.7,64.1 -41.3,41.3 -64.1,96.3 -64.1,154.7 0,58.4 22.8,113.4 64.1,154.7 25.9,25.9 57.1,44.5 91.2,54.8 v -30.7 c -26.2,-9.3 -50.3,-24.4 -70.5,-44.7 -35.8,-35.8 -55.5,-83.4 -55.5,-134.1 0,-50.7 19.7,-98.3 55.5,-134.1 35.8,-35.8 83.4,-55.5 134.1,-55.5 50.7,0 98.3,19.7 134.1,55.5 35.8,35.8 55.5,83.4 55.5,134.1 0,50.7 -19.7,98.3 -55.5,134.1 -20.3,20.3 -44.3,35.4 -70.5,44.7 v 30.7 C 607.8,711.6 639,693 664.9,667.1 706,625.8 728.8,570.9 728.8,512.4 Z"
       id="path2233"
       inkscape:connector-curvature="0"
       style="fill:#ffffff" /><path
       class="st3"
       d="m 652.1,512.4 c 0,-38 -14.8,-73.7 -41.6,-100.5 C 583.7,385.1 548,370.3 510,370.3 c -38,0 -73.7,14.8 -100.5,41.6 -26.8,26.8 -41.6,62.5 -41.6,100.5 0,38 14.8,73.7 41.6,100.5 11,11 23.4,19.9 36.9,26.7 V 605.7 C 416.6,585.3 397,551.1 397,512.3 c 0,-62.3 50.7,-113 113,-113 62.3,0 113,50.7 113,113 0,38.7 -19.6,73 -49.4,93.4 v 33.9 c 13.5,-6.8 26,-15.7 36.9,-26.7 26.8,-26.8 41.6,-62.5 41.6,-100.5 z"
       id="path2235"
       inkscape:connector-curvature="0"
       style="fill:#ffffff" /></g></svg>