<?xml version="1.0" encoding="utf-8"?>
<!-- Generator: Adobe Illustrator 21.1.0, SVG Export Plug-In . SVG Version: 6.00 Build 0)  -->
<!-- Artist: @KevDoy for Trenta.io -->

<svg version="1.1" xmlns="http://www.w3.org/2000/svg" xmlns:xlink="http://www.w3.org/1999/xlink" x="0px" y="0px"
	 viewBox="0 0 1024 1024" style="enable-background:new 0 0 1024 1024;" xml:space="preserve">
<style type="text/css">
	.st0{display:none;fill:#E9E4D4;}
	.st1{fill:#FFFFFF;}
	.st2{fill:#E9E4D4;}
	.st3{fill:#72C85A;}
	.st4{fill:#00B1D9;}
	.st5{fill:#0DA0C2;}
	.st6{fill:#D9D9D9;}
	.st7{fill:#BFBFBF;}
	.st8{fill:#DCDCDC;}
	.st9{fill:#FFE802;}
	.st10{fill:#EBD601;}
	.st11{fill:#E81F1F;}
	.st12{opacity:0.1;fill:#FFFFFF;}
	.st13{opacity:0.1;}
</style>
<g id="gnome-maps">
</g>
<g id="Layer_2">
	
		<rect x="149.4" y="150.2" transform="matrix(0.9877 -0.1564 0.1564 0.9877 -73.8802 86.3766)" class="st0" width="725" height="725"/>
</g>
<g id="Layer_4">
	<g>
		<g>
			
				<rect x="119.6" y="120" transform="matrix(0.9877 -0.1564 0.1564 0.9877 -73.8037 86.3549)" class="st1" width="784.4" height="784.4"/>
			
				<rect x="149.4" y="150.2" transform="matrix(0.9877 -0.1564 0.1564 0.9877 -73.8802 86.3766)" class="st2" width="725" height="725"/>
		</g>
		<polygon class="st3" points="237,923.2 562.1,871.7 681.3,118.8 356.3,170.3 		"/>
		<g>
			<polygon class="st4" points="258.9,562 150,544.7 205.8,897 			"/>
			<polygon class="st5" points="212.3,919.9 268.7,563.5 270.3,553.7 260.4,552.1 148.4,534.4 150,544.7 258.9,562 205.8,897 
				210.6,927.4 211.1,927.3 			"/>
		</g>
		<g>
			<polygon class="st6" points="818.7,131.9 714.9,115.5 662.5,446.2 873.7,479.7 			"/>
			<polygon class="st7" points="873.7,479.7 662.5,446.2 714.9,115.5 818.7,131.9 817,121.5 740.7,109.4 704.9,115.1 652.7,444.7 
				651.1,454.5 661,456.1 875.4,490.1 			"/>
		</g>
		<g>
			<polygon class="st1" points="881.3,527.7 694.9,498.2 655.4,491.9 649.1,531.4 596.1,866.4 637.7,859.8 688.7,537.7 887.9,569.3 
							"/>
			<g>
				<polygon class="st8" points="887.9,569.3 688.7,537.7 637.7,859.8 648.1,858.1 697,549.1 889.6,579.6 				"/>
				<polygon class="st8" points="596.1,866.4 649.1,531.4 655.4,491.9 694.9,498.2 881.3,527.7 879.7,517.3 696.5,488.3 657,482 
					647.1,480.5 645.5,490.3 639.3,529.9 585.7,868 				"/>
			</g>
		</g>
		<g>
			<polygon class="st1" points="139.5,478.2 229.3,492.4 268.9,498.7 275.1,459.2 320,176 278.4,182.6 235.6,452.9 132.9,436.6 			
				"/>
			<g>
				<polygon class="st8" points="267.3,508.6 277.2,510.1 278.8,500.3 285,460.7 330.4,174.4 320,176 275.1,459.2 268.9,498.7 
					229.3,492.4 139.5,478.2 141.1,488.6 227.8,502.3 				"/>
				<polygon class="st8" points="132.9,436.6 235.6,452.9 278.4,182.6 268,184.3 227.3,441.5 131.2,426.2 				"/>
			</g>
		</g>
		<g>
			<path class="st9" d="M902.7,662.7c-24.7,5.4-46.7,16.4-65.5,33.1c-18.1,16.1-33,37.1-44.1,62.5c-15.8,35.9-19.7,70.6-20.5,80.1
				l66-10.4c2.1-11.9,6.2-28.6,13.7-45.3c14-31,33.9-49.6,60.5-56.6L902.7,662.7z"/>
			<g>
				<path class="st10" d="M912.8,726.1c-26.6,6.9-46.5,25.6-60.5,56.6c-7.5,16.7-11.6,33.4-13.7,45.3l10.5-1.7
					c2.2-10.9,5.9-25.3,12.4-39.5c7.7-16.9,16.9-29.5,28.1-38.3c7.4-5.8,15.6-9.9,24.8-12.5L912.8,726.1z"/>
				<path class="st10" d="M762.4,840l10.1-1.6c0.8-9.5,4.7-44.2,20.5-80.1c11.2-25.4,26-46.4,44.1-62.5
					c18.8-16.7,40.8-27.8,65.5-33.1l-1.6-9.9c-26.6,5.7-50.3,17.6-70.6,35.6c-19.2,17-34.9,39.2-46.7,65.9
					C765.7,795.7,762.7,835.8,762.4,840z"/>
			</g>
		</g>
		<g>
			<path class="st11" d="M839.5,381.8c-18.1-60.3-69-108.4-135.3-119.6c-8.1-1.4-16.1-2.1-24-2.4v0c-0.1,0-0.1,0-0.2,0
				c-0.1,0-0.1,0-0.2,0v0c-7.9,0.2-16,1-24,2.4c-66.3,11.3-117.2,59.3-135.3,119.6c0,0-61.7,113.7,159.5,438v0c0,0,0,0,0,0
				c0,0,0,0,0,0v0C901.2,495.5,839.5,381.8,839.5,381.8z M679.8,504c-42.1,0-76.3-34.1-76.3-76.3c0-42.1,34.1-76.3,76.3-76.3
				c42.1,0,76.3,34.1,76.3,76.3C756,469.9,721.9,504,679.8,504z"/>
			<path class="st12" d="M659.3,261.7c-1.2,0.2-2.4,0.3-3.6,0.5c-66.3,11.3-117.2,59.3-135.3,119.6c0,0-39.7,73.2,58.8,269.6
				C548.6,531.1,541.7,373.4,659.3,261.7z"/>
			<path class="st13" d="M646.5,769c10.4,16.3,21.5,33.2,33.5,50.8v0c0,0,0,0,0,0c0,0,0,0,0,0v0c162.5-238.1,172.4-362.6,166.1-412
				C803.3,610.7,689.7,729.9,646.5,769z"/>
		</g>
	</g>
	<g id="Layer_5">
	</g>
</g>
</svg>
