<?xml version="1.0" encoding="UTF-8" standalone="no"?>
<!-- Created with Inkscape (http://www.inkscape.org/) -->
<!-- Artist: @Genghis-Khanr for Trenta.io -->
<svg
   xmlns:dc="http://purl.org/dc/elements/1.1/"
   xmlns:cc="http://creativecommons.org/ns#"
   xmlns:rdf="http://www.w3.org/1999/02/22-rdf-syntax-ns#"
   xmlns:svg="http://www.w3.org/2000/svg"
   xmlns="http://www.w3.org/2000/svg"
   xmlns:sodipodi="http://sodipodi.sourceforge.net/DTD/sodipodi-0.dtd"
   xmlns:inkscape="http://www.inkscape.org/namespaces/inkscape"
   version="1.1"
   id="svg10"
   xml:space="preserve"
   width="1376"
   height="1393.3333"
   viewBox="0 0 1376 1393.3333"
   sodipodi:docname="help.svg"
   inkscape:version="0.92.3 (2405546, 2018-03-11)"><metadata
     id="metadata16"><rdf:RDF><cc:Work
         rdf:about=""><dc:format>image/svg+xml</dc:format><dc:type
           rdf:resource="http://purl.org/dc/dcmitype/StillImage" /><dc:title></dc:title></cc:Work></rdf:RDF></metadata><defs
     id="defs14"><linearGradient
       x1="0"
       y1="0"
       x2="1"
       y2="0"
       gradientUnits="userSpaceOnUse"
       gradientTransform="matrix(2.6666665,-881.33331,-881.33331,-2.6666665,511.14752,979.99841)"
       spreadMethod="pad"
       id="linearGradient36"><stop
         style="stop-opacity:1;stop-color:#f7f6f7"
         offset="0"
         id="stop32" /><stop
         style="stop-opacity:1;stop-color:#d7d6dc"
         offset="1"
         id="stop34" /></linearGradient><linearGradient
       x1="0"
       y1="0"
       x2="1"
       y2="0"
       gradientUnits="userSpaceOnUse"
       gradientTransform="matrix(-4.0540199,895.93848,895.93848,4.0540199,514.53784,82.639877)"
       spreadMethod="pad"
       id="linearGradient56"><stop
         style="stop-opacity:1;stop-color:#f49211"
         offset="0"
         id="stop52" /><stop
         style="stop-opacity:1;stop-color:#f2ad39"
         offset="1"
         id="stop54" /></linearGradient><linearGradient
       x1="0"
       y1="0"
       x2="1"
       y2="0"
       gradientUnits="userSpaceOnUse"
       gradientTransform="matrix(-9.333334,-892,-892,9.333334,517.96069,977.30933)"
       spreadMethod="pad"
       id="linearGradient80"><stop
         style="stop-opacity:1;stop-color:#f7f6f7"
         offset="0"
         id="stop72" /><stop
         style="stop-opacity:1;stop-color:#d7d6dc"
         offset="0.80990643"
         id="stop74" /><stop
         style="stop-opacity:1;stop-color:#d7d6dc"
         offset="0.898413"
         id="stop76" /><stop
         style="stop-opacity:1;stop-color:#d7d6dc"
         offset="1"
         id="stop78" /></linearGradient><filter
       style="color-interpolation-filters:sRGB;"
       inkscape:label="Drop Shadow"
       id="filter106"><feFlood
         flood-opacity="0.0588235"
         flood-color="rgb(0,0,0)"
         result="flood"
         id="feFlood96" /><feComposite
         in="flood"
         in2="SourceGraphic"
         operator="in"
         result="composite1"
         id="feComposite98" /><feGaussianBlur
         in="composite1"
         stdDeviation="5"
         result="blur"
         id="feGaussianBlur100" /><feOffset
         dx="10"
         dy="0"
         result="offset"
         id="feOffset102" /><feComposite
         in="SourceGraphic"
         in2="offset"
         operator="over"
         result="fbSourceGraphic"
         id="feComposite104" /><feColorMatrix
         result="fbSourceGraphicAlpha"
         in="fbSourceGraphic"
         values="0 0 0 -1 0 0 0 0 -1 0 0 0 0 -1 0 0 0 0 1 0"
         id="feColorMatrix108" /><feFlood
         id="feFlood110"
         flood-opacity="0.0588235"
         flood-color="rgb(0,0,0)"
         result="flood"
         in="fbSourceGraphic" /><feComposite
         in2="fbSourceGraphic"
         id="feComposite112"
         in="flood"
         operator="in"
         result="composite1" /><feGaussianBlur
         id="feGaussianBlur114"
         in="composite1"
         stdDeviation="5"
         result="blur" /><feOffset
         id="feOffset116"
         dx="10"
         dy="0"
         result="offset" /><feComposite
         in2="offset"
         id="feComposite118"
         in="fbSourceGraphic"
         operator="over"
         result="composite2" /></filter></defs><sodipodi:namedview
     pagecolor="#ffffff"
     bordercolor="#666666"
     borderopacity="1"
     objecttolerance="10"
     gridtolerance="10"
     guidetolerance="10"
     inkscape:pageopacity="0"
     inkscape:pageshadow="2"
     inkscape:window-width="2560"
     inkscape:window-height="1417"
     id="namedview12"
     showgrid="false"
     inkscape:zoom="0.87416273"
     inkscape:cx="1040.3371"
     inkscape:cy="613.15815"
     inkscape:window-x="1432"
     inkscape:window-y="585"
     inkscape:window-maximized="1"
     inkscape:current-layer="g18" /><g
     id="g18"
     inkscape:groupmode="layer"
     inkscape:label="help"
     transform="matrix(1.3333333,0,0,-1.3333333,0,1393.3333)"><g
       id="g20"><g
         id="g22"><g
           id="g28"><g
             id="g30"><path
               d="M 348.393,948.658 C 118.832,858.024 6.209,598.455 96.843,368.894 v 0 C 187.476,139.332 447.045,26.709 676.607,117.343 v 0 c 229.561,90.634 342.184,350.203 251.55,579.764 v 0 C 858.794,872.795 690.457,979.99 512.375,980 v 0 c -54.607,0.003 -110.109,-10.073 -163.982,-31.342"
               style="fill:url(#linearGradient36);stroke:none"
               id="path38"
               inkscape:connector-curvature="0" /></g></g></g></g><g
       id="g40"><g
         id="g42"><g
           id="g48"><g
             id="g50"><path
               d="M 434.514,929.632 C 215.46,886.56 72.798,674.067 115.869,455.014 v 0 C 158.94,235.96 371.433,93.298 590.486,136.369 v 0 c 219.054,43.07 361.716,255.565 318.644,474.618 v 0 C 871.239,803.701 702.192,937.29 512.937,937.302 v 0 c -25.866,0.002 -52.085,-2.492 -78.423,-7.67"
               style="fill:url(#linearGradient56);stroke:none"
               id="path58"
               inkscape:connector-curvature="0" /></g></g></g></g><g
       id="g60"
       style="filter:url(#filter106)"><g
         id="g62"><g
           id="g68"><g
             id="g70"><path
               d="m 412.505,746.258 c -25.286,-22.496 -38.139,-53.641 -38.554,-93.429 v 0 h 90.532 c 0.414,16.687 5.253,29.774 14.516,39.266 v 0 c 9.258,9.493 21.588,14.238 36.993,14.238 v 0 c 32.466,0 48.699,-17.618 48.699,-52.845 v 0 c 0,-11.677 -3.122,-22.779 -9.365,-33.305 v 0 c -6.243,-10.527 -18.784,-24.175 -37.617,-40.944 v 0 c -18.838,-16.77 -31.794,-33.804 -38.867,-51.089 v 0 c -7.077,-17.293 -10.613,-40.52 -10.613,-69.685 v 0 h 79.917 l 1.248,19.062 c 2.289,20.413 11.341,38.223 27.159,53.432 v 0 l 25.287,24.061 c 19.77,19.165 33.609,36.613 41.52,52.339 v 0 c 7.907,15.726 11.862,32.446 11.862,50.153 v 0 c 0,38.954 -12.174,69.108 -36.524,90.463 v 0 c -24.35,21.355 -58.587,32.033 -102.706,32.033 v 0 c -43.705,0 -78.2,-11.253 -103.487,-33.75 m 60.874,-349.092 c -9.472,-9.023 -14.203,-20.486 -14.203,-34.383 v 0 c 0,-13.692 4.628,-24.999 13.891,-33.915 v 0 c 9.258,-8.922 21.487,-13.379 36.681,-13.379 v 0 c 15.19,0 27.418,4.457 36.681,13.379 v 0 c 9.257,8.916 13.892,20.223 13.892,33.915 v 0 c 0,13.897 -4.737,25.36 -14.205,34.383 v 0 c -9.471,9.025 -21.592,13.536 -36.368,13.536 v 0 c -14.779,0 -26.901,-4.511 -36.369,-13.536"
               style="fill:url(#linearGradient80);stroke:none"
               id="path82"
               inkscape:connector-curvature="0" /></g></g></g></g></g></svg>