<?xml version="1.0" encoding="utf-8"?>
<!-- Artist: @KevDoy for Trenta.io -->
<!-- Vector Conversion by @Genghis-Khanr -->
<svg version="1.1" xmlns="http://www.w3.org/2000/svg" xmlns:xlink="http://www.w3.org/1999/xlink" x="0px" y="0px"
	 viewBox="0 0 1024 1024" style="enable-background:new 0 0 1024 1024;" xml:space="preserve">
<style type="text/css">
	.st0{fill:#3689E6;}
	.st1{fill:#ADDDFB;}
	.st2{fill:#004694;}
</style>
<g id="Picture_Box">
	<path class="st0" d="M25.5,280v608.4c0,21.9,20.1,39.6,45,39.6H955c24.9,0,45-17.7,45-39.6V280H25.5z"/>
</g>
<g id="Blue_Rectangle">
	<path class="st1" d="M25.5,280V149c0-24.9,20.1-45,45-45H955c24.9,0,45,20.1,45,45v131H25.5z"/>
</g>
<g id="Blue_Boxes">
	<path class="st2" d="M105.8,159.8H81c-1.7,0-3-1.3-3-3V132c0-1.7,1.3-3,3-3h24.8c1.7,0,3,1.3,3,3v24.8
		C108.8,158.5,107.5,159.8,105.8,159.8z"/>
	<path class="st2" d="M201.8,159.8H177c-1.7,0-3-1.3-3-3V132c0-1.7,1.3-3,3-3h24.8c1.7,0,3,1.3,3,3v24.8
		C204.8,158.5,203.5,159.8,201.8,159.8z"/>
	<path class="st2" d="M153.8,159.8H129c-1.7,0-3-1.3-3-3V132c0-1.7,1.3-3,3-3h24.8c1.7,0,3,1.3,3,3v24.8
		C156.8,158.5,155.5,159.8,153.8,159.8z"/>
	<path class="st2" d="M105.8,206.8H81c-1.7,0-3-1.3-3-3V179c0-1.7,1.3-3,3-3h24.8c1.7,0,3,1.3,3,3v24.8
		C108.8,205.5,107.5,206.8,105.8,206.8z"/>
	<path class="st2" d="M105.8,253.8H81c-1.7,0-3-1.3-3-3V226c0-1.7,1.3-3,3-3h24.8c1.7,0,3,1.3,3,3v24.8
		C108.8,252.5,107.5,253.8,105.8,253.8z"/>
	<path class="st2" d="M201.8,206.8H177c-1.7,0-3-1.3-3-3V179c0-1.7,1.3-3,3-3h24.8c1.7,0,3,1.3,3,3v24.8
		C204.8,205.5,203.5,206.8,201.8,206.8z"/>
	<path class="st2" d="M201.8,253.8H177c-1.7,0-3-1.3-3-3V226c0-1.7,1.3-3,3-3h24.8c1.7,0,3,1.3,3,3v24.8
		C204.8,252.5,203.5,253.8,201.8,253.8z"/>
	<path class="st2" d="M153.8,206.8H129c-1.7,0-3-1.3-3-3V179c0-1.7,1.3-3,3-3h24.8c1.7,0,3,1.3,3,3v24.8
		C156.8,205.5,155.5,206.8,153.8,206.8z"/>
	<path class="st2" d="M153.8,253.8H129c-1.7,0-3-1.3-3-3V226c0-1.7,1.3-3,3-3h24.8c1.7,0,3,1.3,3,3v24.8
		C156.8,252.5,155.5,253.8,153.8,253.8z"/>
</g>
</svg>
