<?xml version="1.0" encoding="utf-8"?>
<!-- Artist: @KevDoy for Trenta.io -->
<svg version="1.1" id="Layer_1" xmlns="http://www.w3.org/2000/svg" xmlns:xlink="http://www.w3.org/1999/xlink" x="0px" y="0px"
	 viewBox="0 0 1024 1024" style="enable-background:new 0 0 1024 1024;" xml:space="preserve">
<style type="text/css">
	.st0{fill:url(#SVGID_1_);}
	.st1{fill:url(#SVGID_2_);}
	.st2{fill:#FFFFFF;}
</style>
<linearGradient id="SVGID_1_" gradientUnits="userSpaceOnUse" x1="71.0199" y1="511.4333" x2="124.7063" y2="511.4333">
	<stop  offset="0" style="stop-color:#D5D9DC"/>
	<stop  offset="0.2189" style="stop-color:#F2F3F4"/>
	<stop  offset="0.4928" style="stop-color:#CBD0D4"/>
	<stop  offset="0.9993" style="stop-color:#B9C0C4"/>
</linearGradient>
<rect x="68.1" y="118.9" class="st0" width="53.9" height="785.2"/>
<linearGradient id="SVGID_2_" gradientUnits="userSpaceOnUse" x1="525.3861" y1="200.0329" x2="525.3861" y2="745.4683">
	<stop  offset="0" style="stop-color:#69CFF9"/>
	<stop  offset="0.9993" style="stop-color:#3568E9"/>
</linearGradient>
<path class="st1" d="M115.8,171.9l-4.5,565.6c0,0,94.6-64.2,280.6-13.5c185.9,50.7,411.3,142,547.6-10.1c0-165.6,0-569,0-569
	S756.1,272.1,512,185.4S115.8,171.9,115.8,171.9z"/>
<g id="_x23_ffffffff">
	<path class="st2" d="M406.7,289.5c16.8-13.6,37.8-22,59.5-23.5c21.3-1.6,43,3.5,61.5,14.2c27.5,15.8,47,44.4,51.8,75.6
		c-5.7-3.2-11.8-5.8-18-8c-5.3-18.6-16.5-35.4-31.8-47.2c-14.1-10.9-31.4-17.5-49.1-18.8c-18.8-1.4-38,3.3-54,13.1
		c-16.9,10.3-30.3,26.3-37.3,44.8c-6.1,15.8-7.7,33.4-4.5,50c3.3,17.3,11.9,33.6,24.2,46.2c-1.1,6.5-1.9,13-2,19.6
		c-17.1-13.8-29.8-33.1-35.7-54.3c-5.6-19.7-5.2-41,0.9-60.6C378.1,320.7,390.4,302.6,406.7,289.5z"/>
	<path class="st2" d="M534.4,272.8c19.4-7.4,40.9-9.1,61.1-4.6c20.4,4.5,39.4,15,53.9,30c17.4,17.8,28.1,42,29.8,66.9
		c1.6,22.2-4,44.8-15.8,63.6c-6.3,10.2-14.3,19.2-23.6,26.8c-0.1-6.6-0.8-13.1-2.1-19.6c15.7-16.2,25.3-38.3,25.8-60.9
		c0.7-21.8-6.8-43.7-20.7-60.4c-14.6-17.8-36.3-29.7-59.2-32.4c-11.2-1.4-22.5-0.6-33.4,2.2C545.3,280.1,540,276.2,534.4,272.8z"/>
	<path class="st2" d="M467.2,355.9c3.6-22.9,14.9-44.5,31.7-60.6c5.5,1.8,10.8,4.2,15.9,7.1c-14.2,11.7-24.6,27.8-29.6,45.5
		C479,350,473,352.7,467.2,355.9z"/>
	<path class="st2" d="M394.6,355.6c22.2-6.5,46.6-5.5,68.2,2.9c-5.6,3.4-10.9,7.3-15.8,11.6c-17.8-4.5-37-3.5-54.2,2.9
		C392.7,367,393.4,361.2,394.6,355.6z"/>
	<path class="st2" d="M470.2,365.4c17.2-9.9,37.1-14.8,56.9-14.1C555.4,352.2,583,365,602,386c14.4,15.6,23.9,35.6,26.9,56.6
		c3.5,23.9-1.3,49-13.7,69.8c-6.5,11-14.9,20.7-24.8,28.7c-0.2-6.5-0.9-13.1-2.1-19.5c14.6-14.9,23.8-34.9,25.5-55.6
		c2.1-23.5-5.3-47.6-20.4-65.7c-15.1-18.4-37.6-30.5-61.4-32.6c-18.7-1.8-38,2.3-54.2,11.8c-18.1,10.4-32.4,27.2-39.7,46.7
		c-6.1,16.2-7.4,34.1-3.8,51c3.5,16.7,12,32.2,23.8,44.5c-1.2,6.4-1.9,13-2.1,19.5c-20.7-16.7-34.9-41.3-38.5-67.7
		c-3.1-21.3,0.4-43.6,10.1-62.9C437,391.8,452,375.9,470.2,365.4z"/>
	<path class="st2" d="M583.8,358.4c21.6-8.4,46-9.3,68.3-2.9c1.2,5.7,1.8,11.5,1.8,17.3c-17.2-6.4-36.4-7.4-54.2-2.9
		C594.7,365.8,589.4,361.8,583.8,358.4z"/>
	<path class="st2" d="M320.1,435.3c5-23.6,18.5-45.1,37.2-60.3c0.1,6.5,0.8,13.1,2.1,19.5c-13.1,13.5-22,31-24.8,49.5
		c-3.3,21.1,1.1,43.4,12.3,61.5c13.6,22.4,37.3,38.3,63.3,42.2c15.4,2.4,31.3,0.9,45.9-4.5c0,5.5,0.3,11,1.1,16.4
		c-24.5,7.9-51.9,6.6-75.5-3.8c-23.6-10.3-43.2-29.4-54.1-52.8C317.8,482.2,315.2,458,320.1,435.3z"/>
	<path class="st2" d="M689.3,375.1c17.3,13.9,30.1,33.4,35.9,54.9c6.2,22.7,4.6,47.4-4.4,69.1c-6.8,16.3-17.7,30.9-31.5,42
		c-0.2-6.6-0.8-13.1-2.1-19.5c15.6-15.9,25.1-37.7,25.8-60c1.1-24.6-8.5-49.4-25.8-66.9C688.4,388.2,689.1,381.7,689.3,375.1z"/>
	<path class="st2" d="M548.4,380.9c10.8,3.5,20.8,9.3,29.2,16.9c-2.5,10.4-6.6,20.3-12,29.5c-6.6,0.4-13.1,1.4-19.6,2.9
		c0.8-2.2,1.6-4.5,3-6.5c7.2-10.4,12-22.5,14.3-34.9c-13.7,11.7-23.9,27.4-28.7,44.7c-3.8,1.3-7.6,2.8-11.2,4.6
		c-1.9-0.8-3.7-1.6-5.6-2.4C522.2,414.9,532.9,395.5,548.4,380.9z"/>
	<path class="st2" d="M469,397.8c8.5-7.5,18.5-13.4,29.3-16.9c7.6,7.4,14.3,15.9,19.5,25.2c-3.3,6.6-6,13.5-7.9,20.7
		c-5.4-14.7-14.6-27.9-26.6-38c2.3,12.5,7.2,24.6,14.4,35.1c1.3,1.9,2.1,4.1,2.9,6.3c-6.4-1.5-13-2.5-19.5-2.8
		C475.6,418.1,471.5,408.1,469,397.8z"/>
	<path class="st2" d="M443.9,441.2c22.2-6.7,46.7-5.5,68.3,2.8c-5.6,3.4-10.9,7.3-15.9,11.6c-17.4-4.5-36.1-3.5-53.1,2.5
		c11.9,4.2,24.7,6.1,37.3,5.1c2.5-0.3,4.9,0.2,7.3,0.6c-4.6,4.8-8.6,10-12.3,15.5c-10.7,0.2-21.3-1.3-31.6-4.3
		C441.6,463.9,441.6,452.3,443.9,441.2z"/>
	<path class="st2" d="M524.6,448.4c23.8-12.2,52.4-14.9,78-7.2c2.4,11.1,2.3,22.7,0,33.8c-10.2,3-20.9,4.4-31.5,4.3
		c-3.6-5.5-7.8-10.7-12.2-15.5c5.1-1.2,10.3-0.2,15.5-0.4c9.9-0.1,19.7-2,28.9-5.3c-21.7-7.8-46.3-7-67.3,2.4
		c-20.3,8.9-37,25.4-46.1,45.7c-9.7,21.3-10.8,46.5-2.6,68.5c5.5,15.2,15,28.8,27.4,39.1c-5,2.9-10.4,5.3-15.9,7.1
		c-14.8-14.3-25.6-32.9-30.1-53c-6.1-25.6-2-53.3,10.8-76.2C489.8,473.1,505.7,457.9,524.6,448.4z"/>
	<path class="st2" d="M370.1,518.3c5.5-22.5,18.6-43.1,36.6-57.7c0.1,6.6,0.9,13.1,2,19.6c-12.7,13.2-21.5,30.2-24.6,48.4
		C379.2,525.6,374.5,522.2,370.1,518.3z"/>
	<path class="st2" d="M639.8,460.6c15.9,12.9,28,30.3,34.3,49.8c7.5,22.7,7,47.9-1.3,70.3c-7.5,20.4-21.4,38.5-39.3,50.8
		c-19.8,13.8-44.5,20.7-68.6,18.8c-10.4-0.8-20.8-3.1-30.6-6.8c5.6-3.4,10.9-7.3,15.8-11.6c21.9,5.6,45.8,2.7,65.7-8.1
		c19.1-10.2,34.2-27.5,41.8-47.8c8-20.9,7.9-44.7-0.4-65.5c-4.4-11.2-11.1-21.6-19.5-30.2C639,473.7,639.7,467.1,639.8,460.6z"/>
	<path class="st2" d="M531.8,473.6c5-2.9,10.3-5.3,15.8-7.1c16,15.2,27,35.5,31.1,57.2c4.5,23.1,1,47.7-9.8,68.6
		c-9.7,18.8-24.9,34.7-43.4,44.8c-21.8,12.1-47.9,16.2-72.3,11.3c-22.6-4.4-43.6-16.4-58.9-33.6c-13.7-15.2-22.7-34.4-25.9-54.6
		c5.8,3.1,11.8,5.8,18,8c5.7,20.4,18.8,38.7,36.3,50.5c17.3,11.9,38.8,17.5,59.7,15.4c21.9-2,42.9-12.3,57.9-28.4
		c16.4-17.6,25.6-41.9,24.4-65.9C563.7,514.4,551.5,489.7,531.8,473.6z"/>
	<path class="st2" d="M518.4,483.5c1.6-1.4,3.2-2.8,4.9-4.1c5.9,4.7,11.4,10,15.8,16.2c1.8,3.2,3.3,6.6,5.3,9.7
		c1.3,2.2,2.9,4.2,4,6.5c4,9.3,6.2,19.3,6.6,29.4C536.9,526.6,523.9,506,518.4,483.5z"/>
	<path class="st2" d="M506.4,497.4c1-2.1,2.6-3.9,4-5.7c1.9,6.3,4.4,12.5,7.3,18.4c-6.6,11.9-15.6,22.5-26.1,31
		c0.3-8.7,2-17.3,5-25.5c0.8-2.2,1.6-4.5,3-6.4C502.2,505.5,504.5,501.5,506.4,497.4z"/>
	<path class="st2" d="M491.6,543.3c20.2,7.6,43.2,7.6,63.4,0c0,5.8-0.6,11.6-1.8,17.3c-19.4,5.6-40.4,5.6-59.8,0
		C492.1,554.9,491.6,549.1,491.6,543.3z"/>
	<path class="st2" d="M590.5,543.3c20.2,7.5,43.1,7.5,63.3,0c0,5.8-0.6,11.7-1.8,17.3c-20.4,5.8-42.5,5.6-62.6-0.9
		C590.1,554.3,590.4,548.8,590.5,543.3z"/>
</g>
</svg>
