<?xml version="1.0" encoding="utf-8"?>
<!-- Artist: @KevDoy for Trenta.io -->
<svg version="1.1" id="Layer_7" xmlns="http://www.w3.org/2000/svg" xmlns:xlink="http://www.w3.org/1999/xlink" x="0px" y="0px"
	 viewBox="0 0 1024 1024" style="enable-background:new 0 0 1024 1024;" xml:space="preserve">
<style type="text/css">
	.st0{fill:url(#SVGID_1_);}
	.st1{fill:url(#SVGID_2_);}
	.st2{fill:url(#SVGID_3_);}
	.st3{fill:url(#SVGID_4_);}
	.st4{fill:url(#SVGID_5_);}
	.st5{fill:url(#SVGID_6_);}
	.st6{fill:url(#SVGID_7_);}
	.st7{fill:url(#SVGID_8_);}
	.st8{fill:url(#SVGID_9_);}
	.st9{fill:url(#SVGID_10_);}
	.st10{fill:url(#SVGID_11_);}
	.st11{fill:url(#SVGID_12_);}
	.st12{fill:url(#SVGID_13_);}
	.st13{fill:url(#SVGID_14_);}
</style>
<g>
	<linearGradient id="SVGID_1_" gradientUnits="userSpaceOnUse" x1="237.0726" y1="897.3072" x2="121.8574" y2="140.6698">
		<stop  offset="0" style="stop-color:#868887"/>
		<stop  offset="0.5205" style="stop-color:#A6AFB2"/>
		<stop  offset="1" style="stop-color:#C1D0D5"/>
	</linearGradient>
	<path class="st0" d="M249.9,921.2L130.4,133.5c-6.1,1.5-13,2.5-16.5,0.6c-1.1-0.6-2-0.8-2.9-0.6l122.6,793.7
		C233.6,925.4,241,923.2,249.9,921.2z"/>
	<g>
		<linearGradient id="SVGID_2_" gradientUnits="userSpaceOnUse" x1="878.5561" y1="840.4269" x2="282.2666" y2="946.0688">
			<stop  offset="0" style="stop-color:#646563"/>
			<stop  offset="0.6949" style="stop-color:#434442"/>
			<stop  offset="0.7843" style="stop-color:#464745"/>
			<stop  offset="0.8616" style="stop-color:#505250"/>
			<stop  offset="0.9341" style="stop-color:#616462"/>
			<stop  offset="1" style="stop-color:#777B79"/>
		</linearGradient>
		<path class="st1" d="M908.2,814.6c-0.8-5.3-2.1-13.7-3.7-24.8c-1.6,3.8-3.5,7.2-5.7,10.3c0,0,0,0,0,0c0,0,0,0,0,0
			c8.8,76.3-57.4,80.5-57.4,80.5S417.6,947.8,288,967.7l2.1,11.9l551.4-86.8C841.6,892.9,918.7,884.7,908.2,814.6z"/>
	</g>
	<linearGradient id="SVGID_3_" gradientUnits="userSpaceOnUse" x1="561.2523" y1="796.7454" x2="372.7866" y2="-239.8158">
		<stop  offset="0" style="stop-color:#777B79"/>
		<stop  offset="8.034384e-02" style="stop-color:#858C8B"/>
		<stop  offset="0.2462" style="stop-color:#9EAAAC"/>
		<stop  offset="0.418" style="stop-color:#B1C1C5"/>
		<stop  offset="0.5961" style="stop-color:#BFD2D7"/>
		<stop  offset="0.7844" style="stop-color:#C7DCE2"/>
		<stop  offset="1" style="stop-color:#CADFE5"/>
	</linearGradient>
	<path class="st2" d="M908.2,752.7C897.6,682.6,799.5,98.4,799.5,98.4s-16.4-67.8-71.3-60.8c-54.9,7-586.5,92.3-586.5,92.3
		s-20.9,8-27.8,4c-6.9-3.9-7.7,10-7.7,10v37.5l114.5,747.8c0,0,2.5,7.4,1.8,12.3c-0.7,4.9,18.2,46.9,25.9,45.5s10.2-4.2,10.2-4.2
		l21-0.7l10.5-2.5l-2.1-12.3c0,0-20.5,4.7-37.4,6.4c-17.4-5.5-15.5-40.8-16.9-46.8c-0.2-4.2,45.2-11.4,45.2-11.4v0L841.6,831
		C841.6,831,918.7,822.8,908.2,752.7z"/>
	<linearGradient id="SVGID_4_" gradientUnits="userSpaceOnUse" x1="223.9598" y1="886.713" x2="889.2094" y2="886.713">
		<stop  offset="0" style="stop-color:#D3D2D2"/>
		<stop  offset="7.124795e-02" style="stop-color:#E0DFDF"/>
		<stop  offset="0.2036" style="stop-color:#F1F1F1"/>
		<stop  offset="0.3439" style="stop-color:#FCFCFC"/>
		<stop  offset="0.5047" style="stop-color:#FFFFFF"/>
		<stop  offset="0.6504" style="stop-color:#FBFBFB"/>
		<stop  offset="0.801" style="stop-color:#EFEEEE"/>
		<stop  offset="0.9533" style="stop-color:#DBDADA"/>
		<stop  offset="1" style="stop-color:#D3D2D2"/>
	</linearGradient>
	<path class="st3" d="M898.7,800.1c-19,26.8-57.1,30.9-57.1,30.9l-562.6,84.6v0c0,0-37.3,6-44.1,10.2c-0.4,0.8-0.5,1.3-0.5,1.3
		s0.7,28.3,8.2,40.6c1.7,2.3,3.7,4.2,6.1,5.4c0.8,0.2,1.6,0.3,2.5,0.2c2-0.2,13.2-1.9,31.2-4.6c3.4-0.7,5.6-1.2,5.6-1.2l0.1,0.3
		c129.6-19.9,553.3-87.1,553.3-87.1S907.5,876.5,898.7,800.1C898.7,800.1,898.7,800.1,898.7,800.1z"/>
	<g>
		<linearGradient id="SVGID_5_" gradientUnits="userSpaceOnUse" x1="253.6809" y1="892.8344" x2="135.5581" y2="137.4321">
			<stop  offset="0" style="stop-color:#5D5E5E"/>
			<stop  offset="0.6387" style="stop-color:#92A0A5"/>
			<stop  offset="1" style="stop-color:#ADC1C8"/>
		</linearGradient>
		<path class="st4" d="M130.4,133.5l119.4,787.7c5.1-1.2,10.7-2.3,15.6-3.2L142.6,129.8c-0.6,0.1-0.9,0.1-0.9,0.1
			S136.5,132,130.4,133.5z"/>
	</g>
	<linearGradient id="SVGID_6_" gradientUnits="userSpaceOnUse" x1="550.7175" y1="715.0891" x2="477.197" y2="235.2003">
		<stop  offset="0" style="stop-color:#3C4141"/>
		<stop  offset="0.1412" style="stop-color:#434C4E"/>
		<stop  offset="0.4034" style="stop-color:#4D5B60"/>
		<stop  offset="0.6815" style="stop-color:#53646B"/>
		<stop  offset="1" style="stop-color:#55676E"/>
	</linearGradient>
	<path class="st5" d="M728.6,620.6L527.1,245.5l-88.6,14c0,0-79.3,387.7-87.3,420.8c-7.9,33.1-46.8,37.2-46.8,37.2l5.2,33.1
		l167.7-26.6l-5.2-33.1c0,0,0,0-30.4,4.8c-30.4,4.8-31-24.9-31-24.9l14.6-91.7l156.2-24.7c0,0,30,57.6,41.5,82.9
		c9.3,23.5-18.4,32.7-18.4,32.7l-29.8,4.7l5.2,33.1l211-33.4l-5.2-33.1C748.8,651.6,728.6,620.6,728.6,620.6z M432.2,534.6
		l38.6-210.2L561.9,514L432.2,534.6z"/>
	<linearGradient id="SVGID_7_" gradientUnits="userSpaceOnUse" x1="546.9446" y1="715.6672" x2="473.4241" y2="235.7783">
		<stop  offset="0" style="stop-color:#3C4141"/>
		<stop  offset="0.1412" style="stop-color:#434C4E"/>
		<stop  offset="0.4034" style="stop-color:#4D5B60"/>
		<stop  offset="0.6815" style="stop-color:#53646B"/>
		<stop  offset="1" style="stop-color:#55676E"/>
	</linearGradient>
	<path class="st6" d="M184.9,293.9l-0.5-3l11.9-1.9l0.5,3L184.9,293.9z M208.6,290.2l-0.5-3l11.9-1.9l0.5,3L208.6,290.2z
		 M232.3,286.4l-0.5-3l11.9-1.9l0.5,3L232.3,286.4z M256,282.7l-0.5-3l11.9-1.9l0.5,3L256,282.7z M279.7,278.9l-0.5-3l11.9-1.9
		l0.5,3L279.7,278.9z M303.4,275.2l-0.5-3l11.9-1.9l0.5,3L303.4,275.2z M327.1,271.4l-0.5-3l11.9-1.9l0.5,3L327.1,271.4z
		 M350.8,267.7l-0.5-3l11.9-1.9l0.5,3L350.8,267.7z M374.6,263.9l-0.5-3l11.9-1.9l0.5,3L374.6,263.9z M398.3,260.1l-0.5-3l11.9-1.9
		l0.5,3L398.3,260.1z M422,256.4l-0.5-3l11.9-1.9l0.5,3L422,256.4z M445.7,252.6l-0.5-3l11.9-1.9l0.5,3L445.7,252.6z M469.4,248.9
		l-0.5-3l11.9-1.9l0.5,3L469.4,248.9z M493.1,245.1l-0.5-3l11.9-1.9l0.5,3L493.1,245.1z M516.8,241.4l-0.5-3l11.9-1.9l0.5,3
		L516.8,241.4z M540.5,237.6l-0.5-3l11.9-1.9l0.5,3L540.5,237.6z M564.2,233.9l-0.5-3l11.9-1.9l0.5,3L564.2,233.9z M587.9,230.1
		l-0.5-3l11.9-1.9l0.5,3L587.9,230.1z M611.6,226.4l-0.5-3l11.9-1.9l0.5,3L611.6,226.4z M635.3,222.6l-0.5-3l11.9-1.9l0.5,3
		L635.3,222.6z M659,218.8l-0.5-3l11.9-1.9l0.5,3L659,218.8z M682.7,215.1l-0.5-3l11.9-1.9l0.5,3L682.7,215.1z M706.4,211.3l-0.5-3
		l11.9-1.9l0.5,3L706.4,211.3z M730.1,207.6l-0.5-3l11.9-1.9l0.5,3L730.1,207.6z M753.8,203.8l-0.5-3l11.9-1.9l0.5,3L753.8,203.8z"
		/>
	<linearGradient id="SVGID_8_" gradientUnits="userSpaceOnUse" x1="549.3414" y1="715.2999" x2="475.8209" y2="235.4111">
		<stop  offset="0" style="stop-color:#3C4141"/>
		<stop  offset="0.1412" style="stop-color:#434C4E"/>
		<stop  offset="0.4034" style="stop-color:#4D5B60"/>
		<stop  offset="0.6815" style="stop-color:#53646B"/>
		<stop  offset="1" style="stop-color:#55676E"/>
	</linearGradient>
	<path class="st7" d="M259.9,767.4l-0.5-3l11.9-1.9l0.5,3L259.9,767.4z M283.6,763.7l-0.5-3l11.9-1.9l0.5,3L283.6,763.7z
		 M307.3,759.9l-0.5-3l11.9-1.9l0.5,3L307.3,759.9z M331,756.2l-0.5-3l11.9-1.9l0.5,3L331,756.2z M354.7,752.4l-0.5-3l11.9-1.9
		l0.5,3L354.7,752.4z M378.4,748.7l-0.5-3l11.9-1.9l0.5,3L378.4,748.7z M402.1,744.9l-0.5-3l11.9-1.9l0.5,3L402.1,744.9z
		 M425.8,741.1l-0.5-3l11.9-1.9l0.5,3L425.8,741.1z M449.5,737.4l-0.5-3l11.9-1.9l0.5,3L449.5,737.4z M473.2,733.6l-0.5-3l11.9-1.9
		l0.5,3L473.2,733.6z M497,729.9l-0.5-3l11.9-1.9l0.5,3L497,729.9z M520.7,726.1l-0.5-3l11.9-1.9l0.5,3L520.7,726.1z M544.4,722.4
		l-0.5-3l11.9-1.9l0.5,3L544.4,722.4z M568.1,718.6l-0.5-3l11.9-1.9l0.5,3L568.1,718.6z M591.8,714.9l-0.5-3l11.9-1.9l0.5,3
		L591.8,714.9z M615.5,711.1l-0.5-3l11.9-1.9l0.5,3L615.5,711.1z M639.2,707.4l-0.5-3l11.9-1.9l0.5,3L639.2,707.4z M662.9,703.6
		l-0.5-3l11.9-1.9l0.5,3L662.9,703.6z M686.6,699.8l-0.5-3L698,695l0.5,3L686.6,699.8z M710.3,696.1l-0.5-3l11.9-1.9l0.5,3
		L710.3,696.1z M734,692.3l-0.5-3l11.9-1.9l0.5,3L734,692.3z M757.7,688.6l-0.5-3l11.9-1.9l0.5,3L757.7,688.6z M781.4,684.8l-0.5-3
		l11.9-1.9l0.5,3L781.4,684.8z M805.1,681.1l-0.5-3l11.9-1.9l0.5,3L805.1,681.1z M828.8,677.3l-0.5-3l11.9-1.9l0.5,3L828.8,677.3z"
		/>
	<linearGradient id="SVGID_9_" gradientUnits="userSpaceOnUse" x1="799.3028" y1="677.0051" x2="725.7822" y2="197.1162">
		<stop  offset="0" style="stop-color:#3C4141"/>
		<stop  offset="0.1412" style="stop-color:#434C4E"/>
		<stop  offset="0.4034" style="stop-color:#4D5B60"/>
		<stop  offset="0.6815" style="stop-color:#53646B"/>
		<stop  offset="1" style="stop-color:#55676E"/>
	</linearGradient>
	<path class="st8" d="M808,733.7l-1.9-11.9l3-0.5l1.9,11.9L808,733.7z M804.2,710l-1.9-11.9l3-0.5l1.9,11.9L804.2,710z M800.5,686.2
		l-1.9-11.9l3-0.5l1.9,11.9L800.5,686.2z M796.7,662.5l-1.9-11.9l3-0.5l1.9,11.9L796.7,662.5z M793,638.8l-1.9-11.9l3-0.5l1.9,11.9
		L793,638.8z M789.2,615.1l-1.9-11.9l3-0.5l1.9,11.9L789.2,615.1z M785.4,591.4l-1.9-11.9l3-0.5l1.9,11.9L785.4,591.4z M781.7,567.7
		l-1.9-11.9l3-0.5l1.9,11.9L781.7,567.7z M777.9,544l-1.9-11.9l3-0.5l1.9,11.9L777.9,544z M774.2,520.3l-1.9-11.9l3-0.5l1.9,11.9
		L774.2,520.3z M770.4,496.6l-1.9-11.9l3-0.5l1.9,11.9L770.4,496.6z M766.7,472.9l-1.9-11.9l3-0.5l1.9,11.9L766.7,472.9z
		 M762.9,449.2l-1.9-11.9l3-0.5l1.9,11.9L762.9,449.2z M759.2,425.5l-1.9-11.9l3-0.5l1.9,11.9L759.2,425.5z M755.4,401.8l-1.9-11.9
		l3-0.5l1.9,11.9L755.4,401.8z M751.7,378.1l-1.9-11.9l3-0.5l1.9,11.9L751.7,378.1z M747.9,354.4l-1.9-11.9l3-0.5l1.9,11.9
		L747.9,354.4z M744.1,330.7l-1.9-11.9l3-0.5l1.9,11.9L744.1,330.7z M740.4,307l-1.9-11.9l3-0.5l1.9,11.9L740.4,307z M736.6,283.3
		l-1.9-11.9l3-0.5l1.9,11.9L736.6,283.3z M732.9,259.6l-1.9-11.9l3-0.5l1.9,11.9L732.9,259.6z M729.1,235.9l-1.9-11.9l3-0.5
		l1.9,11.9L729.1,235.9z M725.4,212.2l-1.9-11.9l3-0.5l1.9,11.9L725.4,212.2z M721.6,188.5l-1.9-11.9l3-0.5l1.9,11.9L721.6,188.5z
		 M717.9,164.7l-1.9-11.9l3-0.5l1.9,11.9L717.9,164.7z"/>
	<linearGradient id="SVGID_10_" gradientUnits="userSpaceOnUse" x1="300.0262" y1="753.4959" x2="226.5056" y2="273.6071">
		<stop  offset="0" style="stop-color:#3C4141"/>
		<stop  offset="0.1412" style="stop-color:#434C4E"/>
		<stop  offset="0.4034" style="stop-color:#4D5B60"/>
		<stop  offset="0.6815" style="stop-color:#53646B"/>
		<stop  offset="1" style="stop-color:#55676E"/>
	</linearGradient>
	<path class="st9" d="M309.1,813.1l-1.9-11.9l3-0.5l1.9,11.9L309.1,813.1z M305.4,789.4l-1.9-11.9l3-0.5l1.9,11.9L305.4,789.4z
		 M301.6,765.7l-1.9-11.9l3-0.5l1.9,11.9L301.6,765.7z M297.9,742l-1.9-11.9l3-0.5l1.9,11.9L297.9,742z M294.1,718.3l-1.9-11.9
		l3-0.5l1.9,11.9L294.1,718.3z M290.4,694.6l-1.9-11.9l3-0.5l1.9,11.9L290.4,694.6z M286.6,670.9l-1.9-11.9l3-0.5l1.9,11.9
		L286.6,670.9z M282.9,647.2l-1.9-11.9l3-0.5l1.9,11.9L282.9,647.2z M279.1,623.5l-1.9-11.9l3-0.5l1.9,11.9L279.1,623.5z
		 M275.4,599.8l-1.9-11.9l3-0.5l1.9,11.9L275.4,599.8z M271.6,576.1l-1.9-11.9l3-0.5l1.9,11.9L271.6,576.1z M267.8,552.4l-1.9-11.9
		l3-0.5l1.9,11.9L267.8,552.4z M264.1,528.7l-1.9-11.9l3-0.5l1.9,11.9L264.1,528.7z M260.3,505l-1.9-11.9l3-0.5l1.9,11.9L260.3,505z
		 M256.6,481.3l-1.9-11.9l3-0.5l1.9,11.9L256.6,481.3z M252.8,457.6l-1.9-11.9l3-0.5l1.9,11.9L252.8,457.6z M249.1,433.9l-1.9-11.9
		l3-0.5l1.9,11.9L249.1,433.9z M245.3,410.1l-1.9-11.9l3-0.5l1.9,11.9L245.3,410.1z M241.6,386.4l-1.9-11.9l3-0.5l1.9,11.9
		L241.6,386.4z M237.8,362.7l-1.9-11.9l3-0.5l1.9,11.9L237.8,362.7z M234.1,339l-1.9-11.9l3-0.5l1.9,11.9L234.1,339z M230.3,315.3
		l-1.9-11.9l3-0.5l1.9,11.9L230.3,315.3z M226.6,291.6l-1.9-11.9l3-0.5l1.9,11.9L226.6,291.6z M222.8,267.9l-1.9-11.9l3-0.5
		l1.9,11.9L222.8,267.9z M219,244.2l-1.9-11.9l3-0.5l1.9,11.9L219,244.2z"/>
	<linearGradient id="SVGID_11_" gradientUnits="userSpaceOnUse" x1="315.6967" y1="751.0951" x2="242.1761" y2="271.2063">
		<stop  offset="0" style="stop-color:#3C4141"/>
		<stop  offset="0.1412" style="stop-color:#434C4E"/>
		<stop  offset="0.4034" style="stop-color:#4D5B60"/>
		<stop  offset="0.6815" style="stop-color:#53646B"/>
		<stop  offset="1" style="stop-color:#55676E"/>
	</linearGradient>
	<path class="st10" d="M302.8,713.5c-1.6,0-3.2-0.1-4.7-0.2l0.4-4c3.6,0.4,7.3,0.3,11-0.3l0.4,2l0.3,2l0,0
		C307.7,713.3,305.2,713.5,302.8,713.5z M286.3,710.5c-3.8-1.4-7.3-3.4-10.6-5.7l2.3-3.2c3,2.2,6.2,3.9,9.7,5.2L286.3,710.5z
		 M321.7,709.5l-1.6-3.7c3.4-1.5,6.5-3.4,9.4-5.8l2.5,3.1C328.8,705.8,325.4,707.9,321.7,709.5z M267,696.4
		c-2.6-3.1-4.7-6.6-6.3-10.3l3.7-1.6c1.5,3.4,3.4,6.5,5.8,9.4L267,696.4z M340.3,694.5l-3.2-2.3c2.2-3,3.9-6.2,5.3-9.7l3.7,1.4
		C344.6,687.6,342.6,691.2,340.3,694.5z M257.2,674.6l0-0.1c-0.4-2.4-0.6-4.8-0.6-7.3c0-1.6,0.1-3.1,0.2-4.7l4,0.4
		c-0.1,1.4-0.2,2.9-0.2,4.3c0,2.2,0.2,4.5,0.5,6.7L257.2,674.6z M348.8,672.1l-4-0.4c0.2-1.4,0.2-2.9,0.2-4.4c0-2.2-0.2-4.5-0.5-6.7
		l0-0.2l4-0.6l0,0.2c0.4,2.4,0.6,4.9,0.6,7.3C349.1,669,349,670.6,348.8,672.1z M263.4,652.3l-3.7-1.4c1.4-3.8,3.4-7.3,5.7-10.6
		l3.2,2.3C266.5,645.6,264.7,648.8,263.4,652.3z M341.4,650c-1.5-3.4-3.5-6.5-5.8-9.4l3.1-2.5c2.6,3.1,4.7,6.6,6.3,10.3L341.4,650z
		 M276.2,634.6l-2.5-3.1c3.1-2.6,6.6-4.7,10.3-6.3l1.6,3.7C282.2,630.3,279.1,632.2,276.2,634.6z M327.6,633.1
		c-3-2.2-6.3-3.9-9.7-5.2l1.4-3.7c3.8,1.4,7.3,3.4,10.6,5.7L327.6,633.1z M296.1,625.6l-0.6-4l0.1,0c4-0.6,8-0.7,12-0.3l-0.4,4
		c-3.6-0.4-7.3-0.3-10.9,0.3L296.1,625.6z"/>
	<linearGradient id="SVGID_12_" gradientUnits="userSpaceOnUse" x1="784.8922" y1="679.2128" x2="711.3716" y2="199.324">
		<stop  offset="0" style="stop-color:#3C4141"/>
		<stop  offset="0.1412" style="stop-color:#434C4E"/>
		<stop  offset="0.4034" style="stop-color:#4D5B60"/>
		<stop  offset="0.6815" style="stop-color:#53646B"/>
		<stop  offset="1" style="stop-color:#55676E"/>
	</linearGradient>
	<path class="st11" d="M765.8,641.2c-4.1-0.5-8.1-1.6-11.9-3.2l1.5-3.7c3.5,1.4,7.2,2.4,10.9,2.9L765.8,641.2z M778.2,641.2l-0.5-4
		c3.7-0.5,7.3-1.5,10.8-2.9l0.2-0.1l1.4,3.7l-0.7-1.8l0.8,1.8l-0.1,0.1C786.3,639.5,782.3,640.6,778.2,641.2z M743.1,631.9
		c-3.3-2.5-6.2-5.4-8.8-8.7l3.2-2.4c2.3,3,5,5.7,8,8L743.1,631.9z M800.8,631.7l-2.4-3.2c3-2.3,5.7-5,8-8l3.2,2.4
		C807,626.3,804.1,629.2,800.8,631.7z M728.2,612.5l-0.1-0.2c-1.6-3.8-2.7-7.7-3.2-11.8l4-0.5c0.5,3.7,1.5,7.4,3,10.8L728.2,612.5z
		 M815.7,612.2l-3.7-1.5c1.4-3.5,2.4-7.2,2.9-10.9l4,0.5C818.3,604.4,817.2,608.4,815.7,612.2z M728.8,588.7l-4-0.5
		c0.5-4.1,1.6-8.1,3.2-11.9l3.7,1.5C730.3,581.3,729.3,585,728.8,588.7z M814.9,588.5c-0.5-3.7-1.5-7.4-3-10.9l-0.1-0.2l3.7-1.5
		l0,0.1c1.6,3.9,2.7,7.9,3.2,12L814.9,588.5z M737.3,567.9l-3.2-2.4c2.5-3.3,5.4-6.3,8.7-8.8l2.4,3.2
		C742.3,562.2,739.6,564.9,737.3,567.9z M806.1,567.6c-2.3-3-5-5.7-8-8l2.4-3.2c3.3,2.5,6.3,5.4,8.8,8.7L806.1,567.6z M755.1,554.2
		l-1.6-3.7l0.1,0c3.8-1.6,7.8-2.7,11.8-3.2l0.5,4c-3.7,0.5-7.3,1.5-10.8,2.9L755.1,554.2z M788.3,554.1c-3.5-1.4-7.2-2.4-10.9-2.9
		l0.5-4c4.1,0.5,8.1,1.6,12,3.1L788.3,554.1z"/>
	<linearGradient id="SVGID_13_" gradientUnits="userSpaceOnUse" x1="604.399" y1="706.8649" x2="530.8784" y2="226.9761">
		<stop  offset="0" style="stop-color:#3C4141"/>
		<stop  offset="0.1412" style="stop-color:#434C4E"/>
		<stop  offset="0.4034" style="stop-color:#4D5B60"/>
		<stop  offset="0.6815" style="stop-color:#53646B"/>
		<stop  offset="1" style="stop-color:#55676E"/>
	</linearGradient>
	<path class="st12" d="M597.9,666.3l-0.6-4l0.3,0c3.5-0.6,6.8-2,9.6-4.2l2.5,3.1c-3.3,2.6-7.3,4.4-11.5,5L597.9,666.3z M585.1,664.7
		c-4-1.7-7.6-4.4-10.3-7.8l3.2-2.4c2.2,2.9,5.2,5.2,8.6,6.6L585.1,664.7z M617.4,650.8l-3.7-1.5c0.9-2.4,1.4-4.9,1.4-7.5
		c0-1.1-0.1-2.2-0.3-3.3l4-0.6c0.2,1.3,0.3,2.6,0.3,3.9C619.1,644.9,618.6,647.9,617.4,650.8z M569.9,644.9c-0.1-1-0.2-2.1-0.2-3.1
		c0-3.3,0.7-6.6,2-9.7l3.7,1.6c-1.1,2.6-1.7,5.3-1.7,8.1c0,0.9,0.1,1.8,0.2,2.6L569.9,644.9z M611.2,629.8c-2.1-3-5-5.3-8.4-6.8
		l1.6-3.7c4,1.8,7.5,4.6,10,8.1L611.2,629.8z M582.1,625.2l-2.4-3.2c3.2-2.4,6.9-3.9,10.9-4.6c0.4-0.1,0.8-0.1,1.1-0.2l0.4,4
		c-0.3,0-0.6,0.1-1,0.1C587.9,621.9,584.8,623.2,582.1,625.2z"/>
	<linearGradient id="SVGID_14_" gradientUnits="userSpaceOnUse" x1="449.4816" y1="730.5988" x2="375.961" y2="250.71">
		<stop  offset="0" style="stop-color:#3C4141"/>
		<stop  offset="0.1412" style="stop-color:#434C4E"/>
		<stop  offset="0.4034" style="stop-color:#4D5B60"/>
		<stop  offset="0.6815" style="stop-color:#53646B"/>
		<stop  offset="1" style="stop-color:#55676E"/>
	</linearGradient>
	<path class="st13" d="M443.1,690.8l-0.6-4l0.3,0c3.5-0.6,6.8-2,9.6-4.2l2.5,3.1c-3.3,2.6-7.3,4.4-11.5,5L443.1,690.8z M430.3,689.2
		c-4-1.7-7.6-4.4-10.3-7.8l3.2-2.4c2.2,2.9,5.2,5.2,8.6,6.6L430.3,689.2z M462.6,675.3l-3.7-1.5c0.9-2.4,1.4-4.9,1.4-7.5
		c0-1.1-0.1-2.2-0.3-3.3l4-0.6c0.2,1.3,0.3,2.6,0.3,3.9C464.3,669.5,463.8,672.5,462.6,675.3z M415.1,669.5c-0.1-1-0.2-2.1-0.2-3.1
		c0-3.3,0.7-6.6,2-9.7l3.7,1.6c-1.1,2.6-1.7,5.3-1.7,8.1c0,0.9,0.1,1.8,0.2,2.6L415.1,669.5z M456.4,654.3c-2.1-3-5-5.3-8.4-6.8
		l1.6-3.7c4,1.8,7.5,4.6,10,8.1L456.4,654.3z M427.3,649.7l-2.4-3.2c3.2-2.4,6.9-3.9,10.9-4.6c0.4-0.1,0.8-0.1,1.1-0.2l0.4,4
		c-0.3,0-0.6,0.1-1,0.1C433.1,646.4,430,647.8,427.3,649.7z"/>
</g>
</svg>
