<?xml version="1.0" encoding="utf-8"?>
<!-- Generator: Adobe Illustrator 22.1.0, SVG Export Plug-In . SVG Version: 6.00 Build 0)  -->
<!-- Artist: @KevDoy for Trenta.io -->
<!-- Vector Conversion by @Genghis-Khanr -->
<svg version="1.1" id="preferences-desktop-locale" xmlns="http://www.w3.org/2000/svg" xmlns:xlink="http://www.w3.org/1999/xlink"
	 x="0px" y="0px" viewBox="0 0 1024 1024" style="enable-background:new 0 0 1024 1024;" xml:space="preserve">
<style type="text/css">
	.st0{fill:url(#SVGID_1_);}
	.st1{fill:url(#SVGID_2_);}
	.st2{fill:url(#SVGID_3_);}
	.st3{fill:#FFFFFF;}
	.st4{fill:url(#SVGID_4_);}
	.st5{fill:url(#SVGID_5_);}
	.st6{fill:url(#SVGID_6_);}
	.st7{fill:url(#SVGID_7_);}
	.st8{fill:url(#SVGID_8_);}
	.st9{fill:url(#SVGID_9_);}
	.st10{fill:url(#SVGID_10_);}
	.st11{fill:url(#SVGID_11_);}
</style>
<g>
	<linearGradient id="SVGID_1_" gradientUnits="userSpaceOnUse" x1="67" y1="512.0833" x2="121.1667" y2="512.0833">
		<stop  offset="0" style="stop-color:#B9C0C5"/>
		<stop  offset="1.417407e-02" style="stop-color:#BFC5CA"/>
		<stop  offset="9.524348e-02" style="stop-color:#DCDFE2"/>
		<stop  offset="0.165" style="stop-color:#EFEFF1"/>
		<stop  offset="0.2151" style="stop-color:#F5F5F6"/>
		<stop  offset="0.3491" style="stop-color:#DDE0E3"/>
		<stop  offset="0.5209" style="stop-color:#B9C0C5"/>
	</linearGradient>
	<path class="st0" d="M117.9,905.2H70.3c-1.8,0-3.3-1.5-3.3-3.3V122.3c0-1.8,1.5-3.3,3.3-3.3h47.6c1.8,0,3.3,1.5,3.3,3.3v779.6
		C121.2,903.7,119.7,905.2,117.9,905.2z"/>
	<linearGradient id="SVGID_2_" gradientUnits="userSpaceOnUse" x1="527.4167" y1="176" x2="527.4167" y2="797.0652">
		<stop  offset="5.027933e-02" style="stop-color:#66CCF8"/>
		<stop  offset="0.663" style="stop-color:#4991F0"/>
		<stop  offset="1" style="stop-color:#3C76EC"/>
	</linearGradient>
	<path class="st1" d="M112,741c0,0,113.3-90,400.5,20.7c125.2,36.8,361.2,73.3,430.3-48.5V144c0,0-193.2,129.7-430.8,40.3
		c-191-64.7-307.8-36.2-396-13L112,741z"/>
	<g>
		<linearGradient id="SVGID_3_" gradientUnits="userSpaceOnUse" x1="635.9673" y1="176" x2="635.9673" y2="797.0652">
			<stop  offset="5.027933e-02" style="stop-color:#66CCF8"/>
			<stop  offset="0.663" style="stop-color:#4991F0"/>
			<stop  offset="1" style="stop-color:#3C76EC"/>
		</linearGradient>
		<path class="st2" d="M636,598.3c-63,0-114.2-51.2-114.2-114.2S573,370,636,370c63,0,114.2,51.2,114.2,114.2S698.9,598.3,636,598.3
			z M636,409c-41.4,0-75.1,33.7-75.1,75.1s33.7,75.1,75.1,75.1s75.1-33.7,75.1-75.1S677.4,409,636,409z"/>
	</g>
	<path class="st3" d="M636,587.5c-57,0-103.3-46.4-103.3-103.3S579,380.8,636,380.8s103.3,46.4,103.3,103.3S692.9,587.5,636,587.5z
		 M636,398.2c-47.4,0-86,38.6-86,86c0,47.4,38.6,86,86,86c47.4,0,86-38.6,86-86C721.9,436.7,683.4,398.2,636,398.2z"/>
	<g>
		<linearGradient id="SVGID_4_" gradientUnits="userSpaceOnUse" x1="588.6055" y1="176" x2="588.6055" y2="797.0652">
			<stop  offset="5.027933e-02" style="stop-color:#66CCF8"/>
			<stop  offset="0.663" style="stop-color:#4991F0"/>
			<stop  offset="1" style="stop-color:#3C76EC"/>
		</linearGradient>
		<path class="st4" d="M588.4,516.3c-19.4,0-39-4.9-56.9-15.3c-26.4-15.2-45.3-39.9-53.2-69.3c-7.9-29.5-3.8-60.2,11.4-86.6l0,0
			c31.5-54.5,101.4-73.3,156-41.8c54.5,31.5,73.3,101.4,41.8,156C666.4,495.8,627.9,516.3,588.4,516.3z M523.6,364.6
			c-10,17.4-12.7,37.6-7.5,57c5.2,19.4,17.6,35.6,35,45.6c17.4,10,37.6,12.7,57,7.5c19.4-5.2,35.6-17.6,45.6-35
			c20.7-35.9,8.4-81.9-27.5-102.6c-17.4-10-37.6-12.7-57-7.5C549.8,334.8,533.6,347.2,523.6,364.6L523.6,364.6z"/>
	</g>
	<path class="st3" d="M588.5,505.5c-17.5,0-35.3-4.5-51.5-13.8c-49.3-28.5-66.3-91.8-37.8-141.1l0,0c28.5-49.3,91.8-66.3,141.1-37.8
		c49.3,28.5,66.3,91.8,37.8,141.1C659,487,624.2,505.5,588.5,505.5z M514.2,359.2c-23.7,41.1-9.6,93.7,31.5,117.4
		c41.1,23.7,93.7,9.6,117.4-31.5c23.7-41.1,9.6-93.7-31.5-117.4C590.6,304,537.9,318.1,514.2,359.2L514.2,359.2z"/>
	<g>
		<linearGradient id="SVGID_5_" gradientUnits="userSpaceOnUse" x1="588.6411" y1="117.6667" x2="588.6411" y2="874.3627">
			<stop  offset="0" style="stop-color:#66CCF8"/>
			<stop  offset="0.6451" style="stop-color:#4991F0"/>
			<stop  offset="1" style="stop-color:#3C76EC"/>
		</linearGradient>
		<path class="st5" d="M588.8,680.3c-39.5,0-77.9-20.5-99.1-57.1c-31.5-54.5-12.7-124.5,41.8-156c54.5-31.5,124.5-12.7,156,41.8
			c31.5,54.5,12.7,124.5-41.8,156C627.8,675.3,608.2,680.3,588.8,680.3z M588.5,491c-12.7,0-25.6,3.2-37.4,10.1
			c-35.9,20.7-48.2,66.8-27.5,102.6c13.9,24.1,39.2,37.6,65.2,37.6c12.7,0,25.6-3.2,37.4-10.1c35.9-20.7,48.2-66.8,27.5-102.6
			C639.8,504.5,614.5,491,588.5,491z"/>
	</g>
	<path class="st3" d="M588.8,669.4c-35.7,0-70.5-18.5-89.7-51.6c-28.5-49.3-11.5-112.7,37.8-141.1c49.3-28.5,112.7-11.5,141.1,37.8
		c28.5,49.3,11.5,112.7-37.8,141.1C624.1,665,606.3,669.4,588.8,669.4z M588.5,480.2c-14.6,0-29.3,3.7-42.8,11.5
		c-41.1,23.7-55.2,76.4-31.5,117.4c15.9,27.5,44.9,43,74.6,43c14.6,0,29.3-3.7,42.8-11.5c41.1-23.7,55.2-76.4,31.5-117.4
		C647.2,495.6,618.2,480.2,588.5,480.2z"/>
	<g>
		<linearGradient id="SVGID_6_" gradientUnits="userSpaceOnUse" x1="493.9533" y1="176" x2="493.9533" y2="797.0652">
			<stop  offset="5.027933e-02" style="stop-color:#66CCF8"/>
			<stop  offset="0.663" style="stop-color:#4991F0"/>
			<stop  offset="1" style="stop-color:#3C76EC"/>
		</linearGradient>
		<path class="st6" d="M493.8,680.3c-19.8,0-39.3-5.2-56.9-15.3c-26.4-15.2-45.3-39.9-53.2-69.3c-7.9-29.5-3.8-60.2,11.4-86.6
			c15.2-26.4,39.9-45.3,69.3-53.2c29.5-7.9,60.2-3.8,86.6,11.4c54.5,31.5,73.3,101.4,41.8,156c-15.2,26.4-39.9,45.3-69.3,53.2
			C513.7,679,503.7,680.3,493.8,680.3z M494.1,491c-6.5,0-13.1,0.9-19.6,2.6c-19.4,5.2-35.6,17.6-45.6,35c-10,17.4-12.7,37.6-7.5,57
			c5.2,19.4,17.6,35.6,35,45.6c17.4,10,37.6,12.7,57,7.5c19.4-5.2,35.6-17.6,45.6-35l0,0c10-17.4,12.7-37.6,7.5-57
			c-5.2-19.4-17.6-35.6-35-45.6C520,494.4,507.1,491,494.1,491z"/>
	</g>
	<path class="st3" d="M493.8,669.5c-17.9,0-35.6-4.7-51.5-13.9c-49.3-28.5-66.3-91.8-37.8-141.1c28.5-49.3,91.8-66.3,141.1-37.8
		c49.3,28.5,66.3,91.8,37.8,141.1l0,0c-13.8,23.9-36.1,41-62.7,48.1C511.8,668.3,502.8,669.5,493.8,669.5z M494.1,480.2
		c-29.7,0-58.7,15.4-74.6,43c-11.5,19.9-14.5,43.1-8.6,65.2c5.9,22.2,20.2,40.7,40.1,52.2c19.9,11.5,43.1,14.5,65.2,8.6
		c22.2-5.9,40.7-20.2,52.2-40.1l0,0c23.7-41.1,9.6-93.7-31.5-117.4C523.5,483.9,508.7,480.2,494.1,480.2z"/>
	<g>
		<linearGradient id="SVGID_7_" gradientUnits="userSpaceOnUse" x1="446.6633" y1="117.6667" x2="446.6633" y2="874.3627">
			<stop  offset="0" style="stop-color:#66CCF8"/>
			<stop  offset="0.6451" style="stop-color:#4991F0"/>
			<stop  offset="1" style="stop-color:#3C76EC"/>
		</linearGradient>
		<path class="st7" d="M446.7,598.3c-63,0-114.2-51.2-114.2-114.2S383.7,370,446.7,370s114.2,51.2,114.2,114.2
			S509.6,598.3,446.7,598.3z M446.7,409c-41.4,0-75.1,33.7-75.1,75.1s33.7,75.1,75.1,75.1s75.1-33.7,75.1-75.1S488.1,409,446.7,409z
			"/>
	</g>
	<path class="st3" d="M446.7,587.5c-57,0-103.3-46.4-103.3-103.3s46.4-103.3,103.3-103.3S550,427.2,550,484.2
		S503.6,587.5,446.7,587.5z M446.7,398.2c-47.4,0-86,38.6-86,86c0,47.4,38.6,86,86,86s86-38.6,86-86
		C532.6,436.7,494.1,398.2,446.7,398.2z"/>
	<g>
		<linearGradient id="SVGID_8_" gradientUnits="userSpaceOnUse" x1="493.9892" y1="176" x2="493.9892" y2="797.0652">
			<stop  offset="5.027933e-02" style="stop-color:#66CCF8"/>
			<stop  offset="0.663" style="stop-color:#4991F0"/>
			<stop  offset="1" style="stop-color:#3C76EC"/>
		</linearGradient>
		<path class="st8" d="M494.2,516.4c-9.9,0-19.9-1.3-29.7-3.9c-29.5-7.9-54.1-26.8-69.3-53.2l0,0c-15.2-26.4-19.3-57.2-11.4-86.6
			s26.8-54.1,53.2-69.3c26.4-15.2,57.2-19.3,86.6-11.4c29.5,7.9,54.1,26.8,69.3,53.2c15.2,26.4,19.3,57.2,11.4,86.6
			s-26.8,54.1-53.2,69.3C533.5,511.2,514,516.4,494.2,516.4z M493.9,327c-13,0-25.9,3.4-37.4,10.1c-17.4,10-29.8,26.2-35,45.6
			c-5.2,19.4-2.5,39.6,7.5,57l0,0c10,17.4,26.2,29.8,45.6,35c19.4,5.2,39.6,2.5,57-7.5c17.4-10,29.8-26.2,35-45.6
			c5.2-19.4,2.5-39.6-7.5-57c-10-17.4-26.2-29.8-45.6-35C507,327.9,500.4,327,493.9,327z"/>
	</g>
	<path class="st3" d="M494.2,505.6c-9,0-18-1.2-26.9-3.6c-26.7-7.1-48.9-24.2-62.7-48.1l0,0c-13.8-23.9-17.5-51.7-10.3-78.4
		c7.1-26.7,24.2-48.9,48.1-62.7c23.9-13.8,51.7-17.5,78.4-10.3c26.7,7.1,48.9,24.2,62.7,48.1c13.8,23.9,17.5,51.7,10.3,78.4
		c-7.1,26.7-24.2,48.9-48.1,62.7C529.7,500.9,512.1,505.6,494.2,505.6z M493.8,316.2c-14.9,0-29.6,3.9-42.8,11.6
		c-19.9,11.5-34.1,30-40.1,52.2s-2.9,45.4,8.6,65.2l0,0c11.5,19.9,30,34.1,52.2,40.1c22.2,5.9,45.4,2.9,65.2-8.6
		c19.9-11.5,34.1-30,40.1-52.2c5.9-22.2,2.9-45.4-8.6-65.2c-11.5-19.9-30-34.1-52.2-40.1C508.8,317.1,501.3,316.2,493.8,316.2z"/>
	<g>
		<linearGradient id="SVGID_9_" gradientUnits="userSpaceOnUse" x1="541.3157" y1="117.6667" x2="541.3157" y2="874.3627">
			<stop  offset="0" style="stop-color:#66CCF8"/>
			<stop  offset="0.6451" style="stop-color:#4991F0"/>
			<stop  offset="1" style="stop-color:#3C76EC"/>
		</linearGradient>
		<path class="st9" d="M541.3,598.3c-63,0-114.2-51.2-114.2-114.2S478.4,370,541.3,370s114.2,51.2,114.2,114.2
			S604.3,598.3,541.3,598.3z M541.3,409c-41.4,0-75.1,33.7-75.1,75.1s33.7,75.1,75.1,75.1s75.1-33.7,75.1-75.1S582.7,409,541.3,409z
			"/>
	</g>
	<path class="st3" d="M541.3,587.5c-57,0-103.3-46.4-103.3-103.3s46.4-103.3,103.3-103.3c57,0,103.3,46.4,103.3,103.3
		S598.3,587.5,541.3,587.5z M541.3,398.2c-47.4,0-86,38.6-86,86c0,47.4,38.6,86,86,86s86-38.6,86-86
		C627.3,436.7,588.7,398.2,541.3,398.2z"/>
	<g>
		<linearGradient id="SVGID_10_" gradientUnits="userSpaceOnUse" x1="635.9673" y1="117.6667" x2="635.9673" y2="874.3627">
			<stop  offset="0" style="stop-color:#66CCF8"/>
			<stop  offset="0.6451" style="stop-color:#4991F0"/>
			<stop  offset="1" style="stop-color:#3C76EC"/>
		</linearGradient>
		<path class="st10" d="M636,598.3c-63,0-114.2-51.2-114.2-114.2S573,370,636,370c63,0,114.2,51.2,114.2,114.2
			S698.9,598.3,636,598.3z M636,409c-41.4,0-75.1,33.7-75.1,75.1s33.7,75.1,75.1,75.1s75.1-33.7,75.1-75.1S677.4,409,636,409z"/>
	</g>
	<g>
		<path class="st3" d="M636,587.5c-57,0-103.3-46.4-103.3-103.3S579,380.8,636,380.8s103.3,46.4,103.3,103.3S692.9,587.5,636,587.5z
			 M636,398.2c-47.4,0-86,38.6-86,86c0,47.4,38.6,86,86,86c47.4,0,86-38.6,86-86C721.9,436.7,683.4,398.2,636,398.2z"/>
	</g>
	<g>
		<linearGradient id="SVGID_11_" gradientUnits="userSpaceOnUse" x1="493.9533" y1="117.6667" x2="493.9533" y2="874.3627">
			<stop  offset="0" style="stop-color:#66CCF8"/>
			<stop  offset="0.6451" style="stop-color:#4991F0"/>
			<stop  offset="1" style="stop-color:#3C76EC"/>
		</linearGradient>
		<path class="st11" d="M493.8,680.3c-19.8,0-39.3-5.2-56.9-15.3c-26.4-15.2-45.3-39.9-53.2-69.3c-7.9-29.5-3.8-60.2,11.4-86.6
			c15.2-26.4,39.9-45.3,69.3-53.2c29.5-7.9,60.2-3.8,86.6,11.4c54.5,31.5,73.3,101.4,41.8,156c-15.2,26.4-39.9,45.3-69.3,53.2
			C513.7,679,503.7,680.3,493.8,680.3z M494.1,491c-6.5,0-13.1,0.9-19.6,2.6c-19.4,5.2-35.6,17.6-45.6,35c-10,17.4-12.7,37.6-7.5,57
			c5.2,19.4,17.6,35.6,35,45.6c17.4,10,37.6,12.7,57,7.5c19.4-5.2,35.6-17.6,45.6-35l0,0c10-17.4,12.7-37.6,7.5-57
			c-5.2-19.4-17.6-35.6-35-45.6C520,494.4,507.1,491,494.1,491z"/>
	</g>
	<g>
		<path class="st3" d="M493.8,669.5c-17.9,0-35.6-4.7-51.5-13.9c-49.3-28.5-66.3-91.8-37.8-141.1c28.5-49.3,91.8-66.3,141.1-37.8
			c49.3,28.5,66.3,91.8,37.8,141.1l0,0c-13.8,23.9-36.1,41-62.7,48.1C511.8,668.3,502.8,669.5,493.8,669.5z M494.1,480.2
			c-29.7,0-58.7,15.4-74.6,43c-11.5,19.9-14.5,43.1-8.6,65.2c5.9,22.2,20.2,40.7,40.1,52.2c19.9,11.5,43.1,14.5,65.2,8.6
			c22.2-5.9,40.7-20.2,52.2-40.1l0,0c23.7-41.1,9.6-93.7-31.5-117.4C523.5,483.9,508.7,480.2,494.1,480.2z"/>
	</g>
</g>
</svg>
