<?xml version="1.0" encoding="utf-8"?>
<!-- Generator: Adobe Illustrator 22.1.0, SVG Export Plug-In . SVG Version: 6.00 Build 0)  -->
<!-- Artist: @KevDoy for Trenta.io -->
<!-- Vector Conversion by @Genghis-Khanr -->
<svg version="1.1" xmlns="http://www.w3.org/2000/svg" xmlns:xlink="http://www.w3.org/1999/xlink" x="0px" y="0px"
	 viewBox="0 0 1024 1024" style="enable-background:new 0 0 1024 1024;" xml:space="preserve">
<style type="text/css">
	.st0{fill:#FFFFFF;}
	.st1{fill:url(#SVGID_1_);}
</style>
<g id="White">
	<circle class="st0" cx="512" cy="512" r="447"/>
</g>
<g id="icon">
	<linearGradient id="SVGID_1_" gradientUnits="userSpaceOnUse" x1="512" y1="761.5" x2="512" y2="262.5">
		<stop  offset="0.3346" style="stop-color:#F02697"/>
		<stop  offset="0.4671" style="stop-color:#BA2B9D"/>
		<stop  offset="0.5983" style="stop-color:#8C2FA3"/>
		<stop  offset="0.7142" style="stop-color:#6B32A7"/>
		<stop  offset="0.8103" style="stop-color:#5634A9"/>
		<stop  offset="0.8748" style="stop-color:#4F35AA"/>
	</linearGradient>
	<polygon class="st1" points="512,262.5 484,278.5 484,308.5 458.5,293.5 430,308.5 430,341 484,373.5 484,463.5 405,418.5 
		405,355.5 377,339.5 350,355.5 350,384.6 324.5,370.5 296,387.5 296,420.3 321,434.3 296,448.8 296,481.5 323.5,497.5 377,466.5 
		455,512 377,557.5 324.5,526.5 296,542.5 296,575.5 321,589.6 296,603.5 296,637.5 323.5,653.5 350,639.4 350,668.4 377,684.4 
		405,668.4 405,605.5 484,560.3 484,650.5 430,682.5 430,715.4 458.5,731.5 484,715.4 484,745.5 512,761.5 540,745.5 540,715.4 
		565.5,731.5 594,715.4 594,682.5 540,650.5 540,560.3 619,605.5 619,668.4 647,684.4 674,668.4 674,639.4 700.5,653.5 728,637.5 
		728,603.5 703,589.6 728,575.5 728,542.5 699.5,526.5 647,557.5 569,512 647,466.5 700.5,497.5 728,481.5 728,448.8 703,434.3 
		728,420.3 728,387.5 699.5,370.5 674,384.6 674,355.5 647,339.5 619,355.5 619,418.5 540,463.5 540,373.5 594,341 594,308.5 
		565.5,293.5 540,308.5 540,278.5 	"/>
</g>
</svg>
