<?xml version="1.0" encoding="utf-8"?>
<!-- Generator: Adobe Illustrator 23.0.1, SVG Export Plug-In . SVG Version: 6.00 Build 0)  -->
<!-- Artist: @KevDoy for Trenta.io -->
<svg version="1.1" xmlns="http://www.w3.org/2000/svg" xmlns:xlink="http://www.w3.org/1999/xlink" x="0px" y="0px"
	 viewBox="0 0 1024 1024" style="enable-background:new 0 0 1024 1024;" xml:space="preserve">
<style type="text/css">
	.st0{fill:url(#polygon15_1_);}
	.st1{fill:url(#polygon25_1_);}
	.st2{fill:#9D5518;}
	.st3{fill:#A25539;}
	.st4{fill:url(#polygon44_1_);}
	.st5{fill:url(#polygon58_1_);}
	.st6{fill:url(#polygon72_1_);}
	.st7{fill:url(#path86_1_);}
	.st8{fill:none;stroke:#000000;stroke-miterlimit:10;}
	.st9{fill:#AD631C;}
	.st10{fill:url(#polygon102_1_);}
	.st11{fill:#E2A777;}
	.st12{fill:#525252;}
	.st13{fill:url(#Background_2_);}
	.st14{fill:url(#SVGID_1_);}
	.st15{fill:url(#SVGID_2_);}
	.st16{fill:url(#SVGID_3_);}
	.st17{fill:url(#SVGID_4_);}
	.st18{opacity:0.45;}
	.st19{fill:#ACA9A5;}
	.st20{fill:url(#Outline_1_);}
	.st21{fill:url(#SVGID_5_);}
	.st22{fill:url(#SVGID_6_);}
	.st23{display:none;fill:#525252;}
	.st24{fill:url(#SVGID_7_);}
	.st25{fill:url(#SVGID_8_);}
	.st26{fill:url(#SVGID_9_);}
	.st27{fill:url(#SVGID_10_);}
	.st28{fill:#D7D7D6;}
	.st29{fill:url(#SVGID_11_);}
</style>
<g id="Layer_2">
	<g id="Inner_Box_Gradient_1">
		
			<linearGradient id="polygon15_1_" gradientUnits="userSpaceOnUse" x1="677.2045" y1="813.7491" x2="526.8914" y2="580.1216" gradientTransform="matrix(1 0 0 -1 0 1024)">
			<stop  offset="0.1889" style="stop-color:#A35D22"/>
			<stop  offset="0.2099" style="stop-color:#A05B21"/>
			<stop  offset="0.4969" style="stop-color:#7D4113"/>
			<stop  offset="0.7324" style="stop-color:#68320B"/>
			<stop  offset="0.8857" style="stop-color:#602C08"/>
		</linearGradient>
		<polygon id="polygon15" class="st0" points="516.2,432.5 516.2,156.2 799.5,324.5 		"/>
	</g>
	<g id="Inner_Box_Gradient_2">
		
			<linearGradient id="polygon25_1_" gradientUnits="userSpaceOnUse" x1="328.4944" y1="812.6057" x2="425.5591" y2="507.2726" gradientTransform="matrix(1 0 0 -1 0 1024)">
			<stop  offset="2.461117e-03" style="stop-color:#A35D22"/>
			<stop  offset="0.4421" style="stop-color:#743B10"/>
			<stop  offset="0.6785" style="stop-color:#602C08"/>
		</linearGradient>
		<polygon id="polygon25" class="st1" points="516.2,432.5 516.2,156.2 142.5,271.8 401.8,476.1 		"/>
	</g>
	<g id="Layer_3_1_">
		<polygon id="polygon28" class="st2" points="401.8,476.1 799.5,324.5 787.1,663.6 401.8,822.2 154.3,622.1 142.5,271.8 		"/>
	</g>
	<g id="bottom_left_flap">
		<g id="g46">
			<polygon id="polygon31" class="st3" points="399.4,474.2 399.4,480.4 242,555.2 9.4,358.1 9.4,352.9 142.5,271.8 			"/>
			
				<linearGradient id="polygon44_1_" gradientUnits="userSpaceOnUse" x1="158.8471" y1="546.3098" x2="246.8024" y2="669.6368" gradientTransform="matrix(1 0 0 -1 0 1024)">
				<stop  offset="0" style="stop-color:#D98E56"/>
				<stop  offset="0.3338" style="stop-color:#DA915A"/>
				<stop  offset="0.6546" style="stop-color:#DC9965"/>
				<stop  offset="0.9691" style="stop-color:#E0A779"/>
				<stop  offset="1" style="stop-color:#E1A97B"/>
			</linearGradient>
			<polygon id="polygon44" class="st4" points="399.4,474.2 242,548.2 10.2,352.3 142.5,271.8 			"/>
		</g>
	</g>
	<g id="bottom_right_flap">
		<g id="g60">
			<polygon id="polygon49" class="st3" points="404.3,475.2 404.3,479.7 518.9,631.6 886.7,466.1 799.5,324.5 			"/>
			
				<linearGradient id="polygon58_1_" gradientUnits="userSpaceOnUse" x1="679.6681" y1="465.5475" x2="604.5715" y2="658.3953" gradientTransform="matrix(1 0 0 -1 0 1024)">
				<stop  offset="0" style="stop-color:#D98E56"/>
				<stop  offset="0.4284" style="stop-color:#DC9763"/>
				<stop  offset="1" style="stop-color:#E1A97B"/>
			</linearGradient>
			<polygon id="polygon58" class="st5" points="404.3,475.2 522.7,629.8 886.7,466.1 799.5,324.5 			"/>
		</g>
	</g>
	<g id="top_right_flap">
		<g id="g74">
			<polygon id="polygon63" class="st3" points="801.2,327.1 908.6,262.4 908.6,259.3 635.9,103.1 517.5,157 799.5,324.5 			"/>
			
				<linearGradient id="polygon72_1_" gradientUnits="userSpaceOnUse" x1="738.6843" y1="862.9517" x2="670.7972" y2="737.9913" gradientTransform="matrix(1 0 0 -1 0 1024)">
				<stop  offset="0" style="stop-color:#D98E56"/>
				<stop  offset="0.4284" style="stop-color:#DC9763"/>
				<stop  offset="1" style="stop-color:#E1A97B"/>
			</linearGradient>
			<polygon id="polygon72" class="st6" points="799.5,324.5 908.6,259.3 635.9,103.1 517.5,157 			"/>
		</g>
	</g>
	<g id="top_left_flap">
		<path id="path77" class="st3" d="M138.4,274.3L84.3,166.9l2.6-4.6L433.6,52.8c0,0,57.4,92.4,79.8,104.3l-371,114.7L138.4,274.3z"
			/>
		
			<linearGradient id="path86_1_" gradientUnits="userSpaceOnUse" x1="271.8575" y1="914.0845" x2="337.1914" y2="792.4282" gradientTransform="matrix(1 0 0 -1 0 1024)">
			<stop  offset="0" style="stop-color:#D98E56"/>
			<stop  offset="0.4284" style="stop-color:#DC9763"/>
			<stop  offset="1" style="stop-color:#E1A97B"/>
		</linearGradient>
		<path id="path86" class="st7" d="M87,162.4L433.6,52.8c0,0,57.4,92.4,79.8,104.3l-371,114.7L87,162.4z"/>
	</g>
	<g id="Layer_12_1_">
		<path id="path90" class="st8" d="M154.3,622.1"/>
		<polygon id="polygon92" class="st9" points="401.8,476.1 400.9,475.4 400.9,821.5 401.8,822.2 402.7,821.8 402.7,475.8 		"/>
	</g>
	<g id="Top_Stroke_1_">
		
			<linearGradient id="polygon102_1_" gradientUnits="userSpaceOnUse" x1="516.1757" y1="867.771" x2="516.1757" y2="591.1155" gradientTransform="matrix(1 0 0 -1 0 1024)">
			<stop  offset="0.1889" style="stop-color:#A35D22"/>
			<stop  offset="0.527" style="stop-color:#9C5316"/>
			<stop  offset="0.8857" style="stop-color:#974D0E"/>
		</linearGradient>
		<polygon id="polygon102" class="st10" points="515.3,156.5 515.3,432.9 517.1,432.2 517.1,156.8 516.2,156.2 		"/>
	</g>
	<g id="Top_Lines">
		<polygon id="polygon105" class="st11" points="305.2,400.5 169.3,486.2 170.8,487.4 306.7,401.8 		"/>
		<polygon id="polygon107" class="st11" points="297.6,394.6 162,480.1 163.5,481.3 299.2,395.8 		"/>
		<polygon id="polygon109" class="st11" points="321.4,413.4 184.9,499.5 186.4,500.7 323,414.6 		"/>
		<polygon id="polygon111" class="st11" points="314,407.5 177.7,493.4 179.1,494.5 315.4,408.6 		"/>
		<polygon id="polygon113" class="st11" points="337.7,426.2 200.6,512.6 202,513.9 339.3,427.4 		"/>
		<polygon id="polygon115" class="st11" points="330.2,420.3 193.3,506.5 194.8,507.8 331.7,421.4 		"/>
		<polygon id="polygon117" class="st11" points="354.1,439 216.3,525.9 217.7,527.1 355.5,440.2 		"/>
		<polygon id="polygon119" class="st11" points="346.5,433.1 209,519.8 210.4,521 347.9,434.3 		"/>
		<polygon id="polygon121" class="st11" points="370.3,451.9 231.9,539.1 233.3,540.3 371.8,453.1 		"/>
		<polygon id="polygon123" class="st11" points="362.7,446 224.7,533 226.1,534.2 364.2,447.1 		"/>
		<polygon id="polygon125" class="st11" points="386.6,464.7 292.4,524.1 305.7,517.8 388,465.9 		"/>
		<polygon id="polygon127" class="st11" points="379,458.7 240.2,546.2 241.7,547.4 380.6,459.9 		"/>
		<polygon id="polygon129" class="st11" points="288.5,387.5 153.3,472.6 154.7,473.9 290,388.6 		"/>
		<polygon id="polygon131" class="st11" points="281,381.5 146,466.5 147.4,467.8 282.5,382.7 		"/>
		<polygon id="polygon133" class="st11" points="271.8,374.3 137.2,459.1 138.7,460.4 273.3,375.5 		"/>
		<polygon id="polygon135" class="st11" points="264.3,368.4 129.9,453 131.4,454.2 265.7,369.5 		"/>
		<polygon id="polygon137" class="st11" points="255.1,361.2 121.2,445.6 122.6,446.8 256.6,362.3 		"/>
		<polygon id="polygon139" class="st11" points="247.6,355.2 113.9,439.5 115.3,440.6 249.1,356.4 		"/>
		<polygon id="polygon141" class="st11" points="238.4,348 105.2,432 106.6,433.2 240,349.2 		"/>
		<polygon id="polygon143" class="st11" points="230.9,342 97.9,425.9 99.3,427.1 232.4,343.2 		"/>
		<polygon id="polygon145" class="st11" points="221.8,334.8 89.1,418.5 90.6,419.6 223.3,336 		"/>
		<polygon id="polygon147" class="st11" points="214.2,328.9 81.8,412.3 83.3,413.5 215.7,330.1 		"/>
		<polygon id="polygon149" class="st11" points="205.1,321.7 73.1,404.9 74.5,406.1 206.5,322.9 		"/>
		<polygon id="polygon151" class="st11" points="197.5,315.7 65.8,398.7 67.2,400 199.1,316.9 		"/>
		<polygon id="polygon153" class="st11" points="188.4,308.5 57,391.3 58.5,392.5 189.9,309.7 		"/>
		<polygon id="polygon155" class="st11" points="180.9,302.6 49.7,385.2 51.2,386.4 182.4,303.7 		"/>
		<polygon id="polygon157" class="st11" points="171.7,295.4 41,377.7 42.4,379 173.2,296.5 		"/>
		<polygon id="polygon159" class="st11" points="164.2,289.4 33.7,371.6 35.1,372.9 165.6,290.6 		"/>
		<polygon id="polygon161" class="st11" points="155,282.2 25,364.2 26.4,365.4 156.5,283.4 		"/>
		<polygon id="polygon163" class="st11" points="147.5,276.3 17.7,358.1 19.1,359.3 149,277.4 		"/>
		<polygon id="polygon165" class="st11" points="89.7,161.9 155.9,267.2 157.7,266.6 91.5,161.4 		"/>
		<polygon id="polygon167" class="st11" points="97.4,159.5 163.6,264.8 165.4,264.2 99.2,158.9 		"/>
		<polygon id="polygon169" class="st11" points="105.2,157 171.5,262.4 173.3,261.8 107.1,156.4 		"/>
		<polygon id="polygon171" class="st11" points="113,154.5 179.3,260 181.1,259.4 114.8,154 		"/>
		<polygon id="polygon173" class="st11" points="120.8,152.1 187.2,257.5 188.9,257 122.5,151.5 		"/>
		<polygon id="polygon175" class="st11" points="128.6,149.7 194.9,255.1 196.7,254.5 130.4,149 		"/>
		<polygon id="polygon177" class="st11" points="136.4,147.1 202.8,252.7 204.6,252.1 138.1,146.6 		"/>
		<polygon id="polygon179" class="st11" points="144.2,144.7 210.6,250.3 212.4,249.8 146,144.2 		"/>
		<polygon id="polygon181" class="st11" points="151.9,142.3 218.4,247.9 220.1,247.3 153.7,141.6 		"/>
		<polygon id="polygon183" class="st11" points="159.8,139.7 226.2,245.4 228,244.9 161.6,139.2 		"/>
		<polygon id="polygon185" class="st11" points="167.5,137.3 234,243 235.8,242.5 169.3,136.8 		"/>
		<polygon id="polygon187" class="st11" points="175.4,134.9 241.9,240.6 243.6,240 177.1,134.3 		"/>
		<polygon id="polygon189" class="st11" points="183.1,132.3 249.6,238.2 251.4,237.6 184.9,131.8 		"/>
		<polygon id="polygon191" class="st11" points="190.9,129.9 257.5,235.8 259.3,235.3 192.7,129.4 		"/>
		<polygon id="polygon193" class="st11" points="198.7,127.5 265.3,233.4 267.1,232.8 200.5,126.9 		"/>
		<polygon id="polygon195" class="st11" points="206.4,125 273.1,230.9 274.8,230.4 208.3,124.4 		"/>
		<polygon id="polygon197" class="st11" points="214.3,122.5 280.9,228.5 282.7,228 216,122 		"/>
		<polygon id="polygon199" class="st11" points="222,120.1 288.7,226.1 290.5,225.5 223.8,119.6 		"/>
		<polygon id="polygon201" class="st11" points="229.9,117.7 296.6,223.7 298.4,223.1 231.6,117 		"/>
		<polygon id="polygon203" class="st11" points="237.6,115.1 304.3,221.3 306.1,220.8 239.4,114.6 		"/>
		<polygon id="polygon205" class="st11" points="245.4,112.7 312.2,218.9 314,218.3 247.2,112.2 		"/>
		<polygon id="polygon207" class="st11" points="253.2,110.3 320,216.4 321.8,215.9 255,109.7 		"/>
		<polygon id="polygon209" class="st11" points="261,107.7 327.8,214 329.5,213.5 262.8,107.2 		"/>
		<polygon id="polygon211" class="st11" points="268.8,105.3 335.6,211.6 337.4,211 270.5,104.8 		"/>
		<polygon id="polygon213" class="st11" points="276.6,102.9 343.4,209.2 345.2,208.7 278.4,102.3 		"/>
		<polygon id="polygon215" class="st11" points="284.3,100.4 351.3,206.8 353.1,206.2 286.1,99.8 		"/>
		<polygon id="polygon217" class="st11" points="292.1,97.9 359,204.4 360.8,203.8 294,97.4 		"/>
		<polygon id="polygon219" class="st11" points="299.9,95.5 366.9,201.9 368.7,201.4 301.7,95 		"/>
		<polygon id="polygon221" class="st11" points="307.7,93.1 374.7,199.5 376.5,198.9 309.5,92.4 		"/>
		<polygon id="polygon223" class="st11" points="315.5,90.5 382.5,197.1 384.2,196.5 317.3,90 		"/>
		<polygon id="polygon225" class="st11" points="323.3,88.1 390.3,194.7 392.1,194.2 325,87.6 		"/>
		<polygon id="polygon227" class="st11" points="331.1,85.7 398.1,192.3 399.9,191.7 332.9,85 		"/>
		<polygon id="polygon229" class="st11" points="338.8,83.1 406,189.8 407.8,189.3 340.6,82.6 		"/>
		<polygon id="polygon231" class="st11" points="346.7,80.7 413.8,187.4 415.5,186.9 348.5,80.2 		"/>
		<polygon id="polygon233" class="st11" points="354.4,78.3 421.6,185 423.4,184.4 356.2,77.7 		"/>
		<polygon id="polygon235" class="st11" points="362.3,75.8 429.4,182.6 431.2,182 364,75.2 		"/>
		<polygon id="polygon237" class="st11" points="370,73.3 437.2,180.2 438.9,179.7 371.8,72.8 		"/>
		<polygon id="polygon239" class="st11" points="377.8,70.9 445,177.8 446.8,177.2 379.6,70.3 		"/>
		<polygon id="polygon241" class="st11" points="385.6,68.5 452.8,175.3 454.6,174.8 387.4,67.8 		"/>
		<polygon id="polygon243" class="st11" points="393.3,65.9 460.7,172.9 462.5,172.4 395.2,65.4 		"/>
		<polygon id="polygon245" class="st11" points="401.2,63.5 468.5,170.5 470.2,169.9 402.9,63 		"/>
		<polygon id="polygon247" class="st11" points="408.9,61.1 476.3,168.1 478.1,167.6 410.7,60.4 		"/>
		<polygon id="polygon249" class="st11" points="416.8,58.5 484.1,165.7 485.9,165.2 418.5,58 		"/>
		<polygon id="polygon251" class="st11" points="424.5,56.1 491.9,163.3 493.7,162.7 426.3,55.6 		"/>
		<path id="path253" class="st11" d="M501.5,160.3l-45.2-71.9c-11.9-17.7-21.2-32.4-22.8-35.1l-1.2,0.4l67.4,107.1L501.5,160.3z"/>
		<polygon id="polygon255" class="st11" points="531,625.6 413.4,472.2 411.6,472.9 529.2,626.4 		"/>
		<polygon id="polygon257" class="st11" points="540.1,621.5 423,468.6 421.2,469.2 538.4,622.2 		"/>
		<polygon id="polygon259" class="st11" points="549.4,617.4 432.6,464.9 430.8,465.6 547.7,618.1 		"/>
		<polygon id="polygon261" class="st11" points="558.6,613.2 442.2,461.2 440.5,461.9 556.9,613.9 		"/>
		<polygon id="polygon263" class="st11" points="567.9,609.1 451.8,457.6 450,458.2 566.2,609.8 		"/>
		<polygon id="polygon265" class="st11" points="577.1,604.8 461.4,453.9 459.7,454.6 575.4,605.6 		"/>
		<polygon id="polygon267" class="st11" points="586.4,600.7 471,450.2 469.3,450.9 584.7,601.5 		"/>
		<polygon id="polygon269" class="st11" points="595.6,596.5 480.7,446.6 478.9,447.2 593.9,597.3 		"/>
		<polygon id="polygon271" class="st11" points="604.8,592.4 490.2,442.9 488.5,443.6 603.1,593.2 		"/>
		<polygon id="polygon273" class="st11" points="614,588.2 499.9,439.2 498.1,439.9 612.3,589.1 		"/>
		<polygon id="polygon275" class="st11" points="623.2,584.1 509.5,435.6 507.7,436.2 621.6,584.8 		"/>
		<polygon id="polygon277" class="st11" points="632.5,580 519.1,431.9 517.3,432.6 630.8,580.7 		"/>
		<polygon id="polygon279" class="st11" points="641.7,575.8 528.7,428.2 526.9,428.9 640.1,576.5 		"/>
		<polygon id="polygon281" class="st11" points="651,571.7 538.3,424.6 536.5,425.2 649.3,572.4 		"/>
		<polygon id="polygon283" class="st11" points="660.2,567.5 547.9,420.9 546.1,421.6 658.6,568.2 		"/>
		<polygon id="polygon285" class="st11" points="669.5,563.4 557.5,417.2 555.7,417.9 667.8,564.1 		"/>
		<polygon id="polygon287" class="st11" points="678.7,559.2 567.1,413.6 565.4,414.2 677,559.9 		"/>
		<polygon id="polygon289" class="st11" points="687.9,555 576.7,409.9 574.9,410.6 686.2,555.8 		"/>
		<polygon id="polygon291" class="st11" points="697.1,550.8 586.3,406.2 584.6,406.9 695.4,551.7 		"/>
		<polygon id="polygon293" class="st11" points="706.4,546.7 595.9,402.6 594.2,403.2 704.7,547.5 		"/>
		<polygon id="polygon295" class="st11" points="715.6,542.6 605.6,398.9 603.8,399.6 713.9,543.4 		"/>
		<polygon id="polygon297" class="st11" points="724.9,538.4 615.1,395.2 613.4,395.9 723.2,539.2 		"/>
		<polygon id="polygon299" class="st11" points="734.1,534.3 624.8,391.6 623,392.2 732.4,535.1 		"/>
		<polygon id="polygon301" class="st11" points="743.4,530.1 634.4,387.9 632.6,388.6 741.6,530.8 		"/>
		<polygon id="polygon303" class="st11" points="752.5,526 644,384.2 642.2,384.9 750.8,526.7 		"/>
		<polygon id="polygon305" class="st11" points="761.8,521.8 653.6,380.6 651.8,381.2 760.1,522.5 		"/>
		<polygon id="polygon307" class="st11" points="771,517.7 663.2,376.9 661.4,377.6 769.3,518.4 		"/>
		<polygon id="polygon309" class="st11" points="780.2,513.5 672.8,373.2 671.1,373.9 778.6,514.3 		"/>
		<polygon id="polygon311" class="st11" points="789.5,509.4 682.4,369.6 680.6,370.3 787.8,510.1 		"/>
		<polygon id="polygon313" class="st11" points="798.7,505.2 692,365.9 690.3,366.6 797.1,506 		"/>
		<polygon id="polygon315" class="st11" points="808,501 701.6,362.2 699.8,363 806.3,501.8 		"/>
		<polygon id="polygon317" class="st11" points="817.2,496.9 711.3,358.6 709.5,359.3 815.5,497.7 		"/>
		<polygon id="polygon319" class="st11" points="826.4,492.7 720.8,354.9 719.1,355.7 824.7,493.5 		"/>
		<polygon id="polygon321" class="st11" points="835.6,488.6 730.5,351.2 728.7,352 834,489.4 		"/>
		<polygon id="polygon323" class="st11" points="844.9,484.4 740,347.6 738.3,348.3 843.2,485.2 		"/>
		<polygon id="polygon325" class="st11" points="854.1,480.3 749.7,343.9 748,344.6 852.5,481 		"/>
		<polygon id="polygon327" class="st11" points="863.4,476.1 759.3,340.2 757.5,341 861.7,476.9 		"/>
		<polygon id="polygon329" class="st11" points="872.6,472 768.9,336.6 767.1,337.3 870.9,472.7 		"/>
		<polygon id="polygon331" class="st11" points="881.9,467.8 778.5,332.9 776.7,333.6 880.2,468.6 		"/>
		<polygon id="polygon333" class="st11" points="786.3,330 868.1,436.6 858.8,421.5 788.1,329.3 		"/>
		<polygon id="polygon335" class="st11" points="808,339 797.7,325.6 796,326.3 817.3,354.1 		"/>
		<path id="polygon337" class="st11" d="M404.1,474.8l-0.3,0.1L404.1,474.8z"/>
		<polygon id="polygon339" class="st11" points="531,625.6 413.4,472.2 411.6,472.9 529.2,626.4 		"/>
		<polygon id="polygon341" class="st11" points="540.1,621.5 423,468.6 421.2,469.2 538.4,622.2 		"/>
		<polygon id="polygon343" class="st11" points="549.4,617.4 432.6,464.9 430.8,465.6 547.7,618.1 		"/>
		<polygon id="polygon345" class="st11" points="558.6,613.2 442.2,461.2 440.5,461.9 556.9,613.9 		"/>
		<polygon id="polygon347" class="st11" points="567.9,609.1 451.8,457.6 450,458.2 566.2,609.8 		"/>
		<polygon id="polygon349" class="st11" points="577.1,604.8 461.4,453.9 459.7,454.6 575.4,605.6 		"/>
		<polygon id="polygon351" class="st11" points="586.4,600.7 471,450.2 469.3,450.9 584.7,601.5 		"/>
		<polygon id="polygon353" class="st11" points="595.6,596.5 480.7,446.6 478.9,447.2 593.9,597.3 		"/>
		<polygon id="polygon355" class="st11" points="719.1,151.8 618.5,215.9 620.3,217 720.9,152.8 		"/>
		<polygon id="polygon357" class="st11" points="709.4,146.2 608.9,210.2 610.6,211.2 711.1,147.2 		"/>
		<polygon id="polygon359" class="st11" points="699.6,140.5 599.3,204.5 601,205.5 701.4,141.6 		"/>
		<polygon id="polygon361" class="st11" points="689.8,135 589.6,198.8 591.3,199.8 691.5,136 		"/>
		<polygon id="polygon363" class="st11" points="680,129.4 580,193.1 581.8,194.1 681.8,130.4 		"/>
		<polygon id="polygon365" class="st11" points="670.3,123.8 570.4,187.4 572.1,188.4 672,124.8 		"/>
		<polygon id="polygon367" class="st11" points="660.5,118.2 560.8,181.6 562.5,182.7 662.3,119.2 		"/>
		<polygon id="polygon369" class="st11" points="650.6,112.5 551.1,176 552.9,177 652.4,113.6 		"/>
		<polygon id="polygon371" class="st11" points="640.9,106.9 541.5,170.3 543.3,171.3 642.6,107.9 		"/>
		<polygon id="polygon373" class="st11" points="604.1,118.5 531.9,164.5 533.7,165.6 615.9,113.2 		"/>
		<polygon id="polygon375" class="st11" points="538.9,148.3 522.3,158.8 524,159.8 550.6,142.9 		"/>
		<polygon id="polygon377" class="st11" points="727.3,156.5 626.5,220.7 628.2,221.7 729,157.5 		"/>
		<polygon id="polygon379" class="st11" points="735.4,161.1 634.5,225.4 636.2,226.4 737.2,162.2 		"/>
		<polygon id="polygon381" class="st11" points="743.6,165.8 642.5,230.2 644.2,231.2 745.3,166.9 		"/>
		<polygon id="polygon383" class="st11" points="751.7,170.5 650.5,235 652.3,236 753.5,171.5 		"/>
		<polygon id="polygon385" class="st11" points="759.9,175.2 658.6,239.7 660.3,240.8 761.7,176.1 		"/>
		<polygon id="polygon387" class="st11" points="768,179.8 666.6,244.5 668.3,245.5 769.9,180.8 		"/>
		<polygon id="polygon389" class="st11" points="776.2,184.5 674.6,249.2 676.3,250.3 778,185.5 		"/>
		<polygon id="polygon391" class="st11" points="784.4,189.2 682.6,254 684.3,255 786.2,190.2 		"/>
		<polygon id="polygon393" class="st11" points="792.6,193.8 690.6,258.8 692.4,259.8 794.3,194.9 		"/>
		<polygon id="polygon395" class="st11" points="800.7,198.5 698.7,263.6 700.4,264.5 802.5,199.5 		"/>
		<polygon id="polygon397" class="st11" points="808.9,203.2 706.7,268.2 708.4,269.3 810.6,204.2 		"/>
		<polygon id="polygon399" class="st11" points="817,207.9 714.7,273 716.4,274.1 818.8,208.9 		"/>
		<polygon id="polygon401" class="st11" points="825.2,212.6 722.7,277.8 724.4,278.8 826.9,213.5 		"/>
		<polygon id="polygon403" class="st11" points="833.3,217.2 730.7,282.6 732.5,283.6 835.1,218.2 		"/>
		<polygon id="polygon405" class="st11" points="841.5,221.9 738.8,287.3 740.5,288.3 843.2,222.9 		"/>
		<polygon id="polygon407" class="st11" points="849.6,226.5 746.8,292 748.5,293.1 851.4,227.6 		"/>
		<polygon id="polygon409" class="st11" points="857.8,231.2 754.8,296.8 756.5,297.9 859.5,232.2 		"/>
		<polygon id="polygon411" class="st11" points="865.9,235.9 762.8,301.6 764.5,302.7 867.7,236.9 		"/>
		<polygon id="polygon413" class="st11" points="874.1,240.6 770.8,306.4 772.6,307.4 875.8,241.6 		"/>
		<polygon id="polygon415" class="st11" points="882.2,245.3 778.9,311.1 780.6,312.1 884,246.3 		"/>
		<polygon id="polygon417" class="st11" points="890.4,249.9 786.9,315.9 788.6,316.9 892.1,250.9 		"/>
		<polygon id="polygon419" class="st11" points="794.9,320.6 796.6,321.7 900.3,255.6 898.5,254.5 		"/>
	</g>
</g>
<g id="Layer_12">
	<g id="Layer_3">
		<g id="Background">
			<circle class="st12" cx="764.8" cy="719.9" r="221.4"/>
		</g>
		
			<radialGradient id="Background_2_" cx="767.1462" cy="300.0737" r="219.1985" gradientTransform="matrix(1 0 0 -1 0 1024)" gradientUnits="userSpaceOnUse">
			<stop  offset="0" style="stop-color:#525252;stop-opacity:0"/>
			<stop  offset="0.468" style="stop-color:#505050;stop-opacity:9.360874e-02"/>
			<stop  offset="0.6367" style="stop-color:#494949;stop-opacity:0.1273"/>
			<stop  offset="0.7568" style="stop-color:#3E3E3E;stop-opacity:0.1514"/>
			<stop  offset="0.8539" style="stop-color:#2D2D2D;stop-opacity:0.1708"/>
			<stop  offset="0.9361" style="stop-color:#171717;stop-opacity:0.1872"/>
			<stop  offset="1" style="stop-color:#000000;stop-opacity:0.2"/>
		</radialGradient>
		<circle id="Background_1_" class="st13" cx="764.8" cy="719.9" r="221.4"/>
	</g>
	<g id="Layer_15">
		<g>
			<g>
				<g>
					
						<linearGradient id="SVGID_1_" gradientUnits="userSpaceOnUse" x1="865.599" y1="120.9051" x2="894.1399" y2="120.9051" gradientTransform="matrix(1 0 0 -1 0 1024)">
						<stop  offset="0" style="stop-color:#BCBEBB"/>
						<stop  offset="0.4336" style="stop-color:#B9BBB7"/>
						<stop  offset="0.8287" style="stop-color:#B1B0AC"/>
						<stop  offset="1" style="stop-color:#ACA9A5"/>
					</linearGradient>
					<path class="st14" d="M866.2,896.6c-2.4,4,2.4,10.1,8.3,15.6c6.8-3.9,13.3-8.1,19.6-12.6C884.1,895.6,869.6,890.8,866.2,896.6z
						"/>
					
						<linearGradient id="SVGID_2_" gradientUnits="userSpaceOnUse" x1="889.382" y1="147.5633" x2="922.5024" y2="147.5633" gradientTransform="matrix(1 0 0 -1 0 1024)">
						<stop  offset="0" style="stop-color:#BCBEBB"/>
						<stop  offset="0.4336" style="stop-color:#B9BBB7"/>
						<stop  offset="0.8287" style="stop-color:#B1B0AC"/>
						<stop  offset="1" style="stop-color:#ACA9A5"/>
					</linearGradient>
					<path class="st15" d="M922.5,875.3c-8.1-5.5-26.3-18.5-31.9-12.3c-5.2,5.7,7.1,20.5,14,28.6C910.9,886.5,916.9,881,922.5,875.3
						z"/>
					
						<linearGradient id="SVGID_3_" gradientUnits="userSpaceOnUse" x1="919.3724" y1="173.1246" x2="945.026" y2="173.1246" gradientTransform="matrix(1 0 0 -1 0 1024)">
						<stop  offset="0" style="stop-color:#BCBEBB"/>
						<stop  offset="0.4336" style="stop-color:#B9BBB7"/>
						<stop  offset="0.8287" style="stop-color:#B1B0AC"/>
						<stop  offset="1" style="stop-color:#ACA9A5"/>
					</linearGradient>
					<path class="st16" d="M921.5,835.2c-6.5,4.7,3.6,23.2,8.5,32.2c5.3-6,10.4-12.3,15.1-18.8C937.5,840.9,926.8,831.4,921.5,835.2
						z"/>
					
						<linearGradient id="SVGID_4_" gradientUnits="userSpaceOnUse" x1="953.9745" y1="200.4954" x2="964.3315" y2="200.4954" gradientTransform="matrix(1 0 0 -1 0 1024)">
						<stop  offset="0" style="stop-color:#BCBEBB"/>
						<stop  offset="0.4336" style="stop-color:#B9BBB7"/>
						<stop  offset="0.8287" style="stop-color:#B1B0AC"/>
						<stop  offset="1" style="stop-color:#ACA9A5"/>
					</linearGradient>
					<path class="st17" d="M957.5,814.4c-4.4,2-4,10.3-2.3,18.6c3.3-5.5,6.3-11.1,9.1-17C961.9,814.2,959.5,813.5,957.5,814.4z"/>
				</g>
			</g>
			<g class="st18">
				<g>
					<path d="M866.2,896.6c-2.4,4,2.4,10.1,8.3,15.6c6.8-3.9,13.3-8.1,19.6-12.6C884.1,895.6,869.6,890.8,866.2,896.6z"/>
					<path d="M922.5,875.3c-8.1-5.5-26.3-18.5-31.9-12.3c-5.2,5.7,7.1,20.5,14,28.6C910.9,886.5,916.9,881,922.5,875.3z"/>
					<path d="M921.5,835.2c-6.5,4.7,3.6,23.2,8.5,32.2c5.3-6,10.4-12.3,15.1-18.8C937.5,840.9,926.8,831.4,921.5,835.2z"/>
					<path d="M957.5,814.4c-4.4,2-4,10.3-2.3,18.6c3.3-5.5,6.3-11.1,9.1-17C961.9,814.2,959.5,813.5,957.5,814.4z"/>
				</g>
			</g>
		</g>
		<g>
			<g>
				<g>
					<path class="st19" d="M575.9,835.4c2.2-9.3,3.4-19.4-1.6-21.6c-2.5-1.1-5.6,0.3-8.6,3C568.8,823.1,572.2,829.4,575.9,835.4z"/>
					<path class="st19" d="M610.3,834.5c-5.7-4.1-17.5,7.1-25,14.9c4.8,6.7,10,13.1,15.5,19.2C605,860.7,617.2,839.6,610.3,834.5z"
						/>
					<path class="st19" d="M641.1,862.3c-5.9-6.6-26.5,8.7-33.4,13.3c-0.1,0-0.1,0.1-0.1,0.1c5.8,5.9,11.9,11.4,18.4,16.6
						C632.5,884.7,646.6,868.4,641.1,862.3z"/>
					<path class="st19" d="M635.7,899.7c6.5,4.7,13.3,9,20.3,13c6.5-5.9,12.1-12.4,9.5-16.8C661.9,889.6,645.7,895.6,635.7,899.7z"
						/>
				</g>
			</g>
			<g class="st18">
				<g>
					<path d="M575.9,835.4c2.2-9.3,3.4-19.4-1.6-21.6c-2.5-1.1-5.6,0.3-8.6,3C568.8,823.1,572.2,829.4,575.9,835.4z"/>
					<path d="M610.3,834.5c-5.7-4.1-17.5,7.1-25,14.9c4.8,6.7,10,13.1,15.5,19.2C605,860.7,617.2,839.6,610.3,834.5z"/>
					<path d="M641.1,862.3c-5.9-6.6-26.5,8.7-33.4,13.3c-0.1,0-0.1,0.1-0.1,0.1c5.8,5.9,11.9,11.4,18.4,16.6
						C632.5,884.7,646.6,868.4,641.1,862.3z"/>
					<path d="M635.7,899.7c6.5,4.7,13.3,9,20.3,13c6.5-5.9,12.1-12.4,9.5-16.8C661.9,889.6,645.7,895.6,635.7,899.7z"/>
				</g>
			</g>
		</g>
		
			<linearGradient id="Outline_1_" gradientUnits="userSpaceOnUse" x1="764.8375" y1="531.3708" x2="764.8375" y2="76.7504" gradientTransform="matrix(1 0 0 -1 0 1024)">
			<stop  offset="0" style="stop-color:#D3E0E3"/>
			<stop  offset="1" style="stop-color:#ABB0B1"/>
		</linearGradient>
		<path id="Outline" class="st20" d="M764.8,498.6c122.3,0,221.4,99.1,221.4,221.4s-99.1,221.4-221.4,221.4s-221.4-99.1-221.4-221.4
			S642.6,498.6,764.8,498.6 M764.8,492.6c-30.7,0-60.5,6-88.5,17.8c-27.1,11.4-51.4,27.9-72.3,48.7c-20.9,20.9-37.3,45.2-48.7,72.3
			c-11.9,28-17.8,57.8-17.8,88.5c0,30.7,6,60.5,17.8,88.5c11.4,27.1,27.9,51.4,48.7,72.3c20.9,20.9,45.2,37.3,72.3,48.7
			c28,11.9,57.8,17.8,88.5,17.8c30.7,0,60.5-6,88.5-17.8c27.1-11.4,51.4-27.9,72.3-48.7c20.9-20.9,37.3-45.2,48.7-72.3
			c11.9-28,17.8-57.8,17.8-88.5c0-30.7-6-60.5-17.8-88.5c-11.4-27.1-27.9-51.4-48.7-72.3c-20.9-20.9-45.2-37.3-72.3-48.7
			C825.3,498.6,795.5,492.6,764.8,492.6L764.8,492.6z"/>
	</g>
	<g id="Layer_7">
		
			<linearGradient id="SVGID_5_" gradientUnits="userSpaceOnUse" x1="765.3116" y1="491.4969" x2="765.3116" y2="108.2839" gradientTransform="matrix(1 0 0 -1 0 1024)">
			<stop  offset="0" style="stop-color:#BCBEBB"/>
			<stop  offset="0.1667" style="stop-color:#C0C1BE"/>
			<stop  offset="0.3186" style="stop-color:#CBCBC9"/>
			<stop  offset="0.3593" style="stop-color:#CFCFCD"/>
			<stop  offset="0.3774" style="stop-color:#D2D1D0"/>
			<stop  offset="0.4806" style="stop-color:#DBDAD9"/>
			<stop  offset="0.6195" style="stop-color:#DEDDDC"/>
			<stop  offset="0.6311" style="stop-color:#DAD9D8"/>
			<stop  offset="0.7052" style="stop-color:#C6C4C1"/>
			<stop  offset="0.7857" style="stop-color:#B7B5B1"/>
			<stop  offset="0.8766" style="stop-color:#AFACA8"/>
			<stop  offset="1" style="stop-color:#ACA9A5"/>
		</linearGradient>
		<path class="st21" d="M930.9,727.5c-6.6-1.7-6.9-4.3-6.8-5.2c0-0.1,0-0.1,0-0.1c0,0,0,0,0-0.1c0,0,0,0,0-0.1
			c0-0.1,0.1-0.1,0.1-0.1l0,0c0.3-1.2,1.7-3,6.8-4.3c8.1-2.1,33.3-7.1,32.3-15.9s-26.6-8.5-34.9-8.8c-6.8-0.2-7.6-2.7-7.8-3.6
			c-0.1-1.2,0.7-3.4,5.7-5.9c7.5-3.7,31.1-13.8,28.3-22.3c-2.7-8.5-27.7-2.8-36-1.4c-5.2,0.9-7.2-0.2-7.9-1.2h0.1c0,0-2.7-2.5,4-7.8
			c6.6-5.2,27.5-20,23.1-27.7s-27.7,3-35.5,6.1c-5.3,2.1-7.4,1.2-8.2,0.3c-0.6-0.7-1.8-3,2.5-8.2c5.4-6.5,22.7-25.3,16.8-31.8
			c-5.9-6.6-26.5,8.7-33.4,13.3c-4.3,2.9-6.6,2.7-7.7,2.2l0,0c0,0-0.1,0-0.1-0.1c0,0,0,0-0.1,0l0,0c-0.1,0-0.1-0.1-0.1-0.1
			c-0.8-0.5-2.4-2.5,0.8-8.5c3.9-7.4,17-29.4,9.8-34.7c-7.2-5.3-24.1,14-29.9,20c-3.6,3.7-5.8,4-7.1,3.7l0,0c0,0-0.1,0-0.1,0
			s-0.1,0-0.1,0c-0.7-0.2-3.1-1.6-1.2-8.5c2.3-8.1,10.5-32.3,2.4-35.9c-8.1-3.6-20.6,18.7-25.1,25.8c-2.8,4.5-5,5.2-6.2,5.1l0,0
			c0,0-0.4,0-0.9-0.2c-0.1-0.1-0.1-0.1-0.1-0.1l0,0c-1.1-0.7-2.4-2.5-2-7.8c0.6-8.4,3.6-33.8-5.2-35.6c-8.7-1.8-16.3,22.6-19.2,30.5
			c-1.8,4.9-3.7,6-4.9,6.3l0,0c0,0-0.1,0-0.2,0l0,0c-0.7,0.1-3.6-0.1-4.6-7.3c-1.2-8.3-3.6-33.8-12.4-33.8
			c-8.9,0-11.3,25.5-12.4,33.8c-0.8,5.3-2.5,6.8-3.6,7.2l0,0c0,0-0.1,0-0.1,0.1c-0.6,0.2-1,0.1-1,0.1l0,0c-1.2-0.2-3.2-1.3-5-6.3
			c-2.9-7.9-10.5-32.3-19.2-30.5c-8.7,1.8-5.7,27.3-5.2,35.6c0.5,7.2-2.2,8-2.9,8.1c-0.1,0-0.1,0-0.1,0s-0.1,0-0.1,0l0,0
			c-1.2,0.1-3.4-0.8-6.1-5.1c-4.4-7.1-17-29.4-25.1-25.8c-8.1,3.6,0.1,27.9,2.4,35.9c1.8,6.6-0.2,8.1-1.1,8.5
			c-0.1,0-0.1,0.1-0.1,0.1c0,0,0,0-0.1,0c0,0,0,0-0.1,0c-0.1,0-0.1,0.1-0.1,0.1l0,0c-1.2,0.3-3.4,0.1-7.1-3.7
			c-5.8-6-22.8-25.3-29.9-20c-7.2,5.2,5.9,27.3,9.8,34.7c3.2,6,1.5,8,0.8,8.5c-0.9,0.7-3.3,1.1-7.9-2c-6.9-4.7-27.5-20-33.4-13.3
			c-5.9,6.6,11.4,25.4,16.8,31.8c4.4,5.3,3.1,7.6,2.5,8.2l-0.1,0.1c0,0,0,0-0.1,0.1c0,0,0,0-0.1,0.1c-0.1,0.1-0.1,0.1-0.1,0.1l0,0
			c-0.9,0.8-3.1,1.4-8-0.5c-7.8-3.1-31.1-13.8-35.5-6.1c-4.4,7.7,16.4,22.5,23.1,27.7c4.4,3.5,4.7,5.8,4.4,6.9
			c-0.3,0.9-1.7,3.1-8.4,1.9c-8.2-1.4-33.3-7.1-36,1.4c-2.7,8.5,20.7,18.6,28.3,22.3c4.7,2.3,5.6,4.4,5.7,5.6l0,0c0,0,0,0.1,0,0.1
			v0.1c0,0,0,0,0,0.1s0,0.1,0,0.1c-0.1,0.9-0.9,3.4-7.8,3.6c-8.4,0.3-34,0-34.9,8.8s24.2,13.9,32.3,15.9c5,1.2,6.4,3,6.8,4.2l0,0
			c0,0,0,0.1,0,0.1c0,0.1,0,0.1,0,0.1c0.1,0.7,0.2,3.6-6.8,5.3c-8.1,2.1-33.3,7.1-32.3,15.9s26.6,8.5,34.9,8.8
			c5.3,0.2,7,1.7,7.5,2.8l0,0c0,0,0.2,0.4,0.2,0.9c0,0.1,0,0.2,0,0.2l0,0c-0.1,1.2-0.9,3.3-5.7,5.6c-7.5,3.7-31.1,13.8-28.3,22.3
			s27.7,2.8,36,1.4c5.1-0.9,7.1,0.2,7.9,1.1l0,0c0,0,0.1,0.1,0.1,0.1l0,0c0.4,0.6,1.7,3.1-4,7.6c-6.6,5.2-27.5,20-23.1,27.7
			c4.4,7.7,27.7-3,35.5-6.1c4.9-2,7.1-1.2,8.1-0.5l0,0c0,0,0.1,0.1,0.1,0.1c0.4,0.4,0.5,0.8,0.5,0.8l0,0c0.5,1.1,0.5,3.4-2.9,7.5
			c-5.4,6.5-22.7,25.3-16.8,31.8c5.9,6.6,26.5-8.7,33.4-13.3c6-4,8.1-2.1,8.5-1.5l0.1,0.1c0.1,0.1,0.1,0.1,0.1,0.1l0,0
			c0.7,1.1,1,3.3-1.4,7.8c-3.9,7.4-17,29.4-9.8,34.7c7.2,5.3,24.1-14,29.9-20c4.7-4.9,7.1-3.9,7.9-3.3c0.1,0,0.1,0.1,0.1,0.1l0,0
			c0,0,0,0,0.1,0.1s0.1,0.1,0.1,0.1l0,0c0.9,0.9,1.8,3,0.3,8c-2.3,8.1-10.5,32.3-2.4,35.9s20.6-18.7,25.1-25.8
			c3.6-5.7,6.2-5.3,7-4.9c1.1,0.5,2.6,2.3,2.3,7.9c-0.6,8.4-3.6,33.8,5.2,35.6c8.7,1.8,16.3-22.6,19.2-30.5c1.8-4.9,3.7-6.1,5-6.3
			v0.1c0,0,3.6-1,4.7,7.3s3.6,33.8,12.4,33.8s11.3-25.5,12.4-33.8c0.8-5.6,2.7-7,3.9-7.2c0.9-0.2,3.5-0.1,5.8,6.3
			c2.9,7.9,10.5,32.3,19.2,30.5c8.7-1.8,5.7-27.3,5.2-35.6c-0.4-5.2,0.9-7.1,2-7.8l0,0c0,0,0.1-0.1,0.1-0.1c0,0,0,0,0.1,0
			c0,0,0,0,0.1,0c0.1,0,0.1-0.1,0.1-0.1c0.8-0.4,3.4-0.9,7,4.9c4.4,7.1,17,29.4,25.1,25.8c8.1-3.6-0.1-27.9-2.4-35.9
			c-1.4-5-0.6-7.1,0.3-7.9l0,0c0,0,0,0,0.1-0.1l0.1-0.1c0.5-0.5,3-2,8,3.3c5.8,6,22.8,25.3,29.9,20c7.2-5.2-5.9-27.3-9.8-34.7
			c-2.5-4.7-2-6.9-1.3-7.9l0,0c0,0,0.2-0.4,0.7-0.7c0.1-0.1,0.1-0.1,0.1-0.1l0,0c1.1-0.6,3.3-0.8,7.8,2.1c6.9,4.7,27.5,20,33.4,13.3
			c5.9-6.6-11.4-25.4-16.8-31.8c-4.7-5.6-2.9-7.8-2.4-8.3l0,0c0.1-0.1,0.1-0.1,0.1-0.1l0,0c0.9-0.8,3.1-1.4,7.9,0.5
			c7.8,3.1,31.1,13.8,35.5,6.1s-16.4-22.5-23.1-27.7c-4.2-3.3-4.6-5.5-4.4-6.7l0,0c0,0,0-0.1,0-0.2c0.1-0.6,0.5-0.9,0.5-0.9l0,0
			c0.8-0.9,2.7-2.1,7.9-1.2c8.2,1.4,33.3,7.1,36-1.4s-20.7-18.6-28.3-22.3c-6.5-3.2-5.9-5.9-5.6-6.6c0,0,0-0.1,0.1-0.1
			c0-0.1,0.1-0.1,0.1-0.1l0,0c0.6-1.1,2.3-2.5,7.5-2.7c8.4-0.3,34,0,34.9-8.8C964.1,734.6,939,729.5,930.9,727.5z"/>
		
			<radialGradient id="SVGID_6_" cx="765.4302" cy="301.3933" r="150.6708" gradientTransform="matrix(1 0 0 -1 0 1024)" gradientUnits="userSpaceOnUse">
			<stop  offset="0.7388" style="stop-color:#FFFFFF;stop-opacity:0"/>
			<stop  offset="0.8361" style="stop-color:#FDFDFD;stop-opacity:3.726428e-02"/>
			<stop  offset="0.8712" style="stop-color:#F6F6F6;stop-opacity:5.068948e-02"/>
			<stop  offset="0.8962" style="stop-color:#EBEBEB;stop-opacity:6.025776e-02"/>
			<stop  offset="0.9164" style="stop-color:#DADADA;stop-opacity:6.799926e-02"/>
			<stop  offset="0.9337" style="stop-color:#C4C4C4;stop-opacity:7.462608e-02"/>
			<stop  offset="0.9491" style="stop-color:#A8A8A8;stop-opacity:8.049740e-02"/>
			<stop  offset="0.9629" style="stop-color:#888888;stop-opacity:8.581012e-02"/>
			<stop  offset="0.9757" style="stop-color:#626262;stop-opacity:9.069102e-02"/>
			<stop  offset="0.9875" style="stop-color:#373737;stop-opacity:9.523237e-02"/>
			<stop  offset="0.9981" style="stop-color:#090909;stop-opacity:9.926198e-02"/>
			<stop  offset="1" style="stop-color:#000000;stop-opacity:0.1"/>
		</radialGradient>
		<circle class="st22" cx="765.4" cy="722.6" r="150.7"/>
	</g>
	<g id="Layer_10">
		<path class="st23" d="M897.6,690.7L897.6,690.7L897.6,690.7c-0.1-0.9-0.3-1.9-0.5-2.8c-2.3-10.3-13.6-47.1-63.3-76.1
			c-54.9-25.5-93.4-14.5-93.4-14.5c-7.6,1.8-13.3,8.7-13.3,16.9c0,3.7,1.1,7.1,3.1,10l42.8,72.4c1.2,2.3,2.7,4.3,4.4,6.1
			c4.4,4.4,10.6,7.2,17.4,7.2h85.4c9.6,0,17.4-7.8,17.4-17.4C897.7,691.8,897.7,691.3,897.6,690.7z"/>
		<path class="st23" d="M737.5,839.4L737.5,839.4L737.5,839.4c0.9,0.4,1.8,0.7,2.7,0.9c10.1,3.2,47.5,11.7,97.5-17
			c49.4-34.9,59.1-73.7,59.1-73.7c2.3-7.5-0.9-15.9-8-20c-3.2-1.8-6.8-2.5-10.1-2.3l-84.2,1.1c-2.5-0.1-5.1,0.2-7.5,0.8
			c-6.1,1.7-11.5,5.6-14.9,11.5l-42.6,74c-4.8,8.4-1.9,19,6.4,23.8C736.4,838.9,737,839.1,737.5,839.4z"/>
		<path class="st23" d="M691.3,628.2L691.3,628.2C691.3,628.2,691.2,628.2,691.3,628.2c-0.8,0.5-1.5,1.1-2.2,1.8
			c-7.9,6.9-34.8,34.4-36.5,92c3.9,60.4,31.9,88.9,31.9,88.9c5.3,5.9,14,7.5,21.2,3.6c3.3-1.8,5.7-4.4,7.2-7.5l43.1-72.3
			c1.4-2.1,2.5-4.4,3.2-6.8c1.8-6,1.2-12.7-2-18.7l-40.8-75c-4.6-8.4-15.2-11.6-23.6-6.9C692.2,627.7,691.8,627.9,691.3,628.2z"/>
		<path class="st12" d="M896.7,689.5L896.7,689.5L896.7,689.5c-0.1-0.9-0.2-1.9-0.5-2.8c-2.1-10.4-12.7-47.3-61.8-77.3
			C780,582.8,741.3,593,741.3,593c-7.7,1.7-13.5,8.4-13.7,16.7c-0.1,3.7,1,7.1,2.9,10L772,693c1.1,2.3,2.6,4.4,4.3,6.2
			c4.4,4.6,10.4,7.4,17.2,7.5l85.4,1.7c9.6,0.2,17.5-7.5,17.7-17.1C896.7,690.6,896.7,690,896.7,689.5z"/>
		
			<radialGradient id="SVGID_7_" cx="792.1193" cy="143.4206" r="265.5626" gradientTransform="matrix(0.97 0.2433 8.473066e-02 -0.3378 -31.6298 446.7156)" gradientUnits="userSpaceOnUse">
			<stop  offset="0" style="stop-color:#000000;stop-opacity:0.4"/>
			<stop  offset="0.2308" style="stop-color:#0F0F0F;stop-opacity:0.3281"/>
			<stop  offset="0.6324" style="stop-color:#303030;stop-opacity:0.1568"/>
			<stop  offset="1" style="stop-color:#525252;stop-opacity:0"/>
		</radialGradient>
		<path class="st24" d="M896.7,689.5L896.7,689.5L896.7,689.5c-0.1-0.9-0.2-1.9-0.5-2.8c-2.1-10.4-12.7-47.3-61.8-77.3
			C780,582.8,741.3,593,741.3,593c-7.7,1.7-13.5,8.4-13.7,16.7c-0.1,3.7,1,7.1,2.9,10L772,693c1.1,2.3,2.6,4.4,4.3,6.2
			c4.4,4.6,10.4,7.4,17.2,7.5l85.4,1.7c9.6,0.2,17.5-7.5,17.7-17.1C896.7,690.6,896.7,690,896.7,689.5z"/>
		<path class="st12" d="M729.6,849.5L729.6,849.5L729.6,849.5c0.9,0.4,1.8,0.8,2.7,1c10,3.4,47.3,12.6,97.9-15.1
			c50.1-33.9,60.5-72.5,60.5-72.5c2.4-7.5-0.6-15.9-7.6-20.2c-3.1-1.9-6.7-2.7-10.1-2.4l-84.2-0.5c-2.5-0.2-5.1,0.1-7.5,0.7
			c-6.1,1.5-11.6,5.4-15.1,11.2l-44,73.2c-4.9,8.2-2.3,18.9,5.9,23.9C728.6,849,729.2,849.3,729.6,849.5z"/>
		
			<radialGradient id="SVGID_8_" cx="742.7805" cy="634.8624" r="222.9461" gradientTransform="matrix(-0.9998 -1.772588e-02 -5.795454e-03 0.3269 1542.3833 541.1835)" gradientUnits="userSpaceOnUse">
			<stop  offset="0" style="stop-color:#000000;stop-opacity:0.4"/>
			<stop  offset="4.900217e-02" style="stop-color:#020202;stop-opacity:0.3883"/>
			<stop  offset="0.3404" style="stop-color:#171717;stop-opacity:0.2693"/>
			<stop  offset="0.9389" style="stop-color:#4C4C4C;stop-opacity:2.493605e-02"/>
			<stop  offset="1" style="stop-color:#525252;stop-opacity:0"/>
		</radialGradient>
		<path class="st25" d="M729.6,849.5L729.6,849.5L729.6,849.5c0.9,0.4,1.8,0.8,2.7,1c10,3.4,47.3,12.6,97.9-15.1
			c50.1-33.9,60.5-72.5,60.5-72.5c2.4-7.5-0.6-15.9-7.6-20.2c-3.1-1.9-6.7-2.7-10.1-2.4l-84.2-0.5c-2.5-0.2-5.1,0.1-7.5,0.7
			c-6.1,1.5-11.6,5.4-15.1,11.2l-44,73.2c-4.9,8.2-2.3,18.9,5.9,23.9C728.6,849,729.2,849.3,729.6,849.5z"/>
		<path class="st12" d="M674.7,627.1L674.7,627.1L674.7,627.1c-0.8,0.5-1.5,1.1-2.3,1.8c-8.1,6.8-35.4,33.7-38.3,91.3
			c2.7,60.5,30.2,89.5,30.2,89.5c5.2,5.9,13.9,7.8,21.2,4c3.3-1.7,5.7-4.3,7.3-7.3l44.5-71.4c1.5-2.1,2.6-4.4,3.4-6.8
			c1.9-6,1.5-12.7-1.7-18.7l-39.4-75.8c-4.4-8.5-14.9-11.9-23.5-7.4C675.6,626.5,675.2,626.8,674.7,627.1z"/>
		
			<radialGradient id="SVGID_9_" cx="511.4855" cy="109.9991" r="163.5831" gradientTransform="matrix(0.6477 -0.7619 -0.3353 -0.285 371.1676 1064.7897)" gradientUnits="userSpaceOnUse">
			<stop  offset="0" style="stop-color:#000000;stop-opacity:0.4"/>
			<stop  offset="0.2308" style="stop-color:#0F0F0F;stop-opacity:0.3281"/>
			<stop  offset="0.6324" style="stop-color:#303030;stop-opacity:0.1568"/>
			<stop  offset="1" style="stop-color:#525252;stop-opacity:0"/>
		</radialGradient>
		<path class="st26" d="M674.7,627.1L674.7,627.1L674.7,627.1c-0.8,0.5-1.5,1.1-2.3,1.8c-8.1,6.8-35.4,33.7-38.3,91.3
			c2.7,60.5,30.2,89.5,30.2,89.5c5.2,5.9,13.9,7.8,21.2,4c3.3-1.7,5.7-4.3,7.3-7.3l44.5-71.4c1.5-2.1,2.6-4.4,3.4-6.8
			c1.9-6,1.5-12.7-1.7-18.7l-39.4-75.8c-4.4-8.5-14.9-11.9-23.5-7.4C675.6,626.5,675.2,626.8,674.7,627.1z"/>
	</g>
	<g id="Layer_11">
		
			<linearGradient id="SVGID_10_" gradientUnits="userSpaceOnUse" x1="765.4302" y1="317.8307" x2="765.4302" y2="283.8573" gradientTransform="matrix(1 0 0 -1 0 1024)">
			<stop  offset="6.788641e-04" style="stop-color:#FFFFFF;stop-opacity:0.3"/>
			<stop  offset="0.5086" style="stop-color:#D7D7D6"/>
			<stop  offset="0.6002" style="stop-color:#D4D4D3;stop-opacity:0.8882"/>
			<stop  offset="0.6695" style="stop-color:#CACAC9;stop-opacity:0.8035"/>
			<stop  offset="0.7315" style="stop-color:#BABAB9;stop-opacity:0.7278"/>
			<stop  offset="0.7892" style="stop-color:#A3A3A2;stop-opacity:0.6574"/>
			<stop  offset="0.8439" style="stop-color:#858585;stop-opacity:0.5905"/>
			<stop  offset="0.8965" style="stop-color:#616161;stop-opacity:0.5264"/>
			<stop  offset="0.9473" style="stop-color:#363636;stop-opacity:0.4644"/>
			<stop  offset="0.9954" style="stop-color:#050505;stop-opacity:0.4056"/>
			<stop  offset="1" style="stop-color:#000000;stop-opacity:0.4"/>
		</linearGradient>
		<circle class="st27" cx="765.4" cy="722.6" r="17.3"/>
		<circle class="st28" cx="765.4" cy="722.6" r="13.9"/>
	</g>
	<g id="Layer_11_copy">
		
			<linearGradient id="SVGID_11_" gradientUnits="userSpaceOnUse" x1="765.4302" y1="310.636" x2="765.4302" y2="291.5329" gradientTransform="matrix(1 0 0 -1 0 1024)">
			<stop  offset="6.788641e-04" style="stop-color:#FFFFFF;stop-opacity:0.3"/>
			<stop  offset="0.5086" style="stop-color:#D7D7D6"/>
			<stop  offset="0.6002" style="stop-color:#D4D4D3;stop-opacity:0.8882"/>
			<stop  offset="0.6695" style="stop-color:#CACAC9;stop-opacity:0.8035"/>
			<stop  offset="0.7315" style="stop-color:#BABAB9;stop-opacity:0.7278"/>
			<stop  offset="0.7892" style="stop-color:#A3A3A2;stop-opacity:0.6574"/>
			<stop  offset="0.8439" style="stop-color:#858585;stop-opacity:0.5905"/>
			<stop  offset="0.8965" style="stop-color:#616161;stop-opacity:0.5264"/>
			<stop  offset="0.9473" style="stop-color:#363636;stop-opacity:0.4644"/>
			<stop  offset="0.9954" style="stop-color:#050505;stop-opacity:0.4056"/>
			<stop  offset="1" style="stop-color:#000000;stop-opacity:0.4"/>
		</linearGradient>
		<circle class="st29" cx="765.4" cy="722.6" r="9.7"/>
		<circle class="st28" cx="765.4" cy="722.6" r="7.8"/>
	</g>
</g>
</svg>
