<?xml version="1.0" encoding="UTF-8" standalone="no"?>
<!-- Artist: @KevDoy for Trenta.io --> 
<!-- Fix -->
<svg
   xmlns:dc="http://purl.org/dc/elements/1.1/"
   xmlns:cc="http://creativecommons.org/ns#"
   xmlns:rdf="http://www.w3.org/1999/02/22-rdf-syntax-ns#"
   xmlns:svg="http://www.w3.org/2000/svg"
   xmlns="http://www.w3.org/2000/svg"
   xmlns:sodipodi="http://sodipodi.sourceforge.net/DTD/sodipodi-0.dtd"
   xmlns:inkscape="http://www.inkscape.org/namespaces/inkscape"
   version="1.1"
   id="Layer_1"
   x="0px"
   y="0px"
   viewBox="0 0 1024 1024"
   style="enable-background:new 0 0 1024 1024;"
   xml:space="preserve"
   sodipodi:docname="ubuntusoftware.svg"
   inkscape:version="0.92.2 5c3e80d, 2017-08-06"><metadata
     id="metadata997"><rdf:RDF><cc:Work
         rdf:about=""><dc:format>image/svg+xml</dc:format><dc:type
           rdf:resource="http://purl.org/dc/dcmitype/StillImage" /></cc:Work></rdf:RDF></metadata><defs
     id="defs995"><filter
       inkscape:collect="always"
       style="color-interpolation-filters:sRGB"
       id="filter1125"
       x="-0.057669082"
       width="1.1153382"
       y="-0.062527281"
       height="1.1250546"><feGaussianBlur
         inkscape:collect="always"
         stdDeviation="10.515004"
         id="feGaussianBlur1127" /></filter></defs><sodipodi:namedview
     pagecolor="#ffffff"
     bordercolor="#666666"
     borderopacity="1"
     objecttolerance="10"
     gridtolerance="10"
     guidetolerance="10"
     inkscape:pageopacity="0"
     inkscape:pageshadow="2"
     inkscape:window-width="1680"
     inkscape:window-height="956"
     id="namedview993"
     showgrid="false"
     inkscape:zoom="8.2090678"
     inkscape:cx="982.88502"
     inkscape:cy="768.43982"
     inkscape:window-x="0"
     inkscape:window-y="1"
     inkscape:window-maximized="1"
     inkscape:current-layer="Layer_1" /><style
     type="text/css"
     id="style947">
	.st0{fill:url(#SVGID_1_);}
	.st1{fill:url(#SVGID_2_);}
	.st2{fill:url(#SVGID_3_);}
	.st3{fill:url(#SVGID_4_);}
	.st4{fill:url(#SVGID_5_);}
	.st5{fill:url(#SVGID_6_);}
</style><g
     id="Circle"><radialGradient
       id="SVGID_1_"
       cx="534.99377"
       cy="1129.1427"
       r="954.20319"
       gradientTransform="matrix(1,0,0,-1,0,1026)"
       gradientUnits="userSpaceOnUse"><stop
         offset="0"
         style="stop-color:#FBFAFA"
         id="stop949" /><stop
         offset="1"
         style="stop-color:#D5D5D5"
         id="stop951" /></radialGradient><circle
       class="st0"
       cx="512"
       cy="512"
       r="447"
       id="circle954"
       style="fill:url(#SVGID_1_)" /><linearGradient
       id="SVGID_2_"
       gradientUnits="userSpaceOnUse"
       x1="512"
       y1="115.907"
       x2="512"
       y2="923.09052"><stop
         offset="0.1364"
         style="stop-color:#14A2FB"
         id="stop956" /><stop
         offset="1"
         style="stop-color:#15369C"
         id="stop958" /></linearGradient><circle
       class="st1"
       cx="512"
       cy="512"
       r="409"
       id="circle961"
       style="fill:url(#SVGID_2_)" /></g><g
     id="g1019"
     style="opacity:0.15;fill:#000000;fill-opacity:1;filter:url(#filter1125)"
     transform="translate(0,16.538358)"><polygon
       class="st2"
       points="512,385 480,488.4 396.1,488.4 472.3,281.5 551.1,281.5 629,488.4 547.6,488.4 "
       id="polygon1007"
       style="fill:#000000;fill-opacity:1" /><polygon
       class="st3"
       points="322.6,685.1 414.1,685.1 437.7,616.5 347.7,616.5 "
       id="polygon1009"
       style="fill:#000000;fill-opacity:1" /><polygon
       class="st4"
       points="702.5,685.1 611,685.1 587.3,616.5 677.4,616.5 "
       id="polygon1011"
       style="fill:#000000;fill-opacity:1" /><path
       class="st5"
       d="M 684.6,506.9 H 341.2 c -25.9,0 -47.1,21.2 -47.1,47.1 v 0 c 0,25.9 21.2,47.1 47.1,47.1 h 343.4 c 25.9,0 47.1,-21.2 47.1,-47.1 v 0 c 0.1,-25.9 -21.1,-47.1 -47.1,-47.1 z M 538.7,578.4 H 344.3 c -14.7,0 -26.7,-10.5 -26.7,-23.4 0,-12.9 12,-23.4 26.7,-23.4 h 194.3 c 14.7,0 26.7,10.5 26.7,23.4 0,12.9 -12,23.4 -26.6,23.4 z"
       id="path1013"
       inkscape:connector-curvature="0"
       style="fill:#000000;fill-opacity:1" /></g><radialGradient
     id="SVGID_3_"
     cx="513.9297"
     cy="78.5998"
     r="879.3672"
     gradientUnits="userSpaceOnUse"><stop
       offset="0"
       style="stop-color:#FBFAFA"
       id="stop964" /><stop
       offset="1"
       style="stop-color:#D5D5D5"
       id="stop966" /></radialGradient><polygon
     class="st2"
     points="396.1,488.4 472.3,281.5 551.1,281.5 629,488.4 547.6,488.4 512,385 480,488.4 "
     id="polygon969" /><radialGradient
     id="SVGID_4_"
     cx="513.9297"
     cy="78.5998"
     r="879.3672"
     gradientUnits="userSpaceOnUse"><stop
       offset="0"
       style="stop-color:#FBFAFA"
       id="stop971" /><stop
       offset="1"
       style="stop-color:#D5D5D5"
       id="stop973" /></radialGradient><polygon
     class="st3"
     points="347.7,616.5 322.6,685.1 414.1,685.1 437.7,616.5 "
     id="polygon976" /><radialGradient
     id="SVGID_5_"
     cx="513.9297"
     cy="78.5998"
     r="879.3672"
     gradientUnits="userSpaceOnUse"><stop
       offset="0"
       style="stop-color:#FBFAFA"
       id="stop978" /><stop
       offset="1"
       style="stop-color:#D5D5D5"
       id="stop980" /></radialGradient><polygon
     class="st4"
     points="677.4,616.5 702.5,685.1 611,685.1 587.3,616.5 "
     id="polygon983" /><radialGradient
     id="SVGID_6_"
     cx="513.9297"
     cy="78.5998"
     r="879.3672"
     gradientUnits="userSpaceOnUse"><stop
       offset="0"
       style="stop-color:#FBFAFA"
       id="stop985" /><stop
       offset="1"
       style="stop-color:#D5D5D5"
       id="stop987" /></radialGradient><path
     class="st5"
     d="M684.6,506.9H341.2c-25.9,0-47.1,21.2-47.1,47.1v0c0,25.9,21.2,47.1,47.1,47.1h343.4  c25.9,0,47.1-21.2,47.1-47.1v0C731.8,528.1,710.6,506.9,684.6,506.9z M538.7,578.4H344.3c-14.7,0-26.7-10.5-26.7-23.4  s12-23.4,26.7-23.4h194.3c14.7,0,26.7,10.5,26.7,23.4S553.3,578.4,538.7,578.4z"
     id="path990" /></svg>