<?xml version="1.0" encoding="utf-8"?>
<!-- Generator: Adobe Illustrator 21.1.0, SVG Export Plug-In . SVG Version: 6.00 Build 0)  -->
<!-- Artist: @KevDoy for Trenta.io -->
<svg version="1.1" xmlns="http://www.w3.org/2000/svg" xmlns:xlink="http://www.w3.org/1999/xlink" x="0px" y="0px"
	 viewBox="0 0 1024 1024" style="enable-background:new 0 0 1024 1024;" xml:space="preserve">
<style type="text/css">
	.st0{fill:url(#SVGID_1_);}
	.st1{fill:url(#SVGID_2_);}
	.st2{fill:url(#SVGID_3_);}
	.st3{fill:url(#SVGID_4_);}
	.st4{fill:url(#SVGID_5_);}
	.st5{fill:url(#SVGID_6_);}
	.st6{fill:url(#SVGID_7_);}
</style>
<g id="Layer_2">
	<linearGradient id="SVGID_1_" gradientUnits="userSpaceOnUse" x1="513.1985" y1="92" x2="513.1985" y2="932">
		<stop  offset="0" style="stop-color:#DBEDEF"/>
		<stop  offset="0.2604" style="stop-color:#BFCACB"/>
		<stop  offset="0.5805" style="stop-color:#A1A6A6"/>
		<stop  offset="0.8383" style="stop-color:#8F8F8E"/>
		<stop  offset="1" style="stop-color:#888786"/>
	</linearGradient>
	<path class="st0" d="M953.2,932h-880c-22.1,0-40-17.9-40-40V132c0-22.1,17.9-40,40-40h880c22.1,0,40,17.9,40,40v760
		C993.2,914.1,975.3,932,953.2,932z"/>
	<linearGradient id="SVGID_2_" gradientUnits="userSpaceOnUse" x1="845.8798" y1="174.9982" x2="146.1739" y2="883.7911">
		<stop  offset="0" style="stop-color:#1E1F1F"/>
		<stop  offset="0.8984" style="stop-color:#040404"/>
	</linearGradient>
	<path class="st1" d="M945.6,922H80.8c-19.9,0-36.1-16.2-36.1-36.1V138.1c0-19.9,16.2-36.1,36.1-36.1h864.9
		c19.9,0,36.1,16.2,36.1,36.1v747.7C981.7,905.8,965.6,922,945.6,922z"/>
</g>
<g id="Layer_4">
	<linearGradient id="SVGID_3_" gradientUnits="userSpaceOnUse" x1="108.1667" y1="512" x2="918.2303" y2="512">
		<stop  offset="0" style="stop-color:#1B2A25"/>
		<stop  offset="0.8984" style="stop-color:#202E2A"/>
	</linearGradient>
	<rect x="108.2" y="163" class="st2" width="810.1" height="698.1"/>
	<radialGradient id="SVGID_4_" cx="868.2092" cy="605.1661" r="143.237" gradientUnits="userSpaceOnUse">
		<stop  offset="0" style="stop-color:#95C8B9;stop-opacity:0.6448"/>
		<stop  offset="1" style="stop-color:#95C8B9;stop-opacity:0"/>
	</radialGradient>
	<path class="st3" d="M918.2,445.3c-17.1-5.8-35.5-9-54.6-9c-93.3,0-168.9,75.6-168.9,168.9s75.6,168.9,168.9,168.9
		c19.1,0,37.5-3.2,54.6-9V445.3z"/>
	<g>
		<linearGradient id="SVGID_5_" gradientUnits="userSpaceOnUse" x1="120.5346" y1="502.1825" x2="870.4671" y2="502.1825">
			<stop  offset="8.101852e-03" style="stop-color:#95C8B9;stop-opacity:0"/>
			<stop  offset="0.4023" style="stop-color:#95C8B9"/>
			<stop  offset="1" style="stop-color:#95C8B9"/>
		</linearGradient>
		<path class="st4" d="M472,730.5c0,0-0.1,0-0.1,0c-3-0.1-5.5-2.4-5.8-5.4l-43.3-401.5l-42,249.1c-0.4,2.3-2.1,4.2-4.4,4.8
			c-2.3,0.6-4.7-0.2-6.2-2l-13.1-16.2l-16.9-4c-0.7-0.2-1.3-0.4-1.9-0.8l-71.5-47.3l-47.8,53c-1.1,1.2-2.6,1.9-4.2,2l-88,4.5
			c-3.3,0.1-6.1-2.4-6.3-5.7c-0.2-3.3,2.4-6.1,5.7-6.3l85.6-4.3l49.6-55c2-2.2,5.3-2.6,7.8-1l74.9,49.6l17.9,4.2
			c1.3,0.3,2.5,1,3.3,2.1l6,7.4l47-278.8c0.5-3,3.1-5.1,6.1-5c3,0.1,5.5,2.4,5.8,5.4l43,399.2l22-142.1c0.5-3.1,3.2-5.3,6.3-5.1
			c3.1,0.2,5.5,2.8,5.6,5.9c0,0.3,0.9,29.2,19.1,36.5c9.2,3.7,21.8,1.6,37.4-6.3c20.5-10.3,45.6-30.4,74.8-59.6
			c0.7-0.7,1.5-1.2,2.4-1.5c15.4-5,31.8,5.8,48.8,32.1c10.6,16.4,18,33.6,19.5,37.3c0.5,0.5,1.7,1.6,4.3,1.7
			c4.6,0.2,18-2.4,44.3-32.5c14.5-16.6,29.2-23.8,43.7-21.4c25.6,4.2,39.6,37,40.1,38.4c0.2,0.4,0.3,0.9,0.4,1.4
			c2,12.7,10,38.5,21.8,38.5c0.2,0,0.3,0,0.5,0c3.3-0.2,6.1,2.3,6.3,5.6c0.2,3.3-2.3,6.1-5.6,6.3c-8.1,0.5-19.6-3.5-28.3-25
			c-4-9.9-5.9-19.9-6.4-22.7c-1.8-4-13.3-27.8-30.8-30.6c-10.1-1.6-21.1,4.2-32.7,17.5c-22.4,25.6-40.9,37.9-55,36.5
			c-9-0.9-12.8-7-13.2-7.7c-0.1-0.2-0.3-0.5-0.4-0.7c-0.1-0.2-7.7-18.9-18.9-36.1c-7.4-11.5-21.4-29.9-33.6-27.4
			c-29.6,29.5-55.4,50-76.8,60.7c-18.8,9.5-34.7,11.7-47.3,6.7c-9.1-3.7-15.1-10.6-19.1-18L478,725.5
			C477.5,728.4,475,730.5,472,730.5z"/>
		<linearGradient id="SVGID_6_" gradientUnits="userSpaceOnUse" x1="114.5343" y1="502.1825" x2="876.4672" y2="502.1825">
			<stop  offset="8.101852e-03" style="stop-color:#95C8B9;stop-opacity:0"/>
			<stop  offset="0.4023" style="stop-color:#2B3F3A"/>
			<stop  offset="0.9147" style="stop-color:#2B3F3A"/>
			<stop  offset="0.9284" style="stop-color:#374E48"/>
			<stop  offset="0.9549" style="stop-color:#56776E"/>
			<stop  offset="0.9914" style="stop-color:#88B8AA"/>
			<stop  offset="1" style="stop-color:#95C8B9"/>
		</linearGradient>
		<path class="st5" d="M424.2,273.8c0,0,0.1,0,0.1,0c3,0.1,5.5,2.4,5.8,5.4l43,399.2l22-142.1c0.5-2.9,3-5.1,5.9-5.1
			c0.1,0,0.3,0,0.4,0c3.1,0.2,5.5,2.8,5.6,5.9c0,0.3,0.9,29.2,19.1,36.5c2.9,1.2,6.2,1.8,9.8,1.8c7.7,0,17-2.7,27.6-8
			c20.5-10.3,45.6-30.4,74.8-59.6c0.7-0.7,1.5-1.2,2.4-1.5c2.4-0.8,4.9-1.2,7.4-1.2c13.2,0,27.1,11.2,41.3,33.3
			c10.6,16.4,18,33.6,19.5,37.3c0.5,0.5,1.7,1.6,4.3,1.7c0.2,0,0.3,0,0.5,0c5,0,18.5-3.6,43.8-32.5c12.7-14.5,25.5-21.9,38.3-21.9
			c1.8,0,3.6,0.1,5.4,0.4c25.6,4.2,39.6,37,40.1,38.4c0.2,0.4,0.3,0.9,0.4,1.4c2,12.7,10,38.5,21.8,38.5c0.2,0,0.3,0,0.5,0
			c0.1,0,0.2,0,0.3,0c3.2,0,5.8,2.5,6,5.7c0.2,3.3-2.3,6.1-5.6,6.3c-0.4,0-0.8,0-1.2,0c-8,0-18.8-4.6-27.1-25.1
			c-4-9.9-5.9-19.9-6.4-22.7c-1.8-4-13.3-27.8-30.8-30.6c-1.1-0.2-2.2-0.3-3.3-0.3c-9.2,0-19,6-29.3,17.7
			c-21.3,24.3-39,36.6-52.8,36.6c-0.7,0-1.5,0-2.2-0.1c-9-0.9-12.8-7-13.2-7.7c-0.1-0.2-0.3-0.5-0.4-0.7
			c-0.1-0.2-7.7-18.9-18.9-36.1c-6.9-10.8-19.7-27.6-31.3-27.6c-0.8,0-1.5,0.1-2.3,0.2c-29.6,29.5-55.4,50-76.8,60.7
			c-12.3,6.2-23.4,9.3-33,9.3c-5.1,0-9.9-0.9-14.2-2.6c-9.1-3.7-15.1-10.6-19.1-18L478,725.5c-0.5,2.9-3,5.1-5.9,5.1
			c0,0-0.1,0-0.1,0c-3-0.1-5.5-2.4-5.8-5.4l-43.3-401.5l-42,249.1c-0.4,2.3-2.1,4.2-4.4,4.8c-0.5,0.1-1,0.2-1.5,0.2
			c-1.8,0-3.5-0.8-4.7-2.2l-13.1-16.2l-16.9-4c-0.7-0.2-1.3-0.4-1.9-0.8l-71.5-47.3l-47.8,53c-1.1,1.2-2.6,1.9-4.2,2l-88,4.5
			c-0.1,0-0.2,0-0.3,0c-3.2,0-5.9-2.5-6-5.7c-0.2-3.3,2.4-6.1,5.7-6.3l85.6-4.3l49.6-55c1.2-1.3,2.8-2,4.5-2c1.1,0,2.3,0.3,3.3,1
			l74.9,49.6l17.9,4.2c1.3,0.3,2.5,1,3.3,2.1l6,7.4l47-278.8C418.7,275.9,421.3,273.8,424.2,273.8 M424.2,267.8
			c-5.9,0-10.9,4.2-11.9,10l-44.8,266.3c-1.2-0.9-2.6-1.5-4.1-1.8l-16.9-4l-74-49c-2-1.3-4.3-2-6.6-2c-3.4,0-6.6,1.4-8.9,4
			L209,544.5l-83.1,4.2c-3.2,0.2-6.1,1.6-8.3,3.9c-2.1,2.4-3.2,5.5-3.1,8.7c0.3,6.4,5.6,11.4,12,11.4c0.2,0,0.4,0,0.6,0l88.1-4.5
			c3.2-0.2,6.2-1.6,8.3-3.9l44.4-49.2l67.2,44.5c1.2,0.8,2.5,1.3,3.9,1.7l14.9,3.5l11.8,14.6c2.3,2.8,5.7,4.5,9.3,4.5
			c1,0,2-0.1,3-0.4c4.6-1.2,8-5,8.8-9.6l34.7-206.2l38.6,358.2c0.6,6,5.6,10.6,11.6,10.7c0.1,0,0.2,0,0.3,0c6,0,10.9-4.3,11.9-10.2
			l22.4-144.6c3.8,3.7,8.2,6.5,13.1,8.5c5,2,10.6,3.1,16.5,3.1c10.6,0,22.6-3.3,35.7-9.9c21.6-10.8,47.4-31.1,76.8-60.3
			c6.3,0.4,16.2,9.8,25.9,24.9c10.7,16.6,18.3,35,18.3,35.2c0.2,0.5,0.4,1,0.7,1.5c0.9,1.6,6,9.5,17.8,10.7c0.9,0.1,1.8,0.1,2.8,0.1
			c15.8,0,34.6-12.7,57.3-38.7c9-10.3,17.5-15.7,24.8-15.7c0.8,0,1.6,0.1,2.4,0.2c11.6,1.9,21.6,17.2,25.9,26.5
			c0.7,3.7,2.7,13.4,6.6,23.2c9.6,23.8,23.1,28.8,32.6,28.8c0.5,0,1,0,1.5,0c6.6-0.4,11.7-6.1,11.3-12.7c-0.4-6.3-5.6-11.3-12-11.3
			c-0.2,0-0.4,0-0.7,0c-0.1,0-0.1,0-0.1,0c-1.9,0-5.4-2.9-9.2-11c-3.6-7.7-5.9-16.9-6.7-22.4c-0.1-0.9-0.4-1.9-0.8-2.7
			c-0.4-1-4.3-10-11.5-19.5c-9.7-12.8-21.2-20.6-33.3-22.5c-2.1-0.3-4.2-0.5-6.3-0.5c-14.6,0-29,8-42.8,23.9
			c-25.3,29-37.1,30.5-39.2,30.5c-0.1,0-0.1,0-0.2,0c-2.6-6-9.6-21.5-19.2-36.3c-15.4-23.9-31-36.1-46.4-36.1
			c-3.1,0-6.2,0.5-9.3,1.5c-1.8,0.6-3.4,1.6-4.8,2.9c-28.7,28.8-53.3,48.4-73.2,58.5c-9.8,4.9-18.1,7.4-24.9,7.4
			c-2.8,0-5.4-0.4-7.6-1.3c-11.9-4.8-15.1-24-15.3-31.1c-0.1-6.2-4.9-11.3-11.2-11.7c-0.3,0-0.5,0-0.8,0c-5.9,0-10.9,4.3-11.8,10.2
			l-15,96.9l-38.1-353.8c-0.6-5.9-5.6-10.5-11.6-10.7C424.3,267.8,424.3,267.8,424.2,267.8L424.2,267.8z"/>
	</g>
	<radialGradient id="SVGID_7_" cx="863.615" cy="605.1661" r="48.5483" gradientUnits="userSpaceOnUse">
		<stop  offset="0" style="stop-color:#B0ECDB"/>
		<stop  offset="0.2868" style="stop-color:#AFEAD9;stop-opacity:0.8038"/>
		<stop  offset="0.3901" style="stop-color:#AAE3D3;stop-opacity:0.7332"/>
		<stop  offset="0.4635" style="stop-color:#A1D8C8;stop-opacity:0.683"/>
		<stop  offset="0.5194" style="stop-color:#95C8B9;stop-opacity:0.6448"/>
		<stop  offset="0.5694" style="stop-color:#86B4A7;stop-opacity:0.5765"/>
		<stop  offset="0.7086" style="stop-color:#5F8278;stop-opacity:0.3865"/>
		<stop  offset="0.8305" style="stop-color:#435D56;stop-opacity:0.2202"/>
		<stop  offset="0.929" style="stop-color:#314742;stop-opacity:8.577353e-02"/>
		<stop  offset="0.9919" style="stop-color:#2B3F3A;stop-opacity:0"/>
	</radialGradient>
	<circle class="st6" cx="863.6" cy="605.2" r="48.5"/>
</g>
</svg>
