<?xml version="1.0" encoding="utf-8"?>
<!-- Generator: Adobe Illustrator 21.1.0, SVG Export Plug-In . SVG Version: 6.00 Build 0)  -->
<svg version="1.1" id="Layer_1" xmlns="http://www.w3.org/2000/svg" xmlns:xlink="http://www.w3.org/1999/xlink" x="0px" y="0px"
	 viewBox="0 0 181.6 181.6" style="enable-background:new 0 0 181.6 181.6;" xml:space="preserve">
<g id="Layer_2_copy_1_">
	<path d="M178,102.4h-5.9c-1.5,0-2.8-1.2-2.8-2.8V82.1c0-1.5,1.2-2.8,2.8-2.8h5.9c1.5,0,2.8,1.2,2.8,2.8v17.5
		C180.8,101.1,179.5,102.4,178,102.4z"/>
</g>
<path d="M176.4,102.4h-2.7c-2.4,0-4.4-2-4.4-4.4V83.8c0-2.4,2-4.4,4.4-4.4h2.7c2.4,0,4.4,2,4.4,4.4v14.2
	C180.8,100.4,178.8,102.4,176.4,102.4z"/>
<path d="M94,35.8l-46.6,59c-1.1,1.3-0.1,3.3,1.6,3.3h24.3c1.4,0,2.4,1.3,2,2.6L64.1,140c-0.6,2.1,2.2,3.6,3.6,1.9l47.9-58.7
	c1.1-1.3,0.1-3.4-1.6-3.4H89.7c-1.3,0-2.3-1.3-2-2.6l9.9-39.6C98.1,35.4,95.4,34.1,94,35.8z"/>
<g transform="translate(0,-952.36218)">
	<g>
		<path d="M159.2,1000.4h-58l-1.8,7h56.5c2.1,0,3.8,1.7,3.8,3.8v63.9c0,2.1-1.7,3.8-3.8,3.8h-68l-5.7,7h76.9c4.2,0,7.6-3.4,7.6-7.6
			V1008C166.8,1003.8,163.4,1000.4,159.2,1000.4z"/>
		<path d="M61.7,1078.9H11.6c-2.1,0-3.8-1.7-3.8-3.8v-63.9c0-2.1,1.7-3.8,3.8-3.8h59.6l5.5-7H8.4c-4.2,0-7.6,3.4-7.6,7.6v70.3
			c0,4.2,3.4,7.6,7.6,7.6h51.3L61.7,1078.9z"/>
	</g>
</g>
</svg>
