<?xml version="1.0" encoding="utf-8"?>
<!-- Generator: Adobe Illustrator 21.1.0, SVG Export Plug-In . SVG Version: 6.00 Build 0)  -->
<svg version="1.1" id="Layer_1" xmlns="http://www.w3.org/2000/svg" xmlns:xlink="http://www.w3.org/1999/xlink" x="0px" y="0px"
	 viewBox="0 0 181.6 181.6" style="enable-background:new 0 0 181.6 181.6;" xml:space="preserve">
<g id="Layer_2_copy">
	<path d="M178,102.4h-5.9c-1.5,0-2.8-1.2-2.8-2.8V82.1c0-1.5,1.2-2.8,2.8-2.8h5.9c1.5,0,2.8,1.2,2.8,2.8v17.5
		C180.8,101.1,179.5,102.4,178,102.4z"/>
</g>
<path d="M176.4,102.4h-2.7c-2.4,0-4.4-2-4.4-4.4V83.8c0-2.4,2-4.4,4.4-4.4h2.7c2.4,0,4.4,2,4.4,4.4V98
	C180.8,100.4,178.8,102.4,176.4,102.4z"/>
<g>
	<path d="M94.7,73.8H114c2,0,3.8,0.7,5.2,1.9v-6.2c0-2.4-1.9-4.3-4.3-4.3h-18L94.7,73.8z"/>
	<path d="M68.1,104.2H49c-3.1,0-5.9-1.7-7.2-4.5c-1.4-2.8-1-6.1,0.9-8.5l20.5-25.9H22.1c-2.4,0-4.3,1.9-4.3,4.3v42.8
		c0,2.4,1.9,4.3,4.3,4.3h42.4L68.1,104.2z"/>
	<path d="M96,116.6h18.8c2.4,0,4.3-2,4.4-4.3V88.2L96,116.6z"/>
</g>
<g>
	<path d="M159.2,48.1h-58l-1.8,7h56.5c2.1,0,3.8,1.7,3.8,3.8v63.9c0,2.1-1.7,3.8-3.8,3.8H87.8l-5.7,7h77c4.2,0,7.6-3.4,7.6-7.6V55.7
		C166.8,51.5,163.4,48.1,159.2,48.1z"/>
	<path d="M61.7,126.6H11.6c-2.1,0-3.8-1.7-3.8-3.8V58.9c0-2.1,1.7-3.8,3.8-3.8h59.5l5.5-7H8.4c-4.2,0-7.6,3.4-7.6,7.6V126
		c0,4.2,3.4,7.6,7.6,7.6h51.3L61.7,126.6z"/>
</g>
<path d="M94,35.8l-46.6,59c-1.1,1.3-0.1,3.3,1.6,3.3h24.3c1.4,0,2.4,1.3,2,2.6L64.1,140c-0.6,2.1,2.2,3.6,3.6,1.9l47.9-58.7
	c1.1-1.3,0.1-3.4-1.6-3.4H89.7c-1.3,0-2.3-1.3-2-2.6l9.9-39.6C98.1,35.5,95.4,34.1,94,35.8z"/>
</svg>
